<?xml version="1.0" encoding="utf-8" standalone="no"?>
<!DOCTYPE svg PUBLIC "-//W3C//DTD SVG 1.1//EN"
  "http://www.w3.org/Graphics/SVG/1.1/DTD/svg11.dtd">
<!-- Created with matplotlib (http://matplotlib.org/) -->
<svg height="417.270125pt" version="1.1" viewBox="0 0 1001.388125 417.270125" width="1001.388125pt" xmlns="http://www.w3.org/2000/svg" xmlns:xlink="http://www.w3.org/1999/xlink">
 <defs>
  <style type="text/css">
*{stroke-linecap:butt;stroke-linejoin:round;}
  </style>
 </defs>
 <g id="figure_1">
  <g id="patch_1">
   <path d="M 0 417.270125 
L 1001.388125 417.270125 
L 1001.388125 0 
L 0 0 
z
" style="fill:#ffffff;"/>
  </g>
  <g id="axes_1">
   <g id="patch_2">
    <path d="M 38.058125 381.6495 
L 990.688125 381.6495 
L 990.688125 36.6095 
L 38.058125 36.6095 
z
" style="fill:#ffffff;"/>
   </g>
   <g id="patch_3">
    <path clip-path="url(#pe0dca2c7da)" d="M 38.058125 449.21482 
L 1071.104943 449.21482 
L 1071.104943 -158.873057 
L 38.058125 -158.873057 
z
" style="fill:#c3e6c3;"/>
   </g>
   <g id="patch_4">
    <path clip-path="url(#pe0dca2c7da)" d="M 38.058125 246.518861 
L 1071.104943 246.518861 
L 1071.104943 178.953541 
L 38.058125 178.953541 
z
" style="fill:#e6dcc3;"/>
   </g>
   <g id="patch_5">
    <path clip-path="url(#pe0dca2c7da)" d="M 38.058125 466.10615 
L 1071.104943 466.10615 
L 1071.104943 297.19285 
L 38.058125 297.19285 
z
" style="fill:#e6c3c3;"/>
   </g>
   <g id="matplotlib.axis_1">
    <g id="xtick_1">
     <g id="text_1">
      <!-- 1 -->
      <defs>
       <path d="M 12.40625 8.296875 
L 28.515625 8.296875 
L 28.515625 63.921875 
L 10.984375 60.40625 
L 10.984375 69.390625 
L 28.421875 72.90625 
L 38.28125 72.90625 
L 38.28125 8.296875 
L 54.390625 8.296875 
L 54.390625 0 
L 12.40625 0 
z
" id="DejaVuSans-31"/>
      </defs>
      <g transform="translate(78.814489 394.72825)scale(0.08 -0.08)">
       <use xlink:href="#DejaVuSans-31"/>
      </g>
     </g>
    </g>
    <g id="xtick_2">
     <g id="text_2">
      <!-- 2 -->
      <defs>
       <path d="M 19.1875 8.296875 
L 53.609375 8.296875 
L 53.609375 0 
L 7.328125 0 
L 7.328125 8.296875 
Q 12.9375 14.109375 22.625 23.890625 
Q 32.328125 33.6875 34.8125 36.53125 
Q 39.546875 41.84375 41.421875 45.53125 
Q 43.3125 49.21875 43.3125 52.78125 
Q 43.3125 58.59375 39.234375 62.25 
Q 35.15625 65.921875 28.609375 65.921875 
Q 23.96875 65.921875 18.8125 64.3125 
Q 13.671875 62.703125 7.8125 59.421875 
L 7.8125 69.390625 
Q 13.765625 71.78125 18.9375 73 
Q 24.125 74.21875 28.421875 74.21875 
Q 39.75 74.21875 46.484375 68.546875 
Q 53.21875 62.890625 53.21875 53.421875 
Q 53.21875 48.921875 51.53125 44.890625 
Q 49.859375 40.875 45.40625 35.40625 
Q 44.1875 33.984375 37.640625 27.21875 
Q 31.109375 20.453125 19.1875 8.296875 
z
" id="DejaVuSans-32"/>
      </defs>
      <g transform="translate(202.53267 394.72825)scale(0.08 -0.08)">
       <use xlink:href="#DejaVuSans-32"/>
      </g>
     </g>
    </g>
    <g id="xtick_3">
     <g id="text_3">
      <!-- 3 -->
      <defs>
       <path d="M 40.578125 39.3125 
Q 47.65625 37.796875 51.625 33 
Q 55.609375 28.21875 55.609375 21.1875 
Q 55.609375 10.40625 48.1875 4.484375 
Q 40.765625 -1.421875 27.09375 -1.421875 
Q 22.515625 -1.421875 17.65625 -0.515625 
Q 12.796875 0.390625 7.625 2.203125 
L 7.625 11.71875 
Q 11.71875 9.328125 16.59375 8.109375 
Q 21.484375 6.890625 26.8125 6.890625 
Q 36.078125 6.890625 40.9375 10.546875 
Q 45.796875 14.203125 45.796875 21.1875 
Q 45.796875 27.640625 41.28125 31.265625 
Q 36.765625 34.90625 28.71875 34.90625 
L 20.21875 34.90625 
L 20.21875 43.015625 
L 29.109375 43.015625 
Q 36.375 43.015625 40.234375 45.921875 
Q 44.09375 48.828125 44.09375 54.296875 
Q 44.09375 59.90625 40.109375 62.90625 
Q 36.140625 65.921875 28.71875 65.921875 
Q 24.65625 65.921875 20.015625 65.03125 
Q 15.375 64.15625 9.8125 62.3125 
L 9.8125 71.09375 
Q 15.4375 72.65625 20.34375 73.4375 
Q 25.25 74.21875 29.59375 74.21875 
Q 40.828125 74.21875 47.359375 69.109375 
Q 53.90625 64.015625 53.90625 55.328125 
Q 53.90625 49.265625 50.4375 45.09375 
Q 46.96875 40.921875 40.578125 39.3125 
z
" id="DejaVuSans-33"/>
      </defs>
      <g transform="translate(326.250852 394.72825)scale(0.08 -0.08)">
       <use xlink:href="#DejaVuSans-33"/>
      </g>
     </g>
    </g>
    <g id="xtick_4">
     <g id="text_4">
      <!-- 4 -->
      <defs>
       <path d="M 37.796875 64.3125 
L 12.890625 25.390625 
L 37.796875 25.390625 
z
M 35.203125 72.90625 
L 47.609375 72.90625 
L 47.609375 25.390625 
L 58.015625 25.390625 
L 58.015625 17.1875 
L 47.609375 17.1875 
L 47.609375 0 
L 37.796875 0 
L 37.796875 17.1875 
L 4.890625 17.1875 
L 4.890625 26.703125 
z
" id="DejaVuSans-34"/>
      </defs>
      <g transform="translate(449.969034 394.72825)scale(0.08 -0.08)">
       <use xlink:href="#DejaVuSans-34"/>
      </g>
     </g>
    </g>
    <g id="xtick_5">
     <g id="text_5">
      <!-- 5 -->
      <defs>
       <path d="M 10.796875 72.90625 
L 49.515625 72.90625 
L 49.515625 64.59375 
L 19.828125 64.59375 
L 19.828125 46.734375 
Q 21.96875 47.46875 24.109375 47.828125 
Q 26.265625 48.1875 28.421875 48.1875 
Q 40.625 48.1875 47.75 41.5 
Q 54.890625 34.8125 54.890625 23.390625 
Q 54.890625 11.625 47.5625 5.09375 
Q 40.234375 -1.421875 26.90625 -1.421875 
Q 22.3125 -1.421875 17.546875 -0.640625 
Q 12.796875 0.140625 7.71875 1.703125 
L 7.71875 11.625 
Q 12.109375 9.234375 16.796875 8.0625 
Q 21.484375 6.890625 26.703125 6.890625 
Q 35.15625 6.890625 40.078125 11.328125 
Q 45.015625 15.765625 45.015625 23.390625 
Q 45.015625 31 40.078125 35.4375 
Q 35.15625 39.890625 26.703125 39.890625 
Q 22.75 39.890625 18.8125 39.015625 
Q 14.890625 38.140625 10.796875 36.28125 
z
" id="DejaVuSans-35"/>
      </defs>
      <g transform="translate(573.687216 394.72825)scale(0.08 -0.08)">
       <use xlink:href="#DejaVuSans-35"/>
      </g>
     </g>
    </g>
    <g id="xtick_6">
     <g id="text_6">
      <!-- 6 -->
      <defs>
       <path d="M 33.015625 40.375 
Q 26.375 40.375 22.484375 35.828125 
Q 18.609375 31.296875 18.609375 23.390625 
Q 18.609375 15.53125 22.484375 10.953125 
Q 26.375 6.390625 33.015625 6.390625 
Q 39.65625 6.390625 43.53125 10.953125 
Q 47.40625 15.53125 47.40625 23.390625 
Q 47.40625 31.296875 43.53125 35.828125 
Q 39.65625 40.375 33.015625 40.375 
z
M 52.59375 71.296875 
L 52.59375 62.3125 
Q 48.875 64.0625 45.09375 64.984375 
Q 41.3125 65.921875 37.59375 65.921875 
Q 27.828125 65.921875 22.671875 59.328125 
Q 17.53125 52.734375 16.796875 39.40625 
Q 19.671875 43.65625 24.015625 45.921875 
Q 28.375 48.1875 33.59375 48.1875 
Q 44.578125 48.1875 50.953125 41.515625 
Q 57.328125 34.859375 57.328125 23.390625 
Q 57.328125 12.15625 50.6875 5.359375 
Q 44.046875 -1.421875 33.015625 -1.421875 
Q 20.359375 -1.421875 13.671875 8.265625 
Q 6.984375 17.96875 6.984375 36.375 
Q 6.984375 53.65625 15.1875 63.9375 
Q 23.390625 74.21875 37.203125 74.21875 
Q 40.921875 74.21875 44.703125 73.484375 
Q 48.484375 72.75 52.59375 71.296875 
z
" id="DejaVuSans-36"/>
      </defs>
      <g transform="translate(697.405398 394.72825)scale(0.08 -0.08)">
       <use xlink:href="#DejaVuSans-36"/>
      </g>
     </g>
    </g>
    <g id="xtick_7">
     <g id="text_7">
      <!-- 7 -->
      <defs>
       <path d="M 8.203125 72.90625 
L 55.078125 72.90625 
L 55.078125 68.703125 
L 28.609375 0 
L 18.3125 0 
L 43.21875 64.59375 
L 8.203125 64.59375 
z
" id="DejaVuSans-37"/>
      </defs>
      <g transform="translate(821.12358 394.72825)scale(0.08 -0.08)">
       <use xlink:href="#DejaVuSans-37"/>
      </g>
     </g>
    </g>
    <g id="xtick_8">
     <g id="text_8">
      <!-- 8 -->
      <defs>
       <path d="M 31.78125 34.625 
Q 24.75 34.625 20.71875 30.859375 
Q 16.703125 27.09375 16.703125 20.515625 
Q 16.703125 13.921875 20.71875 10.15625 
Q 24.75 6.390625 31.78125 6.390625 
Q 38.8125 6.390625 42.859375 10.171875 
Q 46.921875 13.96875 46.921875 20.515625 
Q 46.921875 27.09375 42.890625 30.859375 
Q 38.875 34.625 31.78125 34.625 
z
M 21.921875 38.8125 
Q 15.578125 40.375 12.03125 44.71875 
Q 8.5 49.078125 8.5 55.328125 
Q 8.5 64.0625 14.71875 69.140625 
Q 20.953125 74.21875 31.78125 74.21875 
Q 42.671875 74.21875 48.875 69.140625 
Q 55.078125 64.0625 55.078125 55.328125 
Q 55.078125 49.078125 51.53125 44.71875 
Q 48 40.375 41.703125 38.8125 
Q 48.828125 37.15625 52.796875 32.3125 
Q 56.78125 27.484375 56.78125 20.515625 
Q 56.78125 9.90625 50.3125 4.234375 
Q 43.84375 -1.421875 31.78125 -1.421875 
Q 19.734375 -1.421875 13.25 4.234375 
Q 6.78125 9.90625 6.78125 20.515625 
Q 6.78125 27.484375 10.78125 32.3125 
Q 14.796875 37.15625 21.921875 38.8125 
z
M 18.3125 54.390625 
Q 18.3125 48.734375 21.84375 45.5625 
Q 25.390625 42.390625 31.78125 42.390625 
Q 38.140625 42.390625 41.71875 45.5625 
Q 45.3125 48.734375 45.3125 54.390625 
Q 45.3125 60.0625 41.71875 63.234375 
Q 38.140625 66.40625 31.78125 66.40625 
Q 25.390625 66.40625 21.84375 63.234375 
Q 18.3125 60.0625 18.3125 54.390625 
z
" id="DejaVuSans-38"/>
      </defs>
      <g transform="translate(944.841761 394.72825)scale(0.08 -0.08)">
       <use xlink:href="#DejaVuSans-38"/>
      </g>
     </g>
    </g>
    <g id="text_9">
     <!-- Position (bp) -->
     <defs>
      <path d="M 19.671875 64.796875 
L 19.671875 37.40625 
L 32.078125 37.40625 
Q 38.96875 37.40625 42.71875 40.96875 
Q 46.484375 44.53125 46.484375 51.125 
Q 46.484375 57.671875 42.71875 61.234375 
Q 38.96875 64.796875 32.078125 64.796875 
z
M 9.8125 72.90625 
L 32.078125 72.90625 
Q 44.34375 72.90625 50.609375 67.359375 
Q 56.890625 61.8125 56.890625 51.125 
Q 56.890625 40.328125 50.609375 34.8125 
Q 44.34375 29.296875 32.078125 29.296875 
L 19.671875 29.296875 
L 19.671875 0 
L 9.8125 0 
z
" id="DejaVuSans-50"/>
      <path d="M 30.609375 48.390625 
Q 23.390625 48.390625 19.1875 42.75 
Q 14.984375 37.109375 14.984375 27.296875 
Q 14.984375 17.484375 19.15625 11.84375 
Q 23.34375 6.203125 30.609375 6.203125 
Q 37.796875 6.203125 41.984375 11.859375 
Q 46.1875 17.53125 46.1875 27.296875 
Q 46.1875 37.015625 41.984375 42.703125 
Q 37.796875 48.390625 30.609375 48.390625 
z
M 30.609375 56 
Q 42.328125 56 49.015625 48.375 
Q 55.71875 40.765625 55.71875 27.296875 
Q 55.71875 13.875 49.015625 6.21875 
Q 42.328125 -1.421875 30.609375 -1.421875 
Q 18.84375 -1.421875 12.171875 6.21875 
Q 5.515625 13.875 5.515625 27.296875 
Q 5.515625 40.765625 12.171875 48.375 
Q 18.84375 56 30.609375 56 
z
" id="DejaVuSans-6f"/>
      <path d="M 44.28125 53.078125 
L 44.28125 44.578125 
Q 40.484375 46.53125 36.375 47.5 
Q 32.28125 48.484375 27.875 48.484375 
Q 21.1875 48.484375 17.84375 46.4375 
Q 14.5 44.390625 14.5 40.28125 
Q 14.5 37.15625 16.890625 35.375 
Q 19.28125 33.59375 26.515625 31.984375 
L 29.59375 31.296875 
Q 39.15625 29.25 43.1875 25.515625 
Q 47.21875 21.78125 47.21875 15.09375 
Q 47.21875 7.46875 41.1875 3.015625 
Q 35.15625 -1.421875 24.609375 -1.421875 
Q 20.21875 -1.421875 15.453125 -0.5625 
Q 10.6875 0.296875 5.421875 2 
L 5.421875 11.28125 
Q 10.40625 8.6875 15.234375 7.390625 
Q 20.0625 6.109375 24.8125 6.109375 
Q 31.15625 6.109375 34.5625 8.28125 
Q 37.984375 10.453125 37.984375 14.40625 
Q 37.984375 18.0625 35.515625 20.015625 
Q 33.0625 21.96875 24.703125 23.78125 
L 21.578125 24.515625 
Q 13.234375 26.265625 9.515625 29.90625 
Q 5.8125 33.546875 5.8125 39.890625 
Q 5.8125 47.609375 11.28125 51.796875 
Q 16.75 56 26.8125 56 
Q 31.78125 56 36.171875 55.265625 
Q 40.578125 54.546875 44.28125 53.078125 
z
" id="DejaVuSans-73"/>
      <path d="M 9.421875 54.6875 
L 18.40625 54.6875 
L 18.40625 0 
L 9.421875 0 
z
M 9.421875 75.984375 
L 18.40625 75.984375 
L 18.40625 64.59375 
L 9.421875 64.59375 
z
" id="DejaVuSans-69"/>
      <path d="M 18.3125 70.21875 
L 18.3125 54.6875 
L 36.8125 54.6875 
L 36.8125 47.703125 
L 18.3125 47.703125 
L 18.3125 18.015625 
Q 18.3125 11.328125 20.140625 9.421875 
Q 21.96875 7.515625 27.59375 7.515625 
L 36.8125 7.515625 
L 36.8125 0 
L 27.59375 0 
Q 17.1875 0 13.234375 3.875 
Q 9.28125 7.765625 9.28125 18.015625 
L 9.28125 47.703125 
L 2.6875 47.703125 
L 2.6875 54.6875 
L 9.28125 54.6875 
L 9.28125 70.21875 
z
" id="DejaVuSans-74"/>
      <path d="M 54.890625 33.015625 
L 54.890625 0 
L 45.90625 0 
L 45.90625 32.71875 
Q 45.90625 40.484375 42.875 44.328125 
Q 39.84375 48.1875 33.796875 48.1875 
Q 26.515625 48.1875 22.3125 43.546875 
Q 18.109375 38.921875 18.109375 30.90625 
L 18.109375 0 
L 9.078125 0 
L 9.078125 54.6875 
L 18.109375 54.6875 
L 18.109375 46.1875 
Q 21.34375 51.125 25.703125 53.5625 
Q 30.078125 56 35.796875 56 
Q 45.21875 56 50.046875 50.171875 
Q 54.890625 44.34375 54.890625 33.015625 
z
" id="DejaVuSans-6e"/>
      <path id="DejaVuSans-20"/>
      <path d="M 31 75.875 
Q 24.46875 64.65625 21.28125 53.65625 
Q 18.109375 42.671875 18.109375 31.390625 
Q 18.109375 20.125 21.3125 9.0625 
Q 24.515625 -2 31 -13.1875 
L 23.1875 -13.1875 
Q 15.875 -1.703125 12.234375 9.375 
Q 8.59375 20.453125 8.59375 31.390625 
Q 8.59375 42.28125 12.203125 53.3125 
Q 15.828125 64.359375 23.1875 75.875 
z
" id="DejaVuSans-28"/>
      <path d="M 48.6875 27.296875 
Q 48.6875 37.203125 44.609375 42.84375 
Q 40.53125 48.484375 33.40625 48.484375 
Q 26.265625 48.484375 22.1875 42.84375 
Q 18.109375 37.203125 18.109375 27.296875 
Q 18.109375 17.390625 22.1875 11.75 
Q 26.265625 6.109375 33.40625 6.109375 
Q 40.53125 6.109375 44.609375 11.75 
Q 48.6875 17.390625 48.6875 27.296875 
z
M 18.109375 46.390625 
Q 20.953125 51.265625 25.265625 53.625 
Q 29.59375 56 35.59375 56 
Q 45.5625 56 51.78125 48.09375 
Q 58.015625 40.1875 58.015625 27.296875 
Q 58.015625 14.40625 51.78125 6.484375 
Q 45.5625 -1.421875 35.59375 -1.421875 
Q 29.59375 -1.421875 25.265625 0.953125 
Q 20.953125 3.328125 18.109375 8.203125 
L 18.109375 0 
L 9.078125 0 
L 9.078125 75.984375 
L 18.109375 75.984375 
z
" id="DejaVuSans-62"/>
      <path d="M 18.109375 8.203125 
L 18.109375 -20.796875 
L 9.078125 -20.796875 
L 9.078125 54.6875 
L 18.109375 54.6875 
L 18.109375 46.390625 
Q 20.953125 51.265625 25.265625 53.625 
Q 29.59375 56 35.59375 56 
Q 45.5625 56 51.78125 48.09375 
Q 58.015625 40.1875 58.015625 27.296875 
Q 58.015625 14.40625 51.78125 6.484375 
Q 45.5625 -1.421875 35.59375 -1.421875 
Q 29.59375 -1.421875 25.265625 0.953125 
Q 20.953125 3.328125 18.109375 8.203125 
z
M 48.6875 27.296875 
Q 48.6875 37.203125 44.609375 42.84375 
Q 40.53125 48.484375 33.40625 48.484375 
Q 26.265625 48.484375 22.1875 42.84375 
Q 18.109375 37.203125 18.109375 27.296875 
Q 18.109375 17.390625 22.1875 11.75 
Q 26.265625 6.109375 33.40625 6.109375 
Q 40.53125 6.109375 44.609375 11.75 
Q 48.6875 17.390625 48.6875 27.296875 
z
" id="DejaVuSans-70"/>
      <path d="M 8.015625 75.875 
L 15.828125 75.875 
Q 23.140625 64.359375 26.78125 53.3125 
Q 30.421875 42.28125 30.421875 31.390625 
Q 30.421875 20.453125 26.78125 9.375 
Q 23.140625 -1.703125 15.828125 -13.1875 
L 8.015625 -13.1875 
Q 14.5 -2 17.703125 9.0625 
Q 20.90625 20.125 20.90625 31.390625 
Q 20.90625 42.671875 17.703125 53.65625 
Q 14.5 64.65625 8.015625 75.875 
z
" id="DejaVuSans-29"/>
     </defs>
     <g transform="translate(482.891094 407.990437)scale(0.1 -0.1)">
      <use xlink:href="#DejaVuSans-50"/>
      <use x="60.255859" xlink:href="#DejaVuSans-6f"/>
      <use x="121.4375" xlink:href="#DejaVuSans-73"/>
      <use x="173.537109" xlink:href="#DejaVuSans-69"/>
      <use x="201.320312" xlink:href="#DejaVuSans-74"/>
      <use x="240.529297" xlink:href="#DejaVuSans-69"/>
      <use x="268.3125" xlink:href="#DejaVuSans-6f"/>
      <use x="329.494141" xlink:href="#DejaVuSans-6e"/>
      <use x="392.873047" xlink:href="#DejaVuSans-20"/>
      <use x="424.660156" xlink:href="#DejaVuSans-28"/>
      <use x="463.673828" xlink:href="#DejaVuSans-62"/>
      <use x="527.150391" xlink:href="#DejaVuSans-70"/>
      <use x="590.626953" xlink:href="#DejaVuSans-29"/>
     </g>
    </g>
   </g>
   <g id="matplotlib.axis_2">
    <g id="ytick_1">
     <g id="line2d_1">
      <path clip-path="url(#pe0dca2c7da)" d="M 38.058125 381.6495 
L 990.688125 381.6495 
" style="fill:none;stroke:#dedede;stroke-linecap:square;"/>
     </g>
     <g id="text_10">
      <!-- 0 -->
      <defs>
       <path d="M 31.78125 66.40625 
Q 24.171875 66.40625 20.328125 58.90625 
Q 16.5 51.421875 16.5 36.375 
Q 16.5 21.390625 20.328125 13.890625 
Q 24.171875 6.390625 31.78125 6.390625 
Q 39.453125 6.390625 43.28125 13.890625 
Q 47.125 21.390625 47.125 36.375 
Q 47.125 51.421875 43.28125 58.90625 
Q 39.453125 66.40625 31.78125 66.40625 
z
M 31.78125 74.21875 
Q 44.046875 74.21875 50.515625 64.515625 
Q 56.984375 54.828125 56.984375 36.375 
Q 56.984375 17.96875 50.515625 8.265625 
Q 44.046875 -1.421875 31.78125 -1.421875 
Q 19.53125 -1.421875 13.0625 8.265625 
Q 6.59375 17.96875 6.59375 36.375 
Q 6.59375 54.828125 13.0625 64.515625 
Q 19.53125 74.21875 31.78125 74.21875 
z
" id="DejaVuSans-30"/>
      </defs>
      <g transform="translate(25.968125 384.688875)scale(0.08 -0.08)">
       <use xlink:href="#DejaVuSans-30"/>
      </g>
     </g>
    </g>
    <g id="ytick_2">
     <g id="line2d_2">
      <path clip-path="url(#pe0dca2c7da)" d="M 38.058125 339.421175 
L 990.688125 339.421175 
" style="fill:none;stroke:#dedede;stroke-linecap:square;"/>
     </g>
     <g id="text_11">
      <!-- 5 -->
      <g transform="translate(25.968125 342.46055)scale(0.08 -0.08)">
       <use xlink:href="#DejaVuSans-35"/>
      </g>
     </g>
    </g>
    <g id="ytick_3">
     <g id="line2d_3">
      <path clip-path="url(#pe0dca2c7da)" d="M 38.058125 297.19285 
L 990.688125 297.19285 
" style="fill:none;stroke:#dedede;stroke-linecap:square;"/>
     </g>
     <g id="text_12">
      <!-- 10 -->
      <g transform="translate(20.878125 300.232225)scale(0.08 -0.08)">
       <use xlink:href="#DejaVuSans-31"/>
       <use x="63.623047" xlink:href="#DejaVuSans-30"/>
      </g>
     </g>
    </g>
    <g id="ytick_4">
     <g id="line2d_4">
      <path clip-path="url(#pe0dca2c7da)" d="M 38.058125 254.964526 
L 990.688125 254.964526 
" style="fill:none;stroke:#dedede;stroke-linecap:square;"/>
     </g>
     <g id="text_13">
      <!-- 15 -->
      <g transform="translate(20.878125 258.003901)scale(0.08 -0.08)">
       <use xlink:href="#DejaVuSans-31"/>
       <use x="63.623047" xlink:href="#DejaVuSans-35"/>
      </g>
     </g>
    </g>
    <g id="ytick_5">
     <g id="line2d_5">
      <path clip-path="url(#pe0dca2c7da)" d="M 38.058125 212.736201 
L 990.688125 212.736201 
" style="fill:none;stroke:#dedede;stroke-linecap:square;"/>
     </g>
     <g id="text_14">
      <!-- 20 -->
      <g transform="translate(20.878125 215.775576)scale(0.08 -0.08)">
       <use xlink:href="#DejaVuSans-32"/>
       <use x="63.623047" xlink:href="#DejaVuSans-30"/>
      </g>
     </g>
    </g>
    <g id="ytick_6">
     <g id="line2d_6">
      <path clip-path="url(#pe0dca2c7da)" d="M 38.058125 170.507876 
L 990.688125 170.507876 
" style="fill:none;stroke:#dedede;stroke-linecap:square;"/>
     </g>
     <g id="text_15">
      <!-- 25 -->
      <g transform="translate(20.878125 173.547251)scale(0.08 -0.08)">
       <use xlink:href="#DejaVuSans-32"/>
       <use x="63.623047" xlink:href="#DejaVuSans-35"/>
      </g>
     </g>
    </g>
    <g id="ytick_7">
     <g id="line2d_7">
      <path clip-path="url(#pe0dca2c7da)" d="M 38.058125 128.279551 
L 990.688125 128.279551 
" style="fill:none;stroke:#dedede;stroke-linecap:square;"/>
     </g>
     <g id="text_16">
      <!-- 30 -->
      <g transform="translate(20.878125 131.318926)scale(0.08 -0.08)">
       <use xlink:href="#DejaVuSans-33"/>
       <use x="63.623047" xlink:href="#DejaVuSans-30"/>
      </g>
     </g>
    </g>
    <g id="ytick_8">
     <g id="line2d_8">
      <path clip-path="url(#pe0dca2c7da)" d="M 38.058125 86.051227 
L 990.688125 86.051227 
" style="fill:none;stroke:#dedede;stroke-linecap:square;"/>
     </g>
     <g id="text_17">
      <!-- 35 -->
      <g transform="translate(20.878125 89.090602)scale(0.08 -0.08)">
       <use xlink:href="#DejaVuSans-33"/>
       <use x="63.623047" xlink:href="#DejaVuSans-35"/>
      </g>
     </g>
    </g>
    <g id="ytick_9">
     <g id="line2d_9">
      <path clip-path="url(#pe0dca2c7da)" d="M 38.058125 43.822902 
L 990.688125 43.822902 
" style="fill:none;stroke:#dedede;stroke-linecap:square;"/>
     </g>
     <g id="text_18">
      <!-- 40 -->
      <g transform="translate(20.878125 46.862277)scale(0.08 -0.08)">
       <use xlink:href="#DejaVuSans-34"/>
       <use x="63.623047" xlink:href="#DejaVuSans-30"/>
      </g>
     </g>
    </g>
    <g id="text_19">
     <!-- Phred Score -->
     <defs>
      <path d="M 54.890625 33.015625 
L 54.890625 0 
L 45.90625 0 
L 45.90625 32.71875 
Q 45.90625 40.484375 42.875 44.328125 
Q 39.84375 48.1875 33.796875 48.1875 
Q 26.515625 48.1875 22.3125 43.546875 
Q 18.109375 38.921875 18.109375 30.90625 
L 18.109375 0 
L 9.078125 0 
L 9.078125 75.984375 
L 18.109375 75.984375 
L 18.109375 46.1875 
Q 21.34375 51.125 25.703125 53.5625 
Q 30.078125 56 35.796875 56 
Q 45.21875 56 50.046875 50.171875 
Q 54.890625 44.34375 54.890625 33.015625 
z
" id="DejaVuSans-68"/>
      <path d="M 41.109375 46.296875 
Q 39.59375 47.171875 37.8125 47.578125 
Q 36.03125 48 33.890625 48 
Q 26.265625 48 22.1875 43.046875 
Q 18.109375 38.09375 18.109375 28.8125 
L 18.109375 0 
L 9.078125 0 
L 9.078125 54.6875 
L 18.109375 54.6875 
L 18.109375 46.1875 
Q 20.953125 51.171875 25.484375 53.578125 
Q 30.03125 56 36.53125 56 
Q 37.453125 56 38.578125 55.875 
Q 39.703125 55.765625 41.0625 55.515625 
z
" id="DejaVuSans-72"/>
      <path d="M 56.203125 29.59375 
L 56.203125 25.203125 
L 14.890625 25.203125 
Q 15.484375 15.921875 20.484375 11.0625 
Q 25.484375 6.203125 34.421875 6.203125 
Q 39.59375 6.203125 44.453125 7.46875 
Q 49.3125 8.734375 54.109375 11.28125 
L 54.109375 2.78125 
Q 49.265625 0.734375 44.1875 -0.34375 
Q 39.109375 -1.421875 33.890625 -1.421875 
Q 20.796875 -1.421875 13.15625 6.1875 
Q 5.515625 13.8125 5.515625 26.8125 
Q 5.515625 40.234375 12.765625 48.109375 
Q 20.015625 56 32.328125 56 
Q 43.359375 56 49.78125 48.890625 
Q 56.203125 41.796875 56.203125 29.59375 
z
M 47.21875 32.234375 
Q 47.125 39.59375 43.09375 43.984375 
Q 39.0625 48.390625 32.421875 48.390625 
Q 24.90625 48.390625 20.390625 44.140625 
Q 15.875 39.890625 15.1875 32.171875 
z
" id="DejaVuSans-65"/>
      <path d="M 45.40625 46.390625 
L 45.40625 75.984375 
L 54.390625 75.984375 
L 54.390625 0 
L 45.40625 0 
L 45.40625 8.203125 
Q 42.578125 3.328125 38.25 0.953125 
Q 33.9375 -1.421875 27.875 -1.421875 
Q 17.96875 -1.421875 11.734375 6.484375 
Q 5.515625 14.40625 5.515625 27.296875 
Q 5.515625 40.1875 11.734375 48.09375 
Q 17.96875 56 27.875 56 
Q 33.9375 56 38.25 53.625 
Q 42.578125 51.265625 45.40625 46.390625 
z
M 14.796875 27.296875 
Q 14.796875 17.390625 18.875 11.75 
Q 22.953125 6.109375 30.078125 6.109375 
Q 37.203125 6.109375 41.296875 11.75 
Q 45.40625 17.390625 45.40625 27.296875 
Q 45.40625 37.203125 41.296875 42.84375 
Q 37.203125 48.484375 30.078125 48.484375 
Q 22.953125 48.484375 18.875 42.84375 
Q 14.796875 37.203125 14.796875 27.296875 
z
" id="DejaVuSans-64"/>
      <path d="M 53.515625 70.515625 
L 53.515625 60.890625 
Q 47.90625 63.578125 42.921875 64.890625 
Q 37.9375 66.21875 33.296875 66.21875 
Q 25.25 66.21875 20.875 63.09375 
Q 16.5 59.96875 16.5 54.203125 
Q 16.5 49.359375 19.40625 46.890625 
Q 22.3125 44.4375 30.421875 42.921875 
L 36.375 41.703125 
Q 47.40625 39.59375 52.65625 34.296875 
Q 57.90625 29 57.90625 20.125 
Q 57.90625 9.515625 50.796875 4.046875 
Q 43.703125 -1.421875 29.984375 -1.421875 
Q 24.8125 -1.421875 18.96875 -0.25 
Q 13.140625 0.921875 6.890625 3.21875 
L 6.890625 13.375 
Q 12.890625 10.015625 18.65625 8.296875 
Q 24.421875 6.59375 29.984375 6.59375 
Q 38.421875 6.59375 43.015625 9.90625 
Q 47.609375 13.234375 47.609375 19.390625 
Q 47.609375 24.75 44.3125 27.78125 
Q 41.015625 30.8125 33.5 32.328125 
L 27.484375 33.5 
Q 16.453125 35.6875 11.515625 40.375 
Q 6.59375 45.0625 6.59375 53.421875 
Q 6.59375 63.09375 13.40625 68.65625 
Q 20.21875 74.21875 32.171875 74.21875 
Q 37.3125 74.21875 42.625 73.28125 
Q 47.953125 72.359375 53.515625 70.515625 
z
" id="DejaVuSans-53"/>
      <path d="M 48.78125 52.59375 
L 48.78125 44.1875 
Q 44.96875 46.296875 41.140625 47.34375 
Q 37.3125 48.390625 33.40625 48.390625 
Q 24.65625 48.390625 19.8125 42.84375 
Q 14.984375 37.3125 14.984375 27.296875 
Q 14.984375 17.28125 19.8125 11.734375 
Q 24.65625 6.203125 33.40625 6.203125 
Q 37.3125 6.203125 41.140625 7.25 
Q 44.96875 8.296875 48.78125 10.40625 
L 48.78125 2.09375 
Q 45.015625 0.34375 40.984375 -0.53125 
Q 36.96875 -1.421875 32.421875 -1.421875 
Q 20.0625 -1.421875 12.78125 6.34375 
Q 5.515625 14.109375 5.515625 27.296875 
Q 5.515625 40.671875 12.859375 48.328125 
Q 20.21875 56 33.015625 56 
Q 37.15625 56 41.109375 55.140625 
Q 45.0625 54.296875 48.78125 52.59375 
z
" id="DejaVuSans-63"/>
     </defs>
     <g transform="translate(14.798438 239.320125)rotate(-90)scale(0.1 -0.1)">
      <use xlink:href="#DejaVuSans-50"/>
      <use x="60.302734" xlink:href="#DejaVuSans-68"/>
      <use x="123.681641" xlink:href="#DejaVuSans-72"/>
      <use x="164.763672" xlink:href="#DejaVuSans-65"/>
      <use x="226.287109" xlink:href="#DejaVuSans-64"/>
      <use x="289.763672" xlink:href="#DejaVuSans-20"/>
      <use x="321.550781" xlink:href="#DejaVuSans-53"/>
      <use x="385.027344" xlink:href="#DejaVuSans-63"/>
      <use x="440.007812" xlink:href="#DejaVuSans-6f"/>
      <use x="501.189453" xlink:href="#DejaVuSans-72"/>
      <use x="542.271484" xlink:href="#DejaVuSans-65"/>
     </g>
    </g>
   </g>
   <g id="line2d_10">
    <path clip-path="url(#pe0dca2c7da)" d="M 81.359489 118.510718 
L 205.07767 115.961109 
L 328.795852 94.171754 
L 452.514034 81.589377 
L 576.232216 77.245642 
L 699.950398 49.96526 
L 823.66858 48.980397 
L 947.386761 47.358904 
" style="fill:none;stroke:#5cb85c;stroke-linecap:square;"/>
   </g>
   <g id="line2d_11">
    <path clip-path="url(#pe0dca2c7da)" d="M 81.359489 119.493891 
L 205.07767 116.691222 
L 328.795852 94.697113 
L 452.514034 82.670451 
L 576.232216 78.334529 
L 699.950398 52.612657 
L 823.66858 50.79809 
L 947.386761 49.072407 
" style="fill:none;stroke:#5cb85c;stroke-linecap:square;"/>
   </g>
   <g id="line2d_12">
    <path clip-path="url(#pe0dca2c7da)" d="M 81.359489 119.278913 
L 205.07767 116.323116 
L 328.795852 88.389777 
L 452.514034 79.063827 
L 576.232216 78.912971 
L 699.950398 55.269605 
L 823.66858 51.469084 
L 947.386761 47.285629 
" style="fill:none;stroke:#5cb85c;stroke-linecap:square;"/>
   </g>
   <g id="line2d_13">
    <path clip-path="url(#pe0dca2c7da)" d="M 81.359489 120.394278 
L 205.07767 117.160606 
L 328.795852 88.691691 
L 452.514034 80.043029 
L 576.232216 80.043928 
L 699.950398 57.388846 
L 823.66858 53.165037 
L 947.386761 48.949474 
" style="fill:none;stroke:#5cb85c;stroke-linecap:square;"/>
   </g>
   <g id="line2d_14">
    <path clip-path="url(#pe0dca2c7da)" d="M 81.359489 119.48888 
L 205.07767 116.171598 
L 328.795852 91.564506 
L 452.514034 81.589922 
L 576.232216 80.325264 
L 699.950398 54.888778 
L 823.66858 50.527459 
L 947.386761 48.753581 
" style="fill:none;stroke:#5cb85c;stroke-linecap:square;"/>
   </g>
   <g id="line2d_15">
    <path clip-path="url(#pe0dca2c7da)" d="M 81.359489 120.614876 
L 205.07767 116.919871 
L 328.795852 92.628648 
L 452.514034 82.264107 
L 576.232216 81.468483 
L 699.950398 57.177162 
L 823.66858 52.171296 
L 947.386761 50.395807 
" style="fill:none;stroke:#5cb85c;stroke-linecap:square;"/>
   </g>
   <g id="line2d_16">
    <path clip-path="url(#pe0dca2c7da)" d="M 81.359489 119.729184 
L 205.07767 116.674248 
L 328.795852 93.446692 
L 452.514034 80.150427 
L 576.232216 78.011489 
L 699.950398 51.330156 
L 823.66858 48.938064 
L 947.386761 48.581462 
" style="fill:none;stroke:#5cb85c;stroke-linecap:square;"/>
   </g>
   <g id="line2d_17">
    <path clip-path="url(#pe0dca2c7da)" d="M 81.359489 120.879643 
L 205.07767 117.494571 
L 328.795852 93.936155 
L 452.514034 81.14366 
L 576.232216 79.173692 
L 699.950398 53.355984 
L 823.66858 50.562475 
L 947.386761 50.364567 
" style="fill:none;stroke:#5cb85c;stroke-linecap:square;"/>
   </g>
   <g id="line2d_18">
    <path clip-path="url(#pe0dca2c7da)" d="M 81.359489 121.820837 
L 205.07767 116.760435 
L 328.795852 89.857003 
L 452.514034 81.273069 
L 576.232216 76.928922 
L 699.950398 48.986539 
L 823.66858 47.796696 
L 947.386761 49.472395 
" style="fill:none;stroke:#5cb85c;stroke-linecap:square;"/>
   </g>
   <g id="line2d_19">
    <path clip-path="url(#pe0dca2c7da)" d="M 81.359489 123.182222 
L 205.07767 117.674226 
L 328.795852 90.213663 
L 452.514034 82.378375 
L 576.232216 78.094843 
L 699.950398 51.443668 
L 823.66858 49.329164 
L 947.386761 51.127559 
" style="fill:none;stroke:#5cb85c;stroke-linecap:square;"/>
   </g>
   <g id="line2d_20">
    <path clip-path="url(#pe0dca2c7da)" d="M 81.359489 120.156655 
L 205.07767 118.407885 
L 328.795852 89.384996 
L 452.514034 84.60607 
L 576.232216 78.1083 
L 699.950398 50.444904 
L 823.66858 48.744194 
L 947.386761 46.697476 
" style="fill:none;stroke:#5cb85c;stroke-linecap:square;"/>
   </g>
   <g id="line2d_21">
    <path clip-path="url(#pe0dca2c7da)" d="M 81.359489 121.428456 
L 205.07767 119.421737 
L 328.795852 90.273715 
L 452.514034 86.142012 
L 576.232216 79.364723 
L 699.950398 52.68857 
L 823.66858 50.637535 
L 947.386761 48.297052 
" style="fill:none;stroke:#5cb85c;stroke-linecap:square;"/>
   </g>
   <g id="line2d_22">
    <path clip-path="url(#pe0dca2c7da)" d="M 81.359489 118.749926 
L 205.07767 117.49836 
L 328.795852 87.943735 
L 452.514034 79.981657 
L 576.232216 79.181776 
L 699.950398 51.550966 
L 823.66858 49.95038 
L 947.386761 47.759245 
" style="fill:none;stroke:#5cb85c;stroke-linecap:square;"/>
   </g>
   <g id="line2d_23">
    <path clip-path="url(#pe0dca2c7da)" d="M 81.359489 119.87845 
L 205.07767 118.490664 
L 328.795852 88.332574 
L 452.514034 81.182072 
L 576.232216 80.430087 
L 699.950398 54.021771 
L 823.66858 51.72621 
L 947.386761 49.30237 
" style="fill:none;stroke:#5cb85c;stroke-linecap:square;"/>
   </g>
   <g id="line2d_24">
    <path clip-path="url(#pe0dca2c7da)" d="M 81.359489 119.447256 
L 205.07767 115.657134 
L 328.795852 83.967278 
L 452.514034 79.430337 
L 576.232216 77.312458 
L 699.950398 49.260963 
L 823.66858 48.845397 
L 947.386761 46.729967 
" style="fill:none;stroke:#5cb85c;stroke-linecap:square;"/>
   </g>
   <g id="line2d_25">
    <path clip-path="url(#pe0dca2c7da)" d="M 81.359489 120.591037 
L 205.07767 116.422303 
L 328.795852 85.41941 
L 452.514034 80.540059 
L 576.232216 78.505513 
L 699.950398 52.071465 
L 823.66858 50.873462 
L 947.386761 48.562293 
" style="fill:none;stroke:#5cb85c;stroke-linecap:square;"/>
   </g>
   <g id="line2d_26">
    <path clip-path="url(#pe0dca2c7da)" d="M 81.359489 118.820691 
L 205.07767 115.49803 
L 328.795852 80.316642 
L 452.514034 79.895888 
L 576.232216 76.669711 
L 699.950398 48.014215 
L 823.66858 48.371796 
L 947.386761 48.045065 
" style="fill:none;stroke:#5cb85c;stroke-linecap:square;"/>
   </g>
   <g id="line2d_27">
    <path clip-path="url(#pe0dca2c7da)" d="M 81.359489 119.57893 
L 205.07767 116.549135 
L 328.795852 82.654345 
L 452.514034 82.272767 
L 576.232216 78.750195 
L 699.950398 51.509072 
L 823.66858 51.561714 
L 947.386761 50.752941 
" style="fill:none;stroke:#5cb85c;stroke-linecap:square;"/>
   </g>
   <g id="line2d_28">
    <path clip-path="url(#pe0dca2c7da)" d="M 81.359489 119.56535 
L 205.07767 117.307297 
L 328.795852 85.318925 
L 452.514034 80.243545 
L 576.232216 76.345064 
L 699.950398 52.343898 
L 823.66858 46.482805 
L 947.386761 47.121218 
" style="fill:none;stroke:#5cb85c;stroke-linecap:square;"/>
   </g>
   <g id="line2d_29">
    <path clip-path="url(#pe0dca2c7da)" d="M 81.359489 120.561714 
L 205.07767 118.810465 
L 328.795852 88.04039 
L 452.514034 82.480079 
L 576.232216 78.380873 
L 699.950398 56.007995 
L 823.66858 49.454163 
L 947.386761 49.472445 
" style="fill:none;stroke:#5cb85c;stroke-linecap:square;"/>
   </g>
   <g id="line2d_30">
    <path clip-path="url(#pe0dca2c7da)" d="M 81.359489 119.385541 
L 205.07767 115.58216 
L 328.795852 89.975613 
L 452.514034 79.531882 
L 576.232216 81.661229 
L 699.950398 50.183546 
L 823.66858 49.117407 
L 947.386761 47.384309 
" style="fill:none;stroke:#5cb85c;stroke-linecap:square;"/>
   </g>
   <g id="line2d_31">
    <path clip-path="url(#pe0dca2c7da)" d="M 81.359489 120.386063 
L 205.07767 116.617215 
L 328.795852 92.440308 
L 452.514034 81.746205 
L 576.232216 84.670457 
L 699.950398 53.790645 
L 823.66858 52.628333 
L 947.386761 49.908094 
" style="fill:none;stroke:#5cb85c;stroke-linecap:square;"/>
   </g>
   <g id="line2d_32">
    <path clip-path="url(#pe0dca2c7da)" d="M 81.359489 119.141399 
L 205.07767 115.348616 
L 328.795852 83.972579 
L 452.514034 77.633219 
L 576.232216 79.249988 
L 699.950398 51.134798 
L 823.66858 47.099955 
L 947.386761 46.844294 
" style="fill:none;stroke:#5cb85c;stroke-linecap:square;"/>
   </g>
   <g id="line2d_33">
    <path clip-path="url(#pe0dca2c7da)" d="M 81.359489 120.055934 
L 205.07767 116.349079 
L 328.795852 86.785519 
L 452.514034 79.651477 
L 576.232216 81.765826 
L 699.950398 55.085132 
L 823.66858 50.057941 
L 947.386761 49.139166 
" style="fill:none;stroke:#5cb85c;stroke-linecap:square;"/>
   </g>
   <g id="line2d_34">
    <path clip-path="url(#pe0dca2c7da)" d="M 81.359489 119.378278 
L 205.07767 116.579922 
L 328.795852 83.886136 
L 452.514034 79.379491 
L 576.232216 76.35823 
L 699.950398 47.412157 
L 823.66858 47.32069 
L 947.386761 46.651488 
" style="fill:none;stroke:#5cb85c;stroke-linecap:square;"/>
   </g>
   <g id="line2d_35">
    <path clip-path="url(#pe0dca2c7da)" d="M 81.359489 120.317016 
L 205.07767 117.888422 
L 328.795852 86.353297 
L 452.514034 81.542128 
L 576.232216 78.448073 
L 699.950398 50.83705 
L 823.66858 50.601432 
L 947.386761 49.003131 
" style="fill:none;stroke:#5cb85c;stroke-linecap:square;"/>
   </g>
   <g id="line2d_36">
    <path clip-path="url(#pe0dca2c7da)" d="M 81.359489 118.197944 
L 205.07767 115.472769 
L 328.795852 82.005764 
L 452.514034 77.579376 
L 576.232216 75.392567 
L 699.950398 47.731942 
L 823.66858 47.066714 
L 947.386761 48.701619 
" style="fill:none;stroke:#5cb85c;stroke-linecap:square;"/>
   </g>
   <g id="line2d_37">
    <path clip-path="url(#pe0dca2c7da)" d="M 81.359489 118.842343 
L 205.07767 116.510142 
L 328.795852 84.534871 
L 452.514034 79.623091 
L 576.232216 77.208511 
L 699.950398 50.898787 
L 823.66858 49.92608 
L 947.386761 51.361537 
" style="fill:none;stroke:#5cb85c;stroke-linecap:square;"/>
   </g>
   <g id="line2d_38">
    <path clip-path="url(#pe0dca2c7da)" d="M 81.359489 118.958322 
L 205.07767 115.367054 
L 328.795852 87.09461 
L 452.514034 80.02774 
L 576.232216 76.444666 
L 699.950398 47.656238 
L 823.66858 50.72948 
L 947.386761 47.112998 
" style="fill:none;stroke:#5cb85c;stroke-linecap:square;"/>
   </g>
   <g id="line2d_39">
    <path clip-path="url(#pe0dca2c7da)" d="M 81.359489 119.756039 
L 205.07767 116.367806 
L 328.795852 90.280602 
L 452.514034 82.51891 
L 576.232216 78.523286 
L 699.950398 51.02493 
L 823.66858 54.187099 
L 947.386761 49.516095 
" style="fill:none;stroke:#5cb85c;stroke-linecap:square;"/>
   </g>
   <g id="line2d_40">
    <path clip-path="url(#pe0dca2c7da)" d="M 81.359489 119.053334 
L 205.07767 114.754528 
L 328.795852 88.294725 
L 452.514034 78.398819 
L 576.232216 79.548146 
L 699.950398 49.556516 
L 823.66858 47.919782 
L 947.386761 47.694593 
" style="fill:none;stroke:#5cb85c;stroke-linecap:square;"/>
   </g>
   <g id="line2d_41">
    <path clip-path="url(#pe0dca2c7da)" d="M 81.359489 119.836795 
L 205.07767 115.601855 
L 328.795852 91.002916 
L 452.514034 80.390793 
L 576.232216 82.052045 
L 699.950398 53.03359 
L 823.66858 51.031086 
L 947.386761 50.099698 
" style="fill:none;stroke:#5cb85c;stroke-linecap:square;"/>
   </g>
   <g id="line2d_42">
    <path clip-path="url(#pe0dca2c7da)" d="M 81.359489 119.14261 
L 205.07767 114.821611 
L 328.795852 88.439395 
L 452.514034 78.946503 
L 576.232216 76.750203 
L 699.950398 49.553538 
L 823.66858 49.182998 
L 947.386761 47.524723 
" style="fill:none;stroke:#5cb85c;stroke-linecap:square;"/>
   </g>
   <g id="line2d_43">
    <path clip-path="url(#pe0dca2c7da)" d="M 81.359489 120.292515 
L 205.07767 115.204144 
L 328.795852 89.30324 
L 452.514034 80.082715 
L 576.232216 77.901894 
L 699.950398 51.65599 
L 823.66858 51.014492 
L 947.386761 49.079395 
" style="fill:none;stroke:#5cb85c;stroke-linecap:square;"/>
   </g>
   <g id="line2d_44">
    <path clip-path="url(#pe0dca2c7da)" d="M 81.359489 118.635638 
L 205.07767 116.549828 
L 328.795852 82.408403 
L 452.514034 82.357928 
L 576.232216 77.929465 
L 699.950398 47.911804 
L 823.66858 45.490802 
L 947.386761 45.965477 
" style="fill:none;stroke:#5cb85c;stroke-linecap:square;"/>
   </g>
   <g id="line2d_45">
    <path clip-path="url(#pe0dca2c7da)" d="M 81.359489 119.581297 
L 205.07767 117.155522 
L 328.795852 83.557589 
L 452.514034 83.464651 
L 576.232216 79.291553 
L 699.950398 49.960129 
L 823.66858 47.122839 
L 947.386761 47.213407 
" style="fill:none;stroke:#5cb85c;stroke-linecap:square;"/>
   </g>
   <g id="line2d_46">
    <path clip-path="url(#pe0dca2c7da)" d="M 81.359489 118.990443 
L 205.07767 115.494937 
L 328.795852 87.552771 
L 452.514034 80.317194 
L 576.232216 78.158506 
L 699.950398 48.509308 
L 823.66858 45.403302 
L 947.386761 46.506023 
" style="fill:none;stroke:#5cb85c;stroke-linecap:square;"/>
   </g>
   <g id="line2d_47">
    <path clip-path="url(#pe0dca2c7da)" d="M 81.359489 120.088403 
L 205.07767 115.970411 
L 328.795852 88.987794 
L 452.514034 81.718229 
L 576.232216 79.539889 
L 699.950398 50.536932 
L 823.66858 46.873452 
L 947.386761 47.87436 
" style="fill:none;stroke:#5cb85c;stroke-linecap:square;"/>
   </g>
   <g id="line2d_48">
    <path clip-path="url(#pe0dca2c7da)" d="M 81.359489 119.953812 
L 205.07767 115.947736 
L 328.795852 84.524415 
L 452.514034 78.670558 
L 576.232216 76.305305 
L 699.950398 47.058458 
L 823.66858 47.054177 
L 947.386761 45.775218 
" style="fill:none;stroke:#5cb85c;stroke-linecap:square;"/>
   </g>
   <g id="line2d_49">
    <path clip-path="url(#pe0dca2c7da)" d="M 81.359489 121.183662 
L 205.07767 116.485844 
L 328.795852 85.946644 
L 452.514034 79.862648 
L 576.232216 77.483448 
L 699.950398 49.020661 
L 823.66858 48.8414 
L 947.386761 47.06792 
" style="fill:none;stroke:#5cb85c;stroke-linecap:square;"/>
   </g>
   <g id="line2d_50">
    <path clip-path="url(#pe0dca2c7da)" d="M 81.359489 119.05247 
L 205.07767 115.186339 
L 328.795852 84.504679 
L 452.514034 81.416315 
L 576.232216 78.431446 
L 699.950398 51.075521 
L 823.66858 47.118881 
L 947.386761 46.455373 
" style="fill:none;stroke:#5cb85c;stroke-linecap:square;"/>
   </g>
   <g id="line2d_51">
    <path clip-path="url(#pe0dca2c7da)" d="M 81.359489 120.146176 
L 205.07767 115.610874 
L 328.795852 85.50863 
L 452.514034 82.725837 
L 576.232216 79.746103 
L 699.950398 53.173403 
L 823.66858 48.778112 
L 947.386761 47.850152 
" style="fill:none;stroke:#5cb85c;stroke-linecap:square;"/>
   </g>
   <g id="line2d_52">
    <path clip-path="url(#pe0dca2c7da)" d="M 81.359489 118.624779 
L 205.07767 115.744649 
L 328.795852 86.04118 
L 452.514034 78.971816 
L 576.232216 77.189749 
L 699.950398 46.45931 
L 823.66858 50.041662 
L 947.386761 47.517762 
" style="fill:none;stroke:#5cb85c;stroke-linecap:square;"/>
   </g>
   <g id="line2d_53">
    <path clip-path="url(#pe0dca2c7da)" d="M 81.359489 119.664463 
L 205.07767 116.263937 
L 328.795852 87.454604 
L 452.514034 80.230863 
L 576.232216 78.387555 
L 699.950398 48.206029 
L 823.66858 51.688119 
L 947.386761 48.775644 
" style="fill:none;stroke:#5cb85c;stroke-linecap:square;"/>
   </g>
   <g id="line2d_54">
    <path clip-path="url(#pe0dca2c7da)" d="M 81.359489 119.212711 
L 205.07767 116.564779 
L 328.795852 86.996955 
L 452.514034 78.652256 
L 576.232216 76.866553 
L 699.950398 50.47438 
L 823.66858 47.61182 
L 947.386761 49.219704 
" style="fill:none;stroke:#5cb85c;stroke-linecap:square;"/>
   </g>
   <g id="line2d_55">
    <path clip-path="url(#pe0dca2c7da)" d="M 81.359489 120.356253 
L 205.07767 117.227612 
L 328.795852 88.166525 
L 452.514034 79.820055 
L 576.232216 78.010754 
L 699.950398 52.330533 
L 823.66858 49.166622 
L 947.386761 50.828418 
" style="fill:none;stroke:#5cb85c;stroke-linecap:square;"/>
   </g>
   <g id="line2d_56">
    <path clip-path="url(#pe0dca2c7da)" d="M 81.359489 118.414889 
L 205.07767 117.01494 
L 328.795852 86.135346 
L 452.514034 78.191688 
L 576.232216 76.359306 
L 699.950398 52.241213 
L 823.66858 48.12253 
L 947.386761 47.124838 
" style="fill:none;stroke:#5cb85c;stroke-linecap:square;"/>
   </g>
   <g id="line2d_57">
    <path clip-path="url(#pe0dca2c7da)" d="M 81.359489 119.451402 
L 205.07767 117.780882 
L 328.795852 87.469645 
L 452.514034 79.293205 
L 576.232216 77.414281 
L 699.950398 54.101624 
L 823.66858 49.923769 
L 947.386761 48.530935 
" style="fill:none;stroke:#5cb85c;stroke-linecap:square;"/>
   </g>
   <g id="line2d_58">
    <path clip-path="url(#pe0dca2c7da)" d="M 81.359489 119.816233 
L 205.07767 116.112095 
L 328.795852 87.915438 
L 452.514034 78.408411 
L 576.232216 81.455944 
L 699.950398 52.102929 
L 823.66858 48.123628 
L 947.386761 49.2334 
" style="fill:none;stroke:#5cb85c;stroke-linecap:square;"/>
   </g>
   <g id="line2d_59">
    <path clip-path="url(#pe0dca2c7da)" d="M 81.359489 120.255311 
L 205.07767 116.376809 
L 328.795852 88.203872 
L 452.514034 78.858038 
L 576.232216 81.568783 
L 699.950398 52.215862 
L 823.66858 48.161762 
L 947.386761 49.679343 
" style="fill:none;stroke:#5cb85c;stroke-linecap:square;"/>
   </g>
   <g id="line2d_60">
    <path clip-path="url(#pe0dca2c7da)" d="M 81.359489 121.118189 
L 205.07767 116.651327 
L 328.795852 89.613007 
L 452.514034 81.448801 
L 576.232216 76.621698 
L 699.950398 57.965493 
L 823.66858 47.597327 
L 947.386761 47.55617 
" style="fill:none;stroke:#5cb85c;stroke-linecap:square;"/>
   </g>
   <g id="line2d_61">
    <path clip-path="url(#pe0dca2c7da)" d="M 81.359489 121.833206 
L 205.07767 117.019537 
L 328.795852 90.431146 
L 452.514034 82.028676 
L 576.232216 76.885312 
L 699.950398 58.625339 
L 823.66858 47.741135 
L 947.386761 48.173375 
" style="fill:none;stroke:#5cb85c;stroke-linecap:square;"/>
   </g>
   <g id="line2d_62">
    <path clip-path="url(#pe0dca2c7da)" d="M 81.359489 118.673879 
L 205.07767 117.218274 
L 328.795852 83.065417 
L 452.514034 82.35475 
L 576.232216 75.746561 
L 699.950398 45.879247 
L 823.66858 50.68814 
L 947.386761 44.804487 
" style="fill:none;stroke:#5cb85c;stroke-linecap:square;"/>
   </g>
   <g id="line2d_63">
    <path clip-path="url(#pe0dca2c7da)" d="M 81.359489 118.979038 
L 205.07767 117.449943 
L 328.795852 83.326476 
L 452.514034 82.983793 
L 576.232216 75.852325 
L 699.950398 45.96542 
L 823.66858 50.756625 
L 947.386761 44.978998 
" style="fill:none;stroke:#5cb85c;stroke-linecap:square;"/>
   </g>
   <g id="line2d_64">
    <path clip-path="url(#pe0dca2c7da)" d="M 81.359489 119.299981 
L 205.07767 115.920826 
L 328.795852 85.82229 
L 452.514034 80.399687 
L 576.232216 77.840904 
L 699.950398 48.76737 
L 823.66858 52.37539 
L 947.386761 48.264613 
" style="fill:none;stroke:#5cb85c;stroke-linecap:square;"/>
   </g>
   <g id="line2d_65">
    <path clip-path="url(#pe0dca2c7da)" d="M 81.359489 119.663864 
L 205.07767 116.178068 
L 328.795852 86.159153 
L 452.514034 80.989936 
L 576.232216 78.039059 
L 699.950398 48.865138 
L 823.66858 52.296674 
L 947.386761 48.492511 
" style="fill:none;stroke:#5cb85c;stroke-linecap:square;"/>
   </g>
   <g id="line2d_66">
    <path clip-path="url(#pe0dca2c7da)" d="M 81.359489 118.836579 
L 205.07767 115.863886 
L 328.795852 84.704765 
L 452.514034 81.631959 
L 576.232216 80.172755 
L 699.950398 55.586673 
L 823.66858 49.336093 
L 947.386761 46.711425 
" style="fill:none;stroke:#5cb85c;stroke-linecap:square;"/>
   </g>
   <g id="line2d_67">
    <path clip-path="url(#pe0dca2c7da)" d="M 81.359489 119.147405 
L 205.07767 116.11709 
L 328.795852 85.125066 
L 452.514034 82.133989 
L 576.232216 80.226009 
L 699.950398 55.714335 
L 823.66858 49.430996 
L 947.386761 46.979459 
" style="fill:none;stroke:#5cb85c;stroke-linecap:square;"/>
   </g>
   <g id="line2d_68">
    <path clip-path="url(#pe0dca2c7da)" d="M 81.359489 118.912577 
L 205.07767 116.601019 
L 328.795852 84.977373 
L 452.514034 80.518126 
L 576.232216 79.138126 
L 699.950398 50.168647 
L 823.66858 47.95409 
L 947.386761 47.555518 
" style="fill:none;stroke:#5cb85c;stroke-linecap:square;"/>
   </g>
   <g id="line2d_69">
    <path clip-path="url(#pe0dca2c7da)" d="M 81.359489 119.201378 
L 205.07767 116.841915 
L 328.795852 85.115358 
L 452.514034 80.929502 
L 576.232216 79.349673 
L 699.950398 50.330558 
L 823.66858 47.993939 
L 947.386761 47.910004 
" style="fill:none;stroke:#5cb85c;stroke-linecap:square;"/>
   </g>
   <g id="line2d_70">
    <path clip-path="url(#pe0dca2c7da)" d="M 81.359489 119.899867 
L 205.07767 115.296811 
L 328.795852 82.54468 
L 452.514034 80.546888 
L 576.232216 79.245681 
L 699.950398 50.534624 
L 823.66858 51.08461 
L 947.386761 47.837373 
" style="fill:none;stroke:#5cb85c;stroke-linecap:square;"/>
   </g>
   <g id="line2d_71">
    <path clip-path="url(#pe0dca2c7da)" d="M 81.359489 120.293258 
L 205.07767 115.526712 
L 328.795852 82.750549 
L 452.514034 81.161366 
L 576.232216 79.361798 
L 699.950398 50.681176 
L 823.66858 50.856094 
L 947.386761 47.990925 
" style="fill:none;stroke:#5cb85c;stroke-linecap:square;"/>
   </g>
   <g id="line2d_72">
    <path clip-path="url(#pe0dca2c7da)" d="M 81.359489 119.525209 
L 205.07767 115.384523 
L 328.795852 92.991756 
L 452.514034 78.65223 
L 576.232216 79.131547 
L 699.950398 50.994241 
L 823.66858 48.483242 
L 947.386761 49.124954 
" style="fill:none;stroke:#5cb85c;stroke-linecap:square;"/>
   </g>
   <g id="line2d_73">
    <path clip-path="url(#pe0dca2c7da)" d="M 81.359489 119.987542 
L 205.07767 115.641401 
L 328.795852 93.028614 
L 452.514034 78.997973 
L 576.232216 79.239594 
L 699.950398 51.011771 
L 823.66858 48.604375 
L 947.386761 49.611113 
" style="fill:none;stroke:#5cb85c;stroke-linecap:square;"/>
   </g>
   <g id="line2d_74">
    <path clip-path="url(#pe0dca2c7da)" d="M 81.359489 119.99212 
L 205.07767 116.707264 
L 328.795852 90.505227 
L 452.514034 82.735064 
L 576.232216 79.409469 
L 699.950398 51.929537 
L 823.66858 48.647999 
L 947.386761 47.804066 
" style="fill:none;stroke:#5cb85c;stroke-linecap:square;"/>
   </g>
   <g id="line2d_75">
    <path clip-path="url(#pe0dca2c7da)" d="M 81.359489 117.53963 
L 205.07767 114.74637 
L 328.795852 84.233347 
L 452.514034 78.043144 
L 576.232216 75.295886 
L 699.950398 46.116438 
L 823.66858 44.076051 
L 947.386761 43.247955 
" style="fill:none;stroke:#5cb85c;stroke-linecap:square;"/>
   </g>
   <g id="line2d_76">
    <path clip-path="url(#pe0dca2c7da)" d="M 81.359489 119.83023 
L 205.07767 117.45259 
L 328.795852 86.025997 
L 452.514034 80.817568 
L 576.232216 77.695176 
L 699.950398 50.609742 
L 823.66858 51.764758 
L 947.386761 49.833216 
" style="fill:none;stroke:#5cb85c;stroke-linecap:square;"/>
   </g>
   <g id="line2d_77">
    <path clip-path="url(#pe0dca2c7da)" d="M 81.359489 117.4387 
L 205.07767 115.272532 
L 328.795852 80.381979 
L 452.514034 76.582628 
L 576.232216 73.968206 
L 699.950398 45.131888 
L 823.66858 46.473867 
L 947.386761 44.742485 
" style="fill:none;stroke:#5cb85c;stroke-linecap:square;"/>
   </g>
   <g id="line2d_78">
    <path clip-path="url(#pe0dca2c7da)" d="M 81.359489 119.393522 
L 205.07767 117.049897 
L 328.795852 87.904724 
L 452.514034 79.585496 
L 576.232216 89.083452 
L 699.950398 54.022929 
L 823.66858 53.365672 
L 947.386761 49.768216 
" style="fill:none;stroke:#5cb85c;stroke-linecap:square;"/>
   </g>
   <g id="line2d_79">
    <path clip-path="url(#pe0dca2c7da)" d="M 81.359489 117.188163 
L 205.07767 115.175035 
L 328.795852 81.67864 
L 452.514034 75.768494 
L 576.232216 82.976073 
L 699.950398 47.877696 
L 823.66858 47.744554 
L 947.386761 44.453729 
" style="fill:none;stroke:#5cb85c;stroke-linecap:square;"/>
   </g>
   <g id="line2d_80">
    <path clip-path="url(#pe0dca2c7da)" d="M 81.359489 120.041482 
L 205.07767 117.014824 
L 328.795852 89.445663 
L 452.514034 80.637245 
L 576.232216 84.713763 
L 699.950398 52.026895 
L 823.66858 49.781658 
L 947.386761 48.936973 
" style="fill:none;stroke:#5cb85c;stroke-linecap:square;"/>
   </g>
   <g id="line2d_81">
    <path clip-path="url(#pe0dca2c7da)" d="M 81.359489 117.573824 
L 205.07767 115.06172 
L 328.795852 83.549445 
L 452.514034 76.247109 
L 576.232216 80.164808 
L 699.950398 46.975213 
L 823.66858 45.16155 
L 947.386761 44.232233 
" style="fill:none;stroke:#5cb85c;stroke-linecap:square;"/>
   </g>
   <g id="line2d_82">
    <path clip-path="url(#pe0dca2c7da)" d="M 81.359489 119.894859 
L 205.07767 115.919072 
L 328.795852 89.270531 
L 452.514034 82.984724 
L 576.232216 78.272489 
L 699.950398 52.199541 
L 823.66858 53.455315 
L 947.386761 49.891216 
" style="fill:none;stroke:#5cb85c;stroke-linecap:square;"/>
   </g>
   <g id="line2d_83">
    <path clip-path="url(#pe0dca2c7da)" d="M 81.359489 117.515182 
L 205.07767 114.326138 
L 328.795852 82.812816 
L 452.514034 78.418966 
L 576.232216 74.595771 
L 699.950398 46.520169 
L 823.66858 48.267003 
L 947.386761 44.439295 
" style="fill:none;stroke:#5cb85c;stroke-linecap:square;"/>
   </g>
   <g id="line2d_84">
    <path clip-path="url(#pe0dca2c7da)" d="M 81.359489 120.244785 
L 205.07767 116.435955 
L 328.795852 85.390003 
L 452.514034 81.046679 
L 576.232216 79.44775 
L 699.950398 53.188415 
L 823.66858 49.28503 
L 947.386761 54.723869 
" style="fill:none;stroke:#5cb85c;stroke-linecap:square;"/>
   </g>
   <g id="line2d_85">
    <path clip-path="url(#pe0dca2c7da)" d="M 81.359489 117.692299 
L 205.07767 114.688123 
L 328.795852 79.896314 
L 452.514034 76.636631 
L 576.232216 75.235752 
L 699.950398 47.333042 
L 823.66858 44.395573 
L 947.386761 48.83658 
" style="fill:none;stroke:#5cb85c;stroke-linecap:square;"/>
   </g>
   <g id="line2d_86">
    <path clip-path="url(#pe0dca2c7da)" d="M 81.359489 120.306923 
L 205.07767 116.730389 
L 328.795852 84.42803 
L 452.514034 79.62862 
L 576.232216 80.82182 
L 699.950398 51.849015 
L 823.66858 50.889431 
L 947.386761 49.078223 
" style="fill:none;stroke:#5cb85c;stroke-linecap:square;"/>
   </g>
   <g id="line2d_87">
    <path clip-path="url(#pe0dca2c7da)" d="M 81.359489 117.825667 
L 205.07767 114.897746 
L 328.795852 79.109125 
L 452.514034 75.833978 
L 576.232216 76.298666 
L 699.950398 46.315228 
L 823.66858 45.973381 
L 947.386761 44.050717 
" style="fill:none;stroke:#5cb85c;stroke-linecap:square;"/>
   </g>
   <g id="line2d_88">
    <path clip-path="url(#pe0dca2c7da)" d="M 81.359489 121.831297 
L 205.07767 117.156669 
L 328.795852 99.609198 
L 452.514034 80.993739 
L 576.232216 81.34303 
L 699.950398 51.291137 
L 823.66858 53.552146 
L 947.386761 49.030366 
" style="fill:none;stroke:#5cb85c;stroke-linecap:square;"/>
   </g>
   <g id="line2d_89">
    <path clip-path="url(#pe0dca2c7da)" d="M 81.359489 118.970833 
L 205.07767 115.330544 
L 328.795852 92.986466 
L 452.514034 76.905352 
L 576.232216 77.062164 
L 699.950398 45.715177 
L 823.66858 48.439817 
L 947.386761 44.206716 
" style="fill:none;stroke:#5cb85c;stroke-linecap:square;"/>
   </g>
   <g id="line2d_90">
    <path clip-path="url(#pe0dca2c7da)" d="M 81.359489 117.761303 
L 205.07767 114.60651 
L 328.795852 84.270693 
L 452.514034 76.857856 
L 576.232216 75.102635 
L 699.950398 45.438594 
L 823.66858 43.954513 
L 947.386761 42.715268 
" style="fill:none;stroke:#5cb85c;stroke-linecap:square;"/>
   </g>
   <g id="line2d_91">
    <path clip-path="url(#pe0dca2c7da)" d="M 81.359489 118.079609 
L 205.07767 114.985315 
L 328.795852 83.602592 
L 452.514034 76.780726 
L 576.232216 74.562206 
L 699.950398 44.688358 
L 823.66858 43.048708 
L 947.386761 42.147502 
" style="fill:none;stroke:#5cb85c;stroke-linecap:square;"/>
   </g>
   <g id="line2d_92">
    <path clip-path="url(#pe0dca2c7da)" d="M 81.359489 117.390914 
L 205.07767 113.931644 
L 328.795852 79.681749 
L 452.514034 79.368421 
L 576.232216 74.061984 
L 699.950398 55.127584 
L 823.66858 50.433162 
L 947.386761 43.708063 
" style="fill:none;stroke:#5cb85c;stroke-linecap:square;"/>
   </g>
   <g id="line2d_93">
    <path clip-path="url(#pe0dca2c7da)" d="M 81.359489 117.684839 
L 205.07767 114.326941 
L 328.795852 79.567665 
L 452.514034 79.2763 
L 576.232216 73.565067 
L 699.950398 54.295618 
L 823.66858 49.844405 
L 947.386761 43.109044 
" style="fill:none;stroke:#5cb85c;stroke-linecap:square;"/>
   </g>
   <g id="line2d_94">
    <path clip-path="url(#pe0dca2c7da)" d="M 81.359489 117.644116 
L 205.07767 114.878666 
L 328.795852 83.646445 
L 452.514034 75.993876 
L 576.232216 74.86376 
L 699.950398 47.724735 
L 823.66858 45.317484 
L 947.386761 44.178302 
" style="fill:none;stroke:#5cb85c;stroke-linecap:square;"/>
   </g>
   <g id="line2d_95">
    <path clip-path="url(#pe0dca2c7da)" d="M 81.359489 117.938514 
L 205.07767 115.248016 
L 328.795852 82.887599 
L 452.514034 76.025458 
L 576.232216 74.34723 
L 699.950398 47.048877 
L 823.66858 44.286078 
L 947.386761 43.492019 
" style="fill:none;stroke:#5cb85c;stroke-linecap:square;"/>
   </g>
   <g id="line2d_96">
    <path clip-path="url(#pe0dca2c7da)" d="M 81.359489 117.013649 
L 205.07767 115.965102 
L 328.795852 83.987708 
L 452.514034 78.083033 
L 576.232216 75.79156 
L 699.950398 44.658564 
L 823.66858 47.411309 
L 947.386761 46.516033 
" style="fill:none;stroke:#5cb85c;stroke-linecap:square;"/>
   </g>
   <g id="line2d_97">
    <path clip-path="url(#pe0dca2c7da)" d="M 81.359489 117.286396 
L 205.07767 116.223011 
L 328.795852 83.609028 
L 452.514034 77.916987 
L 576.232216 75.13932 
L 699.950398 43.875854 
L 823.66858 46.187433 
L 947.386761 45.618935 
" style="fill:none;stroke:#5cb85c;stroke-linecap:square;"/>
   </g>
   <g id="line2d_98">
    <path clip-path="url(#pe0dca2c7da)" d="M 81.359489 117.617415 
L 205.07767 115.009002 
L 328.795852 85.107656 
L 452.514034 74.313787 
L 576.232216 78.449935 
L 699.950398 52.753566 
L 823.66858 49.840716 
L 947.386761 44.18099 
" style="fill:none;stroke:#5cb85c;stroke-linecap:square;"/>
   </g>
   <g id="line2d_99">
    <path clip-path="url(#pe0dca2c7da)" d="M 81.359489 117.925017 
L 205.07767 115.369168 
L 328.795852 84.541503 
L 452.514034 74.324614 
L 576.232216 77.778437 
L 699.950398 52.206045 
L 823.66858 49.361587 
L 947.386761 43.679386 
" style="fill:none;stroke:#5cb85c;stroke-linecap:square;"/>
   </g>
   <g id="line2d_100">
    <path clip-path="url(#pe0dca2c7da)" d="M 81.359489 117.94332 
L 205.07767 114.768208 
L 328.795852 84.461257 
L 452.514034 75.183053 
L 576.232216 75.469962 
L 699.950398 44.186115 
L 823.66858 44.124672 
L 947.386761 44.83233 
" style="fill:none;stroke:#5cb85c;stroke-linecap:square;"/>
   </g>
   <g id="line2d_101">
    <path clip-path="url(#pe0dca2c7da)" d="M 81.359489 118.260818 
L 205.07767 115.177785 
L 328.795852 84.221259 
L 452.514034 75.164024 
L 576.232216 74.868583 
L 699.950398 43.645977 
L 823.66858 43.165419 
L 947.386761 44.151214 
" style="fill:none;stroke:#5cb85c;stroke-linecap:square;"/>
   </g>
   <g id="line2d_102">
    <path clip-path="url(#pe0dca2c7da)" d="M 81.359489 118.107257 
L 205.07767 114.502558 
L 328.795852 80.574816 
L 452.514034 76.554065 
L 576.232216 75.062084 
L 699.950398 43.173335 
L 823.66858 48.26098 
L 947.386761 43.944363 
" style="fill:none;stroke:#5cb85c;stroke-linecap:square;"/>
   </g>
   <g id="line2d_103">
    <path clip-path="url(#pe0dca2c7da)" d="M 81.359489 118.427502 
L 205.07767 114.921784 
L 328.795852 80.245107 
L 452.514034 76.530199 
L 576.232216 74.486731 
L 699.950398 42.663272 
L 823.66858 47.558379 
L 947.386761 43.389309 
" style="fill:none;stroke:#5cb85c;stroke-linecap:square;"/>
   </g>
   <g id="line2d_104">
    <path clip-path="url(#pe0dca2c7da)" d="M 81.359489 117.941505 
L 205.07767 114.339245 
L 328.795852 81.291081 
L 452.514034 76.020296 
L 576.232216 74.483677 
L 699.950398 42.690325 
L 823.66858 40.732011 
L 947.386761 46.756475 
" style="fill:none;stroke:#5cb85c;stroke-linecap:square;"/>
   </g>
   <g id="line2d_105">
    <path clip-path="url(#pe0dca2c7da)" d="M 81.359489 118.394246 
L 205.07767 114.507545 
L 328.795852 80.169366 
L 452.514034 75.403887 
L 576.232216 74.182029 
L 699.950398 42.536015 
L 823.66858 40.766847 
L 947.386761 45.327763 
" style="fill:none;stroke:#5cb85c;stroke-linecap:square;"/>
   </g>
   <g id="line2d_106">
    <path clip-path="url(#pe0dca2c7da)" d="M 81.359489 117.962989 
L 205.07767 114.399409 
L 328.795852 92.685378 
L 452.514034 77.459423 
L 576.232216 78.1643 
L 699.950398 50.799941 
L 823.66858 45.021168 
L 947.386761 44.923023 
" style="fill:none;stroke:#5cb85c;stroke-linecap:square;"/>
   </g>
   <g id="line2d_107">
    <path clip-path="url(#pe0dca2c7da)" d="M 81.359489 118.348059 
L 205.07767 114.61442 
L 328.795852 91.471499 
L 452.514034 76.185865 
L 576.232216 77.440819 
L 699.950398 49.685962 
L 823.66858 44.400695 
L 947.386761 43.724904 
" style="fill:none;stroke:#5cb85c;stroke-linecap:square;"/>
   </g>
   <g id="line2d_108">
    <path clip-path="url(#pe0dca2c7da)" d="M 81.359489 117.942022 
L 205.07767 115.037029 
L 328.795852 83.009173 
L 452.514034 81.563548 
L 576.232216 75.145533 
L 699.950398 44.698202 
L 823.66858 43.34147 
L 947.386761 45.353846 
" style="fill:none;stroke:#5cb85c;stroke-linecap:square;"/>
   </g>
   <g id="line2d_109">
    <path clip-path="url(#pe0dca2c7da)" d="M 81.359489 118.364335 
L 205.07767 115.252827 
L 328.795852 81.481915 
L 452.514034 79.97751 
L 576.232216 74.95252 
L 699.950398 44.294199 
L 823.66858 43.071632 
L 947.386761 44.062053 
" style="fill:none;stroke:#5cb85c;stroke-linecap:square;"/>
   </g>
   <g id="line2d_110">
    <path clip-path="url(#pe0dca2c7da)" d="M 81.359489 117.794847 
L 205.07767 114.508061 
L 328.795852 88.527768 
L 452.514034 75.517134 
L 576.232216 76.887087 
L 699.950398 43.653121 
L 823.66858 41.439654 
L 947.386761 42.57679 
" style="fill:none;stroke:#5cb85c;stroke-linecap:square;"/>
   </g>
   <g id="line2d_111">
    <path clip-path="url(#pe0dca2c7da)" d="M 81.359489 118.160054 
L 205.07767 114.678039 
L 328.795852 88.108763 
L 452.514034 74.793826 
L 576.232216 76.487647 
L 699.950398 43.510559 
L 823.66858 41.485594 
L 947.386761 41.831061 
" style="fill:none;stroke:#5cb85c;stroke-linecap:square;"/>
   </g>
   <g id="line2d_112">
    <path clip-path="url(#pe0dca2c7da)" d="M 81.359489 117.616526 
L 205.07767 114.152805 
L 328.795852 82.329177 
L 452.514034 76.633704 
L 576.232216 76.026195 
L 699.950398 46.536741 
L 823.66858 43.892158 
L 947.386761 43.31001 
" style="fill:none;stroke:#5cb85c;stroke-linecap:square;"/>
   </g>
   <g id="line2d_113">
    <path clip-path="url(#pe0dca2c7da)" d="M 81.359489 118.024892 
L 205.07767 114.325627 
L 328.795852 81.242547 
L 452.514034 75.843468 
L 576.232216 75.448493 
L 699.950398 45.816843 
L 823.66858 43.515688 
L 947.386761 42.383 
" style="fill:none;stroke:#5cb85c;stroke-linecap:square;"/>
   </g>
   <g id="line2d_114">
    <path clip-path="url(#pe0dca2c7da)" d="M 81.359489 117.42715 
L 205.07767 114.229943 
L 328.795852 93.330204 
L 452.514034 83.605413 
L 576.232216 76.283851 
L 699.950398 43.85154 
L 823.66858 45.522227 
L 947.386761 47.453092 
" style="fill:none;stroke:#5cb85c;stroke-linecap:square;"/>
   </g>
   <g id="line2d_115">
    <path clip-path="url(#pe0dca2c7da)" d="M 81.359489 117.808393 
L 205.07767 114.405689 
L 328.795852 91.343645 
L 452.514034 81.843039 
L 576.232216 75.748035 
L 699.950398 43.667151 
L 823.66858 44.861954 
L 947.386761 45.432577 
" style="fill:none;stroke:#5cb85c;stroke-linecap:square;"/>
   </g>
   <g id="line2d_116">
    <path clip-path="url(#pe0dca2c7da)" d="M 81.359489 117.502004 
L 205.07767 114.296861 
L 328.795852 90.61936 
L 452.514034 75.825669 
L 576.232216 83.808481 
L 699.950398 46.96043 
L 823.66858 43.621977 
L 947.386761 43.840577 
" style="fill:none;stroke:#5cb85c;stroke-linecap:square;"/>
   </g>
   <g id="line2d_117">
    <path clip-path="url(#pe0dca2c7da)" d="M 81.359489 117.897054 
L 205.07767 114.475835 
L 328.795852 88.745059 
L 452.514034 75.224538 
L 576.232216 82.497307 
L 699.950398 46.487139 
L 823.66858 43.354903 
L 947.386761 42.74512 
" style="fill:none;stroke:#5cb85c;stroke-linecap:square;"/>
   </g>
   <g id="line2d_118">
    <path clip-path="url(#pe0dca2c7da)" d="M 81.359489 117.930968 
L 205.07767 114.099528 
L 328.795852 92.981492 
L 452.514034 76.491456 
L 576.232216 74.422833 
L 699.950398 42.986011 
L 823.66858 43.674955 
L 947.386761 43.227401 
" style="fill:none;stroke:#5cb85c;stroke-linecap:square;"/>
   </g>
   <g id="line2d_119">
    <path clip-path="url(#pe0dca2c7da)" d="M 81.359489 118.301097 
L 205.07767 114.267789 
L 328.795852 91.023273 
L 452.514034 75.563264 
L 576.232216 74.081241 
L 699.950398 42.781413 
L 823.66858 43.387863 
L 947.386761 42.314679 
" style="fill:none;stroke:#5cb85c;stroke-linecap:square;"/>
   </g>
   <g id="line2d_120">
    <path clip-path="url(#pe0dca2c7da)" d="M 81.359489 118.027397 
L 205.07767 114.627002 
L 328.795852 86.663196 
L 452.514034 75.386317 
L 576.232216 75.074643 
L 699.950398 46.221699 
L 823.66858 43.232279 
L 947.386761 42.867561 
" style="fill:none;stroke:#5cb85c;stroke-linecap:square;"/>
   </g>
   <g id="line2d_121">
    <path clip-path="url(#pe0dca2c7da)" d="M 81.359489 118.237836 
L 205.07767 114.703239 
L 328.795852 88.632435 
L 452.514034 76.226647 
L 576.232216 75.661536 
L 699.950398 47.214921 
L 823.66858 44.081904 
L 947.386761 43.499525 
" style="fill:none;stroke:#5cb85c;stroke-linecap:square;"/>
   </g>
   <g id="line2d_122">
    <path clip-path="url(#pe0dca2c7da)" d="M 81.359489 117.966504 
L 205.07767 114.920007 
L 328.795852 86.539131 
L 452.514034 76.371513 
L 576.232216 75.766893 
L 699.950398 47.814385 
L 823.66858 44.789434 
L 947.386761 44.419783 
" style="fill:none;stroke:#5cb85c;stroke-linecap:square;"/>
   </g>
   <g id="line2d_123">
    <path clip-path="url(#pe0dca2c7da)" d="M 81.359489 118.191475 
L 205.07767 115.042091 
L 328.795852 88.982 
L 452.514034 77.344205 
L 576.232216 76.529085 
L 699.950398 48.728269 
L 823.66858 45.498058 
L 947.386761 45.317283 
" style="fill:none;stroke:#5cb85c;stroke-linecap:square;"/>
   </g>
   <g id="line2d_124">
    <path clip-path="url(#pe0dca2c7da)" d="M 81.359489 117.684887 
L 205.07767 114.61274 
L 328.795852 83.628617 
L 452.514034 79.19273 
L 576.232216 75.930165 
L 699.950398 44.908948 
L 823.66858 47.093589 
L 947.386761 42.742149 
" style="fill:none;stroke:#5cb85c;stroke-linecap:square;"/>
   </g>
   <g id="line2d_125">
    <path clip-path="url(#pe0dca2c7da)" d="M 81.359489 117.975364 
L 205.07767 114.726768 
L 328.795852 85.602121 
L 452.514034 80.701094 
L 576.232216 76.636317 
L 699.950398 45.646024 
L 823.66858 48.464593 
L 947.386761 43.322502 
" style="fill:none;stroke:#5cb85c;stroke-linecap:square;"/>
   </g>
   <g id="line2d_126">
    <path clip-path="url(#pe0dca2c7da)" d="M 81.359489 117.53364 
L 205.07767 114.889917 
L 328.795852 83.904885 
L 452.514034 83.447259 
L 576.232216 77.167228 
L 699.950398 55.514185 
L 823.66858 46.656931 
L 947.386761 45.902879 
" style="fill:none;stroke:#5cb85c;stroke-linecap:square;"/>
   </g>
   <g id="line2d_127">
    <path clip-path="url(#pe0dca2c7da)" d="M 81.359489 117.788526 
L 205.07767 115.040513 
L 328.795852 85.624663 
L 452.514034 85.543235 
L 576.232216 78.132894 
L 699.950398 56.898381 
L 823.66858 47.86128 
L 947.386761 46.855495 
" style="fill:none;stroke:#5cb85c;stroke-linecap:square;"/>
   </g>
   <g id="line2d_128">
    <path clip-path="url(#pe0dca2c7da)" d="M 81.359489 117.990327 
L 205.07767 115.350497 
L 328.795852 86.138307 
L 452.514034 76.921058 
L 576.232216 76.169013 
L 699.950398 45.126998 
L 823.66858 43.454809 
L 947.386761 44.363035 
" style="fill:none;stroke:#5cb85c;stroke-linecap:square;"/>
   </g>
   <g id="line2d_129">
    <path clip-path="url(#pe0dca2c7da)" d="M 81.359489 118.229784 
L 205.07767 115.494933 
L 328.795852 88.521365 
L 452.514034 77.979928 
L 576.232216 77.112867 
L 699.950398 45.789892 
L 823.66858 44.359168 
L 947.386761 45.178486 
" style="fill:none;stroke:#5cb85c;stroke-linecap:square;"/>
   </g>
   <g id="line2d_130">
    <path clip-path="url(#pe0dca2c7da)" d="M 81.359489 117.578121 
L 205.07767 114.533238 
L 328.795852 87.498194 
L 452.514034 77.918926 
L 576.232216 75.204149 
L 699.950398 46.289889 
L 823.66858 49.071079 
L 947.386761 44.240856 
" style="fill:none;stroke:#5cb85c;stroke-linecap:square;"/>
   </g>
   <g id="line2d_131">
    <path clip-path="url(#pe0dca2c7da)" d="M 81.359489 117.814469 
L 205.07767 114.594121 
L 328.795852 89.866647 
L 452.514034 79.295074 
L 576.232216 75.826777 
L 699.950398 46.842771 
L 823.66858 50.026468 
L 947.386761 45.105238 
" style="fill:none;stroke:#5cb85c;stroke-linecap:square;"/>
   </g>
   <g id="line2d_132">
    <path clip-path="url(#pe0dca2c7da)" d="M 81.359489 117.763431 
L 205.07767 114.880921 
L 328.795852 80.921069 
L 452.514034 77.559766 
L 576.232216 75.412603 
L 699.950398 45.891487 
L 823.66858 47.463551 
L 947.386761 46.278123 
" style="fill:none;stroke:#5cb85c;stroke-linecap:square;"/>
   </g>
   <g id="line2d_133">
    <path clip-path="url(#pe0dca2c7da)" d="M 81.359489 117.983556 
L 205.07767 114.985824 
L 328.795852 82.260559 
L 452.514034 78.768119 
L 576.232216 76.158285 
L 699.950398 46.668268 
L 823.66858 48.068287 
L 947.386761 47.374994 
" style="fill:none;stroke:#5cb85c;stroke-linecap:square;"/>
   </g>
   <g id="line2d_134">
    <path clip-path="url(#pe0dca2c7da)" d="M 81.359489 118.102646 
L 205.07767 114.922706 
L 328.795852 83.823814 
L 452.514034 77.749162 
L 576.232216 73.801032 
L 699.950398 45.977311 
L 823.66858 43.209331 
L 947.386761 41.550496 
" style="fill:none;stroke:#5cb85c;stroke-linecap:square;"/>
   </g>
   <g id="line2d_135">
    <path clip-path="url(#pe0dca2c7da)" d="M 81.359489 118.332057 
L 205.07767 115.044407 
L 328.795852 85.457161 
L 452.514034 78.875493 
L 576.232216 74.049905 
L 699.950398 46.783786 
L 823.66858 44.081315 
L 947.386761 42.013241 
" style="fill:none;stroke:#5cb85c;stroke-linecap:square;"/>
   </g>
   <g id="line2d_136">
    <path clip-path="url(#pe0dca2c7da)" d="M 38.058125 381.6495 
L 990.688125 381.6495 
" style="fill:none;stroke:#dedede;stroke-linecap:square;stroke-width:2;"/>
   </g>
   <g id="text_20">
    <!-- FastQC: Mean Quality Scores -->
    <defs>
     <path d="M 9.8125 72.90625 
L 51.703125 72.90625 
L 51.703125 64.59375 
L 19.671875 64.59375 
L 19.671875 43.109375 
L 48.578125 43.109375 
L 48.578125 34.8125 
L 19.671875 34.8125 
L 19.671875 0 
L 9.8125 0 
z
" id="DejaVuSans-46"/>
     <path d="M 34.28125 27.484375 
Q 23.390625 27.484375 19.1875 25 
Q 14.984375 22.515625 14.984375 16.5 
Q 14.984375 11.71875 18.140625 8.90625 
Q 21.296875 6.109375 26.703125 6.109375 
Q 34.1875 6.109375 38.703125 11.40625 
Q 43.21875 16.703125 43.21875 25.484375 
L 43.21875 27.484375 
z
M 52.203125 31.203125 
L 52.203125 0 
L 43.21875 0 
L 43.21875 8.296875 
Q 40.140625 3.328125 35.546875 0.953125 
Q 30.953125 -1.421875 24.3125 -1.421875 
Q 15.921875 -1.421875 10.953125 3.296875 
Q 6 8.015625 6 15.921875 
Q 6 25.140625 12.171875 29.828125 
Q 18.359375 34.515625 30.609375 34.515625 
L 43.21875 34.515625 
L 43.21875 35.40625 
Q 43.21875 41.609375 39.140625 45 
Q 35.0625 48.390625 27.6875 48.390625 
Q 23 48.390625 18.546875 47.265625 
Q 14.109375 46.140625 10.015625 43.890625 
L 10.015625 52.203125 
Q 14.9375 54.109375 19.578125 55.046875 
Q 24.21875 56 28.609375 56 
Q 40.484375 56 46.34375 49.84375 
Q 52.203125 43.703125 52.203125 31.203125 
z
" id="DejaVuSans-61"/>
     <path d="M 39.40625 66.21875 
Q 28.65625 66.21875 22.328125 58.203125 
Q 16.015625 50.203125 16.015625 36.375 
Q 16.015625 22.609375 22.328125 14.59375 
Q 28.65625 6.59375 39.40625 6.59375 
Q 50.140625 6.59375 56.421875 14.59375 
Q 62.703125 22.609375 62.703125 36.375 
Q 62.703125 50.203125 56.421875 58.203125 
Q 50.140625 66.21875 39.40625 66.21875 
z
M 53.21875 1.3125 
L 66.21875 -12.890625 
L 54.296875 -12.890625 
L 43.5 -1.21875 
Q 41.890625 -1.3125 41.03125 -1.359375 
Q 40.1875 -1.421875 39.40625 -1.421875 
Q 24.03125 -1.421875 14.8125 8.859375 
Q 5.609375 19.140625 5.609375 36.375 
Q 5.609375 53.65625 14.8125 63.9375 
Q 24.03125 74.21875 39.40625 74.21875 
Q 54.734375 74.21875 63.90625 63.9375 
Q 73.09375 53.65625 73.09375 36.375 
Q 73.09375 23.6875 67.984375 14.640625 
Q 62.890625 5.609375 53.21875 1.3125 
z
" id="DejaVuSans-51"/>
     <path d="M 64.40625 67.28125 
L 64.40625 56.890625 
Q 59.421875 61.53125 53.78125 63.8125 
Q 48.140625 66.109375 41.796875 66.109375 
Q 29.296875 66.109375 22.65625 58.46875 
Q 16.015625 50.828125 16.015625 36.375 
Q 16.015625 21.96875 22.65625 14.328125 
Q 29.296875 6.6875 41.796875 6.6875 
Q 48.140625 6.6875 53.78125 8.984375 
Q 59.421875 11.28125 64.40625 15.921875 
L 64.40625 5.609375 
Q 59.234375 2.09375 53.4375 0.328125 
Q 47.65625 -1.421875 41.21875 -1.421875 
Q 24.65625 -1.421875 15.125 8.703125 
Q 5.609375 18.84375 5.609375 36.375 
Q 5.609375 53.953125 15.125 64.078125 
Q 24.65625 74.21875 41.21875 74.21875 
Q 47.75 74.21875 53.53125 72.484375 
Q 59.328125 70.75 64.40625 67.28125 
z
" id="DejaVuSans-43"/>
     <path d="M 11.71875 12.40625 
L 22.015625 12.40625 
L 22.015625 0 
L 11.71875 0 
z
M 11.71875 51.703125 
L 22.015625 51.703125 
L 22.015625 39.3125 
L 11.71875 39.3125 
z
" id="DejaVuSans-3a"/>
     <path d="M 9.8125 72.90625 
L 24.515625 72.90625 
L 43.109375 23.296875 
L 61.8125 72.90625 
L 76.515625 72.90625 
L 76.515625 0 
L 66.890625 0 
L 66.890625 64.015625 
L 48.09375 14.015625 
L 38.1875 14.015625 
L 19.390625 64.015625 
L 19.390625 0 
L 9.8125 0 
z
" id="DejaVuSans-4d"/>
     <path d="M 8.5 21.578125 
L 8.5 54.6875 
L 17.484375 54.6875 
L 17.484375 21.921875 
Q 17.484375 14.15625 20.5 10.265625 
Q 23.53125 6.390625 29.59375 6.390625 
Q 36.859375 6.390625 41.078125 11.03125 
Q 45.3125 15.671875 45.3125 23.6875 
L 45.3125 54.6875 
L 54.296875 54.6875 
L 54.296875 0 
L 45.3125 0 
L 45.3125 8.40625 
Q 42.046875 3.421875 37.71875 1 
Q 33.40625 -1.421875 27.6875 -1.421875 
Q 18.265625 -1.421875 13.375 4.4375 
Q 8.5 10.296875 8.5 21.578125 
z
M 31.109375 56 
z
" id="DejaVuSans-75"/>
     <path d="M 9.421875 75.984375 
L 18.40625 75.984375 
L 18.40625 0 
L 9.421875 0 
z
" id="DejaVuSans-6c"/>
     <path d="M 32.171875 -5.078125 
Q 28.375 -14.84375 24.75 -17.8125 
Q 21.140625 -20.796875 15.09375 -20.796875 
L 7.90625 -20.796875 
L 7.90625 -13.28125 
L 13.1875 -13.28125 
Q 16.890625 -13.28125 18.9375 -11.515625 
Q 21 -9.765625 23.484375 -3.21875 
L 25.09375 0.875 
L 2.984375 54.6875 
L 12.5 54.6875 
L 29.59375 11.921875 
L 46.6875 54.6875 
L 56.203125 54.6875 
z
" id="DejaVuSans-79"/>
    </defs>
    <g transform="translate(398.238125 19.3575)scale(0.16 -0.16)">
     <use xlink:href="#DejaVuSans-46"/>
     <use x="57.378906" xlink:href="#DejaVuSans-61"/>
     <use x="118.658203" xlink:href="#DejaVuSans-73"/>
     <use x="170.757812" xlink:href="#DejaVuSans-74"/>
     <use x="209.966797" xlink:href="#DejaVuSans-51"/>
     <use x="288.677734" xlink:href="#DejaVuSans-43"/>
     <use x="358.501953" xlink:href="#DejaVuSans-3a"/>
     <use x="392.193359" xlink:href="#DejaVuSans-20"/>
     <use x="423.980469" xlink:href="#DejaVuSans-4d"/>
     <use x="510.259766" xlink:href="#DejaVuSans-65"/>
     <use x="571.783203" xlink:href="#DejaVuSans-61"/>
     <use x="633.0625" xlink:href="#DejaVuSans-6e"/>
     <use x="696.441406" xlink:href="#DejaVuSans-20"/>
     <use x="728.228516" xlink:href="#DejaVuSans-51"/>
     <use x="806.939453" xlink:href="#DejaVuSans-75"/>
     <use x="870.318359" xlink:href="#DejaVuSans-61"/>
     <use x="931.597656" xlink:href="#DejaVuSans-6c"/>
     <use x="959.380859" xlink:href="#DejaVuSans-69"/>
     <use x="987.164062" xlink:href="#DejaVuSans-74"/>
     <use x="1026.373047" xlink:href="#DejaVuSans-79"/>
     <use x="1085.552734" xlink:href="#DejaVuSans-20"/>
     <use x="1117.339844" xlink:href="#DejaVuSans-53"/>
     <use x="1180.816406" xlink:href="#DejaVuSans-63"/>
     <use x="1235.796875" xlink:href="#DejaVuSans-6f"/>
     <use x="1296.978516" xlink:href="#DejaVuSans-72"/>
     <use x="1338.060547" xlink:href="#DejaVuSans-65"/>
     <use x="1399.583984" xlink:href="#DejaVuSans-73"/>
    </g>
   </g>
  </g>
 </g>
 <defs>
  <clipPath id="pe0dca2c7da">
   <rect height="345.04" width="952.63" x="38.058125" y="36.6095"/>
  </clipPath>
 </defs>
</svg>
