<?xml version="1.0" encoding="utf-8" standalone="no"?>
<!DOCTYPE svg PUBLIC "-//W3C//DTD SVG 1.1//EN"
  "http://www.w3.org/Graphics/SVG/1.1/DTD/svg11.dtd">
<!-- Created with matplotlib (http://matplotlib.org/) -->
<svg height="416.892125pt" version="1.1" viewBox="0 0 1001.338125 416.892125" width="1001.338125pt" xmlns="http://www.w3.org/2000/svg" xmlns:xlink="http://www.w3.org/1999/xlink">
 <defs>
  <style type="text/css">
*{stroke-linecap:butt;stroke-linejoin:round;}
  </style>
 </defs>
 <g id="figure_1">
  <g id="patch_1">
   <path d="M 0 416.892125 
L 1001.338125 416.892125 
L 1001.338125 0 
L 0 0 
z
" style="fill:#ffffff;"/>
  </g>
  <g id="axes_1">
   <g id="patch_2">
    <path d="M 32.968125 381.2715 
L 990.638125 381.2715 
L 990.638125 36.5915 
L 32.968125 36.5915 
z
" style="fill:#ffffff;"/>
   </g>
   <g id="patch_3">
    <path clip-path="url(#pbcbb34fd84)" d="M 32.968125 1759.9915 
L 990.638125 1759.9915 
L 990.638125 -3754.8885 
L 32.968125 -3754.8885 
z
" style="fill:#e6c3c3;"/>
   </g>
   <g id="patch_4">
    <path clip-path="url(#pbcbb34fd84)" d="M 32.968125 553.6115 
L 990.638125 553.6115 
L 990.638125 -480.4285 
L 32.968125 -480.4285 
z
" style="fill:#e6dcc3;"/>
   </g>
   <g id="patch_5">
    <path clip-path="url(#pbcbb34fd84)" d="M 32.968125 553.6115 
L 990.638125 553.6115 
L 990.638125 208.9315 
L 32.968125 208.9315 
z
" style="fill:#c3e6c3;"/>
   </g>
   <g id="matplotlib.axis_1">
    <g id="xtick_1">
     <g id="text_1">
      <!-- 0 -->
      <defs>
       <path d="M 31.78125 66.40625 
Q 24.171875 66.40625 20.328125 58.90625 
Q 16.5 51.421875 16.5 36.375 
Q 16.5 21.390625 20.328125 13.890625 
Q 24.171875 6.390625 31.78125 6.390625 
Q 39.453125 6.390625 43.28125 13.890625 
Q 47.125 21.390625 47.125 36.375 
Q 47.125 51.421875 43.28125 58.90625 
Q 39.453125 66.40625 31.78125 66.40625 
z
M 31.78125 74.21875 
Q 44.046875 74.21875 50.515625 64.515625 
Q 56.984375 54.828125 56.984375 36.375 
Q 56.984375 17.96875 50.515625 8.265625 
Q 44.046875 -1.421875 31.78125 -1.421875 
Q 19.53125 -1.421875 13.0625 8.265625 
Q 6.59375 17.96875 6.59375 36.375 
Q 6.59375 54.828125 13.0625 64.515625 
Q 19.53125 74.21875 31.78125 74.21875 
z
" id="DejaVuSans-30"/>
      </defs>
      <g transform="translate(30.423125 394.35025)scale(0.08 -0.08)">
       <use xlink:href="#DejaVuSans-30"/>
      </g>
     </g>
    </g>
    <g id="xtick_2">
     <g id="text_2">
      <!-- 1 -->
      <defs>
       <path d="M 12.40625 8.296875 
L 28.515625 8.296875 
L 28.515625 63.921875 
L 10.984375 60.40625 
L 10.984375 69.390625 
L 28.421875 72.90625 
L 38.28125 72.90625 
L 38.28125 8.296875 
L 54.390625 8.296875 
L 54.390625 0 
L 12.40625 0 
z
" id="DejaVuSans-31"/>
      </defs>
      <g transform="translate(145.114143 394.35025)scale(0.08 -0.08)">
       <use xlink:href="#DejaVuSans-31"/>
      </g>
     </g>
    </g>
    <g id="xtick_3">
     <g id="text_3">
      <!-- 2 -->
      <defs>
       <path d="M 19.1875 8.296875 
L 53.609375 8.296875 
L 53.609375 0 
L 7.328125 0 
L 7.328125 8.296875 
Q 12.9375 14.109375 22.625 23.890625 
Q 32.328125 33.6875 34.8125 36.53125 
Q 39.546875 41.84375 41.421875 45.53125 
Q 43.3125 49.21875 43.3125 52.78125 
Q 43.3125 58.59375 39.234375 62.25 
Q 35.15625 65.921875 28.609375 65.921875 
Q 23.96875 65.921875 18.8125 64.3125 
Q 13.671875 62.703125 7.8125 59.421875 
L 7.8125 69.390625 
Q 13.765625 71.78125 18.9375 73 
Q 24.125 74.21875 28.421875 74.21875 
Q 39.75 74.21875 46.484375 68.546875 
Q 53.21875 62.890625 53.21875 53.421875 
Q 53.21875 48.921875 51.53125 44.890625 
Q 49.859375 40.875 45.40625 35.40625 
Q 44.1875 33.984375 37.640625 27.21875 
Q 31.109375 20.453125 19.1875 8.296875 
z
" id="DejaVuSans-32"/>
      </defs>
      <g transform="translate(259.805161 394.35025)scale(0.08 -0.08)">
       <use xlink:href="#DejaVuSans-32"/>
      </g>
     </g>
    </g>
    <g id="xtick_4">
     <g id="text_4">
      <!-- 3 -->
      <defs>
       <path d="M 40.578125 39.3125 
Q 47.65625 37.796875 51.625 33 
Q 55.609375 28.21875 55.609375 21.1875 
Q 55.609375 10.40625 48.1875 4.484375 
Q 40.765625 -1.421875 27.09375 -1.421875 
Q 22.515625 -1.421875 17.65625 -0.515625 
Q 12.796875 0.390625 7.625 2.203125 
L 7.625 11.71875 
Q 11.71875 9.328125 16.59375 8.109375 
Q 21.484375 6.890625 26.8125 6.890625 
Q 36.078125 6.890625 40.9375 10.546875 
Q 45.796875 14.203125 45.796875 21.1875 
Q 45.796875 27.640625 41.28125 31.265625 
Q 36.765625 34.90625 28.71875 34.90625 
L 20.21875 34.90625 
L 20.21875 43.015625 
L 29.109375 43.015625 
Q 36.375 43.015625 40.234375 45.921875 
Q 44.09375 48.828125 44.09375 54.296875 
Q 44.09375 59.90625 40.109375 62.90625 
Q 36.140625 65.921875 28.71875 65.921875 
Q 24.65625 65.921875 20.015625 65.03125 
Q 15.375 64.15625 9.8125 62.3125 
L 9.8125 71.09375 
Q 15.4375 72.65625 20.34375 73.4375 
Q 25.25 74.21875 29.59375 74.21875 
Q 40.828125 74.21875 47.359375 69.109375 
Q 53.90625 64.015625 53.90625 55.328125 
Q 53.90625 49.265625 50.4375 45.09375 
Q 46.96875 40.921875 40.578125 39.3125 
z
" id="DejaVuSans-33"/>
      </defs>
      <g transform="translate(374.496179 394.35025)scale(0.08 -0.08)">
       <use xlink:href="#DejaVuSans-33"/>
      </g>
     </g>
    </g>
    <g id="xtick_5">
     <g id="text_5">
      <!-- 4 -->
      <defs>
       <path d="M 37.796875 64.3125 
L 12.890625 25.390625 
L 37.796875 25.390625 
z
M 35.203125 72.90625 
L 47.609375 72.90625 
L 47.609375 25.390625 
L 58.015625 25.390625 
L 58.015625 17.1875 
L 47.609375 17.1875 
L 47.609375 0 
L 37.796875 0 
L 37.796875 17.1875 
L 4.890625 17.1875 
L 4.890625 26.703125 
z
" id="DejaVuSans-34"/>
      </defs>
      <g transform="translate(489.187197 394.35025)scale(0.08 -0.08)">
       <use xlink:href="#DejaVuSans-34"/>
      </g>
     </g>
    </g>
    <g id="xtick_6">
     <g id="text_6">
      <!-- 5 -->
      <defs>
       <path d="M 10.796875 72.90625 
L 49.515625 72.90625 
L 49.515625 64.59375 
L 19.828125 64.59375 
L 19.828125 46.734375 
Q 21.96875 47.46875 24.109375 47.828125 
Q 26.265625 48.1875 28.421875 48.1875 
Q 40.625 48.1875 47.75 41.5 
Q 54.890625 34.8125 54.890625 23.390625 
Q 54.890625 11.625 47.5625 5.09375 
Q 40.234375 -1.421875 26.90625 -1.421875 
Q 22.3125 -1.421875 17.546875 -0.640625 
Q 12.796875 0.140625 7.71875 1.703125 
L 7.71875 11.625 
Q 12.109375 9.234375 16.796875 8.0625 
Q 21.484375 6.890625 26.703125 6.890625 
Q 35.15625 6.890625 40.078125 11.328125 
Q 45.015625 15.765625 45.015625 23.390625 
Q 45.015625 31 40.078125 35.4375 
Q 35.15625 39.890625 26.703125 39.890625 
Q 22.75 39.890625 18.8125 39.015625 
Q 14.890625 38.140625 10.796875 36.28125 
z
" id="DejaVuSans-35"/>
      </defs>
      <g transform="translate(603.878215 394.35025)scale(0.08 -0.08)">
       <use xlink:href="#DejaVuSans-35"/>
      </g>
     </g>
    </g>
    <g id="xtick_7">
     <g id="text_7">
      <!-- 6 -->
      <defs>
       <path d="M 33.015625 40.375 
Q 26.375 40.375 22.484375 35.828125 
Q 18.609375 31.296875 18.609375 23.390625 
Q 18.609375 15.53125 22.484375 10.953125 
Q 26.375 6.390625 33.015625 6.390625 
Q 39.65625 6.390625 43.53125 10.953125 
Q 47.40625 15.53125 47.40625 23.390625 
Q 47.40625 31.296875 43.53125 35.828125 
Q 39.65625 40.375 33.015625 40.375 
z
M 52.59375 71.296875 
L 52.59375 62.3125 
Q 48.875 64.0625 45.09375 64.984375 
Q 41.3125 65.921875 37.59375 65.921875 
Q 27.828125 65.921875 22.671875 59.328125 
Q 17.53125 52.734375 16.796875 39.40625 
Q 19.671875 43.65625 24.015625 45.921875 
Q 28.375 48.1875 33.59375 48.1875 
Q 44.578125 48.1875 50.953125 41.515625 
Q 57.328125 34.859375 57.328125 23.390625 
Q 57.328125 12.15625 50.6875 5.359375 
Q 44.046875 -1.421875 33.015625 -1.421875 
Q 20.359375 -1.421875 13.671875 8.265625 
Q 6.984375 17.96875 6.984375 36.375 
Q 6.984375 53.65625 15.1875 63.9375 
Q 23.390625 74.21875 37.203125 74.21875 
Q 40.921875 74.21875 44.703125 73.484375 
Q 48.484375 72.75 52.59375 71.296875 
z
" id="DejaVuSans-36"/>
      </defs>
      <g transform="translate(718.569233 394.35025)scale(0.08 -0.08)">
       <use xlink:href="#DejaVuSans-36"/>
      </g>
     </g>
    </g>
    <g id="xtick_8">
     <g id="text_8">
      <!-- 7 -->
      <defs>
       <path d="M 8.203125 72.90625 
L 55.078125 72.90625 
L 55.078125 68.703125 
L 28.609375 0 
L 18.3125 0 
L 43.21875 64.59375 
L 8.203125 64.59375 
z
" id="DejaVuSans-37"/>
      </defs>
      <g transform="translate(833.260251 394.35025)scale(0.08 -0.08)">
       <use xlink:href="#DejaVuSans-37"/>
      </g>
     </g>
    </g>
    <g id="xtick_9">
     <g id="text_9">
      <!-- 8 -->
      <defs>
       <path d="M 31.78125 34.625 
Q 24.75 34.625 20.71875 30.859375 
Q 16.703125 27.09375 16.703125 20.515625 
Q 16.703125 13.921875 20.71875 10.15625 
Q 24.75 6.390625 31.78125 6.390625 
Q 38.8125 6.390625 42.859375 10.171875 
Q 46.921875 13.96875 46.921875 20.515625 
Q 46.921875 27.09375 42.890625 30.859375 
Q 38.875 34.625 31.78125 34.625 
z
M 21.921875 38.8125 
Q 15.578125 40.375 12.03125 44.71875 
Q 8.5 49.078125 8.5 55.328125 
Q 8.5 64.0625 14.71875 69.140625 
Q 20.953125 74.21875 31.78125 74.21875 
Q 42.671875 74.21875 48.875 69.140625 
Q 55.078125 64.0625 55.078125 55.328125 
Q 55.078125 49.078125 51.53125 44.71875 
Q 48 40.375 41.703125 38.8125 
Q 48.828125 37.15625 52.796875 32.3125 
Q 56.78125 27.484375 56.78125 20.515625 
Q 56.78125 9.90625 50.3125 4.234375 
Q 43.84375 -1.421875 31.78125 -1.421875 
Q 19.734375 -1.421875 13.25 4.234375 
Q 6.78125 9.90625 6.78125 20.515625 
Q 6.78125 27.484375 10.78125 32.3125 
Q 14.796875 37.15625 21.921875 38.8125 
z
M 18.3125 54.390625 
Q 18.3125 48.734375 21.84375 45.5625 
Q 25.390625 42.390625 31.78125 42.390625 
Q 38.140625 42.390625 41.71875 45.5625 
Q 45.3125 48.734375 45.3125 54.390625 
Q 45.3125 60.0625 41.71875 63.234375 
Q 38.140625 66.40625 31.78125 66.40625 
Q 25.390625 66.40625 21.84375 63.234375 
Q 18.3125 60.0625 18.3125 54.390625 
z
" id="DejaVuSans-38"/>
      </defs>
      <g transform="translate(947.951269 394.35025)scale(0.08 -0.08)">
       <use xlink:href="#DejaVuSans-38"/>
      </g>
     </g>
    </g>
    <g id="text_10">
     <!-- Position in Read (bp) -->
     <defs>
      <path d="M 19.671875 64.796875 
L 19.671875 37.40625 
L 32.078125 37.40625 
Q 38.96875 37.40625 42.71875 40.96875 
Q 46.484375 44.53125 46.484375 51.125 
Q 46.484375 57.671875 42.71875 61.234375 
Q 38.96875 64.796875 32.078125 64.796875 
z
M 9.8125 72.90625 
L 32.078125 72.90625 
Q 44.34375 72.90625 50.609375 67.359375 
Q 56.890625 61.8125 56.890625 51.125 
Q 56.890625 40.328125 50.609375 34.8125 
Q 44.34375 29.296875 32.078125 29.296875 
L 19.671875 29.296875 
L 19.671875 0 
L 9.8125 0 
z
" id="DejaVuSans-50"/>
      <path d="M 30.609375 48.390625 
Q 23.390625 48.390625 19.1875 42.75 
Q 14.984375 37.109375 14.984375 27.296875 
Q 14.984375 17.484375 19.15625 11.84375 
Q 23.34375 6.203125 30.609375 6.203125 
Q 37.796875 6.203125 41.984375 11.859375 
Q 46.1875 17.53125 46.1875 27.296875 
Q 46.1875 37.015625 41.984375 42.703125 
Q 37.796875 48.390625 30.609375 48.390625 
z
M 30.609375 56 
Q 42.328125 56 49.015625 48.375 
Q 55.71875 40.765625 55.71875 27.296875 
Q 55.71875 13.875 49.015625 6.21875 
Q 42.328125 -1.421875 30.609375 -1.421875 
Q 18.84375 -1.421875 12.171875 6.21875 
Q 5.515625 13.875 5.515625 27.296875 
Q 5.515625 40.765625 12.171875 48.375 
Q 18.84375 56 30.609375 56 
z
" id="DejaVuSans-6f"/>
      <path d="M 44.28125 53.078125 
L 44.28125 44.578125 
Q 40.484375 46.53125 36.375 47.5 
Q 32.28125 48.484375 27.875 48.484375 
Q 21.1875 48.484375 17.84375 46.4375 
Q 14.5 44.390625 14.5 40.28125 
Q 14.5 37.15625 16.890625 35.375 
Q 19.28125 33.59375 26.515625 31.984375 
L 29.59375 31.296875 
Q 39.15625 29.25 43.1875 25.515625 
Q 47.21875 21.78125 47.21875 15.09375 
Q 47.21875 7.46875 41.1875 3.015625 
Q 35.15625 -1.421875 24.609375 -1.421875 
Q 20.21875 -1.421875 15.453125 -0.5625 
Q 10.6875 0.296875 5.421875 2 
L 5.421875 11.28125 
Q 10.40625 8.6875 15.234375 7.390625 
Q 20.0625 6.109375 24.8125 6.109375 
Q 31.15625 6.109375 34.5625 8.28125 
Q 37.984375 10.453125 37.984375 14.40625 
Q 37.984375 18.0625 35.515625 20.015625 
Q 33.0625 21.96875 24.703125 23.78125 
L 21.578125 24.515625 
Q 13.234375 26.265625 9.515625 29.90625 
Q 5.8125 33.546875 5.8125 39.890625 
Q 5.8125 47.609375 11.28125 51.796875 
Q 16.75 56 26.8125 56 
Q 31.78125 56 36.171875 55.265625 
Q 40.578125 54.546875 44.28125 53.078125 
z
" id="DejaVuSans-73"/>
      <path d="M 9.421875 54.6875 
L 18.40625 54.6875 
L 18.40625 0 
L 9.421875 0 
z
M 9.421875 75.984375 
L 18.40625 75.984375 
L 18.40625 64.59375 
L 9.421875 64.59375 
z
" id="DejaVuSans-69"/>
      <path d="M 18.3125 70.21875 
L 18.3125 54.6875 
L 36.8125 54.6875 
L 36.8125 47.703125 
L 18.3125 47.703125 
L 18.3125 18.015625 
Q 18.3125 11.328125 20.140625 9.421875 
Q 21.96875 7.515625 27.59375 7.515625 
L 36.8125 7.515625 
L 36.8125 0 
L 27.59375 0 
Q 17.1875 0 13.234375 3.875 
Q 9.28125 7.765625 9.28125 18.015625 
L 9.28125 47.703125 
L 2.6875 47.703125 
L 2.6875 54.6875 
L 9.28125 54.6875 
L 9.28125 70.21875 
z
" id="DejaVuSans-74"/>
      <path d="M 54.890625 33.015625 
L 54.890625 0 
L 45.90625 0 
L 45.90625 32.71875 
Q 45.90625 40.484375 42.875 44.328125 
Q 39.84375 48.1875 33.796875 48.1875 
Q 26.515625 48.1875 22.3125 43.546875 
Q 18.109375 38.921875 18.109375 30.90625 
L 18.109375 0 
L 9.078125 0 
L 9.078125 54.6875 
L 18.109375 54.6875 
L 18.109375 46.1875 
Q 21.34375 51.125 25.703125 53.5625 
Q 30.078125 56 35.796875 56 
Q 45.21875 56 50.046875 50.171875 
Q 54.890625 44.34375 54.890625 33.015625 
z
" id="DejaVuSans-6e"/>
      <path id="DejaVuSans-20"/>
      <path d="M 44.390625 34.1875 
Q 47.5625 33.109375 50.5625 29.59375 
Q 53.5625 26.078125 56.59375 19.921875 
L 66.609375 0 
L 56 0 
L 46.6875 18.703125 
Q 43.0625 26.03125 39.671875 28.421875 
Q 36.28125 30.8125 30.421875 30.8125 
L 19.671875 30.8125 
L 19.671875 0 
L 9.8125 0 
L 9.8125 72.90625 
L 32.078125 72.90625 
Q 44.578125 72.90625 50.734375 67.671875 
Q 56.890625 62.453125 56.890625 51.90625 
Q 56.890625 45.015625 53.6875 40.46875 
Q 50.484375 35.9375 44.390625 34.1875 
z
M 19.671875 64.796875 
L 19.671875 38.921875 
L 32.078125 38.921875 
Q 39.203125 38.921875 42.84375 42.21875 
Q 46.484375 45.515625 46.484375 51.90625 
Q 46.484375 58.296875 42.84375 61.546875 
Q 39.203125 64.796875 32.078125 64.796875 
z
" id="DejaVuSans-52"/>
      <path d="M 56.203125 29.59375 
L 56.203125 25.203125 
L 14.890625 25.203125 
Q 15.484375 15.921875 20.484375 11.0625 
Q 25.484375 6.203125 34.421875 6.203125 
Q 39.59375 6.203125 44.453125 7.46875 
Q 49.3125 8.734375 54.109375 11.28125 
L 54.109375 2.78125 
Q 49.265625 0.734375 44.1875 -0.34375 
Q 39.109375 -1.421875 33.890625 -1.421875 
Q 20.796875 -1.421875 13.15625 6.1875 
Q 5.515625 13.8125 5.515625 26.8125 
Q 5.515625 40.234375 12.765625 48.109375 
Q 20.015625 56 32.328125 56 
Q 43.359375 56 49.78125 48.890625 
Q 56.203125 41.796875 56.203125 29.59375 
z
M 47.21875 32.234375 
Q 47.125 39.59375 43.09375 43.984375 
Q 39.0625 48.390625 32.421875 48.390625 
Q 24.90625 48.390625 20.390625 44.140625 
Q 15.875 39.890625 15.1875 32.171875 
z
" id="DejaVuSans-65"/>
      <path d="M 34.28125 27.484375 
Q 23.390625 27.484375 19.1875 25 
Q 14.984375 22.515625 14.984375 16.5 
Q 14.984375 11.71875 18.140625 8.90625 
Q 21.296875 6.109375 26.703125 6.109375 
Q 34.1875 6.109375 38.703125 11.40625 
Q 43.21875 16.703125 43.21875 25.484375 
L 43.21875 27.484375 
z
M 52.203125 31.203125 
L 52.203125 0 
L 43.21875 0 
L 43.21875 8.296875 
Q 40.140625 3.328125 35.546875 0.953125 
Q 30.953125 -1.421875 24.3125 -1.421875 
Q 15.921875 -1.421875 10.953125 3.296875 
Q 6 8.015625 6 15.921875 
Q 6 25.140625 12.171875 29.828125 
Q 18.359375 34.515625 30.609375 34.515625 
L 43.21875 34.515625 
L 43.21875 35.40625 
Q 43.21875 41.609375 39.140625 45 
Q 35.0625 48.390625 27.6875 48.390625 
Q 23 48.390625 18.546875 47.265625 
Q 14.109375 46.140625 10.015625 43.890625 
L 10.015625 52.203125 
Q 14.9375 54.109375 19.578125 55.046875 
Q 24.21875 56 28.609375 56 
Q 40.484375 56 46.34375 49.84375 
Q 52.203125 43.703125 52.203125 31.203125 
z
" id="DejaVuSans-61"/>
      <path d="M 45.40625 46.390625 
L 45.40625 75.984375 
L 54.390625 75.984375 
L 54.390625 0 
L 45.40625 0 
L 45.40625 8.203125 
Q 42.578125 3.328125 38.25 0.953125 
Q 33.9375 -1.421875 27.875 -1.421875 
Q 17.96875 -1.421875 11.734375 6.484375 
Q 5.515625 14.40625 5.515625 27.296875 
Q 5.515625 40.1875 11.734375 48.09375 
Q 17.96875 56 27.875 56 
Q 33.9375 56 38.25 53.625 
Q 42.578125 51.265625 45.40625 46.390625 
z
M 14.796875 27.296875 
Q 14.796875 17.390625 18.875 11.75 
Q 22.953125 6.109375 30.078125 6.109375 
Q 37.203125 6.109375 41.296875 11.75 
Q 45.40625 17.390625 45.40625 27.296875 
Q 45.40625 37.203125 41.296875 42.84375 
Q 37.203125 48.484375 30.078125 48.484375 
Q 22.953125 48.484375 18.875 42.84375 
Q 14.796875 37.203125 14.796875 27.296875 
z
" id="DejaVuSans-64"/>
      <path d="M 31 75.875 
Q 24.46875 64.65625 21.28125 53.65625 
Q 18.109375 42.671875 18.109375 31.390625 
Q 18.109375 20.125 21.3125 9.0625 
Q 24.515625 -2 31 -13.1875 
L 23.1875 -13.1875 
Q 15.875 -1.703125 12.234375 9.375 
Q 8.59375 20.453125 8.59375 31.390625 
Q 8.59375 42.28125 12.203125 53.3125 
Q 15.828125 64.359375 23.1875 75.875 
z
" id="DejaVuSans-28"/>
      <path d="M 48.6875 27.296875 
Q 48.6875 37.203125 44.609375 42.84375 
Q 40.53125 48.484375 33.40625 48.484375 
Q 26.265625 48.484375 22.1875 42.84375 
Q 18.109375 37.203125 18.109375 27.296875 
Q 18.109375 17.390625 22.1875 11.75 
Q 26.265625 6.109375 33.40625 6.109375 
Q 40.53125 6.109375 44.609375 11.75 
Q 48.6875 17.390625 48.6875 27.296875 
z
M 18.109375 46.390625 
Q 20.953125 51.265625 25.265625 53.625 
Q 29.59375 56 35.59375 56 
Q 45.5625 56 51.78125 48.09375 
Q 58.015625 40.1875 58.015625 27.296875 
Q 58.015625 14.40625 51.78125 6.484375 
Q 45.5625 -1.421875 35.59375 -1.421875 
Q 29.59375 -1.421875 25.265625 0.953125 
Q 20.953125 3.328125 18.109375 8.203125 
L 18.109375 0 
L 9.078125 0 
L 9.078125 75.984375 
L 18.109375 75.984375 
z
" id="DejaVuSans-62"/>
      <path d="M 18.109375 8.203125 
L 18.109375 -20.796875 
L 9.078125 -20.796875 
L 9.078125 54.6875 
L 18.109375 54.6875 
L 18.109375 46.390625 
Q 20.953125 51.265625 25.265625 53.625 
Q 29.59375 56 35.59375 56 
Q 45.5625 56 51.78125 48.09375 
Q 58.015625 40.1875 58.015625 27.296875 
Q 58.015625 14.40625 51.78125 6.484375 
Q 45.5625 -1.421875 35.59375 -1.421875 
Q 29.59375 -1.421875 25.265625 0.953125 
Q 20.953125 3.328125 18.109375 8.203125 
z
M 48.6875 27.296875 
Q 48.6875 37.203125 44.609375 42.84375 
Q 40.53125 48.484375 33.40625 48.484375 
Q 26.265625 48.484375 22.1875 42.84375 
Q 18.109375 37.203125 18.109375 27.296875 
Q 18.109375 17.390625 22.1875 11.75 
Q 26.265625 6.109375 33.40625 6.109375 
Q 40.53125 6.109375 44.609375 11.75 
Q 48.6875 17.390625 48.6875 27.296875 
z
" id="DejaVuSans-70"/>
      <path d="M 8.015625 75.875 
L 15.828125 75.875 
Q 23.140625 64.359375 26.78125 53.3125 
Q 30.421875 42.28125 30.421875 31.390625 
Q 30.421875 20.453125 26.78125 9.375 
Q 23.140625 -1.703125 15.828125 -13.1875 
L 8.015625 -13.1875 
Q 14.5 -2 17.703125 9.0625 
Q 20.90625 20.125 20.90625 31.390625 
Q 20.90625 42.671875 17.703125 53.65625 
Q 14.5 64.65625 8.015625 75.875 
z
" id="DejaVuSans-29"/>
     </defs>
     <g transform="translate(459.799219 407.612437)scale(0.1 -0.1)">
      <use xlink:href="#DejaVuSans-50"/>
      <use x="60.255859" xlink:href="#DejaVuSans-6f"/>
      <use x="121.4375" xlink:href="#DejaVuSans-73"/>
      <use x="173.537109" xlink:href="#DejaVuSans-69"/>
      <use x="201.320312" xlink:href="#DejaVuSans-74"/>
      <use x="240.529297" xlink:href="#DejaVuSans-69"/>
      <use x="268.3125" xlink:href="#DejaVuSans-6f"/>
      <use x="329.494141" xlink:href="#DejaVuSans-6e"/>
      <use x="392.873047" xlink:href="#DejaVuSans-20"/>
      <use x="424.660156" xlink:href="#DejaVuSans-69"/>
      <use x="452.443359" xlink:href="#DejaVuSans-6e"/>
      <use x="515.822266" xlink:href="#DejaVuSans-20"/>
      <use x="547.609375" xlink:href="#DejaVuSans-52"/>
      <use x="617.029297" xlink:href="#DejaVuSans-65"/>
      <use x="678.552734" xlink:href="#DejaVuSans-61"/>
      <use x="739.832031" xlink:href="#DejaVuSans-64"/>
      <use x="803.308594" xlink:href="#DejaVuSans-20"/>
      <use x="835.095703" xlink:href="#DejaVuSans-28"/>
      <use x="874.109375" xlink:href="#DejaVuSans-62"/>
      <use x="937.585938" xlink:href="#DejaVuSans-70"/>
      <use x="1001.0625" xlink:href="#DejaVuSans-29"/>
     </g>
    </g>
   </g>
   <g id="matplotlib.axis_2">
    <g id="ytick_1">
     <g id="line2d_1">
      <path clip-path="url(#pbcbb34fd84)" d="M 32.968125 381.2715 
L 990.638125 381.2715 
" style="fill:none;stroke:#dedede;stroke-linecap:square;"/>
     </g>
     <g id="text_11">
      <!-- 0 -->
      <g transform="translate(20.878125 384.310875)scale(0.08 -0.08)">
       <use xlink:href="#DejaVuSans-30"/>
      </g>
     </g>
    </g>
    <g id="ytick_2">
     <g id="line2d_2">
      <path clip-path="url(#pbcbb34fd84)" d="M 32.968125 312.3355 
L 990.638125 312.3355 
" style="fill:none;stroke:#dedede;stroke-linecap:square;"/>
     </g>
     <g id="text_12">
      <!-- 1 -->
      <g transform="translate(20.878125 315.374875)scale(0.08 -0.08)">
       <use xlink:href="#DejaVuSans-31"/>
      </g>
     </g>
    </g>
    <g id="ytick_3">
     <g id="line2d_3">
      <path clip-path="url(#pbcbb34fd84)" d="M 32.968125 243.3995 
L 990.638125 243.3995 
" style="fill:none;stroke:#dedede;stroke-linecap:square;"/>
     </g>
     <g id="text_13">
      <!-- 2 -->
      <g transform="translate(20.878125 246.438875)scale(0.08 -0.08)">
       <use xlink:href="#DejaVuSans-32"/>
      </g>
     </g>
    </g>
    <g id="ytick_4">
     <g id="line2d_4">
      <path clip-path="url(#pbcbb34fd84)" d="M 32.968125 174.4635 
L 990.638125 174.4635 
" style="fill:none;stroke:#dedede;stroke-linecap:square;"/>
     </g>
     <g id="text_14">
      <!-- 3 -->
      <g transform="translate(20.878125 177.502875)scale(0.08 -0.08)">
       <use xlink:href="#DejaVuSans-33"/>
      </g>
     </g>
    </g>
    <g id="ytick_5">
     <g id="line2d_5">
      <path clip-path="url(#pbcbb34fd84)" d="M 32.968125 105.5275 
L 990.638125 105.5275 
" style="fill:none;stroke:#dedede;stroke-linecap:square;"/>
     </g>
     <g id="text_15">
      <!-- 4 -->
      <g transform="translate(20.878125 108.566875)scale(0.08 -0.08)">
       <use xlink:href="#DejaVuSans-34"/>
      </g>
     </g>
    </g>
    <g id="ytick_6">
     <g id="line2d_6">
      <path clip-path="url(#pbcbb34fd84)" d="M 32.968125 36.5915 
L 990.638125 36.5915 
" style="fill:none;stroke:#dedede;stroke-linecap:square;"/>
     </g>
     <g id="text_16">
      <!-- 5 -->
      <g transform="translate(20.878125 39.630875)scale(0.08 -0.08)">
       <use xlink:href="#DejaVuSans-35"/>
      </g>
     </g>
    </g>
    <g id="text_17">
     <!-- Percentage N-Count -->
     <defs>
      <path d="M 41.109375 46.296875 
Q 39.59375 47.171875 37.8125 47.578125 
Q 36.03125 48 33.890625 48 
Q 26.265625 48 22.1875 43.046875 
Q 18.109375 38.09375 18.109375 28.8125 
L 18.109375 0 
L 9.078125 0 
L 9.078125 54.6875 
L 18.109375 54.6875 
L 18.109375 46.1875 
Q 20.953125 51.171875 25.484375 53.578125 
Q 30.03125 56 36.53125 56 
Q 37.453125 56 38.578125 55.875 
Q 39.703125 55.765625 41.0625 55.515625 
z
" id="DejaVuSans-72"/>
      <path d="M 48.78125 52.59375 
L 48.78125 44.1875 
Q 44.96875 46.296875 41.140625 47.34375 
Q 37.3125 48.390625 33.40625 48.390625 
Q 24.65625 48.390625 19.8125 42.84375 
Q 14.984375 37.3125 14.984375 27.296875 
Q 14.984375 17.28125 19.8125 11.734375 
Q 24.65625 6.203125 33.40625 6.203125 
Q 37.3125 6.203125 41.140625 7.25 
Q 44.96875 8.296875 48.78125 10.40625 
L 48.78125 2.09375 
Q 45.015625 0.34375 40.984375 -0.53125 
Q 36.96875 -1.421875 32.421875 -1.421875 
Q 20.0625 -1.421875 12.78125 6.34375 
Q 5.515625 14.109375 5.515625 27.296875 
Q 5.515625 40.671875 12.859375 48.328125 
Q 20.21875 56 33.015625 56 
Q 37.15625 56 41.109375 55.140625 
Q 45.0625 54.296875 48.78125 52.59375 
z
" id="DejaVuSans-63"/>
      <path d="M 45.40625 27.984375 
Q 45.40625 37.75 41.375 43.109375 
Q 37.359375 48.484375 30.078125 48.484375 
Q 22.859375 48.484375 18.828125 43.109375 
Q 14.796875 37.75 14.796875 27.984375 
Q 14.796875 18.265625 18.828125 12.890625 
Q 22.859375 7.515625 30.078125 7.515625 
Q 37.359375 7.515625 41.375 12.890625 
Q 45.40625 18.265625 45.40625 27.984375 
z
M 54.390625 6.78125 
Q 54.390625 -7.171875 48.1875 -13.984375 
Q 42 -20.796875 29.203125 -20.796875 
Q 24.46875 -20.796875 20.265625 -20.09375 
Q 16.0625 -19.390625 12.109375 -17.921875 
L 12.109375 -9.1875 
Q 16.0625 -11.328125 19.921875 -12.34375 
Q 23.78125 -13.375 27.78125 -13.375 
Q 36.625 -13.375 41.015625 -8.765625 
Q 45.40625 -4.15625 45.40625 5.171875 
L 45.40625 9.625 
Q 42.625 4.78125 38.28125 2.390625 
Q 33.9375 0 27.875 0 
Q 17.828125 0 11.671875 7.65625 
Q 5.515625 15.328125 5.515625 27.984375 
Q 5.515625 40.671875 11.671875 48.328125 
Q 17.828125 56 27.875 56 
Q 33.9375 56 38.28125 53.609375 
Q 42.625 51.21875 45.40625 46.390625 
L 45.40625 54.6875 
L 54.390625 54.6875 
z
" id="DejaVuSans-67"/>
      <path d="M 9.8125 72.90625 
L 23.09375 72.90625 
L 55.421875 11.921875 
L 55.421875 72.90625 
L 64.984375 72.90625 
L 64.984375 0 
L 51.703125 0 
L 19.390625 60.984375 
L 19.390625 0 
L 9.8125 0 
z
" id="DejaVuSans-4e"/>
      <path d="M 4.890625 31.390625 
L 31.203125 31.390625 
L 31.203125 23.390625 
L 4.890625 23.390625 
z
" id="DejaVuSans-2d"/>
      <path d="M 64.40625 67.28125 
L 64.40625 56.890625 
Q 59.421875 61.53125 53.78125 63.8125 
Q 48.140625 66.109375 41.796875 66.109375 
Q 29.296875 66.109375 22.65625 58.46875 
Q 16.015625 50.828125 16.015625 36.375 
Q 16.015625 21.96875 22.65625 14.328125 
Q 29.296875 6.6875 41.796875 6.6875 
Q 48.140625 6.6875 53.78125 8.984375 
Q 59.421875 11.28125 64.40625 15.921875 
L 64.40625 5.609375 
Q 59.234375 2.09375 53.4375 0.328125 
Q 47.65625 -1.421875 41.21875 -1.421875 
Q 24.65625 -1.421875 15.125 8.703125 
Q 5.609375 18.84375 5.609375 36.375 
Q 5.609375 53.953125 15.125 64.078125 
Q 24.65625 74.21875 41.21875 74.21875 
Q 47.75 74.21875 53.53125 72.484375 
Q 59.328125 70.75 64.40625 67.28125 
z
" id="DejaVuSans-43"/>
      <path d="M 8.5 21.578125 
L 8.5 54.6875 
L 17.484375 54.6875 
L 17.484375 21.921875 
Q 17.484375 14.15625 20.5 10.265625 
Q 23.53125 6.390625 29.59375 6.390625 
Q 36.859375 6.390625 41.078125 11.03125 
Q 45.3125 15.671875 45.3125 23.6875 
L 45.3125 54.6875 
L 54.296875 54.6875 
L 54.296875 0 
L 45.3125 0 
L 45.3125 8.40625 
Q 42.046875 3.421875 37.71875 1 
Q 33.40625 -1.421875 27.6875 -1.421875 
Q 18.265625 -1.421875 13.375 4.4375 
Q 8.5 10.296875 8.5 21.578125 
z
M 31.109375 56 
z
" id="DejaVuSans-75"/>
     </defs>
     <g transform="translate(14.798438 259.326031)rotate(-90)scale(0.1 -0.1)">
      <use xlink:href="#DejaVuSans-50"/>
      <use x="60.255859" xlink:href="#DejaVuSans-65"/>
      <use x="121.779297" xlink:href="#DejaVuSans-72"/>
      <use x="162.861328" xlink:href="#DejaVuSans-63"/>
      <use x="217.841797" xlink:href="#DejaVuSans-65"/>
      <use x="279.365234" xlink:href="#DejaVuSans-6e"/>
      <use x="342.744141" xlink:href="#DejaVuSans-74"/>
      <use x="381.953125" xlink:href="#DejaVuSans-61"/>
      <use x="443.232422" xlink:href="#DejaVuSans-67"/>
      <use x="506.708984" xlink:href="#DejaVuSans-65"/>
      <use x="568.232422" xlink:href="#DejaVuSans-20"/>
      <use x="600.019531" xlink:href="#DejaVuSans-4e"/>
      <use x="674.824219" xlink:href="#DejaVuSans-2d"/>
      <use x="710.908203" xlink:href="#DejaVuSans-43"/>
      <use x="780.732422" xlink:href="#DejaVuSans-6f"/>
      <use x="841.914062" xlink:href="#DejaVuSans-75"/>
      <use x="905.292969" xlink:href="#DejaVuSans-6e"/>
      <use x="968.671875" xlink:href="#DejaVuSans-74"/>
     </g>
    </g>
   </g>
   <g id="line2d_7">
    <path clip-path="url(#pbcbb34fd84)" d="M 147.659143 302.989398 
L 262.350161 381.2715 
L 377.041179 381.2715 
L 491.732197 381.2715 
L 606.423215 381.2715 
L 721.114233 381.225094 
L 835.805251 381.239098 
L 950.496269 381.2715 
" style="fill:none;stroke:#5cb85c;stroke-linecap:square;"/>
   </g>
   <g id="line2d_8">
    <path clip-path="url(#pbcbb34fd84)" d="M 147.659143 290.291448 
L 262.350161 381.194868 
L 377.041179 381.2715 
L 491.732197 381.2715 
L 606.423215 381.271216 
L 721.114233 381.1852 
L 835.805251 381.2715 
L 950.496269 381.2715 
" style="fill:none;stroke:#5cb85c;stroke-linecap:square;"/>
   </g>
   <g id="line2d_9">
    <path clip-path="url(#pbcbb34fd84)" d="M 147.659143 301.778089 
L 262.350161 381.2715 
L 377.041179 381.2715 
L 491.732197 381.2715 
L 606.423215 381.2715 
L 721.114233 381.22721 
L 835.805251 381.240261 
L 950.496269 381.2715 
" style="fill:none;stroke:#5cb85c;stroke-linecap:square;"/>
   </g>
   <g id="line2d_10">
    <path clip-path="url(#pbcbb34fd84)" d="M 147.659143 287.39616 
L 262.350161 381.191873 
L 377.041179 381.2715 
L 491.732197 381.2715 
L 606.423215 381.270483 
L 721.114233 381.189694 
L 835.805251 381.2715 
L 950.496269 381.2715 
" style="fill:none;stroke:#5cb85c;stroke-linecap:square;"/>
   </g>
   <g id="line2d_11">
    <path clip-path="url(#pbcbb34fd84)" d="M 147.659143 300.605728 
L 262.350161 381.27136 
L 377.041179 381.2715 
L 491.732197 381.2715 
L 606.423215 381.2715 
L 721.114233 381.23103 
L 835.805251 381.242233 
L 950.496269 381.2715 
" style="fill:none;stroke:#5cb85c;stroke-linecap:square;"/>
   </g>
   <g id="line2d_12">
    <path clip-path="url(#pbcbb34fd84)" d="M 147.659143 286.13917 
L 262.350161 381.203879 
L 377.041179 381.2715 
L 491.732197 381.2715 
L 606.423215 381.270909 
L 721.114233 381.187491 
L 835.805251 381.2715 
L 950.496269 381.2715 
" style="fill:none;stroke:#5cb85c;stroke-linecap:square;"/>
   </g>
   <g id="line2d_13">
    <path clip-path="url(#pbcbb34fd84)" d="M 147.659143 301.136934 
L 262.350161 381.271371 
L 377.041179 381.2715 
L 491.732197 381.2715 
L 606.423215 381.2715 
L 721.114233 381.226133 
L 835.805251 381.238153 
L 950.496269 381.2715 
" style="fill:none;stroke:#5cb85c;stroke-linecap:square;"/>
   </g>
   <g id="line2d_14">
    <path clip-path="url(#pbcbb34fd84)" d="M 147.659143 286.702036 
L 262.350161 381.199583 
L 377.041179 381.2715 
L 491.732197 381.2715 
L 606.423215 381.270417 
L 721.114233 381.189289 
L 835.805251 381.2715 
L 950.496269 381.2715 
" style="fill:none;stroke:#5cb85c;stroke-linecap:square;"/>
   </g>
   <g id="line2d_15">
    <path clip-path="url(#pbcbb34fd84)" d="M 147.659143 303.834413 
L 262.350161 381.2715 
L 377.041179 381.2715 
L 491.732197 381.2715 
L 606.423215 381.2715 
L 721.114233 381.227887 
L 835.805251 381.237224 
L 950.496269 381.2715 
" style="fill:none;stroke:#5cb85c;stroke-linecap:square;"/>
   </g>
   <g id="line2d_16">
    <path clip-path="url(#pbcbb34fd84)" d="M 147.659143 289.823895 
L 262.350161 381.194781 
L 377.041179 381.2715 
L 491.732197 381.2715 
L 606.423215 381.270638 
L 721.114233 381.183328 
L 835.805251 381.2715 
L 950.496269 381.2715 
" style="fill:none;stroke:#5cb85c;stroke-linecap:square;"/>
   </g>
   <g id="line2d_17">
    <path clip-path="url(#pbcbb34fd84)" d="M 147.659143 303.412341 
L 262.350161 381.271389 
L 377.041179 381.2715 
L 491.732197 381.2715 
L 606.423215 381.2715 
L 721.114233 381.224191 
L 835.805251 381.238229 
L 950.496269 381.2715 
" style="fill:none;stroke:#5cb85c;stroke-linecap:square;"/>
   </g>
   <g id="line2d_18">
    <path clip-path="url(#pbcbb34fd84)" d="M 147.659143 289.006628 
L 262.350161 381.192618 
L 377.041179 381.2715 
L 491.732197 381.2715 
L 606.423215 381.270813 
L 721.114233 381.182886 
L 835.805251 381.2715 
L 950.496269 381.2715 
" style="fill:none;stroke:#5cb85c;stroke-linecap:square;"/>
   </g>
   <g id="line2d_19">
    <path clip-path="url(#pbcbb34fd84)" d="M 147.659143 302.515304 
L 262.350161 381.2715 
L 377.041179 381.2715 
L 491.732197 381.2715 
L 606.423215 381.2715 
L 721.114233 381.227901 
L 835.805251 381.236369 
L 950.496269 381.2715 
" style="fill:none;stroke:#5cb85c;stroke-linecap:square;"/>
   </g>
   <g id="line2d_20">
    <path clip-path="url(#pbcbb34fd84)" d="M 147.659143 288.186338 
L 262.350161 381.188601 
L 377.041179 381.2715 
L 491.732197 381.2715 
L 606.423215 381.270786 
L 721.114233 381.181822 
L 835.805251 381.2715 
L 950.496269 381.2715 
" style="fill:none;stroke:#5cb85c;stroke-linecap:square;"/>
   </g>
   <g id="line2d_21">
    <path clip-path="url(#pbcbb34fd84)" d="M 147.659143 302.757289 
L 262.350161 381.2715 
L 377.041179 381.2715 
L 491.732197 381.2715 
L 606.423215 381.2715 
L 721.114233 381.225204 
L 835.805251 381.238283 
L 950.496269 381.2715 
" style="fill:none;stroke:#5cb85c;stroke-linecap:square;"/>
   </g>
   <g id="line2d_22">
    <path clip-path="url(#pbcbb34fd84)" d="M 147.659143 288.427784 
L 262.350161 381.191724 
L 377.041179 381.2715 
L 491.732197 381.2715 
L 606.423215 381.2709 
L 721.114233 381.183086 
L 835.805251 381.2715 
L 950.496269 381.2715 
" style="fill:none;stroke:#5cb85c;stroke-linecap:square;"/>
   </g>
   <g id="line2d_23">
    <path clip-path="url(#pbcbb34fd84)" d="M 147.659143 298.646859 
L 262.350161 381.239121 
L 377.041179 381.262596 
L 491.732197 381.2715 
L 606.423215 381.2715 
L 721.114233 381.2715 
L 835.805251 381.2715 
L 950.496269 381.2715 
" style="fill:none;stroke:#5cb85c;stroke-linecap:square;"/>
   </g>
   <g id="line2d_24">
    <path clip-path="url(#pbcbb34fd84)" d="M 147.659143 311.08466 
L 262.350161 381.2715 
L 377.041179 381.2715 
L 491.732197 381.2715 
L 606.423215 381.256221 
L 721.114233 381.2715 
L 835.805251 381.2715 
L 950.496269 381.2715 
" style="fill:none;stroke:#5cb85c;stroke-linecap:square;"/>
   </g>
   <g id="line2d_25">
    <path clip-path="url(#pbcbb34fd84)" d="M 147.659143 298.725385 
L 262.350161 381.241888 
L 377.041179 381.263294 
L 491.732197 381.2715 
L 606.423215 381.2715 
L 721.114233 381.2715 
L 835.805251 381.2715 
L 950.496269 381.2715 
" style="fill:none;stroke:#5cb85c;stroke-linecap:square;"/>
   </g>
   <g id="line2d_26">
    <path clip-path="url(#pbcbb34fd84)" d="M 147.659143 310.841189 
L 262.350161 381.2715 
L 377.041179 381.2715 
L 491.732197 381.2715 
L 606.423215 381.252132 
L 721.114233 381.2715 
L 835.805251 381.2715 
L 950.496269 381.2715 
" style="fill:none;stroke:#5cb85c;stroke-linecap:square;"/>
   </g>
   <g id="line2d_27">
    <path clip-path="url(#pbcbb34fd84)" d="M 147.659143 299.132141 
L 262.350161 381.239356 
L 377.041179 381.264111 
L 491.732197 381.2715 
L 606.423215 381.2715 
L 721.114233 381.2715 
L 835.805251 381.2715 
L 950.496269 381.2715 
" style="fill:none;stroke:#5cb85c;stroke-linecap:square;"/>
   </g>
   <g id="line2d_28">
    <path clip-path="url(#pbcbb34fd84)" d="M 147.659143 311.486096 
L 262.350161 381.2715 
L 377.041179 381.2715 
L 491.732197 381.2715 
L 606.423215 381.25469 
L 721.114233 381.2715 
L 835.805251 381.2715 
L 950.496269 381.2715 
" style="fill:none;stroke:#5cb85c;stroke-linecap:square;"/>
   </g>
   <g id="line2d_29">
    <path clip-path="url(#pbcbb34fd84)" d="M 147.659143 299.607228 
L 262.350161 381.242533 
L 377.041179 381.264767 
L 491.732197 381.2715 
L 606.423215 381.2715 
L 721.114233 381.2715 
L 835.805251 381.2715 
L 950.496269 381.2715 
" style="fill:none;stroke:#5cb85c;stroke-linecap:square;"/>
   </g>
   <g id="line2d_30">
    <path clip-path="url(#pbcbb34fd84)" d="M 147.659143 311.805537 
L 262.350161 381.2715 
L 377.041179 381.2715 
L 491.732197 381.2715 
L 606.423215 381.254679 
L 721.114233 381.2715 
L 835.805251 381.2715 
L 950.496269 381.2715 
" style="fill:none;stroke:#5cb85c;stroke-linecap:square;"/>
   </g>
   <g id="line2d_31">
    <path clip-path="url(#pbcbb34fd84)" d="M 147.659143 298.920263 
L 262.350161 381.242803 
L 377.041179 381.264441 
L 491.732197 381.2715 
L 606.423215 381.2715 
L 721.114233 381.2715 
L 835.805251 381.2715 
L 950.496269 381.2715 
" style="fill:none;stroke:#5cb85c;stroke-linecap:square;"/>
   </g>
   <g id="line2d_32">
    <path clip-path="url(#pbcbb34fd84)" d="M 147.659143 311.172241 
L 262.350161 381.2715 
L 377.041179 381.2715 
L 491.732197 381.2715 
L 606.423215 381.254133 
L 721.114233 381.2715 
L 835.805251 381.2715 
L 950.496269 381.2715 
" style="fill:none;stroke:#5cb85c;stroke-linecap:square;"/>
   </g>
   <g id="line2d_33">
    <path clip-path="url(#pbcbb34fd84)" d="M 147.659143 298.638232 
L 262.350161 381.23893 
L 377.041179 381.264545 
L 491.732197 381.2715 
L 606.423215 381.2715 
L 721.114233 381.2715 
L 835.805251 381.2715 
L 950.496269 381.2715 
" style="fill:none;stroke:#5cb85c;stroke-linecap:square;"/>
   </g>
   <g id="line2d_34">
    <path clip-path="url(#pbcbb34fd84)" d="M 147.659143 310.84254 
L 262.350161 381.2715 
L 377.041179 381.2715 
L 491.732197 381.2715 
L 606.423215 381.252888 
L 721.114233 381.2715 
L 835.805251 381.2715 
L 950.496269 381.2715 
" style="fill:none;stroke:#5cb85c;stroke-linecap:square;"/>
   </g>
   <g id="line2d_35">
    <path clip-path="url(#pbcbb34fd84)" d="M 147.659143 298.778809 
L 262.350161 381.240928 
L 377.041179 381.266015 
L 491.732197 381.2715 
L 606.423215 381.2715 
L 721.114233 381.2715 
L 835.805251 381.2715 
L 950.496269 381.2715 
" style="fill:none;stroke:#5cb85c;stroke-linecap:square;"/>
   </g>
   <g id="line2d_36">
    <path clip-path="url(#pbcbb34fd84)" d="M 147.659143 311.348732 
L 262.350161 381.2715 
L 377.041179 381.2715 
L 491.732197 381.2715 
L 606.423215 381.255381 
L 721.114233 381.2715 
L 835.805251 381.2715 
L 950.496269 381.2715 
" style="fill:none;stroke:#5cb85c;stroke-linecap:square;"/>
   </g>
   <g id="line2d_37">
    <path clip-path="url(#pbcbb34fd84)" d="M 147.659143 299.00433 
L 262.350161 381.240398 
L 377.041179 381.263597 
L 491.732197 381.2715 
L 606.423215 381.2715 
L 721.114233 381.2715 
L 835.805251 381.2715 
L 950.496269 381.2715 
" style="fill:none;stroke:#5cb85c;stroke-linecap:square;"/>
   </g>
   <g id="line2d_38">
    <path clip-path="url(#pbcbb34fd84)" d="M 147.659143 311.167663 
L 262.350161 381.2715 
L 377.041179 381.2715 
L 491.732197 381.2715 
L 606.423215 381.252936 
L 721.114233 381.2715 
L 835.805251 381.2715 
L 950.496269 381.2715 
" style="fill:none;stroke:#5cb85c;stroke-linecap:square;"/>
   </g>
   <g id="line2d_39">
    <path clip-path="url(#pbcbb34fd84)" d="M 147.659143 293.522418 
L 262.350161 381.231656 
L 377.041179 381.2715 
L 491.732197 381.2715 
L 606.423215 381.2715 
L 721.114233 381.2715 
L 835.805251 381.2715 
L 950.496269 381.080798 
" style="fill:none;stroke:#5cb85c;stroke-linecap:square;"/>
   </g>
   <g id="line2d_40">
    <path clip-path="url(#pbcbb34fd84)" d="M 147.659143 288.171705 
L 262.350161 380.812548 
L 377.041179 381.2715 
L 491.732197 381.2715 
L 606.423215 381.2715 
L 721.114233 381.2715 
L 835.805251 381.2715 
L 950.496269 381.2715 
" style="fill:none;stroke:#5cb85c;stroke-linecap:square;"/>
   </g>
   <g id="line2d_41">
    <path clip-path="url(#pbcbb34fd84)" d="M 147.659143 293.448043 
L 262.350161 381.230574 
L 377.041179 381.2715 
L 491.732197 381.2715 
L 606.423215 381.2715 
L 721.114233 381.2715 
L 835.805251 381.2715 
L 950.496269 381.097834 
" style="fill:none;stroke:#5cb85c;stroke-linecap:square;"/>
   </g>
   <g id="line2d_42">
    <path clip-path="url(#pbcbb34fd84)" d="M 147.659143 288.679182 
L 262.350161 380.835793 
L 377.041179 381.2715 
L 491.732197 381.2715 
L 606.423215 381.2715 
L 721.114233 381.2715 
L 835.805251 381.2715 
L 950.496269 381.2715 
" style="fill:none;stroke:#5cb85c;stroke-linecap:square;"/>
   </g>
   <g id="line2d_43">
    <path clip-path="url(#pbcbb34fd84)" d="M 147.659143 293.589732 
L 262.350161 381.234249 
L 377.041179 381.2715 
L 491.732197 381.2715 
L 606.423215 381.2715 
L 721.114233 381.2715 
L 835.805251 381.2715 
L 950.496269 381.087628 
" style="fill:none;stroke:#5cb85c;stroke-linecap:square;"/>
   </g>
   <g id="line2d_44">
    <path clip-path="url(#pbcbb34fd84)" d="M 147.659143 288.519545 
L 262.350161 380.846164 
L 377.041179 381.2715 
L 491.732197 381.2715 
L 606.423215 381.2715 
L 721.114233 381.2715 
L 835.805251 381.2715 
L 950.496269 381.2715 
" style="fill:none;stroke:#5cb85c;stroke-linecap:square;"/>
   </g>
   <g id="line2d_45">
    <path clip-path="url(#pbcbb34fd84)" d="M 147.659143 293.474311 
L 262.350161 381.229018 
L 377.041179 381.2715 
L 491.732197 381.2715 
L 606.423215 381.2715 
L 721.114233 381.2715 
L 835.805251 381.2715 
L 950.496269 381.088177 
" style="fill:none;stroke:#5cb85c;stroke-linecap:square;"/>
   </g>
   <g id="line2d_46">
    <path clip-path="url(#pbcbb34fd84)" d="M 147.659143 288.312515 
L 262.350161 380.822526 
L 377.041179 381.2715 
L 491.732197 381.2715 
L 606.423215 381.2715 
L 721.114233 381.2715 
L 835.805251 381.2715 
L 950.496269 381.2715 
" style="fill:none;stroke:#5cb85c;stroke-linecap:square;"/>
   </g>
   <g id="line2d_47">
    <path clip-path="url(#pbcbb34fd84)" d="M 147.659143 293.665664 
L 262.350161 381.230384 
L 377.041179 381.2715 
L 491.732197 381.2715 
L 606.423215 381.2715 
L 721.114233 381.2715 
L 835.805251 381.2715 
L 950.496269 381.089526 
" style="fill:none;stroke:#5cb85c;stroke-linecap:square;"/>
   </g>
   <g id="line2d_48">
    <path clip-path="url(#pbcbb34fd84)" d="M 147.659143 288.841382 
L 262.350161 380.848371 
L 377.041179 381.2715 
L 491.732197 381.2715 
L 606.423215 381.2715 
L 721.114233 381.2715 
L 835.805251 381.2715 
L 950.496269 381.2715 
" style="fill:none;stroke:#5cb85c;stroke-linecap:square;"/>
   </g>
   <g id="line2d_49">
    <path clip-path="url(#pbcbb34fd84)" d="M 147.659143 293.50133 
L 262.350161 381.231876 
L 377.041179 381.2715 
L 491.732197 381.2715 
L 606.423215 381.2715 
L 721.114233 381.2715 
L 835.805251 381.2715 
L 950.496269 381.090469 
" style="fill:none;stroke:#5cb85c;stroke-linecap:square;"/>
   </g>
   <g id="line2d_50">
    <path clip-path="url(#pbcbb34fd84)" d="M 147.659143 288.880535 
L 262.350161 380.833272 
L 377.041179 381.2715 
L 491.732197 381.2715 
L 606.423215 381.2715 
L 721.114233 381.2715 
L 835.805251 381.2715 
L 950.496269 381.2715 
" style="fill:none;stroke:#5cb85c;stroke-linecap:square;"/>
   </g>
   <g id="line2d_51">
    <path clip-path="url(#pbcbb34fd84)" d="M 147.659143 293.42923 
L 262.350161 381.229811 
L 377.041179 381.2715 
L 491.732197 381.2715 
L 606.423215 381.2715 
L 721.114233 381.2715 
L 835.805251 381.2715 
L 950.496269 381.094673 
" style="fill:none;stroke:#5cb85c;stroke-linecap:square;"/>
   </g>
   <g id="line2d_52">
    <path clip-path="url(#pbcbb34fd84)" d="M 147.659143 288.775636 
L 262.350161 380.827194 
L 377.041179 381.2715 
L 491.732197 381.2715 
L 606.423215 381.2715 
L 721.114233 381.2715 
L 835.805251 381.2715 
L 950.496269 381.2715 
" style="fill:none;stroke:#5cb85c;stroke-linecap:square;"/>
   </g>
   <g id="line2d_53">
    <path clip-path="url(#pbcbb34fd84)" d="M 147.659143 293.742398 
L 262.350161 381.229391 
L 377.041179 381.2715 
L 491.732197 381.2715 
L 606.423215 381.2715 
L 721.114233 381.2715 
L 835.805251 381.2715 
L 950.496269 381.087078 
" style="fill:none;stroke:#5cb85c;stroke-linecap:square;"/>
   </g>
   <g id="line2d_54">
    <path clip-path="url(#pbcbb34fd84)" d="M 147.659143 288.456867 
L 262.350161 380.825368 
L 377.041179 381.2715 
L 491.732197 381.2715 
L 606.423215 381.2715 
L 721.114233 381.2715 
L 835.805251 381.2715 
L 950.496269 381.2715 
" style="fill:none;stroke:#5cb85c;stroke-linecap:square;"/>
   </g>
   <g id="line2d_55">
    <path clip-path="url(#pbcbb34fd84)" d="M 147.659143 292.436492 
L 262.350161 381.244771 
L 377.041179 381.2715 
L 491.732197 381.271388 
L 606.423215 381.2715 
L 721.114233 381.2715 
L 835.805251 381.2715 
L 950.496269 381.2715 
" style="fill:none;stroke:#5cb85c;stroke-linecap:square;"/>
   </g>
   <g id="line2d_56">
    <path clip-path="url(#pbcbb34fd84)" d="M 147.659143 294.856616 
L 262.350161 381.124491 
L 377.041179 381.046884 
L 491.732197 381.2715 
L 606.423215 381.2715 
L 721.114233 381.270816 
L 835.805251 381.2715 
L 950.496269 381.205973 
" style="fill:none;stroke:#5cb85c;stroke-linecap:square;"/>
   </g>
   <g id="line2d_57">
    <path clip-path="url(#pbcbb34fd84)" d="M 147.659143 292.057604 
L 262.350161 381.248044 
L 377.041179 381.2715 
L 491.732197 381.2715 
L 606.423215 381.2715 
L 721.114233 381.2715 
L 835.805251 381.2715 
L 950.496269 381.2715 
" style="fill:none;stroke:#5cb85c;stroke-linecap:square;"/>
   </g>
   <g id="line2d_58">
    <path clip-path="url(#pbcbb34fd84)" d="M 147.659143 296.619406 
L 262.350161 381.13631 
L 377.041179 381.072214 
L 491.732197 381.2715 
L 606.423215 381.2715 
L 721.114233 381.27108 
L 835.805251 381.2715 
L 950.496269 381.206004 
" style="fill:none;stroke:#5cb85c;stroke-linecap:square;"/>
   </g>
   <g id="line2d_59">
    <path clip-path="url(#pbcbb34fd84)" d="M 147.659143 291.651161 
L 262.350161 381.245104 
L 377.041179 381.2715 
L 491.732197 381.2715 
L 606.423215 381.2715 
L 721.114233 381.2715 
L 835.805251 381.2715 
L 950.496269 381.2715 
" style="fill:none;stroke:#5cb85c;stroke-linecap:square;"/>
   </g>
   <g id="line2d_60">
    <path clip-path="url(#pbcbb34fd84)" d="M 147.659143 295.134254 
L 262.350161 381.130796 
L 377.041179 381.058809 
L 491.732197 381.2715 
L 606.423215 381.2715 
L 721.114233 381.269798 
L 835.805251 381.2715 
L 950.496269 381.203701 
" style="fill:none;stroke:#5cb85c;stroke-linecap:square;"/>
   </g>
   <g id="line2d_61">
    <path clip-path="url(#pbcbb34fd84)" d="M 147.659143 291.904888 
L 262.350161 381.242189 
L 377.041179 381.2715 
L 491.732197 381.271254 
L 606.423215 381.2715 
L 721.114233 381.2715 
L 835.805251 381.2715 
L 950.496269 381.2715 
" style="fill:none;stroke:#5cb85c;stroke-linecap:square;"/>
   </g>
   <g id="line2d_62">
    <path clip-path="url(#pbcbb34fd84)" d="M 147.659143 295.188965 
L 262.350161 381.135573 
L 377.041179 381.044743 
L 491.732197 381.2715 
L 606.423215 381.2715 
L 721.114233 381.270611 
L 835.805251 381.2715 
L 950.496269 381.203028 
" style="fill:none;stroke:#5cb85c;stroke-linecap:square;"/>
   </g>
   <g id="line2d_63">
    <path clip-path="url(#pbcbb34fd84)" d="M 147.659143 291.922592 
L 262.350161 381.24375 
L 377.041179 381.2715 
L 491.732197 381.2715 
L 606.423215 381.2715 
L 721.114233 381.2715 
L 835.805251 381.2715 
L 950.496269 381.2715 
" style="fill:none;stroke:#5cb85c;stroke-linecap:square;"/>
   </g>
   <g id="line2d_64">
    <path clip-path="url(#pbcbb34fd84)" d="M 147.659143 296.16248 
L 262.350161 381.131932 
L 377.041179 381.052621 
L 491.732197 381.2715 
L 606.423215 381.2715 
L 721.114233 381.270139 
L 835.805251 381.2715 
L 950.496269 381.205799 
" style="fill:none;stroke:#5cb85c;stroke-linecap:square;"/>
   </g>
   <g id="line2d_65">
    <path clip-path="url(#pbcbb34fd84)" d="M 147.659143 291.762352 
L 262.350161 381.246279 
L 377.041179 381.2715 
L 491.732197 381.2715 
L 606.423215 381.2715 
L 721.114233 381.2715 
L 835.805251 381.2715 
L 950.496269 381.2715 
" style="fill:none;stroke:#5cb85c;stroke-linecap:square;"/>
   </g>
   <g id="line2d_66">
    <path clip-path="url(#pbcbb34fd84)" d="M 147.659143 295.912611 
L 262.350161 381.140095 
L 377.041179 381.060672 
L 491.732197 381.2715 
L 606.423215 381.2715 
L 721.114233 381.270181 
L 835.805251 381.2715 
L 950.496269 381.202631 
" style="fill:none;stroke:#5cb85c;stroke-linecap:square;"/>
   </g>
   <g id="line2d_67">
    <path clip-path="url(#pbcbb34fd84)" d="M 147.659143 291.53719 
L 262.350161 381.245374 
L 377.041179 381.2715 
L 491.732197 381.2715 
L 606.423215 381.2715 
L 721.114233 381.2715 
L 835.805251 381.2715 
L 950.496269 381.2715 
" style="fill:none;stroke:#5cb85c;stroke-linecap:square;"/>
   </g>
   <g id="line2d_68">
    <path clip-path="url(#pbcbb34fd84)" d="M 147.659143 295.540225 
L 262.350161 381.133723 
L 377.041179 381.068683 
L 491.732197 381.2715 
L 606.423215 381.2715 
L 721.114233 381.271235 
L 835.805251 381.2715 
L 950.496269 381.206992 
" style="fill:none;stroke:#5cb85c;stroke-linecap:square;"/>
   </g>
   <g id="line2d_69">
    <path clip-path="url(#pbcbb34fd84)" d="M 147.659143 292.742517 
L 262.350161 381.244553 
L 377.041179 381.2715 
L 491.732197 381.271387 
L 606.423215 381.2715 
L 721.114233 381.2715 
L 835.805251 381.2715 
L 950.496269 381.2715 
" style="fill:none;stroke:#5cb85c;stroke-linecap:square;"/>
   </g>
   <g id="line2d_70">
    <path clip-path="url(#pbcbb34fd84)" d="M 147.659143 294.215852 
L 262.350161 381.138894 
L 377.041179 381.042412 
L 491.732197 381.2715 
L 606.423215 381.2715 
L 721.114233 381.269235 
L 835.805251 381.2715 
L 950.496269 381.203555 
" style="fill:none;stroke:#5cb85c;stroke-linecap:square;"/>
   </g>
   <g id="line2d_71">
    <path clip-path="url(#pbcbb34fd84)" d="M 147.659143 306.020737 
L 262.350161 381.2715 
L 377.041179 381.2715 
L 491.732197 381.245783 
L 606.423215 381.2715 
L 721.114233 381.271387 
L 835.805251 381.2715 
L 950.496269 381.2715 
" style="fill:none;stroke:#5cb85c;stroke-linecap:square;"/>
   </g>
   <g id="line2d_72">
    <path clip-path="url(#pbcbb34fd84)" d="M 147.659143 302.004401 
L 262.350161 380.594583 
L 377.041179 381.199263 
L 491.732197 381.2715 
L 606.423215 381.2715 
L 721.114233 380.691936 
L 835.805251 381.2715 
L 950.496269 381.2715 
" style="fill:none;stroke:#5cb85c;stroke-linecap:square;"/>
   </g>
   <g id="line2d_73">
    <path clip-path="url(#pbcbb34fd84)" d="M 147.659143 306.383172 
L 262.350161 381.2715 
L 377.041179 381.2715 
L 491.732197 381.245563 
L 606.423215 381.2715 
L 721.114233 381.2715 
L 835.805251 381.2715 
L 950.496269 381.2715 
" style="fill:none;stroke:#5cb85c;stroke-linecap:square;"/>
   </g>
   <g id="line2d_74">
    <path clip-path="url(#pbcbb34fd84)" d="M 147.659143 302.235862 
L 262.350161 380.588477 
L 377.041179 381.201022 
L 491.732197 381.2715 
L 606.423215 381.2715 
L 721.114233 380.690568 
L 835.805251 381.2715 
L 950.496269 381.2715 
" style="fill:none;stroke:#5cb85c;stroke-linecap:square;"/>
   </g>
   <g id="line2d_75">
    <path clip-path="url(#pbcbb34fd84)" d="M 147.659143 306.955865 
L 262.350161 381.2715 
L 377.041179 381.2715 
L 491.732197 381.243823 
L 606.423215 381.2715 
L 721.114233 381.271392 
L 835.805251 381.2715 
L 950.496269 381.2715 
" style="fill:none;stroke:#5cb85c;stroke-linecap:square;"/>
   </g>
   <g id="line2d_76">
    <path clip-path="url(#pbcbb34fd84)" d="M 147.659143 302.247255 
L 262.350161 380.58597 
L 377.041179 381.198702 
L 491.732197 381.2715 
L 606.423215 381.2715 
L 721.114233 380.68413 
L 835.805251 381.2715 
L 950.496269 381.2715 
" style="fill:none;stroke:#5cb85c;stroke-linecap:square;"/>
   </g>
   <g id="line2d_77">
    <path clip-path="url(#pbcbb34fd84)" d="M 147.659143 305.958804 
L 262.350161 381.2715 
L 377.041179 381.2715 
L 491.732197 381.242283 
L 606.423215 381.2715 
L 721.114233 381.271387 
L 835.805251 381.2715 
L 950.496269 381.2715 
" style="fill:none;stroke:#5cb85c;stroke-linecap:square;"/>
   </g>
   <g id="line2d_78">
    <path clip-path="url(#pbcbb34fd84)" d="M 147.659143 301.947271 
L 262.350161 380.599016 
L 377.041179 381.199353 
L 491.732197 381.2715 
L 606.423215 381.2715 
L 721.114233 380.683242 
L 835.805251 381.2715 
L 950.496269 381.2715 
" style="fill:none;stroke:#5cb85c;stroke-linecap:square;"/>
   </g>
   <g id="line2d_79">
    <path clip-path="url(#pbcbb34fd84)" d="M 147.659143 306.74206 
L 262.350161 381.2715 
L 377.041179 381.2715 
L 491.732197 381.245973 
L 606.423215 381.2715 
L 721.114233 381.27106 
L 835.805251 381.2715 
L 950.496269 381.2715 
" style="fill:none;stroke:#5cb85c;stroke-linecap:square;"/>
   </g>
   <g id="line2d_80">
    <path clip-path="url(#pbcbb34fd84)" d="M 147.659143 302.39913 
L 262.350161 380.569994 
L 377.041179 381.204259 
L 491.732197 381.2715 
L 606.423215 381.2715 
L 721.114233 380.697256 
L 835.805251 381.2715 
L 950.496269 381.2715 
" style="fill:none;stroke:#5cb85c;stroke-linecap:square;"/>
   </g>
   <g id="line2d_81">
    <path clip-path="url(#pbcbb34fd84)" d="M 147.659143 306.579924 
L 262.350161 381.2715 
L 377.041179 381.2715 
L 491.732197 381.245227 
L 606.423215 381.2715 
L 721.114233 381.271047 
L 835.805251 381.2715 
L 950.496269 381.2715 
" style="fill:none;stroke:#5cb85c;stroke-linecap:square;"/>
   </g>
   <g id="line2d_82">
    <path clip-path="url(#pbcbb34fd84)" d="M 147.659143 302.163349 
L 262.350161 380.577873 
L 377.041179 381.207302 
L 491.732197 381.2715 
L 606.423215 381.2715 
L 721.114233 380.68772 
L 835.805251 381.2715 
L 950.496269 381.2715 
" style="fill:none;stroke:#5cb85c;stroke-linecap:square;"/>
   </g>
   <g id="line2d_83">
    <path clip-path="url(#pbcbb34fd84)" d="M 147.659143 304.729937 
L 262.350161 381.2715 
L 377.041179 381.2715 
L 491.732197 381.24428 
L 606.423215 381.2715 
L 721.114233 381.2715 
L 835.805251 381.2715 
L 950.496269 381.2715 
" style="fill:none;stroke:#5cb85c;stroke-linecap:square;"/>
   </g>
   <g id="line2d_84">
    <path clip-path="url(#pbcbb34fd84)" d="M 147.659143 301.481239 
L 262.350161 380.571759 
L 377.041179 381.195884 
L 491.732197 381.2715 
L 606.423215 381.2715 
L 721.114233 380.675948 
L 835.805251 381.2715 
L 950.496269 381.2715 
" style="fill:none;stroke:#5cb85c;stroke-linecap:square;"/>
   </g>
   <g id="line2d_85">
    <path clip-path="url(#pbcbb34fd84)" d="M 147.659143 306.802555 
L 262.350161 381.2715 
L 377.041179 381.2715 
L 491.732197 381.246124 
L 606.423215 381.2715 
L 721.114233 381.2715 
L 835.805251 381.2715 
L 950.496269 381.2715 
" style="fill:none;stroke:#5cb85c;stroke-linecap:square;"/>
   </g>
   <g id="line2d_86">
    <path clip-path="url(#pbcbb34fd84)" d="M 147.659143 302.143822 
L 262.350161 380.572511 
L 377.041179 381.203389 
L 491.732197 381.2715 
L 606.423215 381.2715 
L 721.114233 380.694138 
L 835.805251 381.2715 
L 950.496269 381.2715 
" style="fill:none;stroke:#5cb85c;stroke-linecap:square;"/>
   </g>
   <g id="line2d_87">
    <path clip-path="url(#pbcbb34fd84)" d="M 147.659143 296.794535 
L 262.350161 376.155498 
L 377.041179 381.2715 
L 491.732197 381.2715 
L 606.423215 381.2715 
L 721.114233 381.269639 
L 835.805251 381.2715 
L 950.496269 381.2715 
" style="fill:none;stroke:#5cb85c;stroke-linecap:square;"/>
   </g>
   <g id="line2d_88">
    <path clip-path="url(#pbcbb34fd84)" d="M 147.659143 288.910442 
L 262.350161 366.533326 
L 377.041179 381.2715 
L 491.732197 381.2715 
L 606.423215 381.2715 
L 721.114233 381.26502 
L 835.805251 381.2715 
L 950.496269 381.185814 
" style="fill:none;stroke:#5cb85c;stroke-linecap:square;"/>
   </g>
   <g id="line2d_89">
    <path clip-path="url(#pbcbb34fd84)" d="M 147.659143 296.550129 
L 262.350161 376.100818 
L 377.041179 381.2715 
L 491.732197 381.2715 
L 606.423215 381.2715 
L 721.114233 381.268564 
L 835.805251 381.2715 
L 950.496269 381.2715 
" style="fill:none;stroke:#5cb85c;stroke-linecap:square;"/>
   </g>
   <g id="line2d_90">
    <path clip-path="url(#pbcbb34fd84)" d="M 147.659143 288.671043 
L 262.350161 366.488531 
L 377.041179 381.2715 
L 491.732197 381.2715 
L 606.423215 381.2715 
L 721.114233 381.264783 
L 835.805251 381.2715 
L 950.496269 381.180777 
" style="fill:none;stroke:#5cb85c;stroke-linecap:square;"/>
   </g>
   <g id="line2d_91">
    <path clip-path="url(#pbcbb34fd84)" d="M 147.659143 296.332628 
L 262.350161 376.176584 
L 377.041179 381.2715 
L 491.732197 381.2715 
L 606.423215 381.2715 
L 721.114233 381.26916 
L 835.805251 381.2715 
L 950.496269 381.2715 
" style="fill:none;stroke:#5cb85c;stroke-linecap:square;"/>
   </g>
   <g id="line2d_92">
    <path clip-path="url(#pbcbb34fd84)" d="M 147.659143 288.528522 
L 262.350161 366.479007 
L 377.041179 381.2715 
L 491.732197 381.2715 
L 606.423215 381.2715 
L 721.114233 381.263902 
L 835.805251 381.2715 
L 950.496269 381.176371 
" style="fill:none;stroke:#5cb85c;stroke-linecap:square;"/>
   </g>
   <g id="line2d_93">
    <path clip-path="url(#pbcbb34fd84)" d="M 147.659143 296.902996 
L 262.350161 376.280763 
L 377.041179 381.2715 
L 491.732197 381.2715 
L 606.423215 381.2715 
L 721.114233 381.268732 
L 835.805251 381.2715 
L 950.496269 381.2715 
" style="fill:none;stroke:#5cb85c;stroke-linecap:square;"/>
   </g>
   <g id="line2d_94">
    <path clip-path="url(#pbcbb34fd84)" d="M 147.659143 288.863578 
L 262.350161 366.556629 
L 377.041179 381.2715 
L 491.732197 381.2715 
L 606.423215 381.2715 
L 721.114233 381.264873 
L 835.805251 381.2715 
L 950.496269 381.182393 
" style="fill:none;stroke:#5cb85c;stroke-linecap:square;"/>
   </g>
   <g id="line2d_95">
    <path clip-path="url(#pbcbb34fd84)" d="M 147.659143 296.686151 
L 262.350161 376.171023 
L 377.041179 381.2715 
L 491.732197 381.2715 
L 606.423215 381.2715 
L 721.114233 381.268345 
L 835.805251 381.2715 
L 950.496269 381.2715 
" style="fill:none;stroke:#5cb85c;stroke-linecap:square;"/>
   </g>
   <g id="line2d_96">
    <path clip-path="url(#pbcbb34fd84)" d="M 147.659143 288.792341 
L 262.350161 366.482436 
L 377.041179 381.2715 
L 491.732197 381.2715 
L 606.423215 381.2715 
L 721.114233 381.264205 
L 835.805251 381.2715 
L 950.496269 381.177867 
" style="fill:none;stroke:#5cb85c;stroke-linecap:square;"/>
   </g>
   <g id="line2d_97">
    <path clip-path="url(#pbcbb34fd84)" d="M 147.659143 296.393574 
L 262.350161 376.176366 
L 377.041179 381.2715 
L 491.732197 381.2715 
L 606.423215 381.2715 
L 721.114233 381.268812 
L 835.805251 381.2715 
L 950.496269 381.2715 
" style="fill:none;stroke:#5cb85c;stroke-linecap:square;"/>
   </g>
   <g id="line2d_98">
    <path clip-path="url(#pbcbb34fd84)" d="M 147.659143 288.490494 
L 262.350161 366.479033 
L 377.041179 381.2715 
L 491.732197 381.2715 
L 606.423215 381.2715 
L 721.114233 381.26574 
L 835.805251 381.2715 
L 950.496269 381.182838 
" style="fill:none;stroke:#5cb85c;stroke-linecap:square;"/>
   </g>
   <g id="line2d_99">
    <path clip-path="url(#pbcbb34fd84)" d="M 147.659143 296.784766 
L 262.350161 376.142392 
L 377.041179 381.2715 
L 491.732197 381.2715 
L 606.423215 381.2715 
L 721.114233 381.268854 
L 835.805251 381.2715 
L 950.496269 381.2715 
" style="fill:none;stroke:#5cb85c;stroke-linecap:square;"/>
   </g>
   <g id="line2d_100">
    <path clip-path="url(#pbcbb34fd84)" d="M 147.659143 288.849189 
L 262.350161 366.587885 
L 377.041179 381.2715 
L 491.732197 381.2715 
L 606.423215 381.2715 
L 721.114233 381.264871 
L 835.805251 381.2715 
L 950.496269 381.187376 
" style="fill:none;stroke:#5cb85c;stroke-linecap:square;"/>
   </g>
   <g id="line2d_101">
    <path clip-path="url(#pbcbb34fd84)" d="M 147.659143 279.509184 
L 262.350161 363.422582 
L 377.041179 381.24848 
L 491.732197 381.2715 
L 606.423215 381.268109 
L 721.114233 381.2715 
L 835.805251 381.2715 
L 950.496269 380.555737 
" style="fill:none;stroke:#5cb85c;stroke-linecap:square;"/>
   </g>
   <g id="line2d_102">
    <path clip-path="url(#pbcbb34fd84)" d="M 147.659143 280.103441 
L 262.350161 369.395223 
L 377.041179 381.2715 
L 491.732197 381.270749 
L 606.423215 381.2715 
L 721.114233 381.268646 
L 835.805251 381.2715 
L 950.496269 380.21993 
" style="fill:none;stroke:#5cb85c;stroke-linecap:square;"/>
   </g>
   <g id="line2d_103">
    <path clip-path="url(#pbcbb34fd84)" d="M 147.659143 279.325847 
L 262.350161 363.346334 
L 377.041179 381.245922 
L 491.732197 381.2715 
L 606.423215 381.268622 
L 721.114233 381.2715 
L 835.805251 381.2715 
L 950.496269 380.54939 
" style="fill:none;stroke:#5cb85c;stroke-linecap:square;"/>
   </g>
   <g id="line2d_104">
    <path clip-path="url(#pbcbb34fd84)" d="M 147.659143 280.251885 
L 262.350161 369.435355 
L 377.041179 381.2715 
L 491.732197 381.270829 
L 606.423215 381.2715 
L 721.114233 381.269487 
L 835.805251 381.2715 
L 950.496269 380.195218 
" style="fill:none;stroke:#5cb85c;stroke-linecap:square;"/>
   </g>
   <g id="line2d_105">
    <path clip-path="url(#pbcbb34fd84)" d="M 147.659143 279.319082 
L 262.350161 363.394417 
L 377.041179 381.244371 
L 491.732197 381.2715 
L 606.423215 381.268188 
L 721.114233 381.2715 
L 835.805251 381.2715 
L 950.496269 380.556518 
" style="fill:none;stroke:#5cb85c;stroke-linecap:square;"/>
   </g>
   <g id="line2d_106">
    <path clip-path="url(#pbcbb34fd84)" d="M 147.659143 280.287611 
L 262.350161 369.364634 
L 377.041179 381.2715 
L 491.732197 381.270701 
L 606.423215 381.2715 
L 721.114233 381.267772 
L 835.805251 381.2715 
L 950.496269 380.194274 
" style="fill:none;stroke:#5cb85c;stroke-linecap:square;"/>
   </g>
   <g id="line2d_107">
    <path clip-path="url(#pbcbb34fd84)" d="M 147.659143 278.449727 
L 262.350161 363.332119 
L 377.041179 381.250408 
L 491.732197 381.2715 
L 606.423215 381.267963 
L 721.114233 381.2715 
L 835.805251 381.2715 
L 950.496269 380.533949 
" style="fill:none;stroke:#5cb85c;stroke-linecap:square;"/>
   </g>
   <g id="line2d_108">
    <path clip-path="url(#pbcbb34fd84)" d="M 147.659143 279.708975 
L 262.350161 369.285585 
L 377.041179 381.2715 
L 491.732197 381.270723 
L 606.423215 381.2715 
L 721.114233 381.268615 
L 835.805251 381.2715 
L 950.496269 380.184131 
" style="fill:none;stroke:#5cb85c;stroke-linecap:square;"/>
   </g>
   <g id="line2d_109">
    <path clip-path="url(#pbcbb34fd84)" d="M 147.659143 279.684489 
L 262.350161 363.417094 
L 377.041179 381.244076 
L 491.732197 381.2715 
L 606.423215 381.269603 
L 721.114233 381.2715 
L 835.805251 381.2715 
L 950.496269 380.562277 
" style="fill:none;stroke:#5cb85c;stroke-linecap:square;"/>
   </g>
   <g id="line2d_110">
    <path clip-path="url(#pbcbb34fd84)" d="M 147.659143 280.206943 
L 262.350161 369.404134 
L 377.041179 381.2715 
L 491.732197 381.270775 
L 606.423215 381.2715 
L 721.114233 381.269179 
L 835.805251 381.2715 
L 950.496269 380.206867 
" style="fill:none;stroke:#5cb85c;stroke-linecap:square;"/>
   </g>
   <g id="line2d_111">
    <path clip-path="url(#pbcbb34fd84)" d="M 147.659143 280.260072 
L 262.350161 363.533173 
L 377.041179 381.251967 
L 491.732197 381.2715 
L 606.423215 381.267199 
L 721.114233 381.2715 
L 835.805251 381.2715 
L 950.496269 380.599671 
" style="fill:none;stroke:#5cb85c;stroke-linecap:square;"/>
   </g>
   <g id="line2d_112">
    <path clip-path="url(#pbcbb34fd84)" d="M 147.659143 281.132868 
L 262.350161 369.590189 
L 377.041179 381.2715 
L 491.732197 381.270901 
L 606.423215 381.2715 
L 721.114233 381.268058 
L 835.805251 381.2715 
L 950.496269 380.253561 
" style="fill:none;stroke:#5cb85c;stroke-linecap:square;"/>
   </g>
   <g id="line2d_113">
    <path clip-path="url(#pbcbb34fd84)" d="M 147.659143 279.808559 
L 262.350161 363.515969 
L 377.041179 381.251013 
L 491.732197 381.2715 
L 606.423215 381.268628 
L 721.114233 381.2715 
L 835.805251 381.2715 
L 950.496269 380.576665 
" style="fill:none;stroke:#5cb85c;stroke-linecap:square;"/>
   </g>
   <g id="line2d_114">
    <path clip-path="url(#pbcbb34fd84)" d="M 147.659143 280.729453 
L 262.350161 369.605919 
L 377.041179 381.2715 
L 491.732197 381.27134 
L 606.423215 381.2715 
L 721.114233 381.269575 
L 835.805251 381.2715 
L 950.496269 380.224245 
" style="fill:none;stroke:#5cb85c;stroke-linecap:square;"/>
   </g>
   <g id="line2d_115">
    <path clip-path="url(#pbcbb34fd84)" d="M 147.659143 279.088266 
L 262.350161 363.5219 
L 377.041179 381.249357 
L 491.732197 381.2715 
L 606.423215 381.267671 
L 721.114233 381.2715 
L 835.805251 381.2715 
L 950.496269 380.587901 
" style="fill:none;stroke:#5cb85c;stroke-linecap:square;"/>
   </g>
   <g id="line2d_116">
    <path clip-path="url(#pbcbb34fd84)" d="M 147.659143 280.419262 
L 262.350161 369.441666 
L 377.041179 381.2715 
L 491.732197 381.2715 
L 606.423215 381.2715 
L 721.114233 381.266732 
L 835.805251 381.2715 
L 950.496269 380.234551 
" style="fill:none;stroke:#5cb85c;stroke-linecap:square;"/>
   </g>
   <g id="line2d_117">
    <path clip-path="url(#pbcbb34fd84)" d="M 147.659143 286.78777 
L 262.350161 367.561759 
L 377.041179 381.168245 
L 491.732197 381.026868 
L 606.423215 381.2715 
L 721.114233 381.2715 
L 835.805251 381.2715 
L 950.496269 381.068271 
" style="fill:none;stroke:#5cb85c;stroke-linecap:square;"/>
   </g>
   <g id="line2d_118">
    <path clip-path="url(#pbcbb34fd84)" d="M 147.659143 277.044572 
L 262.350161 366.323176 
L 377.041179 381.27043 
L 491.732197 381.2715 
L 606.423215 381.2715 
L 721.114233 381.225201 
L 835.805251 381.262936 
L 950.496269 381.128321 
" style="fill:none;stroke:#5cb85c;stroke-linecap:square;"/>
   </g>
   <g id="line2d_119">
    <path clip-path="url(#pbcbb34fd84)" d="M 147.659143 287.301137 
L 262.350161 367.8087 
L 377.041179 381.157667 
L 491.732197 381.030164 
L 606.423215 381.2715 
L 721.114233 381.2715 
L 835.805251 381.2715 
L 950.496269 381.07299 
" style="fill:none;stroke:#5cb85c;stroke-linecap:square;"/>
   </g>
   <g id="line2d_120">
    <path clip-path="url(#pbcbb34fd84)" d="M 147.659143 277.148619 
L 262.350161 366.461093 
L 377.041179 381.270463 
L 491.732197 381.2715 
L 606.423215 381.2715 
L 721.114233 381.228245 
L 835.805251 381.265723 
L 950.496269 381.12455 
" style="fill:none;stroke:#5cb85c;stroke-linecap:square;"/>
   </g>
   <g id="line2d_121">
    <path clip-path="url(#pbcbb34fd84)" d="M 147.659143 286.947048 
L 262.350161 367.640388 
L 377.041179 381.16315 
L 491.732197 381.031754 
L 606.423215 381.2715 
L 721.114233 381.2715 
L 835.805251 381.2715 
L 950.496269 381.075459 
" style="fill:none;stroke:#5cb85c;stroke-linecap:square;"/>
   </g>
   <g id="line2d_122">
    <path clip-path="url(#pbcbb34fd84)" d="M 147.659143 276.882991 
L 262.350161 366.316083 
L 377.041179 381.270605 
L 491.732197 381.2715 
L 606.423215 381.2715 
L 721.114233 381.22289 
L 835.805251 381.266579 
L 950.496269 381.128056 
" style="fill:none;stroke:#5cb85c;stroke-linecap:square;"/>
   </g>
   <g id="line2d_123">
    <path clip-path="url(#pbcbb34fd84)" d="M 147.659143 286.508503 
L 262.350161 367.490504 
L 377.041179 381.166421 
L 491.732197 381.036323 
L 606.423215 381.2715 
L 721.114233 381.2715 
L 835.805251 381.2715 
L 950.496269 381.071863 
" style="fill:none;stroke:#5cb85c;stroke-linecap:square;"/>
   </g>
   <g id="line2d_124">
    <path clip-path="url(#pbcbb34fd84)" d="M 147.659143 276.756995 
L 262.350161 366.223008 
L 377.041179 381.270821 
L 491.732197 381.2715 
L 606.423215 381.2715 
L 721.114233 381.227911 
L 835.805251 381.266068 
L 950.496269 381.123351 
" style="fill:none;stroke:#5cb85c;stroke-linecap:square;"/>
   </g>
   <g id="line2d_125">
    <path clip-path="url(#pbcbb34fd84)" d="M 147.659143 286.682987 
L 262.350161 367.698667 
L 377.041179 381.164494 
L 491.732197 381.030804 
L 606.423215 381.2715 
L 721.114233 381.2715 
L 835.805251 381.2715 
L 950.496269 381.055024 
" style="fill:none;stroke:#5cb85c;stroke-linecap:square;"/>
   </g>
   <g id="line2d_126">
    <path clip-path="url(#pbcbb34fd84)" d="M 147.659143 276.709421 
L 262.350161 366.28448 
L 377.041179 381.270629 
L 491.732197 381.2715 
L 606.423215 381.2715 
L 721.114233 381.226666 
L 835.805251 381.265261 
L 950.496269 381.123796 
" style="fill:none;stroke:#5cb85c;stroke-linecap:square;"/>
   </g>
   <g id="line2d_127">
    <path clip-path="url(#pbcbb34fd84)" d="M 147.659143 286.715295 
L 262.350161 367.578189 
L 377.041179 381.160765 
L 491.732197 381.02711 
L 606.423215 381.2715 
L 721.114233 381.2715 
L 835.805251 381.2715 
L 950.496269 381.073616 
" style="fill:none;stroke:#5cb85c;stroke-linecap:square;"/>
   </g>
   <g id="line2d_128">
    <path clip-path="url(#pbcbb34fd84)" d="M 147.659143 277.029203 
L 262.350161 366.323394 
L 377.041179 381.270934 
L 491.732197 381.2715 
L 606.423215 381.2715 
L 721.114233 381.224845 
L 835.805251 381.265562 
L 950.496269 381.129699 
" style="fill:none;stroke:#5cb85c;stroke-linecap:square;"/>
   </g>
   <g id="line2d_129">
    <path clip-path="url(#pbcbb34fd84)" d="M 147.659143 286.889691 
L 262.350161 367.59055 
L 377.041179 381.163398 
L 491.732197 381.024014 
L 606.423215 381.2715 
L 721.114233 381.2715 
L 835.805251 381.2715 
L 950.496269 381.071767 
" style="fill:none;stroke:#5cb85c;stroke-linecap:square;"/>
   </g>
   <g id="line2d_130">
    <path clip-path="url(#pbcbb34fd84)" d="M 147.659143 276.755259 
L 262.350161 366.346853 
L 377.041179 381.271207 
L 491.732197 381.2715 
L 606.423215 381.2715 
L 721.114233 381.224122 
L 835.805251 381.263139 
L 950.496269 381.122911 
" style="fill:none;stroke:#5cb85c;stroke-linecap:square;"/>
   </g>
   <g id="line2d_131">
    <path clip-path="url(#pbcbb34fd84)" d="M 147.659143 286.802803 
L 262.350161 367.588016 
L 377.041179 381.171607 
L 491.732197 381.029317 
L 606.423215 381.2715 
L 721.114233 381.2715 
L 835.805251 381.2715 
L 950.496269 381.055854 
" style="fill:none;stroke:#5cb85c;stroke-linecap:square;"/>
   </g>
   <g id="line2d_132">
    <path clip-path="url(#pbcbb34fd84)" d="M 147.659143 276.669556 
L 262.350161 366.257713 
L 377.041179 381.270691 
L 491.732197 381.2715 
L 606.423215 381.2715 
L 721.114233 381.223952 
L 835.805251 381.266325 
L 950.496269 381.12465 
" style="fill:none;stroke:#5cb85c;stroke-linecap:square;"/>
   </g>
   <g id="line2d_133">
    <path clip-path="url(#pbcbb34fd84)" d="M 32.968125 381.2715 
L 990.638125 381.2715 
" style="fill:none;stroke:#dedede;stroke-linecap:square;stroke-width:2;"/>
   </g>
   <g id="text_18">
    <!-- FastQC: Per Base N Content -->
    <defs>
     <path d="M 9.8125 72.90625 
L 51.703125 72.90625 
L 51.703125 64.59375 
L 19.671875 64.59375 
L 19.671875 43.109375 
L 48.578125 43.109375 
L 48.578125 34.8125 
L 19.671875 34.8125 
L 19.671875 0 
L 9.8125 0 
z
" id="DejaVuSans-46"/>
     <path d="M 39.40625 66.21875 
Q 28.65625 66.21875 22.328125 58.203125 
Q 16.015625 50.203125 16.015625 36.375 
Q 16.015625 22.609375 22.328125 14.59375 
Q 28.65625 6.59375 39.40625 6.59375 
Q 50.140625 6.59375 56.421875 14.59375 
Q 62.703125 22.609375 62.703125 36.375 
Q 62.703125 50.203125 56.421875 58.203125 
Q 50.140625 66.21875 39.40625 66.21875 
z
M 53.21875 1.3125 
L 66.21875 -12.890625 
L 54.296875 -12.890625 
L 43.5 -1.21875 
Q 41.890625 -1.3125 41.03125 -1.359375 
Q 40.1875 -1.421875 39.40625 -1.421875 
Q 24.03125 -1.421875 14.8125 8.859375 
Q 5.609375 19.140625 5.609375 36.375 
Q 5.609375 53.65625 14.8125 63.9375 
Q 24.03125 74.21875 39.40625 74.21875 
Q 54.734375 74.21875 63.90625 63.9375 
Q 73.09375 53.65625 73.09375 36.375 
Q 73.09375 23.6875 67.984375 14.640625 
Q 62.890625 5.609375 53.21875 1.3125 
z
" id="DejaVuSans-51"/>
     <path d="M 11.71875 12.40625 
L 22.015625 12.40625 
L 22.015625 0 
L 11.71875 0 
z
M 11.71875 51.703125 
L 22.015625 51.703125 
L 22.015625 39.3125 
L 11.71875 39.3125 
z
" id="DejaVuSans-3a"/>
     <path d="M 19.671875 34.8125 
L 19.671875 8.109375 
L 35.5 8.109375 
Q 43.453125 8.109375 47.28125 11.40625 
Q 51.125 14.703125 51.125 21.484375 
Q 51.125 28.328125 47.28125 31.5625 
Q 43.453125 34.8125 35.5 34.8125 
z
M 19.671875 64.796875 
L 19.671875 42.828125 
L 34.28125 42.828125 
Q 41.5 42.828125 45.03125 45.53125 
Q 48.578125 48.25 48.578125 53.8125 
Q 48.578125 59.328125 45.03125 62.0625 
Q 41.5 64.796875 34.28125 64.796875 
z
M 9.8125 72.90625 
L 35.015625 72.90625 
Q 46.296875 72.90625 52.390625 68.21875 
Q 58.5 63.53125 58.5 54.890625 
Q 58.5 48.1875 55.375 44.234375 
Q 52.25 40.28125 46.1875 39.3125 
Q 53.46875 37.75 57.5 32.78125 
Q 61.53125 27.828125 61.53125 20.40625 
Q 61.53125 10.640625 54.890625 5.3125 
Q 48.25 0 35.984375 0 
L 9.8125 0 
z
" id="DejaVuSans-42"/>
    </defs>
    <g transform="translate(399.944375 19.3575)scale(0.16 -0.16)">
     <use xlink:href="#DejaVuSans-46"/>
     <use x="57.378906" xlink:href="#DejaVuSans-61"/>
     <use x="118.658203" xlink:href="#DejaVuSans-73"/>
     <use x="170.757812" xlink:href="#DejaVuSans-74"/>
     <use x="209.966797" xlink:href="#DejaVuSans-51"/>
     <use x="288.677734" xlink:href="#DejaVuSans-43"/>
     <use x="358.501953" xlink:href="#DejaVuSans-3a"/>
     <use x="392.193359" xlink:href="#DejaVuSans-20"/>
     <use x="423.980469" xlink:href="#DejaVuSans-50"/>
     <use x="484.236328" xlink:href="#DejaVuSans-65"/>
     <use x="545.759766" xlink:href="#DejaVuSans-72"/>
     <use x="586.873047" xlink:href="#DejaVuSans-20"/>
     <use x="618.660156" xlink:href="#DejaVuSans-42"/>
     <use x="687.263672" xlink:href="#DejaVuSans-61"/>
     <use x="748.542969" xlink:href="#DejaVuSans-73"/>
     <use x="800.642578" xlink:href="#DejaVuSans-65"/>
     <use x="862.166016" xlink:href="#DejaVuSans-20"/>
     <use x="893.953125" xlink:href="#DejaVuSans-4e"/>
     <use x="968.757812" xlink:href="#DejaVuSans-20"/>
     <use x="1000.544922" xlink:href="#DejaVuSans-43"/>
     <use x="1070.369141" xlink:href="#DejaVuSans-6f"/>
     <use x="1131.550781" xlink:href="#DejaVuSans-6e"/>
     <use x="1194.929688" xlink:href="#DejaVuSans-74"/>
     <use x="1234.138672" xlink:href="#DejaVuSans-65"/>
     <use x="1295.662109" xlink:href="#DejaVuSans-6e"/>
     <use x="1359.041016" xlink:href="#DejaVuSans-74"/>
    </g>
   </g>
  </g>
 </g>
 <defs>
  <clipPath id="pbcbb34fd84">
   <rect height="344.68" width="957.67" x="32.968125" y="36.5915"/>
  </clipPath>
 </defs>
</svg>
