<?xml version="1.0" encoding="utf-8" standalone="no"?>
<!DOCTYPE svg PUBLIC "-//W3C//DTD SVG 1.1//EN"
  "http://www.w3.org/Graphics/SVG/1.1/DTD/svg11.dtd">
<!-- Created with matplotlib (http://matplotlib.org/) -->
<svg height="364.923084pt" version="1.1" viewBox="0 0 1000.415625 364.923084" width="1000.415625pt" xmlns="http://www.w3.org/2000/svg" xmlns:xlink="http://www.w3.org/1999/xlink">
 <defs>
  <style type="text/css">
*{stroke-linecap:butt;stroke-linejoin:round;}
  </style>
 </defs>
 <g id="figure_1">
  <g id="patch_1">
   <path d="M 0 364.923084 
L 1000.415625 364.923084 
L 1000.415625 0 
L 0 0 
z
" style="fill:#ffffff;"/>
  </g>
  <g id="axes_1">
   <g id="patch_2">
    <path d="M 40.600625 302.41566 
L 985.580625 302.41566 
L 985.580625 32.83646 
L 40.600625 32.83646 
z
" style="fill:#ffffff;"/>
   </g>
   <g id="matplotlib.axis_1">
    <g id="xtick_1">
     <g id="text_1">
      <!-- 0 -->
      <defs>
       <path d="M 31.78125 66.40625 
Q 24.171875 66.40625 20.328125 58.90625 
Q 16.5 51.421875 16.5 36.375 
Q 16.5 21.390625 20.328125 13.890625 
Q 24.171875 6.390625 31.78125 6.390625 
Q 39.453125 6.390625 43.28125 13.890625 
Q 47.125 21.390625 47.125 36.375 
Q 47.125 51.421875 43.28125 58.90625 
Q 39.453125 66.40625 31.78125 66.40625 
z
M 31.78125 74.21875 
Q 44.046875 74.21875 50.515625 64.515625 
Q 56.984375 54.828125 56.984375 36.375 
Q 56.984375 17.96875 50.515625 8.265625 
Q 44.046875 -1.421875 31.78125 -1.421875 
Q 19.53125 -1.421875 13.0625 8.265625 
Q 6.59375 17.96875 6.59375 36.375 
Q 6.59375 54.828125 13.0625 64.515625 
Q 19.53125 74.21875 31.78125 74.21875 
z
" id="DejaVuSans-30"/>
      </defs>
      <g transform="translate(38.055625 315.49441)scale(0.08 -0.08)">
       <use xlink:href="#DejaVuSans-30"/>
      </g>
     </g>
    </g>
    <g id="xtick_2">
     <g id="text_2">
      <!-- 20 -->
      <defs>
       <path d="M 19.1875 8.296875 
L 53.609375 8.296875 
L 53.609375 0 
L 7.328125 0 
L 7.328125 8.296875 
Q 12.9375 14.109375 22.625 23.890625 
Q 32.328125 33.6875 34.8125 36.53125 
Q 39.546875 41.84375 41.421875 45.53125 
Q 43.3125 49.21875 43.3125 52.78125 
Q 43.3125 58.59375 39.234375 62.25 
Q 35.15625 65.921875 28.609375 65.921875 
Q 23.96875 65.921875 18.8125 64.3125 
Q 13.671875 62.703125 7.8125 59.421875 
L 7.8125 69.390625 
Q 13.765625 71.78125 18.9375 73 
Q 24.125 74.21875 28.421875 74.21875 
Q 39.75 74.21875 46.484375 68.546875 
Q 53.21875 62.890625 53.21875 53.421875 
Q 53.21875 48.921875 51.53125 44.890625 
Q 49.859375 40.875 45.40625 35.40625 
Q 44.1875 33.984375 37.640625 27.21875 
Q 31.109375 20.453125 19.1875 8.296875 
z
" id="DejaVuSans-32"/>
      </defs>
      <g transform="translate(224.506625 315.49441)scale(0.08 -0.08)">
       <use xlink:href="#DejaVuSans-32"/>
       <use x="63.623047" xlink:href="#DejaVuSans-30"/>
      </g>
     </g>
    </g>
    <g id="xtick_3">
     <g id="text_3">
      <!-- 40 -->
      <defs>
       <path d="M 37.796875 64.3125 
L 12.890625 25.390625 
L 37.796875 25.390625 
z
M 35.203125 72.90625 
L 47.609375 72.90625 
L 47.609375 25.390625 
L 58.015625 25.390625 
L 58.015625 17.1875 
L 47.609375 17.1875 
L 47.609375 0 
L 37.796875 0 
L 37.796875 17.1875 
L 4.890625 17.1875 
L 4.890625 26.703125 
z
" id="DejaVuSans-34"/>
      </defs>
      <g transform="translate(413.502625 315.49441)scale(0.08 -0.08)">
       <use xlink:href="#DejaVuSans-34"/>
       <use x="63.623047" xlink:href="#DejaVuSans-30"/>
      </g>
     </g>
    </g>
    <g id="xtick_4">
     <g id="text_4">
      <!-- 60 -->
      <defs>
       <path d="M 33.015625 40.375 
Q 26.375 40.375 22.484375 35.828125 
Q 18.609375 31.296875 18.609375 23.390625 
Q 18.609375 15.53125 22.484375 10.953125 
Q 26.375 6.390625 33.015625 6.390625 
Q 39.65625 6.390625 43.53125 10.953125 
Q 47.40625 15.53125 47.40625 23.390625 
Q 47.40625 31.296875 43.53125 35.828125 
Q 39.65625 40.375 33.015625 40.375 
z
M 52.59375 71.296875 
L 52.59375 62.3125 
Q 48.875 64.0625 45.09375 64.984375 
Q 41.3125 65.921875 37.59375 65.921875 
Q 27.828125 65.921875 22.671875 59.328125 
Q 17.53125 52.734375 16.796875 39.40625 
Q 19.671875 43.65625 24.015625 45.921875 
Q 28.375 48.1875 33.59375 48.1875 
Q 44.578125 48.1875 50.953125 41.515625 
Q 57.328125 34.859375 57.328125 23.390625 
Q 57.328125 12.15625 50.6875 5.359375 
Q 44.046875 -1.421875 33.015625 -1.421875 
Q 20.359375 -1.421875 13.671875 8.265625 
Q 6.984375 17.96875 6.984375 36.375 
Q 6.984375 53.65625 15.1875 63.9375 
Q 23.390625 74.21875 37.203125 74.21875 
Q 40.921875 74.21875 44.703125 73.484375 
Q 48.484375 72.75 52.59375 71.296875 
z
" id="DejaVuSans-36"/>
      </defs>
      <g transform="translate(602.498625 315.49441)scale(0.08 -0.08)">
       <use xlink:href="#DejaVuSans-36"/>
       <use x="63.623047" xlink:href="#DejaVuSans-30"/>
      </g>
     </g>
    </g>
    <g id="xtick_5">
     <g id="text_5">
      <!-- 80 -->
      <defs>
       <path d="M 31.78125 34.625 
Q 24.75 34.625 20.71875 30.859375 
Q 16.703125 27.09375 16.703125 20.515625 
Q 16.703125 13.921875 20.71875 10.15625 
Q 24.75 6.390625 31.78125 6.390625 
Q 38.8125 6.390625 42.859375 10.171875 
Q 46.921875 13.96875 46.921875 20.515625 
Q 46.921875 27.09375 42.890625 30.859375 
Q 38.875 34.625 31.78125 34.625 
z
M 21.921875 38.8125 
Q 15.578125 40.375 12.03125 44.71875 
Q 8.5 49.078125 8.5 55.328125 
Q 8.5 64.0625 14.71875 69.140625 
Q 20.953125 74.21875 31.78125 74.21875 
Q 42.671875 74.21875 48.875 69.140625 
Q 55.078125 64.0625 55.078125 55.328125 
Q 55.078125 49.078125 51.53125 44.71875 
Q 48 40.375 41.703125 38.8125 
Q 48.828125 37.15625 52.796875 32.3125 
Q 56.78125 27.484375 56.78125 20.515625 
Q 56.78125 9.90625 50.3125 4.234375 
Q 43.84375 -1.421875 31.78125 -1.421875 
Q 19.734375 -1.421875 13.25 4.234375 
Q 6.78125 9.90625 6.78125 20.515625 
Q 6.78125 27.484375 10.78125 32.3125 
Q 14.796875 37.15625 21.921875 38.8125 
z
M 18.3125 54.390625 
Q 18.3125 48.734375 21.84375 45.5625 
Q 25.390625 42.390625 31.78125 42.390625 
Q 38.140625 42.390625 41.71875 45.5625 
Q 45.3125 48.734375 45.3125 54.390625 
Q 45.3125 60.0625 41.71875 63.234375 
Q 38.140625 66.40625 31.78125 66.40625 
Q 25.390625 66.40625 21.84375 63.234375 
Q 18.3125 60.0625 18.3125 54.390625 
z
" id="DejaVuSans-38"/>
      </defs>
      <g transform="translate(791.494625 315.49441)scale(0.08 -0.08)">
       <use xlink:href="#DejaVuSans-38"/>
       <use x="63.623047" xlink:href="#DejaVuSans-30"/>
      </g>
     </g>
    </g>
    <g id="xtick_6">
     <g id="text_6">
      <!-- 100 -->
      <defs>
       <path d="M 12.40625 8.296875 
L 28.515625 8.296875 
L 28.515625 63.921875 
L 10.984375 60.40625 
L 10.984375 69.390625 
L 28.421875 72.90625 
L 38.28125 72.90625 
L 38.28125 8.296875 
L 54.390625 8.296875 
L 54.390625 0 
L 12.40625 0 
z
" id="DejaVuSans-31"/>
      </defs>
      <g transform="translate(977.945625 315.49441)scale(0.08 -0.08)">
       <use xlink:href="#DejaVuSans-31"/>
       <use x="63.623047" xlink:href="#DejaVuSans-30"/>
       <use x="127.246094" xlink:href="#DejaVuSans-30"/>
      </g>
     </g>
    </g>
    <g id="text_7">
     <!-- % GC -->
     <defs>
      <path d="M 72.703125 32.078125 
Q 68.453125 32.078125 66.03125 28.46875 
Q 63.625 24.859375 63.625 18.40625 
Q 63.625 12.0625 66.03125 8.421875 
Q 68.453125 4.78125 72.703125 4.78125 
Q 76.859375 4.78125 79.265625 8.421875 
Q 81.6875 12.0625 81.6875 18.40625 
Q 81.6875 24.8125 79.265625 28.4375 
Q 76.859375 32.078125 72.703125 32.078125 
z
M 72.703125 38.28125 
Q 80.421875 38.28125 84.953125 32.90625 
Q 89.5 27.546875 89.5 18.40625 
Q 89.5 9.28125 84.9375 3.921875 
Q 80.375 -1.421875 72.703125 -1.421875 
Q 64.890625 -1.421875 60.34375 3.921875 
Q 55.8125 9.28125 55.8125 18.40625 
Q 55.8125 27.59375 60.375 32.9375 
Q 64.9375 38.28125 72.703125 38.28125 
z
M 22.3125 68.015625 
Q 18.109375 68.015625 15.6875 64.375 
Q 13.28125 60.75 13.28125 54.390625 
Q 13.28125 47.953125 15.671875 44.328125 
Q 18.0625 40.71875 22.3125 40.71875 
Q 26.5625 40.71875 28.96875 44.328125 
Q 31.390625 47.953125 31.390625 54.390625 
Q 31.390625 60.6875 28.953125 64.34375 
Q 26.515625 68.015625 22.3125 68.015625 
z
M 66.40625 74.21875 
L 74.21875 74.21875 
L 28.609375 -1.421875 
L 20.796875 -1.421875 
z
M 22.3125 74.21875 
Q 30.03125 74.21875 34.609375 68.875 
Q 39.203125 63.53125 39.203125 54.390625 
Q 39.203125 45.171875 34.640625 39.84375 
Q 30.078125 34.515625 22.3125 34.515625 
Q 14.546875 34.515625 10.03125 39.859375 
Q 5.515625 45.21875 5.515625 54.390625 
Q 5.515625 63.484375 10.046875 68.84375 
Q 14.59375 74.21875 22.3125 74.21875 
z
" id="DejaVuSans-25"/>
      <path id="DejaVuSans-20"/>
      <path d="M 59.515625 10.40625 
L 59.515625 29.984375 
L 43.40625 29.984375 
L 43.40625 38.09375 
L 69.28125 38.09375 
L 69.28125 6.78125 
Q 63.578125 2.734375 56.6875 0.65625 
Q 49.8125 -1.421875 42 -1.421875 
Q 24.90625 -1.421875 15.25 8.5625 
Q 5.609375 18.5625 5.609375 36.375 
Q 5.609375 54.25 15.25 64.234375 
Q 24.90625 74.21875 42 74.21875 
Q 49.125 74.21875 55.546875 72.453125 
Q 61.96875 70.703125 67.390625 67.28125 
L 67.390625 56.78125 
Q 61.921875 61.421875 55.765625 63.765625 
Q 49.609375 66.109375 42.828125 66.109375 
Q 29.4375 66.109375 22.71875 58.640625 
Q 16.015625 51.171875 16.015625 36.375 
Q 16.015625 21.625 22.71875 14.15625 
Q 29.4375 6.6875 42.828125 6.6875 
Q 48.046875 6.6875 52.140625 7.59375 
Q 56.25 8.5 59.515625 10.40625 
z
" id="DejaVuSans-47"/>
      <path d="M 64.40625 67.28125 
L 64.40625 56.890625 
Q 59.421875 61.53125 53.78125 63.8125 
Q 48.140625 66.109375 41.796875 66.109375 
Q 29.296875 66.109375 22.65625 58.46875 
Q 16.015625 50.828125 16.015625 36.375 
Q 16.015625 21.96875 22.65625 14.328125 
Q 29.296875 6.6875 41.796875 6.6875 
Q 48.140625 6.6875 53.78125 8.984375 
Q 59.421875 11.28125 64.40625 15.921875 
L 64.40625 5.609375 
Q 59.234375 2.09375 53.4375 0.328125 
Q 47.65625 -1.421875 41.21875 -1.421875 
Q 24.65625 -1.421875 15.125 8.703125 
Q 5.609375 18.84375 5.609375 36.375 
Q 5.609375 53.953125 15.125 64.078125 
Q 24.65625 74.21875 41.21875 74.21875 
Q 47.75 74.21875 53.53125 72.484375 
Q 59.328125 70.75 64.40625 67.28125 
z
" id="DejaVuSans-43"/>
     </defs>
     <g transform="translate(499.385156 328.756597)scale(0.1 -0.1)">
      <use xlink:href="#DejaVuSans-25"/>
      <use x="95.019531" xlink:href="#DejaVuSans-20"/>
      <use x="126.806641" xlink:href="#DejaVuSans-47"/>
      <use x="204.296875" xlink:href="#DejaVuSans-43"/>
     </g>
    </g>
   </g>
   <g id="matplotlib.axis_2">
    <g id="ytick_1">
     <g id="line2d_1">
      <path clip-path="url(#pe17d51c214)" d="M 40.600625 302.41566 
L 985.580625 302.41566 
" style="fill:none;stroke:#dedede;stroke-linecap:square;"/>
     </g>
     <g id="text_8">
      <!-- 0.0 -->
      <defs>
       <path d="M 10.6875 12.40625 
L 21 12.40625 
L 21 0 
L 10.6875 0 
z
" id="DejaVuSans-2e"/>
      </defs>
      <g transform="translate(20.878125 305.455035)scale(0.08 -0.08)">
       <use xlink:href="#DejaVuSans-30"/>
       <use x="63.623047" xlink:href="#DejaVuSans-2e"/>
       <use x="95.410156" xlink:href="#DejaVuSans-30"/>
      </g>
     </g>
    </g>
    <g id="ytick_2">
     <g id="line2d_2">
      <path clip-path="url(#pe17d51c214)" d="M 40.600625 271.139914 
L 985.580625 271.139914 
" style="fill:none;stroke:#dedede;stroke-linecap:square;"/>
     </g>
     <g id="text_9">
      <!-- 0.5 -->
      <defs>
       <path d="M 10.796875 72.90625 
L 49.515625 72.90625 
L 49.515625 64.59375 
L 19.828125 64.59375 
L 19.828125 46.734375 
Q 21.96875 47.46875 24.109375 47.828125 
Q 26.265625 48.1875 28.421875 48.1875 
Q 40.625 48.1875 47.75 41.5 
Q 54.890625 34.8125 54.890625 23.390625 
Q 54.890625 11.625 47.5625 5.09375 
Q 40.234375 -1.421875 26.90625 -1.421875 
Q 22.3125 -1.421875 17.546875 -0.640625 
Q 12.796875 0.140625 7.71875 1.703125 
L 7.71875 11.625 
Q 12.109375 9.234375 16.796875 8.0625 
Q 21.484375 6.890625 26.703125 6.890625 
Q 35.15625 6.890625 40.078125 11.328125 
Q 45.015625 15.765625 45.015625 23.390625 
Q 45.015625 31 40.078125 35.4375 
Q 35.15625 39.890625 26.703125 39.890625 
Q 22.75 39.890625 18.8125 39.015625 
Q 14.890625 38.140625 10.796875 36.28125 
z
" id="DejaVuSans-35"/>
      </defs>
      <g transform="translate(20.878125 274.179289)scale(0.08 -0.08)">
       <use xlink:href="#DejaVuSans-30"/>
       <use x="63.623047" xlink:href="#DejaVuSans-2e"/>
       <use x="95.410156" xlink:href="#DejaVuSans-35"/>
      </g>
     </g>
    </g>
    <g id="ytick_3">
     <g id="line2d_3">
      <path clip-path="url(#pe17d51c214)" d="M 40.600625 239.864169 
L 985.580625 239.864169 
" style="fill:none;stroke:#dedede;stroke-linecap:square;"/>
     </g>
     <g id="text_10">
      <!-- 1.0 -->
      <g transform="translate(20.878125 242.903544)scale(0.08 -0.08)">
       <use xlink:href="#DejaVuSans-31"/>
       <use x="63.623047" xlink:href="#DejaVuSans-2e"/>
       <use x="95.410156" xlink:href="#DejaVuSans-30"/>
      </g>
     </g>
    </g>
    <g id="ytick_4">
     <g id="line2d_4">
      <path clip-path="url(#pe17d51c214)" d="M 40.600625 208.588423 
L 985.580625 208.588423 
" style="fill:none;stroke:#dedede;stroke-linecap:square;"/>
     </g>
     <g id="text_11">
      <!-- 1.5 -->
      <g transform="translate(20.878125 211.627798)scale(0.08 -0.08)">
       <use xlink:href="#DejaVuSans-31"/>
       <use x="63.623047" xlink:href="#DejaVuSans-2e"/>
       <use x="95.410156" xlink:href="#DejaVuSans-35"/>
      </g>
     </g>
    </g>
    <g id="ytick_5">
     <g id="line2d_5">
      <path clip-path="url(#pe17d51c214)" d="M 40.600625 177.312678 
L 985.580625 177.312678 
" style="fill:none;stroke:#dedede;stroke-linecap:square;"/>
     </g>
     <g id="text_12">
      <!-- 2.0 -->
      <g transform="translate(20.878125 180.352053)scale(0.08 -0.08)">
       <use xlink:href="#DejaVuSans-32"/>
       <use x="63.623047" xlink:href="#DejaVuSans-2e"/>
       <use x="95.410156" xlink:href="#DejaVuSans-30"/>
      </g>
     </g>
    </g>
    <g id="ytick_6">
     <g id="line2d_6">
      <path clip-path="url(#pe17d51c214)" d="M 40.600625 146.036932 
L 985.580625 146.036932 
" style="fill:none;stroke:#dedede;stroke-linecap:square;"/>
     </g>
     <g id="text_13">
      <!-- 2.5 -->
      <g transform="translate(20.878125 149.076307)scale(0.08 -0.08)">
       <use xlink:href="#DejaVuSans-32"/>
       <use x="63.623047" xlink:href="#DejaVuSans-2e"/>
       <use x="95.410156" xlink:href="#DejaVuSans-35"/>
      </g>
     </g>
    </g>
    <g id="ytick_7">
     <g id="line2d_7">
      <path clip-path="url(#pe17d51c214)" d="M 40.600625 114.761186 
L 985.580625 114.761186 
" style="fill:none;stroke:#dedede;stroke-linecap:square;"/>
     </g>
     <g id="text_14">
      <!-- 3.0 -->
      <defs>
       <path d="M 40.578125 39.3125 
Q 47.65625 37.796875 51.625 33 
Q 55.609375 28.21875 55.609375 21.1875 
Q 55.609375 10.40625 48.1875 4.484375 
Q 40.765625 -1.421875 27.09375 -1.421875 
Q 22.515625 -1.421875 17.65625 -0.515625 
Q 12.796875 0.390625 7.625 2.203125 
L 7.625 11.71875 
Q 11.71875 9.328125 16.59375 8.109375 
Q 21.484375 6.890625 26.8125 6.890625 
Q 36.078125 6.890625 40.9375 10.546875 
Q 45.796875 14.203125 45.796875 21.1875 
Q 45.796875 27.640625 41.28125 31.265625 
Q 36.765625 34.90625 28.71875 34.90625 
L 20.21875 34.90625 
L 20.21875 43.015625 
L 29.109375 43.015625 
Q 36.375 43.015625 40.234375 45.921875 
Q 44.09375 48.828125 44.09375 54.296875 
Q 44.09375 59.90625 40.109375 62.90625 
Q 36.140625 65.921875 28.71875 65.921875 
Q 24.65625 65.921875 20.015625 65.03125 
Q 15.375 64.15625 9.8125 62.3125 
L 9.8125 71.09375 
Q 15.4375 72.65625 20.34375 73.4375 
Q 25.25 74.21875 29.59375 74.21875 
Q 40.828125 74.21875 47.359375 69.109375 
Q 53.90625 64.015625 53.90625 55.328125 
Q 53.90625 49.265625 50.4375 45.09375 
Q 46.96875 40.921875 40.578125 39.3125 
z
" id="DejaVuSans-33"/>
      </defs>
      <g transform="translate(20.878125 117.800561)scale(0.08 -0.08)">
       <use xlink:href="#DejaVuSans-33"/>
       <use x="63.623047" xlink:href="#DejaVuSans-2e"/>
       <use x="95.410156" xlink:href="#DejaVuSans-30"/>
      </g>
     </g>
    </g>
    <g id="ytick_8">
     <g id="line2d_8">
      <path clip-path="url(#pe17d51c214)" d="M 40.600625 83.485441 
L 985.580625 83.485441 
" style="fill:none;stroke:#dedede;stroke-linecap:square;"/>
     </g>
     <g id="text_15">
      <!-- 3.5 -->
      <g transform="translate(20.878125 86.524816)scale(0.08 -0.08)">
       <use xlink:href="#DejaVuSans-33"/>
       <use x="63.623047" xlink:href="#DejaVuSans-2e"/>
       <use x="95.410156" xlink:href="#DejaVuSans-35"/>
      </g>
     </g>
    </g>
    <g id="ytick_9">
     <g id="line2d_9">
      <path clip-path="url(#pe17d51c214)" d="M 40.600625 52.209695 
L 985.580625 52.209695 
" style="fill:none;stroke:#dedede;stroke-linecap:square;"/>
     </g>
     <g id="text_16">
      <!-- 4.0 -->
      <g transform="translate(20.878125 55.24907)scale(0.08 -0.08)">
       <use xlink:href="#DejaVuSans-34"/>
       <use x="63.623047" xlink:href="#DejaVuSans-2e"/>
       <use x="95.410156" xlink:href="#DejaVuSans-30"/>
      </g>
     </g>
    </g>
    <g id="text_17">
     <!-- Percentage -->
     <defs>
      <path d="M 19.671875 64.796875 
L 19.671875 37.40625 
L 32.078125 37.40625 
Q 38.96875 37.40625 42.71875 40.96875 
Q 46.484375 44.53125 46.484375 51.125 
Q 46.484375 57.671875 42.71875 61.234375 
Q 38.96875 64.796875 32.078125 64.796875 
z
M 9.8125 72.90625 
L 32.078125 72.90625 
Q 44.34375 72.90625 50.609375 67.359375 
Q 56.890625 61.8125 56.890625 51.125 
Q 56.890625 40.328125 50.609375 34.8125 
Q 44.34375 29.296875 32.078125 29.296875 
L 19.671875 29.296875 
L 19.671875 0 
L 9.8125 0 
z
" id="DejaVuSans-50"/>
      <path d="M 56.203125 29.59375 
L 56.203125 25.203125 
L 14.890625 25.203125 
Q 15.484375 15.921875 20.484375 11.0625 
Q 25.484375 6.203125 34.421875 6.203125 
Q 39.59375 6.203125 44.453125 7.46875 
Q 49.3125 8.734375 54.109375 11.28125 
L 54.109375 2.78125 
Q 49.265625 0.734375 44.1875 -0.34375 
Q 39.109375 -1.421875 33.890625 -1.421875 
Q 20.796875 -1.421875 13.15625 6.1875 
Q 5.515625 13.8125 5.515625 26.8125 
Q 5.515625 40.234375 12.765625 48.109375 
Q 20.015625 56 32.328125 56 
Q 43.359375 56 49.78125 48.890625 
Q 56.203125 41.796875 56.203125 29.59375 
z
M 47.21875 32.234375 
Q 47.125 39.59375 43.09375 43.984375 
Q 39.0625 48.390625 32.421875 48.390625 
Q 24.90625 48.390625 20.390625 44.140625 
Q 15.875 39.890625 15.1875 32.171875 
z
" id="DejaVuSans-65"/>
      <path d="M 41.109375 46.296875 
Q 39.59375 47.171875 37.8125 47.578125 
Q 36.03125 48 33.890625 48 
Q 26.265625 48 22.1875 43.046875 
Q 18.109375 38.09375 18.109375 28.8125 
L 18.109375 0 
L 9.078125 0 
L 9.078125 54.6875 
L 18.109375 54.6875 
L 18.109375 46.1875 
Q 20.953125 51.171875 25.484375 53.578125 
Q 30.03125 56 36.53125 56 
Q 37.453125 56 38.578125 55.875 
Q 39.703125 55.765625 41.0625 55.515625 
z
" id="DejaVuSans-72"/>
      <path d="M 48.78125 52.59375 
L 48.78125 44.1875 
Q 44.96875 46.296875 41.140625 47.34375 
Q 37.3125 48.390625 33.40625 48.390625 
Q 24.65625 48.390625 19.8125 42.84375 
Q 14.984375 37.3125 14.984375 27.296875 
Q 14.984375 17.28125 19.8125 11.734375 
Q 24.65625 6.203125 33.40625 6.203125 
Q 37.3125 6.203125 41.140625 7.25 
Q 44.96875 8.296875 48.78125 10.40625 
L 48.78125 2.09375 
Q 45.015625 0.34375 40.984375 -0.53125 
Q 36.96875 -1.421875 32.421875 -1.421875 
Q 20.0625 -1.421875 12.78125 6.34375 
Q 5.515625 14.109375 5.515625 27.296875 
Q 5.515625 40.671875 12.859375 48.328125 
Q 20.21875 56 33.015625 56 
Q 37.15625 56 41.109375 55.140625 
Q 45.0625 54.296875 48.78125 52.59375 
z
" id="DejaVuSans-63"/>
      <path d="M 54.890625 33.015625 
L 54.890625 0 
L 45.90625 0 
L 45.90625 32.71875 
Q 45.90625 40.484375 42.875 44.328125 
Q 39.84375 48.1875 33.796875 48.1875 
Q 26.515625 48.1875 22.3125 43.546875 
Q 18.109375 38.921875 18.109375 30.90625 
L 18.109375 0 
L 9.078125 0 
L 9.078125 54.6875 
L 18.109375 54.6875 
L 18.109375 46.1875 
Q 21.34375 51.125 25.703125 53.5625 
Q 30.078125 56 35.796875 56 
Q 45.21875 56 50.046875 50.171875 
Q 54.890625 44.34375 54.890625 33.015625 
z
" id="DejaVuSans-6e"/>
      <path d="M 18.3125 70.21875 
L 18.3125 54.6875 
L 36.8125 54.6875 
L 36.8125 47.703125 
L 18.3125 47.703125 
L 18.3125 18.015625 
Q 18.3125 11.328125 20.140625 9.421875 
Q 21.96875 7.515625 27.59375 7.515625 
L 36.8125 7.515625 
L 36.8125 0 
L 27.59375 0 
Q 17.1875 0 13.234375 3.875 
Q 9.28125 7.765625 9.28125 18.015625 
L 9.28125 47.703125 
L 2.6875 47.703125 
L 2.6875 54.6875 
L 9.28125 54.6875 
L 9.28125 70.21875 
z
" id="DejaVuSans-74"/>
      <path d="M 34.28125 27.484375 
Q 23.390625 27.484375 19.1875 25 
Q 14.984375 22.515625 14.984375 16.5 
Q 14.984375 11.71875 18.140625 8.90625 
Q 21.296875 6.109375 26.703125 6.109375 
Q 34.1875 6.109375 38.703125 11.40625 
Q 43.21875 16.703125 43.21875 25.484375 
L 43.21875 27.484375 
z
M 52.203125 31.203125 
L 52.203125 0 
L 43.21875 0 
L 43.21875 8.296875 
Q 40.140625 3.328125 35.546875 0.953125 
Q 30.953125 -1.421875 24.3125 -1.421875 
Q 15.921875 -1.421875 10.953125 3.296875 
Q 6 8.015625 6 15.921875 
Q 6 25.140625 12.171875 29.828125 
Q 18.359375 34.515625 30.609375 34.515625 
L 43.21875 34.515625 
L 43.21875 35.40625 
Q 43.21875 41.609375 39.140625 45 
Q 35.0625 48.390625 27.6875 48.390625 
Q 23 48.390625 18.546875 47.265625 
Q 14.109375 46.140625 10.015625 43.890625 
L 10.015625 52.203125 
Q 14.9375 54.109375 19.578125 55.046875 
Q 24.21875 56 28.609375 56 
Q 40.484375 56 46.34375 49.84375 
Q 52.203125 43.703125 52.203125 31.203125 
z
" id="DejaVuSans-61"/>
      <path d="M 45.40625 27.984375 
Q 45.40625 37.75 41.375 43.109375 
Q 37.359375 48.484375 30.078125 48.484375 
Q 22.859375 48.484375 18.828125 43.109375 
Q 14.796875 37.75 14.796875 27.984375 
Q 14.796875 18.265625 18.828125 12.890625 
Q 22.859375 7.515625 30.078125 7.515625 
Q 37.359375 7.515625 41.375 12.890625 
Q 45.40625 18.265625 45.40625 27.984375 
z
M 54.390625 6.78125 
Q 54.390625 -7.171875 48.1875 -13.984375 
Q 42 -20.796875 29.203125 -20.796875 
Q 24.46875 -20.796875 20.265625 -20.09375 
Q 16.0625 -19.390625 12.109375 -17.921875 
L 12.109375 -9.1875 
Q 16.0625 -11.328125 19.921875 -12.34375 
Q 23.78125 -13.375 27.78125 -13.375 
Q 36.625 -13.375 41.015625 -8.765625 
Q 45.40625 -4.15625 45.40625 5.171875 
L 45.40625 9.625 
Q 42.625 4.78125 38.28125 2.390625 
Q 33.9375 0 27.875 0 
Q 17.828125 0 11.671875 7.65625 
Q 5.515625 15.328125 5.515625 27.984375 
Q 5.515625 40.671875 11.671875 48.328125 
Q 17.828125 56 27.875 56 
Q 33.9375 56 38.28125 53.609375 
Q 42.625 51.21875 45.40625 46.390625 
L 45.40625 54.6875 
L 54.390625 54.6875 
z
" id="DejaVuSans-67"/>
     </defs>
     <g transform="translate(14.798438 196.03856)rotate(-90)scale(0.1 -0.1)">
      <use xlink:href="#DejaVuSans-50"/>
      <use x="60.255859" xlink:href="#DejaVuSans-65"/>
      <use x="121.779297" xlink:href="#DejaVuSans-72"/>
      <use x="162.861328" xlink:href="#DejaVuSans-63"/>
      <use x="217.841797" xlink:href="#DejaVuSans-65"/>
      <use x="279.365234" xlink:href="#DejaVuSans-6e"/>
      <use x="342.744141" xlink:href="#DejaVuSans-74"/>
      <use x="381.953125" xlink:href="#DejaVuSans-61"/>
      <use x="443.232422" xlink:href="#DejaVuSans-67"/>
      <use x="506.708984" xlink:href="#DejaVuSans-65"/>
     </g>
    </g>
   </g>
   <g id="line2d_10">
    <path clip-path="url(#pe17d51c214)" d="M 40.600625 302.00171 
L 50.050425 301.59834 
L 59.500225 300.980074 
L 68.950025 300.860027 
L 78.399825 300.952446 
L 87.849625 300.99153 
L 97.299425 300.998382 
L 106.749225 300.947705 
L 116.199025 300.903505 
L 125.648825 300.782591 
L 135.098625 300.666939 
L 144.548425 300.583345 
L 153.998225 300.423676 
L 163.448025 300.270576 
L 172.897825 300.077159 
L 182.347625 299.614697 
L 191.797425 299.107999 
L 201.247225 298.540136 
L 210.697025 297.466835 
L 220.146825 295.481228 
L 229.596625 292.543866 
L 239.046425 289.491774 
L 248.496225 285.329655 
L 257.946025 279.76197 
L 267.395825 273.222193 
L 276.845625 264.990366 
L 286.295425 255.139539 
L 295.745225 244.687292 
L 305.195025 234.589748 
L 314.644825 223.409677 
L 324.094625 214.679931 
L 333.544425 208.716496 
L 342.994225 199.578354 
L 352.444025 187.583128 
L 361.893825 175.001529 
L 371.343625 163.581247 
L 380.793425 156.451096 
L 390.243225 152.868452 
L 399.693025 148.710481 
L 409.142825 143.207926 
L 418.592625 138.114516 
L 428.042425 136.614905 
L 437.492225 134.799272 
L 446.942025 130.429329 
L 456.391825 126.724693 
L 465.841625 121.428437 
L 475.291425 112.987406 
L 484.741225 101.700435 
L 494.191025 91.936737 
L 503.640825 86.685293 
L 513.090625 84.88003 
L 522.540425 88.04908 
L 531.990225 95.850504 
L 541.440025 105.639709 
L 550.889825 115.138282 
L 560.339625 121.259897 
L 569.789425 128.544117 
L 579.239225 139.500631 
L 588.689025 151.264983 
L 598.138825 164.201011 
L 607.588625 173.040818 
L 617.038425 181.447151 
L 626.488225 197.079791 
L 635.938025 211.345273 
L 645.387825 220.870422 
L 654.837625 231.484184 
L 664.287425 242.885555 
L 673.737225 253.607139 
L 683.187025 263.944245 
L 692.636825 273.234244 
L 702.086625 279.931917 
L 711.536425 284.731515 
L 720.986225 288.718178 
L 730.436025 291.775322 
L 739.885825 294.112462 
L 749.335625 295.789092 
L 758.785425 296.920679 
L 768.235225 297.904868 
L 777.685025 298.86174 
L 787.134825 299.514978 
L 796.584625 300.074126 
L 806.034425 300.57853 
L 815.484225 300.961244 
L 824.934025 301.333425 
L 834.383825 301.634546 
L 843.833625 301.811253 
L 853.283425 301.923205 
L 862.733225 302.025016 
L 872.183025 302.101703 
L 881.632825 302.158976 
L 891.082625 302.207762 
L 900.532425 302.244736 
L 909.982225 302.272618 
L 919.432025 302.293092 
L 928.881825 302.307819 
L 938.331625 302.320911 
L 947.781425 302.331436 
L 957.231225 302.33213 
L 966.681025 302.287711 
L 976.130825 302.045755 
L 985.580625 301.844079 
" style="fill:none;stroke:#f0ad4e;stroke-linecap:square;"/>
   </g>
   <g id="line2d_11">
    <path clip-path="url(#pe17d51c214)" d="M 40.600625 302.094741 
L 50.050425 301.785388 
L 59.500225 301.139565 
L 68.950025 300.946588 
L 78.399825 301.097799 
L 87.849625 301.165195 
L 97.299425 301.200667 
L 106.749225 301.165076 
L 116.199025 301.10131 
L 125.648825 301.027128 
L 135.098625 300.950428 
L 144.548425 300.627311 
L 153.998225 300.422642 
L 163.448025 300.427056 
L 172.897825 300.303702 
L 182.347625 299.976863 
L 191.797425 299.484595 
L 201.247225 298.954765 
L 210.697025 298.128771 
L 220.146825 296.459298 
L 229.596625 293.795756 
L 239.046425 291.291415 
L 248.496225 287.864843 
L 257.946025 282.854664 
L 267.395825 277.141701 
L 276.845625 270.262588 
L 286.295425 261.926763 
L 295.745225 253.261837 
L 305.195025 245.762878 
L 314.644825 237.259826 
L 324.094625 230.457906 
L 333.544425 225.037494 
L 342.994225 217.390991 
L 352.444025 207.364049 
L 361.893825 195.199655 
L 371.343625 185.044332 
L 380.793425 179.951708 
L 390.243225 177.291121 
L 399.693025 171.918431 
L 409.142825 162.931383 
L 418.592625 155.252664 
L 428.042425 153.014068 
L 437.492225 151.575123 
L 446.942025 147.25247 
L 456.391825 143.886097 
L 465.841625 138.634619 
L 475.291425 126.733142 
L 484.741225 115.013678 
L 494.191025 108.147764 
L 503.640825 105.94806 
L 513.090625 106.228006 
L 522.540425 105.790784 
L 531.990225 105.077427 
L 541.440025 99.397902 
L 550.889825 94.467725 
L 560.339625 86.699391 
L 569.789425 83.284776 
L 579.239225 92.626793 
L 588.689025 110.115306 
L 598.138825 141.102986 
L 607.588625 160.733148 
L 617.038425 164.391607 
L 626.488225 177.315192 
L 635.938025 195.456963 
L 645.387825 203.962377 
L 654.837625 208.241851 
L 664.287425 213.033797 
L 673.737225 215.189317 
L 683.187025 226.284721 
L 692.636825 246.754686 
L 702.086625 266.26899 
L 711.536425 278.980553 
L 720.986225 285.470129 
L 730.436025 290.864545 
L 739.885825 293.867868 
L 749.335625 295.774236 
L 758.785425 297.009176 
L 768.235225 298.029506 
L 777.685025 299.04428 
L 787.134825 299.796009 
L 796.584625 300.389368 
L 806.034425 300.817487 
L 815.484225 301.080496 
L 824.934025 301.371406 
L 834.383825 301.652183 
L 843.833625 301.841082 
L 853.283425 301.959967 
L 862.733225 302.045168 
L 872.183025 302.109846 
L 881.632825 302.163797 
L 891.082625 302.206503 
L 900.532425 302.238208 
L 909.982225 302.264376 
L 919.432025 302.285738 
L 928.881825 302.301892 
L 938.331625 302.312436 
L 947.781425 302.320034 
L 957.231225 302.318921 
L 966.681025 302.268864 
L 976.130825 301.973649 
L 985.580625 301.725152 
" style="fill:none;stroke:#d9534f;stroke-linecap:square;"/>
   </g>
   <g id="line2d_12">
    <path clip-path="url(#pe17d51c214)" d="M 40.600625 302.104837 
L 50.050425 301.928038 
L 59.500225 301.328191 
L 68.950025 301.077188 
L 78.399825 301.250894 
L 87.849625 301.314934 
L 97.299425 301.368588 
L 106.749225 301.339988 
L 116.199025 301.267435 
L 125.648825 301.240729 
L 135.098625 301.204724 
L 144.548425 300.695534 
L 153.998225 300.41051 
L 163.448025 300.567675 
L 172.897825 300.573749 
L 182.347625 300.355899 
L 191.797425 299.917237 
L 201.247225 299.438016 
L 210.697025 298.708447 
L 220.146825 297.334453 
L 229.596625 295.071772 
L 239.046425 292.556293 
L 248.496225 289.393811 
L 257.946025 284.718315 
L 267.395825 278.859345 
L 276.845625 272.546198 
L 286.295425 265.249406 
L 295.745225 256.800268 
L 305.195025 248.74165 
L 314.644825 240.083436 
L 324.094625 232.876564 
L 333.544425 227.915843 
L 342.994225 220.922369 
L 352.444025 211.524693 
L 361.893825 200.542336 
L 371.343625 191.244978 
L 380.793425 185.973826 
L 390.243225 181.087168 
L 399.693025 175.506352 
L 409.142825 168.879269 
L 418.592625 162.190402 
L 428.042425 158.131365 
L 437.492225 154.667418 
L 446.942025 146.160778 
L 456.391825 141.87573 
L 465.841625 140.677438 
L 475.291425 129.163325 
L 484.741225 118.507708 
L 494.191025 112.973564 
L 503.640825 112.688964 
L 513.090625 115.450208 
L 522.540425 117.229942 
L 531.990225 115.670144 
L 541.440025 102.312528 
L 550.889825 94.840196 
L 560.339625 84.501105 
L 569.789425 72.809025 
L 579.239225 74.952088 
L 588.689025 92.470569 
L 598.138825 134.497792 
L 607.588625 164.27557 
L 617.038425 167.050525 
L 626.488225 175.560802 
L 635.938025 193.640022 
L 645.387825 200.075598 
L 654.837625 198.749003 
L 664.287425 198.781088 
L 673.737225 196.404631 
L 683.187025 207.814115 
L 692.636825 234.137679 
L 702.086625 259.970295 
L 711.536425 276.672702 
L 720.986225 284.445672 
L 730.436025 290.710292 
L 739.885825 293.996785 
L 749.335625 295.996565 
L 758.785425 297.243878 
L 768.235225 298.141542 
L 777.685025 299.173261 
L 787.134825 300.010431 
L 796.584625 300.53569 
L 806.034425 300.934177 
L 815.484225 301.225668 
L 824.934025 301.508204 
L 834.383825 301.763106 
L 843.833625 301.90242 
L 853.283425 301.986941 
L 862.733225 302.061065 
L 872.183025 302.120391 
L 881.632825 302.164112 
L 891.082625 302.200781 
L 900.532425 302.23056 
L 909.982225 302.256874 
L 919.432025 302.276044 
L 928.881825 302.287942 
L 938.331625 302.296978 
L 947.781425 302.304262 
L 957.231225 302.299053 
L 966.681025 302.246034 
L 976.130825 301.96373 
L 985.580625 301.7268 
" style="fill:none;stroke:#d9534f;stroke-linecap:square;"/>
   </g>
   <g id="line2d_13">
    <path clip-path="url(#pe17d51c214)" d="M 40.600625 302.352934 
L 50.050425 302.301573 
L 59.500225 302.20532 
L 68.950025 302.147219 
L 78.399825 302.094062 
L 87.849625 302.043599 
L 97.299425 302.003777 
L 106.749225 301.946584 
L 116.199025 301.884872 
L 125.648825 301.769288 
L 135.098625 301.611227 
L 144.548425 301.440545 
L 153.998225 301.176894 
L 163.448025 300.806359 
L 172.897825 300.333411 
L 182.347625 298.89847 
L 191.797425 297.717766 
L 201.247225 297.528197 
L 210.697025 296.951204 
L 220.146825 295.713789 
L 229.596625 293.749017 
L 239.046425 291.594201 
L 248.496225 288.6137 
L 257.946025 284.768819 
L 267.395825 280.302634 
L 276.845625 274.445212 
L 286.295425 267.062989 
L 295.745225 258.555508 
L 305.195025 249.854363 
L 314.644825 240.877014 
L 324.094625 233.126332 
L 333.544425 226.155248 
L 342.994225 216.132516 
L 352.444025 203.682444 
L 361.893825 190.01174 
L 371.343625 175.61612 
L 380.793425 163.620688 
L 390.243225 154.824372 
L 399.693025 146.555513 
L 409.142825 135.884574 
L 418.592625 124.968659 
L 428.042425 116.323868 
L 437.492225 107.321616 
L 446.942025 99.020457 
L 456.391825 92.365544 
L 465.841625 83.363949 
L 475.291425 73.625194 
L 484.741225 63.351605 
L 494.191025 53.865532 
L 503.640825 50.760302 
L 513.090625 50.976561 
L 522.540425 59.709359 
L 531.990225 77.655694 
L 541.440025 98.365829 
L 550.889825 118.550061 
L 560.339625 131.724933 
L 569.789425 142.213119 
L 579.239225 153.174853 
L 588.689025 162.82451 
L 598.138825 174.635829 
L 607.588625 184.843428 
L 617.038425 195.137536 
L 626.488225 210.473702 
L 635.938025 223.386602 
L 645.387825 232.781232 
L 654.837625 242.591065 
L 664.287425 252.782354 
L 673.737225 263.606806 
L 683.187025 274.127129 
L 692.636825 282.268237 
L 702.086625 287.551409 
L 711.536425 290.978652 
L 720.986225 293.677841 
L 730.436025 295.643782 
L 739.885825 297.013496 
L 749.335625 297.985 
L 758.785425 298.693113 
L 768.235225 299.262487 
L 777.685025 299.849687 
L 787.134825 300.300512 
L 796.584625 300.684904 
L 806.034425 301.004058 
L 815.484225 301.26292 
L 824.934025 301.569338 
L 834.383825 301.837257 
L 843.833625 301.958645 
L 853.283425 302.032524 
L 862.733225 302.124151 
L 872.183025 302.188673 
L 881.632825 302.233893 
L 891.082625 302.276312 
L 900.532425 302.304624 
L 909.982225 302.327075 
L 919.432025 302.344678 
L 928.881825 302.356729 
L 938.331625 302.367823 
L 947.781425 302.378899 
L 957.231225 302.384973 
L 966.681025 302.379594 
L 976.130825 302.358795 
L 985.580625 302.345035 
" style="fill:none;stroke:#5cb85c;stroke-linecap:square;"/>
   </g>
   <g id="line2d_14">
    <path clip-path="url(#pe17d51c214)" d="M 40.600625 302.272251 
L 50.050425 302.201001 
L 59.500225 302.064991 
L 68.950025 302.003381 
L 78.399825 302.000314 
L 87.849625 301.996122 
L 97.299425 301.982104 
L 106.749225 301.952275 
L 116.199025 301.922809 
L 125.648825 301.867185 
L 135.098625 301.797711 
L 144.548425 301.728823 
L 153.998225 301.608522 
L 163.448025 301.425152 
L 172.897825 301.182467 
L 182.347625 300.220961 
L 191.797425 299.58523 
L 201.247225 299.519288 
L 210.697025 298.738475 
L 220.146825 297.374171 
L 229.596625 295.390868 
L 239.046425 292.852806 
L 248.496225 289.336217 
L 257.946025 284.705594 
L 267.395825 279.173159 
L 276.845625 272.363165 
L 286.295425 264.0437 
L 295.745225 254.435846 
L 305.195025 244.488191 
L 314.644825 234.317817 
L 324.094625 224.95591 
L 333.544425 215.424809 
L 342.994225 204.224719 
L 352.444025 192.111737 
L 361.893825 178.495067 
L 371.343625 167.350415 
L 380.793425 160.686321 
L 390.243225 154.837276 
L 399.693025 147.761628 
L 409.142825 138.904601 
L 418.592625 130.524289 
L 428.042425 126.421217 
L 437.492225 124.645098 
L 446.942025 122.858253 
L 456.391825 119.123307 
L 465.841625 113.410337 
L 475.291425 107.015614 
L 484.741225 97.45869 
L 494.191025 88.555381 
L 503.640825 83.376144 
L 513.090625 81.357695 
L 522.540425 84.384964 
L 531.990225 89.943649 
L 541.440025 92.944789 
L 550.889825 95.257726 
L 560.339625 101.665852 
L 569.789425 115.780654 
L 579.239225 133.19442 
L 588.689025 147.607408 
L 598.138825 161.170946 
L 607.588625 170.472014 
L 617.038425 182.160642 
L 626.488225 200.866534 
L 635.938025 215.80658 
L 645.387825 226.458865 
L 654.837625 237.992855 
L 664.287425 250.580999 
L 673.737225 260.824973 
L 683.187025 268.659348 
L 692.636825 275.603847 
L 702.086625 281.250885 
L 711.536425 285.265725 
L 720.986225 288.430483 
L 730.436025 291.099424 
L 739.885825 293.27556 
L 749.335625 295.043034 
L 758.785425 296.339156 
L 768.235225 297.444927 
L 777.685025 298.420024 
L 787.134825 299.187043 
L 796.584625 299.876817 
L 806.034425 300.454954 
L 815.484225 300.846801 
L 824.934025 301.190889 
L 834.383825 301.502936 
L 843.833625 301.709981 
L 853.283425 301.859963 
L 862.733225 301.98058 
L 872.183025 302.072604 
L 881.632825 302.145684 
L 891.082625 302.198836 
L 900.532425 302.228962 
L 909.982225 302.252368 
L 919.432025 302.270587 
L 928.881825 302.285292 
L 938.331625 302.296958 
L 947.781425 302.30089 
L 957.231225 302.292282 
L 966.681025 302.232764 
L 976.130825 301.943668 
L 985.580625 301.706291 
" style="fill:none;stroke:#f0ad4e;stroke-linecap:square;"/>
   </g>
   <g id="line2d_15">
    <path clip-path="url(#pe17d51c214)" d="M 40.600625 302.26743 
L 50.050425 302.158378 
L 59.500225 301.979458 
L 68.950025 301.919283 
L 78.399825 301.9238 
L 87.849625 301.924227 
L 97.299425 301.912976 
L 106.749225 301.88888 
L 116.199025 301.865647 
L 125.648825 301.82008 
L 135.098625 301.753172 
L 144.548425 301.673427 
L 153.998225 301.545584 
L 163.448025 301.312425 
L 172.897825 300.930415 
L 182.347625 299.583022 
L 191.797425 298.259678 
L 201.247225 298.062078 
L 210.697025 297.837109 
L 220.146825 296.990183 
L 229.596625 295.472875 
L 239.046425 293.405017 
L 248.496225 290.145368 
L 257.946025 285.900542 
L 267.395825 281.147274 
L 276.845625 275.369429 
L 286.295425 268.12782 
L 295.745225 259.279467 
L 305.195025 249.971345 
L 314.644825 240.465299 
L 324.094625 231.759666 
L 333.544425 222.983174 
L 342.994225 212.060034 
L 352.444025 199.346389 
L 361.893825 184.722399 
L 371.343625 172.916505 
L 380.793425 165.709472 
L 390.243225 158.311296 
L 399.693025 149.227391 
L 409.142825 138.124275 
L 418.592625 128.352784 
L 428.042425 122.684623 
L 437.492225 118.104644 
L 446.942025 116.003267 
L 456.391825 113.215064 
L 465.841625 108.436512 
L 475.291425 102.324117 
L 484.741225 94.508585 
L 494.191025 89.486811 
L 503.640825 85.853314 
L 513.090625 83.902114 
L 522.540425 85.088025 
L 531.990225 90.003565 
L 541.440025 93.115458 
L 550.889825 91.041524 
L 560.339625 91.890853 
L 569.789425 107.078722 
L 579.239225 129.708534 
L 588.689025 147.708804 
L 598.138825 161.055434 
L 607.588625 159.298262 
L 617.038425 165.974768 
L 626.488225 193.181109 
L 635.938025 212.914947 
L 645.387825 224.123249 
L 654.837625 237.173624 
L 664.287425 251.866757 
L 673.737225 263.124874 
L 683.187025 271.081893 
L 692.636825 277.597769 
L 702.086625 282.846738 
L 711.536425 286.89043 
L 720.986225 290.263974 
L 730.436025 292.946732 
L 739.885825 294.973085 
L 749.335625 296.56281 
L 758.785425 297.766862 
L 768.235225 298.727173 
L 777.685025 299.47511 
L 787.134825 300.0107 
L 796.584625 300.510769 
L 806.034425 300.949169 
L 815.484225 301.272738 
L 824.934025 301.555415 
L 834.383825 301.767863 
L 843.833625 301.914228 
L 853.283425 302.022419 
L 862.733225 302.098138 
L 872.183025 302.156782 
L 881.632825 302.207126 
L 891.082625 302.239226 
L 900.532425 302.255485 
L 909.982225 302.266985 
L 919.432025 302.278996 
L 928.881825 302.29122 
L 938.331625 302.298353 
L 947.781425 302.299262 
L 957.231225 302.287269 
L 966.681025 302.207868 
L 976.130825 301.892127 
L 985.580625 301.645186 
" style="fill:none;stroke:#f0ad4e;stroke-linecap:square;"/>
   </g>
   <g id="line2d_16">
    <path clip-path="url(#pe17d51c214)" d="M 40.600625 302.15266 
L 50.050425 301.940551 
L 59.500225 301.555391 
L 68.950025 301.4227 
L 78.399825 301.46934 
L 87.849625 301.502845 
L 97.299425 301.513505 
L 106.749225 301.491515 
L 116.199025 301.473795 
L 125.648825 301.423742 
L 135.098625 301.350165 
L 144.548425 301.245315 
L 153.998225 301.10682 
L 163.448025 300.917268 
L 172.897825 300.537791 
L 182.347625 299.593079 
L 191.797425 297.641047 
L 201.247225 296.774908 
L 210.697025 297.210642 
L 220.146825 296.634144 
L 229.596625 295.049895 
L 239.046425 292.969935 
L 248.496225 289.533657 
L 257.946025 284.789796 
L 267.395825 279.784097 
L 276.845625 274.096669 
L 286.295425 266.771423 
L 295.745225 257.843539 
L 305.195025 249.068121 
L 314.644825 240.567293 
L 324.094625 233.478211 
L 333.544425 226.516442 
L 342.994225 217.168777 
L 352.444025 205.27512 
L 361.893825 189.360316 
L 371.343625 177.444056 
L 380.793425 172.56503 
L 390.243225 168.074233 
L 399.693025 161.320844 
L 409.142825 151.122053 
L 418.592625 140.270777 
L 428.042425 132.884836 
L 437.492225 127.689083 
L 446.942025 123.97444 
L 456.391825 119.757163 
L 465.841625 113.463498 
L 475.291425 104.698471 
L 484.741225 93.184737 
L 494.191025 85.219666 
L 503.640825 83.001601 
L 513.090625 82.967919 
L 522.540425 85.388196 
L 531.990225 90.571568 
L 541.440025 91.823137 
L 550.889825 90.386202 
L 560.339625 90.955631 
L 569.789425 102.75 
L 579.239225 123.093921 
L 588.689025 140.026911 
L 598.138825 155.328288 
L 607.588625 154.83745 
L 617.038425 157.329202 
L 626.488225 183.921367 
L 635.938025 207.057916 
L 645.387825 218.115497 
L 654.837625 229.83854 
L 664.287425 243.632046 
L 673.737225 254.195766 
L 683.187025 263.628962 
L 692.636825 273.282732 
L 702.086625 281.283774 
L 711.536425 286.762497 
L 720.986225 290.627821 
L 730.436025 293.613313 
L 739.885825 295.623008 
L 749.335625 297.091914 
L 758.785425 298.177631 
L 768.235225 299.011437 
L 777.685025 299.728235 
L 787.134825 300.255592 
L 796.584625 300.686964 
L 806.034425 301.046349 
L 815.484225 301.329589 
L 824.934025 301.615853 
L 834.383825 301.833962 
L 843.833625 301.971442 
L 853.283425 302.081483 
L 862.733225 302.152279 
L 872.183025 302.193598 
L 881.632825 302.231177 
L 891.082625 302.262617 
L 900.532425 302.282858 
L 909.982225 302.297248 
L 919.432025 302.30961 
L 928.881825 302.319963 
L 938.331625 302.32746 
L 947.781425 302.330846 
L 957.231225 302.323619 
L 966.681025 302.265194 
L 976.130825 301.992427 
L 985.580625 301.770523 
" style="fill:none;stroke:#f0ad4e;stroke-linecap:square;"/>
   </g>
   <g id="line2d_17">
    <path clip-path="url(#pe17d51c214)" d="M 40.600625 302.396549 
L 50.050425 302.383256 
L 59.500225 302.360098 
L 68.950025 302.346369 
L 78.399825 302.338416 
L 87.849625 302.329984 
L 97.299425 302.317436 
L 106.749225 302.302259 
L 116.199025 302.282024 
L 125.648825 302.250196 
L 135.098625 302.206761 
L 144.548425 302.143555 
L 153.998225 302.055027 
L 163.448025 301.924089 
L 172.897825 301.712422 
L 182.347625 301.337666 
L 191.797425 300.787962 
L 201.247225 300.208972 
L 210.697025 299.506423 
L 220.146825 298.256979 
L 229.596625 296.488914 
L 239.046425 294.388953 
L 248.496225 291.498334 
L 257.946025 287.699275 
L 267.395825 283.005041 
L 276.845625 277.040439 
L 286.295425 269.836342 
L 295.745225 262.316775 
L 305.195025 254.45778 
L 314.644825 246.036685 
L 324.094625 239.207766 
L 333.544425 232.977691 
L 342.994225 224.324723 
L 352.444025 213.001882 
L 361.893825 198.146368 
L 371.343625 186.108175 
L 380.793425 179.619724 
L 390.243225 172.493926 
L 399.693025 161.557532 
L 409.142825 148.503456 
L 418.592625 136.980976 
L 428.042425 129.165388 
L 437.492225 124.796319 
L 446.942025 121.675232 
L 456.391825 116.278687 
L 465.841625 108.043418 
L 475.291425 97.878428 
L 484.741225 86.227063 
L 494.191025 77.807079 
L 503.640825 76.247125 
L 513.090625 77.51991 
L 522.540425 78.666984 
L 531.990225 81.292284 
L 541.440025 79.912338 
L 550.889825 76.105255 
L 560.339625 74.368414 
L 569.789425 86.567995 
L 579.239225 108.253469 
L 588.689025 127.304733 
L 598.138825 149.993893 
L 607.588625 165.137209 
L 617.038425 175.599274 
L 626.488225 192.254738 
L 635.938025 206.126239 
L 645.387825 214.953735 
L 654.837625 228.40793 
L 664.287425 242.925618 
L 673.737225 251.77235 
L 683.187025 262.278975 
L 692.636825 274.677182 
L 702.086625 283.871508 
L 711.536425 289.562262 
L 720.986225 293.459377 
L 730.436025 296.086588 
L 739.885825 297.681377 
L 749.335625 298.751305 
L 758.785425 299.434996 
L 768.235225 300.01577 
L 777.685025 300.614994 
L 787.134825 301.096616 
L 796.584625 301.447146 
L 806.034425 301.702656 
L 815.484225 301.893062 
L 824.934025 302.053354 
L 834.383825 302.168835 
L 843.833625 302.234669 
L 853.283425 302.276347 
L 862.733225 302.307838 
L 872.183025 302.332275 
L 881.632825 302.350641 
L 891.082625 302.364426 
L 900.532425 302.374712 
L 909.982225 302.382736 
L 919.432025 302.388034 
L 928.881825 302.390872 
L 938.331625 302.393795 
L 947.781425 302.393668 
L 957.231225 302.391125 
L 966.681025 302.379307 
L 976.130825 302.341915 
L 985.580625 302.315862 
" style="fill:none;stroke:#f0ad4e;stroke-linecap:square;"/>
   </g>
   <g id="line2d_18">
    <path clip-path="url(#pe17d51c214)" d="M 40.600625 302.255827 
L 50.050425 302.129494 
L 59.500225 301.836408 
L 68.950025 301.485474 
L 78.399825 301.043314 
L 87.849625 300.484459 
L 97.299425 299.800415 
L 106.749225 298.970554 
L 116.199025 298.025857 
L 125.648825 296.927862 
L 135.098625 295.604991 
L 144.548425 294.015559 
L 153.998225 292.160963 
L 163.448025 289.724034 
L 172.897825 285.913572 
L 182.347625 279.542785 
L 191.797425 266.598262 
L 201.247225 261.509496 
L 210.697025 269.945518 
L 220.146825 274.324276 
L 229.596625 272.785287 
L 239.046425 269.806137 
L 248.496225 264.546526 
L 257.946025 258.6837 
L 267.395825 253.989083 
L 276.845625 249.155151 
L 286.295425 243.186895 
L 295.745225 236.123956 
L 305.195025 229.088808 
L 314.644825 222.375845 
L 324.094625 217.055526 
L 333.544425 212.206763 
L 342.994225 205.86358 
L 352.444025 198.517115 
L 361.893825 191.159109 
L 371.343625 183.325542 
L 380.793425 176.309679 
L 390.243225 170.427524 
L 399.693025 163.113855 
L 409.142825 153.662736 
L 418.592625 143.750226 
L 428.042425 135.483146 
L 437.492225 127.884588 
L 446.942025 122.378636 
L 456.391825 116.370225 
L 465.841625 107.131263 
L 475.291425 96.006163 
L 484.741225 85.779015 
L 494.191025 82.289187 
L 503.640825 82.070912 
L 513.090625 81.570971 
L 522.540425 86.067117 
L 531.990225 99.084592 
L 541.440025 116.515623 
L 550.889825 130.361288 
L 560.339625 137.016634 
L 569.789425 146.750828 
L 579.239225 160.666727 
L 588.689025 170.877946 
L 598.138825 178.887782 
L 607.588625 172.584832 
L 617.038425 176.249203 
L 626.488225 206.994503 
L 635.938025 229.170495 
L 645.387825 239.829473 
L 654.837625 251.127564 
L 664.287425 261.459339 
L 673.737225 271.129316 
L 683.187025 279.925777 
L 692.636825 286.512847 
L 702.086625 291.02071 
L 711.536425 293.893571 
L 720.986225 295.994672 
L 730.436025 297.461391 
L 739.885825 298.462296 
L 749.335625 299.197905 
L 758.785425 299.754857 
L 768.235225 300.223333 
L 777.685025 300.657032 
L 787.134825 300.998449 
L 796.584625 301.308214 
L 806.034425 301.55495 
L 815.484225 301.723541 
L 824.934025 301.895971 
L 834.383825 302.037585 
L 843.833625 302.121771 
L 853.283425 302.177054 
L 862.733225 302.218069 
L 872.183025 302.253703 
L 881.632825 302.286324 
L 891.082625 302.313179 
L 900.532425 302.331794 
L 909.982225 302.346525 
L 919.432025 302.35789 
L 928.881825 302.367659 
L 938.331625 302.377099 
L 947.781425 302.383007 
L 957.231225 302.385768 
L 966.681025 302.382083 
L 976.130825 302.371719 
L 985.580625 302.366262 
" style="fill:none;stroke:#f0ad4e;stroke-linecap:square;"/>
   </g>
   <g id="line2d_19">
    <path clip-path="url(#pe17d51c214)" d="M 40.600625 302.157633 
L 50.050425 302.029074 
L 59.500225 301.451612 
L 68.950025 301.12717 
L 78.399825 301.252239 
L 87.849625 301.313851 
L 97.299425 301.372273 
L 106.749225 301.35296 
L 116.199025 301.305123 
L 125.648825 301.308844 
L 135.098625 301.272316 
L 144.548425 300.80323 
L 153.998225 300.549215 
L 163.448025 300.503378 
L 172.897825 300.028319 
L 182.347625 298.121856 
L 191.797425 295.768598 
L 201.247225 295.81861 
L 210.697025 296.953158 
L 220.146825 296.636758 
L 229.596625 294.901491 
L 239.046425 292.94141 
L 248.496225 290.043197 
L 257.946025 285.782084 
L 267.395825 281.022944 
L 276.845625 275.874832 
L 286.295425 269.718604 
L 295.745225 262.494534 
L 305.195025 255.293024 
L 314.644825 247.780334 
L 324.094625 241.220073 
L 333.544425 234.965918 
L 342.994225 227.544524 
L 352.444025 218.438079 
L 361.893825 205.749168 
L 371.343625 195.924368 
L 380.793425 191.269632 
L 390.243225 185.68352 
L 399.693025 179.893221 
L 409.142825 170.966295 
L 418.592625 161.345865 
L 428.042425 156.431053 
L 437.492225 153.163856 
L 446.942025 147.298896 
L 456.391825 143.10128 
L 465.841625 140.886884 
L 475.291425 130.592428 
L 484.741225 120.551601 
L 494.191025 116.042552 
L 503.640825 115.827839 
L 513.090625 117.8597 
L 522.540425 119.397595 
L 531.990225 119.387764 
L 541.440025 104.639183 
L 550.889825 89.116608 
L 560.339625 64.130735 
L 569.789425 45.672655 
L 579.239225 51.43151 
L 588.689025 72.555759 
L 598.138825 124.334716 
L 607.588625 158.240091 
L 617.038425 164.118612 
L 626.488225 181.27323 
L 635.938025 201.497315 
L 645.387825 206.165544 
L 654.837625 203.417194 
L 664.287425 202.282375 
L 673.737225 195.847097 
L 683.187025 203.945301 
L 692.636825 230.295891 
L 702.086625 258.099081 
L 711.536425 276.08939 
L 720.986225 284.135649 
L 730.436025 291.469352 
L 739.885825 294.784957 
L 749.335625 296.573213 
L 758.785425 297.673659 
L 768.235225 298.519809 
L 777.685025 299.575578 
L 787.134825 300.424764 
L 796.584625 300.910253 
L 806.034425 301.251012 
L 815.484225 301.484032 
L 824.934025 301.696058 
L 834.383825 301.87057 
L 843.833625 301.987017 
L 853.283425 302.068241 
L 862.733225 302.126373 
L 872.183025 302.171263 
L 881.632825 302.211241 
L 891.082625 302.23994 
L 900.532425 302.259949 
L 909.982225 302.277706 
L 919.432025 302.289199 
L 928.881825 302.298517 
L 938.331625 302.304307 
L 947.781425 302.305225 
L 957.231225 302.299686 
L 966.681025 302.247402 
L 976.130825 301.968188 
L 985.580625 301.736308 
" style="fill:none;stroke:#d9534f;stroke-linecap:square;"/>
   </g>
   <g id="line2d_20">
    <path clip-path="url(#pe17d51c214)" d="M 40.600625 302.101663 
L 50.050425 301.785952 
L 59.500225 301.199112 
L 68.950025 301.011381 
L 78.399825 301.085168 
L 87.849625 301.120048 
L 97.299425 301.126033 
L 106.749225 301.071885 
L 116.199025 301.012574 
L 125.648825 300.906265 
L 135.098625 300.77147 
L 144.548425 300.54528 
L 153.998225 300.363664 
L 163.448025 300.264998 
L 172.897825 300.059678 
L 182.347625 299.643837 
L 191.797425 299.11656 
L 201.247225 298.554012 
L 210.697025 297.660026 
L 220.146825 295.803972 
L 229.596625 292.984993 
L 239.046425 290.291264 
L 248.496225 286.369475 
L 257.946025 280.926741 
L 267.395825 274.8584 
L 276.845625 267.38331 
L 286.295425 258.616039 
L 295.745225 249.974624 
L 305.195025 241.585881 
L 314.644825 231.483355 
L 324.094625 224.145213 
L 333.544425 219.694711 
L 342.994225 212.326014 
L 352.444025 201.387705 
L 361.893825 189.237675 
L 371.343625 179.278557 
L 380.793425 173.853282 
L 390.243225 169.765434 
L 399.693025 162.902119 
L 409.142825 152.801336 
L 418.592625 142.507956 
L 428.042425 136.038624 
L 437.492225 130.93209 
L 446.942025 125.337419 
L 456.391825 121.113826 
L 465.841625 115.028679 
L 475.291425 105.266771 
L 484.741225 95.479621 
L 494.191025 89.330288 
L 503.640825 90.291973 
L 513.090625 92.79169 
L 522.540425 96.510527 
L 531.990225 102.354513 
L 541.440025 105.645271 
L 550.889825 109.330393 
L 560.339625 108.454388 
L 569.789425 111.69811 
L 579.239225 123.477982 
L 588.689025 137.144789 
L 598.138825 156.344905 
L 607.588625 165.238433 
L 617.038425 168.945031 
L 626.488225 186.343567 
L 635.938025 204.747971 
L 645.387825 214.756883 
L 654.837625 222.73192 
L 664.287425 231.433933 
L 673.737225 240.03783 
L 683.187025 251.791127 
L 692.636825 265.934243 
L 702.086625 277.873676 
L 711.536425 285.557703 
L 720.986225 290.117748 
L 730.436025 293.451411 
L 739.885825 295.549623 
L 749.335625 296.974371 
L 758.785425 297.877547 
L 768.235225 298.615812 
L 777.685025 299.439235 
L 787.134825 300.116296 
L 796.584625 300.65665 
L 806.034425 301.073423 
L 815.484225 301.351067 
L 824.934025 301.600113 
L 834.383825 301.813459 
L 843.833625 301.949838 
L 853.283425 302.039201 
L 862.733225 302.10171 
L 872.183025 302.150339 
L 881.632825 302.192378 
L 891.082625 302.229961 
L 900.532425 302.257329 
L 909.982225 302.280119 
L 919.432025 302.297009 
L 928.881825 302.307729 
L 938.331625 302.316696 
L 947.781425 302.320266 
L 957.231225 302.312818 
L 966.681025 302.25031 
L 976.130825 301.947778 
L 985.580625 301.700457 
" style="fill:none;stroke:#f0ad4e;stroke-linecap:square;"/>
   </g>
   <g id="line2d_21">
    <path clip-path="url(#pe17d51c214)" d="M 40.600625 302.41566 
L 985.580625 302.41566 
" style="fill:none;stroke:#dedede;stroke-linecap:square;stroke-width:2;"/>
   </g>
   <g id="text_18">
    <!-- FastQC: Per Sequence GC Content -->
    <defs>
     <path d="M 9.8125 72.90625 
L 51.703125 72.90625 
L 51.703125 64.59375 
L 19.671875 64.59375 
L 19.671875 43.109375 
L 48.578125 43.109375 
L 48.578125 34.8125 
L 19.671875 34.8125 
L 19.671875 0 
L 9.8125 0 
z
" id="DejaVuSans-46"/>
     <path d="M 44.28125 53.078125 
L 44.28125 44.578125 
Q 40.484375 46.53125 36.375 47.5 
Q 32.28125 48.484375 27.875 48.484375 
Q 21.1875 48.484375 17.84375 46.4375 
Q 14.5 44.390625 14.5 40.28125 
Q 14.5 37.15625 16.890625 35.375 
Q 19.28125 33.59375 26.515625 31.984375 
L 29.59375 31.296875 
Q 39.15625 29.25 43.1875 25.515625 
Q 47.21875 21.78125 47.21875 15.09375 
Q 47.21875 7.46875 41.1875 3.015625 
Q 35.15625 -1.421875 24.609375 -1.421875 
Q 20.21875 -1.421875 15.453125 -0.5625 
Q 10.6875 0.296875 5.421875 2 
L 5.421875 11.28125 
Q 10.40625 8.6875 15.234375 7.390625 
Q 20.0625 6.109375 24.8125 6.109375 
Q 31.15625 6.109375 34.5625 8.28125 
Q 37.984375 10.453125 37.984375 14.40625 
Q 37.984375 18.0625 35.515625 20.015625 
Q 33.0625 21.96875 24.703125 23.78125 
L 21.578125 24.515625 
Q 13.234375 26.265625 9.515625 29.90625 
Q 5.8125 33.546875 5.8125 39.890625 
Q 5.8125 47.609375 11.28125 51.796875 
Q 16.75 56 26.8125 56 
Q 31.78125 56 36.171875 55.265625 
Q 40.578125 54.546875 44.28125 53.078125 
z
" id="DejaVuSans-73"/>
     <path d="M 39.40625 66.21875 
Q 28.65625 66.21875 22.328125 58.203125 
Q 16.015625 50.203125 16.015625 36.375 
Q 16.015625 22.609375 22.328125 14.59375 
Q 28.65625 6.59375 39.40625 6.59375 
Q 50.140625 6.59375 56.421875 14.59375 
Q 62.703125 22.609375 62.703125 36.375 
Q 62.703125 50.203125 56.421875 58.203125 
Q 50.140625 66.21875 39.40625 66.21875 
z
M 53.21875 1.3125 
L 66.21875 -12.890625 
L 54.296875 -12.890625 
L 43.5 -1.21875 
Q 41.890625 -1.3125 41.03125 -1.359375 
Q 40.1875 -1.421875 39.40625 -1.421875 
Q 24.03125 -1.421875 14.8125 8.859375 
Q 5.609375 19.140625 5.609375 36.375 
Q 5.609375 53.65625 14.8125 63.9375 
Q 24.03125 74.21875 39.40625 74.21875 
Q 54.734375 74.21875 63.90625 63.9375 
Q 73.09375 53.65625 73.09375 36.375 
Q 73.09375 23.6875 67.984375 14.640625 
Q 62.890625 5.609375 53.21875 1.3125 
z
" id="DejaVuSans-51"/>
     <path d="M 11.71875 12.40625 
L 22.015625 12.40625 
L 22.015625 0 
L 11.71875 0 
z
M 11.71875 51.703125 
L 22.015625 51.703125 
L 22.015625 39.3125 
L 11.71875 39.3125 
z
" id="DejaVuSans-3a"/>
     <path d="M 53.515625 70.515625 
L 53.515625 60.890625 
Q 47.90625 63.578125 42.921875 64.890625 
Q 37.9375 66.21875 33.296875 66.21875 
Q 25.25 66.21875 20.875 63.09375 
Q 16.5 59.96875 16.5 54.203125 
Q 16.5 49.359375 19.40625 46.890625 
Q 22.3125 44.4375 30.421875 42.921875 
L 36.375 41.703125 
Q 47.40625 39.59375 52.65625 34.296875 
Q 57.90625 29 57.90625 20.125 
Q 57.90625 9.515625 50.796875 4.046875 
Q 43.703125 -1.421875 29.984375 -1.421875 
Q 24.8125 -1.421875 18.96875 -0.25 
Q 13.140625 0.921875 6.890625 3.21875 
L 6.890625 13.375 
Q 12.890625 10.015625 18.65625 8.296875 
Q 24.421875 6.59375 29.984375 6.59375 
Q 38.421875 6.59375 43.015625 9.90625 
Q 47.609375 13.234375 47.609375 19.390625 
Q 47.609375 24.75 44.3125 27.78125 
Q 41.015625 30.8125 33.5 32.328125 
L 27.484375 33.5 
Q 16.453125 35.6875 11.515625 40.375 
Q 6.59375 45.0625 6.59375 53.421875 
Q 6.59375 63.09375 13.40625 68.65625 
Q 20.21875 74.21875 32.171875 74.21875 
Q 37.3125 74.21875 42.625 73.28125 
Q 47.953125 72.359375 53.515625 70.515625 
z
" id="DejaVuSans-53"/>
     <path d="M 14.796875 27.296875 
Q 14.796875 17.390625 18.875 11.75 
Q 22.953125 6.109375 30.078125 6.109375 
Q 37.203125 6.109375 41.296875 11.75 
Q 45.40625 17.390625 45.40625 27.296875 
Q 45.40625 37.203125 41.296875 42.84375 
Q 37.203125 48.484375 30.078125 48.484375 
Q 22.953125 48.484375 18.875 42.84375 
Q 14.796875 37.203125 14.796875 27.296875 
z
M 45.40625 8.203125 
Q 42.578125 3.328125 38.25 0.953125 
Q 33.9375 -1.421875 27.875 -1.421875 
Q 17.96875 -1.421875 11.734375 6.484375 
Q 5.515625 14.40625 5.515625 27.296875 
Q 5.515625 40.1875 11.734375 48.09375 
Q 17.96875 56 27.875 56 
Q 33.9375 56 38.25 53.625 
Q 42.578125 51.265625 45.40625 46.390625 
L 45.40625 54.6875 
L 54.390625 54.6875 
L 54.390625 -20.796875 
L 45.40625 -20.796875 
z
" id="DejaVuSans-71"/>
     <path d="M 8.5 21.578125 
L 8.5 54.6875 
L 17.484375 54.6875 
L 17.484375 21.921875 
Q 17.484375 14.15625 20.5 10.265625 
Q 23.53125 6.390625 29.59375 6.390625 
Q 36.859375 6.390625 41.078125 11.03125 
Q 45.3125 15.671875 45.3125 23.6875 
L 45.3125 54.6875 
L 54.296875 54.6875 
L 54.296875 0 
L 45.3125 0 
L 45.3125 8.40625 
Q 42.046875 3.421875 37.71875 1 
Q 33.40625 -1.421875 27.6875 -1.421875 
Q 18.265625 -1.421875 13.375 4.4375 
Q 8.5 10.296875 8.5 21.578125 
z
M 31.109375 56 
z
" id="DejaVuSans-75"/>
     <path d="M 30.609375 48.390625 
Q 23.390625 48.390625 19.1875 42.75 
Q 14.984375 37.109375 14.984375 27.296875 
Q 14.984375 17.484375 19.15625 11.84375 
Q 23.34375 6.203125 30.609375 6.203125 
Q 37.796875 6.203125 41.984375 11.859375 
Q 46.1875 17.53125 46.1875 27.296875 
Q 46.1875 37.015625 41.984375 42.703125 
Q 37.796875 48.390625 30.609375 48.390625 
z
M 30.609375 56 
Q 42.328125 56 49.015625 48.375 
Q 55.71875 40.765625 55.71875 27.296875 
Q 55.71875 13.875 49.015625 6.21875 
Q 42.328125 -1.421875 30.609375 -1.421875 
Q 18.84375 -1.421875 12.171875 6.21875 
Q 5.515625 13.875 5.515625 27.296875 
Q 5.515625 40.765625 12.171875 48.375 
Q 18.84375 56 30.609375 56 
z
" id="DejaVuSans-6f"/>
    </defs>
    <g transform="translate(375.449375 19.3575)scale(0.16 -0.16)">
     <use xlink:href="#DejaVuSans-46"/>
     <use x="57.378906" xlink:href="#DejaVuSans-61"/>
     <use x="118.658203" xlink:href="#DejaVuSans-73"/>
     <use x="170.757812" xlink:href="#DejaVuSans-74"/>
     <use x="209.966797" xlink:href="#DejaVuSans-51"/>
     <use x="288.677734" xlink:href="#DejaVuSans-43"/>
     <use x="358.501953" xlink:href="#DejaVuSans-3a"/>
     <use x="392.193359" xlink:href="#DejaVuSans-20"/>
     <use x="423.980469" xlink:href="#DejaVuSans-50"/>
     <use x="484.236328" xlink:href="#DejaVuSans-65"/>
     <use x="545.759766" xlink:href="#DejaVuSans-72"/>
     <use x="586.873047" xlink:href="#DejaVuSans-20"/>
     <use x="618.660156" xlink:href="#DejaVuSans-53"/>
     <use x="682.136719" xlink:href="#DejaVuSans-65"/>
     <use x="743.660156" xlink:href="#DejaVuSans-71"/>
     <use x="807.136719" xlink:href="#DejaVuSans-75"/>
     <use x="870.515625" xlink:href="#DejaVuSans-65"/>
     <use x="932.039062" xlink:href="#DejaVuSans-6e"/>
     <use x="995.417969" xlink:href="#DejaVuSans-63"/>
     <use x="1050.398438" xlink:href="#DejaVuSans-65"/>
     <use x="1111.921875" xlink:href="#DejaVuSans-20"/>
     <use x="1143.708984" xlink:href="#DejaVuSans-47"/>
     <use x="1221.199219" xlink:href="#DejaVuSans-43"/>
     <use x="1291.023438" xlink:href="#DejaVuSans-20"/>
     <use x="1322.810547" xlink:href="#DejaVuSans-43"/>
     <use x="1392.634766" xlink:href="#DejaVuSans-6f"/>
     <use x="1453.816406" xlink:href="#DejaVuSans-6e"/>
     <use x="1517.195312" xlink:href="#DejaVuSans-74"/>
     <use x="1556.404297" xlink:href="#DejaVuSans-65"/>
     <use x="1617.927734" xlink:href="#DejaVuSans-6e"/>
     <use x="1681.306641" xlink:href="#DejaVuSans-74"/>
    </g>
   </g>
   <g id="legend_1">
    <g id="line2d_22">
     <path d="M 47.800625 325.836834 
L 63.800625 325.836834 
" style="fill:none;stroke:#f0ad4e;stroke-linecap:square;"/>
    </g>
    <g id="line2d_23"/>
    <g id="text_19">
     <!-- fastqc | SRR9264344_S0_L001_R2_001 -->
     <defs>
      <path d="M 37.109375 75.984375 
L 37.109375 68.5 
L 28.515625 68.5 
Q 23.6875 68.5 21.796875 66.546875 
Q 19.921875 64.59375 19.921875 59.515625 
L 19.921875 54.6875 
L 34.71875 54.6875 
L 34.71875 47.703125 
L 19.921875 47.703125 
L 19.921875 0 
L 10.890625 0 
L 10.890625 47.703125 
L 2.296875 47.703125 
L 2.296875 54.6875 
L 10.890625 54.6875 
L 10.890625 58.5 
Q 10.890625 67.625 15.140625 71.796875 
Q 19.390625 75.984375 28.609375 75.984375 
z
" id="DejaVuSans-66"/>
      <path d="M 21 76.421875 
L 21 -23.578125 
L 12.703125 -23.578125 
L 12.703125 76.421875 
z
" id="DejaVuSans-7c"/>
      <path d="M 44.390625 34.1875 
Q 47.5625 33.109375 50.5625 29.59375 
Q 53.5625 26.078125 56.59375 19.921875 
L 66.609375 0 
L 56 0 
L 46.6875 18.703125 
Q 43.0625 26.03125 39.671875 28.421875 
Q 36.28125 30.8125 30.421875 30.8125 
L 19.671875 30.8125 
L 19.671875 0 
L 9.8125 0 
L 9.8125 72.90625 
L 32.078125 72.90625 
Q 44.578125 72.90625 50.734375 67.671875 
Q 56.890625 62.453125 56.890625 51.90625 
Q 56.890625 45.015625 53.6875 40.46875 
Q 50.484375 35.9375 44.390625 34.1875 
z
M 19.671875 64.796875 
L 19.671875 38.921875 
L 32.078125 38.921875 
Q 39.203125 38.921875 42.84375 42.21875 
Q 46.484375 45.515625 46.484375 51.90625 
Q 46.484375 58.296875 42.84375 61.546875 
Q 39.203125 64.796875 32.078125 64.796875 
z
" id="DejaVuSans-52"/>
      <path d="M 10.984375 1.515625 
L 10.984375 10.5 
Q 14.703125 8.734375 18.5 7.8125 
Q 22.3125 6.890625 25.984375 6.890625 
Q 35.75 6.890625 40.890625 13.453125 
Q 46.046875 20.015625 46.78125 33.40625 
Q 43.953125 29.203125 39.59375 26.953125 
Q 35.25 24.703125 29.984375 24.703125 
Q 19.046875 24.703125 12.671875 31.3125 
Q 6.296875 37.9375 6.296875 49.421875 
Q 6.296875 60.640625 12.9375 67.421875 
Q 19.578125 74.21875 30.609375 74.21875 
Q 43.265625 74.21875 49.921875 64.515625 
Q 56.59375 54.828125 56.59375 36.375 
Q 56.59375 19.140625 48.40625 8.859375 
Q 40.234375 -1.421875 26.421875 -1.421875 
Q 22.703125 -1.421875 18.890625 -0.6875 
Q 15.09375 0.046875 10.984375 1.515625 
z
M 30.609375 32.421875 
Q 37.25 32.421875 41.125 36.953125 
Q 45.015625 41.5 45.015625 49.421875 
Q 45.015625 57.28125 41.125 61.84375 
Q 37.25 66.40625 30.609375 66.40625 
Q 23.96875 66.40625 20.09375 61.84375 
Q 16.21875 57.28125 16.21875 49.421875 
Q 16.21875 41.5 20.09375 36.953125 
Q 23.96875 32.421875 30.609375 32.421875 
z
" id="DejaVuSans-39"/>
      <path d="M 50.984375 -16.609375 
L 50.984375 -23.578125 
L -0.984375 -23.578125 
L -0.984375 -16.609375 
z
" id="DejaVuSans-5f"/>
      <path d="M 9.8125 72.90625 
L 19.671875 72.90625 
L 19.671875 8.296875 
L 55.171875 8.296875 
L 55.171875 0 
L 9.8125 0 
z
" id="DejaVuSans-4c"/>
     </defs>
     <g transform="translate(70.200625 328.636834)scale(0.08 -0.08)">
      <use xlink:href="#DejaVuSans-66"/>
      <use x="35.205078" xlink:href="#DejaVuSans-61"/>
      <use x="96.484375" xlink:href="#DejaVuSans-73"/>
      <use x="148.583984" xlink:href="#DejaVuSans-74"/>
      <use x="187.792969" xlink:href="#DejaVuSans-71"/>
      <use x="251.269531" xlink:href="#DejaVuSans-63"/>
      <use x="306.25" xlink:href="#DejaVuSans-20"/>
      <use x="338.037109" xlink:href="#DejaVuSans-7c"/>
      <use x="371.728516" xlink:href="#DejaVuSans-20"/>
      <use x="403.515625" xlink:href="#DejaVuSans-53"/>
      <use x="466.992188" xlink:href="#DejaVuSans-52"/>
      <use x="536.474609" xlink:href="#DejaVuSans-52"/>
      <use x="605.957031" xlink:href="#DejaVuSans-39"/>
      <use x="669.580078" xlink:href="#DejaVuSans-32"/>
      <use x="733.203125" xlink:href="#DejaVuSans-36"/>
      <use x="796.826172" xlink:href="#DejaVuSans-34"/>
      <use x="860.449219" xlink:href="#DejaVuSans-33"/>
      <use x="924.072266" xlink:href="#DejaVuSans-34"/>
      <use x="987.695312" xlink:href="#DejaVuSans-34"/>
      <use x="1051.318359" xlink:href="#DejaVuSans-5f"/>
      <use x="1101.318359" xlink:href="#DejaVuSans-53"/>
      <use x="1164.794922" xlink:href="#DejaVuSans-30"/>
      <use x="1228.417969" xlink:href="#DejaVuSans-5f"/>
      <use x="1278.417969" xlink:href="#DejaVuSans-4c"/>
      <use x="1334.130859" xlink:href="#DejaVuSans-30"/>
      <use x="1397.753906" xlink:href="#DejaVuSans-30"/>
      <use x="1461.376953" xlink:href="#DejaVuSans-31"/>
      <use x="1525" xlink:href="#DejaVuSans-5f"/>
      <use x="1575" xlink:href="#DejaVuSans-52"/>
      <use x="1644.482422" xlink:href="#DejaVuSans-32"/>
      <use x="1708.105469" xlink:href="#DejaVuSans-5f"/>
      <use x="1758.105469" xlink:href="#DejaVuSans-30"/>
      <use x="1821.728516" xlink:href="#DejaVuSans-30"/>
      <use x="1885.351562" xlink:href="#DejaVuSans-31"/>
     </g>
    </g>
    <g id="line2d_24">
     <path d="M 47.800625 337.836834 
L 63.800625 337.836834 
" style="fill:none;stroke:#d9534f;stroke-linecap:square;"/>
    </g>
    <g id="line2d_25"/>
    <g id="text_20">
     <!-- fastqc | SRR9264345_S0_L001_R2_001 -->
     <g transform="translate(70.200625 340.636834)scale(0.08 -0.08)">
      <use xlink:href="#DejaVuSans-66"/>
      <use x="35.205078" xlink:href="#DejaVuSans-61"/>
      <use x="96.484375" xlink:href="#DejaVuSans-73"/>
      <use x="148.583984" xlink:href="#DejaVuSans-74"/>
      <use x="187.792969" xlink:href="#DejaVuSans-71"/>
      <use x="251.269531" xlink:href="#DejaVuSans-63"/>
      <use x="306.25" xlink:href="#DejaVuSans-20"/>
      <use x="338.037109" xlink:href="#DejaVuSans-7c"/>
      <use x="371.728516" xlink:href="#DejaVuSans-20"/>
      <use x="403.515625" xlink:href="#DejaVuSans-53"/>
      <use x="466.992188" xlink:href="#DejaVuSans-52"/>
      <use x="536.474609" xlink:href="#DejaVuSans-52"/>
      <use x="605.957031" xlink:href="#DejaVuSans-39"/>
      <use x="669.580078" xlink:href="#DejaVuSans-32"/>
      <use x="733.203125" xlink:href="#DejaVuSans-36"/>
      <use x="796.826172" xlink:href="#DejaVuSans-34"/>
      <use x="860.449219" xlink:href="#DejaVuSans-33"/>
      <use x="924.072266" xlink:href="#DejaVuSans-34"/>
      <use x="987.695312" xlink:href="#DejaVuSans-35"/>
      <use x="1051.318359" xlink:href="#DejaVuSans-5f"/>
      <use x="1101.318359" xlink:href="#DejaVuSans-53"/>
      <use x="1164.794922" xlink:href="#DejaVuSans-30"/>
      <use x="1228.417969" xlink:href="#DejaVuSans-5f"/>
      <use x="1278.417969" xlink:href="#DejaVuSans-4c"/>
      <use x="1334.130859" xlink:href="#DejaVuSans-30"/>
      <use x="1397.753906" xlink:href="#DejaVuSans-30"/>
      <use x="1461.376953" xlink:href="#DejaVuSans-31"/>
      <use x="1525" xlink:href="#DejaVuSans-5f"/>
      <use x="1575" xlink:href="#DejaVuSans-52"/>
      <use x="1644.482422" xlink:href="#DejaVuSans-32"/>
      <use x="1708.105469" xlink:href="#DejaVuSans-5f"/>
      <use x="1758.105469" xlink:href="#DejaVuSans-30"/>
      <use x="1821.728516" xlink:href="#DejaVuSans-30"/>
      <use x="1885.351562" xlink:href="#DejaVuSans-31"/>
     </g>
    </g>
    <g id="line2d_26">
     <path d="M 47.800625 349.836834 
L 63.800625 349.836834 
" style="fill:none;stroke:#d9534f;stroke-linecap:square;"/>
    </g>
    <g id="line2d_27"/>
    <g id="text_21">
     <!-- fastqc | SRR9264346_S0_L001_R2_001 -->
     <g transform="translate(70.200625 352.636834)scale(0.08 -0.08)">
      <use xlink:href="#DejaVuSans-66"/>
      <use x="35.205078" xlink:href="#DejaVuSans-61"/>
      <use x="96.484375" xlink:href="#DejaVuSans-73"/>
      <use x="148.583984" xlink:href="#DejaVuSans-74"/>
      <use x="187.792969" xlink:href="#DejaVuSans-71"/>
      <use x="251.269531" xlink:href="#DejaVuSans-63"/>
      <use x="306.25" xlink:href="#DejaVuSans-20"/>
      <use x="338.037109" xlink:href="#DejaVuSans-7c"/>
      <use x="371.728516" xlink:href="#DejaVuSans-20"/>
      <use x="403.515625" xlink:href="#DejaVuSans-53"/>
      <use x="466.992188" xlink:href="#DejaVuSans-52"/>
      <use x="536.474609" xlink:href="#DejaVuSans-52"/>
      <use x="605.957031" xlink:href="#DejaVuSans-39"/>
      <use x="669.580078" xlink:href="#DejaVuSans-32"/>
      <use x="733.203125" xlink:href="#DejaVuSans-36"/>
      <use x="796.826172" xlink:href="#DejaVuSans-34"/>
      <use x="860.449219" xlink:href="#DejaVuSans-33"/>
      <use x="924.072266" xlink:href="#DejaVuSans-34"/>
      <use x="987.695312" xlink:href="#DejaVuSans-36"/>
      <use x="1051.318359" xlink:href="#DejaVuSans-5f"/>
      <use x="1101.318359" xlink:href="#DejaVuSans-53"/>
      <use x="1164.794922" xlink:href="#DejaVuSans-30"/>
      <use x="1228.417969" xlink:href="#DejaVuSans-5f"/>
      <use x="1278.417969" xlink:href="#DejaVuSans-4c"/>
      <use x="1334.130859" xlink:href="#DejaVuSans-30"/>
      <use x="1397.753906" xlink:href="#DejaVuSans-30"/>
      <use x="1461.376953" xlink:href="#DejaVuSans-31"/>
      <use x="1525" xlink:href="#DejaVuSans-5f"/>
      <use x="1575" xlink:href="#DejaVuSans-52"/>
      <use x="1644.482422" xlink:href="#DejaVuSans-32"/>
      <use x="1708.105469" xlink:href="#DejaVuSans-5f"/>
      <use x="1758.105469" xlink:href="#DejaVuSans-30"/>
      <use x="1821.728516" xlink:href="#DejaVuSans-30"/>
      <use x="1885.351562" xlink:href="#DejaVuSans-31"/>
     </g>
    </g>
    <g id="line2d_28">
     <path d="M 235.865313 325.836834 
L 251.865313 325.836834 
" style="fill:none;stroke:#5cb85c;stroke-linecap:square;"/>
    </g>
    <g id="line2d_29"/>
    <g id="text_22">
     <!-- fastqc | SRR9264347_S0_L001_R2_001 -->
     <defs>
      <path d="M 8.203125 72.90625 
L 55.078125 72.90625 
L 55.078125 68.703125 
L 28.609375 0 
L 18.3125 0 
L 43.21875 64.59375 
L 8.203125 64.59375 
z
" id="DejaVuSans-37"/>
     </defs>
     <g transform="translate(258.265312 328.636834)scale(0.08 -0.08)">
      <use xlink:href="#DejaVuSans-66"/>
      <use x="35.205078" xlink:href="#DejaVuSans-61"/>
      <use x="96.484375" xlink:href="#DejaVuSans-73"/>
      <use x="148.583984" xlink:href="#DejaVuSans-74"/>
      <use x="187.792969" xlink:href="#DejaVuSans-71"/>
      <use x="251.269531" xlink:href="#DejaVuSans-63"/>
      <use x="306.25" xlink:href="#DejaVuSans-20"/>
      <use x="338.037109" xlink:href="#DejaVuSans-7c"/>
      <use x="371.728516" xlink:href="#DejaVuSans-20"/>
      <use x="403.515625" xlink:href="#DejaVuSans-53"/>
      <use x="466.992188" xlink:href="#DejaVuSans-52"/>
      <use x="536.474609" xlink:href="#DejaVuSans-52"/>
      <use x="605.957031" xlink:href="#DejaVuSans-39"/>
      <use x="669.580078" xlink:href="#DejaVuSans-32"/>
      <use x="733.203125" xlink:href="#DejaVuSans-36"/>
      <use x="796.826172" xlink:href="#DejaVuSans-34"/>
      <use x="860.449219" xlink:href="#DejaVuSans-33"/>
      <use x="924.072266" xlink:href="#DejaVuSans-34"/>
      <use x="987.695312" xlink:href="#DejaVuSans-37"/>
      <use x="1051.318359" xlink:href="#DejaVuSans-5f"/>
      <use x="1101.318359" xlink:href="#DejaVuSans-53"/>
      <use x="1164.794922" xlink:href="#DejaVuSans-30"/>
      <use x="1228.417969" xlink:href="#DejaVuSans-5f"/>
      <use x="1278.417969" xlink:href="#DejaVuSans-4c"/>
      <use x="1334.130859" xlink:href="#DejaVuSans-30"/>
      <use x="1397.753906" xlink:href="#DejaVuSans-30"/>
      <use x="1461.376953" xlink:href="#DejaVuSans-31"/>
      <use x="1525" xlink:href="#DejaVuSans-5f"/>
      <use x="1575" xlink:href="#DejaVuSans-52"/>
      <use x="1644.482422" xlink:href="#DejaVuSans-32"/>
      <use x="1708.105469" xlink:href="#DejaVuSans-5f"/>
      <use x="1758.105469" xlink:href="#DejaVuSans-30"/>
      <use x="1821.728516" xlink:href="#DejaVuSans-30"/>
      <use x="1885.351562" xlink:href="#DejaVuSans-31"/>
     </g>
    </g>
    <g id="line2d_30">
     <path d="M 235.865313 337.836834 
L 251.865313 337.836834 
" style="fill:none;stroke:#f0ad4e;stroke-linecap:square;"/>
    </g>
    <g id="line2d_31"/>
    <g id="text_23">
     <!-- fastqc | SRR9264348_S0_L001_R2_001 -->
     <g transform="translate(258.265312 340.636834)scale(0.08 -0.08)">
      <use xlink:href="#DejaVuSans-66"/>
      <use x="35.205078" xlink:href="#DejaVuSans-61"/>
      <use x="96.484375" xlink:href="#DejaVuSans-73"/>
      <use x="148.583984" xlink:href="#DejaVuSans-74"/>
      <use x="187.792969" xlink:href="#DejaVuSans-71"/>
      <use x="251.269531" xlink:href="#DejaVuSans-63"/>
      <use x="306.25" xlink:href="#DejaVuSans-20"/>
      <use x="338.037109" xlink:href="#DejaVuSans-7c"/>
      <use x="371.728516" xlink:href="#DejaVuSans-20"/>
      <use x="403.515625" xlink:href="#DejaVuSans-53"/>
      <use x="466.992188" xlink:href="#DejaVuSans-52"/>
      <use x="536.474609" xlink:href="#DejaVuSans-52"/>
      <use x="605.957031" xlink:href="#DejaVuSans-39"/>
      <use x="669.580078" xlink:href="#DejaVuSans-32"/>
      <use x="733.203125" xlink:href="#DejaVuSans-36"/>
      <use x="796.826172" xlink:href="#DejaVuSans-34"/>
      <use x="860.449219" xlink:href="#DejaVuSans-33"/>
      <use x="924.072266" xlink:href="#DejaVuSans-34"/>
      <use x="987.695312" xlink:href="#DejaVuSans-38"/>
      <use x="1051.318359" xlink:href="#DejaVuSans-5f"/>
      <use x="1101.318359" xlink:href="#DejaVuSans-53"/>
      <use x="1164.794922" xlink:href="#DejaVuSans-30"/>
      <use x="1228.417969" xlink:href="#DejaVuSans-5f"/>
      <use x="1278.417969" xlink:href="#DejaVuSans-4c"/>
      <use x="1334.130859" xlink:href="#DejaVuSans-30"/>
      <use x="1397.753906" xlink:href="#DejaVuSans-30"/>
      <use x="1461.376953" xlink:href="#DejaVuSans-31"/>
      <use x="1525" xlink:href="#DejaVuSans-5f"/>
      <use x="1575" xlink:href="#DejaVuSans-52"/>
      <use x="1644.482422" xlink:href="#DejaVuSans-32"/>
      <use x="1708.105469" xlink:href="#DejaVuSans-5f"/>
      <use x="1758.105469" xlink:href="#DejaVuSans-30"/>
      <use x="1821.728516" xlink:href="#DejaVuSans-30"/>
      <use x="1885.351562" xlink:href="#DejaVuSans-31"/>
     </g>
    </g>
    <g id="line2d_32">
     <path d="M 423.93 325.836834 
L 439.93 325.836834 
" style="fill:none;stroke:#f0ad4e;stroke-linecap:square;"/>
    </g>
    <g id="line2d_33"/>
    <g id="text_24">
     <!-- fastqc | SRR9264349_S0_L001_R2_001 -->
     <g transform="translate(446.33 328.636834)scale(0.08 -0.08)">
      <use xlink:href="#DejaVuSans-66"/>
      <use x="35.205078" xlink:href="#DejaVuSans-61"/>
      <use x="96.484375" xlink:href="#DejaVuSans-73"/>
      <use x="148.583984" xlink:href="#DejaVuSans-74"/>
      <use x="187.792969" xlink:href="#DejaVuSans-71"/>
      <use x="251.269531" xlink:href="#DejaVuSans-63"/>
      <use x="306.25" xlink:href="#DejaVuSans-20"/>
      <use x="338.037109" xlink:href="#DejaVuSans-7c"/>
      <use x="371.728516" xlink:href="#DejaVuSans-20"/>
      <use x="403.515625" xlink:href="#DejaVuSans-53"/>
      <use x="466.992188" xlink:href="#DejaVuSans-52"/>
      <use x="536.474609" xlink:href="#DejaVuSans-52"/>
      <use x="605.957031" xlink:href="#DejaVuSans-39"/>
      <use x="669.580078" xlink:href="#DejaVuSans-32"/>
      <use x="733.203125" xlink:href="#DejaVuSans-36"/>
      <use x="796.826172" xlink:href="#DejaVuSans-34"/>
      <use x="860.449219" xlink:href="#DejaVuSans-33"/>
      <use x="924.072266" xlink:href="#DejaVuSans-34"/>
      <use x="987.695312" xlink:href="#DejaVuSans-39"/>
      <use x="1051.318359" xlink:href="#DejaVuSans-5f"/>
      <use x="1101.318359" xlink:href="#DejaVuSans-53"/>
      <use x="1164.794922" xlink:href="#DejaVuSans-30"/>
      <use x="1228.417969" xlink:href="#DejaVuSans-5f"/>
      <use x="1278.417969" xlink:href="#DejaVuSans-4c"/>
      <use x="1334.130859" xlink:href="#DejaVuSans-30"/>
      <use x="1397.753906" xlink:href="#DejaVuSans-30"/>
      <use x="1461.376953" xlink:href="#DejaVuSans-31"/>
      <use x="1525" xlink:href="#DejaVuSans-5f"/>
      <use x="1575" xlink:href="#DejaVuSans-52"/>
      <use x="1644.482422" xlink:href="#DejaVuSans-32"/>
      <use x="1708.105469" xlink:href="#DejaVuSans-5f"/>
      <use x="1758.105469" xlink:href="#DejaVuSans-30"/>
      <use x="1821.728516" xlink:href="#DejaVuSans-30"/>
      <use x="1885.351562" xlink:href="#DejaVuSans-31"/>
     </g>
    </g>
    <g id="line2d_34">
     <path d="M 423.93 337.836834 
L 439.93 337.836834 
" style="fill:none;stroke:#f0ad4e;stroke-linecap:square;"/>
    </g>
    <g id="line2d_35"/>
    <g id="text_25">
     <!-- fastqc | SRR9264350_S0_L001_R2_001 -->
     <g transform="translate(446.33 340.636834)scale(0.08 -0.08)">
      <use xlink:href="#DejaVuSans-66"/>
      <use x="35.205078" xlink:href="#DejaVuSans-61"/>
      <use x="96.484375" xlink:href="#DejaVuSans-73"/>
      <use x="148.583984" xlink:href="#DejaVuSans-74"/>
      <use x="187.792969" xlink:href="#DejaVuSans-71"/>
      <use x="251.269531" xlink:href="#DejaVuSans-63"/>
      <use x="306.25" xlink:href="#DejaVuSans-20"/>
      <use x="338.037109" xlink:href="#DejaVuSans-7c"/>
      <use x="371.728516" xlink:href="#DejaVuSans-20"/>
      <use x="403.515625" xlink:href="#DejaVuSans-53"/>
      <use x="466.992188" xlink:href="#DejaVuSans-52"/>
      <use x="536.474609" xlink:href="#DejaVuSans-52"/>
      <use x="605.957031" xlink:href="#DejaVuSans-39"/>
      <use x="669.580078" xlink:href="#DejaVuSans-32"/>
      <use x="733.203125" xlink:href="#DejaVuSans-36"/>
      <use x="796.826172" xlink:href="#DejaVuSans-34"/>
      <use x="860.449219" xlink:href="#DejaVuSans-33"/>
      <use x="924.072266" xlink:href="#DejaVuSans-35"/>
      <use x="987.695312" xlink:href="#DejaVuSans-30"/>
      <use x="1051.318359" xlink:href="#DejaVuSans-5f"/>
      <use x="1101.318359" xlink:href="#DejaVuSans-53"/>
      <use x="1164.794922" xlink:href="#DejaVuSans-30"/>
      <use x="1228.417969" xlink:href="#DejaVuSans-5f"/>
      <use x="1278.417969" xlink:href="#DejaVuSans-4c"/>
      <use x="1334.130859" xlink:href="#DejaVuSans-30"/>
      <use x="1397.753906" xlink:href="#DejaVuSans-30"/>
      <use x="1461.376953" xlink:href="#DejaVuSans-31"/>
      <use x="1525" xlink:href="#DejaVuSans-5f"/>
      <use x="1575" xlink:href="#DejaVuSans-52"/>
      <use x="1644.482422" xlink:href="#DejaVuSans-32"/>
      <use x="1708.105469" xlink:href="#DejaVuSans-5f"/>
      <use x="1758.105469" xlink:href="#DejaVuSans-30"/>
      <use x="1821.728516" xlink:href="#DejaVuSans-30"/>
      <use x="1885.351562" xlink:href="#DejaVuSans-31"/>
     </g>
    </g>
    <g id="line2d_36">
     <path d="M 611.994688 325.836834 
L 627.994688 325.836834 
" style="fill:none;stroke:#f0ad4e;stroke-linecap:square;"/>
    </g>
    <g id="line2d_37"/>
    <g id="text_26">
     <!-- fastqc | SRR9264351_S0_L001_R2_001 -->
     <g transform="translate(634.394688 328.636834)scale(0.08 -0.08)">
      <use xlink:href="#DejaVuSans-66"/>
      <use x="35.205078" xlink:href="#DejaVuSans-61"/>
      <use x="96.484375" xlink:href="#DejaVuSans-73"/>
      <use x="148.583984" xlink:href="#DejaVuSans-74"/>
      <use x="187.792969" xlink:href="#DejaVuSans-71"/>
      <use x="251.269531" xlink:href="#DejaVuSans-63"/>
      <use x="306.25" xlink:href="#DejaVuSans-20"/>
      <use x="338.037109" xlink:href="#DejaVuSans-7c"/>
      <use x="371.728516" xlink:href="#DejaVuSans-20"/>
      <use x="403.515625" xlink:href="#DejaVuSans-53"/>
      <use x="466.992188" xlink:href="#DejaVuSans-52"/>
      <use x="536.474609" xlink:href="#DejaVuSans-52"/>
      <use x="605.957031" xlink:href="#DejaVuSans-39"/>
      <use x="669.580078" xlink:href="#DejaVuSans-32"/>
      <use x="733.203125" xlink:href="#DejaVuSans-36"/>
      <use x="796.826172" xlink:href="#DejaVuSans-34"/>
      <use x="860.449219" xlink:href="#DejaVuSans-33"/>
      <use x="924.072266" xlink:href="#DejaVuSans-35"/>
      <use x="987.695312" xlink:href="#DejaVuSans-31"/>
      <use x="1051.318359" xlink:href="#DejaVuSans-5f"/>
      <use x="1101.318359" xlink:href="#DejaVuSans-53"/>
      <use x="1164.794922" xlink:href="#DejaVuSans-30"/>
      <use x="1228.417969" xlink:href="#DejaVuSans-5f"/>
      <use x="1278.417969" xlink:href="#DejaVuSans-4c"/>
      <use x="1334.130859" xlink:href="#DejaVuSans-30"/>
      <use x="1397.753906" xlink:href="#DejaVuSans-30"/>
      <use x="1461.376953" xlink:href="#DejaVuSans-31"/>
      <use x="1525" xlink:href="#DejaVuSans-5f"/>
      <use x="1575" xlink:href="#DejaVuSans-52"/>
      <use x="1644.482422" xlink:href="#DejaVuSans-32"/>
      <use x="1708.105469" xlink:href="#DejaVuSans-5f"/>
      <use x="1758.105469" xlink:href="#DejaVuSans-30"/>
      <use x="1821.728516" xlink:href="#DejaVuSans-30"/>
      <use x="1885.351562" xlink:href="#DejaVuSans-31"/>
     </g>
    </g>
    <g id="line2d_38">
     <path d="M 611.994688 337.836834 
L 627.994688 337.836834 
" style="fill:none;stroke:#f0ad4e;stroke-linecap:square;"/>
    </g>
    <g id="line2d_39"/>
    <g id="text_27">
     <!-- fastqc | SRR9264352_S0_L001_R2_001 -->
     <g transform="translate(634.394688 340.636834)scale(0.08 -0.08)">
      <use xlink:href="#DejaVuSans-66"/>
      <use x="35.205078" xlink:href="#DejaVuSans-61"/>
      <use x="96.484375" xlink:href="#DejaVuSans-73"/>
      <use x="148.583984" xlink:href="#DejaVuSans-74"/>
      <use x="187.792969" xlink:href="#DejaVuSans-71"/>
      <use x="251.269531" xlink:href="#DejaVuSans-63"/>
      <use x="306.25" xlink:href="#DejaVuSans-20"/>
      <use x="338.037109" xlink:href="#DejaVuSans-7c"/>
      <use x="371.728516" xlink:href="#DejaVuSans-20"/>
      <use x="403.515625" xlink:href="#DejaVuSans-53"/>
      <use x="466.992188" xlink:href="#DejaVuSans-52"/>
      <use x="536.474609" xlink:href="#DejaVuSans-52"/>
      <use x="605.957031" xlink:href="#DejaVuSans-39"/>
      <use x="669.580078" xlink:href="#DejaVuSans-32"/>
      <use x="733.203125" xlink:href="#DejaVuSans-36"/>
      <use x="796.826172" xlink:href="#DejaVuSans-34"/>
      <use x="860.449219" xlink:href="#DejaVuSans-33"/>
      <use x="924.072266" xlink:href="#DejaVuSans-35"/>
      <use x="987.695312" xlink:href="#DejaVuSans-32"/>
      <use x="1051.318359" xlink:href="#DejaVuSans-5f"/>
      <use x="1101.318359" xlink:href="#DejaVuSans-53"/>
      <use x="1164.794922" xlink:href="#DejaVuSans-30"/>
      <use x="1228.417969" xlink:href="#DejaVuSans-5f"/>
      <use x="1278.417969" xlink:href="#DejaVuSans-4c"/>
      <use x="1334.130859" xlink:href="#DejaVuSans-30"/>
      <use x="1397.753906" xlink:href="#DejaVuSans-30"/>
      <use x="1461.376953" xlink:href="#DejaVuSans-31"/>
      <use x="1525" xlink:href="#DejaVuSans-5f"/>
      <use x="1575" xlink:href="#DejaVuSans-52"/>
      <use x="1644.482422" xlink:href="#DejaVuSans-32"/>
      <use x="1708.105469" xlink:href="#DejaVuSans-5f"/>
      <use x="1758.105469" xlink:href="#DejaVuSans-30"/>
      <use x="1821.728516" xlink:href="#DejaVuSans-30"/>
      <use x="1885.351562" xlink:href="#DejaVuSans-31"/>
     </g>
    </g>
    <g id="line2d_40">
     <path d="M 800.059375 325.836834 
L 816.059375 325.836834 
" style="fill:none;stroke:#d9534f;stroke-linecap:square;"/>
    </g>
    <g id="line2d_41"/>
    <g id="text_28">
     <!-- fastqc | SRR9264353_S0_L001_R2_001 -->
     <g transform="translate(822.459375 328.636834)scale(0.08 -0.08)">
      <use xlink:href="#DejaVuSans-66"/>
      <use x="35.205078" xlink:href="#DejaVuSans-61"/>
      <use x="96.484375" xlink:href="#DejaVuSans-73"/>
      <use x="148.583984" xlink:href="#DejaVuSans-74"/>
      <use x="187.792969" xlink:href="#DejaVuSans-71"/>
      <use x="251.269531" xlink:href="#DejaVuSans-63"/>
      <use x="306.25" xlink:href="#DejaVuSans-20"/>
      <use x="338.037109" xlink:href="#DejaVuSans-7c"/>
      <use x="371.728516" xlink:href="#DejaVuSans-20"/>
      <use x="403.515625" xlink:href="#DejaVuSans-53"/>
      <use x="466.992188" xlink:href="#DejaVuSans-52"/>
      <use x="536.474609" xlink:href="#DejaVuSans-52"/>
      <use x="605.957031" xlink:href="#DejaVuSans-39"/>
      <use x="669.580078" xlink:href="#DejaVuSans-32"/>
      <use x="733.203125" xlink:href="#DejaVuSans-36"/>
      <use x="796.826172" xlink:href="#DejaVuSans-34"/>
      <use x="860.449219" xlink:href="#DejaVuSans-33"/>
      <use x="924.072266" xlink:href="#DejaVuSans-35"/>
      <use x="987.695312" xlink:href="#DejaVuSans-33"/>
      <use x="1051.318359" xlink:href="#DejaVuSans-5f"/>
      <use x="1101.318359" xlink:href="#DejaVuSans-53"/>
      <use x="1164.794922" xlink:href="#DejaVuSans-30"/>
      <use x="1228.417969" xlink:href="#DejaVuSans-5f"/>
      <use x="1278.417969" xlink:href="#DejaVuSans-4c"/>
      <use x="1334.130859" xlink:href="#DejaVuSans-30"/>
      <use x="1397.753906" xlink:href="#DejaVuSans-30"/>
      <use x="1461.376953" xlink:href="#DejaVuSans-31"/>
      <use x="1525" xlink:href="#DejaVuSans-5f"/>
      <use x="1575" xlink:href="#DejaVuSans-52"/>
      <use x="1644.482422" xlink:href="#DejaVuSans-32"/>
      <use x="1708.105469" xlink:href="#DejaVuSans-5f"/>
      <use x="1758.105469" xlink:href="#DejaVuSans-30"/>
      <use x="1821.728516" xlink:href="#DejaVuSans-30"/>
      <use x="1885.351562" xlink:href="#DejaVuSans-31"/>
     </g>
    </g>
    <g id="line2d_42">
     <path d="M 800.059375 337.836834 
L 816.059375 337.836834 
" style="fill:none;stroke:#f0ad4e;stroke-linecap:square;"/>
    </g>
    <g id="line2d_43"/>
    <g id="text_29">
     <!-- fastqc | SRR9264354_S0_L001_R2_001 -->
     <g transform="translate(822.459375 340.636834)scale(0.08 -0.08)">
      <use xlink:href="#DejaVuSans-66"/>
      <use x="35.205078" xlink:href="#DejaVuSans-61"/>
      <use x="96.484375" xlink:href="#DejaVuSans-73"/>
      <use x="148.583984" xlink:href="#DejaVuSans-74"/>
      <use x="187.792969" xlink:href="#DejaVuSans-71"/>
      <use x="251.269531" xlink:href="#DejaVuSans-63"/>
      <use x="306.25" xlink:href="#DejaVuSans-20"/>
      <use x="338.037109" xlink:href="#DejaVuSans-7c"/>
      <use x="371.728516" xlink:href="#DejaVuSans-20"/>
      <use x="403.515625" xlink:href="#DejaVuSans-53"/>
      <use x="466.992188" xlink:href="#DejaVuSans-52"/>
      <use x="536.474609" xlink:href="#DejaVuSans-52"/>
      <use x="605.957031" xlink:href="#DejaVuSans-39"/>
      <use x="669.580078" xlink:href="#DejaVuSans-32"/>
      <use x="733.203125" xlink:href="#DejaVuSans-36"/>
      <use x="796.826172" xlink:href="#DejaVuSans-34"/>
      <use x="860.449219" xlink:href="#DejaVuSans-33"/>
      <use x="924.072266" xlink:href="#DejaVuSans-35"/>
      <use x="987.695312" xlink:href="#DejaVuSans-34"/>
      <use x="1051.318359" xlink:href="#DejaVuSans-5f"/>
      <use x="1101.318359" xlink:href="#DejaVuSans-53"/>
      <use x="1164.794922" xlink:href="#DejaVuSans-30"/>
      <use x="1228.417969" xlink:href="#DejaVuSans-5f"/>
      <use x="1278.417969" xlink:href="#DejaVuSans-4c"/>
      <use x="1334.130859" xlink:href="#DejaVuSans-30"/>
      <use x="1397.753906" xlink:href="#DejaVuSans-30"/>
      <use x="1461.376953" xlink:href="#DejaVuSans-31"/>
      <use x="1525" xlink:href="#DejaVuSans-5f"/>
      <use x="1575" xlink:href="#DejaVuSans-52"/>
      <use x="1644.482422" xlink:href="#DejaVuSans-32"/>
      <use x="1708.105469" xlink:href="#DejaVuSans-5f"/>
      <use x="1758.105469" xlink:href="#DejaVuSans-30"/>
      <use x="1821.728516" xlink:href="#DejaVuSans-30"/>
      <use x="1885.351562" xlink:href="#DejaVuSans-31"/>
     </g>
    </g>
   </g>
  </g>
 </g>
 <defs>
  <clipPath id="pe17d51c214">
   <rect height="269.5792" width="944.98" x="40.600625" y="32.83646"/>
  </clipPath>
 </defs>
</svg>
