<?xml version="1.0" encoding="utf-8" standalone="no"?>
<!DOCTYPE svg PUBLIC "-//W3C//DTD SVG 1.1//EN"
  "http://www.w3.org/Graphics/SVG/1.1/DTD/svg11.dtd">
<!-- Created with matplotlib (http://matplotlib.org/) -->
<svg height="354.255084pt" version="1.1" viewBox="0 0 1000.415625 354.255084" width="1000.415625pt" xmlns="http://www.w3.org/2000/svg" xmlns:xlink="http://www.w3.org/1999/xlink">
 <defs>
  <style type="text/css">
*{stroke-linecap:butt;stroke-linejoin:round;}
  </style>
 </defs>
 <g id="figure_1">
  <g id="patch_1">
   <path d="M 0 354.255084 
L 1000.415625 354.255084 
L 1000.415625 0 
L 0 0 
z
" style="fill:#ffffff;"/>
  </g>
  <g id="axes_1">
   <g id="patch_2">
    <path d="M 40.600625 293.59566 
L 985.580625 293.59566 
L 985.580625 32.41646 
L 40.600625 32.41646 
z
" style="fill:#ffffff;"/>
   </g>
   <g id="matplotlib.axis_1">
    <g id="xtick_1">
     <g id="text_1">
      <!-- 0 -->
      <defs>
       <path d="M 31.78125 66.40625 
Q 24.171875 66.40625 20.328125 58.90625 
Q 16.5 51.421875 16.5 36.375 
Q 16.5 21.390625 20.328125 13.890625 
Q 24.171875 6.390625 31.78125 6.390625 
Q 39.453125 6.390625 43.28125 13.890625 
Q 47.125 21.390625 47.125 36.375 
Q 47.125 51.421875 43.28125 58.90625 
Q 39.453125 66.40625 31.78125 66.40625 
z
M 31.78125 74.21875 
Q 44.046875 74.21875 50.515625 64.515625 
Q 56.984375 54.828125 56.984375 36.375 
Q 56.984375 17.96875 50.515625 8.265625 
Q 44.046875 -1.421875 31.78125 -1.421875 
Q 19.53125 -1.421875 13.0625 8.265625 
Q 6.59375 17.96875 6.59375 36.375 
Q 6.59375 54.828125 13.0625 64.515625 
Q 19.53125 74.21875 31.78125 74.21875 
z
" id="DejaVuSans-30"/>
      </defs>
      <g transform="translate(38.055625 306.67441)scale(0.08 -0.08)">
       <use xlink:href="#DejaVuSans-30"/>
      </g>
     </g>
    </g>
    <g id="xtick_2">
     <g id="text_2">
      <!-- 20 -->
      <defs>
       <path d="M 19.1875 8.296875 
L 53.609375 8.296875 
L 53.609375 0 
L 7.328125 0 
L 7.328125 8.296875 
Q 12.9375 14.109375 22.625 23.890625 
Q 32.328125 33.6875 34.8125 36.53125 
Q 39.546875 41.84375 41.421875 45.53125 
Q 43.3125 49.21875 43.3125 52.78125 
Q 43.3125 58.59375 39.234375 62.25 
Q 35.15625 65.921875 28.609375 65.921875 
Q 23.96875 65.921875 18.8125 64.3125 
Q 13.671875 62.703125 7.8125 59.421875 
L 7.8125 69.390625 
Q 13.765625 71.78125 18.9375 73 
Q 24.125 74.21875 28.421875 74.21875 
Q 39.75 74.21875 46.484375 68.546875 
Q 53.21875 62.890625 53.21875 53.421875 
Q 53.21875 48.921875 51.53125 44.890625 
Q 49.859375 40.875 45.40625 35.40625 
Q 44.1875 33.984375 37.640625 27.21875 
Q 31.109375 20.453125 19.1875 8.296875 
z
" id="DejaVuSans-32"/>
      </defs>
      <g transform="translate(224.506625 306.67441)scale(0.08 -0.08)">
       <use xlink:href="#DejaVuSans-32"/>
       <use x="63.623047" xlink:href="#DejaVuSans-30"/>
      </g>
     </g>
    </g>
    <g id="xtick_3">
     <g id="text_3">
      <!-- 40 -->
      <defs>
       <path d="M 37.796875 64.3125 
L 12.890625 25.390625 
L 37.796875 25.390625 
z
M 35.203125 72.90625 
L 47.609375 72.90625 
L 47.609375 25.390625 
L 58.015625 25.390625 
L 58.015625 17.1875 
L 47.609375 17.1875 
L 47.609375 0 
L 37.796875 0 
L 37.796875 17.1875 
L 4.890625 17.1875 
L 4.890625 26.703125 
z
" id="DejaVuSans-34"/>
      </defs>
      <g transform="translate(413.502625 306.67441)scale(0.08 -0.08)">
       <use xlink:href="#DejaVuSans-34"/>
       <use x="63.623047" xlink:href="#DejaVuSans-30"/>
      </g>
     </g>
    </g>
    <g id="xtick_4">
     <g id="text_4">
      <!-- 60 -->
      <defs>
       <path d="M 33.015625 40.375 
Q 26.375 40.375 22.484375 35.828125 
Q 18.609375 31.296875 18.609375 23.390625 
Q 18.609375 15.53125 22.484375 10.953125 
Q 26.375 6.390625 33.015625 6.390625 
Q 39.65625 6.390625 43.53125 10.953125 
Q 47.40625 15.53125 47.40625 23.390625 
Q 47.40625 31.296875 43.53125 35.828125 
Q 39.65625 40.375 33.015625 40.375 
z
M 52.59375 71.296875 
L 52.59375 62.3125 
Q 48.875 64.0625 45.09375 64.984375 
Q 41.3125 65.921875 37.59375 65.921875 
Q 27.828125 65.921875 22.671875 59.328125 
Q 17.53125 52.734375 16.796875 39.40625 
Q 19.671875 43.65625 24.015625 45.921875 
Q 28.375 48.1875 33.59375 48.1875 
Q 44.578125 48.1875 50.953125 41.515625 
Q 57.328125 34.859375 57.328125 23.390625 
Q 57.328125 12.15625 50.6875 5.359375 
Q 44.046875 -1.421875 33.015625 -1.421875 
Q 20.359375 -1.421875 13.671875 8.265625 
Q 6.984375 17.96875 6.984375 36.375 
Q 6.984375 53.65625 15.1875 63.9375 
Q 23.390625 74.21875 37.203125 74.21875 
Q 40.921875 74.21875 44.703125 73.484375 
Q 48.484375 72.75 52.59375 71.296875 
z
" id="DejaVuSans-36"/>
      </defs>
      <g transform="translate(602.498625 306.67441)scale(0.08 -0.08)">
       <use xlink:href="#DejaVuSans-36"/>
       <use x="63.623047" xlink:href="#DejaVuSans-30"/>
      </g>
     </g>
    </g>
    <g id="xtick_5">
     <g id="text_5">
      <!-- 80 -->
      <defs>
       <path d="M 31.78125 34.625 
Q 24.75 34.625 20.71875 30.859375 
Q 16.703125 27.09375 16.703125 20.515625 
Q 16.703125 13.921875 20.71875 10.15625 
Q 24.75 6.390625 31.78125 6.390625 
Q 38.8125 6.390625 42.859375 10.171875 
Q 46.921875 13.96875 46.921875 20.515625 
Q 46.921875 27.09375 42.890625 30.859375 
Q 38.875 34.625 31.78125 34.625 
z
M 21.921875 38.8125 
Q 15.578125 40.375 12.03125 44.71875 
Q 8.5 49.078125 8.5 55.328125 
Q 8.5 64.0625 14.71875 69.140625 
Q 20.953125 74.21875 31.78125 74.21875 
Q 42.671875 74.21875 48.875 69.140625 
Q 55.078125 64.0625 55.078125 55.328125 
Q 55.078125 49.078125 51.53125 44.71875 
Q 48 40.375 41.703125 38.8125 
Q 48.828125 37.15625 52.796875 32.3125 
Q 56.78125 27.484375 56.78125 20.515625 
Q 56.78125 9.90625 50.3125 4.234375 
Q 43.84375 -1.421875 31.78125 -1.421875 
Q 19.734375 -1.421875 13.25 4.234375 
Q 6.78125 9.90625 6.78125 20.515625 
Q 6.78125 27.484375 10.78125 32.3125 
Q 14.796875 37.15625 21.921875 38.8125 
z
M 18.3125 54.390625 
Q 18.3125 48.734375 21.84375 45.5625 
Q 25.390625 42.390625 31.78125 42.390625 
Q 38.140625 42.390625 41.71875 45.5625 
Q 45.3125 48.734375 45.3125 54.390625 
Q 45.3125 60.0625 41.71875 63.234375 
Q 38.140625 66.40625 31.78125 66.40625 
Q 25.390625 66.40625 21.84375 63.234375 
Q 18.3125 60.0625 18.3125 54.390625 
z
" id="DejaVuSans-38"/>
      </defs>
      <g transform="translate(791.494625 306.67441)scale(0.08 -0.08)">
       <use xlink:href="#DejaVuSans-38"/>
       <use x="63.623047" xlink:href="#DejaVuSans-30"/>
      </g>
     </g>
    </g>
    <g id="xtick_6">
     <g id="text_6">
      <!-- 100 -->
      <defs>
       <path d="M 12.40625 8.296875 
L 28.515625 8.296875 
L 28.515625 63.921875 
L 10.984375 60.40625 
L 10.984375 69.390625 
L 28.421875 72.90625 
L 38.28125 72.90625 
L 38.28125 8.296875 
L 54.390625 8.296875 
L 54.390625 0 
L 12.40625 0 
z
" id="DejaVuSans-31"/>
      </defs>
      <g transform="translate(977.945625 306.67441)scale(0.08 -0.08)">
       <use xlink:href="#DejaVuSans-31"/>
       <use x="63.623047" xlink:href="#DejaVuSans-30"/>
       <use x="127.246094" xlink:href="#DejaVuSans-30"/>
      </g>
     </g>
    </g>
    <g id="text_7">
     <!-- % GC -->
     <defs>
      <path d="M 72.703125 32.078125 
Q 68.453125 32.078125 66.03125 28.46875 
Q 63.625 24.859375 63.625 18.40625 
Q 63.625 12.0625 66.03125 8.421875 
Q 68.453125 4.78125 72.703125 4.78125 
Q 76.859375 4.78125 79.265625 8.421875 
Q 81.6875 12.0625 81.6875 18.40625 
Q 81.6875 24.8125 79.265625 28.4375 
Q 76.859375 32.078125 72.703125 32.078125 
z
M 72.703125 38.28125 
Q 80.421875 38.28125 84.953125 32.90625 
Q 89.5 27.546875 89.5 18.40625 
Q 89.5 9.28125 84.9375 3.921875 
Q 80.375 -1.421875 72.703125 -1.421875 
Q 64.890625 -1.421875 60.34375 3.921875 
Q 55.8125 9.28125 55.8125 18.40625 
Q 55.8125 27.59375 60.375 32.9375 
Q 64.9375 38.28125 72.703125 38.28125 
z
M 22.3125 68.015625 
Q 18.109375 68.015625 15.6875 64.375 
Q 13.28125 60.75 13.28125 54.390625 
Q 13.28125 47.953125 15.671875 44.328125 
Q 18.0625 40.71875 22.3125 40.71875 
Q 26.5625 40.71875 28.96875 44.328125 
Q 31.390625 47.953125 31.390625 54.390625 
Q 31.390625 60.6875 28.953125 64.34375 
Q 26.515625 68.015625 22.3125 68.015625 
z
M 66.40625 74.21875 
L 74.21875 74.21875 
L 28.609375 -1.421875 
L 20.796875 -1.421875 
z
M 22.3125 74.21875 
Q 30.03125 74.21875 34.609375 68.875 
Q 39.203125 63.53125 39.203125 54.390625 
Q 39.203125 45.171875 34.640625 39.84375 
Q 30.078125 34.515625 22.3125 34.515625 
Q 14.546875 34.515625 10.03125 39.859375 
Q 5.515625 45.21875 5.515625 54.390625 
Q 5.515625 63.484375 10.046875 68.84375 
Q 14.59375 74.21875 22.3125 74.21875 
z
" id="DejaVuSans-25"/>
      <path id="DejaVuSans-20"/>
      <path d="M 59.515625 10.40625 
L 59.515625 29.984375 
L 43.40625 29.984375 
L 43.40625 38.09375 
L 69.28125 38.09375 
L 69.28125 6.78125 
Q 63.578125 2.734375 56.6875 0.65625 
Q 49.8125 -1.421875 42 -1.421875 
Q 24.90625 -1.421875 15.25 8.5625 
Q 5.609375 18.5625 5.609375 36.375 
Q 5.609375 54.25 15.25 64.234375 
Q 24.90625 74.21875 42 74.21875 
Q 49.125 74.21875 55.546875 72.453125 
Q 61.96875 70.703125 67.390625 67.28125 
L 67.390625 56.78125 
Q 61.921875 61.421875 55.765625 63.765625 
Q 49.609375 66.109375 42.828125 66.109375 
Q 29.4375 66.109375 22.71875 58.640625 
Q 16.015625 51.171875 16.015625 36.375 
Q 16.015625 21.625 22.71875 14.15625 
Q 29.4375 6.6875 42.828125 6.6875 
Q 48.046875 6.6875 52.140625 7.59375 
Q 56.25 8.5 59.515625 10.40625 
z
" id="DejaVuSans-47"/>
      <path d="M 64.40625 67.28125 
L 64.40625 56.890625 
Q 59.421875 61.53125 53.78125 63.8125 
Q 48.140625 66.109375 41.796875 66.109375 
Q 29.296875 66.109375 22.65625 58.46875 
Q 16.015625 50.828125 16.015625 36.375 
Q 16.015625 21.96875 22.65625 14.328125 
Q 29.296875 6.6875 41.796875 6.6875 
Q 48.140625 6.6875 53.78125 8.984375 
Q 59.421875 11.28125 64.40625 15.921875 
L 64.40625 5.609375 
Q 59.234375 2.09375 53.4375 0.328125 
Q 47.65625 -1.421875 41.21875 -1.421875 
Q 24.65625 -1.421875 15.125 8.703125 
Q 5.609375 18.84375 5.609375 36.375 
Q 5.609375 53.953125 15.125 64.078125 
Q 24.65625 74.21875 41.21875 74.21875 
Q 47.75 74.21875 53.53125 72.484375 
Q 59.328125 70.75 64.40625 67.28125 
z
" id="DejaVuSans-43"/>
     </defs>
     <g transform="translate(499.385156 319.936598)scale(0.1 -0.1)">
      <use xlink:href="#DejaVuSans-25"/>
      <use x="95.019531" xlink:href="#DejaVuSans-20"/>
      <use x="126.806641" xlink:href="#DejaVuSans-47"/>
      <use x="204.296875" xlink:href="#DejaVuSans-43"/>
     </g>
    </g>
   </g>
   <g id="matplotlib.axis_2">
    <g id="ytick_1">
     <g id="line2d_1">
      <path clip-path="url(#p1ec4696974)" d="M 40.600625 293.59566 
L 985.580625 293.59566 
" style="fill:none;stroke:#dedede;stroke-linecap:square;"/>
     </g>
     <g id="text_8">
      <!-- 0.0 -->
      <defs>
       <path d="M 10.6875 12.40625 
L 21 12.40625 
L 21 0 
L 10.6875 0 
z
" id="DejaVuSans-2e"/>
      </defs>
      <g transform="translate(20.878125 296.635035)scale(0.08 -0.08)">
       <use xlink:href="#DejaVuSans-30"/>
       <use x="63.623047" xlink:href="#DejaVuSans-2e"/>
       <use x="95.410156" xlink:href="#DejaVuSans-30"/>
      </g>
     </g>
    </g>
    <g id="ytick_2">
     <g id="line2d_2">
      <path clip-path="url(#p1ec4696974)" d="M 40.600625 256.136101 
L 985.580625 256.136101 
" style="fill:none;stroke:#dedede;stroke-linecap:square;"/>
     </g>
     <g id="text_9">
      <!-- 0.2 -->
      <g transform="translate(20.878125 259.175476)scale(0.08 -0.08)">
       <use xlink:href="#DejaVuSans-30"/>
       <use x="63.623047" xlink:href="#DejaVuSans-2e"/>
       <use x="95.410156" xlink:href="#DejaVuSans-32"/>
      </g>
     </g>
    </g>
    <g id="ytick_3">
     <g id="line2d_3">
      <path clip-path="url(#p1ec4696974)" d="M 40.600625 218.676542 
L 985.580625 218.676542 
" style="fill:none;stroke:#dedede;stroke-linecap:square;"/>
     </g>
     <g id="text_10">
      <!-- 0.4 -->
      <g transform="translate(20.878125 221.715917)scale(0.08 -0.08)">
       <use xlink:href="#DejaVuSans-30"/>
       <use x="63.623047" xlink:href="#DejaVuSans-2e"/>
       <use x="95.410156" xlink:href="#DejaVuSans-34"/>
      </g>
     </g>
    </g>
    <g id="ytick_4">
     <g id="line2d_4">
      <path clip-path="url(#p1ec4696974)" d="M 40.600625 181.216982 
L 985.580625 181.216982 
" style="fill:none;stroke:#dedede;stroke-linecap:square;"/>
     </g>
     <g id="text_11">
      <!-- 0.6 -->
      <g transform="translate(20.878125 184.256357)scale(0.08 -0.08)">
       <use xlink:href="#DejaVuSans-30"/>
       <use x="63.623047" xlink:href="#DejaVuSans-2e"/>
       <use x="95.410156" xlink:href="#DejaVuSans-36"/>
      </g>
     </g>
    </g>
    <g id="ytick_5">
     <g id="line2d_5">
      <path clip-path="url(#p1ec4696974)" d="M 40.600625 143.757423 
L 985.580625 143.757423 
" style="fill:none;stroke:#dedede;stroke-linecap:square;"/>
     </g>
     <g id="text_12">
      <!-- 0.8 -->
      <g transform="translate(20.878125 146.796798)scale(0.08 -0.08)">
       <use xlink:href="#DejaVuSans-30"/>
       <use x="63.623047" xlink:href="#DejaVuSans-2e"/>
       <use x="95.410156" xlink:href="#DejaVuSans-38"/>
      </g>
     </g>
    </g>
    <g id="ytick_6">
     <g id="line2d_6">
      <path clip-path="url(#p1ec4696974)" d="M 40.600625 106.297864 
L 985.580625 106.297864 
" style="fill:none;stroke:#dedede;stroke-linecap:square;"/>
     </g>
     <g id="text_13">
      <!-- 1.0 -->
      <g transform="translate(20.878125 109.337239)scale(0.08 -0.08)">
       <use xlink:href="#DejaVuSans-31"/>
       <use x="63.623047" xlink:href="#DejaVuSans-2e"/>
       <use x="95.410156" xlink:href="#DejaVuSans-30"/>
      </g>
     </g>
    </g>
    <g id="ytick_7">
     <g id="line2d_7">
      <path clip-path="url(#p1ec4696974)" d="M 40.600625 68.838305 
L 985.580625 68.838305 
" style="fill:none;stroke:#dedede;stroke-linecap:square;"/>
     </g>
     <g id="text_14">
      <!-- 1.2 -->
      <g transform="translate(20.878125 71.87768)scale(0.08 -0.08)">
       <use xlink:href="#DejaVuSans-31"/>
       <use x="63.623047" xlink:href="#DejaVuSans-2e"/>
       <use x="95.410156" xlink:href="#DejaVuSans-32"/>
      </g>
     </g>
    </g>
    <g id="text_15">
     <!-- Count -->
     <defs>
      <path d="M 30.609375 48.390625 
Q 23.390625 48.390625 19.1875 42.75 
Q 14.984375 37.109375 14.984375 27.296875 
Q 14.984375 17.484375 19.15625 11.84375 
Q 23.34375 6.203125 30.609375 6.203125 
Q 37.796875 6.203125 41.984375 11.859375 
Q 46.1875 17.53125 46.1875 27.296875 
Q 46.1875 37.015625 41.984375 42.703125 
Q 37.796875 48.390625 30.609375 48.390625 
z
M 30.609375 56 
Q 42.328125 56 49.015625 48.375 
Q 55.71875 40.765625 55.71875 27.296875 
Q 55.71875 13.875 49.015625 6.21875 
Q 42.328125 -1.421875 30.609375 -1.421875 
Q 18.84375 -1.421875 12.171875 6.21875 
Q 5.515625 13.875 5.515625 27.296875 
Q 5.515625 40.765625 12.171875 48.375 
Q 18.84375 56 30.609375 56 
z
" id="DejaVuSans-6f"/>
      <path d="M 8.5 21.578125 
L 8.5 54.6875 
L 17.484375 54.6875 
L 17.484375 21.921875 
Q 17.484375 14.15625 20.5 10.265625 
Q 23.53125 6.390625 29.59375 6.390625 
Q 36.859375 6.390625 41.078125 11.03125 
Q 45.3125 15.671875 45.3125 23.6875 
L 45.3125 54.6875 
L 54.296875 54.6875 
L 54.296875 0 
L 45.3125 0 
L 45.3125 8.40625 
Q 42.046875 3.421875 37.71875 1 
Q 33.40625 -1.421875 27.6875 -1.421875 
Q 18.265625 -1.421875 13.375 4.4375 
Q 8.5 10.296875 8.5 21.578125 
z
M 31.109375 56 
z
" id="DejaVuSans-75"/>
      <path d="M 54.890625 33.015625 
L 54.890625 0 
L 45.90625 0 
L 45.90625 32.71875 
Q 45.90625 40.484375 42.875 44.328125 
Q 39.84375 48.1875 33.796875 48.1875 
Q 26.515625 48.1875 22.3125 43.546875 
Q 18.109375 38.921875 18.109375 30.90625 
L 18.109375 0 
L 9.078125 0 
L 9.078125 54.6875 
L 18.109375 54.6875 
L 18.109375 46.1875 
Q 21.34375 51.125 25.703125 53.5625 
Q 30.078125 56 35.796875 56 
Q 45.21875 56 50.046875 50.171875 
Q 54.890625 44.34375 54.890625 33.015625 
z
" id="DejaVuSans-6e"/>
      <path d="M 18.3125 70.21875 
L 18.3125 54.6875 
L 36.8125 54.6875 
L 36.8125 47.703125 
L 18.3125 47.703125 
L 18.3125 18.015625 
Q 18.3125 11.328125 20.140625 9.421875 
Q 21.96875 7.515625 27.59375 7.515625 
L 36.8125 7.515625 
L 36.8125 0 
L 27.59375 0 
Q 17.1875 0 13.234375 3.875 
Q 9.28125 7.765625 9.28125 18.015625 
L 9.28125 47.703125 
L 2.6875 47.703125 
L 2.6875 54.6875 
L 9.28125 54.6875 
L 9.28125 70.21875 
z
" id="DejaVuSans-74"/>
     </defs>
     <g transform="translate(14.798438 177.854497)rotate(-90)scale(0.1 -0.1)">
      <use xlink:href="#DejaVuSans-43"/>
      <use x="69.824219" xlink:href="#DejaVuSans-6f"/>
      <use x="131.005859" xlink:href="#DejaVuSans-75"/>
      <use x="194.384766" xlink:href="#DejaVuSans-6e"/>
      <use x="257.763672" xlink:href="#DejaVuSans-74"/>
     </g>
    </g>
    <g id="text_16">
     <!-- 1e7 -->
     <defs>
      <path d="M 56.203125 29.59375 
L 56.203125 25.203125 
L 14.890625 25.203125 
Q 15.484375 15.921875 20.484375 11.0625 
Q 25.484375 6.203125 34.421875 6.203125 
Q 39.59375 6.203125 44.453125 7.46875 
Q 49.3125 8.734375 54.109375 11.28125 
L 54.109375 2.78125 
Q 49.265625 0.734375 44.1875 -0.34375 
Q 39.109375 -1.421875 33.890625 -1.421875 
Q 20.796875 -1.421875 13.15625 6.1875 
Q 5.515625 13.8125 5.515625 26.8125 
Q 5.515625 40.234375 12.765625 48.109375 
Q 20.015625 56 32.328125 56 
Q 43.359375 56 49.78125 48.890625 
Q 56.203125 41.796875 56.203125 29.59375 
z
M 47.21875 32.234375 
Q 47.125 39.59375 43.09375 43.984375 
Q 39.0625 48.390625 32.421875 48.390625 
Q 24.90625 48.390625 20.390625 44.140625 
Q 15.875 39.890625 15.1875 32.171875 
z
" id="DejaVuSans-65"/>
      <path d="M 8.203125 72.90625 
L 55.078125 72.90625 
L 55.078125 68.703125 
L 28.609375 0 
L 18.3125 0 
L 43.21875 64.59375 
L 8.203125 64.59375 
z
" id="DejaVuSans-37"/>
     </defs>
     <g transform="translate(40.600625 29.41646)scale(0.1 -0.1)">
      <use xlink:href="#DejaVuSans-31"/>
      <use x="63.623047" xlink:href="#DejaVuSans-65"/>
      <use x="125.146484" xlink:href="#DejaVuSans-37"/>
     </g>
    </g>
   </g>
   <g id="line2d_8">
    <path clip-path="url(#p1ec4696974)" d="M 40.600625 293.171337 
L 50.050425 292.757858 
L 59.500225 292.124099 
L 68.950025 292.001044 
L 78.399825 292.095779 
L 87.849625 292.135842 
L 97.299425 292.142866 
L 106.749225 292.090919 
L 116.199025 292.045612 
L 125.648825 291.921667 
L 135.098625 291.803117 
L 144.548425 291.717428 
L 153.998225 291.553758 
L 163.448025 291.396821 
L 172.897825 291.198557 
L 182.347625 290.724507 
L 191.797425 290.205111 
L 201.247225 289.623018 
L 210.697025 288.522821 
L 220.146825 286.487456 
L 229.596625 283.476485 
L 239.046425 280.347909 
L 248.496225 276.08149 
L 257.946025 270.374283 
L 267.395825 263.670623 
L 276.845625 255.232511 
L 286.295425 245.134828 
L 295.745225 234.420654 
L 305.195025 224.070072 
L 314.644825 212.609835 
L 324.094625 203.661327 
L 333.544425 197.548451 
L 342.994225 188.181314 
L 352.444025 175.885494 
L 361.893825 162.988608 
L 371.343625 151.28214 
L 380.793425 143.973312 
L 390.243225 140.300889 
L 399.693025 136.038722 
L 409.142825 130.398277 
L 418.592625 125.177229 
L 428.042425 123.640038 
L 437.492225 121.778907 
L 446.942025 117.299455 
L 456.391825 113.501983 
L 465.841625 108.073007 
L 475.291425 99.420448 
L 484.741225 87.850632 
L 494.191025 77.842262 
L 503.640825 72.459221 
L 513.090625 70.608718 
L 522.540425 73.857183 
L 531.990225 81.854106 
L 541.440025 91.888623 
L 550.889825 101.625224 
L 560.339625 107.900243 
L 569.789425 115.367001 
L 579.239225 126.598079 
L 588.689025 138.657239 
L 598.138825 151.917436 
L 607.588625 160.978762 
L 617.038425 169.595753 
L 626.488225 185.620138 
L 635.938025 200.243105 
L 645.387825 210.006948 
L 654.837625 220.886684 
L 664.287425 232.573766 
L 673.737225 243.564027 
L 683.187025 254.160175 
L 692.636825 263.682975 
L 702.086625 270.548488 
L 711.536425 275.468361 
L 720.986225 279.554928 
L 730.436025 282.688682 
L 739.885825 285.084389 
L 749.335625 286.803034 
L 758.785425 287.962978 
L 768.235225 288.97183 
L 777.685025 289.95268 
L 787.134825 290.622289 
L 796.584625 291.195448 
L 806.034425 291.712493 
L 815.484225 292.104798 
L 824.934025 292.486305 
L 834.383825 292.794971 
L 843.833625 292.976107 
L 853.283425 293.090864 
L 862.733225 293.195227 
L 872.183025 293.273836 
L 881.632825 293.332544 
L 891.082625 293.382553 
L 900.532425 293.420452 
L 909.982225 293.449034 
L 919.432025 293.470021 
L 928.881825 293.485117 
L 938.331625 293.498537 
L 947.781425 293.509325 
L 957.231225 293.510037 
L 966.681025 293.464505 
L 976.130825 293.216485 
L 985.580625 293.009755 
" style="fill:none;stroke:#f0ad4e;stroke-linecap:square;"/>
   </g>
   <g id="line2d_9">
    <path clip-path="url(#p1ec4696974)" d="M 40.600625 293.266166 
L 50.050425 292.948546 
L 59.500225 292.285465 
L 68.950025 292.087332 
L 78.399825 292.242583 
L 87.849625 292.31178 
L 97.299425 292.3482 
L 106.749225 292.311659 
L 116.199025 292.246189 
L 125.648825 292.170024 
L 135.098625 292.091275 
L 144.548425 291.759524 
L 153.998225 291.549385 
L 163.448025 291.553917 
L 172.897825 291.427267 
L 182.347625 291.091694 
L 191.797425 290.586271 
L 201.247225 290.042284 
L 210.697025 289.194218 
L 220.146825 287.480134 
L 229.596625 284.745418 
L 239.046425 282.174156 
L 248.496225 278.65602 
L 257.946025 273.511961 
L 267.395825 267.646337 
L 276.845625 260.583403 
L 286.295425 252.02483 
L 295.745225 243.128362 
L 305.195025 235.429018 
L 314.644825 226.69875 
L 324.094625 219.71507 
L 333.544425 214.149816 
L 342.994225 206.298985 
L 352.444025 196.004106 
L 361.893825 183.514658 
L 371.343625 173.087968 
L 380.793425 167.859259 
L 390.243225 165.127577 
L 399.693025 159.61132 
L 409.142825 150.384122 
L 418.592625 142.500215 
L 428.042425 140.201799 
L 437.492225 138.724404 
L 446.942025 134.286242 
L 456.391825 130.829914 
L 465.841625 125.438107 
L 475.291425 113.218602 
L 484.741225 101.185973 
L 494.191025 94.13659 
L 503.640825 91.878106 
L 513.090625 92.165533 
L 522.540425 91.716627 
L 531.990225 90.984209 
L 541.440025 85.152917 
L 550.889825 80.090997 
L 560.339625 72.11508 
L 569.789425 68.609221 
L 579.239225 78.200872 
L 588.689025 96.156709 
L 598.138825 127.972433 
L 607.588625 148.127146 
L 617.038425 151.883366 
L 626.488225 165.152291 
L 635.938025 183.778842 
L 645.387825 192.511536 
L 654.837625 196.905364 
L 664.287425 201.825359 
L 673.737225 204.038479 
L 683.187025 215.430371 
L 692.636825 236.447328 
L 702.086625 256.483089 
L 711.536425 269.534327 
L 720.986225 276.197315 
L 730.436025 281.735879 
L 739.885825 284.819457 
L 749.335625 286.776765 
L 758.785425 288.044706 
L 768.235225 289.0923 
L 777.685025 290.134191 
L 787.134825 290.906007 
L 796.584625 291.515222 
L 806.034425 291.954781 
L 815.484225 292.224818 
L 824.934025 292.523502 
L 834.383825 292.811781 
L 843.833625 293.005728 
L 853.283425 293.12779 
L 862.733225 293.215268 
L 872.183025 293.281674 
L 881.632825 293.337067 
L 891.082625 293.380914 
L 900.532425 293.413466 
L 909.982225 293.440334 
L 919.432025 293.462267 
L 928.881825 293.478852 
L 938.331625 293.489678 
L 947.781425 293.497478 
L 957.231225 293.496336 
L 966.681025 293.444941 
L 976.130825 293.141837 
L 985.580625 292.8867 
" style="fill:none;stroke:#d9534f;stroke-linecap:square;"/>
   </g>
   <g id="line2d_10">
    <path clip-path="url(#p1ec4696974)" d="M 40.600625 293.306716 
L 50.050425 293.142362 
L 59.500225 292.584739 
L 68.950025 292.351403 
L 78.399825 292.512882 
L 87.849625 292.572415 
L 97.299425 292.622292 
L 106.749225 292.595705 
L 116.199025 292.528259 
L 125.648825 292.503433 
L 135.098625 292.469963 
L 144.548425 291.996614 
L 153.998225 291.731654 
L 163.448025 291.877755 
L 172.897825 291.883402 
L 182.347625 291.680887 
L 191.797425 291.273102 
L 201.247225 290.827614 
L 210.697025 290.149399 
L 220.146825 288.872122 
L 229.596625 286.768712 
L 239.046425 284.430299 
L 248.496225 281.490426 
L 257.946025 277.14404 
L 267.395825 271.697485 
L 276.845625 265.828724 
L 286.295425 259.045557 
L 295.745225 251.191158 
L 305.195025 243.699789 
L 314.644825 235.651032 
L 324.094625 228.951455 
L 333.544425 224.339921 
L 342.994225 217.838721 
L 352.444025 209.102552 
L 361.893825 198.893249 
L 371.343625 190.250336 
L 380.793425 185.350223 
L 390.243225 180.80754 
L 399.693025 175.61956 
L 409.142825 169.45896 
L 418.592625 163.240927 
L 428.042425 159.467606 
L 437.492225 156.247489 
L 446.942025 148.339636 
L 456.391825 144.356214 
L 465.841625 143.24227 
L 475.291425 132.538641 
L 484.741225 122.633079 
L 494.191025 117.488486 
L 503.640825 117.223918 
L 513.090625 119.790797 
L 522.540425 121.445255 
L 531.990225 119.995251 
L 541.440025 107.577885 
L 550.889825 100.631534 
L 560.339625 91.020217 
L 569.789425 80.151148 
L 579.239225 82.143359 
L 588.689025 98.428706 
L 598.138825 137.497612 
L 607.588625 165.179318 
L 617.038425 167.758943 
L 626.488225 175.670177 
L 635.938025 192.476792 
L 645.387825 198.459365 
L 654.837625 197.226149 
L 664.287425 197.255976 
L 673.737225 195.046799 
L 683.187025 205.653164 
L 692.636825 230.123799 
L 702.086625 254.138045 
L 711.536425 269.664761 
L 720.986225 276.890588 
L 730.436025 282.714239 
L 739.885825 285.769393 
L 749.335625 287.628408 
L 758.785425 288.787922 
L 768.235225 289.622399 
L 777.685025 290.581495 
L 787.134825 291.359736 
L 796.584625 291.848022 
L 806.034425 292.218459 
L 815.484225 292.489432 
L 824.934025 292.75208 
L 834.383825 292.98904 
L 843.833625 293.118547 
L 853.283425 293.197118 
L 862.733225 293.266025 
L 872.183025 293.321175 
L 881.632825 293.361819 
L 891.082625 293.395907 
L 900.532425 293.42359 
L 909.982225 293.448051 
L 919.432025 293.465872 
L 928.881825 293.476932 
L 938.331625 293.485332 
L 947.781425 293.492103 
L 957.231225 293.487261 
L 966.681025 293.437974 
L 976.130825 293.175542 
L 985.580625 292.955289 
" style="fill:none;stroke:#d9534f;stroke-linecap:square;"/>
   </g>
   <g id="line2d_11">
    <path clip-path="url(#p1ec4696974)" d="M 40.600625 293.534826 
L 50.050425 293.485014 
L 59.500225 293.391665 
L 68.950025 293.335316 
L 78.399825 293.283762 
L 87.849625 293.234821 
L 97.299425 293.196201 
L 106.749225 293.140732 
L 116.199025 293.080881 
L 125.648825 292.968784 
L 135.098625 292.81549 
L 144.548425 292.649956 
L 153.998225 292.394257 
L 163.448025 292.034898 
L 172.897825 291.576215 
L 182.347625 290.184555 
L 191.797425 289.039463 
L 201.247225 288.855612 
L 210.697025 288.296022 
L 220.146825 287.09593 
L 229.596625 285.190419 
L 239.046425 283.100597 
L 248.496225 280.209992 
L 257.946025 276.48108 
L 267.395825 272.149603 
L 276.845625 266.468852 
L 286.295425 259.309291 
L 295.745225 251.058411 
L 305.195025 242.619708 
L 314.644825 233.913133 
L 324.094625 226.396226 
L 333.544425 219.635403 
L 342.994225 209.914975 
L 352.444025 197.84042 
L 361.893825 184.582049 
L 371.343625 170.620628 
L 380.793425 158.987 
L 390.243225 150.455998 
L 399.693025 142.436543 
L 409.142825 132.087459 
L 418.592625 121.500789 
L 428.042425 113.11674 
L 437.492225 104.386012 
L 446.942025 96.335232 
L 456.391825 89.881044 
L 465.841625 81.150953 
L 475.291425 71.705937 
L 484.741225 61.742219 
L 494.191025 52.542263 
L 503.640825 49.530693 
L 513.090625 49.740429 
L 522.540425 58.209829 
L 531.990225 75.61487 
L 541.440025 95.700349 
L 550.889825 115.275787 
L 560.339625 128.05328 
L 569.789425 138.225124 
L 579.239225 148.856231 
L 588.689025 158.214837 
L 598.138825 169.669905 
L 607.588625 179.569623 
L 617.038425 189.553242 
L 626.488225 204.426841 
L 635.938025 216.950265 
L 645.387825 226.061534 
L 654.837625 235.575485 
L 664.287425 245.459387 
L 673.737225 255.957353 
L 683.187025 266.160363 
L 692.636825 274.05592 
L 702.086625 279.179742 
L 711.536425 282.503613 
L 720.986225 285.12139 
L 730.436025 287.028035 
L 739.885825 288.356435 
L 749.335625 289.298637 
L 758.785425 289.985392 
L 768.235225 290.537593 
L 777.685025 291.107081 
L 787.134825 291.544309 
L 796.584625 291.917107 
L 806.034425 292.226635 
L 815.484225 292.477689 
L 824.934025 292.774865 
L 834.383825 293.034703 
L 843.833625 293.152429 
L 853.283425 293.22408 
L 862.733225 293.312943 
L 872.183025 293.37552 
L 881.632825 293.419375 
L 891.082625 293.460515 
L 900.532425 293.487973 
L 909.982225 293.509747 
L 919.432025 293.526819 
L 928.881825 293.538506 
L 938.331625 293.549266 
L 947.781425 293.560008 
L 957.231225 293.565898 
L 966.681025 293.560682 
L 976.130825 293.54051 
L 985.580625 293.527165 
" style="fill:none;stroke:#5cb85c;stroke-linecap:square;"/>
   </g>
   <g id="line2d_12">
    <path clip-path="url(#p1ec4696974)" d="M 40.600625 293.451178 
L 50.050425 293.379397 
L 59.500225 293.24237 
L 68.950025 293.180299 
L 78.399825 293.177209 
L 87.849625 293.172985 
L 97.299425 293.158863 
L 106.749225 293.128811 
L 116.199025 293.099124 
L 125.648825 293.043085 
L 135.098625 292.973091 
L 144.548425 292.903688 
L 153.998225 292.782488 
L 163.448025 292.597747 
L 172.897825 292.353248 
L 182.347625 291.384553 
L 191.797425 290.74407 
L 201.247225 290.677635 
L 210.697025 289.890985 
L 220.146825 288.516481 
L 229.596625 286.518351 
L 239.046425 283.961314 
L 248.496225 280.418436 
L 257.946025 275.753194 
L 267.395825 270.179399 
L 276.845625 263.318494 
L 286.295425 254.936833 
L 295.745225 245.257152 
L 305.195025 235.235128 
L 314.644825 224.988721 
L 324.094625 215.556825 
L 333.544425 205.95447 
L 342.994225 194.670649 
L 352.444025 182.467111 
L 361.893825 168.748643 
L 371.343625 157.520674 
L 380.793425 150.80676 
L 390.243225 144.913987 
L 399.693025 137.785442 
L 409.142825 128.862201 
L 418.592625 120.419237 
L 428.042425 116.285491 
L 437.492225 114.496094 
L 446.942025 112.695891 
L 456.391825 108.933022 
L 465.841625 103.177342 
L 475.291425 96.734813 
L 484.741225 87.106442 
L 494.191025 78.136573 
L 503.640825 72.918615 
L 513.090625 70.885076 
L 522.540425 73.934977 
L 531.990225 79.535219 
L 541.440025 82.558795 
L 550.889825 84.889023 
L 560.339625 91.345057 
L 569.789425 105.56538 
L 579.239225 123.10933 
L 588.689025 137.630069 
L 598.138825 151.295008 
L 607.588625 160.66561 
L 617.038425 172.441622 
L 626.488225 191.287357 
L 635.938025 206.339095 
L 645.387825 217.071015 
L 654.837625 228.691233 
L 664.287425 241.373485 
L 673.737225 251.694043 
L 683.187025 259.586988 
L 692.636825 266.583403 
L 702.086625 272.272658 
L 711.536425 276.317513 
L 720.986225 279.50593 
L 730.436025 282.194824 
L 739.885825 284.387229 
L 749.335625 286.167916 
L 758.785425 287.473729 
L 768.235225 288.587766 
L 777.685025 289.570153 
L 787.134825 290.342906 
L 796.584625 291.037837 
L 806.034425 291.620296 
L 815.484225 292.015073 
L 824.934025 292.361733 
L 834.383825 292.676112 
L 843.833625 292.884706 
L 853.283425 293.035808 
L 862.733225 293.157327 
L 872.183025 293.250039 
L 881.632825 293.323666 
L 891.082625 293.377215 
L 900.532425 293.407566 
L 909.982225 293.431147 
L 919.432025 293.449502 
L 928.881825 293.464317 
L 938.331625 293.47607 
L 947.781425 293.480032 
L 957.231225 293.47136 
L 966.681025 293.411396 
L 976.130825 293.120139 
L 985.580625 292.880988 
" style="fill:none;stroke:#f0ad4e;stroke-linecap:square;"/>
   </g>
   <g id="line2d_13">
    <path clip-path="url(#p1ec4696974)" d="M 40.600625 293.44599 
L 50.050425 293.335878 
L 59.500225 293.15522 
L 68.950025 293.09446 
L 78.399825 293.099021 
L 87.849625 293.099452 
L 97.299425 293.088092 
L 106.749225 293.063762 
L 116.199025 293.040303 
L 125.648825 292.994294 
L 135.098625 292.926735 
L 144.548425 292.846216 
L 153.998225 292.71713 
L 163.448025 292.481706 
L 172.897825 292.095985 
L 182.347625 290.735501 
L 191.797425 289.3993 
L 201.247225 289.199781 
L 210.697025 288.972626 
L 220.146825 288.117471 
L 229.596625 286.585422 
L 239.046425 284.497473 
L 248.496225 281.206154 
L 257.946025 276.920088 
L 267.395825 272.120638 
L 276.845625 266.286658 
L 286.295425 258.974693 
L 295.745225 250.040372 
L 305.195025 240.641816 
L 314.644825 231.043412 
L 324.094625 222.253199 
L 333.544425 213.391438 
L 342.994225 202.362173 
L 352.444025 189.525007 
L 361.893825 174.758936 
L 371.343625 162.838339 
L 380.793425 155.561286 
L 390.243225 148.091232 
L 399.693025 138.919072 
L 409.142825 127.708081 
L 418.592625 117.841655 
L 428.042425 112.118424 
L 437.492225 107.493948 
L 446.942025 105.372154 
L 456.391825 102.556862 
L 465.841625 97.731883 
L 475.291425 91.560103 
L 484.741225 83.668638 
L 494.191025 78.598074 
L 503.640825 74.929276 
L 513.090625 72.959118 
L 522.540425 74.156551 
L 531.990225 79.119849 
L 541.440025 82.261975 
L 550.889825 80.167892 
L 560.339625 81.025473 
L 569.789425 96.360901 
L 579.239225 119.210577 
L 588.689025 137.38573 
L 598.138825 150.862031 
L 607.588625 149.087787 
L 617.038425 155.829159 
L 626.488225 183.299827 
L 635.938025 203.225391 
L 645.387825 214.542589 
L 654.837625 227.719757 
L 664.287425 242.555643 
L 673.737225 253.92314 
L 683.187025 261.957466 
L 692.636825 268.536648 
L 702.086625 273.836613 
L 711.536425 277.919593 
L 720.986225 281.325912 
L 730.436025 284.034735 
L 739.885825 286.080776 
L 749.335625 287.685946 
L 758.785425 288.901696 
L 768.235225 289.871337 
L 777.685025 290.62654 
L 787.134825 291.167335 
L 796.584625 291.672261 
L 806.034425 292.114921 
L 815.484225 292.441634 
L 824.934025 292.727057 
L 834.383825 292.941569 
L 843.833625 293.089357 
L 853.283425 293.198598 
L 862.733225 293.275053 
L 872.183025 293.334267 
L 881.632825 293.3851 
L 891.082625 293.417512 
L 900.532425 293.433928 
L 909.982225 293.445541 
L 919.432025 293.457668 
L 928.881825 293.470011 
L 938.331625 293.477213 
L 947.781425 293.478131 
L 957.231225 293.466022 
L 966.681025 293.385849 
L 976.130825 293.06704 
L 985.580625 292.8177 
" style="fill:none;stroke:#f0ad4e;stroke-linecap:square;"/>
   </g>
   <g id="line2d_14">
    <path clip-path="url(#p1ec4696974)" d="M 40.600625 293.330877 
L 50.050425 293.11733 
L 59.500225 292.729558 
L 68.950025 292.595967 
L 78.399825 292.642923 
L 87.849625 292.676655 
L 97.299425 292.687387 
L 106.749225 292.665249 
L 116.199025 292.647409 
L 125.648825 292.597016 
L 135.098625 292.52294 
L 144.548425 292.417379 
L 153.998225 292.277945 
L 163.448025 292.087107 
L 172.897825 291.705057 
L 182.347625 290.75394 
L 191.797425 288.788671 
L 201.247225 287.91666 
L 210.697025 288.355349 
L 220.146825 287.774941 
L 229.596625 286.17995 
L 239.046425 284.085886 
L 248.496225 280.626308 
L 257.946025 275.85028 
L 267.395825 270.81064 
L 276.845625 265.084646 
L 286.295425 257.70973 
L 295.745225 248.721309 
L 305.195025 239.886387 
L 314.644825 231.327918 
L 324.094625 224.190767 
L 333.544425 217.181793 
L 342.994225 207.770743 
L 352.444025 195.796439 
L 361.893825 179.773722 
L 371.343625 167.776661 
L 380.793425 162.864552 
L 390.243225 158.343305 
L 399.693025 151.544123 
L 409.142825 141.276177 
L 418.592625 130.351321 
L 428.042425 122.915299 
L 437.492225 117.684315 
L 446.942025 113.944484 
L 456.391825 109.698611 
L 465.841625 103.362271 
L 475.291425 94.53781 
L 484.741225 82.946005 
L 494.191025 74.926925 
L 503.640825 72.69382 
L 513.090625 72.65991 
L 522.540425 75.096598 
L 531.990225 80.315118 
L 541.440025 81.575173 
L 550.889825 80.128494 
L 560.339625 80.701785 
L 569.789425 92.576128 
L 579.239225 113.057994 
L 588.689025 130.105802 
L 598.138825 145.510933 
L 607.588625 145.016767 
L 617.038425 147.525415 
L 626.488225 174.297893 
L 635.938025 197.591324 
L 645.387825 208.723883 
L 654.837625 220.526416 
L 664.287425 234.413452 
L 673.737225 245.048802 
L 683.187025 254.545961 
L 692.636825 264.26519 
L 702.086625 272.320485 
L 711.536425 277.836358 
L 720.986225 281.727891 
L 730.436025 284.733627 
L 739.885825 286.756949 
L 749.335625 288.235815 
L 758.785425 289.328894 
L 768.235225 290.168354 
L 777.685025 290.890012 
L 787.134825 291.420945 
L 796.584625 291.855242 
L 806.034425 292.217064 
L 815.484225 292.502225 
L 824.934025 292.790429 
L 834.383825 293.010017 
L 843.833625 293.14843 
L 853.283425 293.259217 
L 862.733225 293.330493 
L 872.183025 293.372092 
L 881.632825 293.409926 
L 891.082625 293.441579 
L 900.532425 293.461957 
L 909.982225 293.476445 
L 919.432025 293.488891 
L 928.881825 293.499314 
L 938.331625 293.506862 
L 947.781425 293.510271 
L 957.231225 293.502994 
L 966.681025 293.444174 
L 976.130825 293.169558 
L 985.580625 292.946149 
" style="fill:none;stroke:#f0ad4e;stroke-linecap:square;"/>
   </g>
   <g id="line2d_15">
    <path clip-path="url(#p1ec4696974)" d="M 40.600625 293.582924 
L 50.050425 293.574065 
L 59.500225 293.558631 
L 68.950025 293.549482 
L 78.399825 293.544181 
L 87.849625 293.538562 
L 97.299425 293.530199 
L 106.749225 293.520085 
L 116.199025 293.5066 
L 125.648825 293.485388 
L 135.098625 293.456442 
L 144.548425 293.414318 
L 153.998225 293.355319 
L 163.448025 293.268057 
L 172.897825 293.126994 
L 182.347625 292.877242 
L 191.797425 292.510897 
L 201.247225 292.125035 
L 210.697025 291.656828 
L 220.146825 290.824149 
L 229.596625 289.64584 
L 239.046425 288.246341 
L 248.496225 286.319918 
L 257.946025 283.788073 
L 267.395825 280.659647 
L 276.845625 276.684598 
L 286.295425 271.8835 
L 295.745225 266.87216 
L 305.195025 261.634612 
L 314.644825 256.022458 
L 324.094625 251.471393 
L 333.544425 247.319422 
L 342.994225 241.552739 
L 352.444025 234.006744 
L 361.893825 224.106436 
L 371.343625 216.083703 
L 380.793425 211.75954 
L 390.243225 207.010623 
L 399.693025 199.722173 
L 409.142825 191.022415 
L 418.592625 183.343374 
L 428.042425 178.134754 
L 437.492225 175.223031 
L 446.942025 173.143014 
L 456.391825 169.546541 
L 465.841625 164.058229 
L 475.291425 157.283873 
L 484.741225 149.518937 
L 494.191025 143.907524 
L 503.640825 142.867908 
L 513.090625 143.716143 
L 522.540425 144.480599 
L 531.990225 146.230204 
L 541.440025 145.310553 
L 550.889825 142.77336 
L 560.339625 141.61586 
L 569.789425 149.746148 
L 579.239225 164.198215 
L 588.689025 176.894739 
L 598.138825 192.015702 
L 607.588625 202.107813 
L 617.038425 209.080152 
L 626.488225 220.180018 
L 635.938025 229.424541 
L 645.387825 235.307537 
L 654.837625 244.273951 
L 664.287425 253.949118 
L 673.737225 259.844934 
L 683.187025 266.846969 
L 692.636825 275.10963 
L 702.086625 281.237096 
L 711.536425 285.029642 
L 720.986225 287.626835 
L 730.436025 289.377714 
L 739.885825 290.440544 
L 749.335625 291.153587 
L 758.785425 291.609226 
L 768.235225 291.996277 
L 777.685025 292.395624 
L 787.134825 292.716597 
L 796.584625 292.950204 
L 806.034425 293.120485 
L 815.484225 293.24738 
L 824.934025 293.354205 
L 834.383825 293.431166 
L 843.833625 293.47504 
L 853.283425 293.502816 
L 862.733225 293.523803 
L 872.183025 293.540089 
L 881.632825 293.552329 
L 891.082625 293.561516 
L 900.532425 293.568371 
L 909.982225 293.573718 
L 919.432025 293.577249 
L 928.881825 293.57914 
L 938.331625 293.581088 
L 947.781425 293.581004 
L 957.231225 293.579309 
L 966.681025 293.571433 
L 976.130825 293.546513 
L 985.580625 293.529151 
" style="fill:none;stroke:#f0ad4e;stroke-linecap:square;"/>
   </g>
   <g id="line2d_16">
    <path clip-path="url(#p1ec4696974)" d="M 40.600625 293.459607 
L 50.050425 293.35207 
L 59.500225 293.102589 
L 68.950025 292.803868 
L 78.399825 292.427493 
L 87.849625 291.951785 
L 97.299425 291.369513 
L 106.749225 290.66312 
L 116.199025 289.858975 
L 125.648825 288.924341 
L 135.098625 287.798288 
L 144.548425 286.445333 
L 153.998225 284.866665 
L 163.448025 282.792304 
L 172.897825 279.548765 
L 182.347625 274.125829 
L 191.797425 263.107203 
L 201.247225 258.775548 
L 210.697025 265.956452 
L 220.146825 269.683734 
L 229.596625 268.373717 
L 239.046425 265.837808 
L 248.496225 261.360726 
L 257.946025 256.370176 
L 267.395825 252.374028 
L 276.845625 248.259292 
L 286.295425 243.178998 
L 295.745225 237.166889 
L 305.195025 231.178435 
L 314.644825 225.464232 
L 324.094625 220.935475 
L 333.544425 216.808115 
L 342.994225 211.408675 
L 352.444025 205.155223 
L 361.893825 198.891948 
L 371.343625 192.223865 
L 380.793425 186.251828 
L 390.243225 181.244824 
L 399.693025 175.019289 
L 409.142825 166.974315 
L 418.592625 158.536596 
L 428.042425 151.499499 
L 437.492225 145.03146 
L 446.942025 140.344689 
L 456.391825 135.230213 
L 465.841625 127.365832 
L 475.291425 117.895933 
L 484.741225 109.190388 
L 494.191025 106.219779 
L 503.640825 106.03398 
L 513.090625 105.608421 
L 522.540425 109.435626 
L 531.990225 120.516351 
L 541.440025 135.35398 
L 550.889825 147.139675 
L 560.339625 152.804834 
L 569.789425 161.090767 
L 579.239225 172.936247 
L 588.689025 181.628232 
L 598.138825 188.446359 
L 607.588625 183.081167 
L 617.038425 186.200349 
L 626.488225 212.371339 
L 635.938025 231.24797 
L 645.387825 240.321096 
L 654.837625 249.938248 
L 664.287425 258.732854 
L 673.737225 266.964124 
L 683.187025 274.45184 
L 692.636825 280.05888 
L 702.086625 283.89606 
L 711.536425 286.341495 
L 720.986225 288.129992 
L 730.436025 289.378491 
L 739.885825 290.23048 
L 749.335625 290.856645 
L 758.785425 291.330733 
L 768.235225 291.729509 
L 777.685025 292.098682 
L 787.134825 292.389303 
L 796.584625 292.652981 
L 806.034425 292.863007 
L 815.484225 293.006515 
L 824.934025 293.153291 
L 834.383825 293.273836 
L 843.833625 293.345496 
L 853.283425 293.392554 
L 862.733225 293.427467 
L 872.183025 293.457799 
L 881.632825 293.485566 
L 891.082625 293.508426 
L 900.532425 293.524271 
L 909.982225 293.536811 
L 919.432025 293.546485 
L 928.881825 293.554801 
L 938.331625 293.562836 
L 947.781425 293.567865 
L 957.231225 293.570216 
L 966.681025 293.567078 
L 976.130825 293.558257 
L 985.580625 293.553612 
" style="fill:none;stroke:#f0ad4e;stroke-linecap:square;"/>
   </g>
   <g id="line2d_17">
    <path clip-path="url(#p1ec4696974)" d="M 40.600625 293.345674 
L 50.050425 293.221121 
L 59.500225 292.661653 
L 68.950025 292.34732 
L 78.399825 292.468492 
L 87.849625 292.528184 
L 97.299425 292.584786 
L 106.749225 292.566075 
L 116.199025 292.519728 
L 125.648825 292.523333 
L 135.098625 292.487943 
L 144.548425 292.033475 
L 153.998225 291.787375 
L 163.448025 291.742966 
L 172.897825 291.28271 
L 182.347625 289.435654 
L 191.797425 287.155725 
L 201.247225 287.204179 
L 210.697025 288.303373 
L 220.146825 287.996833 
L 229.596625 286.315638 
L 239.046425 284.416635 
L 248.496225 281.608732 
L 257.946025 277.480398 
L 267.395825 272.869557 
L 276.845625 267.881864 
L 286.295425 261.917469 
L 295.745225 254.918506 
L 305.195025 247.941401 
L 314.644825 240.662812 
L 324.094625 234.306973 
L 333.544425 228.247702 
L 342.994225 221.057565 
L 352.444025 212.234883 
L 361.893825 199.941368 
L 371.343625 190.422716 
L 380.793425 185.913025 
L 390.243225 180.50098 
L 399.693025 174.891112 
L 409.142825 166.242355 
L 418.592625 156.921705 
L 428.042425 152.160042 
L 437.492225 148.994653 
L 446.942025 143.31245 
L 456.391825 139.245635 
L 465.841625 137.100241 
L 475.291425 127.126568 
L 484.741225 117.39862 
L 494.191025 113.030077 
L 503.640825 112.822055 
L 513.090625 114.790602 
L 522.540425 116.280574 
L 531.990225 116.27105 
L 541.440025 101.982045 
L 550.889825 86.943165 
L 560.339625 62.735871 
L 569.789425 44.852958 
L 579.239225 50.432363 
L 588.689025 70.898365 
L 598.138825 121.063851 
L 607.588625 153.91271 
L 617.038425 159.608052 
L 626.488225 176.228118 
L 635.938025 195.822006 
L 645.387825 200.34477 
L 654.837625 197.68206 
L 664.287425 196.582603 
L 673.737225 190.347853 
L 683.187025 198.193711 
L 692.636825 223.723196 
L 702.086625 250.660019 
L 711.536425 268.089736 
L 720.986225 275.885267 
L 730.436025 282.990447 
L 739.885825 286.202735 
L 749.335625 287.935268 
L 758.785425 289.001423 
L 768.235225 289.821207 
L 777.685025 290.844077 
L 787.134825 291.666802 
L 796.584625 292.137163 
L 806.034425 292.467303 
L 815.484225 292.693063 
L 824.934025 292.898481 
L 834.383825 293.067555 
L 843.833625 293.180374 
L 853.283425 293.259067 
L 862.733225 293.315388 
L 872.183025 293.358878 
L 881.632825 293.397611 
L 891.082625 293.425416 
L 900.532425 293.444801 
L 909.982225 293.462004 
L 919.432025 293.473139 
L 928.881825 293.482167 
L 938.331625 293.487776 
L 947.781425 293.488666 
L 957.231225 293.4833 
L 966.681025 293.432645 
L 976.130825 293.162131 
L 985.580625 292.937477 
" style="fill:none;stroke:#d9534f;stroke-linecap:square;"/>
   </g>
   <g id="line2d_18">
    <path clip-path="url(#p1ec4696974)" d="M 40.600625 293.280194 
L 50.050425 292.963006 
L 59.500225 292.37342 
L 68.950025 292.184811 
L 78.399825 292.258944 
L 87.849625 292.293987 
L 97.299425 292.299999 
L 106.749225 292.245599 
L 116.199025 292.18601 
L 125.648825 292.079203 
L 135.098625 291.943778 
L 144.548425 291.716529 
L 153.998225 291.534064 
L 163.448025 291.434936 
L 172.897825 291.228656 
L 182.347625 290.81087 
L 191.797425 290.281126 
L 201.247225 289.715945 
L 210.697025 288.817778 
L 220.146825 286.953041 
L 229.596625 284.120873 
L 239.046425 281.414542 
L 248.496225 277.474405 
L 257.946025 272.006208 
L 267.395825 265.909478 
L 276.845625 258.399417 
L 286.295425 249.591129 
L 295.745225 240.909286 
L 305.195025 232.481298 
L 314.644825 222.331508 
L 324.094625 214.959036 
L 333.544425 210.487713 
L 342.994225 203.084543 
L 352.444025 192.09506 
L 361.893825 179.888189 
L 371.343625 169.882478 
L 380.793425 164.431822 
L 390.243225 160.32485 
L 399.693025 153.429425 
L 409.142825 143.281387 
L 418.592625 132.939852 
L 428.042425 126.440253 
L 437.492225 121.309829 
L 446.942025 115.688985 
L 456.391825 111.445631 
L 465.841625 105.332016 
L 475.291425 95.524438 
L 484.741225 85.691501 
L 494.191025 79.513399 
L 503.640825 80.479584 
L 513.090625 82.990994 
L 522.540425 86.72723 
L 531.990225 92.598557 
L 541.440025 95.904709 
L 550.889825 99.607072 
L 560.339625 98.726969 
L 569.789425 101.985866 
L 579.239225 113.820848 
L 588.689025 127.551594 
L 598.138825 146.841534 
L 607.588625 155.776669 
L 617.038425 159.500608 
L 626.488225 176.98054 
L 635.938025 195.471047 
L 645.387825 205.526785 
L 654.837625 213.539132 
L 664.287425 222.281856 
L 673.737225 230.926005 
L 683.187025 242.734288 
L 692.636825 256.94357 
L 702.086625 268.93886 
L 711.536425 276.658835 
L 720.986225 281.240214 
L 730.436025 284.589474 
L 739.885825 286.697501 
L 749.335625 288.128915 
L 758.785425 289.036317 
L 768.235225 289.778035 
L 777.685025 290.60531 
L 787.134825 291.285538 
L 796.584625 291.828421 
L 806.034425 292.247144 
L 815.484225 292.526087 
L 824.934025 292.776298 
L 834.383825 292.990641 
L 843.833625 293.127659 
L 853.283425 293.21744 
L 862.733225 293.280241 
L 872.183025 293.329098 
L 881.632825 293.371333 
L 891.082625 293.409093 
L 900.532425 293.436588 
L 909.982225 293.459485 
L 919.432025 293.476454 
L 928.881825 293.487224 
L 938.331625 293.496233 
L 947.781425 293.49982 
L 957.231225 293.492337 
L 966.681025 293.429536 
L 976.130825 293.125589 
L 985.580625 292.877111 
" style="fill:none;stroke:#f0ad4e;stroke-linecap:square;"/>
   </g>
   <g id="line2d_19">
    <path clip-path="url(#p1ec4696974)" d="M 40.600625 293.59566 
L 985.580625 293.59566 
" style="fill:none;stroke:#dedede;stroke-linecap:square;stroke-width:2;"/>
   </g>
   <g id="text_17">
    <!-- FastQC: Per Sequence GC Content -->
    <defs>
     <path d="M 9.8125 72.90625 
L 51.703125 72.90625 
L 51.703125 64.59375 
L 19.671875 64.59375 
L 19.671875 43.109375 
L 48.578125 43.109375 
L 48.578125 34.8125 
L 19.671875 34.8125 
L 19.671875 0 
L 9.8125 0 
z
" id="DejaVuSans-46"/>
     <path d="M 34.28125 27.484375 
Q 23.390625 27.484375 19.1875 25 
Q 14.984375 22.515625 14.984375 16.5 
Q 14.984375 11.71875 18.140625 8.90625 
Q 21.296875 6.109375 26.703125 6.109375 
Q 34.1875 6.109375 38.703125 11.40625 
Q 43.21875 16.703125 43.21875 25.484375 
L 43.21875 27.484375 
z
M 52.203125 31.203125 
L 52.203125 0 
L 43.21875 0 
L 43.21875 8.296875 
Q 40.140625 3.328125 35.546875 0.953125 
Q 30.953125 -1.421875 24.3125 -1.421875 
Q 15.921875 -1.421875 10.953125 3.296875 
Q 6 8.015625 6 15.921875 
Q 6 25.140625 12.171875 29.828125 
Q 18.359375 34.515625 30.609375 34.515625 
L 43.21875 34.515625 
L 43.21875 35.40625 
Q 43.21875 41.609375 39.140625 45 
Q 35.0625 48.390625 27.6875 48.390625 
Q 23 48.390625 18.546875 47.265625 
Q 14.109375 46.140625 10.015625 43.890625 
L 10.015625 52.203125 
Q 14.9375 54.109375 19.578125 55.046875 
Q 24.21875 56 28.609375 56 
Q 40.484375 56 46.34375 49.84375 
Q 52.203125 43.703125 52.203125 31.203125 
z
" id="DejaVuSans-61"/>
     <path d="M 44.28125 53.078125 
L 44.28125 44.578125 
Q 40.484375 46.53125 36.375 47.5 
Q 32.28125 48.484375 27.875 48.484375 
Q 21.1875 48.484375 17.84375 46.4375 
Q 14.5 44.390625 14.5 40.28125 
Q 14.5 37.15625 16.890625 35.375 
Q 19.28125 33.59375 26.515625 31.984375 
L 29.59375 31.296875 
Q 39.15625 29.25 43.1875 25.515625 
Q 47.21875 21.78125 47.21875 15.09375 
Q 47.21875 7.46875 41.1875 3.015625 
Q 35.15625 -1.421875 24.609375 -1.421875 
Q 20.21875 -1.421875 15.453125 -0.5625 
Q 10.6875 0.296875 5.421875 2 
L 5.421875 11.28125 
Q 10.40625 8.6875 15.234375 7.390625 
Q 20.0625 6.109375 24.8125 6.109375 
Q 31.15625 6.109375 34.5625 8.28125 
Q 37.984375 10.453125 37.984375 14.40625 
Q 37.984375 18.0625 35.515625 20.015625 
Q 33.0625 21.96875 24.703125 23.78125 
L 21.578125 24.515625 
Q 13.234375 26.265625 9.515625 29.90625 
Q 5.8125 33.546875 5.8125 39.890625 
Q 5.8125 47.609375 11.28125 51.796875 
Q 16.75 56 26.8125 56 
Q 31.78125 56 36.171875 55.265625 
Q 40.578125 54.546875 44.28125 53.078125 
z
" id="DejaVuSans-73"/>
     <path d="M 39.40625 66.21875 
Q 28.65625 66.21875 22.328125 58.203125 
Q 16.015625 50.203125 16.015625 36.375 
Q 16.015625 22.609375 22.328125 14.59375 
Q 28.65625 6.59375 39.40625 6.59375 
Q 50.140625 6.59375 56.421875 14.59375 
Q 62.703125 22.609375 62.703125 36.375 
Q 62.703125 50.203125 56.421875 58.203125 
Q 50.140625 66.21875 39.40625 66.21875 
z
M 53.21875 1.3125 
L 66.21875 -12.890625 
L 54.296875 -12.890625 
L 43.5 -1.21875 
Q 41.890625 -1.3125 41.03125 -1.359375 
Q 40.1875 -1.421875 39.40625 -1.421875 
Q 24.03125 -1.421875 14.8125 8.859375 
Q 5.609375 19.140625 5.609375 36.375 
Q 5.609375 53.65625 14.8125 63.9375 
Q 24.03125 74.21875 39.40625 74.21875 
Q 54.734375 74.21875 63.90625 63.9375 
Q 73.09375 53.65625 73.09375 36.375 
Q 73.09375 23.6875 67.984375 14.640625 
Q 62.890625 5.609375 53.21875 1.3125 
z
" id="DejaVuSans-51"/>
     <path d="M 11.71875 12.40625 
L 22.015625 12.40625 
L 22.015625 0 
L 11.71875 0 
z
M 11.71875 51.703125 
L 22.015625 51.703125 
L 22.015625 39.3125 
L 11.71875 39.3125 
z
" id="DejaVuSans-3a"/>
     <path d="M 19.671875 64.796875 
L 19.671875 37.40625 
L 32.078125 37.40625 
Q 38.96875 37.40625 42.71875 40.96875 
Q 46.484375 44.53125 46.484375 51.125 
Q 46.484375 57.671875 42.71875 61.234375 
Q 38.96875 64.796875 32.078125 64.796875 
z
M 9.8125 72.90625 
L 32.078125 72.90625 
Q 44.34375 72.90625 50.609375 67.359375 
Q 56.890625 61.8125 56.890625 51.125 
Q 56.890625 40.328125 50.609375 34.8125 
Q 44.34375 29.296875 32.078125 29.296875 
L 19.671875 29.296875 
L 19.671875 0 
L 9.8125 0 
z
" id="DejaVuSans-50"/>
     <path d="M 41.109375 46.296875 
Q 39.59375 47.171875 37.8125 47.578125 
Q 36.03125 48 33.890625 48 
Q 26.265625 48 22.1875 43.046875 
Q 18.109375 38.09375 18.109375 28.8125 
L 18.109375 0 
L 9.078125 0 
L 9.078125 54.6875 
L 18.109375 54.6875 
L 18.109375 46.1875 
Q 20.953125 51.171875 25.484375 53.578125 
Q 30.03125 56 36.53125 56 
Q 37.453125 56 38.578125 55.875 
Q 39.703125 55.765625 41.0625 55.515625 
z
" id="DejaVuSans-72"/>
     <path d="M 53.515625 70.515625 
L 53.515625 60.890625 
Q 47.90625 63.578125 42.921875 64.890625 
Q 37.9375 66.21875 33.296875 66.21875 
Q 25.25 66.21875 20.875 63.09375 
Q 16.5 59.96875 16.5 54.203125 
Q 16.5 49.359375 19.40625 46.890625 
Q 22.3125 44.4375 30.421875 42.921875 
L 36.375 41.703125 
Q 47.40625 39.59375 52.65625 34.296875 
Q 57.90625 29 57.90625 20.125 
Q 57.90625 9.515625 50.796875 4.046875 
Q 43.703125 -1.421875 29.984375 -1.421875 
Q 24.8125 -1.421875 18.96875 -0.25 
Q 13.140625 0.921875 6.890625 3.21875 
L 6.890625 13.375 
Q 12.890625 10.015625 18.65625 8.296875 
Q 24.421875 6.59375 29.984375 6.59375 
Q 38.421875 6.59375 43.015625 9.90625 
Q 47.609375 13.234375 47.609375 19.390625 
Q 47.609375 24.75 44.3125 27.78125 
Q 41.015625 30.8125 33.5 32.328125 
L 27.484375 33.5 
Q 16.453125 35.6875 11.515625 40.375 
Q 6.59375 45.0625 6.59375 53.421875 
Q 6.59375 63.09375 13.40625 68.65625 
Q 20.21875 74.21875 32.171875 74.21875 
Q 37.3125 74.21875 42.625 73.28125 
Q 47.953125 72.359375 53.515625 70.515625 
z
" id="DejaVuSans-53"/>
     <path d="M 14.796875 27.296875 
Q 14.796875 17.390625 18.875 11.75 
Q 22.953125 6.109375 30.078125 6.109375 
Q 37.203125 6.109375 41.296875 11.75 
Q 45.40625 17.390625 45.40625 27.296875 
Q 45.40625 37.203125 41.296875 42.84375 
Q 37.203125 48.484375 30.078125 48.484375 
Q 22.953125 48.484375 18.875 42.84375 
Q 14.796875 37.203125 14.796875 27.296875 
z
M 45.40625 8.203125 
Q 42.578125 3.328125 38.25 0.953125 
Q 33.9375 -1.421875 27.875 -1.421875 
Q 17.96875 -1.421875 11.734375 6.484375 
Q 5.515625 14.40625 5.515625 27.296875 
Q 5.515625 40.1875 11.734375 48.09375 
Q 17.96875 56 27.875 56 
Q 33.9375 56 38.25 53.625 
Q 42.578125 51.265625 45.40625 46.390625 
L 45.40625 54.6875 
L 54.390625 54.6875 
L 54.390625 -20.796875 
L 45.40625 -20.796875 
z
" id="DejaVuSans-71"/>
     <path d="M 48.78125 52.59375 
L 48.78125 44.1875 
Q 44.96875 46.296875 41.140625 47.34375 
Q 37.3125 48.390625 33.40625 48.390625 
Q 24.65625 48.390625 19.8125 42.84375 
Q 14.984375 37.3125 14.984375 27.296875 
Q 14.984375 17.28125 19.8125 11.734375 
Q 24.65625 6.203125 33.40625 6.203125 
Q 37.3125 6.203125 41.140625 7.25 
Q 44.96875 8.296875 48.78125 10.40625 
L 48.78125 2.09375 
Q 45.015625 0.34375 40.984375 -0.53125 
Q 36.96875 -1.421875 32.421875 -1.421875 
Q 20.0625 -1.421875 12.78125 6.34375 
Q 5.515625 14.109375 5.515625 27.296875 
Q 5.515625 40.671875 12.859375 48.328125 
Q 20.21875 56 33.015625 56 
Q 37.15625 56 41.109375 55.140625 
Q 45.0625 54.296875 48.78125 52.59375 
z
" id="DejaVuSans-63"/>
    </defs>
    <g transform="translate(375.449375 19.3575)scale(0.16 -0.16)">
     <use xlink:href="#DejaVuSans-46"/>
     <use x="57.378906" xlink:href="#DejaVuSans-61"/>
     <use x="118.658203" xlink:href="#DejaVuSans-73"/>
     <use x="170.757812" xlink:href="#DejaVuSans-74"/>
     <use x="209.966797" xlink:href="#DejaVuSans-51"/>
     <use x="288.677734" xlink:href="#DejaVuSans-43"/>
     <use x="358.501953" xlink:href="#DejaVuSans-3a"/>
     <use x="392.193359" xlink:href="#DejaVuSans-20"/>
     <use x="423.980469" xlink:href="#DejaVuSans-50"/>
     <use x="484.236328" xlink:href="#DejaVuSans-65"/>
     <use x="545.759766" xlink:href="#DejaVuSans-72"/>
     <use x="586.873047" xlink:href="#DejaVuSans-20"/>
     <use x="618.660156" xlink:href="#DejaVuSans-53"/>
     <use x="682.136719" xlink:href="#DejaVuSans-65"/>
     <use x="743.660156" xlink:href="#DejaVuSans-71"/>
     <use x="807.136719" xlink:href="#DejaVuSans-75"/>
     <use x="870.515625" xlink:href="#DejaVuSans-65"/>
     <use x="932.039062" xlink:href="#DejaVuSans-6e"/>
     <use x="995.417969" xlink:href="#DejaVuSans-63"/>
     <use x="1050.398438" xlink:href="#DejaVuSans-65"/>
     <use x="1111.921875" xlink:href="#DejaVuSans-20"/>
     <use x="1143.708984" xlink:href="#DejaVuSans-47"/>
     <use x="1221.199219" xlink:href="#DejaVuSans-43"/>
     <use x="1291.023438" xlink:href="#DejaVuSans-20"/>
     <use x="1322.810547" xlink:href="#DejaVuSans-43"/>
     <use x="1392.634766" xlink:href="#DejaVuSans-6f"/>
     <use x="1453.816406" xlink:href="#DejaVuSans-6e"/>
     <use x="1517.195312" xlink:href="#DejaVuSans-74"/>
     <use x="1556.404297" xlink:href="#DejaVuSans-65"/>
     <use x="1617.927734" xlink:href="#DejaVuSans-6e"/>
     <use x="1681.306641" xlink:href="#DejaVuSans-74"/>
    </g>
   </g>
   <g id="legend_1">
    <g id="line2d_20">
     <path d="M 47.800625 315.168834 
L 63.800625 315.168834 
" style="fill:none;stroke:#f0ad4e;stroke-linecap:square;"/>
    </g>
    <g id="line2d_21"/>
    <g id="text_18">
     <!-- fastqc | SRR9264344_S0_L001_R2_001 -->
     <defs>
      <path d="M 37.109375 75.984375 
L 37.109375 68.5 
L 28.515625 68.5 
Q 23.6875 68.5 21.796875 66.546875 
Q 19.921875 64.59375 19.921875 59.515625 
L 19.921875 54.6875 
L 34.71875 54.6875 
L 34.71875 47.703125 
L 19.921875 47.703125 
L 19.921875 0 
L 10.890625 0 
L 10.890625 47.703125 
L 2.296875 47.703125 
L 2.296875 54.6875 
L 10.890625 54.6875 
L 10.890625 58.5 
Q 10.890625 67.625 15.140625 71.796875 
Q 19.390625 75.984375 28.609375 75.984375 
z
" id="DejaVuSans-66"/>
      <path d="M 21 76.421875 
L 21 -23.578125 
L 12.703125 -23.578125 
L 12.703125 76.421875 
z
" id="DejaVuSans-7c"/>
      <path d="M 44.390625 34.1875 
Q 47.5625 33.109375 50.5625 29.59375 
Q 53.5625 26.078125 56.59375 19.921875 
L 66.609375 0 
L 56 0 
L 46.6875 18.703125 
Q 43.0625 26.03125 39.671875 28.421875 
Q 36.28125 30.8125 30.421875 30.8125 
L 19.671875 30.8125 
L 19.671875 0 
L 9.8125 0 
L 9.8125 72.90625 
L 32.078125 72.90625 
Q 44.578125 72.90625 50.734375 67.671875 
Q 56.890625 62.453125 56.890625 51.90625 
Q 56.890625 45.015625 53.6875 40.46875 
Q 50.484375 35.9375 44.390625 34.1875 
z
M 19.671875 64.796875 
L 19.671875 38.921875 
L 32.078125 38.921875 
Q 39.203125 38.921875 42.84375 42.21875 
Q 46.484375 45.515625 46.484375 51.90625 
Q 46.484375 58.296875 42.84375 61.546875 
Q 39.203125 64.796875 32.078125 64.796875 
z
" id="DejaVuSans-52"/>
      <path d="M 10.984375 1.515625 
L 10.984375 10.5 
Q 14.703125 8.734375 18.5 7.8125 
Q 22.3125 6.890625 25.984375 6.890625 
Q 35.75 6.890625 40.890625 13.453125 
Q 46.046875 20.015625 46.78125 33.40625 
Q 43.953125 29.203125 39.59375 26.953125 
Q 35.25 24.703125 29.984375 24.703125 
Q 19.046875 24.703125 12.671875 31.3125 
Q 6.296875 37.9375 6.296875 49.421875 
Q 6.296875 60.640625 12.9375 67.421875 
Q 19.578125 74.21875 30.609375 74.21875 
Q 43.265625 74.21875 49.921875 64.515625 
Q 56.59375 54.828125 56.59375 36.375 
Q 56.59375 19.140625 48.40625 8.859375 
Q 40.234375 -1.421875 26.421875 -1.421875 
Q 22.703125 -1.421875 18.890625 -0.6875 
Q 15.09375 0.046875 10.984375 1.515625 
z
M 30.609375 32.421875 
Q 37.25 32.421875 41.125 36.953125 
Q 45.015625 41.5 45.015625 49.421875 
Q 45.015625 57.28125 41.125 61.84375 
Q 37.25 66.40625 30.609375 66.40625 
Q 23.96875 66.40625 20.09375 61.84375 
Q 16.21875 57.28125 16.21875 49.421875 
Q 16.21875 41.5 20.09375 36.953125 
Q 23.96875 32.421875 30.609375 32.421875 
z
" id="DejaVuSans-39"/>
      <path d="M 40.578125 39.3125 
Q 47.65625 37.796875 51.625 33 
Q 55.609375 28.21875 55.609375 21.1875 
Q 55.609375 10.40625 48.1875 4.484375 
Q 40.765625 -1.421875 27.09375 -1.421875 
Q 22.515625 -1.421875 17.65625 -0.515625 
Q 12.796875 0.390625 7.625 2.203125 
L 7.625 11.71875 
Q 11.71875 9.328125 16.59375 8.109375 
Q 21.484375 6.890625 26.8125 6.890625 
Q 36.078125 6.890625 40.9375 10.546875 
Q 45.796875 14.203125 45.796875 21.1875 
Q 45.796875 27.640625 41.28125 31.265625 
Q 36.765625 34.90625 28.71875 34.90625 
L 20.21875 34.90625 
L 20.21875 43.015625 
L 29.109375 43.015625 
Q 36.375 43.015625 40.234375 45.921875 
Q 44.09375 48.828125 44.09375 54.296875 
Q 44.09375 59.90625 40.109375 62.90625 
Q 36.140625 65.921875 28.71875 65.921875 
Q 24.65625 65.921875 20.015625 65.03125 
Q 15.375 64.15625 9.8125 62.3125 
L 9.8125 71.09375 
Q 15.4375 72.65625 20.34375 73.4375 
Q 25.25 74.21875 29.59375 74.21875 
Q 40.828125 74.21875 47.359375 69.109375 
Q 53.90625 64.015625 53.90625 55.328125 
Q 53.90625 49.265625 50.4375 45.09375 
Q 46.96875 40.921875 40.578125 39.3125 
z
" id="DejaVuSans-33"/>
      <path d="M 50.984375 -16.609375 
L 50.984375 -23.578125 
L -0.984375 -23.578125 
L -0.984375 -16.609375 
z
" id="DejaVuSans-5f"/>
      <path d="M 9.8125 72.90625 
L 19.671875 72.90625 
L 19.671875 8.296875 
L 55.171875 8.296875 
L 55.171875 0 
L 9.8125 0 
z
" id="DejaVuSans-4c"/>
     </defs>
     <g transform="translate(70.200625 317.968834)scale(0.08 -0.08)">
      <use xlink:href="#DejaVuSans-66"/>
      <use x="35.205078" xlink:href="#DejaVuSans-61"/>
      <use x="96.484375" xlink:href="#DejaVuSans-73"/>
      <use x="148.583984" xlink:href="#DejaVuSans-74"/>
      <use x="187.792969" xlink:href="#DejaVuSans-71"/>
      <use x="251.269531" xlink:href="#DejaVuSans-63"/>
      <use x="306.25" xlink:href="#DejaVuSans-20"/>
      <use x="338.037109" xlink:href="#DejaVuSans-7c"/>
      <use x="371.728516" xlink:href="#DejaVuSans-20"/>
      <use x="403.515625" xlink:href="#DejaVuSans-53"/>
      <use x="466.992188" xlink:href="#DejaVuSans-52"/>
      <use x="536.474609" xlink:href="#DejaVuSans-52"/>
      <use x="605.957031" xlink:href="#DejaVuSans-39"/>
      <use x="669.580078" xlink:href="#DejaVuSans-32"/>
      <use x="733.203125" xlink:href="#DejaVuSans-36"/>
      <use x="796.826172" xlink:href="#DejaVuSans-34"/>
      <use x="860.449219" xlink:href="#DejaVuSans-33"/>
      <use x="924.072266" xlink:href="#DejaVuSans-34"/>
      <use x="987.695312" xlink:href="#DejaVuSans-34"/>
      <use x="1051.318359" xlink:href="#DejaVuSans-5f"/>
      <use x="1101.318359" xlink:href="#DejaVuSans-53"/>
      <use x="1164.794922" xlink:href="#DejaVuSans-30"/>
      <use x="1228.417969" xlink:href="#DejaVuSans-5f"/>
      <use x="1278.417969" xlink:href="#DejaVuSans-4c"/>
      <use x="1334.130859" xlink:href="#DejaVuSans-30"/>
      <use x="1397.753906" xlink:href="#DejaVuSans-30"/>
      <use x="1461.376953" xlink:href="#DejaVuSans-31"/>
      <use x="1525" xlink:href="#DejaVuSans-5f"/>
      <use x="1575" xlink:href="#DejaVuSans-52"/>
      <use x="1644.482422" xlink:href="#DejaVuSans-32"/>
      <use x="1708.105469" xlink:href="#DejaVuSans-5f"/>
      <use x="1758.105469" xlink:href="#DejaVuSans-30"/>
      <use x="1821.728516" xlink:href="#DejaVuSans-30"/>
      <use x="1885.351562" xlink:href="#DejaVuSans-31"/>
     </g>
    </g>
    <g id="line2d_22">
     <path d="M 47.800625 327.168834 
L 63.800625 327.168834 
" style="fill:none;stroke:#d9534f;stroke-linecap:square;"/>
    </g>
    <g id="line2d_23"/>
    <g id="text_19">
     <!-- fastqc | SRR9264345_S0_L001_R2_001 -->
     <defs>
      <path d="M 10.796875 72.90625 
L 49.515625 72.90625 
L 49.515625 64.59375 
L 19.828125 64.59375 
L 19.828125 46.734375 
Q 21.96875 47.46875 24.109375 47.828125 
Q 26.265625 48.1875 28.421875 48.1875 
Q 40.625 48.1875 47.75 41.5 
Q 54.890625 34.8125 54.890625 23.390625 
Q 54.890625 11.625 47.5625 5.09375 
Q 40.234375 -1.421875 26.90625 -1.421875 
Q 22.3125 -1.421875 17.546875 -0.640625 
Q 12.796875 0.140625 7.71875 1.703125 
L 7.71875 11.625 
Q 12.109375 9.234375 16.796875 8.0625 
Q 21.484375 6.890625 26.703125 6.890625 
Q 35.15625 6.890625 40.078125 11.328125 
Q 45.015625 15.765625 45.015625 23.390625 
Q 45.015625 31 40.078125 35.4375 
Q 35.15625 39.890625 26.703125 39.890625 
Q 22.75 39.890625 18.8125 39.015625 
Q 14.890625 38.140625 10.796875 36.28125 
z
" id="DejaVuSans-35"/>
     </defs>
     <g transform="translate(70.200625 329.968834)scale(0.08 -0.08)">
      <use xlink:href="#DejaVuSans-66"/>
      <use x="35.205078" xlink:href="#DejaVuSans-61"/>
      <use x="96.484375" xlink:href="#DejaVuSans-73"/>
      <use x="148.583984" xlink:href="#DejaVuSans-74"/>
      <use x="187.792969" xlink:href="#DejaVuSans-71"/>
      <use x="251.269531" xlink:href="#DejaVuSans-63"/>
      <use x="306.25" xlink:href="#DejaVuSans-20"/>
      <use x="338.037109" xlink:href="#DejaVuSans-7c"/>
      <use x="371.728516" xlink:href="#DejaVuSans-20"/>
      <use x="403.515625" xlink:href="#DejaVuSans-53"/>
      <use x="466.992188" xlink:href="#DejaVuSans-52"/>
      <use x="536.474609" xlink:href="#DejaVuSans-52"/>
      <use x="605.957031" xlink:href="#DejaVuSans-39"/>
      <use x="669.580078" xlink:href="#DejaVuSans-32"/>
      <use x="733.203125" xlink:href="#DejaVuSans-36"/>
      <use x="796.826172" xlink:href="#DejaVuSans-34"/>
      <use x="860.449219" xlink:href="#DejaVuSans-33"/>
      <use x="924.072266" xlink:href="#DejaVuSans-34"/>
      <use x="987.695312" xlink:href="#DejaVuSans-35"/>
      <use x="1051.318359" xlink:href="#DejaVuSans-5f"/>
      <use x="1101.318359" xlink:href="#DejaVuSans-53"/>
      <use x="1164.794922" xlink:href="#DejaVuSans-30"/>
      <use x="1228.417969" xlink:href="#DejaVuSans-5f"/>
      <use x="1278.417969" xlink:href="#DejaVuSans-4c"/>
      <use x="1334.130859" xlink:href="#DejaVuSans-30"/>
      <use x="1397.753906" xlink:href="#DejaVuSans-30"/>
      <use x="1461.376953" xlink:href="#DejaVuSans-31"/>
      <use x="1525" xlink:href="#DejaVuSans-5f"/>
      <use x="1575" xlink:href="#DejaVuSans-52"/>
      <use x="1644.482422" xlink:href="#DejaVuSans-32"/>
      <use x="1708.105469" xlink:href="#DejaVuSans-5f"/>
      <use x="1758.105469" xlink:href="#DejaVuSans-30"/>
      <use x="1821.728516" xlink:href="#DejaVuSans-30"/>
      <use x="1885.351562" xlink:href="#DejaVuSans-31"/>
     </g>
    </g>
    <g id="line2d_24">
     <path d="M 47.800625 339.168834 
L 63.800625 339.168834 
" style="fill:none;stroke:#d9534f;stroke-linecap:square;"/>
    </g>
    <g id="line2d_25"/>
    <g id="text_20">
     <!-- fastqc | SRR9264346_S0_L001_R2_001 -->
     <g transform="translate(70.200625 341.968834)scale(0.08 -0.08)">
      <use xlink:href="#DejaVuSans-66"/>
      <use x="35.205078" xlink:href="#DejaVuSans-61"/>
      <use x="96.484375" xlink:href="#DejaVuSans-73"/>
      <use x="148.583984" xlink:href="#DejaVuSans-74"/>
      <use x="187.792969" xlink:href="#DejaVuSans-71"/>
      <use x="251.269531" xlink:href="#DejaVuSans-63"/>
      <use x="306.25" xlink:href="#DejaVuSans-20"/>
      <use x="338.037109" xlink:href="#DejaVuSans-7c"/>
      <use x="371.728516" xlink:href="#DejaVuSans-20"/>
      <use x="403.515625" xlink:href="#DejaVuSans-53"/>
      <use x="466.992188" xlink:href="#DejaVuSans-52"/>
      <use x="536.474609" xlink:href="#DejaVuSans-52"/>
      <use x="605.957031" xlink:href="#DejaVuSans-39"/>
      <use x="669.580078" xlink:href="#DejaVuSans-32"/>
      <use x="733.203125" xlink:href="#DejaVuSans-36"/>
      <use x="796.826172" xlink:href="#DejaVuSans-34"/>
      <use x="860.449219" xlink:href="#DejaVuSans-33"/>
      <use x="924.072266" xlink:href="#DejaVuSans-34"/>
      <use x="987.695312" xlink:href="#DejaVuSans-36"/>
      <use x="1051.318359" xlink:href="#DejaVuSans-5f"/>
      <use x="1101.318359" xlink:href="#DejaVuSans-53"/>
      <use x="1164.794922" xlink:href="#DejaVuSans-30"/>
      <use x="1228.417969" xlink:href="#DejaVuSans-5f"/>
      <use x="1278.417969" xlink:href="#DejaVuSans-4c"/>
      <use x="1334.130859" xlink:href="#DejaVuSans-30"/>
      <use x="1397.753906" xlink:href="#DejaVuSans-30"/>
      <use x="1461.376953" xlink:href="#DejaVuSans-31"/>
      <use x="1525" xlink:href="#DejaVuSans-5f"/>
      <use x="1575" xlink:href="#DejaVuSans-52"/>
      <use x="1644.482422" xlink:href="#DejaVuSans-32"/>
      <use x="1708.105469" xlink:href="#DejaVuSans-5f"/>
      <use x="1758.105469" xlink:href="#DejaVuSans-30"/>
      <use x="1821.728516" xlink:href="#DejaVuSans-30"/>
      <use x="1885.351562" xlink:href="#DejaVuSans-31"/>
     </g>
    </g>
    <g id="line2d_26">
     <path d="M 235.865313 315.168834 
L 251.865313 315.168834 
" style="fill:none;stroke:#5cb85c;stroke-linecap:square;"/>
    </g>
    <g id="line2d_27"/>
    <g id="text_21">
     <!-- fastqc | SRR9264347_S0_L001_R2_001 -->
     <g transform="translate(258.265312 317.968834)scale(0.08 -0.08)">
      <use xlink:href="#DejaVuSans-66"/>
      <use x="35.205078" xlink:href="#DejaVuSans-61"/>
      <use x="96.484375" xlink:href="#DejaVuSans-73"/>
      <use x="148.583984" xlink:href="#DejaVuSans-74"/>
      <use x="187.792969" xlink:href="#DejaVuSans-71"/>
      <use x="251.269531" xlink:href="#DejaVuSans-63"/>
      <use x="306.25" xlink:href="#DejaVuSans-20"/>
      <use x="338.037109" xlink:href="#DejaVuSans-7c"/>
      <use x="371.728516" xlink:href="#DejaVuSans-20"/>
      <use x="403.515625" xlink:href="#DejaVuSans-53"/>
      <use x="466.992188" xlink:href="#DejaVuSans-52"/>
      <use x="536.474609" xlink:href="#DejaVuSans-52"/>
      <use x="605.957031" xlink:href="#DejaVuSans-39"/>
      <use x="669.580078" xlink:href="#DejaVuSans-32"/>
      <use x="733.203125" xlink:href="#DejaVuSans-36"/>
      <use x="796.826172" xlink:href="#DejaVuSans-34"/>
      <use x="860.449219" xlink:href="#DejaVuSans-33"/>
      <use x="924.072266" xlink:href="#DejaVuSans-34"/>
      <use x="987.695312" xlink:href="#DejaVuSans-37"/>
      <use x="1051.318359" xlink:href="#DejaVuSans-5f"/>
      <use x="1101.318359" xlink:href="#DejaVuSans-53"/>
      <use x="1164.794922" xlink:href="#DejaVuSans-30"/>
      <use x="1228.417969" xlink:href="#DejaVuSans-5f"/>
      <use x="1278.417969" xlink:href="#DejaVuSans-4c"/>
      <use x="1334.130859" xlink:href="#DejaVuSans-30"/>
      <use x="1397.753906" xlink:href="#DejaVuSans-30"/>
      <use x="1461.376953" xlink:href="#DejaVuSans-31"/>
      <use x="1525" xlink:href="#DejaVuSans-5f"/>
      <use x="1575" xlink:href="#DejaVuSans-52"/>
      <use x="1644.482422" xlink:href="#DejaVuSans-32"/>
      <use x="1708.105469" xlink:href="#DejaVuSans-5f"/>
      <use x="1758.105469" xlink:href="#DejaVuSans-30"/>
      <use x="1821.728516" xlink:href="#DejaVuSans-30"/>
      <use x="1885.351562" xlink:href="#DejaVuSans-31"/>
     </g>
    </g>
    <g id="line2d_28">
     <path d="M 235.865313 327.168834 
L 251.865313 327.168834 
" style="fill:none;stroke:#f0ad4e;stroke-linecap:square;"/>
    </g>
    <g id="line2d_29"/>
    <g id="text_22">
     <!-- fastqc | SRR9264348_S0_L001_R2_001 -->
     <g transform="translate(258.265312 329.968834)scale(0.08 -0.08)">
      <use xlink:href="#DejaVuSans-66"/>
      <use x="35.205078" xlink:href="#DejaVuSans-61"/>
      <use x="96.484375" xlink:href="#DejaVuSans-73"/>
      <use x="148.583984" xlink:href="#DejaVuSans-74"/>
      <use x="187.792969" xlink:href="#DejaVuSans-71"/>
      <use x="251.269531" xlink:href="#DejaVuSans-63"/>
      <use x="306.25" xlink:href="#DejaVuSans-20"/>
      <use x="338.037109" xlink:href="#DejaVuSans-7c"/>
      <use x="371.728516" xlink:href="#DejaVuSans-20"/>
      <use x="403.515625" xlink:href="#DejaVuSans-53"/>
      <use x="466.992188" xlink:href="#DejaVuSans-52"/>
      <use x="536.474609" xlink:href="#DejaVuSans-52"/>
      <use x="605.957031" xlink:href="#DejaVuSans-39"/>
      <use x="669.580078" xlink:href="#DejaVuSans-32"/>
      <use x="733.203125" xlink:href="#DejaVuSans-36"/>
      <use x="796.826172" xlink:href="#DejaVuSans-34"/>
      <use x="860.449219" xlink:href="#DejaVuSans-33"/>
      <use x="924.072266" xlink:href="#DejaVuSans-34"/>
      <use x="987.695312" xlink:href="#DejaVuSans-38"/>
      <use x="1051.318359" xlink:href="#DejaVuSans-5f"/>
      <use x="1101.318359" xlink:href="#DejaVuSans-53"/>
      <use x="1164.794922" xlink:href="#DejaVuSans-30"/>
      <use x="1228.417969" xlink:href="#DejaVuSans-5f"/>
      <use x="1278.417969" xlink:href="#DejaVuSans-4c"/>
      <use x="1334.130859" xlink:href="#DejaVuSans-30"/>
      <use x="1397.753906" xlink:href="#DejaVuSans-30"/>
      <use x="1461.376953" xlink:href="#DejaVuSans-31"/>
      <use x="1525" xlink:href="#DejaVuSans-5f"/>
      <use x="1575" xlink:href="#DejaVuSans-52"/>
      <use x="1644.482422" xlink:href="#DejaVuSans-32"/>
      <use x="1708.105469" xlink:href="#DejaVuSans-5f"/>
      <use x="1758.105469" xlink:href="#DejaVuSans-30"/>
      <use x="1821.728516" xlink:href="#DejaVuSans-30"/>
      <use x="1885.351562" xlink:href="#DejaVuSans-31"/>
     </g>
    </g>
    <g id="line2d_30">
     <path d="M 423.93 315.168834 
L 439.93 315.168834 
" style="fill:none;stroke:#f0ad4e;stroke-linecap:square;"/>
    </g>
    <g id="line2d_31"/>
    <g id="text_23">
     <!-- fastqc | SRR9264349_S0_L001_R2_001 -->
     <g transform="translate(446.33 317.968834)scale(0.08 -0.08)">
      <use xlink:href="#DejaVuSans-66"/>
      <use x="35.205078" xlink:href="#DejaVuSans-61"/>
      <use x="96.484375" xlink:href="#DejaVuSans-73"/>
      <use x="148.583984" xlink:href="#DejaVuSans-74"/>
      <use x="187.792969" xlink:href="#DejaVuSans-71"/>
      <use x="251.269531" xlink:href="#DejaVuSans-63"/>
      <use x="306.25" xlink:href="#DejaVuSans-20"/>
      <use x="338.037109" xlink:href="#DejaVuSans-7c"/>
      <use x="371.728516" xlink:href="#DejaVuSans-20"/>
      <use x="403.515625" xlink:href="#DejaVuSans-53"/>
      <use x="466.992188" xlink:href="#DejaVuSans-52"/>
      <use x="536.474609" xlink:href="#DejaVuSans-52"/>
      <use x="605.957031" xlink:href="#DejaVuSans-39"/>
      <use x="669.580078" xlink:href="#DejaVuSans-32"/>
      <use x="733.203125" xlink:href="#DejaVuSans-36"/>
      <use x="796.826172" xlink:href="#DejaVuSans-34"/>
      <use x="860.449219" xlink:href="#DejaVuSans-33"/>
      <use x="924.072266" xlink:href="#DejaVuSans-34"/>
      <use x="987.695312" xlink:href="#DejaVuSans-39"/>
      <use x="1051.318359" xlink:href="#DejaVuSans-5f"/>
      <use x="1101.318359" xlink:href="#DejaVuSans-53"/>
      <use x="1164.794922" xlink:href="#DejaVuSans-30"/>
      <use x="1228.417969" xlink:href="#DejaVuSans-5f"/>
      <use x="1278.417969" xlink:href="#DejaVuSans-4c"/>
      <use x="1334.130859" xlink:href="#DejaVuSans-30"/>
      <use x="1397.753906" xlink:href="#DejaVuSans-30"/>
      <use x="1461.376953" xlink:href="#DejaVuSans-31"/>
      <use x="1525" xlink:href="#DejaVuSans-5f"/>
      <use x="1575" xlink:href="#DejaVuSans-52"/>
      <use x="1644.482422" xlink:href="#DejaVuSans-32"/>
      <use x="1708.105469" xlink:href="#DejaVuSans-5f"/>
      <use x="1758.105469" xlink:href="#DejaVuSans-30"/>
      <use x="1821.728516" xlink:href="#DejaVuSans-30"/>
      <use x="1885.351562" xlink:href="#DejaVuSans-31"/>
     </g>
    </g>
    <g id="line2d_32">
     <path d="M 423.93 327.168834 
L 439.93 327.168834 
" style="fill:none;stroke:#f0ad4e;stroke-linecap:square;"/>
    </g>
    <g id="line2d_33"/>
    <g id="text_24">
     <!-- fastqc | SRR9264350_S0_L001_R2_001 -->
     <g transform="translate(446.33 329.968834)scale(0.08 -0.08)">
      <use xlink:href="#DejaVuSans-66"/>
      <use x="35.205078" xlink:href="#DejaVuSans-61"/>
      <use x="96.484375" xlink:href="#DejaVuSans-73"/>
      <use x="148.583984" xlink:href="#DejaVuSans-74"/>
      <use x="187.792969" xlink:href="#DejaVuSans-71"/>
      <use x="251.269531" xlink:href="#DejaVuSans-63"/>
      <use x="306.25" xlink:href="#DejaVuSans-20"/>
      <use x="338.037109" xlink:href="#DejaVuSans-7c"/>
      <use x="371.728516" xlink:href="#DejaVuSans-20"/>
      <use x="403.515625" xlink:href="#DejaVuSans-53"/>
      <use x="466.992188" xlink:href="#DejaVuSans-52"/>
      <use x="536.474609" xlink:href="#DejaVuSans-52"/>
      <use x="605.957031" xlink:href="#DejaVuSans-39"/>
      <use x="669.580078" xlink:href="#DejaVuSans-32"/>
      <use x="733.203125" xlink:href="#DejaVuSans-36"/>
      <use x="796.826172" xlink:href="#DejaVuSans-34"/>
      <use x="860.449219" xlink:href="#DejaVuSans-33"/>
      <use x="924.072266" xlink:href="#DejaVuSans-35"/>
      <use x="987.695312" xlink:href="#DejaVuSans-30"/>
      <use x="1051.318359" xlink:href="#DejaVuSans-5f"/>
      <use x="1101.318359" xlink:href="#DejaVuSans-53"/>
      <use x="1164.794922" xlink:href="#DejaVuSans-30"/>
      <use x="1228.417969" xlink:href="#DejaVuSans-5f"/>
      <use x="1278.417969" xlink:href="#DejaVuSans-4c"/>
      <use x="1334.130859" xlink:href="#DejaVuSans-30"/>
      <use x="1397.753906" xlink:href="#DejaVuSans-30"/>
      <use x="1461.376953" xlink:href="#DejaVuSans-31"/>
      <use x="1525" xlink:href="#DejaVuSans-5f"/>
      <use x="1575" xlink:href="#DejaVuSans-52"/>
      <use x="1644.482422" xlink:href="#DejaVuSans-32"/>
      <use x="1708.105469" xlink:href="#DejaVuSans-5f"/>
      <use x="1758.105469" xlink:href="#DejaVuSans-30"/>
      <use x="1821.728516" xlink:href="#DejaVuSans-30"/>
      <use x="1885.351562" xlink:href="#DejaVuSans-31"/>
     </g>
    </g>
    <g id="line2d_34">
     <path d="M 611.994688 315.168834 
L 627.994688 315.168834 
" style="fill:none;stroke:#f0ad4e;stroke-linecap:square;"/>
    </g>
    <g id="line2d_35"/>
    <g id="text_25">
     <!-- fastqc | SRR9264351_S0_L001_R2_001 -->
     <g transform="translate(634.394688 317.968834)scale(0.08 -0.08)">
      <use xlink:href="#DejaVuSans-66"/>
      <use x="35.205078" xlink:href="#DejaVuSans-61"/>
      <use x="96.484375" xlink:href="#DejaVuSans-73"/>
      <use x="148.583984" xlink:href="#DejaVuSans-74"/>
      <use x="187.792969" xlink:href="#DejaVuSans-71"/>
      <use x="251.269531" xlink:href="#DejaVuSans-63"/>
      <use x="306.25" xlink:href="#DejaVuSans-20"/>
      <use x="338.037109" xlink:href="#DejaVuSans-7c"/>
      <use x="371.728516" xlink:href="#DejaVuSans-20"/>
      <use x="403.515625" xlink:href="#DejaVuSans-53"/>
      <use x="466.992188" xlink:href="#DejaVuSans-52"/>
      <use x="536.474609" xlink:href="#DejaVuSans-52"/>
      <use x="605.957031" xlink:href="#DejaVuSans-39"/>
      <use x="669.580078" xlink:href="#DejaVuSans-32"/>
      <use x="733.203125" xlink:href="#DejaVuSans-36"/>
      <use x="796.826172" xlink:href="#DejaVuSans-34"/>
      <use x="860.449219" xlink:href="#DejaVuSans-33"/>
      <use x="924.072266" xlink:href="#DejaVuSans-35"/>
      <use x="987.695312" xlink:href="#DejaVuSans-31"/>
      <use x="1051.318359" xlink:href="#DejaVuSans-5f"/>
      <use x="1101.318359" xlink:href="#DejaVuSans-53"/>
      <use x="1164.794922" xlink:href="#DejaVuSans-30"/>
      <use x="1228.417969" xlink:href="#DejaVuSans-5f"/>
      <use x="1278.417969" xlink:href="#DejaVuSans-4c"/>
      <use x="1334.130859" xlink:href="#DejaVuSans-30"/>
      <use x="1397.753906" xlink:href="#DejaVuSans-30"/>
      <use x="1461.376953" xlink:href="#DejaVuSans-31"/>
      <use x="1525" xlink:href="#DejaVuSans-5f"/>
      <use x="1575" xlink:href="#DejaVuSans-52"/>
      <use x="1644.482422" xlink:href="#DejaVuSans-32"/>
      <use x="1708.105469" xlink:href="#DejaVuSans-5f"/>
      <use x="1758.105469" xlink:href="#DejaVuSans-30"/>
      <use x="1821.728516" xlink:href="#DejaVuSans-30"/>
      <use x="1885.351562" xlink:href="#DejaVuSans-31"/>
     </g>
    </g>
    <g id="line2d_36">
     <path d="M 611.994688 327.168834 
L 627.994688 327.168834 
" style="fill:none;stroke:#f0ad4e;stroke-linecap:square;"/>
    </g>
    <g id="line2d_37"/>
    <g id="text_26">
     <!-- fastqc | SRR9264352_S0_L001_R2_001 -->
     <g transform="translate(634.394688 329.968834)scale(0.08 -0.08)">
      <use xlink:href="#DejaVuSans-66"/>
      <use x="35.205078" xlink:href="#DejaVuSans-61"/>
      <use x="96.484375" xlink:href="#DejaVuSans-73"/>
      <use x="148.583984" xlink:href="#DejaVuSans-74"/>
      <use x="187.792969" xlink:href="#DejaVuSans-71"/>
      <use x="251.269531" xlink:href="#DejaVuSans-63"/>
      <use x="306.25" xlink:href="#DejaVuSans-20"/>
      <use x="338.037109" xlink:href="#DejaVuSans-7c"/>
      <use x="371.728516" xlink:href="#DejaVuSans-20"/>
      <use x="403.515625" xlink:href="#DejaVuSans-53"/>
      <use x="466.992188" xlink:href="#DejaVuSans-52"/>
      <use x="536.474609" xlink:href="#DejaVuSans-52"/>
      <use x="605.957031" xlink:href="#DejaVuSans-39"/>
      <use x="669.580078" xlink:href="#DejaVuSans-32"/>
      <use x="733.203125" xlink:href="#DejaVuSans-36"/>
      <use x="796.826172" xlink:href="#DejaVuSans-34"/>
      <use x="860.449219" xlink:href="#DejaVuSans-33"/>
      <use x="924.072266" xlink:href="#DejaVuSans-35"/>
      <use x="987.695312" xlink:href="#DejaVuSans-32"/>
      <use x="1051.318359" xlink:href="#DejaVuSans-5f"/>
      <use x="1101.318359" xlink:href="#DejaVuSans-53"/>
      <use x="1164.794922" xlink:href="#DejaVuSans-30"/>
      <use x="1228.417969" xlink:href="#DejaVuSans-5f"/>
      <use x="1278.417969" xlink:href="#DejaVuSans-4c"/>
      <use x="1334.130859" xlink:href="#DejaVuSans-30"/>
      <use x="1397.753906" xlink:href="#DejaVuSans-30"/>
      <use x="1461.376953" xlink:href="#DejaVuSans-31"/>
      <use x="1525" xlink:href="#DejaVuSans-5f"/>
      <use x="1575" xlink:href="#DejaVuSans-52"/>
      <use x="1644.482422" xlink:href="#DejaVuSans-32"/>
      <use x="1708.105469" xlink:href="#DejaVuSans-5f"/>
      <use x="1758.105469" xlink:href="#DejaVuSans-30"/>
      <use x="1821.728516" xlink:href="#DejaVuSans-30"/>
      <use x="1885.351562" xlink:href="#DejaVuSans-31"/>
     </g>
    </g>
    <g id="line2d_38">
     <path d="M 800.059375 315.168834 
L 816.059375 315.168834 
" style="fill:none;stroke:#d9534f;stroke-linecap:square;"/>
    </g>
    <g id="line2d_39"/>
    <g id="text_27">
     <!-- fastqc | SRR9264353_S0_L001_R2_001 -->
     <g transform="translate(822.459375 317.968834)scale(0.08 -0.08)">
      <use xlink:href="#DejaVuSans-66"/>
      <use x="35.205078" xlink:href="#DejaVuSans-61"/>
      <use x="96.484375" xlink:href="#DejaVuSans-73"/>
      <use x="148.583984" xlink:href="#DejaVuSans-74"/>
      <use x="187.792969" xlink:href="#DejaVuSans-71"/>
      <use x="251.269531" xlink:href="#DejaVuSans-63"/>
      <use x="306.25" xlink:href="#DejaVuSans-20"/>
      <use x="338.037109" xlink:href="#DejaVuSans-7c"/>
      <use x="371.728516" xlink:href="#DejaVuSans-20"/>
      <use x="403.515625" xlink:href="#DejaVuSans-53"/>
      <use x="466.992188" xlink:href="#DejaVuSans-52"/>
      <use x="536.474609" xlink:href="#DejaVuSans-52"/>
      <use x="605.957031" xlink:href="#DejaVuSans-39"/>
      <use x="669.580078" xlink:href="#DejaVuSans-32"/>
      <use x="733.203125" xlink:href="#DejaVuSans-36"/>
      <use x="796.826172" xlink:href="#DejaVuSans-34"/>
      <use x="860.449219" xlink:href="#DejaVuSans-33"/>
      <use x="924.072266" xlink:href="#DejaVuSans-35"/>
      <use x="987.695312" xlink:href="#DejaVuSans-33"/>
      <use x="1051.318359" xlink:href="#DejaVuSans-5f"/>
      <use x="1101.318359" xlink:href="#DejaVuSans-53"/>
      <use x="1164.794922" xlink:href="#DejaVuSans-30"/>
      <use x="1228.417969" xlink:href="#DejaVuSans-5f"/>
      <use x="1278.417969" xlink:href="#DejaVuSans-4c"/>
      <use x="1334.130859" xlink:href="#DejaVuSans-30"/>
      <use x="1397.753906" xlink:href="#DejaVuSans-30"/>
      <use x="1461.376953" xlink:href="#DejaVuSans-31"/>
      <use x="1525" xlink:href="#DejaVuSans-5f"/>
      <use x="1575" xlink:href="#DejaVuSans-52"/>
      <use x="1644.482422" xlink:href="#DejaVuSans-32"/>
      <use x="1708.105469" xlink:href="#DejaVuSans-5f"/>
      <use x="1758.105469" xlink:href="#DejaVuSans-30"/>
      <use x="1821.728516" xlink:href="#DejaVuSans-30"/>
      <use x="1885.351562" xlink:href="#DejaVuSans-31"/>
     </g>
    </g>
    <g id="line2d_40">
     <path d="M 800.059375 327.168834 
L 816.059375 327.168834 
" style="fill:none;stroke:#f0ad4e;stroke-linecap:square;"/>
    </g>
    <g id="line2d_41"/>
    <g id="text_28">
     <!-- fastqc | SRR9264354_S0_L001_R2_001 -->
     <g transform="translate(822.459375 329.968834)scale(0.08 -0.08)">
      <use xlink:href="#DejaVuSans-66"/>
      <use x="35.205078" xlink:href="#DejaVuSans-61"/>
      <use x="96.484375" xlink:href="#DejaVuSans-73"/>
      <use x="148.583984" xlink:href="#DejaVuSans-74"/>
      <use x="187.792969" xlink:href="#DejaVuSans-71"/>
      <use x="251.269531" xlink:href="#DejaVuSans-63"/>
      <use x="306.25" xlink:href="#DejaVuSans-20"/>
      <use x="338.037109" xlink:href="#DejaVuSans-7c"/>
      <use x="371.728516" xlink:href="#DejaVuSans-20"/>
      <use x="403.515625" xlink:href="#DejaVuSans-53"/>
      <use x="466.992188" xlink:href="#DejaVuSans-52"/>
      <use x="536.474609" xlink:href="#DejaVuSans-52"/>
      <use x="605.957031" xlink:href="#DejaVuSans-39"/>
      <use x="669.580078" xlink:href="#DejaVuSans-32"/>
      <use x="733.203125" xlink:href="#DejaVuSans-36"/>
      <use x="796.826172" xlink:href="#DejaVuSans-34"/>
      <use x="860.449219" xlink:href="#DejaVuSans-33"/>
      <use x="924.072266" xlink:href="#DejaVuSans-35"/>
      <use x="987.695312" xlink:href="#DejaVuSans-34"/>
      <use x="1051.318359" xlink:href="#DejaVuSans-5f"/>
      <use x="1101.318359" xlink:href="#DejaVuSans-53"/>
      <use x="1164.794922" xlink:href="#DejaVuSans-30"/>
      <use x="1228.417969" xlink:href="#DejaVuSans-5f"/>
      <use x="1278.417969" xlink:href="#DejaVuSans-4c"/>
      <use x="1334.130859" xlink:href="#DejaVuSans-30"/>
      <use x="1397.753906" xlink:href="#DejaVuSans-30"/>
      <use x="1461.376953" xlink:href="#DejaVuSans-31"/>
      <use x="1525" xlink:href="#DejaVuSans-5f"/>
      <use x="1575" xlink:href="#DejaVuSans-52"/>
      <use x="1644.482422" xlink:href="#DejaVuSans-32"/>
      <use x="1708.105469" xlink:href="#DejaVuSans-5f"/>
      <use x="1758.105469" xlink:href="#DejaVuSans-30"/>
      <use x="1821.728516" xlink:href="#DejaVuSans-30"/>
      <use x="1885.351562" xlink:href="#DejaVuSans-31"/>
     </g>
    </g>
   </g>
  </g>
 </g>
 <defs>
  <clipPath id="p1ec4696974">
   <rect height="261.1792" width="944.98" x="40.600625" y="32.41646"/>
  </clipPath>
 </defs>
</svg>
