<?xml version="1.0" encoding="utf-8" standalone="no"?>
<!DOCTYPE svg PUBLIC "-//W3C//DTD SVG 1.1//EN"
  "http://www.w3.org/Graphics/SVG/1.1/DTD/svg11.dtd">
<!-- Created with matplotlib (http://matplotlib.org/) -->
<svg height="364.923084pt" version="1.1" viewBox="0 0 1001.388125 364.923084" width="1001.388125pt" xmlns="http://www.w3.org/2000/svg" xmlns:xlink="http://www.w3.org/1999/xlink">
 <defs>
  <style type="text/css">
*{stroke-linecap:butt;stroke-linejoin:round;}
  </style>
 </defs>
 <g id="figure_1">
  <g id="patch_1">
   <path d="M 0 364.923084 
L 1001.388125 364.923084 
L 1001.388125 0 
L 0 0 
z
" style="fill:#ffffff;"/>
  </g>
  <g id="axes_1">
   <g id="patch_2">
    <path d="M 38.058125 302.41566 
L 990.688125 302.41566 
L 990.688125 32.83646 
L 38.058125 32.83646 
z
" style="fill:#ffffff;"/>
   </g>
   <g id="patch_3">
    <path clip-path="url(#p02525dff85)" d="M 38.058125 362.999939 
L 956.314878 362.999939 
L 956.314878 -182.258572 
L 38.058125 -182.258572 
z
" style="fill:#c3e6c3;"/>
   </g>
   <g id="patch_4">
    <path clip-path="url(#p02525dff85)" d="M 38.058125 181.247102 
L 956.314878 181.247102 
L 956.314878 120.662823 
L 38.058125 120.662823 
z
" style="fill:#e6dcc3;"/>
   </g>
   <g id="patch_5">
    <path clip-path="url(#p02525dff85)" d="M 38.058125 378.146009 
L 956.314878 378.146009 
L 956.314878 226.685311 
L 38.058125 226.685311 
z
" style="fill:#e6c3c3;"/>
   </g>
   <g id="matplotlib.axis_1">
    <g id="xtick_1">
     <g id="text_1">
      <!-- 0 -->
      <defs>
       <path d="M 31.78125 66.40625 
Q 24.171875 66.40625 20.328125 58.90625 
Q 16.5 51.421875 16.5 36.375 
Q 16.5 21.390625 20.328125 13.890625 
Q 24.171875 6.390625 31.78125 6.390625 
Q 39.453125 6.390625 43.28125 13.890625 
Q 47.125 21.390625 47.125 36.375 
Q 47.125 51.421875 43.28125 58.90625 
Q 39.453125 66.40625 31.78125 66.40625 
z
M 31.78125 74.21875 
Q 44.046875 74.21875 50.515625 64.515625 
Q 56.984375 54.828125 56.984375 36.375 
Q 56.984375 17.96875 50.515625 8.265625 
Q 44.046875 -1.421875 31.78125 -1.421875 
Q 19.53125 -1.421875 13.0625 8.265625 
Q 6.59375 17.96875 6.59375 36.375 
Q 6.59375 54.828125 13.0625 64.515625 
Q 19.53125 74.21875 31.78125 74.21875 
z
" id="DejaVuSans-30"/>
      </defs>
      <g transform="translate(69.886372 315.49441)scale(0.08 -0.08)">
       <use xlink:href="#DejaVuSans-30"/>
      </g>
     </g>
    </g>
    <g id="xtick_2">
     <g id="text_2">
      <!-- 20 -->
      <defs>
       <path d="M 19.1875 8.296875 
L 53.609375 8.296875 
L 53.609375 0 
L 7.328125 0 
L 7.328125 8.296875 
Q 12.9375 14.109375 22.625 23.890625 
Q 32.328125 33.6875 34.8125 36.53125 
Q 39.546875 41.84375 41.421875 45.53125 
Q 43.3125 49.21875 43.3125 52.78125 
Q 43.3125 58.59375 39.234375 62.25 
Q 35.15625 65.921875 28.609375 65.921875 
Q 23.96875 65.921875 18.8125 64.3125 
Q 13.671875 62.703125 7.8125 59.421875 
L 7.8125 69.390625 
Q 13.765625 71.78125 18.9375 73 
Q 24.125 74.21875 28.421875 74.21875 
Q 39.75 74.21875 46.484375 68.546875 
Q 53.21875 62.890625 53.21875 53.421875 
Q 53.21875 48.921875 51.53125 44.890625 
Q 49.859375 40.875 45.40625 35.40625 
Q 44.1875 33.984375 37.640625 27.21875 
Q 31.109375 20.453125 19.1875 8.296875 
z
" id="DejaVuSans-32"/>
      </defs>
      <g transform="translate(245.903697 315.49441)scale(0.08 -0.08)">
       <use xlink:href="#DejaVuSans-32"/>
       <use x="63.623047" xlink:href="#DejaVuSans-30"/>
      </g>
     </g>
    </g>
    <g id="xtick_3">
     <g id="text_3">
      <!-- 40 -->
      <defs>
       <path d="M 37.796875 64.3125 
L 12.890625 25.390625 
L 37.796875 25.390625 
z
M 35.203125 72.90625 
L 47.609375 72.90625 
L 47.609375 25.390625 
L 58.015625 25.390625 
L 58.015625 17.1875 
L 47.609375 17.1875 
L 47.609375 0 
L 37.796875 0 
L 37.796875 17.1875 
L 4.890625 17.1875 
L 4.890625 26.703125 
z
" id="DejaVuSans-34"/>
      </defs>
      <g transform="translate(424.466021 315.49441)scale(0.08 -0.08)">
       <use xlink:href="#DejaVuSans-34"/>
       <use x="63.623047" xlink:href="#DejaVuSans-30"/>
      </g>
     </g>
    </g>
    <g id="xtick_4">
     <g id="text_4">
      <!-- 60 -->
      <defs>
       <path d="M 33.015625 40.375 
Q 26.375 40.375 22.484375 35.828125 
Q 18.609375 31.296875 18.609375 23.390625 
Q 18.609375 15.53125 22.484375 10.953125 
Q 26.375 6.390625 33.015625 6.390625 
Q 39.65625 6.390625 43.53125 10.953125 
Q 47.40625 15.53125 47.40625 23.390625 
Q 47.40625 31.296875 43.53125 35.828125 
Q 39.65625 40.375 33.015625 40.375 
z
M 52.59375 71.296875 
L 52.59375 62.3125 
Q 48.875 64.0625 45.09375 64.984375 
Q 41.3125 65.921875 37.59375 65.921875 
Q 27.828125 65.921875 22.671875 59.328125 
Q 17.53125 52.734375 16.796875 39.40625 
Q 19.671875 43.65625 24.015625 45.921875 
Q 28.375 48.1875 33.59375 48.1875 
Q 44.578125 48.1875 50.953125 41.515625 
Q 57.328125 34.859375 57.328125 23.390625 
Q 57.328125 12.15625 50.6875 5.359375 
Q 44.046875 -1.421875 33.015625 -1.421875 
Q 20.359375 -1.421875 13.671875 8.265625 
Q 6.984375 17.96875 6.984375 36.375 
Q 6.984375 53.65625 15.1875 63.9375 
Q 23.390625 74.21875 37.203125 74.21875 
Q 40.921875 74.21875 44.703125 73.484375 
Q 48.484375 72.75 52.59375 71.296875 
z
" id="DejaVuSans-36"/>
      </defs>
      <g transform="translate(603.028345 315.49441)scale(0.08 -0.08)">
       <use xlink:href="#DejaVuSans-36"/>
       <use x="63.623047" xlink:href="#DejaVuSans-30"/>
      </g>
     </g>
    </g>
    <g id="xtick_5">
     <g id="text_5">
      <!-- 80 -->
      <defs>
       <path d="M 31.78125 34.625 
Q 24.75 34.625 20.71875 30.859375 
Q 16.703125 27.09375 16.703125 20.515625 
Q 16.703125 13.921875 20.71875 10.15625 
Q 24.75 6.390625 31.78125 6.390625 
Q 38.8125 6.390625 42.859375 10.171875 
Q 46.921875 13.96875 46.921875 20.515625 
Q 46.921875 27.09375 42.890625 30.859375 
Q 38.875 34.625 31.78125 34.625 
z
M 21.921875 38.8125 
Q 15.578125 40.375 12.03125 44.71875 
Q 8.5 49.078125 8.5 55.328125 
Q 8.5 64.0625 14.71875 69.140625 
Q 20.953125 74.21875 31.78125 74.21875 
Q 42.671875 74.21875 48.875 69.140625 
Q 55.078125 64.0625 55.078125 55.328125 
Q 55.078125 49.078125 51.53125 44.71875 
Q 48 40.375 41.703125 38.8125 
Q 48.828125 37.15625 52.796875 32.3125 
Q 56.78125 27.484375 56.78125 20.515625 
Q 56.78125 9.90625 50.3125 4.234375 
Q 43.84375 -1.421875 31.78125 -1.421875 
Q 19.734375 -1.421875 13.25 4.234375 
Q 6.78125 9.90625 6.78125 20.515625 
Q 6.78125 27.484375 10.78125 32.3125 
Q 14.796875 37.15625 21.921875 38.8125 
z
M 18.3125 54.390625 
Q 18.3125 48.734375 21.84375 45.5625 
Q 25.390625 42.390625 31.78125 42.390625 
Q 38.140625 42.390625 41.71875 45.5625 
Q 45.3125 48.734375 45.3125 54.390625 
Q 45.3125 60.0625 41.71875 63.234375 
Q 38.140625 66.40625 31.78125 66.40625 
Q 25.390625 66.40625 21.84375 63.234375 
Q 18.3125 60.0625 18.3125 54.390625 
z
" id="DejaVuSans-38"/>
      </defs>
      <g transform="translate(781.59067 315.49441)scale(0.08 -0.08)">
       <use xlink:href="#DejaVuSans-38"/>
       <use x="63.623047" xlink:href="#DejaVuSans-30"/>
      </g>
     </g>
    </g>
    <g id="xtick_6">
     <g id="text_6">
      <!-- 100 -->
      <defs>
       <path d="M 12.40625 8.296875 
L 28.515625 8.296875 
L 28.515625 63.921875 
L 10.984375 60.40625 
L 10.984375 69.390625 
L 28.421875 72.90625 
L 38.28125 72.90625 
L 38.28125 8.296875 
L 54.390625 8.296875 
L 54.390625 0 
L 12.40625 0 
z
" id="DejaVuSans-31"/>
      </defs>
      <g transform="translate(957.607994 315.49441)scale(0.08 -0.08)">
       <use xlink:href="#DejaVuSans-31"/>
       <use x="63.623047" xlink:href="#DejaVuSans-30"/>
       <use x="127.246094" xlink:href="#DejaVuSans-30"/>
      </g>
     </g>
    </g>
    <g id="text_7">
     <!-- Position (bp) -->
     <defs>
      <path d="M 19.671875 64.796875 
L 19.671875 37.40625 
L 32.078125 37.40625 
Q 38.96875 37.40625 42.71875 40.96875 
Q 46.484375 44.53125 46.484375 51.125 
Q 46.484375 57.671875 42.71875 61.234375 
Q 38.96875 64.796875 32.078125 64.796875 
z
M 9.8125 72.90625 
L 32.078125 72.90625 
Q 44.34375 72.90625 50.609375 67.359375 
Q 56.890625 61.8125 56.890625 51.125 
Q 56.890625 40.328125 50.609375 34.8125 
Q 44.34375 29.296875 32.078125 29.296875 
L 19.671875 29.296875 
L 19.671875 0 
L 9.8125 0 
z
" id="DejaVuSans-50"/>
      <path d="M 30.609375 48.390625 
Q 23.390625 48.390625 19.1875 42.75 
Q 14.984375 37.109375 14.984375 27.296875 
Q 14.984375 17.484375 19.15625 11.84375 
Q 23.34375 6.203125 30.609375 6.203125 
Q 37.796875 6.203125 41.984375 11.859375 
Q 46.1875 17.53125 46.1875 27.296875 
Q 46.1875 37.015625 41.984375 42.703125 
Q 37.796875 48.390625 30.609375 48.390625 
z
M 30.609375 56 
Q 42.328125 56 49.015625 48.375 
Q 55.71875 40.765625 55.71875 27.296875 
Q 55.71875 13.875 49.015625 6.21875 
Q 42.328125 -1.421875 30.609375 -1.421875 
Q 18.84375 -1.421875 12.171875 6.21875 
Q 5.515625 13.875 5.515625 27.296875 
Q 5.515625 40.765625 12.171875 48.375 
Q 18.84375 56 30.609375 56 
z
" id="DejaVuSans-6f"/>
      <path d="M 44.28125 53.078125 
L 44.28125 44.578125 
Q 40.484375 46.53125 36.375 47.5 
Q 32.28125 48.484375 27.875 48.484375 
Q 21.1875 48.484375 17.84375 46.4375 
Q 14.5 44.390625 14.5 40.28125 
Q 14.5 37.15625 16.890625 35.375 
Q 19.28125 33.59375 26.515625 31.984375 
L 29.59375 31.296875 
Q 39.15625 29.25 43.1875 25.515625 
Q 47.21875 21.78125 47.21875 15.09375 
Q 47.21875 7.46875 41.1875 3.015625 
Q 35.15625 -1.421875 24.609375 -1.421875 
Q 20.21875 -1.421875 15.453125 -0.5625 
Q 10.6875 0.296875 5.421875 2 
L 5.421875 11.28125 
Q 10.40625 8.6875 15.234375 7.390625 
Q 20.0625 6.109375 24.8125 6.109375 
Q 31.15625 6.109375 34.5625 8.28125 
Q 37.984375 10.453125 37.984375 14.40625 
Q 37.984375 18.0625 35.515625 20.015625 
Q 33.0625 21.96875 24.703125 23.78125 
L 21.578125 24.515625 
Q 13.234375 26.265625 9.515625 29.90625 
Q 5.8125 33.546875 5.8125 39.890625 
Q 5.8125 47.609375 11.28125 51.796875 
Q 16.75 56 26.8125 56 
Q 31.78125 56 36.171875 55.265625 
Q 40.578125 54.546875 44.28125 53.078125 
z
" id="DejaVuSans-73"/>
      <path d="M 9.421875 54.6875 
L 18.40625 54.6875 
L 18.40625 0 
L 9.421875 0 
z
M 9.421875 75.984375 
L 18.40625 75.984375 
L 18.40625 64.59375 
L 9.421875 64.59375 
z
" id="DejaVuSans-69"/>
      <path d="M 18.3125 70.21875 
L 18.3125 54.6875 
L 36.8125 54.6875 
L 36.8125 47.703125 
L 18.3125 47.703125 
L 18.3125 18.015625 
Q 18.3125 11.328125 20.140625 9.421875 
Q 21.96875 7.515625 27.59375 7.515625 
L 36.8125 7.515625 
L 36.8125 0 
L 27.59375 0 
Q 17.1875 0 13.234375 3.875 
Q 9.28125 7.765625 9.28125 18.015625 
L 9.28125 47.703125 
L 2.6875 47.703125 
L 2.6875 54.6875 
L 9.28125 54.6875 
L 9.28125 70.21875 
z
" id="DejaVuSans-74"/>
      <path d="M 54.890625 33.015625 
L 54.890625 0 
L 45.90625 0 
L 45.90625 32.71875 
Q 45.90625 40.484375 42.875 44.328125 
Q 39.84375 48.1875 33.796875 48.1875 
Q 26.515625 48.1875 22.3125 43.546875 
Q 18.109375 38.921875 18.109375 30.90625 
L 18.109375 0 
L 9.078125 0 
L 9.078125 54.6875 
L 18.109375 54.6875 
L 18.109375 46.1875 
Q 21.34375 51.125 25.703125 53.5625 
Q 30.078125 56 35.796875 56 
Q 45.21875 56 50.046875 50.171875 
Q 54.890625 44.34375 54.890625 33.015625 
z
" id="DejaVuSans-6e"/>
      <path id="DejaVuSans-20"/>
      <path d="M 31 75.875 
Q 24.46875 64.65625 21.28125 53.65625 
Q 18.109375 42.671875 18.109375 31.390625 
Q 18.109375 20.125 21.3125 9.0625 
Q 24.515625 -2 31 -13.1875 
L 23.1875 -13.1875 
Q 15.875 -1.703125 12.234375 9.375 
Q 8.59375 20.453125 8.59375 31.390625 
Q 8.59375 42.28125 12.203125 53.3125 
Q 15.828125 64.359375 23.1875 75.875 
z
" id="DejaVuSans-28"/>
      <path d="M 48.6875 27.296875 
Q 48.6875 37.203125 44.609375 42.84375 
Q 40.53125 48.484375 33.40625 48.484375 
Q 26.265625 48.484375 22.1875 42.84375 
Q 18.109375 37.203125 18.109375 27.296875 
Q 18.109375 17.390625 22.1875 11.75 
Q 26.265625 6.109375 33.40625 6.109375 
Q 40.53125 6.109375 44.609375 11.75 
Q 48.6875 17.390625 48.6875 27.296875 
z
M 18.109375 46.390625 
Q 20.953125 51.265625 25.265625 53.625 
Q 29.59375 56 35.59375 56 
Q 45.5625 56 51.78125 48.09375 
Q 58.015625 40.1875 58.015625 27.296875 
Q 58.015625 14.40625 51.78125 6.484375 
Q 45.5625 -1.421875 35.59375 -1.421875 
Q 29.59375 -1.421875 25.265625 0.953125 
Q 20.953125 3.328125 18.109375 8.203125 
L 18.109375 0 
L 9.078125 0 
L 9.078125 75.984375 
L 18.109375 75.984375 
z
" id="DejaVuSans-62"/>
      <path d="M 18.109375 8.203125 
L 18.109375 -20.796875 
L 9.078125 -20.796875 
L 9.078125 54.6875 
L 18.109375 54.6875 
L 18.109375 46.390625 
Q 20.953125 51.265625 25.265625 53.625 
Q 29.59375 56 35.59375 56 
Q 45.5625 56 51.78125 48.09375 
Q 58.015625 40.1875 58.015625 27.296875 
Q 58.015625 14.40625 51.78125 6.484375 
Q 45.5625 -1.421875 35.59375 -1.421875 
Q 29.59375 -1.421875 25.265625 0.953125 
Q 20.953125 3.328125 18.109375 8.203125 
z
M 48.6875 27.296875 
Q 48.6875 37.203125 44.609375 42.84375 
Q 40.53125 48.484375 33.40625 48.484375 
Q 26.265625 48.484375 22.1875 42.84375 
Q 18.109375 37.203125 18.109375 27.296875 
Q 18.109375 17.390625 22.1875 11.75 
Q 26.265625 6.109375 33.40625 6.109375 
Q 40.53125 6.109375 44.609375 11.75 
Q 48.6875 17.390625 48.6875 27.296875 
z
" id="DejaVuSans-70"/>
      <path d="M 8.015625 75.875 
L 15.828125 75.875 
Q 23.140625 64.359375 26.78125 53.3125 
Q 30.421875 42.28125 30.421875 31.390625 
Q 30.421875 20.453125 26.78125 9.375 
Q 23.140625 -1.703125 15.828125 -13.1875 
L 8.015625 -13.1875 
Q 14.5 -2 17.703125 9.0625 
Q 20.90625 20.125 20.90625 31.390625 
Q 20.90625 42.671875 17.703125 53.65625 
Q 14.5 64.65625 8.015625 75.875 
z
" id="DejaVuSans-29"/>
     </defs>
     <g transform="translate(482.891094 328.756597)scale(0.1 -0.1)">
      <use xlink:href="#DejaVuSans-50"/>
      <use x="60.255859" xlink:href="#DejaVuSans-6f"/>
      <use x="121.4375" xlink:href="#DejaVuSans-73"/>
      <use x="173.537109" xlink:href="#DejaVuSans-69"/>
      <use x="201.320312" xlink:href="#DejaVuSans-74"/>
      <use x="240.529297" xlink:href="#DejaVuSans-69"/>
      <use x="268.3125" xlink:href="#DejaVuSans-6f"/>
      <use x="329.494141" xlink:href="#DejaVuSans-6e"/>
      <use x="392.873047" xlink:href="#DejaVuSans-20"/>
      <use x="424.660156" xlink:href="#DejaVuSans-28"/>
      <use x="463.673828" xlink:href="#DejaVuSans-62"/>
      <use x="527.150391" xlink:href="#DejaVuSans-70"/>
      <use x="590.626953" xlink:href="#DejaVuSans-29"/>
     </g>
    </g>
   </g>
   <g id="matplotlib.axis_2">
    <g id="ytick_1">
     <g id="line2d_1">
      <path clip-path="url(#p02525dff85)" d="M 38.058125 302.41566 
L 990.688125 302.41566 
" style="fill:none;stroke:#dedede;stroke-linecap:square;"/>
     </g>
     <g id="text_8">
      <!-- 0 -->
      <g transform="translate(25.968125 305.455035)scale(0.08 -0.08)">
       <use xlink:href="#DejaVuSans-30"/>
      </g>
     </g>
    </g>
    <g id="ytick_2">
     <g id="line2d_2">
      <path clip-path="url(#p02525dff85)" d="M 38.058125 264.550486 
L 990.688125 264.550486 
" style="fill:none;stroke:#dedede;stroke-linecap:square;"/>
     </g>
     <g id="text_9">
      <!-- 5 -->
      <defs>
       <path d="M 10.796875 72.90625 
L 49.515625 72.90625 
L 49.515625 64.59375 
L 19.828125 64.59375 
L 19.828125 46.734375 
Q 21.96875 47.46875 24.109375 47.828125 
Q 26.265625 48.1875 28.421875 48.1875 
Q 40.625 48.1875 47.75 41.5 
Q 54.890625 34.8125 54.890625 23.390625 
Q 54.890625 11.625 47.5625 5.09375 
Q 40.234375 -1.421875 26.90625 -1.421875 
Q 22.3125 -1.421875 17.546875 -0.640625 
Q 12.796875 0.140625 7.71875 1.703125 
L 7.71875 11.625 
Q 12.109375 9.234375 16.796875 8.0625 
Q 21.484375 6.890625 26.703125 6.890625 
Q 35.15625 6.890625 40.078125 11.328125 
Q 45.015625 15.765625 45.015625 23.390625 
Q 45.015625 31 40.078125 35.4375 
Q 35.15625 39.890625 26.703125 39.890625 
Q 22.75 39.890625 18.8125 39.015625 
Q 14.890625 38.140625 10.796875 36.28125 
z
" id="DejaVuSans-35"/>
      </defs>
      <g transform="translate(25.968125 267.589861)scale(0.08 -0.08)">
       <use xlink:href="#DejaVuSans-35"/>
      </g>
     </g>
    </g>
    <g id="ytick_3">
     <g id="line2d_3">
      <path clip-path="url(#p02525dff85)" d="M 38.058125 226.685311 
L 990.688125 226.685311 
" style="fill:none;stroke:#dedede;stroke-linecap:square;"/>
     </g>
     <g id="text_10">
      <!-- 10 -->
      <g transform="translate(20.878125 229.724686)scale(0.08 -0.08)">
       <use xlink:href="#DejaVuSans-31"/>
       <use x="63.623047" xlink:href="#DejaVuSans-30"/>
      </g>
     </g>
    </g>
    <g id="ytick_4">
     <g id="line2d_4">
      <path clip-path="url(#p02525dff85)" d="M 38.058125 188.820137 
L 990.688125 188.820137 
" style="fill:none;stroke:#dedede;stroke-linecap:square;"/>
     </g>
     <g id="text_11">
      <!-- 15 -->
      <g transform="translate(20.878125 191.859512)scale(0.08 -0.08)">
       <use xlink:href="#DejaVuSans-31"/>
       <use x="63.623047" xlink:href="#DejaVuSans-35"/>
      </g>
     </g>
    </g>
    <g id="ytick_5">
     <g id="line2d_5">
      <path clip-path="url(#p02525dff85)" d="M 38.058125 150.954962 
L 990.688125 150.954962 
" style="fill:none;stroke:#dedede;stroke-linecap:square;"/>
     </g>
     <g id="text_12">
      <!-- 20 -->
      <g transform="translate(20.878125 153.994337)scale(0.08 -0.08)">
       <use xlink:href="#DejaVuSans-32"/>
       <use x="63.623047" xlink:href="#DejaVuSans-30"/>
      </g>
     </g>
    </g>
    <g id="ytick_6">
     <g id="line2d_6">
      <path clip-path="url(#p02525dff85)" d="M 38.058125 113.089788 
L 990.688125 113.089788 
" style="fill:none;stroke:#dedede;stroke-linecap:square;"/>
     </g>
     <g id="text_13">
      <!-- 25 -->
      <g transform="translate(20.878125 116.129163)scale(0.08 -0.08)">
       <use xlink:href="#DejaVuSans-32"/>
       <use x="63.623047" xlink:href="#DejaVuSans-35"/>
      </g>
     </g>
    </g>
    <g id="ytick_7">
     <g id="line2d_7">
      <path clip-path="url(#p02525dff85)" d="M 38.058125 75.224614 
L 990.688125 75.224614 
" style="fill:none;stroke:#dedede;stroke-linecap:square;"/>
     </g>
     <g id="text_14">
      <!-- 30 -->
      <defs>
       <path d="M 40.578125 39.3125 
Q 47.65625 37.796875 51.625 33 
Q 55.609375 28.21875 55.609375 21.1875 
Q 55.609375 10.40625 48.1875 4.484375 
Q 40.765625 -1.421875 27.09375 -1.421875 
Q 22.515625 -1.421875 17.65625 -0.515625 
Q 12.796875 0.390625 7.625 2.203125 
L 7.625 11.71875 
Q 11.71875 9.328125 16.59375 8.109375 
Q 21.484375 6.890625 26.8125 6.890625 
Q 36.078125 6.890625 40.9375 10.546875 
Q 45.796875 14.203125 45.796875 21.1875 
Q 45.796875 27.640625 41.28125 31.265625 
Q 36.765625 34.90625 28.71875 34.90625 
L 20.21875 34.90625 
L 20.21875 43.015625 
L 29.109375 43.015625 
Q 36.375 43.015625 40.234375 45.921875 
Q 44.09375 48.828125 44.09375 54.296875 
Q 44.09375 59.90625 40.109375 62.90625 
Q 36.140625 65.921875 28.71875 65.921875 
Q 24.65625 65.921875 20.015625 65.03125 
Q 15.375 64.15625 9.8125 62.3125 
L 9.8125 71.09375 
Q 15.4375 72.65625 20.34375 73.4375 
Q 25.25 74.21875 29.59375 74.21875 
Q 40.828125 74.21875 47.359375 69.109375 
Q 53.90625 64.015625 53.90625 55.328125 
Q 53.90625 49.265625 50.4375 45.09375 
Q 46.96875 40.921875 40.578125 39.3125 
z
" id="DejaVuSans-33"/>
      </defs>
      <g transform="translate(20.878125 78.263989)scale(0.08 -0.08)">
       <use xlink:href="#DejaVuSans-33"/>
       <use x="63.623047" xlink:href="#DejaVuSans-30"/>
      </g>
     </g>
    </g>
    <g id="ytick_8">
     <g id="line2d_8">
      <path clip-path="url(#p02525dff85)" d="M 38.058125 37.359439 
L 990.688125 37.359439 
" style="fill:none;stroke:#dedede;stroke-linecap:square;"/>
     </g>
     <g id="text_15">
      <!-- 35 -->
      <g transform="translate(20.878125 40.398814)scale(0.08 -0.08)">
       <use xlink:href="#DejaVuSans-33"/>
       <use x="63.623047" xlink:href="#DejaVuSans-35"/>
      </g>
     </g>
    </g>
    <g id="text_16">
     <!-- Phred Score -->
     <defs>
      <path d="M 54.890625 33.015625 
L 54.890625 0 
L 45.90625 0 
L 45.90625 32.71875 
Q 45.90625 40.484375 42.875 44.328125 
Q 39.84375 48.1875 33.796875 48.1875 
Q 26.515625 48.1875 22.3125 43.546875 
Q 18.109375 38.921875 18.109375 30.90625 
L 18.109375 0 
L 9.078125 0 
L 9.078125 75.984375 
L 18.109375 75.984375 
L 18.109375 46.1875 
Q 21.34375 51.125 25.703125 53.5625 
Q 30.078125 56 35.796875 56 
Q 45.21875 56 50.046875 50.171875 
Q 54.890625 44.34375 54.890625 33.015625 
z
" id="DejaVuSans-68"/>
      <path d="M 41.109375 46.296875 
Q 39.59375 47.171875 37.8125 47.578125 
Q 36.03125 48 33.890625 48 
Q 26.265625 48 22.1875 43.046875 
Q 18.109375 38.09375 18.109375 28.8125 
L 18.109375 0 
L 9.078125 0 
L 9.078125 54.6875 
L 18.109375 54.6875 
L 18.109375 46.1875 
Q 20.953125 51.171875 25.484375 53.578125 
Q 30.03125 56 36.53125 56 
Q 37.453125 56 38.578125 55.875 
Q 39.703125 55.765625 41.0625 55.515625 
z
" id="DejaVuSans-72"/>
      <path d="M 56.203125 29.59375 
L 56.203125 25.203125 
L 14.890625 25.203125 
Q 15.484375 15.921875 20.484375 11.0625 
Q 25.484375 6.203125 34.421875 6.203125 
Q 39.59375 6.203125 44.453125 7.46875 
Q 49.3125 8.734375 54.109375 11.28125 
L 54.109375 2.78125 
Q 49.265625 0.734375 44.1875 -0.34375 
Q 39.109375 -1.421875 33.890625 -1.421875 
Q 20.796875 -1.421875 13.15625 6.1875 
Q 5.515625 13.8125 5.515625 26.8125 
Q 5.515625 40.234375 12.765625 48.109375 
Q 20.015625 56 32.328125 56 
Q 43.359375 56 49.78125 48.890625 
Q 56.203125 41.796875 56.203125 29.59375 
z
M 47.21875 32.234375 
Q 47.125 39.59375 43.09375 43.984375 
Q 39.0625 48.390625 32.421875 48.390625 
Q 24.90625 48.390625 20.390625 44.140625 
Q 15.875 39.890625 15.1875 32.171875 
z
" id="DejaVuSans-65"/>
      <path d="M 45.40625 46.390625 
L 45.40625 75.984375 
L 54.390625 75.984375 
L 54.390625 0 
L 45.40625 0 
L 45.40625 8.203125 
Q 42.578125 3.328125 38.25 0.953125 
Q 33.9375 -1.421875 27.875 -1.421875 
Q 17.96875 -1.421875 11.734375 6.484375 
Q 5.515625 14.40625 5.515625 27.296875 
Q 5.515625 40.1875 11.734375 48.09375 
Q 17.96875 56 27.875 56 
Q 33.9375 56 38.25 53.625 
Q 42.578125 51.265625 45.40625 46.390625 
z
M 14.796875 27.296875 
Q 14.796875 17.390625 18.875 11.75 
Q 22.953125 6.109375 30.078125 6.109375 
Q 37.203125 6.109375 41.296875 11.75 
Q 45.40625 17.390625 45.40625 27.296875 
Q 45.40625 37.203125 41.296875 42.84375 
Q 37.203125 48.484375 30.078125 48.484375 
Q 22.953125 48.484375 18.875 42.84375 
Q 14.796875 37.203125 14.796875 27.296875 
z
" id="DejaVuSans-64"/>
      <path d="M 53.515625 70.515625 
L 53.515625 60.890625 
Q 47.90625 63.578125 42.921875 64.890625 
Q 37.9375 66.21875 33.296875 66.21875 
Q 25.25 66.21875 20.875 63.09375 
Q 16.5 59.96875 16.5 54.203125 
Q 16.5 49.359375 19.40625 46.890625 
Q 22.3125 44.4375 30.421875 42.921875 
L 36.375 41.703125 
Q 47.40625 39.59375 52.65625 34.296875 
Q 57.90625 29 57.90625 20.125 
Q 57.90625 9.515625 50.796875 4.046875 
Q 43.703125 -1.421875 29.984375 -1.421875 
Q 24.8125 -1.421875 18.96875 -0.25 
Q 13.140625 0.921875 6.890625 3.21875 
L 6.890625 13.375 
Q 12.890625 10.015625 18.65625 8.296875 
Q 24.421875 6.59375 29.984375 6.59375 
Q 38.421875 6.59375 43.015625 9.90625 
Q 47.609375 13.234375 47.609375 19.390625 
Q 47.609375 24.75 44.3125 27.78125 
Q 41.015625 30.8125 33.5 32.328125 
L 27.484375 33.5 
Q 16.453125 35.6875 11.515625 40.375 
Q 6.59375 45.0625 6.59375 53.421875 
Q 6.59375 63.09375 13.40625 68.65625 
Q 20.21875 74.21875 32.171875 74.21875 
Q 37.3125 74.21875 42.625 73.28125 
Q 47.953125 72.359375 53.515625 70.515625 
z
" id="DejaVuSans-53"/>
      <path d="M 48.78125 52.59375 
L 48.78125 44.1875 
Q 44.96875 46.296875 41.140625 47.34375 
Q 37.3125 48.390625 33.40625 48.390625 
Q 24.65625 48.390625 19.8125 42.84375 
Q 14.984375 37.3125 14.984375 27.296875 
Q 14.984375 17.28125 19.8125 11.734375 
Q 24.65625 6.203125 33.40625 6.203125 
Q 37.3125 6.203125 41.140625 7.25 
Q 44.96875 8.296875 48.78125 10.40625 
L 48.78125 2.09375 
Q 45.015625 0.34375 40.984375 -0.53125 
Q 36.96875 -1.421875 32.421875 -1.421875 
Q 20.0625 -1.421875 12.78125 6.34375 
Q 5.515625 14.109375 5.515625 27.296875 
Q 5.515625 40.671875 12.859375 48.328125 
Q 20.21875 56 33.015625 56 
Q 37.15625 56 41.109375 55.140625 
Q 45.0625 54.296875 48.78125 52.59375 
z
" id="DejaVuSans-63"/>
     </defs>
     <g transform="translate(14.798438 197.816685)rotate(-90)scale(0.1 -0.1)">
      <use xlink:href="#DejaVuSans-50"/>
      <use x="60.302734" xlink:href="#DejaVuSans-68"/>
      <use x="123.681641" xlink:href="#DejaVuSans-72"/>
      <use x="164.763672" xlink:href="#DejaVuSans-65"/>
      <use x="226.287109" xlink:href="#DejaVuSans-64"/>
      <use x="289.763672" xlink:href="#DejaVuSans-20"/>
      <use x="321.550781" xlink:href="#DejaVuSans-53"/>
      <use x="385.027344" xlink:href="#DejaVuSans-63"/>
      <use x="440.007812" xlink:href="#DejaVuSans-6f"/>
      <use x="501.189453" xlink:href="#DejaVuSans-72"/>
      <use x="542.271484" xlink:href="#DejaVuSans-65"/>
     </g>
    </g>
   </g>
   <g id="line2d_9">
    <path clip-path="url(#p02525dff85)" d="M 81.359489 83.421502 
L 90.287605 113.929627 
L 99.215721 90.460391 
L 108.143837 67.719555 
L 117.071953 59.547947 
L 126.00007 45.500598 
L 134.928186 46.193555 
L 143.856302 45.814833 
L 152.784418 44.417948 
L 161.712535 41.189631 
L 179.568767 43.143273 
L 197.424999 42.312992 
L 215.281232 43.677455 
L 233.137464 43.397329 
L 250.993697 42.871942 
L 268.849929 43.816585 
L 286.706162 44.080212 
L 304.562394 44.248597 
L 322.418626 44.893675 
L 340.274859 44.449644 
L 358.131091 42.878477 
L 375.987324 41.750765 
L 393.843556 41.627029 
L 411.699789 41.35331 
L 429.556021 41.055795 
L 447.412253 41.390717 
L 465.268486 41.656904 
L 483.124718 42.749876 
L 500.980951 42.88943 
L 518.837183 44.305916 
L 536.693416 44.963973 
L 554.549648 45.393538 
L 572.40588 45.965445 
L 590.262113 46.635923 
L 608.118345 47.123065 
L 625.974578 48.330357 
L 643.83081 48.843598 
L 661.687043 50.706195 
L 679.543275 52.873346 
L 697.399507 54.873575 
L 715.25574 56.54648 
L 733.111972 56.971698 
L 750.968205 71.005985 
L 768.824437 65.0246 
L 786.68067 54.418637 
L 804.536902 53.136958 
L 822.393134 52.992958 
L 840.249367 52.770588 
L 858.105599 55.456349 
L 875.961832 58.237829 
L 893.818064 61.366472 
L 911.674297 64.505385 
L 929.530529 69.58223 
L 947.386761 95.174719 
" style="fill:none;stroke:#5cb85c;stroke-linecap:square;"/>
   </g>
   <g id="line2d_10">
    <path clip-path="url(#p02525dff85)" d="M 81.359489 86.206427 
L 90.287605 116.356913 
L 99.215721 94.55234 
L 108.143837 74.625195 
L 117.071953 65.149274 
L 126.00007 50.2618 
L 134.928186 50.89255 
L 143.856302 50.819807 
L 152.784418 48.989498 
L 161.712535 45.134471 
L 179.568767 48.078973 
L 197.424999 46.96248 
L 215.281232 48.430353 
L 233.137464 48.606178 
L 250.993697 48.125641 
L 268.849929 48.855691 
L 286.706162 48.841987 
L 304.562394 49.422682 
L 322.418626 50.094427 
L 340.274859 50.077257 
L 358.131091 49.049032 
L 375.987324 47.338462 
L 393.843556 46.533878 
L 411.699789 46.812867 
L 429.556021 46.679564 
L 447.412253 47.183177 
L 465.268486 47.676063 
L 483.124718 48.345388 
L 500.980951 49.159711 
L 518.837183 50.088497 
L 536.693416 50.458386 
L 554.549648 51.009683 
L 572.40588 51.849042 
L 590.262113 52.774371 
L 608.118345 53.880513 
L 625.974578 55.082436 
L 643.83081 55.544636 
L 661.687043 56.607289 
L 679.543275 59.071029 
L 697.399507 62.102732 
L 715.25574 62.729622 
L 733.111972 64.40203 
L 750.968205 80.68859 
L 768.824437 73.461018 
L 786.68067 62.170074 
L 804.536902 58.779137 
L 822.393134 58.857181 
L 840.249367 59.32257 
L 858.105599 61.103169 
L 875.961832 64.194623 
L 893.818064 68.150286 
L 911.674297 71.636143 
L 929.530529 75.374257 
L 947.386761 98.900466 
" style="fill:none;stroke:#5cb85c;stroke-linecap:square;"/>
   </g>
   <g id="line2d_11">
    <path clip-path="url(#p02525dff85)" d="M 81.359489 86.302738 
L 90.287605 112.612711 
L 99.215721 95.501751 
L 108.143837 72.217736 
L 117.071953 64.712035 
L 126.00007 51.545341 
L 134.928186 51.963631 
L 143.856302 54.111718 
L 152.784418 51.371834 
L 161.712535 48.354783 
L 179.568767 49.94883 
L 197.424999 49.397844 
L 215.281232 50.802342 
L 233.137464 51.225671 
L 250.993697 51.581403 
L 268.849929 52.147442 
L 286.706162 52.543529 
L 304.562394 52.601732 
L 322.418626 53.395757 
L 340.274859 52.720327 
L 358.131091 52.296808 
L 375.987324 50.857549 
L 393.843556 49.701959 
L 411.699789 49.857623 
L 429.556021 49.948158 
L 447.412253 50.269908 
L 465.268486 51.396092 
L 483.124718 51.52632 
L 500.980951 52.407799 
L 518.837183 52.275377 
L 536.693416 52.888789 
L 554.549648 53.525427 
L 572.40588 54.469663 
L 590.262113 55.276959 
L 608.118345 56.117376 
L 625.974578 57.141701 
L 643.83081 57.65357 
L 661.687043 59.323148 
L 679.543275 61.88421 
L 697.399507 64.940086 
L 715.25574 65.819745 
L 733.111972 66.292457 
L 750.968205 79.068736 
L 768.824437 73.807428 
L 786.68067 63.756138 
L 804.536902 61.699709 
L 822.393134 61.66502 
L 840.249367 62.713666 
L 858.105599 64.285672 
L 875.961832 67.701408 
L 893.818064 70.791748 
L 911.674297 74.653357 
L 929.530529 78.195189 
L 947.386761 101.067986 
" style="fill:none;stroke:#5cb85c;stroke-linecap:square;"/>
   </g>
   <g id="line2d_12">
    <path clip-path="url(#p02525dff85)" d="M 81.359489 81.426263 
L 90.287605 106.079438 
L 99.215721 87.684885 
L 108.143837 66.991829 
L 117.071953 56.245519 
L 126.00007 42.326546 
L 134.928186 44.430392 
L 143.856302 45.018443 
L 152.784418 42.959172 
L 161.712535 39.370725 
L 179.568767 42.107098 
L 197.424999 38.982603 
L 215.281232 42.677644 
L 233.137464 41.799674 
L 250.993697 41.503662 
L 268.849929 42.850443 
L 286.706162 41.382153 
L 304.562394 41.830891 
L 322.418626 43.110153 
L 340.274859 42.939729 
L 358.131091 41.486576 
L 375.987324 41.057186 
L 393.843556 41.048008 
L 411.699789 41.117563 
L 429.556021 40.85434 
L 447.412253 40.896083 
L 465.268486 41.298683 
L 483.124718 41.772978 
L 500.980951 42.138993 
L 518.837183 42.31464 
L 536.693416 42.794343 
L 554.549648 43.815064 
L 572.40588 43.576814 
L 590.262113 44.230055 
L 608.118345 45.089308 
L 625.974578 46.275139 
L 643.83081 46.307466 
L 661.687043 47.878924 
L 679.543275 47.853883 
L 697.399507 49.31456 
L 715.25574 51.468735 
L 733.111972 52.089763 
L 750.968205 67.541663 
L 768.824437 60.624806 
L 786.68067 50.937541 
L 804.536902 48.954 
L 822.393134 48.796184 
L 840.249367 49.430606 
L 858.105599 48.84472 
L 875.961832 50.176276 
L 893.818064 50.539337 
L 911.674297 51.4691 
L 929.530529 54.070993 
L 947.386761 71.607571 
" style="fill:none;stroke:#5cb85c;stroke-linecap:square;"/>
   </g>
   <g id="line2d_13">
    <path clip-path="url(#p02525dff85)" d="M 81.359489 83.582133 
L 90.287605 117.041067 
L 99.215721 93.684752 
L 108.143837 77.843277 
L 117.071953 66.122574 
L 126.00007 52.043719 
L 134.928186 53.903823 
L 143.856302 54.575184 
L 152.784418 51.043558 
L 161.712535 46.315378 
L 179.568767 47.311002 
L 197.424999 44.688 
L 215.281232 47.474808 
L 233.137464 46.309046 
L 250.993697 46.522382 
L 268.849929 46.790848 
L 286.706162 45.9129 
L 304.562394 47.167341 
L 322.418626 48.543197 
L 340.274859 47.871224 
L 358.131091 46.636355 
L 375.987324 44.521451 
L 393.843556 43.705398 
L 411.699789 43.528386 
L 429.556021 43.428823 
L 447.412253 43.707649 
L 465.268486 45.105487 
L 483.124718 46.624251 
L 500.980951 47.272318 
L 518.837183 47.749534 
L 536.693416 48.48595 
L 554.549648 48.972852 
L 572.40588 50.120824 
L 590.262113 51.491293 
L 608.118345 54.0729 
L 625.974578 54.492696 
L 643.83081 54.937599 
L 661.687043 56.213739 
L 679.543275 58.788768 
L 697.399507 61.938448 
L 715.25574 63.565671 
L 733.111972 63.202585 
L 750.968205 79.582175 
L 768.824437 73.129115 
L 786.68067 61.417816 
L 804.536902 58.932346 
L 822.393134 59.636047 
L 840.249367 59.956255 
L 858.105599 62.26701 
L 875.961832 66.460765 
L 893.818064 70.751785 
L 911.674297 75.454644 
L 929.530529 80.242604 
L 947.386761 107.316912 
" style="fill:none;stroke:#5cb85c;stroke-linecap:square;"/>
   </g>
   <g id="line2d_14">
    <path clip-path="url(#p02525dff85)" d="M 81.359489 82.090708 
L 90.287605 115.952804 
L 99.215721 94.392755 
L 108.143837 79.978304 
L 117.071953 64.84563 
L 126.00007 52.465187 
L 134.928186 58.956878 
L 143.856302 56.42493 
L 152.784418 51.762619 
L 161.712535 46.401185 
L 179.568767 46.869238 
L 197.424999 43.219545 
L 215.281232 48.377183 
L 233.137464 47.297457 
L 250.993697 47.962795 
L 268.849929 47.315615 
L 286.706162 46.388203 
L 304.562394 48.222656 
L 322.418626 51.882999 
L 340.274859 50.920142 
L 358.131091 48.935459 
L 375.987324 46.126421 
L 393.843556 44.536078 
L 411.699789 45.050058 
L 429.556021 44.630445 
L 447.412253 44.930243 
L 465.268486 45.597189 
L 483.124718 45.857153 
L 500.980951 46.749663 
L 518.837183 47.883109 
L 536.693416 48.998059 
L 554.549648 49.105656 
L 572.40588 50.427501 
L 590.262113 51.306042 
L 608.118345 52.557462 
L 625.974578 54.130756 
L 643.83081 55.414385 
L 661.687043 56.374321 
L 679.543275 59.423425 
L 697.399507 61.976155 
L 715.25574 63.456556 
L 733.111972 63.512686 
L 750.968205 80.448782 
L 768.824437 72.597822 
L 786.68067 61.216434 
L 804.536902 58.71676 
L 822.393134 58.402877 
L 840.249367 59.709438 
L 858.105599 61.83329 
L 875.961832 65.298299 
L 893.818064 70.465489 
L 911.674297 75.484806 
L 929.530529 80.423231 
L 947.386761 107.107725 
" style="fill:none;stroke:#5cb85c;stroke-linecap:square;"/>
   </g>
   <g id="line2d_15">
    <path clip-path="url(#p02525dff85)" d="M 81.359489 81.608192 
L 90.287605 113.301571 
L 99.215721 91.754246 
L 108.143837 72.193745 
L 117.071953 60.852233 
L 126.00007 47.544663 
L 134.928186 50.619957 
L 143.856302 48.730189 
L 152.784418 45.958641 
L 161.712535 42.508175 
L 179.568767 45.187361 
L 197.424999 41.613204 
L 215.281232 44.452331 
L 233.137464 43.915172 
L 250.993697 44.061628 
L 268.849929 44.919179 
L 286.706162 45.269253 
L 304.562394 46.998681 
L 322.418626 48.997165 
L 340.274859 48.419566 
L 358.131091 46.675493 
L 375.987324 44.284847 
L 393.843556 43.560104 
L 411.699789 43.301012 
L 429.556021 43.214185 
L 447.412253 43.111659 
L 465.268486 44.137279 
L 483.124718 44.154782 
L 500.980951 45.624509 
L 518.837183 46.497026 
L 536.693416 47.754869 
L 554.549648 49.239945 
L 572.40588 48.390688 
L 590.262113 49.821436 
L 608.118345 51.291242 
L 625.974578 51.53814 
L 643.83081 52.027408 
L 661.687043 54.095043 
L 679.543275 55.747909 
L 697.399507 58.453618 
L 715.25574 59.923513 
L 733.111972 60.770521 
L 750.968205 75.639864 
L 768.824437 68.872095 
L 786.68067 58.394927 
L 804.536902 56.568068 
L 822.393134 56.096248 
L 840.249367 55.596235 
L 858.105599 58.039427 
L 875.961832 61.149234 
L 893.818064 65.084199 
L 911.674297 69.605037 
L 929.530529 73.213113 
L 947.386761 98.911229 
" style="fill:none;stroke:#5cb85c;stroke-linecap:square;"/>
   </g>
   <g id="line2d_16">
    <path clip-path="url(#p02525dff85)" d="M 81.359489 145.174436 
L 90.287605 159.11693 
L 99.215721 161.905455 
L 108.143837 143.382444 
L 117.071953 126.237142 
L 126.00007 123.042656 
L 134.928186 128.823293 
L 143.856302 127.876693 
L 152.784418 125.355173 
L 161.712535 115.488788 
L 179.568767 109.775354 
L 197.424999 105.549649 
L 215.281232 100.595493 
L 233.137464 95.202534 
L 250.993697 91.030938 
L 268.849929 88.44423 
L 286.706162 82.065165 
L 304.562394 79.382497 
L 322.418626 75.799365 
L 340.274859 69.990838 
L 358.131091 64.153349 
L 375.987324 60.71776 
L 393.843556 57.489449 
L 411.699789 57.236213 
L 429.556021 57.217024 
L 447.412253 57.292591 
L 465.268486 56.096532 
L 483.124718 56.251873 
L 500.980951 57.617449 
L 518.837183 61.075353 
L 536.693416 65.837858 
L 554.549648 70.784343 
L 572.40588 76.056702 
L 590.262113 79.462637 
L 608.118345 82.693424 
L 625.974578 86.075427 
L 643.83081 83.93729 
L 661.687043 80.511708 
L 679.543275 77.848604 
L 697.399507 76.788077 
L 715.25574 77.291683 
L 733.111972 79.017858 
L 750.968205 100.845461 
L 768.824437 92.775926 
L 786.68067 73.274581 
L 804.536902 66.359882 
L 822.393134 63.200795 
L 840.249367 62.497893 
L 858.105599 65.161791 
L 875.961832 71.490623 
L 893.818064 78.920307 
L 911.674297 87.720716 
L 929.530529 95.803666 
L 947.386761 128.458152 
" style="fill:none;stroke:#d9534f;stroke-linecap:square;"/>
   </g>
   <g id="line2d_17">
    <path clip-path="url(#p02525dff85)" d="M 81.359489 104.494627 
L 90.287605 119.279941 
L 99.215721 122.029236 
L 108.143837 108.556365 
L 117.071953 93.590613 
L 126.00007 85.530074 
L 134.928186 90.746008 
L 143.856302 88.992747 
L 152.784418 86.154063 
L 161.712535 79.329635 
L 179.568767 82.715667 
L 197.424999 76.068573 
L 215.281232 83.204163 
L 233.137464 79.876846 
L 250.993697 79.467454 
L 268.849929 82.642763 
L 286.706162 78.655887 
L 304.562394 79.64231 
L 322.418626 82.607171 
L 340.274859 80.314362 
L 358.131091 76.377116 
L 375.987324 75.808408 
L 393.843556 73.544977 
L 411.699789 73.48402 
L 429.556021 73.461702 
L 447.412253 73.665365 
L 465.268486 73.338185 
L 483.124718 74.41697 
L 500.980951 75.193299 
L 518.837183 75.469876 
L 536.693416 75.818623 
L 554.549648 76.777384 
L 572.40588 77.164379 
L 590.262113 77.493671 
L 608.118345 78.829585 
L 625.974578 79.726909 
L 643.83081 80.628841 
L 661.687043 81.372308 
L 679.543275 81.48898 
L 697.399507 83.462913 
L 715.25574 84.426752 
L 733.111972 84.231433 
L 750.968205 99.001756 
L 768.824437 93.208669 
L 786.68067 84.485285 
L 804.536902 81.699384 
L 822.393134 81.926196 
L 840.249367 83.14397 
L 858.105599 82.898709 
L 875.961832 83.276439 
L 893.818064 83.859271 
L 911.674297 84.879896 
L 929.530529 88.311326 
L 947.386761 103.086915 
" style="fill:none;stroke:#5cb85c;stroke-linecap:square;"/>
   </g>
   <g id="line2d_18">
    <path clip-path="url(#p02525dff85)" d="M 81.359489 86.542888 
L 90.287605 118.943829 
L 99.215721 98.871978 
L 108.143837 83.38428 
L 117.071953 68.982782 
L 126.00007 56.931279 
L 134.928186 59.803899 
L 143.856302 59.868485 
L 152.784418 56.377408 
L 161.712535 52.646205 
L 179.568767 54.317655 
L 197.424999 51.74819 
L 215.281232 55.750638 
L 233.137464 55.520949 
L 250.993697 55.922835 
L 268.849929 56.73984 
L 286.706162 54.77722 
L 304.562394 56.334482 
L 322.418626 59.407789 
L 340.274859 57.817398 
L 358.131091 56.041831 
L 375.987324 53.804568 
L 393.843556 53.376778 
L 411.699789 54.149507 
L 429.556021 53.612468 
L 447.412253 53.596198 
L 465.268486 54.093983 
L 483.124718 54.220927 
L 500.980951 54.947034 
L 518.837183 54.951674 
L 536.693416 56.372762 
L 554.549648 56.738536 
L 572.40588 58.001057 
L 590.262113 59.573687 
L 608.118345 60.121007 
L 625.974578 61.041764 
L 643.83081 61.560129 
L 661.687043 63.020591 
L 679.543275 66.203859 
L 697.399507 68.674907 
L 715.25574 69.99519 
L 733.111972 70.595832 
L 750.968205 85.958217 
L 768.824437 79.075046 
L 786.68067 69.83993 
L 804.536902 66.802399 
L 822.393134 66.321794 
L 840.249367 66.813886 
L 858.105599 68.40328 
L 875.961832 72.113413 
L 893.818064 75.611798 
L 911.674297 79.109448 
L 929.530529 82.856307 
L 947.386761 108.148828 
" style="fill:none;stroke:#5cb85c;stroke-linecap:square;"/>
   </g>
   <g id="line2d_19">
    <path clip-path="url(#p02525dff85)" d="M 81.359489 87.220021 
L 90.287605 118.173856 
L 99.215721 96.456234 
L 108.143837 76.475077 
L 117.071953 67.354995 
L 126.00007 53.218186 
L 134.928186 54.146145 
L 143.856302 54.285399 
L 152.784418 52.777915 
L 161.712535 49.64254 
L 179.568767 51.51456 
L 197.424999 50.789987 
L 215.281232 52.701593 
L 233.137464 52.597412 
L 250.993697 53.208783 
L 268.849929 54.37666 
L 286.706162 54.779446 
L 304.562394 55.784513 
L 322.418626 55.776617 
L 340.274859 56.844763 
L 358.131091 55.47003 
L 375.987324 53.554946 
L 393.843556 53.673831 
L 411.699789 53.365383 
L 429.556021 52.338924 
L 447.412253 52.497891 
L 465.268486 52.973422 
L 483.124718 54.085204 
L 500.980951 54.774639 
L 518.837183 55.136444 
L 536.693416 55.638932 
L 554.549648 56.873642 
L 572.40588 58.24052 
L 590.262113 60.064663 
L 608.118345 60.834558 
L 625.974578 61.661281 
L 643.83081 62.32483 
L 661.687043 63.860776 
L 679.543275 65.794751 
L 697.399507 69.618168 
L 715.25574 69.737954 
L 733.111972 69.1378 
L 750.968205 84.675441 
L 768.824437 78.984988 
L 786.68067 67.748923 
L 804.536902 64.874636 
L 822.393134 64.570959 
L 840.249367 65.229354 
L 858.105599 68.789148 
L 875.961832 71.925428 
L 893.818064 76.878755 
L 911.674297 80.640549 
L 929.530529 85.579906 
L 947.386761 111.532445 
" style="fill:none;stroke:#5cb85c;stroke-linecap:square;"/>
   </g>
   <g id="line2d_20">
    <path clip-path="url(#p02525dff85)" d="M 38.058125 302.41566 
L 990.688125 302.41566 
" style="fill:none;stroke:#dedede;stroke-linecap:square;stroke-width:2;"/>
   </g>
   <g id="text_17">
    <!-- FastQC: Mean Quality Scores -->
    <defs>
     <path d="M 9.8125 72.90625 
L 51.703125 72.90625 
L 51.703125 64.59375 
L 19.671875 64.59375 
L 19.671875 43.109375 
L 48.578125 43.109375 
L 48.578125 34.8125 
L 19.671875 34.8125 
L 19.671875 0 
L 9.8125 0 
z
" id="DejaVuSans-46"/>
     <path d="M 34.28125 27.484375 
Q 23.390625 27.484375 19.1875 25 
Q 14.984375 22.515625 14.984375 16.5 
Q 14.984375 11.71875 18.140625 8.90625 
Q 21.296875 6.109375 26.703125 6.109375 
Q 34.1875 6.109375 38.703125 11.40625 
Q 43.21875 16.703125 43.21875 25.484375 
L 43.21875 27.484375 
z
M 52.203125 31.203125 
L 52.203125 0 
L 43.21875 0 
L 43.21875 8.296875 
Q 40.140625 3.328125 35.546875 0.953125 
Q 30.953125 -1.421875 24.3125 -1.421875 
Q 15.921875 -1.421875 10.953125 3.296875 
Q 6 8.015625 6 15.921875 
Q 6 25.140625 12.171875 29.828125 
Q 18.359375 34.515625 30.609375 34.515625 
L 43.21875 34.515625 
L 43.21875 35.40625 
Q 43.21875 41.609375 39.140625 45 
Q 35.0625 48.390625 27.6875 48.390625 
Q 23 48.390625 18.546875 47.265625 
Q 14.109375 46.140625 10.015625 43.890625 
L 10.015625 52.203125 
Q 14.9375 54.109375 19.578125 55.046875 
Q 24.21875 56 28.609375 56 
Q 40.484375 56 46.34375 49.84375 
Q 52.203125 43.703125 52.203125 31.203125 
z
" id="DejaVuSans-61"/>
     <path d="M 39.40625 66.21875 
Q 28.65625 66.21875 22.328125 58.203125 
Q 16.015625 50.203125 16.015625 36.375 
Q 16.015625 22.609375 22.328125 14.59375 
Q 28.65625 6.59375 39.40625 6.59375 
Q 50.140625 6.59375 56.421875 14.59375 
Q 62.703125 22.609375 62.703125 36.375 
Q 62.703125 50.203125 56.421875 58.203125 
Q 50.140625 66.21875 39.40625 66.21875 
z
M 53.21875 1.3125 
L 66.21875 -12.890625 
L 54.296875 -12.890625 
L 43.5 -1.21875 
Q 41.890625 -1.3125 41.03125 -1.359375 
Q 40.1875 -1.421875 39.40625 -1.421875 
Q 24.03125 -1.421875 14.8125 8.859375 
Q 5.609375 19.140625 5.609375 36.375 
Q 5.609375 53.65625 14.8125 63.9375 
Q 24.03125 74.21875 39.40625 74.21875 
Q 54.734375 74.21875 63.90625 63.9375 
Q 73.09375 53.65625 73.09375 36.375 
Q 73.09375 23.6875 67.984375 14.640625 
Q 62.890625 5.609375 53.21875 1.3125 
z
" id="DejaVuSans-51"/>
     <path d="M 64.40625 67.28125 
L 64.40625 56.890625 
Q 59.421875 61.53125 53.78125 63.8125 
Q 48.140625 66.109375 41.796875 66.109375 
Q 29.296875 66.109375 22.65625 58.46875 
Q 16.015625 50.828125 16.015625 36.375 
Q 16.015625 21.96875 22.65625 14.328125 
Q 29.296875 6.6875 41.796875 6.6875 
Q 48.140625 6.6875 53.78125 8.984375 
Q 59.421875 11.28125 64.40625 15.921875 
L 64.40625 5.609375 
Q 59.234375 2.09375 53.4375 0.328125 
Q 47.65625 -1.421875 41.21875 -1.421875 
Q 24.65625 -1.421875 15.125 8.703125 
Q 5.609375 18.84375 5.609375 36.375 
Q 5.609375 53.953125 15.125 64.078125 
Q 24.65625 74.21875 41.21875 74.21875 
Q 47.75 74.21875 53.53125 72.484375 
Q 59.328125 70.75 64.40625 67.28125 
z
" id="DejaVuSans-43"/>
     <path d="M 11.71875 12.40625 
L 22.015625 12.40625 
L 22.015625 0 
L 11.71875 0 
z
M 11.71875 51.703125 
L 22.015625 51.703125 
L 22.015625 39.3125 
L 11.71875 39.3125 
z
" id="DejaVuSans-3a"/>
     <path d="M 9.8125 72.90625 
L 24.515625 72.90625 
L 43.109375 23.296875 
L 61.8125 72.90625 
L 76.515625 72.90625 
L 76.515625 0 
L 66.890625 0 
L 66.890625 64.015625 
L 48.09375 14.015625 
L 38.1875 14.015625 
L 19.390625 64.015625 
L 19.390625 0 
L 9.8125 0 
z
" id="DejaVuSans-4d"/>
     <path d="M 8.5 21.578125 
L 8.5 54.6875 
L 17.484375 54.6875 
L 17.484375 21.921875 
Q 17.484375 14.15625 20.5 10.265625 
Q 23.53125 6.390625 29.59375 6.390625 
Q 36.859375 6.390625 41.078125 11.03125 
Q 45.3125 15.671875 45.3125 23.6875 
L 45.3125 54.6875 
L 54.296875 54.6875 
L 54.296875 0 
L 45.3125 0 
L 45.3125 8.40625 
Q 42.046875 3.421875 37.71875 1 
Q 33.40625 -1.421875 27.6875 -1.421875 
Q 18.265625 -1.421875 13.375 4.4375 
Q 8.5 10.296875 8.5 21.578125 
z
M 31.109375 56 
z
" id="DejaVuSans-75"/>
     <path d="M 9.421875 75.984375 
L 18.40625 75.984375 
L 18.40625 0 
L 9.421875 0 
z
" id="DejaVuSans-6c"/>
     <path d="M 32.171875 -5.078125 
Q 28.375 -14.84375 24.75 -17.8125 
Q 21.140625 -20.796875 15.09375 -20.796875 
L 7.90625 -20.796875 
L 7.90625 -13.28125 
L 13.1875 -13.28125 
Q 16.890625 -13.28125 18.9375 -11.515625 
Q 21 -9.765625 23.484375 -3.21875 
L 25.09375 0.875 
L 2.984375 54.6875 
L 12.5 54.6875 
L 29.59375 11.921875 
L 46.6875 54.6875 
L 56.203125 54.6875 
z
" id="DejaVuSans-79"/>
    </defs>
    <g transform="translate(398.238125 19.3575)scale(0.16 -0.16)">
     <use xlink:href="#DejaVuSans-46"/>
     <use x="57.378906" xlink:href="#DejaVuSans-61"/>
     <use x="118.658203" xlink:href="#DejaVuSans-73"/>
     <use x="170.757812" xlink:href="#DejaVuSans-74"/>
     <use x="209.966797" xlink:href="#DejaVuSans-51"/>
     <use x="288.677734" xlink:href="#DejaVuSans-43"/>
     <use x="358.501953" xlink:href="#DejaVuSans-3a"/>
     <use x="392.193359" xlink:href="#DejaVuSans-20"/>
     <use x="423.980469" xlink:href="#DejaVuSans-4d"/>
     <use x="510.259766" xlink:href="#DejaVuSans-65"/>
     <use x="571.783203" xlink:href="#DejaVuSans-61"/>
     <use x="633.0625" xlink:href="#DejaVuSans-6e"/>
     <use x="696.441406" xlink:href="#DejaVuSans-20"/>
     <use x="728.228516" xlink:href="#DejaVuSans-51"/>
     <use x="806.939453" xlink:href="#DejaVuSans-75"/>
     <use x="870.318359" xlink:href="#DejaVuSans-61"/>
     <use x="931.597656" xlink:href="#DejaVuSans-6c"/>
     <use x="959.380859" xlink:href="#DejaVuSans-69"/>
     <use x="987.164062" xlink:href="#DejaVuSans-74"/>
     <use x="1026.373047" xlink:href="#DejaVuSans-79"/>
     <use x="1085.552734" xlink:href="#DejaVuSans-20"/>
     <use x="1117.339844" xlink:href="#DejaVuSans-53"/>
     <use x="1180.816406" xlink:href="#DejaVuSans-63"/>
     <use x="1235.796875" xlink:href="#DejaVuSans-6f"/>
     <use x="1296.978516" xlink:href="#DejaVuSans-72"/>
     <use x="1338.060547" xlink:href="#DejaVuSans-65"/>
     <use x="1399.583984" xlink:href="#DejaVuSans-73"/>
    </g>
   </g>
   <g id="legend_1">
    <g id="line2d_21">
     <path d="M 45.258125 325.836834 
L 61.258125 325.836834 
" style="fill:none;stroke:#5cb85c;stroke-linecap:square;"/>
    </g>
    <g id="line2d_22"/>
    <g id="text_18">
     <!-- fastqc | SRR9264344_S0_L001_R2_001 -->
     <defs>
      <path d="M 37.109375 75.984375 
L 37.109375 68.5 
L 28.515625 68.5 
Q 23.6875 68.5 21.796875 66.546875 
Q 19.921875 64.59375 19.921875 59.515625 
L 19.921875 54.6875 
L 34.71875 54.6875 
L 34.71875 47.703125 
L 19.921875 47.703125 
L 19.921875 0 
L 10.890625 0 
L 10.890625 47.703125 
L 2.296875 47.703125 
L 2.296875 54.6875 
L 10.890625 54.6875 
L 10.890625 58.5 
Q 10.890625 67.625 15.140625 71.796875 
Q 19.390625 75.984375 28.609375 75.984375 
z
" id="DejaVuSans-66"/>
      <path d="M 14.796875 27.296875 
Q 14.796875 17.390625 18.875 11.75 
Q 22.953125 6.109375 30.078125 6.109375 
Q 37.203125 6.109375 41.296875 11.75 
Q 45.40625 17.390625 45.40625 27.296875 
Q 45.40625 37.203125 41.296875 42.84375 
Q 37.203125 48.484375 30.078125 48.484375 
Q 22.953125 48.484375 18.875 42.84375 
Q 14.796875 37.203125 14.796875 27.296875 
z
M 45.40625 8.203125 
Q 42.578125 3.328125 38.25 0.953125 
Q 33.9375 -1.421875 27.875 -1.421875 
Q 17.96875 -1.421875 11.734375 6.484375 
Q 5.515625 14.40625 5.515625 27.296875 
Q 5.515625 40.1875 11.734375 48.09375 
Q 17.96875 56 27.875 56 
Q 33.9375 56 38.25 53.625 
Q 42.578125 51.265625 45.40625 46.390625 
L 45.40625 54.6875 
L 54.390625 54.6875 
L 54.390625 -20.796875 
L 45.40625 -20.796875 
z
" id="DejaVuSans-71"/>
      <path d="M 21 76.421875 
L 21 -23.578125 
L 12.703125 -23.578125 
L 12.703125 76.421875 
z
" id="DejaVuSans-7c"/>
      <path d="M 44.390625 34.1875 
Q 47.5625 33.109375 50.5625 29.59375 
Q 53.5625 26.078125 56.59375 19.921875 
L 66.609375 0 
L 56 0 
L 46.6875 18.703125 
Q 43.0625 26.03125 39.671875 28.421875 
Q 36.28125 30.8125 30.421875 30.8125 
L 19.671875 30.8125 
L 19.671875 0 
L 9.8125 0 
L 9.8125 72.90625 
L 32.078125 72.90625 
Q 44.578125 72.90625 50.734375 67.671875 
Q 56.890625 62.453125 56.890625 51.90625 
Q 56.890625 45.015625 53.6875 40.46875 
Q 50.484375 35.9375 44.390625 34.1875 
z
M 19.671875 64.796875 
L 19.671875 38.921875 
L 32.078125 38.921875 
Q 39.203125 38.921875 42.84375 42.21875 
Q 46.484375 45.515625 46.484375 51.90625 
Q 46.484375 58.296875 42.84375 61.546875 
Q 39.203125 64.796875 32.078125 64.796875 
z
" id="DejaVuSans-52"/>
      <path d="M 10.984375 1.515625 
L 10.984375 10.5 
Q 14.703125 8.734375 18.5 7.8125 
Q 22.3125 6.890625 25.984375 6.890625 
Q 35.75 6.890625 40.890625 13.453125 
Q 46.046875 20.015625 46.78125 33.40625 
Q 43.953125 29.203125 39.59375 26.953125 
Q 35.25 24.703125 29.984375 24.703125 
Q 19.046875 24.703125 12.671875 31.3125 
Q 6.296875 37.9375 6.296875 49.421875 
Q 6.296875 60.640625 12.9375 67.421875 
Q 19.578125 74.21875 30.609375 74.21875 
Q 43.265625 74.21875 49.921875 64.515625 
Q 56.59375 54.828125 56.59375 36.375 
Q 56.59375 19.140625 48.40625 8.859375 
Q 40.234375 -1.421875 26.421875 -1.421875 
Q 22.703125 -1.421875 18.890625 -0.6875 
Q 15.09375 0.046875 10.984375 1.515625 
z
M 30.609375 32.421875 
Q 37.25 32.421875 41.125 36.953125 
Q 45.015625 41.5 45.015625 49.421875 
Q 45.015625 57.28125 41.125 61.84375 
Q 37.25 66.40625 30.609375 66.40625 
Q 23.96875 66.40625 20.09375 61.84375 
Q 16.21875 57.28125 16.21875 49.421875 
Q 16.21875 41.5 20.09375 36.953125 
Q 23.96875 32.421875 30.609375 32.421875 
z
" id="DejaVuSans-39"/>
      <path d="M 50.984375 -16.609375 
L 50.984375 -23.578125 
L -0.984375 -23.578125 
L -0.984375 -16.609375 
z
" id="DejaVuSans-5f"/>
      <path d="M 9.8125 72.90625 
L 19.671875 72.90625 
L 19.671875 8.296875 
L 55.171875 8.296875 
L 55.171875 0 
L 9.8125 0 
z
" id="DejaVuSans-4c"/>
     </defs>
     <g transform="translate(67.658125 328.636834)scale(0.08 -0.08)">
      <use xlink:href="#DejaVuSans-66"/>
      <use x="35.205078" xlink:href="#DejaVuSans-61"/>
      <use x="96.484375" xlink:href="#DejaVuSans-73"/>
      <use x="148.583984" xlink:href="#DejaVuSans-74"/>
      <use x="187.792969" xlink:href="#DejaVuSans-71"/>
      <use x="251.269531" xlink:href="#DejaVuSans-63"/>
      <use x="306.25" xlink:href="#DejaVuSans-20"/>
      <use x="338.037109" xlink:href="#DejaVuSans-7c"/>
      <use x="371.728516" xlink:href="#DejaVuSans-20"/>
      <use x="403.515625" xlink:href="#DejaVuSans-53"/>
      <use x="466.992188" xlink:href="#DejaVuSans-52"/>
      <use x="536.474609" xlink:href="#DejaVuSans-52"/>
      <use x="605.957031" xlink:href="#DejaVuSans-39"/>
      <use x="669.580078" xlink:href="#DejaVuSans-32"/>
      <use x="733.203125" xlink:href="#DejaVuSans-36"/>
      <use x="796.826172" xlink:href="#DejaVuSans-34"/>
      <use x="860.449219" xlink:href="#DejaVuSans-33"/>
      <use x="924.072266" xlink:href="#DejaVuSans-34"/>
      <use x="987.695312" xlink:href="#DejaVuSans-34"/>
      <use x="1051.318359" xlink:href="#DejaVuSans-5f"/>
      <use x="1101.318359" xlink:href="#DejaVuSans-53"/>
      <use x="1164.794922" xlink:href="#DejaVuSans-30"/>
      <use x="1228.417969" xlink:href="#DejaVuSans-5f"/>
      <use x="1278.417969" xlink:href="#DejaVuSans-4c"/>
      <use x="1334.130859" xlink:href="#DejaVuSans-30"/>
      <use x="1397.753906" xlink:href="#DejaVuSans-30"/>
      <use x="1461.376953" xlink:href="#DejaVuSans-31"/>
      <use x="1525" xlink:href="#DejaVuSans-5f"/>
      <use x="1575" xlink:href="#DejaVuSans-52"/>
      <use x="1644.482422" xlink:href="#DejaVuSans-32"/>
      <use x="1708.105469" xlink:href="#DejaVuSans-5f"/>
      <use x="1758.105469" xlink:href="#DejaVuSans-30"/>
      <use x="1821.728516" xlink:href="#DejaVuSans-30"/>
      <use x="1885.351562" xlink:href="#DejaVuSans-31"/>
     </g>
    </g>
    <g id="line2d_23">
     <path d="M 45.258125 337.836834 
L 61.258125 337.836834 
" style="fill:none;stroke:#5cb85c;stroke-linecap:square;"/>
    </g>
    <g id="line2d_24"/>
    <g id="text_19">
     <!-- fastqc | SRR9264345_S0_L001_R2_001 -->
     <g transform="translate(67.658125 340.636834)scale(0.08 -0.08)">
      <use xlink:href="#DejaVuSans-66"/>
      <use x="35.205078" xlink:href="#DejaVuSans-61"/>
      <use x="96.484375" xlink:href="#DejaVuSans-73"/>
      <use x="148.583984" xlink:href="#DejaVuSans-74"/>
      <use x="187.792969" xlink:href="#DejaVuSans-71"/>
      <use x="251.269531" xlink:href="#DejaVuSans-63"/>
      <use x="306.25" xlink:href="#DejaVuSans-20"/>
      <use x="338.037109" xlink:href="#DejaVuSans-7c"/>
      <use x="371.728516" xlink:href="#DejaVuSans-20"/>
      <use x="403.515625" xlink:href="#DejaVuSans-53"/>
      <use x="466.992188" xlink:href="#DejaVuSans-52"/>
      <use x="536.474609" xlink:href="#DejaVuSans-52"/>
      <use x="605.957031" xlink:href="#DejaVuSans-39"/>
      <use x="669.580078" xlink:href="#DejaVuSans-32"/>
      <use x="733.203125" xlink:href="#DejaVuSans-36"/>
      <use x="796.826172" xlink:href="#DejaVuSans-34"/>
      <use x="860.449219" xlink:href="#DejaVuSans-33"/>
      <use x="924.072266" xlink:href="#DejaVuSans-34"/>
      <use x="987.695312" xlink:href="#DejaVuSans-35"/>
      <use x="1051.318359" xlink:href="#DejaVuSans-5f"/>
      <use x="1101.318359" xlink:href="#DejaVuSans-53"/>
      <use x="1164.794922" xlink:href="#DejaVuSans-30"/>
      <use x="1228.417969" xlink:href="#DejaVuSans-5f"/>
      <use x="1278.417969" xlink:href="#DejaVuSans-4c"/>
      <use x="1334.130859" xlink:href="#DejaVuSans-30"/>
      <use x="1397.753906" xlink:href="#DejaVuSans-30"/>
      <use x="1461.376953" xlink:href="#DejaVuSans-31"/>
      <use x="1525" xlink:href="#DejaVuSans-5f"/>
      <use x="1575" xlink:href="#DejaVuSans-52"/>
      <use x="1644.482422" xlink:href="#DejaVuSans-32"/>
      <use x="1708.105469" xlink:href="#DejaVuSans-5f"/>
      <use x="1758.105469" xlink:href="#DejaVuSans-30"/>
      <use x="1821.728516" xlink:href="#DejaVuSans-30"/>
      <use x="1885.351562" xlink:href="#DejaVuSans-31"/>
     </g>
    </g>
    <g id="line2d_25">
     <path d="M 45.258125 349.836834 
L 61.258125 349.836834 
" style="fill:none;stroke:#5cb85c;stroke-linecap:square;"/>
    </g>
    <g id="line2d_26"/>
    <g id="text_20">
     <!-- fastqc | SRR9264346_S0_L001_R2_001 -->
     <g transform="translate(67.658125 352.636834)scale(0.08 -0.08)">
      <use xlink:href="#DejaVuSans-66"/>
      <use x="35.205078" xlink:href="#DejaVuSans-61"/>
      <use x="96.484375" xlink:href="#DejaVuSans-73"/>
      <use x="148.583984" xlink:href="#DejaVuSans-74"/>
      <use x="187.792969" xlink:href="#DejaVuSans-71"/>
      <use x="251.269531" xlink:href="#DejaVuSans-63"/>
      <use x="306.25" xlink:href="#DejaVuSans-20"/>
      <use x="338.037109" xlink:href="#DejaVuSans-7c"/>
      <use x="371.728516" xlink:href="#DejaVuSans-20"/>
      <use x="403.515625" xlink:href="#DejaVuSans-53"/>
      <use x="466.992188" xlink:href="#DejaVuSans-52"/>
      <use x="536.474609" xlink:href="#DejaVuSans-52"/>
      <use x="605.957031" xlink:href="#DejaVuSans-39"/>
      <use x="669.580078" xlink:href="#DejaVuSans-32"/>
      <use x="733.203125" xlink:href="#DejaVuSans-36"/>
      <use x="796.826172" xlink:href="#DejaVuSans-34"/>
      <use x="860.449219" xlink:href="#DejaVuSans-33"/>
      <use x="924.072266" xlink:href="#DejaVuSans-34"/>
      <use x="987.695312" xlink:href="#DejaVuSans-36"/>
      <use x="1051.318359" xlink:href="#DejaVuSans-5f"/>
      <use x="1101.318359" xlink:href="#DejaVuSans-53"/>
      <use x="1164.794922" xlink:href="#DejaVuSans-30"/>
      <use x="1228.417969" xlink:href="#DejaVuSans-5f"/>
      <use x="1278.417969" xlink:href="#DejaVuSans-4c"/>
      <use x="1334.130859" xlink:href="#DejaVuSans-30"/>
      <use x="1397.753906" xlink:href="#DejaVuSans-30"/>
      <use x="1461.376953" xlink:href="#DejaVuSans-31"/>
      <use x="1525" xlink:href="#DejaVuSans-5f"/>
      <use x="1575" xlink:href="#DejaVuSans-52"/>
      <use x="1644.482422" xlink:href="#DejaVuSans-32"/>
      <use x="1708.105469" xlink:href="#DejaVuSans-5f"/>
      <use x="1758.105469" xlink:href="#DejaVuSans-30"/>
      <use x="1821.728516" xlink:href="#DejaVuSans-30"/>
      <use x="1885.351562" xlink:href="#DejaVuSans-31"/>
     </g>
    </g>
    <g id="line2d_27">
     <path d="M 235.235313 325.836834 
L 251.235313 325.836834 
" style="fill:none;stroke:#5cb85c;stroke-linecap:square;"/>
    </g>
    <g id="line2d_28"/>
    <g id="text_21">
     <!-- fastqc | SRR9264347_S0_L001_R2_001 -->
     <defs>
      <path d="M 8.203125 72.90625 
L 55.078125 72.90625 
L 55.078125 68.703125 
L 28.609375 0 
L 18.3125 0 
L 43.21875 64.59375 
L 8.203125 64.59375 
z
" id="DejaVuSans-37"/>
     </defs>
     <g transform="translate(257.635312 328.636834)scale(0.08 -0.08)">
      <use xlink:href="#DejaVuSans-66"/>
      <use x="35.205078" xlink:href="#DejaVuSans-61"/>
      <use x="96.484375" xlink:href="#DejaVuSans-73"/>
      <use x="148.583984" xlink:href="#DejaVuSans-74"/>
      <use x="187.792969" xlink:href="#DejaVuSans-71"/>
      <use x="251.269531" xlink:href="#DejaVuSans-63"/>
      <use x="306.25" xlink:href="#DejaVuSans-20"/>
      <use x="338.037109" xlink:href="#DejaVuSans-7c"/>
      <use x="371.728516" xlink:href="#DejaVuSans-20"/>
      <use x="403.515625" xlink:href="#DejaVuSans-53"/>
      <use x="466.992188" xlink:href="#DejaVuSans-52"/>
      <use x="536.474609" xlink:href="#DejaVuSans-52"/>
      <use x="605.957031" xlink:href="#DejaVuSans-39"/>
      <use x="669.580078" xlink:href="#DejaVuSans-32"/>
      <use x="733.203125" xlink:href="#DejaVuSans-36"/>
      <use x="796.826172" xlink:href="#DejaVuSans-34"/>
      <use x="860.449219" xlink:href="#DejaVuSans-33"/>
      <use x="924.072266" xlink:href="#DejaVuSans-34"/>
      <use x="987.695312" xlink:href="#DejaVuSans-37"/>
      <use x="1051.318359" xlink:href="#DejaVuSans-5f"/>
      <use x="1101.318359" xlink:href="#DejaVuSans-53"/>
      <use x="1164.794922" xlink:href="#DejaVuSans-30"/>
      <use x="1228.417969" xlink:href="#DejaVuSans-5f"/>
      <use x="1278.417969" xlink:href="#DejaVuSans-4c"/>
      <use x="1334.130859" xlink:href="#DejaVuSans-30"/>
      <use x="1397.753906" xlink:href="#DejaVuSans-30"/>
      <use x="1461.376953" xlink:href="#DejaVuSans-31"/>
      <use x="1525" xlink:href="#DejaVuSans-5f"/>
      <use x="1575" xlink:href="#DejaVuSans-52"/>
      <use x="1644.482422" xlink:href="#DejaVuSans-32"/>
      <use x="1708.105469" xlink:href="#DejaVuSans-5f"/>
      <use x="1758.105469" xlink:href="#DejaVuSans-30"/>
      <use x="1821.728516" xlink:href="#DejaVuSans-30"/>
      <use x="1885.351562" xlink:href="#DejaVuSans-31"/>
     </g>
    </g>
    <g id="line2d_29">
     <path d="M 235.235313 337.836834 
L 251.235313 337.836834 
" style="fill:none;stroke:#5cb85c;stroke-linecap:square;"/>
    </g>
    <g id="line2d_30"/>
    <g id="text_22">
     <!-- fastqc | SRR9264348_S0_L001_R2_001 -->
     <g transform="translate(257.635312 340.636834)scale(0.08 -0.08)">
      <use xlink:href="#DejaVuSans-66"/>
      <use x="35.205078" xlink:href="#DejaVuSans-61"/>
      <use x="96.484375" xlink:href="#DejaVuSans-73"/>
      <use x="148.583984" xlink:href="#DejaVuSans-74"/>
      <use x="187.792969" xlink:href="#DejaVuSans-71"/>
      <use x="251.269531" xlink:href="#DejaVuSans-63"/>
      <use x="306.25" xlink:href="#DejaVuSans-20"/>
      <use x="338.037109" xlink:href="#DejaVuSans-7c"/>
      <use x="371.728516" xlink:href="#DejaVuSans-20"/>
      <use x="403.515625" xlink:href="#DejaVuSans-53"/>
      <use x="466.992188" xlink:href="#DejaVuSans-52"/>
      <use x="536.474609" xlink:href="#DejaVuSans-52"/>
      <use x="605.957031" xlink:href="#DejaVuSans-39"/>
      <use x="669.580078" xlink:href="#DejaVuSans-32"/>
      <use x="733.203125" xlink:href="#DejaVuSans-36"/>
      <use x="796.826172" xlink:href="#DejaVuSans-34"/>
      <use x="860.449219" xlink:href="#DejaVuSans-33"/>
      <use x="924.072266" xlink:href="#DejaVuSans-34"/>
      <use x="987.695312" xlink:href="#DejaVuSans-38"/>
      <use x="1051.318359" xlink:href="#DejaVuSans-5f"/>
      <use x="1101.318359" xlink:href="#DejaVuSans-53"/>
      <use x="1164.794922" xlink:href="#DejaVuSans-30"/>
      <use x="1228.417969" xlink:href="#DejaVuSans-5f"/>
      <use x="1278.417969" xlink:href="#DejaVuSans-4c"/>
      <use x="1334.130859" xlink:href="#DejaVuSans-30"/>
      <use x="1397.753906" xlink:href="#DejaVuSans-30"/>
      <use x="1461.376953" xlink:href="#DejaVuSans-31"/>
      <use x="1525" xlink:href="#DejaVuSans-5f"/>
      <use x="1575" xlink:href="#DejaVuSans-52"/>
      <use x="1644.482422" xlink:href="#DejaVuSans-32"/>
      <use x="1708.105469" xlink:href="#DejaVuSans-5f"/>
      <use x="1758.105469" xlink:href="#DejaVuSans-30"/>
      <use x="1821.728516" xlink:href="#DejaVuSans-30"/>
      <use x="1885.351562" xlink:href="#DejaVuSans-31"/>
     </g>
    </g>
    <g id="line2d_31">
     <path d="M 425.2125 325.836834 
L 441.2125 325.836834 
" style="fill:none;stroke:#5cb85c;stroke-linecap:square;"/>
    </g>
    <g id="line2d_32"/>
    <g id="text_23">
     <!-- fastqc | SRR9264349_S0_L001_R2_001 -->
     <g transform="translate(447.6125 328.636834)scale(0.08 -0.08)">
      <use xlink:href="#DejaVuSans-66"/>
      <use x="35.205078" xlink:href="#DejaVuSans-61"/>
      <use x="96.484375" xlink:href="#DejaVuSans-73"/>
      <use x="148.583984" xlink:href="#DejaVuSans-74"/>
      <use x="187.792969" xlink:href="#DejaVuSans-71"/>
      <use x="251.269531" xlink:href="#DejaVuSans-63"/>
      <use x="306.25" xlink:href="#DejaVuSans-20"/>
      <use x="338.037109" xlink:href="#DejaVuSans-7c"/>
      <use x="371.728516" xlink:href="#DejaVuSans-20"/>
      <use x="403.515625" xlink:href="#DejaVuSans-53"/>
      <use x="466.992188" xlink:href="#DejaVuSans-52"/>
      <use x="536.474609" xlink:href="#DejaVuSans-52"/>
      <use x="605.957031" xlink:href="#DejaVuSans-39"/>
      <use x="669.580078" xlink:href="#DejaVuSans-32"/>
      <use x="733.203125" xlink:href="#DejaVuSans-36"/>
      <use x="796.826172" xlink:href="#DejaVuSans-34"/>
      <use x="860.449219" xlink:href="#DejaVuSans-33"/>
      <use x="924.072266" xlink:href="#DejaVuSans-34"/>
      <use x="987.695312" xlink:href="#DejaVuSans-39"/>
      <use x="1051.318359" xlink:href="#DejaVuSans-5f"/>
      <use x="1101.318359" xlink:href="#DejaVuSans-53"/>
      <use x="1164.794922" xlink:href="#DejaVuSans-30"/>
      <use x="1228.417969" xlink:href="#DejaVuSans-5f"/>
      <use x="1278.417969" xlink:href="#DejaVuSans-4c"/>
      <use x="1334.130859" xlink:href="#DejaVuSans-30"/>
      <use x="1397.753906" xlink:href="#DejaVuSans-30"/>
      <use x="1461.376953" xlink:href="#DejaVuSans-31"/>
      <use x="1525" xlink:href="#DejaVuSans-5f"/>
      <use x="1575" xlink:href="#DejaVuSans-52"/>
      <use x="1644.482422" xlink:href="#DejaVuSans-32"/>
      <use x="1708.105469" xlink:href="#DejaVuSans-5f"/>
      <use x="1758.105469" xlink:href="#DejaVuSans-30"/>
      <use x="1821.728516" xlink:href="#DejaVuSans-30"/>
      <use x="1885.351562" xlink:href="#DejaVuSans-31"/>
     </g>
    </g>
    <g id="line2d_33">
     <path d="M 425.2125 337.836834 
L 441.2125 337.836834 
" style="fill:none;stroke:#5cb85c;stroke-linecap:square;"/>
    </g>
    <g id="line2d_34"/>
    <g id="text_24">
     <!-- fastqc | SRR9264350_S0_L001_R2_001 -->
     <g transform="translate(447.6125 340.636834)scale(0.08 -0.08)">
      <use xlink:href="#DejaVuSans-66"/>
      <use x="35.205078" xlink:href="#DejaVuSans-61"/>
      <use x="96.484375" xlink:href="#DejaVuSans-73"/>
      <use x="148.583984" xlink:href="#DejaVuSans-74"/>
      <use x="187.792969" xlink:href="#DejaVuSans-71"/>
      <use x="251.269531" xlink:href="#DejaVuSans-63"/>
      <use x="306.25" xlink:href="#DejaVuSans-20"/>
      <use x="338.037109" xlink:href="#DejaVuSans-7c"/>
      <use x="371.728516" xlink:href="#DejaVuSans-20"/>
      <use x="403.515625" xlink:href="#DejaVuSans-53"/>
      <use x="466.992188" xlink:href="#DejaVuSans-52"/>
      <use x="536.474609" xlink:href="#DejaVuSans-52"/>
      <use x="605.957031" xlink:href="#DejaVuSans-39"/>
      <use x="669.580078" xlink:href="#DejaVuSans-32"/>
      <use x="733.203125" xlink:href="#DejaVuSans-36"/>
      <use x="796.826172" xlink:href="#DejaVuSans-34"/>
      <use x="860.449219" xlink:href="#DejaVuSans-33"/>
      <use x="924.072266" xlink:href="#DejaVuSans-35"/>
      <use x="987.695312" xlink:href="#DejaVuSans-30"/>
      <use x="1051.318359" xlink:href="#DejaVuSans-5f"/>
      <use x="1101.318359" xlink:href="#DejaVuSans-53"/>
      <use x="1164.794922" xlink:href="#DejaVuSans-30"/>
      <use x="1228.417969" xlink:href="#DejaVuSans-5f"/>
      <use x="1278.417969" xlink:href="#DejaVuSans-4c"/>
      <use x="1334.130859" xlink:href="#DejaVuSans-30"/>
      <use x="1397.753906" xlink:href="#DejaVuSans-30"/>
      <use x="1461.376953" xlink:href="#DejaVuSans-31"/>
      <use x="1525" xlink:href="#DejaVuSans-5f"/>
      <use x="1575" xlink:href="#DejaVuSans-52"/>
      <use x="1644.482422" xlink:href="#DejaVuSans-32"/>
      <use x="1708.105469" xlink:href="#DejaVuSans-5f"/>
      <use x="1758.105469" xlink:href="#DejaVuSans-30"/>
      <use x="1821.728516" xlink:href="#DejaVuSans-30"/>
      <use x="1885.351562" xlink:href="#DejaVuSans-31"/>
     </g>
    </g>
    <g id="line2d_35">
     <path d="M 615.189687 325.836834 
L 631.189687 325.836834 
" style="fill:none;stroke:#d9534f;stroke-linecap:square;"/>
    </g>
    <g id="line2d_36"/>
    <g id="text_25">
     <!-- fastqc | SRR9264351_S0_L001_R2_001 -->
     <g transform="translate(637.589687 328.636834)scale(0.08 -0.08)">
      <use xlink:href="#DejaVuSans-66"/>
      <use x="35.205078" xlink:href="#DejaVuSans-61"/>
      <use x="96.484375" xlink:href="#DejaVuSans-73"/>
      <use x="148.583984" xlink:href="#DejaVuSans-74"/>
      <use x="187.792969" xlink:href="#DejaVuSans-71"/>
      <use x="251.269531" xlink:href="#DejaVuSans-63"/>
      <use x="306.25" xlink:href="#DejaVuSans-20"/>
      <use x="338.037109" xlink:href="#DejaVuSans-7c"/>
      <use x="371.728516" xlink:href="#DejaVuSans-20"/>
      <use x="403.515625" xlink:href="#DejaVuSans-53"/>
      <use x="466.992188" xlink:href="#DejaVuSans-52"/>
      <use x="536.474609" xlink:href="#DejaVuSans-52"/>
      <use x="605.957031" xlink:href="#DejaVuSans-39"/>
      <use x="669.580078" xlink:href="#DejaVuSans-32"/>
      <use x="733.203125" xlink:href="#DejaVuSans-36"/>
      <use x="796.826172" xlink:href="#DejaVuSans-34"/>
      <use x="860.449219" xlink:href="#DejaVuSans-33"/>
      <use x="924.072266" xlink:href="#DejaVuSans-35"/>
      <use x="987.695312" xlink:href="#DejaVuSans-31"/>
      <use x="1051.318359" xlink:href="#DejaVuSans-5f"/>
      <use x="1101.318359" xlink:href="#DejaVuSans-53"/>
      <use x="1164.794922" xlink:href="#DejaVuSans-30"/>
      <use x="1228.417969" xlink:href="#DejaVuSans-5f"/>
      <use x="1278.417969" xlink:href="#DejaVuSans-4c"/>
      <use x="1334.130859" xlink:href="#DejaVuSans-30"/>
      <use x="1397.753906" xlink:href="#DejaVuSans-30"/>
      <use x="1461.376953" xlink:href="#DejaVuSans-31"/>
      <use x="1525" xlink:href="#DejaVuSans-5f"/>
      <use x="1575" xlink:href="#DejaVuSans-52"/>
      <use x="1644.482422" xlink:href="#DejaVuSans-32"/>
      <use x="1708.105469" xlink:href="#DejaVuSans-5f"/>
      <use x="1758.105469" xlink:href="#DejaVuSans-30"/>
      <use x="1821.728516" xlink:href="#DejaVuSans-30"/>
      <use x="1885.351562" xlink:href="#DejaVuSans-31"/>
     </g>
    </g>
    <g id="line2d_37">
     <path d="M 615.189687 337.836834 
L 631.189687 337.836834 
" style="fill:none;stroke:#5cb85c;stroke-linecap:square;"/>
    </g>
    <g id="line2d_38"/>
    <g id="text_26">
     <!-- fastqc | SRR9264352_S0_L001_R2_001 -->
     <g transform="translate(637.589687 340.636834)scale(0.08 -0.08)">
      <use xlink:href="#DejaVuSans-66"/>
      <use x="35.205078" xlink:href="#DejaVuSans-61"/>
      <use x="96.484375" xlink:href="#DejaVuSans-73"/>
      <use x="148.583984" xlink:href="#DejaVuSans-74"/>
      <use x="187.792969" xlink:href="#DejaVuSans-71"/>
      <use x="251.269531" xlink:href="#DejaVuSans-63"/>
      <use x="306.25" xlink:href="#DejaVuSans-20"/>
      <use x="338.037109" xlink:href="#DejaVuSans-7c"/>
      <use x="371.728516" xlink:href="#DejaVuSans-20"/>
      <use x="403.515625" xlink:href="#DejaVuSans-53"/>
      <use x="466.992188" xlink:href="#DejaVuSans-52"/>
      <use x="536.474609" xlink:href="#DejaVuSans-52"/>
      <use x="605.957031" xlink:href="#DejaVuSans-39"/>
      <use x="669.580078" xlink:href="#DejaVuSans-32"/>
      <use x="733.203125" xlink:href="#DejaVuSans-36"/>
      <use x="796.826172" xlink:href="#DejaVuSans-34"/>
      <use x="860.449219" xlink:href="#DejaVuSans-33"/>
      <use x="924.072266" xlink:href="#DejaVuSans-35"/>
      <use x="987.695312" xlink:href="#DejaVuSans-32"/>
      <use x="1051.318359" xlink:href="#DejaVuSans-5f"/>
      <use x="1101.318359" xlink:href="#DejaVuSans-53"/>
      <use x="1164.794922" xlink:href="#DejaVuSans-30"/>
      <use x="1228.417969" xlink:href="#DejaVuSans-5f"/>
      <use x="1278.417969" xlink:href="#DejaVuSans-4c"/>
      <use x="1334.130859" xlink:href="#DejaVuSans-30"/>
      <use x="1397.753906" xlink:href="#DejaVuSans-30"/>
      <use x="1461.376953" xlink:href="#DejaVuSans-31"/>
      <use x="1525" xlink:href="#DejaVuSans-5f"/>
      <use x="1575" xlink:href="#DejaVuSans-52"/>
      <use x="1644.482422" xlink:href="#DejaVuSans-32"/>
      <use x="1708.105469" xlink:href="#DejaVuSans-5f"/>
      <use x="1758.105469" xlink:href="#DejaVuSans-30"/>
      <use x="1821.728516" xlink:href="#DejaVuSans-30"/>
      <use x="1885.351562" xlink:href="#DejaVuSans-31"/>
     </g>
    </g>
    <g id="line2d_39">
     <path d="M 805.166875 325.836834 
L 821.166875 325.836834 
" style="fill:none;stroke:#5cb85c;stroke-linecap:square;"/>
    </g>
    <g id="line2d_40"/>
    <g id="text_27">
     <!-- fastqc | SRR9264353_S0_L001_R2_001 -->
     <g transform="translate(827.566875 328.636834)scale(0.08 -0.08)">
      <use xlink:href="#DejaVuSans-66"/>
      <use x="35.205078" xlink:href="#DejaVuSans-61"/>
      <use x="96.484375" xlink:href="#DejaVuSans-73"/>
      <use x="148.583984" xlink:href="#DejaVuSans-74"/>
      <use x="187.792969" xlink:href="#DejaVuSans-71"/>
      <use x="251.269531" xlink:href="#DejaVuSans-63"/>
      <use x="306.25" xlink:href="#DejaVuSans-20"/>
      <use x="338.037109" xlink:href="#DejaVuSans-7c"/>
      <use x="371.728516" xlink:href="#DejaVuSans-20"/>
      <use x="403.515625" xlink:href="#DejaVuSans-53"/>
      <use x="466.992188" xlink:href="#DejaVuSans-52"/>
      <use x="536.474609" xlink:href="#DejaVuSans-52"/>
      <use x="605.957031" xlink:href="#DejaVuSans-39"/>
      <use x="669.580078" xlink:href="#DejaVuSans-32"/>
      <use x="733.203125" xlink:href="#DejaVuSans-36"/>
      <use x="796.826172" xlink:href="#DejaVuSans-34"/>
      <use x="860.449219" xlink:href="#DejaVuSans-33"/>
      <use x="924.072266" xlink:href="#DejaVuSans-35"/>
      <use x="987.695312" xlink:href="#DejaVuSans-33"/>
      <use x="1051.318359" xlink:href="#DejaVuSans-5f"/>
      <use x="1101.318359" xlink:href="#DejaVuSans-53"/>
      <use x="1164.794922" xlink:href="#DejaVuSans-30"/>
      <use x="1228.417969" xlink:href="#DejaVuSans-5f"/>
      <use x="1278.417969" xlink:href="#DejaVuSans-4c"/>
      <use x="1334.130859" xlink:href="#DejaVuSans-30"/>
      <use x="1397.753906" xlink:href="#DejaVuSans-30"/>
      <use x="1461.376953" xlink:href="#DejaVuSans-31"/>
      <use x="1525" xlink:href="#DejaVuSans-5f"/>
      <use x="1575" xlink:href="#DejaVuSans-52"/>
      <use x="1644.482422" xlink:href="#DejaVuSans-32"/>
      <use x="1708.105469" xlink:href="#DejaVuSans-5f"/>
      <use x="1758.105469" xlink:href="#DejaVuSans-30"/>
      <use x="1821.728516" xlink:href="#DejaVuSans-30"/>
      <use x="1885.351562" xlink:href="#DejaVuSans-31"/>
     </g>
    </g>
    <g id="line2d_41">
     <path d="M 805.166875 337.836834 
L 821.166875 337.836834 
" style="fill:none;stroke:#5cb85c;stroke-linecap:square;"/>
    </g>
    <g id="line2d_42"/>
    <g id="text_28">
     <!-- fastqc | SRR9264354_S0_L001_R2_001 -->
     <g transform="translate(827.566875 340.636834)scale(0.08 -0.08)">
      <use xlink:href="#DejaVuSans-66"/>
      <use x="35.205078" xlink:href="#DejaVuSans-61"/>
      <use x="96.484375" xlink:href="#DejaVuSans-73"/>
      <use x="148.583984" xlink:href="#DejaVuSans-74"/>
      <use x="187.792969" xlink:href="#DejaVuSans-71"/>
      <use x="251.269531" xlink:href="#DejaVuSans-63"/>
      <use x="306.25" xlink:href="#DejaVuSans-20"/>
      <use x="338.037109" xlink:href="#DejaVuSans-7c"/>
      <use x="371.728516" xlink:href="#DejaVuSans-20"/>
      <use x="403.515625" xlink:href="#DejaVuSans-53"/>
      <use x="466.992188" xlink:href="#DejaVuSans-52"/>
      <use x="536.474609" xlink:href="#DejaVuSans-52"/>
      <use x="605.957031" xlink:href="#DejaVuSans-39"/>
      <use x="669.580078" xlink:href="#DejaVuSans-32"/>
      <use x="733.203125" xlink:href="#DejaVuSans-36"/>
      <use x="796.826172" xlink:href="#DejaVuSans-34"/>
      <use x="860.449219" xlink:href="#DejaVuSans-33"/>
      <use x="924.072266" xlink:href="#DejaVuSans-35"/>
      <use x="987.695312" xlink:href="#DejaVuSans-34"/>
      <use x="1051.318359" xlink:href="#DejaVuSans-5f"/>
      <use x="1101.318359" xlink:href="#DejaVuSans-53"/>
      <use x="1164.794922" xlink:href="#DejaVuSans-30"/>
      <use x="1228.417969" xlink:href="#DejaVuSans-5f"/>
      <use x="1278.417969" xlink:href="#DejaVuSans-4c"/>
      <use x="1334.130859" xlink:href="#DejaVuSans-30"/>
      <use x="1397.753906" xlink:href="#DejaVuSans-30"/>
      <use x="1461.376953" xlink:href="#DejaVuSans-31"/>
      <use x="1525" xlink:href="#DejaVuSans-5f"/>
      <use x="1575" xlink:href="#DejaVuSans-52"/>
      <use x="1644.482422" xlink:href="#DejaVuSans-32"/>
      <use x="1708.105469" xlink:href="#DejaVuSans-5f"/>
      <use x="1758.105469" xlink:href="#DejaVuSans-30"/>
      <use x="1821.728516" xlink:href="#DejaVuSans-30"/>
      <use x="1885.351562" xlink:href="#DejaVuSans-31"/>
     </g>
    </g>
   </g>
  </g>
 </g>
 <defs>
  <clipPath id="p02525dff85">
   <rect height="269.5792" width="952.63" x="38.058125" y="32.83646"/>
  </clipPath>
 </defs>
</svg>
