<?xml version="1.0" encoding="utf-8" standalone="no"?>
<!DOCTYPE svg PUBLIC "-//W3C//DTD SVG 1.1//EN"
  "http://www.w3.org/Graphics/SVG/1.1/DTD/svg11.dtd">
<!-- Created with matplotlib (http://matplotlib.org/) -->
<svg height="364.923084pt" version="1.1" viewBox="0 0 1000.433125 364.923084" width="1000.433125pt" xmlns="http://www.w3.org/2000/svg" xmlns:xlink="http://www.w3.org/1999/xlink">
 <defs>
  <style type="text/css">
*{stroke-linecap:butt;stroke-linejoin:round;}
  </style>
 </defs>
 <g id="figure_1">
  <g id="patch_1">
   <path d="M 0 364.923084 
L 1000.433125 364.923084 
L 1000.433125 0 
L 0 0 
z
" style="fill:#ffffff;"/>
  </g>
  <g id="axes_1">
   <g id="patch_2">
    <path d="M 32.968125 302.41566 
L 985.598125 302.41566 
L 985.598125 32.83646 
L 32.968125 32.83646 
z
" style="fill:#ffffff;"/>
   </g>
   <g id="matplotlib.axis_1">
    <g id="xtick_1">
     <g id="text_1">
      <!-- 0 -->
      <defs>
       <path d="M 31.78125 66.40625 
Q 24.171875 66.40625 20.328125 58.90625 
Q 16.5 51.421875 16.5 36.375 
Q 16.5 21.390625 20.328125 13.890625 
Q 24.171875 6.390625 31.78125 6.390625 
Q 39.453125 6.390625 43.28125 13.890625 
Q 47.125 21.390625 47.125 36.375 
Q 47.125 51.421875 43.28125 58.90625 
Q 39.453125 66.40625 31.78125 66.40625 
z
M 31.78125 74.21875 
Q 44.046875 74.21875 50.515625 64.515625 
Q 56.984375 54.828125 56.984375 36.375 
Q 56.984375 17.96875 50.515625 8.265625 
Q 44.046875 -1.421875 31.78125 -1.421875 
Q 19.53125 -1.421875 13.0625 8.265625 
Q 6.59375 17.96875 6.59375 36.375 
Q 6.59375 54.828125 13.0625 64.515625 
Q 19.53125 74.21875 31.78125 74.21875 
z
" id="DejaVuSans-30"/>
      </defs>
      <g transform="translate(30.423125 315.49441)scale(0.08 -0.08)">
       <use xlink:href="#DejaVuSans-30"/>
      </g>
     </g>
    </g>
    <g id="xtick_2">
     <g id="text_2">
      <!-- 20 -->
      <defs>
       <path d="M 19.1875 8.296875 
L 53.609375 8.296875 
L 53.609375 0 
L 7.328125 0 
L 7.328125 8.296875 
Q 12.9375 14.109375 22.625 23.890625 
Q 32.328125 33.6875 34.8125 36.53125 
Q 39.546875 41.84375 41.421875 45.53125 
Q 43.3125 49.21875 43.3125 52.78125 
Q 43.3125 58.59375 39.234375 62.25 
Q 35.15625 65.921875 28.609375 65.921875 
Q 23.96875 65.921875 18.8125 64.3125 
Q 13.671875 62.703125 7.8125 59.421875 
L 7.8125 69.390625 
Q 13.765625 71.78125 18.9375 73 
Q 24.125 74.21875 28.421875 74.21875 
Q 39.75 74.21875 46.484375 68.546875 
Q 53.21875 62.890625 53.21875 53.421875 
Q 53.21875 48.921875 51.53125 44.890625 
Q 49.859375 40.875 45.40625 35.40625 
Q 44.1875 33.984375 37.640625 27.21875 
Q 31.109375 20.453125 19.1875 8.296875 
z
" id="DejaVuSans-32"/>
      </defs>
      <g transform="translate(218.404125 315.49441)scale(0.08 -0.08)">
       <use xlink:href="#DejaVuSans-32"/>
       <use x="63.623047" xlink:href="#DejaVuSans-30"/>
      </g>
     </g>
    </g>
    <g id="xtick_3">
     <g id="text_3">
      <!-- 40 -->
      <defs>
       <path d="M 37.796875 64.3125 
L 12.890625 25.390625 
L 37.796875 25.390625 
z
M 35.203125 72.90625 
L 47.609375 72.90625 
L 47.609375 25.390625 
L 58.015625 25.390625 
L 58.015625 17.1875 
L 47.609375 17.1875 
L 47.609375 0 
L 37.796875 0 
L 37.796875 17.1875 
L 4.890625 17.1875 
L 4.890625 26.703125 
z
" id="DejaVuSans-34"/>
      </defs>
      <g transform="translate(408.930125 315.49441)scale(0.08 -0.08)">
       <use xlink:href="#DejaVuSans-34"/>
       <use x="63.623047" xlink:href="#DejaVuSans-30"/>
      </g>
     </g>
    </g>
    <g id="xtick_4">
     <g id="text_4">
      <!-- 60 -->
      <defs>
       <path d="M 33.015625 40.375 
Q 26.375 40.375 22.484375 35.828125 
Q 18.609375 31.296875 18.609375 23.390625 
Q 18.609375 15.53125 22.484375 10.953125 
Q 26.375 6.390625 33.015625 6.390625 
Q 39.65625 6.390625 43.53125 10.953125 
Q 47.40625 15.53125 47.40625 23.390625 
Q 47.40625 31.296875 43.53125 35.828125 
Q 39.65625 40.375 33.015625 40.375 
z
M 52.59375 71.296875 
L 52.59375 62.3125 
Q 48.875 64.0625 45.09375 64.984375 
Q 41.3125 65.921875 37.59375 65.921875 
Q 27.828125 65.921875 22.671875 59.328125 
Q 17.53125 52.734375 16.796875 39.40625 
Q 19.671875 43.65625 24.015625 45.921875 
Q 28.375 48.1875 33.59375 48.1875 
Q 44.578125 48.1875 50.953125 41.515625 
Q 57.328125 34.859375 57.328125 23.390625 
Q 57.328125 12.15625 50.6875 5.359375 
Q 44.046875 -1.421875 33.015625 -1.421875 
Q 20.359375 -1.421875 13.671875 8.265625 
Q 6.984375 17.96875 6.984375 36.375 
Q 6.984375 53.65625 15.1875 63.9375 
Q 23.390625 74.21875 37.203125 74.21875 
Q 40.921875 74.21875 44.703125 73.484375 
Q 48.484375 72.75 52.59375 71.296875 
z
" id="DejaVuSans-36"/>
      </defs>
      <g transform="translate(599.456125 315.49441)scale(0.08 -0.08)">
       <use xlink:href="#DejaVuSans-36"/>
       <use x="63.623047" xlink:href="#DejaVuSans-30"/>
      </g>
     </g>
    </g>
    <g id="xtick_5">
     <g id="text_5">
      <!-- 80 -->
      <defs>
       <path d="M 31.78125 34.625 
Q 24.75 34.625 20.71875 30.859375 
Q 16.703125 27.09375 16.703125 20.515625 
Q 16.703125 13.921875 20.71875 10.15625 
Q 24.75 6.390625 31.78125 6.390625 
Q 38.8125 6.390625 42.859375 10.171875 
Q 46.921875 13.96875 46.921875 20.515625 
Q 46.921875 27.09375 42.890625 30.859375 
Q 38.875 34.625 31.78125 34.625 
z
M 21.921875 38.8125 
Q 15.578125 40.375 12.03125 44.71875 
Q 8.5 49.078125 8.5 55.328125 
Q 8.5 64.0625 14.71875 69.140625 
Q 20.953125 74.21875 31.78125 74.21875 
Q 42.671875 74.21875 48.875 69.140625 
Q 55.078125 64.0625 55.078125 55.328125 
Q 55.078125 49.078125 51.53125 44.71875 
Q 48 40.375 41.703125 38.8125 
Q 48.828125 37.15625 52.796875 32.3125 
Q 56.78125 27.484375 56.78125 20.515625 
Q 56.78125 9.90625 50.3125 4.234375 
Q 43.84375 -1.421875 31.78125 -1.421875 
Q 19.734375 -1.421875 13.25 4.234375 
Q 6.78125 9.90625 6.78125 20.515625 
Q 6.78125 27.484375 10.78125 32.3125 
Q 14.796875 37.15625 21.921875 38.8125 
z
M 18.3125 54.390625 
Q 18.3125 48.734375 21.84375 45.5625 
Q 25.390625 42.390625 31.78125 42.390625 
Q 38.140625 42.390625 41.71875 45.5625 
Q 45.3125 48.734375 45.3125 54.390625 
Q 45.3125 60.0625 41.71875 63.234375 
Q 38.140625 66.40625 31.78125 66.40625 
Q 25.390625 66.40625 21.84375 63.234375 
Q 18.3125 60.0625 18.3125 54.390625 
z
" id="DejaVuSans-38"/>
      </defs>
      <g transform="translate(789.982125 315.49441)scale(0.08 -0.08)">
       <use xlink:href="#DejaVuSans-38"/>
       <use x="63.623047" xlink:href="#DejaVuSans-30"/>
      </g>
     </g>
    </g>
    <g id="xtick_6">
     <g id="text_6">
      <!-- 100 -->
      <defs>
       <path d="M 12.40625 8.296875 
L 28.515625 8.296875 
L 28.515625 63.921875 
L 10.984375 60.40625 
L 10.984375 69.390625 
L 28.421875 72.90625 
L 38.28125 72.90625 
L 38.28125 8.296875 
L 54.390625 8.296875 
L 54.390625 0 
L 12.40625 0 
z
" id="DejaVuSans-31"/>
      </defs>
      <g transform="translate(977.963125 315.49441)scale(0.08 -0.08)">
       <use xlink:href="#DejaVuSans-31"/>
       <use x="63.623047" xlink:href="#DejaVuSans-30"/>
       <use x="127.246094" xlink:href="#DejaVuSans-30"/>
      </g>
     </g>
    </g>
    <g id="text_7">
     <!-- % GC -->
     <defs>
      <path d="M 72.703125 32.078125 
Q 68.453125 32.078125 66.03125 28.46875 
Q 63.625 24.859375 63.625 18.40625 
Q 63.625 12.0625 66.03125 8.421875 
Q 68.453125 4.78125 72.703125 4.78125 
Q 76.859375 4.78125 79.265625 8.421875 
Q 81.6875 12.0625 81.6875 18.40625 
Q 81.6875 24.8125 79.265625 28.4375 
Q 76.859375 32.078125 72.703125 32.078125 
z
M 72.703125 38.28125 
Q 80.421875 38.28125 84.953125 32.90625 
Q 89.5 27.546875 89.5 18.40625 
Q 89.5 9.28125 84.9375 3.921875 
Q 80.375 -1.421875 72.703125 -1.421875 
Q 64.890625 -1.421875 60.34375 3.921875 
Q 55.8125 9.28125 55.8125 18.40625 
Q 55.8125 27.59375 60.375 32.9375 
Q 64.9375 38.28125 72.703125 38.28125 
z
M 22.3125 68.015625 
Q 18.109375 68.015625 15.6875 64.375 
Q 13.28125 60.75 13.28125 54.390625 
Q 13.28125 47.953125 15.671875 44.328125 
Q 18.0625 40.71875 22.3125 40.71875 
Q 26.5625 40.71875 28.96875 44.328125 
Q 31.390625 47.953125 31.390625 54.390625 
Q 31.390625 60.6875 28.953125 64.34375 
Q 26.515625 68.015625 22.3125 68.015625 
z
M 66.40625 74.21875 
L 74.21875 74.21875 
L 28.609375 -1.421875 
L 20.796875 -1.421875 
z
M 22.3125 74.21875 
Q 30.03125 74.21875 34.609375 68.875 
Q 39.203125 63.53125 39.203125 54.390625 
Q 39.203125 45.171875 34.640625 39.84375 
Q 30.078125 34.515625 22.3125 34.515625 
Q 14.546875 34.515625 10.03125 39.859375 
Q 5.515625 45.21875 5.515625 54.390625 
Q 5.515625 63.484375 10.046875 68.84375 
Q 14.59375 74.21875 22.3125 74.21875 
z
" id="DejaVuSans-25"/>
      <path id="DejaVuSans-20"/>
      <path d="M 59.515625 10.40625 
L 59.515625 29.984375 
L 43.40625 29.984375 
L 43.40625 38.09375 
L 69.28125 38.09375 
L 69.28125 6.78125 
Q 63.578125 2.734375 56.6875 0.65625 
Q 49.8125 -1.421875 42 -1.421875 
Q 24.90625 -1.421875 15.25 8.5625 
Q 5.609375 18.5625 5.609375 36.375 
Q 5.609375 54.25 15.25 64.234375 
Q 24.90625 74.21875 42 74.21875 
Q 49.125 74.21875 55.546875 72.453125 
Q 61.96875 70.703125 67.390625 67.28125 
L 67.390625 56.78125 
Q 61.921875 61.421875 55.765625 63.765625 
Q 49.609375 66.109375 42.828125 66.109375 
Q 29.4375 66.109375 22.71875 58.640625 
Q 16.015625 51.171875 16.015625 36.375 
Q 16.015625 21.625 22.71875 14.15625 
Q 29.4375 6.6875 42.828125 6.6875 
Q 48.046875 6.6875 52.140625 7.59375 
Q 56.25 8.5 59.515625 10.40625 
z
" id="DejaVuSans-47"/>
      <path d="M 64.40625 67.28125 
L 64.40625 56.890625 
Q 59.421875 61.53125 53.78125 63.8125 
Q 48.140625 66.109375 41.796875 66.109375 
Q 29.296875 66.109375 22.65625 58.46875 
Q 16.015625 50.828125 16.015625 36.375 
Q 16.015625 21.96875 22.65625 14.328125 
Q 29.296875 6.6875 41.796875 6.6875 
Q 48.140625 6.6875 53.78125 8.984375 
Q 59.421875 11.28125 64.40625 15.921875 
L 64.40625 5.609375 
Q 59.234375 2.09375 53.4375 0.328125 
Q 47.65625 -1.421875 41.21875 -1.421875 
Q 24.65625 -1.421875 15.125 8.703125 
Q 5.609375 18.84375 5.609375 36.375 
Q 5.609375 53.953125 15.125 64.078125 
Q 24.65625 74.21875 41.21875 74.21875 
Q 47.75 74.21875 53.53125 72.484375 
Q 59.328125 70.75 64.40625 67.28125 
z
" id="DejaVuSans-43"/>
     </defs>
     <g transform="translate(495.577656 328.756597)scale(0.1 -0.1)">
      <use xlink:href="#DejaVuSans-25"/>
      <use x="95.019531" xlink:href="#DejaVuSans-20"/>
      <use x="126.806641" xlink:href="#DejaVuSans-47"/>
      <use x="204.296875" xlink:href="#DejaVuSans-43"/>
     </g>
    </g>
   </g>
   <g id="matplotlib.axis_2">
    <g id="ytick_1">
     <g id="line2d_1">
      <path clip-path="url(#p3d0a6b3bed)" d="M 32.968125 302.41566 
L 985.598125 302.41566 
" style="fill:none;stroke:#dedede;stroke-linecap:square;"/>
     </g>
     <g id="text_8">
      <!-- 0 -->
      <g transform="translate(20.878125 305.455035)scale(0.08 -0.08)">
       <use xlink:href="#DejaVuSans-30"/>
      </g>
     </g>
    </g>
    <g id="ytick_2">
     <g id="line2d_2">
      <path clip-path="url(#p3d0a6b3bed)" d="M 32.968125 249.322352 
L 985.598125 249.322352 
" style="fill:none;stroke:#dedede;stroke-linecap:square;"/>
     </g>
     <g id="text_9">
      <!-- 1 -->
      <g transform="translate(20.878125 252.361727)scale(0.08 -0.08)">
       <use xlink:href="#DejaVuSans-31"/>
      </g>
     </g>
    </g>
    <g id="ytick_3">
     <g id="line2d_3">
      <path clip-path="url(#p3d0a6b3bed)" d="M 32.968125 196.229044 
L 985.598125 196.229044 
" style="fill:none;stroke:#dedede;stroke-linecap:square;"/>
     </g>
     <g id="text_10">
      <!-- 2 -->
      <g transform="translate(20.878125 199.268419)scale(0.08 -0.08)">
       <use xlink:href="#DejaVuSans-32"/>
      </g>
     </g>
    </g>
    <g id="ytick_4">
     <g id="line2d_4">
      <path clip-path="url(#p3d0a6b3bed)" d="M 32.968125 143.135737 
L 985.598125 143.135737 
" style="fill:none;stroke:#dedede;stroke-linecap:square;"/>
     </g>
     <g id="text_11">
      <!-- 3 -->
      <defs>
       <path d="M 40.578125 39.3125 
Q 47.65625 37.796875 51.625 33 
Q 55.609375 28.21875 55.609375 21.1875 
Q 55.609375 10.40625 48.1875 4.484375 
Q 40.765625 -1.421875 27.09375 -1.421875 
Q 22.515625 -1.421875 17.65625 -0.515625 
Q 12.796875 0.390625 7.625 2.203125 
L 7.625 11.71875 
Q 11.71875 9.328125 16.59375 8.109375 
Q 21.484375 6.890625 26.8125 6.890625 
Q 36.078125 6.890625 40.9375 10.546875 
Q 45.796875 14.203125 45.796875 21.1875 
Q 45.796875 27.640625 41.28125 31.265625 
Q 36.765625 34.90625 28.71875 34.90625 
L 20.21875 34.90625 
L 20.21875 43.015625 
L 29.109375 43.015625 
Q 36.375 43.015625 40.234375 45.921875 
Q 44.09375 48.828125 44.09375 54.296875 
Q 44.09375 59.90625 40.109375 62.90625 
Q 36.140625 65.921875 28.71875 65.921875 
Q 24.65625 65.921875 20.015625 65.03125 
Q 15.375 64.15625 9.8125 62.3125 
L 9.8125 71.09375 
Q 15.4375 72.65625 20.34375 73.4375 
Q 25.25 74.21875 29.59375 74.21875 
Q 40.828125 74.21875 47.359375 69.109375 
Q 53.90625 64.015625 53.90625 55.328125 
Q 53.90625 49.265625 50.4375 45.09375 
Q 46.96875 40.921875 40.578125 39.3125 
z
" id="DejaVuSans-33"/>
      </defs>
      <g transform="translate(20.878125 146.175112)scale(0.08 -0.08)">
       <use xlink:href="#DejaVuSans-33"/>
      </g>
     </g>
    </g>
    <g id="ytick_5">
     <g id="line2d_5">
      <path clip-path="url(#p3d0a6b3bed)" d="M 32.968125 90.042429 
L 985.598125 90.042429 
" style="fill:none;stroke:#dedede;stroke-linecap:square;"/>
     </g>
     <g id="text_12">
      <!-- 4 -->
      <g transform="translate(20.878125 93.081804)scale(0.08 -0.08)">
       <use xlink:href="#DejaVuSans-34"/>
      </g>
     </g>
    </g>
    <g id="ytick_6">
     <g id="line2d_6">
      <path clip-path="url(#p3d0a6b3bed)" d="M 32.968125 36.949121 
L 985.598125 36.949121 
" style="fill:none;stroke:#dedede;stroke-linecap:square;"/>
     </g>
     <g id="text_13">
      <!-- 5 -->
      <defs>
       <path d="M 10.796875 72.90625 
L 49.515625 72.90625 
L 49.515625 64.59375 
L 19.828125 64.59375 
L 19.828125 46.734375 
Q 21.96875 47.46875 24.109375 47.828125 
Q 26.265625 48.1875 28.421875 48.1875 
Q 40.625 48.1875 47.75 41.5 
Q 54.890625 34.8125 54.890625 23.390625 
Q 54.890625 11.625 47.5625 5.09375 
Q 40.234375 -1.421875 26.90625 -1.421875 
Q 22.3125 -1.421875 17.546875 -0.640625 
Q 12.796875 0.140625 7.71875 1.703125 
L 7.71875 11.625 
Q 12.109375 9.234375 16.796875 8.0625 
Q 21.484375 6.890625 26.703125 6.890625 
Q 35.15625 6.890625 40.078125 11.328125 
Q 45.015625 15.765625 45.015625 23.390625 
Q 45.015625 31 40.078125 35.4375 
Q 35.15625 39.890625 26.703125 39.890625 
Q 22.75 39.890625 18.8125 39.015625 
Q 14.890625 38.140625 10.796875 36.28125 
z
" id="DejaVuSans-35"/>
      </defs>
      <g transform="translate(20.878125 39.988496)scale(0.08 -0.08)">
       <use xlink:href="#DejaVuSans-35"/>
      </g>
     </g>
    </g>
    <g id="text_14">
     <!-- Percentage -->
     <defs>
      <path d="M 19.671875 64.796875 
L 19.671875 37.40625 
L 32.078125 37.40625 
Q 38.96875 37.40625 42.71875 40.96875 
Q 46.484375 44.53125 46.484375 51.125 
Q 46.484375 57.671875 42.71875 61.234375 
Q 38.96875 64.796875 32.078125 64.796875 
z
M 9.8125 72.90625 
L 32.078125 72.90625 
Q 44.34375 72.90625 50.609375 67.359375 
Q 56.890625 61.8125 56.890625 51.125 
Q 56.890625 40.328125 50.609375 34.8125 
Q 44.34375 29.296875 32.078125 29.296875 
L 19.671875 29.296875 
L 19.671875 0 
L 9.8125 0 
z
" id="DejaVuSans-50"/>
      <path d="M 56.203125 29.59375 
L 56.203125 25.203125 
L 14.890625 25.203125 
Q 15.484375 15.921875 20.484375 11.0625 
Q 25.484375 6.203125 34.421875 6.203125 
Q 39.59375 6.203125 44.453125 7.46875 
Q 49.3125 8.734375 54.109375 11.28125 
L 54.109375 2.78125 
Q 49.265625 0.734375 44.1875 -0.34375 
Q 39.109375 -1.421875 33.890625 -1.421875 
Q 20.796875 -1.421875 13.15625 6.1875 
Q 5.515625 13.8125 5.515625 26.8125 
Q 5.515625 40.234375 12.765625 48.109375 
Q 20.015625 56 32.328125 56 
Q 43.359375 56 49.78125 48.890625 
Q 56.203125 41.796875 56.203125 29.59375 
z
M 47.21875 32.234375 
Q 47.125 39.59375 43.09375 43.984375 
Q 39.0625 48.390625 32.421875 48.390625 
Q 24.90625 48.390625 20.390625 44.140625 
Q 15.875 39.890625 15.1875 32.171875 
z
" id="DejaVuSans-65"/>
      <path d="M 41.109375 46.296875 
Q 39.59375 47.171875 37.8125 47.578125 
Q 36.03125 48 33.890625 48 
Q 26.265625 48 22.1875 43.046875 
Q 18.109375 38.09375 18.109375 28.8125 
L 18.109375 0 
L 9.078125 0 
L 9.078125 54.6875 
L 18.109375 54.6875 
L 18.109375 46.1875 
Q 20.953125 51.171875 25.484375 53.578125 
Q 30.03125 56 36.53125 56 
Q 37.453125 56 38.578125 55.875 
Q 39.703125 55.765625 41.0625 55.515625 
z
" id="DejaVuSans-72"/>
      <path d="M 48.78125 52.59375 
L 48.78125 44.1875 
Q 44.96875 46.296875 41.140625 47.34375 
Q 37.3125 48.390625 33.40625 48.390625 
Q 24.65625 48.390625 19.8125 42.84375 
Q 14.984375 37.3125 14.984375 27.296875 
Q 14.984375 17.28125 19.8125 11.734375 
Q 24.65625 6.203125 33.40625 6.203125 
Q 37.3125 6.203125 41.140625 7.25 
Q 44.96875 8.296875 48.78125 10.40625 
L 48.78125 2.09375 
Q 45.015625 0.34375 40.984375 -0.53125 
Q 36.96875 -1.421875 32.421875 -1.421875 
Q 20.0625 -1.421875 12.78125 6.34375 
Q 5.515625 14.109375 5.515625 27.296875 
Q 5.515625 40.671875 12.859375 48.328125 
Q 20.21875 56 33.015625 56 
Q 37.15625 56 41.109375 55.140625 
Q 45.0625 54.296875 48.78125 52.59375 
z
" id="DejaVuSans-63"/>
      <path d="M 54.890625 33.015625 
L 54.890625 0 
L 45.90625 0 
L 45.90625 32.71875 
Q 45.90625 40.484375 42.875 44.328125 
Q 39.84375 48.1875 33.796875 48.1875 
Q 26.515625 48.1875 22.3125 43.546875 
Q 18.109375 38.921875 18.109375 30.90625 
L 18.109375 0 
L 9.078125 0 
L 9.078125 54.6875 
L 18.109375 54.6875 
L 18.109375 46.1875 
Q 21.34375 51.125 25.703125 53.5625 
Q 30.078125 56 35.796875 56 
Q 45.21875 56 50.046875 50.171875 
Q 54.890625 44.34375 54.890625 33.015625 
z
" id="DejaVuSans-6e"/>
      <path d="M 18.3125 70.21875 
L 18.3125 54.6875 
L 36.8125 54.6875 
L 36.8125 47.703125 
L 18.3125 47.703125 
L 18.3125 18.015625 
Q 18.3125 11.328125 20.140625 9.421875 
Q 21.96875 7.515625 27.59375 7.515625 
L 36.8125 7.515625 
L 36.8125 0 
L 27.59375 0 
Q 17.1875 0 13.234375 3.875 
Q 9.28125 7.765625 9.28125 18.015625 
L 9.28125 47.703125 
L 2.6875 47.703125 
L 2.6875 54.6875 
L 9.28125 54.6875 
L 9.28125 70.21875 
z
" id="DejaVuSans-74"/>
      <path d="M 34.28125 27.484375 
Q 23.390625 27.484375 19.1875 25 
Q 14.984375 22.515625 14.984375 16.5 
Q 14.984375 11.71875 18.140625 8.90625 
Q 21.296875 6.109375 26.703125 6.109375 
Q 34.1875 6.109375 38.703125 11.40625 
Q 43.21875 16.703125 43.21875 25.484375 
L 43.21875 27.484375 
z
M 52.203125 31.203125 
L 52.203125 0 
L 43.21875 0 
L 43.21875 8.296875 
Q 40.140625 3.328125 35.546875 0.953125 
Q 30.953125 -1.421875 24.3125 -1.421875 
Q 15.921875 -1.421875 10.953125 3.296875 
Q 6 8.015625 6 15.921875 
Q 6 25.140625 12.171875 29.828125 
Q 18.359375 34.515625 30.609375 34.515625 
L 43.21875 34.515625 
L 43.21875 35.40625 
Q 43.21875 41.609375 39.140625 45 
Q 35.0625 48.390625 27.6875 48.390625 
Q 23 48.390625 18.546875 47.265625 
Q 14.109375 46.140625 10.015625 43.890625 
L 10.015625 52.203125 
Q 14.9375 54.109375 19.578125 55.046875 
Q 24.21875 56 28.609375 56 
Q 40.484375 56 46.34375 49.84375 
Q 52.203125 43.703125 52.203125 31.203125 
z
" id="DejaVuSans-61"/>
      <path d="M 45.40625 27.984375 
Q 45.40625 37.75 41.375 43.109375 
Q 37.359375 48.484375 30.078125 48.484375 
Q 22.859375 48.484375 18.828125 43.109375 
Q 14.796875 37.75 14.796875 27.984375 
Q 14.796875 18.265625 18.828125 12.890625 
Q 22.859375 7.515625 30.078125 7.515625 
Q 37.359375 7.515625 41.375 12.890625 
Q 45.40625 18.265625 45.40625 27.984375 
z
M 54.390625 6.78125 
Q 54.390625 -7.171875 48.1875 -13.984375 
Q 42 -20.796875 29.203125 -20.796875 
Q 24.46875 -20.796875 20.265625 -20.09375 
Q 16.0625 -19.390625 12.109375 -17.921875 
L 12.109375 -9.1875 
Q 16.0625 -11.328125 19.921875 -12.34375 
Q 23.78125 -13.375 27.78125 -13.375 
Q 36.625 -13.375 41.015625 -8.765625 
Q 45.40625 -4.15625 45.40625 5.171875 
L 45.40625 9.625 
Q 42.625 4.78125 38.28125 2.390625 
Q 33.9375 0 27.875 0 
Q 17.828125 0 11.671875 7.65625 
Q 5.515625 15.328125 5.515625 27.984375 
Q 5.515625 40.671875 11.671875 48.328125 
Q 17.828125 56 27.875 56 
Q 33.9375 56 38.28125 53.609375 
Q 42.625 51.21875 45.40625 46.390625 
L 45.40625 54.6875 
L 54.390625 54.6875 
z
" id="DejaVuSans-67"/>
     </defs>
     <g transform="translate(14.798437 196.03856)rotate(-90)scale(0.1 -0.1)">
      <use xlink:href="#DejaVuSans-50"/>
      <use x="60.255859" xlink:href="#DejaVuSans-65"/>
      <use x="121.779297" xlink:href="#DejaVuSans-72"/>
      <use x="162.861328" xlink:href="#DejaVuSans-63"/>
      <use x="217.841797" xlink:href="#DejaVuSans-65"/>
      <use x="279.365234" xlink:href="#DejaVuSans-6e"/>
      <use x="342.744141" xlink:href="#DejaVuSans-74"/>
      <use x="381.953125" xlink:href="#DejaVuSans-61"/>
      <use x="443.232422" xlink:href="#DejaVuSans-67"/>
      <use x="506.708984" xlink:href="#DejaVuSans-65"/>
     </g>
    </g>
   </g>
   <g id="line2d_7">
    <path clip-path="url(#p3d0a6b3bed)" d="M 32.968125 302.41358 
L 42.494425 302.41358 
L 52.020725 302.41332 
L 61.547025 302.413059 
L 71.073325 302.413059 
L 80.599625 302.413059 
L 90.125925 302.410429 
L 99.652225 302.4078 
L 109.178525 302.4078 
L 118.704825 302.4078 
L 128.231125 302.404021 
L 137.757425 302.400243 
L 147.283725 302.400243 
L 156.810025 302.388526 
L 166.336325 302.376808 
L 175.862625 302.376808 
L 185.388925 302.376808 
L 194.915225 302.343916 
L 204.441525 302.311023 
L 213.967825 302.311023 
L 223.494125 302.311023 
L 233.020425 302.060353 
L 242.546725 301.809683 
L 252.073025 301.809683 
L 261.599325 301.809683 
L 271.125625 300.364356 
L 280.651925 298.919029 
L 290.178225 298.919029 
L 299.704525 298.919029 
L 309.230825 293.527544 
L 318.757125 288.136059 
L 328.283425 288.136059 
L 337.809725 288.136059 
L 347.336025 274.369952 
L 356.862325 260.603845 
L 366.388625 260.603845 
L 375.914925 260.603845 
L 385.441225 235.042888 
L 394.967525 209.481931 
L 404.493825 209.481931 
L 414.020125 175.46484 
L 423.546425 141.447748 
L 433.072725 141.447748 
L 442.599025 141.447748 
L 452.125325 110.328768 
L 461.651625 79.209787 
L 471.177925 79.209787 
L 480.704225 79.209787 
L 490.230525 65.080444 
L 499.756825 50.951101 
L 509.283125 50.951101 
L 518.809425 50.951101 
L 528.335725 60.86343 
L 537.862025 70.775759 
L 547.388325 70.775759 
L 556.914625 70.775759 
L 566.440925 99.436246 
L 575.967225 128.096733 
L 585.493525 128.096733 
L 595.019825 128.096733 
L 604.546125 162.280742 
L 614.072425 196.464752 
L 623.598725 196.464752 
L 633.125025 223.908 
L 642.651325 251.351249 
L 652.177625 251.351249 
L 661.703925 251.351249 
L 671.230225 267.404524 
L 680.756525 283.457799 
L 690.282825 283.457799 
L 699.809125 283.457799 
L 709.335425 290.367885 
L 718.861725 297.277971 
L 728.388025 297.277971 
L 737.914325 297.277971 
L 747.440625 299.383309 
L 756.966925 301.488646 
L 766.493225 301.488646 
L 776.019525 301.488646 
L 785.545825 301.898391 
L 795.072125 302.308135 
L 804.598425 302.308135 
L 814.124725 302.308135 
L 823.651025 302.356067 
L 833.177325 302.403999 
L 842.703625 302.403999 
L 852.229925 302.403999 
L 861.756225 302.408056 
L 871.282525 302.412113 
L 880.808825 302.412113 
L 890.335125 302.413214 
L 899.861425 302.414314 
L 909.387725 302.414314 
L 918.914025 302.414314 
L 928.440325 302.414668 
L 937.966625 302.415022 
L 947.492925 302.415022 
L 957.019225 302.415022 
L 966.545525 302.415018 
L 976.071825 302.415014 
L 985.598125 302.415014 
" style="fill:none;stroke:#5cb85c;stroke-linecap:square;"/>
   </g>
   <g id="line2d_8">
    <path clip-path="url(#p3d0a6b3bed)" d="M 32.968125 302.413993 
L 42.494425 302.413993 
L 52.020725 302.413572 
L 61.547025 302.413151 
L 71.073325 302.413151 
L 80.599625 302.413151 
L 90.125925 302.411449 
L 99.652225 302.409747 
L 109.178525 302.409747 
L 118.704825 302.409747 
L 128.231125 302.405706 
L 137.757425 302.401665 
L 147.283725 302.401665 
L 156.810025 302.392678 
L 166.336325 302.38369 
L 175.862625 302.38369 
L 185.388925 302.38369 
L 194.915225 302.351579 
L 204.441525 302.319468 
L 213.967825 302.319468 
L 223.494125 302.319468 
L 233.020425 302.078792 
L 242.546725 301.838116 
L 252.073025 301.838116 
L 261.599325 301.838116 
L 271.125625 300.416641 
L 280.651925 298.995165 
L 290.178225 298.995165 
L 299.704525 298.995165 
L 309.230825 293.638437 
L 318.757125 288.281708 
L 328.283425 288.281708 
L 337.809725 288.281708 
L 347.336025 274.639531 
L 356.862325 260.997353 
L 366.388625 260.997353 
L 375.914925 260.997353 
L 385.441225 235.796413 
L 394.967525 210.595472 
L 404.493825 210.595472 
L 414.020125 176.958415 
L 423.546425 143.321357 
L 433.072725 143.321357 
L 442.599025 143.321357 
L 452.125325 112.074675 
L 461.651625 80.827994 
L 471.177925 80.827994 
L 480.704225 80.827994 
L 490.230525 65.781041 
L 499.756825 50.734089 
L 509.283125 50.734089 
L 518.809425 50.734089 
L 528.335725 59.98057 
L 537.862025 69.227052 
L 547.388325 69.227052 
L 556.914625 69.227052 
L 566.440925 97.756474 
L 575.967225 126.285897 
L 585.493525 126.285897 
L 595.019825 126.285897 
L 604.546125 160.693016 
L 614.072425 195.100135 
L 623.598725 195.100135 
L 633.125025 222.962072 
L 642.651325 250.824009 
L 652.177625 250.824009 
L 661.703925 250.824009 
L 671.230225 267.137151 
L 680.756525 283.450293 
L 690.282825 283.450293 
L 699.809125 283.450293 
L 709.335425 290.398045 
L 718.861725 297.345796 
L 728.388025 297.345796 
L 737.914325 297.345796 
L 747.440625 299.444829 
L 756.966925 301.543862 
L 766.493225 301.543862 
L 776.019525 301.543862 
L 785.545825 301.93537 
L 795.072125 302.326878 
L 804.598425 302.326878 
L 814.124725 302.326878 
L 823.651025 302.366635 
L 833.177325 302.406392 
L 842.703625 302.406392 
L 852.229925 302.406392 
L 861.756225 302.409666 
L 871.282525 302.41294 
L 880.808825 302.41294 
L 890.335125 302.413684 
L 899.861425 302.414428 
L 909.387725 302.414428 
L 918.914025 302.414428 
L 928.440325 302.414845 
L 937.966625 302.415262 
L 947.492925 302.415262 
L 957.019225 302.415262 
L 966.545525 302.415318 
L 976.071825 302.415374 
L 985.598125 302.415374 
" style="fill:none;stroke:#5cb85c;stroke-linecap:square;"/>
   </g>
   <g id="line2d_9">
    <path clip-path="url(#p3d0a6b3bed)" d="M 32.968125 302.412757 
L 42.494425 302.412757 
L 52.020725 302.412389 
L 61.547025 302.412021 
L 71.073325 302.412021 
L 80.599625 302.412021 
L 90.125925 302.410348 
L 99.652225 302.408674 
L 109.178525 302.408674 
L 118.704825 302.408674 
L 128.231125 302.405058 
L 137.757425 302.401442 
L 147.283725 302.401442 
L 156.810025 302.39114 
L 166.336325 302.380837 
L 175.862625 302.380837 
L 185.388925 302.380837 
L 194.915225 302.352685 
L 204.441525 302.324532 
L 213.967825 302.324532 
L 223.494125 302.324532 
L 233.020425 302.114028 
L 242.546725 301.903523 
L 252.073025 301.903523 
L 261.599325 301.903523 
L 271.125625 300.565425 
L 280.651925 299.227326 
L 290.178225 299.227326 
L 299.704525 299.227326 
L 309.230825 294.024285 
L 318.757125 288.821244 
L 328.283425 288.821244 
L 337.809725 288.821244 
L 347.336025 275.048567 
L 356.862325 261.275891 
L 366.388625 261.275891 
L 375.914925 261.275891 
L 385.441225 235.881519 
L 394.967525 210.487147 
L 404.493825 210.487147 
L 414.020125 176.159463 
L 423.546425 141.831778 
L 433.072725 141.831778 
L 442.599025 141.831778 
L 452.125325 110.22046 
L 461.651625 78.609142 
L 471.177925 78.609142 
L 480.704225 78.609142 
L 490.230525 64.115251 
L 499.756825 49.62136 
L 509.283125 49.62136 
L 518.809425 49.62136 
L 528.335725 59.524332 
L 537.862025 69.427304 
L 547.388325 69.427304 
L 556.914625 69.427304 
L 566.440925 98.597727 
L 575.967225 127.768149 
L 585.493525 127.768149 
L 595.019825 127.768149 
L 604.546125 162.140556 
L 614.072425 196.512963 
L 623.598725 196.512963 
L 633.125025 224.054519 
L 642.651325 251.596075 
L 652.177625 251.596075 
L 661.703925 251.596075 
L 671.230225 267.644508 
L 680.756525 283.692941 
L 690.282825 283.692941 
L 699.809125 283.692941 
L 709.335425 290.552846 
L 718.861725 297.41275 
L 728.388025 297.41275 
L 737.914325 297.41275 
L 747.440625 299.464929 
L 756.966925 301.517109 
L 766.493225 301.517109 
L 776.019525 301.517109 
L 785.545825 301.917332 
L 795.072125 302.317556 
L 804.598425 302.317556 
L 814.124725 302.317556 
L 823.651025 302.361901 
L 833.177325 302.406247 
L 842.703625 302.406247 
L 852.229925 302.406247 
L 861.756225 302.409589 
L 871.282525 302.412931 
L 880.808825 302.412931 
L 890.335125 302.413756 
L 899.861425 302.414581 
L 909.387725 302.414581 
L 918.914025 302.414581 
L 928.440325 302.414926 
L 937.966625 302.415271 
L 947.492925 302.415271 
L 957.019225 302.415271 
L 966.545525 302.415294 
L 976.071825 302.415317 
L 985.598125 302.415317 
" style="fill:none;stroke:#5cb85c;stroke-linecap:square;"/>
   </g>
   <g id="line2d_10">
    <path clip-path="url(#p3d0a6b3bed)" d="M 32.968125 302.414478 
L 42.494425 302.414478 
L 52.020725 302.414248 
L 61.547025 302.414018 
L 71.073325 302.414018 
L 80.599625 302.414018 
L 90.125925 302.411733 
L 99.652225 302.409449 
L 109.178525 302.409449 
L 118.704825 302.409449 
L 128.231125 302.406398 
L 137.757425 302.403348 
L 147.283725 302.403348 
L 156.810025 302.393106 
L 166.336325 302.382864 
L 175.862625 302.382864 
L 185.388925 302.382864 
L 194.915225 302.357757 
L 204.441525 302.332651 
L 213.967825 302.332651 
L 223.494125 302.332651 
L 233.020425 302.14945 
L 242.546725 301.966249 
L 252.073025 301.966249 
L 261.599325 301.966249 
L 271.125625 300.857357 
L 280.651925 299.748464 
L 290.178225 299.748464 
L 299.704525 299.748464 
L 309.230825 295.261604 
L 318.757125 290.774744 
L 328.283425 290.774744 
L 337.809725 290.774744 
L 347.336025 278.390408 
L 356.862325 266.006071 
L 366.388625 266.006071 
L 375.914925 266.006071 
L 385.441225 241.741838 
L 394.967525 217.477605 
L 404.493825 217.477605 
L 414.020125 183.377326 
L 423.546425 149.277048 
L 433.072725 149.277048 
L 442.599025 149.277048 
L 452.125325 115.984045 
L 461.651625 82.691043 
L 471.177925 82.691043 
L 480.704225 82.691043 
L 490.230525 64.182302 
L 499.756825 45.67356 
L 509.283125 45.67356 
L 518.809425 45.67356 
L 528.335725 54.527473 
L 537.862025 63.381387 
L 547.388325 63.381387 
L 556.914625 63.381387 
L 566.440925 92.165858 
L 575.967225 120.95033 
L 585.493525 120.95033 
L 595.019825 120.95033 
L 604.546125 156.261691 
L 614.072425 191.573053 
L 623.598725 191.573053 
L 633.125025 220.315451 
L 642.651325 249.057848 
L 652.177625 249.057848 
L 661.703925 249.057848 
L 671.230225 265.96968 
L 680.756525 282.881511 
L 690.282825 282.881511 
L 699.809125 282.881511 
L 709.335425 290.054659 
L 718.861725 297.227807 
L 728.388025 297.227807 
L 737.914325 297.227807 
L 747.440625 299.368854 
L 756.966925 301.509901 
L 766.493225 301.509901 
L 776.019525 301.509901 
L 785.545825 301.913998 
L 795.072125 302.318094 
L 804.598425 302.318094 
L 814.124725 302.318094 
L 823.651025 302.363931 
L 833.177325 302.409767 
L 842.703625 302.409767 
L 852.229925 302.409767 
L 861.756225 302.41207 
L 871.282525 302.414372 
L 880.808825 302.414372 
L 890.335125 302.41483 
L 899.861425 302.415288 
L 909.387725 302.415288 
L 918.914025 302.415288 
L 928.440325 302.415343 
L 937.966625 302.415399 
L 947.492925 302.415399 
L 957.019225 302.415399 
L 966.545525 302.414817 
L 976.071825 302.414234 
L 985.598125 302.414234 
" style="fill:none;stroke:#5cb85c;stroke-linecap:square;"/>
   </g>
   <g id="line2d_11">
    <path clip-path="url(#p3d0a6b3bed)" d="M 32.968125 302.410102 
L 42.494425 302.410102 
L 52.020725 302.409474 
L 61.547025 302.408846 
L 71.073325 302.408846 
L 80.599625 302.408846 
L 90.125925 302.406144 
L 99.652225 302.403441 
L 109.178525 302.403441 
L 118.704825 302.403441 
L 128.231125 302.394468 
L 137.757425 302.385494 
L 147.283725 302.385494 
L 156.810025 302.36706 
L 166.336325 302.348625 
L 175.862625 302.348625 
L 185.388925 302.348625 
L 194.915225 302.300623 
L 204.441525 302.252621 
L 213.967825 302.252621 
L 223.494125 302.252621 
L 233.020425 301.989447 
L 242.546725 301.726273 
L 252.073025 301.726273 
L 261.599325 301.726273 
L 271.125625 300.285942 
L 280.651925 298.845611 
L 290.178225 298.845611 
L 299.704525 298.845611 
L 309.230825 293.427249 
L 318.757125 288.008887 
L 328.283425 288.008887 
L 337.809725 288.008887 
L 347.336025 273.957112 
L 356.862325 259.905338 
L 366.388625 259.905338 
L 375.914925 259.905338 
L 385.441225 234.226157 
L 394.967525 208.546977 
L 404.493825 208.546977 
L 414.020125 174.418334 
L 423.546425 140.28969 
L 433.072725 140.28969 
L 442.599025 140.28969 
L 452.125325 109.163424 
L 461.651625 78.037159 
L 471.177925 78.037159 
L 480.704225 78.037159 
L 490.230525 64.298898 
L 499.756825 50.560637 
L 509.283125 50.560637 
L 518.809425 50.560637 
L 528.335725 61.385259 
L 537.862025 72.209881 
L 547.388325 72.209881 
L 556.914625 72.209881 
L 566.440925 101.164309 
L 575.967225 130.118738 
L 585.493525 130.118738 
L 595.019825 130.118738 
L 604.546125 163.931462 
L 614.072425 197.744186 
L 623.598725 197.744186 
L 633.125025 224.75862 
L 642.651325 251.773054 
L 652.177625 251.773054 
L 661.703925 251.773054 
L 671.230225 267.577034 
L 680.756525 283.381013 
L 690.282825 283.381013 
L 699.809125 283.381013 
L 709.335425 290.262511 
L 718.861725 297.144009 
L 728.388025 297.144009 
L 737.914325 297.144009 
L 747.440625 299.282906 
L 756.966925 301.421803 
L 766.493225 301.421803 
L 776.019525 301.421803 
L 785.545825 301.849596 
L 795.072125 302.27739 
L 804.598425 302.27739 
L 814.124725 302.27739 
L 823.651025 302.335413 
L 833.177325 302.393437 
L 842.703625 302.393437 
L 852.229925 302.393437 
L 861.756225 302.40046 
L 871.282525 302.407484 
L 880.808825 302.407484 
L 890.335125 302.410142 
L 899.861425 302.4128 
L 909.387725 302.4128 
L 918.914025 302.4128 
L 928.440325 302.413715 
L 937.966625 302.414629 
L 947.492925 302.414629 
L 957.019225 302.414629 
L 966.545525 302.41485 
L 976.071825 302.41507 
L 985.598125 302.41507 
" style="fill:none;stroke:#5cb85c;stroke-linecap:square;"/>
   </g>
   <g id="line2d_12">
    <path clip-path="url(#p3d0a6b3bed)" d="M 32.968125 302.412812 
L 42.494425 302.412812 
L 52.020725 302.411847 
L 61.547025 302.410882 
L 71.073325 302.410882 
L 80.599625 302.410882 
L 90.125925 302.408448 
L 99.652225 302.406014 
L 109.178525 302.406014 
L 118.704825 302.406014 
L 128.231125 302.398563 
L 137.757425 302.391112 
L 147.283725 302.391112 
L 156.810025 302.374119 
L 166.336325 302.357126 
L 175.862625 302.357126 
L 185.388925 302.357126 
L 194.915225 302.313113 
L 204.441525 302.2691 
L 213.967825 302.2691 
L 223.494125 302.2691 
L 233.020425 301.999772 
L 242.546725 301.730444 
L 252.073025 301.730444 
L 261.599325 301.730444 
L 271.125625 300.2314 
L 280.651925 298.732355 
L 290.178225 298.732355 
L 299.704525 298.732355 
L 309.230825 293.183132 
L 318.757125 287.633909 
L 328.283425 287.633909 
L 337.809725 287.633909 
L 347.336025 273.497707 
L 356.862325 259.361505 
L 366.388625 259.361505 
L 375.914925 259.361505 
L 385.441225 233.696665 
L 394.967525 208.031825 
L 404.493825 208.031825 
L 414.020125 174.228481 
L 423.546425 140.425136 
L 433.072725 140.425136 
L 442.599025 140.425136 
L 452.125325 109.747887 
L 461.651625 79.070638 
L 471.177925 79.070638 
L 480.704225 79.070638 
L 490.230525 65.428567 
L 499.756825 51.786496 
L 509.283125 51.786496 
L 518.809425 51.786496 
L 528.335725 62.291314 
L 537.862025 72.796133 
L 547.388325 72.796133 
L 556.914625 72.796133 
L 566.440925 101.371905 
L 575.967225 129.947678 
L 585.493525 129.947678 
L 595.019825 129.947678 
L 604.546125 163.529868 
L 614.072425 197.112059 
L 623.598725 197.112059 
L 633.125025 224.129233 
L 642.651325 251.146406 
L 652.177625 251.146406 
L 661.703925 251.146406 
L 671.230225 267.119145 
L 680.756525 283.091885 
L 690.282825 283.091885 
L 699.809125 283.091885 
L 709.335425 290.075047 
L 718.861725 297.05821 
L 728.388025 297.05821 
L 737.914325 297.05821 
L 747.440625 299.245369 
L 756.966925 301.432528 
L 766.493225 301.432528 
L 776.019525 301.432528 
L 785.545825 301.865397 
L 795.072125 302.298265 
L 804.598425 302.298265 
L 814.124725 302.298265 
L 823.651025 302.35011 
L 833.177325 302.401955 
L 842.703625 302.401955 
L 852.229925 302.401955 
L 861.756225 302.406317 
L 871.282525 302.410678 
L 880.808825 302.410678 
L 890.335125 302.412346 
L 899.861425 302.414014 
L 909.387725 302.414014 
L 918.914025 302.414014 
L 928.440325 302.414621 
L 937.966625 302.415228 
L 947.492925 302.415228 
L 957.019225 302.415228 
L 966.545525 302.415254 
L 976.071825 302.415279 
L 985.598125 302.415279 
" style="fill:none;stroke:#5cb85c;stroke-linecap:square;"/>
   </g>
   <g id="line2d_13">
    <path clip-path="url(#p3d0a6b3bed)" d="M 32.968125 302.413367 
L 42.494425 302.413367 
L 52.020725 302.41262 
L 61.547025 302.411873 
L 71.073325 302.411873 
L 80.599625 302.411873 
L 90.125925 302.409718 
L 99.652225 302.407563 
L 109.178525 302.407563 
L 118.704825 302.407563 
L 128.231125 302.403294 
L 137.757425 302.399025 
L 147.283725 302.399025 
L 156.810025 302.385509 
L 166.336325 302.371992 
L 175.862625 302.371992 
L 185.388925 302.371992 
L 194.915225 302.336158 
L 204.441525 302.300323 
L 213.967825 302.300323 
L 223.494125 302.300323 
L 233.020425 302.034501 
L 242.546725 301.768679 
L 252.073025 301.768679 
L 261.599325 301.768679 
L 271.125625 300.191386 
L 280.651925 298.614093 
L 290.178225 298.614093 
L 299.704525 298.614093 
L 309.230825 292.869053 
L 318.757125 287.124014 
L 328.283425 287.124014 
L 337.809725 287.124014 
L 347.336025 272.885827 
L 356.862325 258.64764 
L 366.388625 258.64764 
L 375.914925 258.64764 
L 385.441225 233.116418 
L 394.967525 207.585197 
L 404.493825 207.585197 
L 414.020125 174.156717 
L 423.546425 140.728237 
L 433.072725 140.728237 
L 442.599025 140.728237 
L 452.125325 110.379365 
L 461.651625 80.030493 
L 471.177925 80.030493 
L 480.704225 80.030493 
L 490.230525 66.246817 
L 499.756825 52.463141 
L 509.283125 52.463141 
L 518.809425 52.463141 
L 528.335725 62.389418 
L 537.862025 72.315695 
L 547.388325 72.315695 
L 556.914625 72.315695 
L 566.440925 100.845135 
L 575.967225 129.374575 
L 585.493525 129.374575 
L 595.019825 129.374575 
L 604.546125 163.219799 
L 614.072425 197.065024 
L 623.598725 197.065024 
L 633.125025 224.206526 
L 642.651325 251.348029 
L 652.177625 251.348029 
L 661.703925 251.348029 
L 671.230225 267.358636 
L 680.756525 283.369244 
L 690.282825 283.369244 
L 699.809125 283.369244 
L 709.335425 290.304134 
L 718.861725 297.239024 
L 728.388025 297.239024 
L 737.914325 297.239024 
L 747.440625 299.359759 
L 756.966925 301.480493 
L 766.493225 301.480493 
L 776.019525 301.480493 
L 785.545825 301.897641 
L 795.072125 302.314789 
L 804.598425 302.314789 
L 814.124725 302.314789 
L 823.651025 302.361501 
L 833.177325 302.408213 
L 842.703625 302.408213 
L 852.229925 302.408213 
L 861.756225 302.410612 
L 871.282525 302.413011 
L 880.808825 302.413011 
L 890.335125 302.413881 
L 899.861425 302.414751 
L 909.387725 302.414751 
L 918.914025 302.414751 
L 928.440325 302.414987 
L 937.966625 302.415223 
L 947.492925 302.415223 
L 957.019225 302.415223 
L 966.545525 302.415282 
L 976.071825 302.415342 
L 985.598125 302.415342 
" style="fill:none;stroke:#5cb85c;stroke-linecap:square;"/>
   </g>
   <g id="line2d_14">
    <path clip-path="url(#p3d0a6b3bed)" d="M 32.968125 302.414619 
L 42.494425 302.414619 
L 52.020725 302.414461 
L 61.547025 302.414304 
L 71.073325 302.414304 
L 80.599625 302.414304 
L 90.125925 302.410766 
L 99.652225 302.407228 
L 109.178525 302.407228 
L 118.704825 302.407228 
L 128.231125 302.401119 
L 137.757425 302.395011 
L 147.283725 302.395011 
L 156.810025 302.382617 
L 166.336325 302.370223 
L 175.862625 302.370223 
L 185.388925 302.370223 
L 194.915225 302.328674 
L 204.441525 302.287125 
L 213.967825 302.287125 
L 223.494125 302.287125 
L 233.020425 302.060383 
L 242.546725 301.83364 
L 252.073025 301.83364 
L 261.599325 301.83364 
L 271.125625 300.268841 
L 280.651925 298.704042 
L 290.178225 298.704042 
L 299.704525 298.704042 
L 309.230825 292.431925 
L 318.757125 286.159808 
L 328.283425 286.159808 
L 337.809725 286.159808 
L 347.336025 270.11798 
L 356.862325 254.076151 
L 366.388625 254.076151 
L 375.914925 254.076151 
L 385.441225 226.454102 
L 394.967525 198.832053 
L 404.493825 198.832053 
L 414.020125 165.230294 
L 423.546425 131.628535 
L 433.072725 131.628535 
L 442.599025 131.628535 
L 452.125325 104.484941 
L 461.651625 77.341348 
L 471.177925 77.341348 
L 480.704225 77.341348 
L 490.230525 67.760821 
L 499.756825 58.180294 
L 509.283125 58.180294 
L 518.809425 58.180294 
L 528.335725 70.31982 
L 537.862025 82.459345 
L 547.388325 82.459345 
L 556.914625 82.459345 
L 566.440925 109.459439 
L 575.967225 136.459533 
L 585.493525 136.459533 
L 595.019825 136.459533 
L 604.546125 167.990656 
L 614.072425 199.521778 
L 623.598725 199.521778 
L 633.125025 225.464951 
L 642.651325 251.408123 
L 652.177625 251.408123 
L 661.703925 251.408123 
L 671.230225 267.04495 
L 680.756525 282.681777 
L 690.282825 282.681777 
L 699.809125 282.681777 
L 709.335425 289.784138 
L 718.861725 296.886498 
L 728.388025 296.886498 
L 737.914325 296.886498 
L 747.440625 299.153954 
L 756.966925 301.421409 
L 766.493225 301.421409 
L 776.019525 301.421409 
L 785.545825 301.869196 
L 795.072125 302.316984 
L 804.598425 302.316984 
L 814.124725 302.316984 
L 823.651025 302.362148 
L 833.177325 302.407312 
L 842.703625 302.407312 
L 852.229925 302.407312 
L 861.756225 302.410506 
L 871.282525 302.4137 
L 880.808825 302.4137 
L 890.335125 302.414214 
L 899.861425 302.414728 
L 909.387725 302.414728 
L 918.914025 302.414728 
L 928.440325 302.414857 
L 937.966625 302.414985 
L 947.492925 302.414985 
L 957.019225 302.414985 
L 966.545525 302.414121 
L 976.071825 302.413256 
L 985.598125 302.413256 
" style="fill:none;stroke:#5cb85c;stroke-linecap:square;"/>
   </g>
   <g id="line2d_15">
    <path clip-path="url(#p3d0a6b3bed)" d="M 32.968125 302.413958 
L 42.494425 302.413958 
L 52.020725 302.411762 
L 61.547025 302.409565 
L 71.073325 302.409565 
L 80.599625 302.409565 
L 90.125925 302.407291 
L 99.652225 302.405017 
L 109.178525 302.405017 
L 118.704825 302.405017 
L 128.231125 302.399678 
L 137.757425 302.394339 
L 147.283725 302.394339 
L 156.810025 302.383389 
L 166.336325 302.37244 
L 175.862625 302.37244 
L 185.388925 302.37244 
L 194.915225 302.329087 
L 204.441525 302.285733 
L 213.967825 302.285733 
L 223.494125 302.285733 
L 233.020425 301.978332 
L 242.546725 301.670931 
L 252.073025 301.670931 
L 261.599325 301.670931 
L 271.125625 299.983408 
L 280.651925 298.295885 
L 290.178225 298.295885 
L 299.704525 298.295885 
L 309.230825 292.207215 
L 318.757125 286.118544 
L 328.283425 286.118544 
L 337.809725 286.118544 
L 347.336025 271.475606 
L 356.862325 256.832668 
L 366.388625 256.832668 
L 375.914925 256.832668 
L 385.441225 231.165282 
L 394.967525 205.497895 
L 404.493825 205.497895 
L 414.020125 171.888785 
L 423.546425 138.279674 
L 433.072725 138.279674 
L 442.599025 138.279674 
L 452.125325 108.022673 
L 461.651625 77.765673 
L 471.177925 77.765673 
L 480.704225 77.765673 
L 490.230525 62.057241 
L 499.756825 46.348809 
L 509.283125 46.348809 
L 518.809425 46.348809 
L 528.335725 60.780714 
L 537.862025 75.212619 
L 547.388325 75.212619 
L 556.914625 75.212619 
L 566.440925 104.510278 
L 575.967225 133.807937 
L 585.493525 133.807937 
L 595.019825 133.807937 
L 604.546125 167.702151 
L 614.072425 201.596365 
L 623.598725 201.596365 
L 633.125025 227.810465 
L 642.651325 254.024565 
L 652.177625 254.024565 
L 661.703925 254.024565 
L 671.230225 269.513811 
L 680.756525 285.003057 
L 690.282825 285.003057 
L 699.809125 285.003057 
L 709.335425 291.364265 
L 718.861725 297.725473 
L 728.388025 297.725473 
L 737.914325 297.725473 
L 747.440625 299.655795 
L 756.966925 301.586117 
L 766.493225 301.586117 
L 776.019525 301.586117 
L 785.545825 301.958271 
L 795.072125 302.330424 
L 804.598425 302.330424 
L 814.124725 302.330424 
L 823.651025 302.371012 
L 833.177325 302.411599 
L 842.703625 302.411599 
L 852.229925 302.411599 
L 861.756225 302.413127 
L 871.282525 302.414656 
L 880.808825 302.414656 
L 890.335125 302.414894 
L 899.861425 302.415133 
L 909.387725 302.415133 
L 918.914025 302.415133 
L 928.440325 302.415135 
L 937.966625 302.415138 
L 947.492925 302.415138 
L 957.019225 302.415138 
L 966.545525 302.415211 
L 976.071825 302.415283 
L 985.598125 302.415283 
" style="fill:none;stroke:#5cb85c;stroke-linecap:square;"/>
   </g>
   <g id="line2d_16">
    <path clip-path="url(#p3d0a6b3bed)" d="M 32.968125 302.41216 
L 42.494425 302.41216 
L 52.020725 302.411347 
L 61.547025 302.410533 
L 71.073325 302.410533 
L 80.599625 302.410533 
L 90.125925 302.409094 
L 99.652225 302.407656 
L 109.178525 302.407656 
L 118.704825 302.407656 
L 128.231125 302.4025 
L 137.757425 302.397345 
L 147.283725 302.397345 
L 156.810025 302.38467 
L 166.336325 302.371995 
L 175.862625 302.371995 
L 185.388925 302.371995 
L 194.915225 302.336706 
L 204.441525 302.301418 
L 213.967825 302.301418 
L 223.494125 302.301418 
L 233.020425 302.07277 
L 242.546725 301.844121 
L 252.073025 301.844121 
L 261.599325 301.844121 
L 271.125625 300.475586 
L 280.651925 299.107051 
L 290.178225 299.107051 
L 299.704525 299.107051 
L 309.230825 293.805036 
L 318.757125 288.503022 
L 328.283425 288.503022 
L 337.809725 288.503022 
L 347.336025 274.637211 
L 356.862325 260.7714 
L 366.388625 260.7714 
L 375.914925 260.7714 
L 385.441225 234.935856 
L 394.967525 209.100312 
L 404.493825 209.100312 
L 414.020125 174.848201 
L 423.546425 140.596091 
L 433.072725 140.596091 
L 442.599025 140.596091 
L 452.125325 109.519567 
L 461.651625 78.443044 
L 471.177925 78.443044 
L 480.704225 78.443044 
L 490.230525 64.619142 
L 499.756825 50.795239 
L 509.283125 50.795239 
L 518.809425 50.795239 
L 528.335725 61.480262 
L 537.862025 72.165284 
L 547.388325 72.165284 
L 556.914625 72.165284 
L 566.440925 100.745929 
L 575.967225 129.326574 
L 585.493525 129.326574 
L 595.019825 129.326574 
L 604.546125 162.991833 
L 614.072425 196.657091 
L 623.598725 196.657091 
L 633.125025 223.705882 
L 642.651325 250.754672 
L 652.177625 250.754672 
L 661.703925 250.754672 
L 671.230225 266.860653 
L 680.756525 282.966633 
L 690.282825 282.966633 
L 699.809125 282.966633 
L 709.335425 289.987141 
L 718.861725 297.007649 
L 728.388025 297.007649 
L 737.914325 297.007649 
L 747.440625 299.205782 
L 756.966925 301.403916 
L 766.493225 301.403916 
L 776.019525 301.403916 
L 785.545825 301.85516 
L 795.072125 302.306405 
L 804.598425 302.306405 
L 814.124725 302.306405 
L 823.651025 302.356535 
L 833.177325 302.406665 
L 842.703625 302.406665 
L 852.229925 302.406665 
L 861.756225 302.409904 
L 871.282525 302.413143 
L 880.808825 302.413143 
L 890.335125 302.413954 
L 899.861425 302.414765 
L 909.387725 302.414765 
L 918.914025 302.414765 
L 928.440325 302.415057 
L 937.966625 302.415349 
L 947.492925 302.415349 
L 957.019225 302.415349 
L 966.545525 302.415452 
L 976.071825 302.415555 
L 985.598125 302.415555 
" style="fill:none;stroke:#5cb85c;stroke-linecap:square;"/>
   </g>
   <g id="line2d_17">
    <path clip-path="url(#p3d0a6b3bed)" d="M 32.968125 302.414628 
L 42.494425 302.414628 
L 52.020725 302.414061 
L 61.547025 302.413494 
L 71.073325 302.413494 
L 80.599625 302.413494 
L 90.125925 302.411515 
L 99.652225 302.409537 
L 109.178525 302.409537 
L 118.704825 302.409537 
L 128.231125 302.406086 
L 137.757425 302.402636 
L 147.283725 302.402636 
L 156.810025 302.392368 
L 166.336325 302.3821 
L 175.862625 302.3821 
L 185.388925 302.3821 
L 194.915225 302.351698 
L 204.441525 302.321296 
L 213.967825 302.321296 
L 223.494125 302.321296 
L 233.020425 302.085846 
L 242.546725 301.850397 
L 252.073025 301.850397 
L 261.599325 301.850397 
L 271.125625 300.404556 
L 280.651925 298.958716 
L 290.178225 298.958716 
L 299.704525 298.958716 
L 309.230825 293.598062 
L 318.757125 288.237408 
L 328.283425 288.237408 
L 337.809725 288.237408 
L 347.336025 274.333017 
L 356.862325 260.428625 
L 366.388625 260.428625 
L 375.914925 260.428625 
L 385.441225 234.996107 
L 394.967525 209.563589 
L 404.493825 209.563589 
L 414.020125 175.644293 
L 423.546425 141.724997 
L 433.072725 141.724997 
L 442.599025 141.724997 
L 452.125325 110.306606 
L 461.651625 78.888216 
L 471.177925 78.888216 
L 480.704225 78.888216 
L 490.230525 64.584979 
L 499.756825 50.281742 
L 509.283125 50.281742 
L 518.809425 50.281742 
L 528.335725 60.204704 
L 537.862025 70.127666 
L 547.388325 70.127666 
L 556.914625 70.127666 
L 566.440925 99.111644 
L 575.967225 128.095621 
L 585.493525 128.095621 
L 595.019825 128.095621 
L 604.546125 162.47468 
L 614.072425 196.853739 
L 623.598725 196.853739 
L 633.125025 224.332933 
L 642.651325 251.812127 
L 652.177625 251.812127 
L 661.703925 251.812127 
L 671.230225 267.80975 
L 680.756525 283.807374 
L 690.282825 283.807374 
L 699.809125 283.807374 
L 709.335425 290.600933 
L 718.861725 297.394493 
L 728.388025 297.394493 
L 737.914325 297.394493 
L 747.440625 299.458741 
L 756.966925 301.522989 
L 766.493225 301.522989 
L 776.019525 301.522989 
L 785.545825 301.921786 
L 795.072125 302.320582 
L 804.598425 302.320582 
L 814.124725 302.320582 
L 823.651025 302.365616 
L 833.177325 302.410649 
L 842.703625 302.410649 
L 852.229925 302.410649 
L 861.756225 302.41239 
L 871.282525 302.414131 
L 880.808825 302.414131 
L 890.335125 302.414626 
L 899.861425 302.415121 
L 909.387725 302.415121 
L 918.914025 302.415121 
L 928.440325 302.415246 
L 937.966625 302.415371 
L 947.492925 302.415371 
L 957.019225 302.415371 
L 966.545525 302.415274 
L 976.071825 302.415176 
L 985.598125 302.415176 
" style="fill:none;stroke:#5cb85c;stroke-linecap:square;"/>
   </g>
   <g id="line2d_18">
    <path clip-path="url(#p3d0a6b3bed)" d="M 32.968125 302.41566 
L 985.598125 302.41566 
" style="fill:none;stroke:#dedede;stroke-linecap:square;stroke-width:2;"/>
   </g>
   <g id="text_15">
    <!-- FastQC: Per Sequence GC Content -->
    <defs>
     <path d="M 9.8125 72.90625 
L 51.703125 72.90625 
L 51.703125 64.59375 
L 19.671875 64.59375 
L 19.671875 43.109375 
L 48.578125 43.109375 
L 48.578125 34.8125 
L 19.671875 34.8125 
L 19.671875 0 
L 9.8125 0 
z
" id="DejaVuSans-46"/>
     <path d="M 44.28125 53.078125 
L 44.28125 44.578125 
Q 40.484375 46.53125 36.375 47.5 
Q 32.28125 48.484375 27.875 48.484375 
Q 21.1875 48.484375 17.84375 46.4375 
Q 14.5 44.390625 14.5 40.28125 
Q 14.5 37.15625 16.890625 35.375 
Q 19.28125 33.59375 26.515625 31.984375 
L 29.59375 31.296875 
Q 39.15625 29.25 43.1875 25.515625 
Q 47.21875 21.78125 47.21875 15.09375 
Q 47.21875 7.46875 41.1875 3.015625 
Q 35.15625 -1.421875 24.609375 -1.421875 
Q 20.21875 -1.421875 15.453125 -0.5625 
Q 10.6875 0.296875 5.421875 2 
L 5.421875 11.28125 
Q 10.40625 8.6875 15.234375 7.390625 
Q 20.0625 6.109375 24.8125 6.109375 
Q 31.15625 6.109375 34.5625 8.28125 
Q 37.984375 10.453125 37.984375 14.40625 
Q 37.984375 18.0625 35.515625 20.015625 
Q 33.0625 21.96875 24.703125 23.78125 
L 21.578125 24.515625 
Q 13.234375 26.265625 9.515625 29.90625 
Q 5.8125 33.546875 5.8125 39.890625 
Q 5.8125 47.609375 11.28125 51.796875 
Q 16.75 56 26.8125 56 
Q 31.78125 56 36.171875 55.265625 
Q 40.578125 54.546875 44.28125 53.078125 
z
" id="DejaVuSans-73"/>
     <path d="M 39.40625 66.21875 
Q 28.65625 66.21875 22.328125 58.203125 
Q 16.015625 50.203125 16.015625 36.375 
Q 16.015625 22.609375 22.328125 14.59375 
Q 28.65625 6.59375 39.40625 6.59375 
Q 50.140625 6.59375 56.421875 14.59375 
Q 62.703125 22.609375 62.703125 36.375 
Q 62.703125 50.203125 56.421875 58.203125 
Q 50.140625 66.21875 39.40625 66.21875 
z
M 53.21875 1.3125 
L 66.21875 -12.890625 
L 54.296875 -12.890625 
L 43.5 -1.21875 
Q 41.890625 -1.3125 41.03125 -1.359375 
Q 40.1875 -1.421875 39.40625 -1.421875 
Q 24.03125 -1.421875 14.8125 8.859375 
Q 5.609375 19.140625 5.609375 36.375 
Q 5.609375 53.65625 14.8125 63.9375 
Q 24.03125 74.21875 39.40625 74.21875 
Q 54.734375 74.21875 63.90625 63.9375 
Q 73.09375 53.65625 73.09375 36.375 
Q 73.09375 23.6875 67.984375 14.640625 
Q 62.890625 5.609375 53.21875 1.3125 
z
" id="DejaVuSans-51"/>
     <path d="M 11.71875 12.40625 
L 22.015625 12.40625 
L 22.015625 0 
L 11.71875 0 
z
M 11.71875 51.703125 
L 22.015625 51.703125 
L 22.015625 39.3125 
L 11.71875 39.3125 
z
" id="DejaVuSans-3a"/>
     <path d="M 53.515625 70.515625 
L 53.515625 60.890625 
Q 47.90625 63.578125 42.921875 64.890625 
Q 37.9375 66.21875 33.296875 66.21875 
Q 25.25 66.21875 20.875 63.09375 
Q 16.5 59.96875 16.5 54.203125 
Q 16.5 49.359375 19.40625 46.890625 
Q 22.3125 44.4375 30.421875 42.921875 
L 36.375 41.703125 
Q 47.40625 39.59375 52.65625 34.296875 
Q 57.90625 29 57.90625 20.125 
Q 57.90625 9.515625 50.796875 4.046875 
Q 43.703125 -1.421875 29.984375 -1.421875 
Q 24.8125 -1.421875 18.96875 -0.25 
Q 13.140625 0.921875 6.890625 3.21875 
L 6.890625 13.375 
Q 12.890625 10.015625 18.65625 8.296875 
Q 24.421875 6.59375 29.984375 6.59375 
Q 38.421875 6.59375 43.015625 9.90625 
Q 47.609375 13.234375 47.609375 19.390625 
Q 47.609375 24.75 44.3125 27.78125 
Q 41.015625 30.8125 33.5 32.328125 
L 27.484375 33.5 
Q 16.453125 35.6875 11.515625 40.375 
Q 6.59375 45.0625 6.59375 53.421875 
Q 6.59375 63.09375 13.40625 68.65625 
Q 20.21875 74.21875 32.171875 74.21875 
Q 37.3125 74.21875 42.625 73.28125 
Q 47.953125 72.359375 53.515625 70.515625 
z
" id="DejaVuSans-53"/>
     <path d="M 14.796875 27.296875 
Q 14.796875 17.390625 18.875 11.75 
Q 22.953125 6.109375 30.078125 6.109375 
Q 37.203125 6.109375 41.296875 11.75 
Q 45.40625 17.390625 45.40625 27.296875 
Q 45.40625 37.203125 41.296875 42.84375 
Q 37.203125 48.484375 30.078125 48.484375 
Q 22.953125 48.484375 18.875 42.84375 
Q 14.796875 37.203125 14.796875 27.296875 
z
M 45.40625 8.203125 
Q 42.578125 3.328125 38.25 0.953125 
Q 33.9375 -1.421875 27.875 -1.421875 
Q 17.96875 -1.421875 11.734375 6.484375 
Q 5.515625 14.40625 5.515625 27.296875 
Q 5.515625 40.1875 11.734375 48.09375 
Q 17.96875 56 27.875 56 
Q 33.9375 56 38.25 53.625 
Q 42.578125 51.265625 45.40625 46.390625 
L 45.40625 54.6875 
L 54.390625 54.6875 
L 54.390625 -20.796875 
L 45.40625 -20.796875 
z
" id="DejaVuSans-71"/>
     <path d="M 8.5 21.578125 
L 8.5 54.6875 
L 17.484375 54.6875 
L 17.484375 21.921875 
Q 17.484375 14.15625 20.5 10.265625 
Q 23.53125 6.390625 29.59375 6.390625 
Q 36.859375 6.390625 41.078125 11.03125 
Q 45.3125 15.671875 45.3125 23.6875 
L 45.3125 54.6875 
L 54.296875 54.6875 
L 54.296875 0 
L 45.3125 0 
L 45.3125 8.40625 
Q 42.046875 3.421875 37.71875 1 
Q 33.40625 -1.421875 27.6875 -1.421875 
Q 18.265625 -1.421875 13.375 4.4375 
Q 8.5 10.296875 8.5 21.578125 
z
M 31.109375 56 
z
" id="DejaVuSans-75"/>
     <path d="M 30.609375 48.390625 
Q 23.390625 48.390625 19.1875 42.75 
Q 14.984375 37.109375 14.984375 27.296875 
Q 14.984375 17.484375 19.15625 11.84375 
Q 23.34375 6.203125 30.609375 6.203125 
Q 37.796875 6.203125 41.984375 11.859375 
Q 46.1875 17.53125 46.1875 27.296875 
Q 46.1875 37.015625 41.984375 42.703125 
Q 37.796875 48.390625 30.609375 48.390625 
z
M 30.609375 56 
Q 42.328125 56 49.015625 48.375 
Q 55.71875 40.765625 55.71875 27.296875 
Q 55.71875 13.875 49.015625 6.21875 
Q 42.328125 -1.421875 30.609375 -1.421875 
Q 18.84375 -1.421875 12.171875 6.21875 
Q 5.515625 13.875 5.515625 27.296875 
Q 5.515625 40.765625 12.171875 48.375 
Q 18.84375 56 30.609375 56 
z
" id="DejaVuSans-6f"/>
    </defs>
    <g transform="translate(371.641875 19.3575)scale(0.16 -0.16)">
     <use xlink:href="#DejaVuSans-46"/>
     <use x="57.378906" xlink:href="#DejaVuSans-61"/>
     <use x="118.658203" xlink:href="#DejaVuSans-73"/>
     <use x="170.757812" xlink:href="#DejaVuSans-74"/>
     <use x="209.966797" xlink:href="#DejaVuSans-51"/>
     <use x="288.677734" xlink:href="#DejaVuSans-43"/>
     <use x="358.501953" xlink:href="#DejaVuSans-3a"/>
     <use x="392.193359" xlink:href="#DejaVuSans-20"/>
     <use x="423.980469" xlink:href="#DejaVuSans-50"/>
     <use x="484.236328" xlink:href="#DejaVuSans-65"/>
     <use x="545.759766" xlink:href="#DejaVuSans-72"/>
     <use x="586.873047" xlink:href="#DejaVuSans-20"/>
     <use x="618.660156" xlink:href="#DejaVuSans-53"/>
     <use x="682.136719" xlink:href="#DejaVuSans-65"/>
     <use x="743.660156" xlink:href="#DejaVuSans-71"/>
     <use x="807.136719" xlink:href="#DejaVuSans-75"/>
     <use x="870.515625" xlink:href="#DejaVuSans-65"/>
     <use x="932.039062" xlink:href="#DejaVuSans-6e"/>
     <use x="995.417969" xlink:href="#DejaVuSans-63"/>
     <use x="1050.398438" xlink:href="#DejaVuSans-65"/>
     <use x="1111.921875" xlink:href="#DejaVuSans-20"/>
     <use x="1143.708984" xlink:href="#DejaVuSans-47"/>
     <use x="1221.199219" xlink:href="#DejaVuSans-43"/>
     <use x="1291.023438" xlink:href="#DejaVuSans-20"/>
     <use x="1322.810547" xlink:href="#DejaVuSans-43"/>
     <use x="1392.634766" xlink:href="#DejaVuSans-6f"/>
     <use x="1453.816406" xlink:href="#DejaVuSans-6e"/>
     <use x="1517.195312" xlink:href="#DejaVuSans-74"/>
     <use x="1556.404297" xlink:href="#DejaVuSans-65"/>
     <use x="1617.927734" xlink:href="#DejaVuSans-6e"/>
     <use x="1681.306641" xlink:href="#DejaVuSans-74"/>
    </g>
   </g>
   <g id="legend_1">
    <g id="line2d_19">
     <path d="M 40.168125 325.836834 
L 56.168125 325.836834 
" style="fill:none;stroke:#5cb85c;stroke-linecap:square;"/>
    </g>
    <g id="line2d_20"/>
    <g id="text_16">
     <!-- fastqc | SRR9264344_S0_L001_R1_001 -->
     <defs>
      <path d="M 37.109375 75.984375 
L 37.109375 68.5 
L 28.515625 68.5 
Q 23.6875 68.5 21.796875 66.546875 
Q 19.921875 64.59375 19.921875 59.515625 
L 19.921875 54.6875 
L 34.71875 54.6875 
L 34.71875 47.703125 
L 19.921875 47.703125 
L 19.921875 0 
L 10.890625 0 
L 10.890625 47.703125 
L 2.296875 47.703125 
L 2.296875 54.6875 
L 10.890625 54.6875 
L 10.890625 58.5 
Q 10.890625 67.625 15.140625 71.796875 
Q 19.390625 75.984375 28.609375 75.984375 
z
" id="DejaVuSans-66"/>
      <path d="M 21 76.421875 
L 21 -23.578125 
L 12.703125 -23.578125 
L 12.703125 76.421875 
z
" id="DejaVuSans-7c"/>
      <path d="M 44.390625 34.1875 
Q 47.5625 33.109375 50.5625 29.59375 
Q 53.5625 26.078125 56.59375 19.921875 
L 66.609375 0 
L 56 0 
L 46.6875 18.703125 
Q 43.0625 26.03125 39.671875 28.421875 
Q 36.28125 30.8125 30.421875 30.8125 
L 19.671875 30.8125 
L 19.671875 0 
L 9.8125 0 
L 9.8125 72.90625 
L 32.078125 72.90625 
Q 44.578125 72.90625 50.734375 67.671875 
Q 56.890625 62.453125 56.890625 51.90625 
Q 56.890625 45.015625 53.6875 40.46875 
Q 50.484375 35.9375 44.390625 34.1875 
z
M 19.671875 64.796875 
L 19.671875 38.921875 
L 32.078125 38.921875 
Q 39.203125 38.921875 42.84375 42.21875 
Q 46.484375 45.515625 46.484375 51.90625 
Q 46.484375 58.296875 42.84375 61.546875 
Q 39.203125 64.796875 32.078125 64.796875 
z
" id="DejaVuSans-52"/>
      <path d="M 10.984375 1.515625 
L 10.984375 10.5 
Q 14.703125 8.734375 18.5 7.8125 
Q 22.3125 6.890625 25.984375 6.890625 
Q 35.75 6.890625 40.890625 13.453125 
Q 46.046875 20.015625 46.78125 33.40625 
Q 43.953125 29.203125 39.59375 26.953125 
Q 35.25 24.703125 29.984375 24.703125 
Q 19.046875 24.703125 12.671875 31.3125 
Q 6.296875 37.9375 6.296875 49.421875 
Q 6.296875 60.640625 12.9375 67.421875 
Q 19.578125 74.21875 30.609375 74.21875 
Q 43.265625 74.21875 49.921875 64.515625 
Q 56.59375 54.828125 56.59375 36.375 
Q 56.59375 19.140625 48.40625 8.859375 
Q 40.234375 -1.421875 26.421875 -1.421875 
Q 22.703125 -1.421875 18.890625 -0.6875 
Q 15.09375 0.046875 10.984375 1.515625 
z
M 30.609375 32.421875 
Q 37.25 32.421875 41.125 36.953125 
Q 45.015625 41.5 45.015625 49.421875 
Q 45.015625 57.28125 41.125 61.84375 
Q 37.25 66.40625 30.609375 66.40625 
Q 23.96875 66.40625 20.09375 61.84375 
Q 16.21875 57.28125 16.21875 49.421875 
Q 16.21875 41.5 20.09375 36.953125 
Q 23.96875 32.421875 30.609375 32.421875 
z
" id="DejaVuSans-39"/>
      <path d="M 50.984375 -16.609375 
L 50.984375 -23.578125 
L -0.984375 -23.578125 
L -0.984375 -16.609375 
z
" id="DejaVuSans-5f"/>
      <path d="M 9.8125 72.90625 
L 19.671875 72.90625 
L 19.671875 8.296875 
L 55.171875 8.296875 
L 55.171875 0 
L 9.8125 0 
z
" id="DejaVuSans-4c"/>
     </defs>
     <g transform="translate(62.568125 328.636834)scale(0.08 -0.08)">
      <use xlink:href="#DejaVuSans-66"/>
      <use x="35.205078" xlink:href="#DejaVuSans-61"/>
      <use x="96.484375" xlink:href="#DejaVuSans-73"/>
      <use x="148.583984" xlink:href="#DejaVuSans-74"/>
      <use x="187.792969" xlink:href="#DejaVuSans-71"/>
      <use x="251.269531" xlink:href="#DejaVuSans-63"/>
      <use x="306.25" xlink:href="#DejaVuSans-20"/>
      <use x="338.037109" xlink:href="#DejaVuSans-7c"/>
      <use x="371.728516" xlink:href="#DejaVuSans-20"/>
      <use x="403.515625" xlink:href="#DejaVuSans-53"/>
      <use x="466.992188" xlink:href="#DejaVuSans-52"/>
      <use x="536.474609" xlink:href="#DejaVuSans-52"/>
      <use x="605.957031" xlink:href="#DejaVuSans-39"/>
      <use x="669.580078" xlink:href="#DejaVuSans-32"/>
      <use x="733.203125" xlink:href="#DejaVuSans-36"/>
      <use x="796.826172" xlink:href="#DejaVuSans-34"/>
      <use x="860.449219" xlink:href="#DejaVuSans-33"/>
      <use x="924.072266" xlink:href="#DejaVuSans-34"/>
      <use x="987.695312" xlink:href="#DejaVuSans-34"/>
      <use x="1051.318359" xlink:href="#DejaVuSans-5f"/>
      <use x="1101.318359" xlink:href="#DejaVuSans-53"/>
      <use x="1164.794922" xlink:href="#DejaVuSans-30"/>
      <use x="1228.417969" xlink:href="#DejaVuSans-5f"/>
      <use x="1278.417969" xlink:href="#DejaVuSans-4c"/>
      <use x="1334.130859" xlink:href="#DejaVuSans-30"/>
      <use x="1397.753906" xlink:href="#DejaVuSans-30"/>
      <use x="1461.376953" xlink:href="#DejaVuSans-31"/>
      <use x="1525" xlink:href="#DejaVuSans-5f"/>
      <use x="1575" xlink:href="#DejaVuSans-52"/>
      <use x="1644.482422" xlink:href="#DejaVuSans-31"/>
      <use x="1708.105469" xlink:href="#DejaVuSans-5f"/>
      <use x="1758.105469" xlink:href="#DejaVuSans-30"/>
      <use x="1821.728516" xlink:href="#DejaVuSans-30"/>
      <use x="1885.351562" xlink:href="#DejaVuSans-31"/>
     </g>
    </g>
    <g id="line2d_21">
     <path d="M 40.168125 337.836834 
L 56.168125 337.836834 
" style="fill:none;stroke:#5cb85c;stroke-linecap:square;"/>
    </g>
    <g id="line2d_22"/>
    <g id="text_17">
     <!-- fastqc | SRR9264345_S0_L001_R1_001 -->
     <g transform="translate(62.568125 340.636834)scale(0.08 -0.08)">
      <use xlink:href="#DejaVuSans-66"/>
      <use x="35.205078" xlink:href="#DejaVuSans-61"/>
      <use x="96.484375" xlink:href="#DejaVuSans-73"/>
      <use x="148.583984" xlink:href="#DejaVuSans-74"/>
      <use x="187.792969" xlink:href="#DejaVuSans-71"/>
      <use x="251.269531" xlink:href="#DejaVuSans-63"/>
      <use x="306.25" xlink:href="#DejaVuSans-20"/>
      <use x="338.037109" xlink:href="#DejaVuSans-7c"/>
      <use x="371.728516" xlink:href="#DejaVuSans-20"/>
      <use x="403.515625" xlink:href="#DejaVuSans-53"/>
      <use x="466.992188" xlink:href="#DejaVuSans-52"/>
      <use x="536.474609" xlink:href="#DejaVuSans-52"/>
      <use x="605.957031" xlink:href="#DejaVuSans-39"/>
      <use x="669.580078" xlink:href="#DejaVuSans-32"/>
      <use x="733.203125" xlink:href="#DejaVuSans-36"/>
      <use x="796.826172" xlink:href="#DejaVuSans-34"/>
      <use x="860.449219" xlink:href="#DejaVuSans-33"/>
      <use x="924.072266" xlink:href="#DejaVuSans-34"/>
      <use x="987.695312" xlink:href="#DejaVuSans-35"/>
      <use x="1051.318359" xlink:href="#DejaVuSans-5f"/>
      <use x="1101.318359" xlink:href="#DejaVuSans-53"/>
      <use x="1164.794922" xlink:href="#DejaVuSans-30"/>
      <use x="1228.417969" xlink:href="#DejaVuSans-5f"/>
      <use x="1278.417969" xlink:href="#DejaVuSans-4c"/>
      <use x="1334.130859" xlink:href="#DejaVuSans-30"/>
      <use x="1397.753906" xlink:href="#DejaVuSans-30"/>
      <use x="1461.376953" xlink:href="#DejaVuSans-31"/>
      <use x="1525" xlink:href="#DejaVuSans-5f"/>
      <use x="1575" xlink:href="#DejaVuSans-52"/>
      <use x="1644.482422" xlink:href="#DejaVuSans-31"/>
      <use x="1708.105469" xlink:href="#DejaVuSans-5f"/>
      <use x="1758.105469" xlink:href="#DejaVuSans-30"/>
      <use x="1821.728516" xlink:href="#DejaVuSans-30"/>
      <use x="1885.351562" xlink:href="#DejaVuSans-31"/>
     </g>
    </g>
    <g id="line2d_23">
     <path d="M 40.168125 349.836834 
L 56.168125 349.836834 
" style="fill:none;stroke:#5cb85c;stroke-linecap:square;"/>
    </g>
    <g id="line2d_24"/>
    <g id="text_18">
     <!-- fastqc | SRR9264346_S0_L001_R1_001 -->
     <g transform="translate(62.568125 352.636834)scale(0.08 -0.08)">
      <use xlink:href="#DejaVuSans-66"/>
      <use x="35.205078" xlink:href="#DejaVuSans-61"/>
      <use x="96.484375" xlink:href="#DejaVuSans-73"/>
      <use x="148.583984" xlink:href="#DejaVuSans-74"/>
      <use x="187.792969" xlink:href="#DejaVuSans-71"/>
      <use x="251.269531" xlink:href="#DejaVuSans-63"/>
      <use x="306.25" xlink:href="#DejaVuSans-20"/>
      <use x="338.037109" xlink:href="#DejaVuSans-7c"/>
      <use x="371.728516" xlink:href="#DejaVuSans-20"/>
      <use x="403.515625" xlink:href="#DejaVuSans-53"/>
      <use x="466.992188" xlink:href="#DejaVuSans-52"/>
      <use x="536.474609" xlink:href="#DejaVuSans-52"/>
      <use x="605.957031" xlink:href="#DejaVuSans-39"/>
      <use x="669.580078" xlink:href="#DejaVuSans-32"/>
      <use x="733.203125" xlink:href="#DejaVuSans-36"/>
      <use x="796.826172" xlink:href="#DejaVuSans-34"/>
      <use x="860.449219" xlink:href="#DejaVuSans-33"/>
      <use x="924.072266" xlink:href="#DejaVuSans-34"/>
      <use x="987.695312" xlink:href="#DejaVuSans-36"/>
      <use x="1051.318359" xlink:href="#DejaVuSans-5f"/>
      <use x="1101.318359" xlink:href="#DejaVuSans-53"/>
      <use x="1164.794922" xlink:href="#DejaVuSans-30"/>
      <use x="1228.417969" xlink:href="#DejaVuSans-5f"/>
      <use x="1278.417969" xlink:href="#DejaVuSans-4c"/>
      <use x="1334.130859" xlink:href="#DejaVuSans-30"/>
      <use x="1397.753906" xlink:href="#DejaVuSans-30"/>
      <use x="1461.376953" xlink:href="#DejaVuSans-31"/>
      <use x="1525" xlink:href="#DejaVuSans-5f"/>
      <use x="1575" xlink:href="#DejaVuSans-52"/>
      <use x="1644.482422" xlink:href="#DejaVuSans-31"/>
      <use x="1708.105469" xlink:href="#DejaVuSans-5f"/>
      <use x="1758.105469" xlink:href="#DejaVuSans-30"/>
      <use x="1821.728516" xlink:href="#DejaVuSans-30"/>
      <use x="1885.351562" xlink:href="#DejaVuSans-31"/>
     </g>
    </g>
    <g id="line2d_25">
     <path d="M 230.145313 325.836834 
L 246.145313 325.836834 
" style="fill:none;stroke:#5cb85c;stroke-linecap:square;"/>
    </g>
    <g id="line2d_26"/>
    <g id="text_19">
     <!-- fastqc | SRR9264347_S0_L001_R1_001 -->
     <defs>
      <path d="M 8.203125 72.90625 
L 55.078125 72.90625 
L 55.078125 68.703125 
L 28.609375 0 
L 18.3125 0 
L 43.21875 64.59375 
L 8.203125 64.59375 
z
" id="DejaVuSans-37"/>
     </defs>
     <g transform="translate(252.545313 328.636834)scale(0.08 -0.08)">
      <use xlink:href="#DejaVuSans-66"/>
      <use x="35.205078" xlink:href="#DejaVuSans-61"/>
      <use x="96.484375" xlink:href="#DejaVuSans-73"/>
      <use x="148.583984" xlink:href="#DejaVuSans-74"/>
      <use x="187.792969" xlink:href="#DejaVuSans-71"/>
      <use x="251.269531" xlink:href="#DejaVuSans-63"/>
      <use x="306.25" xlink:href="#DejaVuSans-20"/>
      <use x="338.037109" xlink:href="#DejaVuSans-7c"/>
      <use x="371.728516" xlink:href="#DejaVuSans-20"/>
      <use x="403.515625" xlink:href="#DejaVuSans-53"/>
      <use x="466.992188" xlink:href="#DejaVuSans-52"/>
      <use x="536.474609" xlink:href="#DejaVuSans-52"/>
      <use x="605.957031" xlink:href="#DejaVuSans-39"/>
      <use x="669.580078" xlink:href="#DejaVuSans-32"/>
      <use x="733.203125" xlink:href="#DejaVuSans-36"/>
      <use x="796.826172" xlink:href="#DejaVuSans-34"/>
      <use x="860.449219" xlink:href="#DejaVuSans-33"/>
      <use x="924.072266" xlink:href="#DejaVuSans-34"/>
      <use x="987.695312" xlink:href="#DejaVuSans-37"/>
      <use x="1051.318359" xlink:href="#DejaVuSans-5f"/>
      <use x="1101.318359" xlink:href="#DejaVuSans-53"/>
      <use x="1164.794922" xlink:href="#DejaVuSans-30"/>
      <use x="1228.417969" xlink:href="#DejaVuSans-5f"/>
      <use x="1278.417969" xlink:href="#DejaVuSans-4c"/>
      <use x="1334.130859" xlink:href="#DejaVuSans-30"/>
      <use x="1397.753906" xlink:href="#DejaVuSans-30"/>
      <use x="1461.376953" xlink:href="#DejaVuSans-31"/>
      <use x="1525" xlink:href="#DejaVuSans-5f"/>
      <use x="1575" xlink:href="#DejaVuSans-52"/>
      <use x="1644.482422" xlink:href="#DejaVuSans-31"/>
      <use x="1708.105469" xlink:href="#DejaVuSans-5f"/>
      <use x="1758.105469" xlink:href="#DejaVuSans-30"/>
      <use x="1821.728516" xlink:href="#DejaVuSans-30"/>
      <use x="1885.351562" xlink:href="#DejaVuSans-31"/>
     </g>
    </g>
    <g id="line2d_27">
     <path d="M 230.145313 337.836834 
L 246.145313 337.836834 
" style="fill:none;stroke:#5cb85c;stroke-linecap:square;"/>
    </g>
    <g id="line2d_28"/>
    <g id="text_20">
     <!-- fastqc | SRR9264348_S0_L001_R1_001 -->
     <g transform="translate(252.545313 340.636834)scale(0.08 -0.08)">
      <use xlink:href="#DejaVuSans-66"/>
      <use x="35.205078" xlink:href="#DejaVuSans-61"/>
      <use x="96.484375" xlink:href="#DejaVuSans-73"/>
      <use x="148.583984" xlink:href="#DejaVuSans-74"/>
      <use x="187.792969" xlink:href="#DejaVuSans-71"/>
      <use x="251.269531" xlink:href="#DejaVuSans-63"/>
      <use x="306.25" xlink:href="#DejaVuSans-20"/>
      <use x="338.037109" xlink:href="#DejaVuSans-7c"/>
      <use x="371.728516" xlink:href="#DejaVuSans-20"/>
      <use x="403.515625" xlink:href="#DejaVuSans-53"/>
      <use x="466.992188" xlink:href="#DejaVuSans-52"/>
      <use x="536.474609" xlink:href="#DejaVuSans-52"/>
      <use x="605.957031" xlink:href="#DejaVuSans-39"/>
      <use x="669.580078" xlink:href="#DejaVuSans-32"/>
      <use x="733.203125" xlink:href="#DejaVuSans-36"/>
      <use x="796.826172" xlink:href="#DejaVuSans-34"/>
      <use x="860.449219" xlink:href="#DejaVuSans-33"/>
      <use x="924.072266" xlink:href="#DejaVuSans-34"/>
      <use x="987.695312" xlink:href="#DejaVuSans-38"/>
      <use x="1051.318359" xlink:href="#DejaVuSans-5f"/>
      <use x="1101.318359" xlink:href="#DejaVuSans-53"/>
      <use x="1164.794922" xlink:href="#DejaVuSans-30"/>
      <use x="1228.417969" xlink:href="#DejaVuSans-5f"/>
      <use x="1278.417969" xlink:href="#DejaVuSans-4c"/>
      <use x="1334.130859" xlink:href="#DejaVuSans-30"/>
      <use x="1397.753906" xlink:href="#DejaVuSans-30"/>
      <use x="1461.376953" xlink:href="#DejaVuSans-31"/>
      <use x="1525" xlink:href="#DejaVuSans-5f"/>
      <use x="1575" xlink:href="#DejaVuSans-52"/>
      <use x="1644.482422" xlink:href="#DejaVuSans-31"/>
      <use x="1708.105469" xlink:href="#DejaVuSans-5f"/>
      <use x="1758.105469" xlink:href="#DejaVuSans-30"/>
      <use x="1821.728516" xlink:href="#DejaVuSans-30"/>
      <use x="1885.351562" xlink:href="#DejaVuSans-31"/>
     </g>
    </g>
    <g id="line2d_29">
     <path d="M 420.1225 325.836834 
L 436.1225 325.836834 
" style="fill:none;stroke:#5cb85c;stroke-linecap:square;"/>
    </g>
    <g id="line2d_30"/>
    <g id="text_21">
     <!-- fastqc | SRR9264349_S0_L001_R1_001 -->
     <g transform="translate(442.5225 328.636834)scale(0.08 -0.08)">
      <use xlink:href="#DejaVuSans-66"/>
      <use x="35.205078" xlink:href="#DejaVuSans-61"/>
      <use x="96.484375" xlink:href="#DejaVuSans-73"/>
      <use x="148.583984" xlink:href="#DejaVuSans-74"/>
      <use x="187.792969" xlink:href="#DejaVuSans-71"/>
      <use x="251.269531" xlink:href="#DejaVuSans-63"/>
      <use x="306.25" xlink:href="#DejaVuSans-20"/>
      <use x="338.037109" xlink:href="#DejaVuSans-7c"/>
      <use x="371.728516" xlink:href="#DejaVuSans-20"/>
      <use x="403.515625" xlink:href="#DejaVuSans-53"/>
      <use x="466.992188" xlink:href="#DejaVuSans-52"/>
      <use x="536.474609" xlink:href="#DejaVuSans-52"/>
      <use x="605.957031" xlink:href="#DejaVuSans-39"/>
      <use x="669.580078" xlink:href="#DejaVuSans-32"/>
      <use x="733.203125" xlink:href="#DejaVuSans-36"/>
      <use x="796.826172" xlink:href="#DejaVuSans-34"/>
      <use x="860.449219" xlink:href="#DejaVuSans-33"/>
      <use x="924.072266" xlink:href="#DejaVuSans-34"/>
      <use x="987.695312" xlink:href="#DejaVuSans-39"/>
      <use x="1051.318359" xlink:href="#DejaVuSans-5f"/>
      <use x="1101.318359" xlink:href="#DejaVuSans-53"/>
      <use x="1164.794922" xlink:href="#DejaVuSans-30"/>
      <use x="1228.417969" xlink:href="#DejaVuSans-5f"/>
      <use x="1278.417969" xlink:href="#DejaVuSans-4c"/>
      <use x="1334.130859" xlink:href="#DejaVuSans-30"/>
      <use x="1397.753906" xlink:href="#DejaVuSans-30"/>
      <use x="1461.376953" xlink:href="#DejaVuSans-31"/>
      <use x="1525" xlink:href="#DejaVuSans-5f"/>
      <use x="1575" xlink:href="#DejaVuSans-52"/>
      <use x="1644.482422" xlink:href="#DejaVuSans-31"/>
      <use x="1708.105469" xlink:href="#DejaVuSans-5f"/>
      <use x="1758.105469" xlink:href="#DejaVuSans-30"/>
      <use x="1821.728516" xlink:href="#DejaVuSans-30"/>
      <use x="1885.351562" xlink:href="#DejaVuSans-31"/>
     </g>
    </g>
    <g id="line2d_31">
     <path d="M 420.1225 337.836834 
L 436.1225 337.836834 
" style="fill:none;stroke:#5cb85c;stroke-linecap:square;"/>
    </g>
    <g id="line2d_32"/>
    <g id="text_22">
     <!-- fastqc | SRR9264350_S0_L001_R1_001 -->
     <g transform="translate(442.5225 340.636834)scale(0.08 -0.08)">
      <use xlink:href="#DejaVuSans-66"/>
      <use x="35.205078" xlink:href="#DejaVuSans-61"/>
      <use x="96.484375" xlink:href="#DejaVuSans-73"/>
      <use x="148.583984" xlink:href="#DejaVuSans-74"/>
      <use x="187.792969" xlink:href="#DejaVuSans-71"/>
      <use x="251.269531" xlink:href="#DejaVuSans-63"/>
      <use x="306.25" xlink:href="#DejaVuSans-20"/>
      <use x="338.037109" xlink:href="#DejaVuSans-7c"/>
      <use x="371.728516" xlink:href="#DejaVuSans-20"/>
      <use x="403.515625" xlink:href="#DejaVuSans-53"/>
      <use x="466.992188" xlink:href="#DejaVuSans-52"/>
      <use x="536.474609" xlink:href="#DejaVuSans-52"/>
      <use x="605.957031" xlink:href="#DejaVuSans-39"/>
      <use x="669.580078" xlink:href="#DejaVuSans-32"/>
      <use x="733.203125" xlink:href="#DejaVuSans-36"/>
      <use x="796.826172" xlink:href="#DejaVuSans-34"/>
      <use x="860.449219" xlink:href="#DejaVuSans-33"/>
      <use x="924.072266" xlink:href="#DejaVuSans-35"/>
      <use x="987.695312" xlink:href="#DejaVuSans-30"/>
      <use x="1051.318359" xlink:href="#DejaVuSans-5f"/>
      <use x="1101.318359" xlink:href="#DejaVuSans-53"/>
      <use x="1164.794922" xlink:href="#DejaVuSans-30"/>
      <use x="1228.417969" xlink:href="#DejaVuSans-5f"/>
      <use x="1278.417969" xlink:href="#DejaVuSans-4c"/>
      <use x="1334.130859" xlink:href="#DejaVuSans-30"/>
      <use x="1397.753906" xlink:href="#DejaVuSans-30"/>
      <use x="1461.376953" xlink:href="#DejaVuSans-31"/>
      <use x="1525" xlink:href="#DejaVuSans-5f"/>
      <use x="1575" xlink:href="#DejaVuSans-52"/>
      <use x="1644.482422" xlink:href="#DejaVuSans-31"/>
      <use x="1708.105469" xlink:href="#DejaVuSans-5f"/>
      <use x="1758.105469" xlink:href="#DejaVuSans-30"/>
      <use x="1821.728516" xlink:href="#DejaVuSans-30"/>
      <use x="1885.351562" xlink:href="#DejaVuSans-31"/>
     </g>
    </g>
    <g id="line2d_33">
     <path d="M 610.099688 325.836834 
L 626.099688 325.836834 
" style="fill:none;stroke:#5cb85c;stroke-linecap:square;"/>
    </g>
    <g id="line2d_34"/>
    <g id="text_23">
     <!-- fastqc | SRR9264351_S0_L001_R1_001 -->
     <g transform="translate(632.499688 328.636834)scale(0.08 -0.08)">
      <use xlink:href="#DejaVuSans-66"/>
      <use x="35.205078" xlink:href="#DejaVuSans-61"/>
      <use x="96.484375" xlink:href="#DejaVuSans-73"/>
      <use x="148.583984" xlink:href="#DejaVuSans-74"/>
      <use x="187.792969" xlink:href="#DejaVuSans-71"/>
      <use x="251.269531" xlink:href="#DejaVuSans-63"/>
      <use x="306.25" xlink:href="#DejaVuSans-20"/>
      <use x="338.037109" xlink:href="#DejaVuSans-7c"/>
      <use x="371.728516" xlink:href="#DejaVuSans-20"/>
      <use x="403.515625" xlink:href="#DejaVuSans-53"/>
      <use x="466.992188" xlink:href="#DejaVuSans-52"/>
      <use x="536.474609" xlink:href="#DejaVuSans-52"/>
      <use x="605.957031" xlink:href="#DejaVuSans-39"/>
      <use x="669.580078" xlink:href="#DejaVuSans-32"/>
      <use x="733.203125" xlink:href="#DejaVuSans-36"/>
      <use x="796.826172" xlink:href="#DejaVuSans-34"/>
      <use x="860.449219" xlink:href="#DejaVuSans-33"/>
      <use x="924.072266" xlink:href="#DejaVuSans-35"/>
      <use x="987.695312" xlink:href="#DejaVuSans-31"/>
      <use x="1051.318359" xlink:href="#DejaVuSans-5f"/>
      <use x="1101.318359" xlink:href="#DejaVuSans-53"/>
      <use x="1164.794922" xlink:href="#DejaVuSans-30"/>
      <use x="1228.417969" xlink:href="#DejaVuSans-5f"/>
      <use x="1278.417969" xlink:href="#DejaVuSans-4c"/>
      <use x="1334.130859" xlink:href="#DejaVuSans-30"/>
      <use x="1397.753906" xlink:href="#DejaVuSans-30"/>
      <use x="1461.376953" xlink:href="#DejaVuSans-31"/>
      <use x="1525" xlink:href="#DejaVuSans-5f"/>
      <use x="1575" xlink:href="#DejaVuSans-52"/>
      <use x="1644.482422" xlink:href="#DejaVuSans-31"/>
      <use x="1708.105469" xlink:href="#DejaVuSans-5f"/>
      <use x="1758.105469" xlink:href="#DejaVuSans-30"/>
      <use x="1821.728516" xlink:href="#DejaVuSans-30"/>
      <use x="1885.351562" xlink:href="#DejaVuSans-31"/>
     </g>
    </g>
    <g id="line2d_35">
     <path d="M 610.099688 337.836834 
L 626.099688 337.836834 
" style="fill:none;stroke:#5cb85c;stroke-linecap:square;"/>
    </g>
    <g id="line2d_36"/>
    <g id="text_24">
     <!-- fastqc | SRR9264352_S0_L001_R1_001 -->
     <g transform="translate(632.499688 340.636834)scale(0.08 -0.08)">
      <use xlink:href="#DejaVuSans-66"/>
      <use x="35.205078" xlink:href="#DejaVuSans-61"/>
      <use x="96.484375" xlink:href="#DejaVuSans-73"/>
      <use x="148.583984" xlink:href="#DejaVuSans-74"/>
      <use x="187.792969" xlink:href="#DejaVuSans-71"/>
      <use x="251.269531" xlink:href="#DejaVuSans-63"/>
      <use x="306.25" xlink:href="#DejaVuSans-20"/>
      <use x="338.037109" xlink:href="#DejaVuSans-7c"/>
      <use x="371.728516" xlink:href="#DejaVuSans-20"/>
      <use x="403.515625" xlink:href="#DejaVuSans-53"/>
      <use x="466.992188" xlink:href="#DejaVuSans-52"/>
      <use x="536.474609" xlink:href="#DejaVuSans-52"/>
      <use x="605.957031" xlink:href="#DejaVuSans-39"/>
      <use x="669.580078" xlink:href="#DejaVuSans-32"/>
      <use x="733.203125" xlink:href="#DejaVuSans-36"/>
      <use x="796.826172" xlink:href="#DejaVuSans-34"/>
      <use x="860.449219" xlink:href="#DejaVuSans-33"/>
      <use x="924.072266" xlink:href="#DejaVuSans-35"/>
      <use x="987.695312" xlink:href="#DejaVuSans-32"/>
      <use x="1051.318359" xlink:href="#DejaVuSans-5f"/>
      <use x="1101.318359" xlink:href="#DejaVuSans-53"/>
      <use x="1164.794922" xlink:href="#DejaVuSans-30"/>
      <use x="1228.417969" xlink:href="#DejaVuSans-5f"/>
      <use x="1278.417969" xlink:href="#DejaVuSans-4c"/>
      <use x="1334.130859" xlink:href="#DejaVuSans-30"/>
      <use x="1397.753906" xlink:href="#DejaVuSans-30"/>
      <use x="1461.376953" xlink:href="#DejaVuSans-31"/>
      <use x="1525" xlink:href="#DejaVuSans-5f"/>
      <use x="1575" xlink:href="#DejaVuSans-52"/>
      <use x="1644.482422" xlink:href="#DejaVuSans-31"/>
      <use x="1708.105469" xlink:href="#DejaVuSans-5f"/>
      <use x="1758.105469" xlink:href="#DejaVuSans-30"/>
      <use x="1821.728516" xlink:href="#DejaVuSans-30"/>
      <use x="1885.351562" xlink:href="#DejaVuSans-31"/>
     </g>
    </g>
    <g id="line2d_37">
     <path d="M 800.076875 325.836834 
L 816.076875 325.836834 
" style="fill:none;stroke:#5cb85c;stroke-linecap:square;"/>
    </g>
    <g id="line2d_38"/>
    <g id="text_25">
     <!-- fastqc | SRR9264353_S0_L001_R1_001 -->
     <g transform="translate(822.476875 328.636834)scale(0.08 -0.08)">
      <use xlink:href="#DejaVuSans-66"/>
      <use x="35.205078" xlink:href="#DejaVuSans-61"/>
      <use x="96.484375" xlink:href="#DejaVuSans-73"/>
      <use x="148.583984" xlink:href="#DejaVuSans-74"/>
      <use x="187.792969" xlink:href="#DejaVuSans-71"/>
      <use x="251.269531" xlink:href="#DejaVuSans-63"/>
      <use x="306.25" xlink:href="#DejaVuSans-20"/>
      <use x="338.037109" xlink:href="#DejaVuSans-7c"/>
      <use x="371.728516" xlink:href="#DejaVuSans-20"/>
      <use x="403.515625" xlink:href="#DejaVuSans-53"/>
      <use x="466.992188" xlink:href="#DejaVuSans-52"/>
      <use x="536.474609" xlink:href="#DejaVuSans-52"/>
      <use x="605.957031" xlink:href="#DejaVuSans-39"/>
      <use x="669.580078" xlink:href="#DejaVuSans-32"/>
      <use x="733.203125" xlink:href="#DejaVuSans-36"/>
      <use x="796.826172" xlink:href="#DejaVuSans-34"/>
      <use x="860.449219" xlink:href="#DejaVuSans-33"/>
      <use x="924.072266" xlink:href="#DejaVuSans-35"/>
      <use x="987.695312" xlink:href="#DejaVuSans-33"/>
      <use x="1051.318359" xlink:href="#DejaVuSans-5f"/>
      <use x="1101.318359" xlink:href="#DejaVuSans-53"/>
      <use x="1164.794922" xlink:href="#DejaVuSans-30"/>
      <use x="1228.417969" xlink:href="#DejaVuSans-5f"/>
      <use x="1278.417969" xlink:href="#DejaVuSans-4c"/>
      <use x="1334.130859" xlink:href="#DejaVuSans-30"/>
      <use x="1397.753906" xlink:href="#DejaVuSans-30"/>
      <use x="1461.376953" xlink:href="#DejaVuSans-31"/>
      <use x="1525" xlink:href="#DejaVuSans-5f"/>
      <use x="1575" xlink:href="#DejaVuSans-52"/>
      <use x="1644.482422" xlink:href="#DejaVuSans-31"/>
      <use x="1708.105469" xlink:href="#DejaVuSans-5f"/>
      <use x="1758.105469" xlink:href="#DejaVuSans-30"/>
      <use x="1821.728516" xlink:href="#DejaVuSans-30"/>
      <use x="1885.351562" xlink:href="#DejaVuSans-31"/>
     </g>
    </g>
    <g id="line2d_39">
     <path d="M 800.076875 337.836834 
L 816.076875 337.836834 
" style="fill:none;stroke:#5cb85c;stroke-linecap:square;"/>
    </g>
    <g id="line2d_40"/>
    <g id="text_26">
     <!-- fastqc | SRR9264354_S0_L001_R1_001 -->
     <g transform="translate(822.476875 340.636834)scale(0.08 -0.08)">
      <use xlink:href="#DejaVuSans-66"/>
      <use x="35.205078" xlink:href="#DejaVuSans-61"/>
      <use x="96.484375" xlink:href="#DejaVuSans-73"/>
      <use x="148.583984" xlink:href="#DejaVuSans-74"/>
      <use x="187.792969" xlink:href="#DejaVuSans-71"/>
      <use x="251.269531" xlink:href="#DejaVuSans-63"/>
      <use x="306.25" xlink:href="#DejaVuSans-20"/>
      <use x="338.037109" xlink:href="#DejaVuSans-7c"/>
      <use x="371.728516" xlink:href="#DejaVuSans-20"/>
      <use x="403.515625" xlink:href="#DejaVuSans-53"/>
      <use x="466.992188" xlink:href="#DejaVuSans-52"/>
      <use x="536.474609" xlink:href="#DejaVuSans-52"/>
      <use x="605.957031" xlink:href="#DejaVuSans-39"/>
      <use x="669.580078" xlink:href="#DejaVuSans-32"/>
      <use x="733.203125" xlink:href="#DejaVuSans-36"/>
      <use x="796.826172" xlink:href="#DejaVuSans-34"/>
      <use x="860.449219" xlink:href="#DejaVuSans-33"/>
      <use x="924.072266" xlink:href="#DejaVuSans-35"/>
      <use x="987.695312" xlink:href="#DejaVuSans-34"/>
      <use x="1051.318359" xlink:href="#DejaVuSans-5f"/>
      <use x="1101.318359" xlink:href="#DejaVuSans-53"/>
      <use x="1164.794922" xlink:href="#DejaVuSans-30"/>
      <use x="1228.417969" xlink:href="#DejaVuSans-5f"/>
      <use x="1278.417969" xlink:href="#DejaVuSans-4c"/>
      <use x="1334.130859" xlink:href="#DejaVuSans-30"/>
      <use x="1397.753906" xlink:href="#DejaVuSans-30"/>
      <use x="1461.376953" xlink:href="#DejaVuSans-31"/>
      <use x="1525" xlink:href="#DejaVuSans-5f"/>
      <use x="1575" xlink:href="#DejaVuSans-52"/>
      <use x="1644.482422" xlink:href="#DejaVuSans-31"/>
      <use x="1708.105469" xlink:href="#DejaVuSans-5f"/>
      <use x="1758.105469" xlink:href="#DejaVuSans-30"/>
      <use x="1821.728516" xlink:href="#DejaVuSans-30"/>
      <use x="1885.351562" xlink:href="#DejaVuSans-31"/>
     </g>
    </g>
   </g>
  </g>
 </g>
 <defs>
  <clipPath id="p3d0a6b3bed">
   <rect height="269.5792" width="952.63" x="32.968125" y="32.83646"/>
  </clipPath>
 </defs>
</svg>
