<?xml version="1.0" encoding="utf-8" standalone="no"?>
<!DOCTYPE svg PUBLIC "-//W3C//DTD SVG 1.1//EN"
  "http://www.w3.org/Graphics/SVG/1.1/DTD/svg11.dtd">
<!-- Created with matplotlib (http://matplotlib.org/) -->
<svg height="364.923084pt" version="1.1" viewBox="0 0 1001.388125 364.923084" width="1001.388125pt" xmlns="http://www.w3.org/2000/svg" xmlns:xlink="http://www.w3.org/1999/xlink">
 <defs>
  <style type="text/css">
*{stroke-linecap:butt;stroke-linejoin:round;}
  </style>
 </defs>
 <g id="figure_1">
  <g id="patch_1">
   <path d="M 0 364.923084 
L 1001.388125 364.923084 
L 1001.388125 0 
L 0 0 
z
" style="fill:#ffffff;"/>
  </g>
  <g id="axes_1">
   <g id="patch_2">
    <path d="M 38.058125 302.41566 
L 990.688125 302.41566 
L 990.688125 32.83646 
L 38.058125 32.83646 
z
" style="fill:#ffffff;"/>
   </g>
   <g id="patch_3">
    <path clip-path="url(#p7e64b2a152)" d="M 38.058125 355.62761 
L 982.027852 355.62761 
L 982.027852 -123.279936 
L 38.058125 -123.279936 
z
" style="fill:#c3e6c3;"/>
   </g>
   <g id="patch_4">
    <path clip-path="url(#p7e64b2a152)" d="M 38.058125 195.991761 
L 982.027852 195.991761 
L 982.027852 142.779811 
L 38.058125 142.779811 
z
" style="fill:#e6dcc3;"/>
   </g>
   <g id="patch_5">
    <path clip-path="url(#p7e64b2a152)" d="M 38.058125 368.930597 
L 982.027852 368.930597 
L 982.027852 235.900723 
L 38.058125 235.900723 
z
" style="fill:#e6c3c3;"/>
   </g>
   <g id="matplotlib.axis_1">
    <g id="xtick_1">
     <g id="text_1">
      <!-- 0 -->
      <defs>
       <path d="M 31.78125 66.40625 
Q 24.171875 66.40625 20.328125 58.90625 
Q 16.5 51.421875 16.5 36.375 
Q 16.5 21.390625 20.328125 13.890625 
Q 24.171875 6.390625 31.78125 6.390625 
Q 39.453125 6.390625 43.28125 13.890625 
Q 47.125 21.390625 47.125 36.375 
Q 47.125 51.421875 43.28125 58.90625 
Q 39.453125 66.40625 31.78125 66.40625 
z
M 31.78125 74.21875 
Q 44.046875 74.21875 50.515625 64.515625 
Q 56.984375 54.828125 56.984375 36.375 
Q 56.984375 17.96875 50.515625 8.265625 
Q 44.046875 -1.421875 31.78125 -1.421875 
Q 19.53125 -1.421875 13.0625 8.265625 
Q 6.59375 17.96875 6.59375 36.375 
Q 6.59375 54.828125 13.0625 64.515625 
Q 19.53125 74.21875 31.78125 74.21875 
z
" id="DejaVuSans-30"/>
      </defs>
      <g transform="translate(44.173398 315.49441)scale(0.08 -0.08)">
       <use xlink:href="#DejaVuSans-30"/>
      </g>
     </g>
    </g>
    <g id="xtick_2">
     <g id="text_2">
      <!-- 5 -->
      <defs>
       <path d="M 10.796875 72.90625 
L 49.515625 72.90625 
L 49.515625 64.59375 
L 19.828125 64.59375 
L 19.828125 46.734375 
Q 21.96875 47.46875 24.109375 47.828125 
Q 26.265625 48.1875 28.421875 48.1875 
Q 40.625 48.1875 47.75 41.5 
Q 54.890625 34.8125 54.890625 23.390625 
Q 54.890625 11.625 47.5625 5.09375 
Q 40.234375 -1.421875 26.90625 -1.421875 
Q 22.3125 -1.421875 17.546875 -0.640625 
Q 12.796875 0.140625 7.71875 1.703125 
L 7.71875 11.625 
Q 12.109375 9.234375 16.796875 8.0625 
Q 21.484375 6.890625 26.703125 6.890625 
Q 35.15625 6.890625 40.078125 11.328125 
Q 45.015625 15.765625 45.015625 23.390625 
Q 45.015625 31 40.078125 35.4375 
Q 35.15625 39.890625 26.703125 39.890625 
Q 22.75 39.890625 18.8125 39.015625 
Q 14.890625 38.140625 10.796875 36.28125 
z
" id="DejaVuSans-35"/>
      </defs>
      <g transform="translate(217.378852 315.49441)scale(0.08 -0.08)">
       <use xlink:href="#DejaVuSans-35"/>
      </g>
     </g>
    </g>
    <g id="xtick_3">
     <g id="text_3">
      <!-- 10 -->
      <defs>
       <path d="M 12.40625 8.296875 
L 28.515625 8.296875 
L 28.515625 63.921875 
L 10.984375 60.40625 
L 10.984375 69.390625 
L 28.421875 72.90625 
L 38.28125 72.90625 
L 38.28125 8.296875 
L 54.390625 8.296875 
L 54.390625 0 
L 12.40625 0 
z
" id="DejaVuSans-31"/>
      </defs>
      <g transform="translate(388.039307 315.49441)scale(0.08 -0.08)">
       <use xlink:href="#DejaVuSans-31"/>
       <use x="63.623047" xlink:href="#DejaVuSans-30"/>
      </g>
     </g>
    </g>
    <g id="xtick_4">
     <g id="text_4">
      <!-- 15 -->
      <g transform="translate(561.244761 315.49441)scale(0.08 -0.08)">
       <use xlink:href="#DejaVuSans-31"/>
       <use x="63.623047" xlink:href="#DejaVuSans-35"/>
      </g>
     </g>
    </g>
    <g id="xtick_5">
     <g id="text_5">
      <!-- 20 -->
      <defs>
       <path d="M 19.1875 8.296875 
L 53.609375 8.296875 
L 53.609375 0 
L 7.328125 0 
L 7.328125 8.296875 
Q 12.9375 14.109375 22.625 23.890625 
Q 32.328125 33.6875 34.8125 36.53125 
Q 39.546875 41.84375 41.421875 45.53125 
Q 43.3125 49.21875 43.3125 52.78125 
Q 43.3125 58.59375 39.234375 62.25 
Q 35.15625 65.921875 28.609375 65.921875 
Q 23.96875 65.921875 18.8125 64.3125 
Q 13.671875 62.703125 7.8125 59.421875 
L 7.8125 69.390625 
Q 13.765625 71.78125 18.9375 73 
Q 24.125 74.21875 28.421875 74.21875 
Q 39.75 74.21875 46.484375 68.546875 
Q 53.21875 62.890625 53.21875 53.421875 
Q 53.21875 48.921875 51.53125 44.890625 
Q 49.859375 40.875 45.40625 35.40625 
Q 44.1875 33.984375 37.640625 27.21875 
Q 31.109375 20.453125 19.1875 8.296875 
z
" id="DejaVuSans-32"/>
      </defs>
      <g transform="translate(734.450216 315.49441)scale(0.08 -0.08)">
       <use xlink:href="#DejaVuSans-32"/>
       <use x="63.623047" xlink:href="#DejaVuSans-30"/>
      </g>
     </g>
    </g>
    <g id="xtick_6">
     <g id="text_6">
      <!-- 25 -->
      <g transform="translate(907.65567 315.49441)scale(0.08 -0.08)">
       <use xlink:href="#DejaVuSans-32"/>
       <use x="63.623047" xlink:href="#DejaVuSans-35"/>
      </g>
     </g>
    </g>
    <g id="text_7">
     <!-- Position (bp) -->
     <defs>
      <path d="M 19.671875 64.796875 
L 19.671875 37.40625 
L 32.078125 37.40625 
Q 38.96875 37.40625 42.71875 40.96875 
Q 46.484375 44.53125 46.484375 51.125 
Q 46.484375 57.671875 42.71875 61.234375 
Q 38.96875 64.796875 32.078125 64.796875 
z
M 9.8125 72.90625 
L 32.078125 72.90625 
Q 44.34375 72.90625 50.609375 67.359375 
Q 56.890625 61.8125 56.890625 51.125 
Q 56.890625 40.328125 50.609375 34.8125 
Q 44.34375 29.296875 32.078125 29.296875 
L 19.671875 29.296875 
L 19.671875 0 
L 9.8125 0 
z
" id="DejaVuSans-50"/>
      <path d="M 30.609375 48.390625 
Q 23.390625 48.390625 19.1875 42.75 
Q 14.984375 37.109375 14.984375 27.296875 
Q 14.984375 17.484375 19.15625 11.84375 
Q 23.34375 6.203125 30.609375 6.203125 
Q 37.796875 6.203125 41.984375 11.859375 
Q 46.1875 17.53125 46.1875 27.296875 
Q 46.1875 37.015625 41.984375 42.703125 
Q 37.796875 48.390625 30.609375 48.390625 
z
M 30.609375 56 
Q 42.328125 56 49.015625 48.375 
Q 55.71875 40.765625 55.71875 27.296875 
Q 55.71875 13.875 49.015625 6.21875 
Q 42.328125 -1.421875 30.609375 -1.421875 
Q 18.84375 -1.421875 12.171875 6.21875 
Q 5.515625 13.875 5.515625 27.296875 
Q 5.515625 40.765625 12.171875 48.375 
Q 18.84375 56 30.609375 56 
z
" id="DejaVuSans-6f"/>
      <path d="M 44.28125 53.078125 
L 44.28125 44.578125 
Q 40.484375 46.53125 36.375 47.5 
Q 32.28125 48.484375 27.875 48.484375 
Q 21.1875 48.484375 17.84375 46.4375 
Q 14.5 44.390625 14.5 40.28125 
Q 14.5 37.15625 16.890625 35.375 
Q 19.28125 33.59375 26.515625 31.984375 
L 29.59375 31.296875 
Q 39.15625 29.25 43.1875 25.515625 
Q 47.21875 21.78125 47.21875 15.09375 
Q 47.21875 7.46875 41.1875 3.015625 
Q 35.15625 -1.421875 24.609375 -1.421875 
Q 20.21875 -1.421875 15.453125 -0.5625 
Q 10.6875 0.296875 5.421875 2 
L 5.421875 11.28125 
Q 10.40625 8.6875 15.234375 7.390625 
Q 20.0625 6.109375 24.8125 6.109375 
Q 31.15625 6.109375 34.5625 8.28125 
Q 37.984375 10.453125 37.984375 14.40625 
Q 37.984375 18.0625 35.515625 20.015625 
Q 33.0625 21.96875 24.703125 23.78125 
L 21.578125 24.515625 
Q 13.234375 26.265625 9.515625 29.90625 
Q 5.8125 33.546875 5.8125 39.890625 
Q 5.8125 47.609375 11.28125 51.796875 
Q 16.75 56 26.8125 56 
Q 31.78125 56 36.171875 55.265625 
Q 40.578125 54.546875 44.28125 53.078125 
z
" id="DejaVuSans-73"/>
      <path d="M 9.421875 54.6875 
L 18.40625 54.6875 
L 18.40625 0 
L 9.421875 0 
z
M 9.421875 75.984375 
L 18.40625 75.984375 
L 18.40625 64.59375 
L 9.421875 64.59375 
z
" id="DejaVuSans-69"/>
      <path d="M 18.3125 70.21875 
L 18.3125 54.6875 
L 36.8125 54.6875 
L 36.8125 47.703125 
L 18.3125 47.703125 
L 18.3125 18.015625 
Q 18.3125 11.328125 20.140625 9.421875 
Q 21.96875 7.515625 27.59375 7.515625 
L 36.8125 7.515625 
L 36.8125 0 
L 27.59375 0 
Q 17.1875 0 13.234375 3.875 
Q 9.28125 7.765625 9.28125 18.015625 
L 9.28125 47.703125 
L 2.6875 47.703125 
L 2.6875 54.6875 
L 9.28125 54.6875 
L 9.28125 70.21875 
z
" id="DejaVuSans-74"/>
      <path d="M 54.890625 33.015625 
L 54.890625 0 
L 45.90625 0 
L 45.90625 32.71875 
Q 45.90625 40.484375 42.875 44.328125 
Q 39.84375 48.1875 33.796875 48.1875 
Q 26.515625 48.1875 22.3125 43.546875 
Q 18.109375 38.921875 18.109375 30.90625 
L 18.109375 0 
L 9.078125 0 
L 9.078125 54.6875 
L 18.109375 54.6875 
L 18.109375 46.1875 
Q 21.34375 51.125 25.703125 53.5625 
Q 30.078125 56 35.796875 56 
Q 45.21875 56 50.046875 50.171875 
Q 54.890625 44.34375 54.890625 33.015625 
z
" id="DejaVuSans-6e"/>
      <path id="DejaVuSans-20"/>
      <path d="M 31 75.875 
Q 24.46875 64.65625 21.28125 53.65625 
Q 18.109375 42.671875 18.109375 31.390625 
Q 18.109375 20.125 21.3125 9.0625 
Q 24.515625 -2 31 -13.1875 
L 23.1875 -13.1875 
Q 15.875 -1.703125 12.234375 9.375 
Q 8.59375 20.453125 8.59375 31.390625 
Q 8.59375 42.28125 12.203125 53.3125 
Q 15.828125 64.359375 23.1875 75.875 
z
" id="DejaVuSans-28"/>
      <path d="M 48.6875 27.296875 
Q 48.6875 37.203125 44.609375 42.84375 
Q 40.53125 48.484375 33.40625 48.484375 
Q 26.265625 48.484375 22.1875 42.84375 
Q 18.109375 37.203125 18.109375 27.296875 
Q 18.109375 17.390625 22.1875 11.75 
Q 26.265625 6.109375 33.40625 6.109375 
Q 40.53125 6.109375 44.609375 11.75 
Q 48.6875 17.390625 48.6875 27.296875 
z
M 18.109375 46.390625 
Q 20.953125 51.265625 25.265625 53.625 
Q 29.59375 56 35.59375 56 
Q 45.5625 56 51.78125 48.09375 
Q 58.015625 40.1875 58.015625 27.296875 
Q 58.015625 14.40625 51.78125 6.484375 
Q 45.5625 -1.421875 35.59375 -1.421875 
Q 29.59375 -1.421875 25.265625 0.953125 
Q 20.953125 3.328125 18.109375 8.203125 
L 18.109375 0 
L 9.078125 0 
L 9.078125 75.984375 
L 18.109375 75.984375 
z
" id="DejaVuSans-62"/>
      <path d="M 18.109375 8.203125 
L 18.109375 -20.796875 
L 9.078125 -20.796875 
L 9.078125 54.6875 
L 18.109375 54.6875 
L 18.109375 46.390625 
Q 20.953125 51.265625 25.265625 53.625 
Q 29.59375 56 35.59375 56 
Q 45.5625 56 51.78125 48.09375 
Q 58.015625 40.1875 58.015625 27.296875 
Q 58.015625 14.40625 51.78125 6.484375 
Q 45.5625 -1.421875 35.59375 -1.421875 
Q 29.59375 -1.421875 25.265625 0.953125 
Q 20.953125 3.328125 18.109375 8.203125 
z
M 48.6875 27.296875 
Q 48.6875 37.203125 44.609375 42.84375 
Q 40.53125 48.484375 33.40625 48.484375 
Q 26.265625 48.484375 22.1875 42.84375 
Q 18.109375 37.203125 18.109375 27.296875 
Q 18.109375 17.390625 22.1875 11.75 
Q 26.265625 6.109375 33.40625 6.109375 
Q 40.53125 6.109375 44.609375 11.75 
Q 48.6875 17.390625 48.6875 27.296875 
z
" id="DejaVuSans-70"/>
      <path d="M 8.015625 75.875 
L 15.828125 75.875 
Q 23.140625 64.359375 26.78125 53.3125 
Q 30.421875 42.28125 30.421875 31.390625 
Q 30.421875 20.453125 26.78125 9.375 
Q 23.140625 -1.703125 15.828125 -13.1875 
L 8.015625 -13.1875 
Q 14.5 -2 17.703125 9.0625 
Q 20.90625 20.125 20.90625 31.390625 
Q 20.90625 42.671875 17.703125 53.65625 
Q 14.5 64.65625 8.015625 75.875 
z
" id="DejaVuSans-29"/>
     </defs>
     <g transform="translate(482.891094 328.756597)scale(0.1 -0.1)">
      <use xlink:href="#DejaVuSans-50"/>
      <use x="60.255859" xlink:href="#DejaVuSans-6f"/>
      <use x="121.4375" xlink:href="#DejaVuSans-73"/>
      <use x="173.537109" xlink:href="#DejaVuSans-69"/>
      <use x="201.320312" xlink:href="#DejaVuSans-74"/>
      <use x="240.529297" xlink:href="#DejaVuSans-69"/>
      <use x="268.3125" xlink:href="#DejaVuSans-6f"/>
      <use x="329.494141" xlink:href="#DejaVuSans-6e"/>
      <use x="392.873047" xlink:href="#DejaVuSans-20"/>
      <use x="424.660156" xlink:href="#DejaVuSans-28"/>
      <use x="463.673828" xlink:href="#DejaVuSans-62"/>
      <use x="527.150391" xlink:href="#DejaVuSans-70"/>
      <use x="590.626953" xlink:href="#DejaVuSans-29"/>
     </g>
    </g>
   </g>
   <g id="matplotlib.axis_2">
    <g id="ytick_1">
     <g id="line2d_1">
      <path clip-path="url(#p7e64b2a152)" d="M 38.058125 302.41566 
L 990.688125 302.41566 
" style="fill:none;stroke:#dedede;stroke-linecap:square;"/>
     </g>
     <g id="text_8">
      <!-- 0 -->
      <g transform="translate(25.968125 305.455035)scale(0.08 -0.08)">
       <use xlink:href="#DejaVuSans-30"/>
      </g>
     </g>
    </g>
    <g id="ytick_2">
     <g id="line2d_2">
      <path clip-path="url(#p7e64b2a152)" d="M 38.058125 269.158192 
L 990.688125 269.158192 
" style="fill:none;stroke:#dedede;stroke-linecap:square;"/>
     </g>
     <g id="text_9">
      <!-- 5 -->
      <g transform="translate(25.968125 272.197567)scale(0.08 -0.08)">
       <use xlink:href="#DejaVuSans-35"/>
      </g>
     </g>
    </g>
    <g id="ytick_3">
     <g id="line2d_3">
      <path clip-path="url(#p7e64b2a152)" d="M 38.058125 235.900723 
L 990.688125 235.900723 
" style="fill:none;stroke:#dedede;stroke-linecap:square;"/>
     </g>
     <g id="text_10">
      <!-- 10 -->
      <g transform="translate(20.878125 238.940098)scale(0.08 -0.08)">
       <use xlink:href="#DejaVuSans-31"/>
       <use x="63.623047" xlink:href="#DejaVuSans-30"/>
      </g>
     </g>
    </g>
    <g id="ytick_4">
     <g id="line2d_4">
      <path clip-path="url(#p7e64b2a152)" d="M 38.058125 202.643255 
L 990.688125 202.643255 
" style="fill:none;stroke:#dedede;stroke-linecap:square;"/>
     </g>
     <g id="text_11">
      <!-- 15 -->
      <g transform="translate(20.878125 205.68263)scale(0.08 -0.08)">
       <use xlink:href="#DejaVuSans-31"/>
       <use x="63.623047" xlink:href="#DejaVuSans-35"/>
      </g>
     </g>
    </g>
    <g id="ytick_5">
     <g id="line2d_5">
      <path clip-path="url(#p7e64b2a152)" d="M 38.058125 169.385786 
L 990.688125 169.385786 
" style="fill:none;stroke:#dedede;stroke-linecap:square;"/>
     </g>
     <g id="text_12">
      <!-- 20 -->
      <g transform="translate(20.878125 172.425161)scale(0.08 -0.08)">
       <use xlink:href="#DejaVuSans-32"/>
       <use x="63.623047" xlink:href="#DejaVuSans-30"/>
      </g>
     </g>
    </g>
    <g id="ytick_6">
     <g id="line2d_6">
      <path clip-path="url(#p7e64b2a152)" d="M 38.058125 136.128318 
L 990.688125 136.128318 
" style="fill:none;stroke:#dedede;stroke-linecap:square;"/>
     </g>
     <g id="text_13">
      <!-- 25 -->
      <g transform="translate(20.878125 139.167693)scale(0.08 -0.08)">
       <use xlink:href="#DejaVuSans-32"/>
       <use x="63.623047" xlink:href="#DejaVuSans-35"/>
      </g>
     </g>
    </g>
    <g id="ytick_7">
     <g id="line2d_7">
      <path clip-path="url(#p7e64b2a152)" d="M 38.058125 102.870849 
L 990.688125 102.870849 
" style="fill:none;stroke:#dedede;stroke-linecap:square;"/>
     </g>
     <g id="text_14">
      <!-- 30 -->
      <defs>
       <path d="M 40.578125 39.3125 
Q 47.65625 37.796875 51.625 33 
Q 55.609375 28.21875 55.609375 21.1875 
Q 55.609375 10.40625 48.1875 4.484375 
Q 40.765625 -1.421875 27.09375 -1.421875 
Q 22.515625 -1.421875 17.65625 -0.515625 
Q 12.796875 0.390625 7.625 2.203125 
L 7.625 11.71875 
Q 11.71875 9.328125 16.59375 8.109375 
Q 21.484375 6.890625 26.8125 6.890625 
Q 36.078125 6.890625 40.9375 10.546875 
Q 45.796875 14.203125 45.796875 21.1875 
Q 45.796875 27.640625 41.28125 31.265625 
Q 36.765625 34.90625 28.71875 34.90625 
L 20.21875 34.90625 
L 20.21875 43.015625 
L 29.109375 43.015625 
Q 36.375 43.015625 40.234375 45.921875 
Q 44.09375 48.828125 44.09375 54.296875 
Q 44.09375 59.90625 40.109375 62.90625 
Q 36.140625 65.921875 28.71875 65.921875 
Q 24.65625 65.921875 20.015625 65.03125 
Q 15.375 64.15625 9.8125 62.3125 
L 9.8125 71.09375 
Q 15.4375 72.65625 20.34375 73.4375 
Q 25.25 74.21875 29.59375 74.21875 
Q 40.828125 74.21875 47.359375 69.109375 
Q 53.90625 64.015625 53.90625 55.328125 
Q 53.90625 49.265625 50.4375 45.09375 
Q 46.96875 40.921875 40.578125 39.3125 
z
" id="DejaVuSans-33"/>
      </defs>
      <g transform="translate(20.878125 105.910224)scale(0.08 -0.08)">
       <use xlink:href="#DejaVuSans-33"/>
       <use x="63.623047" xlink:href="#DejaVuSans-30"/>
      </g>
     </g>
    </g>
    <g id="ytick_8">
     <g id="line2d_8">
      <path clip-path="url(#p7e64b2a152)" d="M 38.058125 69.613381 
L 990.688125 69.613381 
" style="fill:none;stroke:#dedede;stroke-linecap:square;"/>
     </g>
     <g id="text_15">
      <!-- 35 -->
      <g transform="translate(20.878125 72.652756)scale(0.08 -0.08)">
       <use xlink:href="#DejaVuSans-33"/>
       <use x="63.623047" xlink:href="#DejaVuSans-35"/>
      </g>
     </g>
    </g>
    <g id="ytick_9">
     <g id="line2d_9">
      <path clip-path="url(#p7e64b2a152)" d="M 38.058125 36.355912 
L 990.688125 36.355912 
" style="fill:none;stroke:#dedede;stroke-linecap:square;"/>
     </g>
     <g id="text_16">
      <!-- 40 -->
      <defs>
       <path d="M 37.796875 64.3125 
L 12.890625 25.390625 
L 37.796875 25.390625 
z
M 35.203125 72.90625 
L 47.609375 72.90625 
L 47.609375 25.390625 
L 58.015625 25.390625 
L 58.015625 17.1875 
L 47.609375 17.1875 
L 47.609375 0 
L 37.796875 0 
L 37.796875 17.1875 
L 4.890625 17.1875 
L 4.890625 26.703125 
z
" id="DejaVuSans-34"/>
      </defs>
      <g transform="translate(20.878125 39.395287)scale(0.08 -0.08)">
       <use xlink:href="#DejaVuSans-34"/>
       <use x="63.623047" xlink:href="#DejaVuSans-30"/>
      </g>
     </g>
    </g>
    <g id="text_17">
     <!-- Phred Score -->
     <defs>
      <path d="M 54.890625 33.015625 
L 54.890625 0 
L 45.90625 0 
L 45.90625 32.71875 
Q 45.90625 40.484375 42.875 44.328125 
Q 39.84375 48.1875 33.796875 48.1875 
Q 26.515625 48.1875 22.3125 43.546875 
Q 18.109375 38.921875 18.109375 30.90625 
L 18.109375 0 
L 9.078125 0 
L 9.078125 75.984375 
L 18.109375 75.984375 
L 18.109375 46.1875 
Q 21.34375 51.125 25.703125 53.5625 
Q 30.078125 56 35.796875 56 
Q 45.21875 56 50.046875 50.171875 
Q 54.890625 44.34375 54.890625 33.015625 
z
" id="DejaVuSans-68"/>
      <path d="M 41.109375 46.296875 
Q 39.59375 47.171875 37.8125 47.578125 
Q 36.03125 48 33.890625 48 
Q 26.265625 48 22.1875 43.046875 
Q 18.109375 38.09375 18.109375 28.8125 
L 18.109375 0 
L 9.078125 0 
L 9.078125 54.6875 
L 18.109375 54.6875 
L 18.109375 46.1875 
Q 20.953125 51.171875 25.484375 53.578125 
Q 30.03125 56 36.53125 56 
Q 37.453125 56 38.578125 55.875 
Q 39.703125 55.765625 41.0625 55.515625 
z
" id="DejaVuSans-72"/>
      <path d="M 56.203125 29.59375 
L 56.203125 25.203125 
L 14.890625 25.203125 
Q 15.484375 15.921875 20.484375 11.0625 
Q 25.484375 6.203125 34.421875 6.203125 
Q 39.59375 6.203125 44.453125 7.46875 
Q 49.3125 8.734375 54.109375 11.28125 
L 54.109375 2.78125 
Q 49.265625 0.734375 44.1875 -0.34375 
Q 39.109375 -1.421875 33.890625 -1.421875 
Q 20.796875 -1.421875 13.15625 6.1875 
Q 5.515625 13.8125 5.515625 26.8125 
Q 5.515625 40.234375 12.765625 48.109375 
Q 20.015625 56 32.328125 56 
Q 43.359375 56 49.78125 48.890625 
Q 56.203125 41.796875 56.203125 29.59375 
z
M 47.21875 32.234375 
Q 47.125 39.59375 43.09375 43.984375 
Q 39.0625 48.390625 32.421875 48.390625 
Q 24.90625 48.390625 20.390625 44.140625 
Q 15.875 39.890625 15.1875 32.171875 
z
" id="DejaVuSans-65"/>
      <path d="M 45.40625 46.390625 
L 45.40625 75.984375 
L 54.390625 75.984375 
L 54.390625 0 
L 45.40625 0 
L 45.40625 8.203125 
Q 42.578125 3.328125 38.25 0.953125 
Q 33.9375 -1.421875 27.875 -1.421875 
Q 17.96875 -1.421875 11.734375 6.484375 
Q 5.515625 14.40625 5.515625 27.296875 
Q 5.515625 40.1875 11.734375 48.09375 
Q 17.96875 56 27.875 56 
Q 33.9375 56 38.25 53.625 
Q 42.578125 51.265625 45.40625 46.390625 
z
M 14.796875 27.296875 
Q 14.796875 17.390625 18.875 11.75 
Q 22.953125 6.109375 30.078125 6.109375 
Q 37.203125 6.109375 41.296875 11.75 
Q 45.40625 17.390625 45.40625 27.296875 
Q 45.40625 37.203125 41.296875 42.84375 
Q 37.203125 48.484375 30.078125 48.484375 
Q 22.953125 48.484375 18.875 42.84375 
Q 14.796875 37.203125 14.796875 27.296875 
z
" id="DejaVuSans-64"/>
      <path d="M 53.515625 70.515625 
L 53.515625 60.890625 
Q 47.90625 63.578125 42.921875 64.890625 
Q 37.9375 66.21875 33.296875 66.21875 
Q 25.25 66.21875 20.875 63.09375 
Q 16.5 59.96875 16.5 54.203125 
Q 16.5 49.359375 19.40625 46.890625 
Q 22.3125 44.4375 30.421875 42.921875 
L 36.375 41.703125 
Q 47.40625 39.59375 52.65625 34.296875 
Q 57.90625 29 57.90625 20.125 
Q 57.90625 9.515625 50.796875 4.046875 
Q 43.703125 -1.421875 29.984375 -1.421875 
Q 24.8125 -1.421875 18.96875 -0.25 
Q 13.140625 0.921875 6.890625 3.21875 
L 6.890625 13.375 
Q 12.890625 10.015625 18.65625 8.296875 
Q 24.421875 6.59375 29.984375 6.59375 
Q 38.421875 6.59375 43.015625 9.90625 
Q 47.609375 13.234375 47.609375 19.390625 
Q 47.609375 24.75 44.3125 27.78125 
Q 41.015625 30.8125 33.5 32.328125 
L 27.484375 33.5 
Q 16.453125 35.6875 11.515625 40.375 
Q 6.59375 45.0625 6.59375 53.421875 
Q 6.59375 63.09375 13.40625 68.65625 
Q 20.21875 74.21875 32.171875 74.21875 
Q 37.3125 74.21875 42.625 73.28125 
Q 47.953125 72.359375 53.515625 70.515625 
z
" id="DejaVuSans-53"/>
      <path d="M 48.78125 52.59375 
L 48.78125 44.1875 
Q 44.96875 46.296875 41.140625 47.34375 
Q 37.3125 48.390625 33.40625 48.390625 
Q 24.65625 48.390625 19.8125 42.84375 
Q 14.984375 37.3125 14.984375 27.296875 
Q 14.984375 17.28125 19.8125 11.734375 
Q 24.65625 6.203125 33.40625 6.203125 
Q 37.3125 6.203125 41.140625 7.25 
Q 44.96875 8.296875 48.78125 10.40625 
L 48.78125 2.09375 
Q 45.015625 0.34375 40.984375 -0.53125 
Q 36.96875 -1.421875 32.421875 -1.421875 
Q 20.0625 -1.421875 12.78125 6.34375 
Q 5.515625 14.109375 5.515625 27.296875 
Q 5.515625 40.671875 12.859375 48.328125 
Q 20.21875 56 33.015625 56 
Q 37.15625 56 41.109375 55.140625 
Q 45.0625 54.296875 48.78125 52.59375 
z
" id="DejaVuSans-63"/>
     </defs>
     <g transform="translate(14.798438 197.816685)rotate(-90)scale(0.1 -0.1)">
      <use xlink:href="#DejaVuSans-50"/>
      <use x="60.302734" xlink:href="#DejaVuSans-68"/>
      <use x="123.681641" xlink:href="#DejaVuSans-72"/>
      <use x="164.763672" xlink:href="#DejaVuSans-65"/>
      <use x="226.287109" xlink:href="#DejaVuSans-64"/>
      <use x="289.763672" xlink:href="#DejaVuSans-20"/>
      <use x="321.550781" xlink:href="#DejaVuSans-53"/>
      <use x="385.027344" xlink:href="#DejaVuSans-63"/>
      <use x="440.007812" xlink:href="#DejaVuSans-6f"/>
      <use x="501.189453" xlink:href="#DejaVuSans-72"/>
      <use x="542.271484" xlink:href="#DejaVuSans-65"/>
     </g>
    </g>
   </g>
   <g id="line2d_10">
    <path clip-path="url(#p7e64b2a152)" d="M 81.359489 94.178085 
L 116.00058 92.988264 
L 150.64167 67.920416 
L 185.282761 63.837315 
L 219.923852 61.770581 
L 254.564943 39.545457 
L 289.206034 38.566829 
L 323.847125 37.873358 
L 358.488216 38.368698 
L 393.129307 37.80807 
L 427.770398 37.762516 
L 462.411489 37.833168 
L 497.05258 37.991545 
L 531.69367 38.014438 
L 566.334761 38.246484 
L 600.975852 38.321126 
L 635.616943 38.214588 
L 670.258034 38.850454 
L 704.899125 38.382572 
L 739.540216 38.43302 
L 774.181307 38.211468 
L 808.822398 38.594665 
L 843.463489 38.168328 
L 878.10458 37.863104 
L 912.74567 37.770247 
L 947.386761 38.75322 
" style="fill:none;stroke:#5cb85c;stroke-linecap:square;"/>
   </g>
   <g id="line2d_11">
    <path clip-path="url(#p7e64b2a152)" d="M 81.359489 94.463103 
L 116.00058 93.022558 
L 150.64167 67.875592 
L 185.282761 63.78096 
L 219.923852 61.939423 
L 254.564943 39.398928 
L 289.206034 39.461654 
L 323.847125 38.135162 
L 358.488216 38.43294 
L 393.129307 37.749196 
L 427.770398 37.70855 
L 462.411489 37.875928 
L 497.05258 37.987658 
L 531.69367 38.057576 
L 566.334761 38.200411 
L 600.975852 38.299998 
L 635.616943 38.156658 
L 670.258034 38.199003 
L 704.899125 38.196967 
L 739.540216 38.164725 
L 774.181307 38.078231 
L 808.822398 37.971751 
L 843.463489 37.885914 
L 878.10458 37.607643 
L 912.74567 37.479334 
L 947.386761 38.705563 
" style="fill:none;stroke:#5cb85c;stroke-linecap:square;"/>
   </g>
   <g id="line2d_12">
    <path clip-path="url(#p7e64b2a152)" d="M 81.359489 95.207201 
L 116.00058 93.62679 
L 150.64167 69.545633 
L 185.282761 65.141248 
L 219.923852 62.97799 
L 254.564943 41.20531 
L 289.206034 40.209028 
L 323.847125 39.485181 
L 358.488216 39.960148 
L 393.129307 39.290686 
L 427.770398 39.324658 
L 462.411489 39.513013 
L 497.05258 39.585693 
L 531.69367 39.6765 
L 566.334761 39.915774 
L 600.975852 40.179614 
L 635.616943 39.795485 
L 670.258034 40.051342 
L 704.899125 39.95231 
L 739.540216 40.268799 
L 774.181307 40.081941 
L 808.822398 40.080863 
L 843.463489 39.779279 
L 878.10458 39.371673 
L 912.74567 39.229776 
L 947.386761 40.698125 
" style="fill:none;stroke:#5cb85c;stroke-linecap:square;"/>
   </g>
   <g id="line2d_13">
    <path clip-path="url(#p7e64b2a152)" d="M 81.359489 95.314564 
L 116.00058 92.985178 
L 150.64167 68.59456 
L 185.282761 64.050851 
L 219.923852 62.234227 
L 254.564943 40.283784 
L 289.206034 39.170188 
L 323.847125 38.527372 
L 358.488216 39.03413 
L 393.129307 38.36445 
L 427.770398 38.300846 
L 462.411489 38.481949 
L 497.05258 38.715199 
L 531.69367 38.73174 
L 566.334761 38.952997 
L 600.975852 39.045933 
L 635.616943 38.880493 
L 670.258034 39.046313 
L 704.899125 39.005834 
L 739.540216 38.987987 
L 774.181307 38.95491 
L 808.822398 38.813858 
L 843.463489 38.678805 
L 878.10458 38.445867 
L 912.74567 38.338744 
L 947.386761 39.5065 
" style="fill:none;stroke:#5cb85c;stroke-linecap:square;"/>
   </g>
   <g id="line2d_14">
    <path clip-path="url(#p7e64b2a152)" d="M 81.359489 94.581774 
L 116.00058 93.337846 
L 150.64167 68.747707 
L 185.282761 64.119896 
L 219.923852 62.416797 
L 254.564943 40.594817 
L 289.206034 39.433953 
L 323.847125 38.555337 
L 358.488216 38.999272 
L 393.129307 38.56736 
L 427.770398 38.587449 
L 462.411489 38.564799 
L 497.05258 38.713748 
L 531.69367 38.706281 
L 566.334761 39.467501 
L 600.975852 39.379416 
L 635.616943 39.000897 
L 670.258034 39.046607 
L 704.899125 39.044035 
L 739.540216 39.121028 
L 774.181307 39.013013 
L 808.822398 38.816478 
L 843.463489 38.577549 
L 878.10458 38.399111 
L 912.74567 38.774289 
L 947.386761 39.675664 
" style="fill:none;stroke:#5cb85c;stroke-linecap:square;"/>
   </g>
   <g id="line2d_15">
    <path clip-path="url(#p7e64b2a152)" d="M 81.359489 94.214748 
L 116.00058 93.259855 
L 150.64167 68.185371 
L 185.282761 64.35441 
L 219.923852 62.221511 
L 254.564943 40.188527 
L 289.206034 39.2369 
L 323.847125 38.318479 
L 358.488216 38.625836 
L 393.129307 38.209383 
L 427.770398 38.153111 
L 462.411489 38.199039 
L 497.05258 38.315116 
L 531.69367 38.531839 
L 566.334761 38.681229 
L 600.975852 38.814568 
L 635.616943 38.606993 
L 670.258034 38.656918 
L 704.899125 38.815852 
L 739.540216 38.764728 
L 774.181307 38.490862 
L 808.822398 38.528981 
L 843.463489 38.263145 
L 878.10458 38.140226 
L 912.74567 38.10628 
L 947.386761 39.190293 
" style="fill:none;stroke:#5cb85c;stroke-linecap:square;"/>
   </g>
   <g id="line2d_16">
    <path clip-path="url(#p7e64b2a152)" d="M 81.359489 93.959353 
L 116.00058 93.231484 
L 150.64167 68.380887 
L 185.282761 64.296564 
L 219.923852 62.30014 
L 254.564943 40.0835 
L 289.206034 39.01871 
L 323.847125 38.299443 
L 358.488216 38.97805 
L 393.129307 38.333298 
L 427.770398 38.155605 
L 462.411489 38.229531 
L 497.05258 38.42746 
L 531.69367 38.455743 
L 566.334761 38.927924 
L 600.975852 38.913467 
L 635.616943 38.68791 
L 670.258034 38.849781 
L 704.899125 38.77331 
L 739.540216 38.888344 
L 774.181307 38.967688 
L 808.822398 38.620119 
L 843.463489 38.942734 
L 878.10458 38.20677 
L 912.74567 38.100099 
L 947.386761 39.259712 
" style="fill:none;stroke:#5cb85c;stroke-linecap:square;"/>
   </g>
   <g id="line2d_17">
    <path clip-path="url(#p7e64b2a152)" d="M 81.359489 95.010605 
L 116.00058 93.609984 
L 150.64167 70.527956 
L 185.282761 64.63333 
L 219.923852 62.556525 
L 254.564943 40.640794 
L 289.206034 39.454295 
L 323.847125 38.0709 
L 358.488216 37.837444 
L 393.129307 35.811905 
L 427.770398 36.267459 
L 462.411489 36.939088 
L 497.05258 37.581425 
L 531.69367 37.495756 
L 566.334761 36.645864 
L 600.975852 37.889839 
L 635.616943 37.547537 
L 670.258034 37.664343 
L 704.899125 38.751234 
L 739.540216 38.859353 
L 774.181307 38.493606 
L 808.822398 37.288957 
L 843.463489 38.333368 
L 878.10458 36.611094 
L 912.74567 36.329933 
L 947.386761 38.581497 
" style="fill:none;stroke:#5cb85c;stroke-linecap:square;"/>
   </g>
   <g id="line2d_18">
    <path clip-path="url(#p7e64b2a152)" d="M 81.359489 94.896545 
L 116.00058 92.770534 
L 150.64167 67.736397 
L 185.282761 63.291877 
L 219.923852 61.73232 
L 254.564943 39.118073 
L 289.206034 38.111168 
L 323.847125 37.473116 
L 358.488216 38.029989 
L 393.129307 37.378582 
L 427.770398 37.432542 
L 462.411489 37.51433 
L 497.05258 37.666772 
L 531.69367 37.719837 
L 566.334761 37.747188 
L 600.975852 37.829868 
L 635.616943 37.72387 
L 670.258034 37.820523 
L 704.899125 37.837123 
L 739.540216 38.012372 
L 774.181307 37.944326 
L 808.822398 37.849724 
L 843.463489 37.78105 
L 878.10458 37.586412 
L 912.74567 37.533456 
L 947.386761 38.458549 
" style="fill:none;stroke:#5cb85c;stroke-linecap:square;"/>
   </g>
   <g id="line2d_19">
    <path clip-path="url(#p7e64b2a152)" d="M 81.359489 94.592748 
L 116.00058 93.445851 
L 150.64167 68.967554 
L 185.282761 64.436134 
L 219.923852 62.825379 
L 254.564943 40.485351 
L 289.206034 39.540315 
L 323.847125 38.76105 
L 358.488216 39.192665 
L 393.129307 38.671137 
L 427.770398 38.47365 
L 462.411489 38.630412 
L 497.05258 39.093755 
L 531.69367 38.978387 
L 566.334761 39.174538 
L 600.975852 39.733208 
L 635.616943 39.164474 
L 670.258034 39.347904 
L 704.899125 39.266819 
L 739.540216 39.170695 
L 774.181307 39.039297 
L 808.822398 39.000492 
L 843.463489 38.66197 
L 878.10458 38.48655 
L 912.74567 38.375801 
L 947.386761 39.858138 
" style="fill:none;stroke:#5cb85c;stroke-linecap:square;"/>
   </g>
   <g id="line2d_20">
    <path clip-path="url(#p7e64b2a152)" d="M 81.359489 95.320796 
L 116.00058 93.013788 
L 150.64167 67.741617 
L 185.282761 63.373394 
L 219.923852 61.698693 
L 254.564943 39.064617 
L 289.206034 38.246224 
L 323.847125 37.628045 
L 358.488216 37.994592 
L 393.129307 37.60416 
L 427.770398 37.582633 
L 462.411489 37.687489 
L 497.05258 38.018948 
L 531.69367 39.396857 
L 566.334761 38.975615 
L 600.975852 38.833739 
L 635.616943 38.750473 
L 670.258034 38.891897 
L 704.899125 39.122745 
L 739.540216 40.238631 
L 774.181307 39.505845 
L 808.822398 39.079421 
L 843.463489 38.760149 
L 878.10458 38.66121 
L 912.74567 38.381851 
L 947.386761 39.374246 
" style="fill:none;stroke:#5cb85c;stroke-linecap:square;"/>
   </g>
   <g id="line2d_21">
    <path clip-path="url(#p7e64b2a152)" d="M 38.058125 302.41566 
L 990.688125 302.41566 
" style="fill:none;stroke:#dedede;stroke-linecap:square;stroke-width:2;"/>
   </g>
   <g id="text_18">
    <!-- FastQC: Mean Quality Scores -->
    <defs>
     <path d="M 9.8125 72.90625 
L 51.703125 72.90625 
L 51.703125 64.59375 
L 19.671875 64.59375 
L 19.671875 43.109375 
L 48.578125 43.109375 
L 48.578125 34.8125 
L 19.671875 34.8125 
L 19.671875 0 
L 9.8125 0 
z
" id="DejaVuSans-46"/>
     <path d="M 34.28125 27.484375 
Q 23.390625 27.484375 19.1875 25 
Q 14.984375 22.515625 14.984375 16.5 
Q 14.984375 11.71875 18.140625 8.90625 
Q 21.296875 6.109375 26.703125 6.109375 
Q 34.1875 6.109375 38.703125 11.40625 
Q 43.21875 16.703125 43.21875 25.484375 
L 43.21875 27.484375 
z
M 52.203125 31.203125 
L 52.203125 0 
L 43.21875 0 
L 43.21875 8.296875 
Q 40.140625 3.328125 35.546875 0.953125 
Q 30.953125 -1.421875 24.3125 -1.421875 
Q 15.921875 -1.421875 10.953125 3.296875 
Q 6 8.015625 6 15.921875 
Q 6 25.140625 12.171875 29.828125 
Q 18.359375 34.515625 30.609375 34.515625 
L 43.21875 34.515625 
L 43.21875 35.40625 
Q 43.21875 41.609375 39.140625 45 
Q 35.0625 48.390625 27.6875 48.390625 
Q 23 48.390625 18.546875 47.265625 
Q 14.109375 46.140625 10.015625 43.890625 
L 10.015625 52.203125 
Q 14.9375 54.109375 19.578125 55.046875 
Q 24.21875 56 28.609375 56 
Q 40.484375 56 46.34375 49.84375 
Q 52.203125 43.703125 52.203125 31.203125 
z
" id="DejaVuSans-61"/>
     <path d="M 39.40625 66.21875 
Q 28.65625 66.21875 22.328125 58.203125 
Q 16.015625 50.203125 16.015625 36.375 
Q 16.015625 22.609375 22.328125 14.59375 
Q 28.65625 6.59375 39.40625 6.59375 
Q 50.140625 6.59375 56.421875 14.59375 
Q 62.703125 22.609375 62.703125 36.375 
Q 62.703125 50.203125 56.421875 58.203125 
Q 50.140625 66.21875 39.40625 66.21875 
z
M 53.21875 1.3125 
L 66.21875 -12.890625 
L 54.296875 -12.890625 
L 43.5 -1.21875 
Q 41.890625 -1.3125 41.03125 -1.359375 
Q 40.1875 -1.421875 39.40625 -1.421875 
Q 24.03125 -1.421875 14.8125 8.859375 
Q 5.609375 19.140625 5.609375 36.375 
Q 5.609375 53.65625 14.8125 63.9375 
Q 24.03125 74.21875 39.40625 74.21875 
Q 54.734375 74.21875 63.90625 63.9375 
Q 73.09375 53.65625 73.09375 36.375 
Q 73.09375 23.6875 67.984375 14.640625 
Q 62.890625 5.609375 53.21875 1.3125 
z
" id="DejaVuSans-51"/>
     <path d="M 64.40625 67.28125 
L 64.40625 56.890625 
Q 59.421875 61.53125 53.78125 63.8125 
Q 48.140625 66.109375 41.796875 66.109375 
Q 29.296875 66.109375 22.65625 58.46875 
Q 16.015625 50.828125 16.015625 36.375 
Q 16.015625 21.96875 22.65625 14.328125 
Q 29.296875 6.6875 41.796875 6.6875 
Q 48.140625 6.6875 53.78125 8.984375 
Q 59.421875 11.28125 64.40625 15.921875 
L 64.40625 5.609375 
Q 59.234375 2.09375 53.4375 0.328125 
Q 47.65625 -1.421875 41.21875 -1.421875 
Q 24.65625 -1.421875 15.125 8.703125 
Q 5.609375 18.84375 5.609375 36.375 
Q 5.609375 53.953125 15.125 64.078125 
Q 24.65625 74.21875 41.21875 74.21875 
Q 47.75 74.21875 53.53125 72.484375 
Q 59.328125 70.75 64.40625 67.28125 
z
" id="DejaVuSans-43"/>
     <path d="M 11.71875 12.40625 
L 22.015625 12.40625 
L 22.015625 0 
L 11.71875 0 
z
M 11.71875 51.703125 
L 22.015625 51.703125 
L 22.015625 39.3125 
L 11.71875 39.3125 
z
" id="DejaVuSans-3a"/>
     <path d="M 9.8125 72.90625 
L 24.515625 72.90625 
L 43.109375 23.296875 
L 61.8125 72.90625 
L 76.515625 72.90625 
L 76.515625 0 
L 66.890625 0 
L 66.890625 64.015625 
L 48.09375 14.015625 
L 38.1875 14.015625 
L 19.390625 64.015625 
L 19.390625 0 
L 9.8125 0 
z
" id="DejaVuSans-4d"/>
     <path d="M 8.5 21.578125 
L 8.5 54.6875 
L 17.484375 54.6875 
L 17.484375 21.921875 
Q 17.484375 14.15625 20.5 10.265625 
Q 23.53125 6.390625 29.59375 6.390625 
Q 36.859375 6.390625 41.078125 11.03125 
Q 45.3125 15.671875 45.3125 23.6875 
L 45.3125 54.6875 
L 54.296875 54.6875 
L 54.296875 0 
L 45.3125 0 
L 45.3125 8.40625 
Q 42.046875 3.421875 37.71875 1 
Q 33.40625 -1.421875 27.6875 -1.421875 
Q 18.265625 -1.421875 13.375 4.4375 
Q 8.5 10.296875 8.5 21.578125 
z
M 31.109375 56 
z
" id="DejaVuSans-75"/>
     <path d="M 9.421875 75.984375 
L 18.40625 75.984375 
L 18.40625 0 
L 9.421875 0 
z
" id="DejaVuSans-6c"/>
     <path d="M 32.171875 -5.078125 
Q 28.375 -14.84375 24.75 -17.8125 
Q 21.140625 -20.796875 15.09375 -20.796875 
L 7.90625 -20.796875 
L 7.90625 -13.28125 
L 13.1875 -13.28125 
Q 16.890625 -13.28125 18.9375 -11.515625 
Q 21 -9.765625 23.484375 -3.21875 
L 25.09375 0.875 
L 2.984375 54.6875 
L 12.5 54.6875 
L 29.59375 11.921875 
L 46.6875 54.6875 
L 56.203125 54.6875 
z
" id="DejaVuSans-79"/>
    </defs>
    <g transform="translate(398.238125 19.3575)scale(0.16 -0.16)">
     <use xlink:href="#DejaVuSans-46"/>
     <use x="57.378906" xlink:href="#DejaVuSans-61"/>
     <use x="118.658203" xlink:href="#DejaVuSans-73"/>
     <use x="170.757812" xlink:href="#DejaVuSans-74"/>
     <use x="209.966797" xlink:href="#DejaVuSans-51"/>
     <use x="288.677734" xlink:href="#DejaVuSans-43"/>
     <use x="358.501953" xlink:href="#DejaVuSans-3a"/>
     <use x="392.193359" xlink:href="#DejaVuSans-20"/>
     <use x="423.980469" xlink:href="#DejaVuSans-4d"/>
     <use x="510.259766" xlink:href="#DejaVuSans-65"/>
     <use x="571.783203" xlink:href="#DejaVuSans-61"/>
     <use x="633.0625" xlink:href="#DejaVuSans-6e"/>
     <use x="696.441406" xlink:href="#DejaVuSans-20"/>
     <use x="728.228516" xlink:href="#DejaVuSans-51"/>
     <use x="806.939453" xlink:href="#DejaVuSans-75"/>
     <use x="870.318359" xlink:href="#DejaVuSans-61"/>
     <use x="931.597656" xlink:href="#DejaVuSans-6c"/>
     <use x="959.380859" xlink:href="#DejaVuSans-69"/>
     <use x="987.164062" xlink:href="#DejaVuSans-74"/>
     <use x="1026.373047" xlink:href="#DejaVuSans-79"/>
     <use x="1085.552734" xlink:href="#DejaVuSans-20"/>
     <use x="1117.339844" xlink:href="#DejaVuSans-53"/>
     <use x="1180.816406" xlink:href="#DejaVuSans-63"/>
     <use x="1235.796875" xlink:href="#DejaVuSans-6f"/>
     <use x="1296.978516" xlink:href="#DejaVuSans-72"/>
     <use x="1338.060547" xlink:href="#DejaVuSans-65"/>
     <use x="1399.583984" xlink:href="#DejaVuSans-73"/>
    </g>
   </g>
   <g id="legend_1">
    <g id="line2d_22">
     <path d="M 45.258125 325.836834 
L 61.258125 325.836834 
" style="fill:none;stroke:#5cb85c;stroke-linecap:square;"/>
    </g>
    <g id="line2d_23"/>
    <g id="text_19">
     <!-- fastqc | SRR9264344_S0_L001_R1_001 -->
     <defs>
      <path d="M 37.109375 75.984375 
L 37.109375 68.5 
L 28.515625 68.5 
Q 23.6875 68.5 21.796875 66.546875 
Q 19.921875 64.59375 19.921875 59.515625 
L 19.921875 54.6875 
L 34.71875 54.6875 
L 34.71875 47.703125 
L 19.921875 47.703125 
L 19.921875 0 
L 10.890625 0 
L 10.890625 47.703125 
L 2.296875 47.703125 
L 2.296875 54.6875 
L 10.890625 54.6875 
L 10.890625 58.5 
Q 10.890625 67.625 15.140625 71.796875 
Q 19.390625 75.984375 28.609375 75.984375 
z
" id="DejaVuSans-66"/>
      <path d="M 14.796875 27.296875 
Q 14.796875 17.390625 18.875 11.75 
Q 22.953125 6.109375 30.078125 6.109375 
Q 37.203125 6.109375 41.296875 11.75 
Q 45.40625 17.390625 45.40625 27.296875 
Q 45.40625 37.203125 41.296875 42.84375 
Q 37.203125 48.484375 30.078125 48.484375 
Q 22.953125 48.484375 18.875 42.84375 
Q 14.796875 37.203125 14.796875 27.296875 
z
M 45.40625 8.203125 
Q 42.578125 3.328125 38.25 0.953125 
Q 33.9375 -1.421875 27.875 -1.421875 
Q 17.96875 -1.421875 11.734375 6.484375 
Q 5.515625 14.40625 5.515625 27.296875 
Q 5.515625 40.1875 11.734375 48.09375 
Q 17.96875 56 27.875 56 
Q 33.9375 56 38.25 53.625 
Q 42.578125 51.265625 45.40625 46.390625 
L 45.40625 54.6875 
L 54.390625 54.6875 
L 54.390625 -20.796875 
L 45.40625 -20.796875 
z
" id="DejaVuSans-71"/>
      <path d="M 21 76.421875 
L 21 -23.578125 
L 12.703125 -23.578125 
L 12.703125 76.421875 
z
" id="DejaVuSans-7c"/>
      <path d="M 44.390625 34.1875 
Q 47.5625 33.109375 50.5625 29.59375 
Q 53.5625 26.078125 56.59375 19.921875 
L 66.609375 0 
L 56 0 
L 46.6875 18.703125 
Q 43.0625 26.03125 39.671875 28.421875 
Q 36.28125 30.8125 30.421875 30.8125 
L 19.671875 30.8125 
L 19.671875 0 
L 9.8125 0 
L 9.8125 72.90625 
L 32.078125 72.90625 
Q 44.578125 72.90625 50.734375 67.671875 
Q 56.890625 62.453125 56.890625 51.90625 
Q 56.890625 45.015625 53.6875 40.46875 
Q 50.484375 35.9375 44.390625 34.1875 
z
M 19.671875 64.796875 
L 19.671875 38.921875 
L 32.078125 38.921875 
Q 39.203125 38.921875 42.84375 42.21875 
Q 46.484375 45.515625 46.484375 51.90625 
Q 46.484375 58.296875 42.84375 61.546875 
Q 39.203125 64.796875 32.078125 64.796875 
z
" id="DejaVuSans-52"/>
      <path d="M 10.984375 1.515625 
L 10.984375 10.5 
Q 14.703125 8.734375 18.5 7.8125 
Q 22.3125 6.890625 25.984375 6.890625 
Q 35.75 6.890625 40.890625 13.453125 
Q 46.046875 20.015625 46.78125 33.40625 
Q 43.953125 29.203125 39.59375 26.953125 
Q 35.25 24.703125 29.984375 24.703125 
Q 19.046875 24.703125 12.671875 31.3125 
Q 6.296875 37.9375 6.296875 49.421875 
Q 6.296875 60.640625 12.9375 67.421875 
Q 19.578125 74.21875 30.609375 74.21875 
Q 43.265625 74.21875 49.921875 64.515625 
Q 56.59375 54.828125 56.59375 36.375 
Q 56.59375 19.140625 48.40625 8.859375 
Q 40.234375 -1.421875 26.421875 -1.421875 
Q 22.703125 -1.421875 18.890625 -0.6875 
Q 15.09375 0.046875 10.984375 1.515625 
z
M 30.609375 32.421875 
Q 37.25 32.421875 41.125 36.953125 
Q 45.015625 41.5 45.015625 49.421875 
Q 45.015625 57.28125 41.125 61.84375 
Q 37.25 66.40625 30.609375 66.40625 
Q 23.96875 66.40625 20.09375 61.84375 
Q 16.21875 57.28125 16.21875 49.421875 
Q 16.21875 41.5 20.09375 36.953125 
Q 23.96875 32.421875 30.609375 32.421875 
z
" id="DejaVuSans-39"/>
      <path d="M 33.015625 40.375 
Q 26.375 40.375 22.484375 35.828125 
Q 18.609375 31.296875 18.609375 23.390625 
Q 18.609375 15.53125 22.484375 10.953125 
Q 26.375 6.390625 33.015625 6.390625 
Q 39.65625 6.390625 43.53125 10.953125 
Q 47.40625 15.53125 47.40625 23.390625 
Q 47.40625 31.296875 43.53125 35.828125 
Q 39.65625 40.375 33.015625 40.375 
z
M 52.59375 71.296875 
L 52.59375 62.3125 
Q 48.875 64.0625 45.09375 64.984375 
Q 41.3125 65.921875 37.59375 65.921875 
Q 27.828125 65.921875 22.671875 59.328125 
Q 17.53125 52.734375 16.796875 39.40625 
Q 19.671875 43.65625 24.015625 45.921875 
Q 28.375 48.1875 33.59375 48.1875 
Q 44.578125 48.1875 50.953125 41.515625 
Q 57.328125 34.859375 57.328125 23.390625 
Q 57.328125 12.15625 50.6875 5.359375 
Q 44.046875 -1.421875 33.015625 -1.421875 
Q 20.359375 -1.421875 13.671875 8.265625 
Q 6.984375 17.96875 6.984375 36.375 
Q 6.984375 53.65625 15.1875 63.9375 
Q 23.390625 74.21875 37.203125 74.21875 
Q 40.921875 74.21875 44.703125 73.484375 
Q 48.484375 72.75 52.59375 71.296875 
z
" id="DejaVuSans-36"/>
      <path d="M 50.984375 -16.609375 
L 50.984375 -23.578125 
L -0.984375 -23.578125 
L -0.984375 -16.609375 
z
" id="DejaVuSans-5f"/>
      <path d="M 9.8125 72.90625 
L 19.671875 72.90625 
L 19.671875 8.296875 
L 55.171875 8.296875 
L 55.171875 0 
L 9.8125 0 
z
" id="DejaVuSans-4c"/>
     </defs>
     <g transform="translate(67.658125 328.636834)scale(0.08 -0.08)">
      <use xlink:href="#DejaVuSans-66"/>
      <use x="35.205078" xlink:href="#DejaVuSans-61"/>
      <use x="96.484375" xlink:href="#DejaVuSans-73"/>
      <use x="148.583984" xlink:href="#DejaVuSans-74"/>
      <use x="187.792969" xlink:href="#DejaVuSans-71"/>
      <use x="251.269531" xlink:href="#DejaVuSans-63"/>
      <use x="306.25" xlink:href="#DejaVuSans-20"/>
      <use x="338.037109" xlink:href="#DejaVuSans-7c"/>
      <use x="371.728516" xlink:href="#DejaVuSans-20"/>
      <use x="403.515625" xlink:href="#DejaVuSans-53"/>
      <use x="466.992188" xlink:href="#DejaVuSans-52"/>
      <use x="536.474609" xlink:href="#DejaVuSans-52"/>
      <use x="605.957031" xlink:href="#DejaVuSans-39"/>
      <use x="669.580078" xlink:href="#DejaVuSans-32"/>
      <use x="733.203125" xlink:href="#DejaVuSans-36"/>
      <use x="796.826172" xlink:href="#DejaVuSans-34"/>
      <use x="860.449219" xlink:href="#DejaVuSans-33"/>
      <use x="924.072266" xlink:href="#DejaVuSans-34"/>
      <use x="987.695312" xlink:href="#DejaVuSans-34"/>
      <use x="1051.318359" xlink:href="#DejaVuSans-5f"/>
      <use x="1101.318359" xlink:href="#DejaVuSans-53"/>
      <use x="1164.794922" xlink:href="#DejaVuSans-30"/>
      <use x="1228.417969" xlink:href="#DejaVuSans-5f"/>
      <use x="1278.417969" xlink:href="#DejaVuSans-4c"/>
      <use x="1334.130859" xlink:href="#DejaVuSans-30"/>
      <use x="1397.753906" xlink:href="#DejaVuSans-30"/>
      <use x="1461.376953" xlink:href="#DejaVuSans-31"/>
      <use x="1525" xlink:href="#DejaVuSans-5f"/>
      <use x="1575" xlink:href="#DejaVuSans-52"/>
      <use x="1644.482422" xlink:href="#DejaVuSans-31"/>
      <use x="1708.105469" xlink:href="#DejaVuSans-5f"/>
      <use x="1758.105469" xlink:href="#DejaVuSans-30"/>
      <use x="1821.728516" xlink:href="#DejaVuSans-30"/>
      <use x="1885.351562" xlink:href="#DejaVuSans-31"/>
     </g>
    </g>
    <g id="line2d_24">
     <path d="M 45.258125 337.836834 
L 61.258125 337.836834 
" style="fill:none;stroke:#5cb85c;stroke-linecap:square;"/>
    </g>
    <g id="line2d_25"/>
    <g id="text_20">
     <!-- fastqc | SRR9264345_S0_L001_R1_001 -->
     <g transform="translate(67.658125 340.636834)scale(0.08 -0.08)">
      <use xlink:href="#DejaVuSans-66"/>
      <use x="35.205078" xlink:href="#DejaVuSans-61"/>
      <use x="96.484375" xlink:href="#DejaVuSans-73"/>
      <use x="148.583984" xlink:href="#DejaVuSans-74"/>
      <use x="187.792969" xlink:href="#DejaVuSans-71"/>
      <use x="251.269531" xlink:href="#DejaVuSans-63"/>
      <use x="306.25" xlink:href="#DejaVuSans-20"/>
      <use x="338.037109" xlink:href="#DejaVuSans-7c"/>
      <use x="371.728516" xlink:href="#DejaVuSans-20"/>
      <use x="403.515625" xlink:href="#DejaVuSans-53"/>
      <use x="466.992188" xlink:href="#DejaVuSans-52"/>
      <use x="536.474609" xlink:href="#DejaVuSans-52"/>
      <use x="605.957031" xlink:href="#DejaVuSans-39"/>
      <use x="669.580078" xlink:href="#DejaVuSans-32"/>
      <use x="733.203125" xlink:href="#DejaVuSans-36"/>
      <use x="796.826172" xlink:href="#DejaVuSans-34"/>
      <use x="860.449219" xlink:href="#DejaVuSans-33"/>
      <use x="924.072266" xlink:href="#DejaVuSans-34"/>
      <use x="987.695312" xlink:href="#DejaVuSans-35"/>
      <use x="1051.318359" xlink:href="#DejaVuSans-5f"/>
      <use x="1101.318359" xlink:href="#DejaVuSans-53"/>
      <use x="1164.794922" xlink:href="#DejaVuSans-30"/>
      <use x="1228.417969" xlink:href="#DejaVuSans-5f"/>
      <use x="1278.417969" xlink:href="#DejaVuSans-4c"/>
      <use x="1334.130859" xlink:href="#DejaVuSans-30"/>
      <use x="1397.753906" xlink:href="#DejaVuSans-30"/>
      <use x="1461.376953" xlink:href="#DejaVuSans-31"/>
      <use x="1525" xlink:href="#DejaVuSans-5f"/>
      <use x="1575" xlink:href="#DejaVuSans-52"/>
      <use x="1644.482422" xlink:href="#DejaVuSans-31"/>
      <use x="1708.105469" xlink:href="#DejaVuSans-5f"/>
      <use x="1758.105469" xlink:href="#DejaVuSans-30"/>
      <use x="1821.728516" xlink:href="#DejaVuSans-30"/>
      <use x="1885.351562" xlink:href="#DejaVuSans-31"/>
     </g>
    </g>
    <g id="line2d_26">
     <path d="M 45.258125 349.836834 
L 61.258125 349.836834 
" style="fill:none;stroke:#5cb85c;stroke-linecap:square;"/>
    </g>
    <g id="line2d_27"/>
    <g id="text_21">
     <!-- fastqc | SRR9264346_S0_L001_R1_001 -->
     <g transform="translate(67.658125 352.636834)scale(0.08 -0.08)">
      <use xlink:href="#DejaVuSans-66"/>
      <use x="35.205078" xlink:href="#DejaVuSans-61"/>
      <use x="96.484375" xlink:href="#DejaVuSans-73"/>
      <use x="148.583984" xlink:href="#DejaVuSans-74"/>
      <use x="187.792969" xlink:href="#DejaVuSans-71"/>
      <use x="251.269531" xlink:href="#DejaVuSans-63"/>
      <use x="306.25" xlink:href="#DejaVuSans-20"/>
      <use x="338.037109" xlink:href="#DejaVuSans-7c"/>
      <use x="371.728516" xlink:href="#DejaVuSans-20"/>
      <use x="403.515625" xlink:href="#DejaVuSans-53"/>
      <use x="466.992188" xlink:href="#DejaVuSans-52"/>
      <use x="536.474609" xlink:href="#DejaVuSans-52"/>
      <use x="605.957031" xlink:href="#DejaVuSans-39"/>
      <use x="669.580078" xlink:href="#DejaVuSans-32"/>
      <use x="733.203125" xlink:href="#DejaVuSans-36"/>
      <use x="796.826172" xlink:href="#DejaVuSans-34"/>
      <use x="860.449219" xlink:href="#DejaVuSans-33"/>
      <use x="924.072266" xlink:href="#DejaVuSans-34"/>
      <use x="987.695312" xlink:href="#DejaVuSans-36"/>
      <use x="1051.318359" xlink:href="#DejaVuSans-5f"/>
      <use x="1101.318359" xlink:href="#DejaVuSans-53"/>
      <use x="1164.794922" xlink:href="#DejaVuSans-30"/>
      <use x="1228.417969" xlink:href="#DejaVuSans-5f"/>
      <use x="1278.417969" xlink:href="#DejaVuSans-4c"/>
      <use x="1334.130859" xlink:href="#DejaVuSans-30"/>
      <use x="1397.753906" xlink:href="#DejaVuSans-30"/>
      <use x="1461.376953" xlink:href="#DejaVuSans-31"/>
      <use x="1525" xlink:href="#DejaVuSans-5f"/>
      <use x="1575" xlink:href="#DejaVuSans-52"/>
      <use x="1644.482422" xlink:href="#DejaVuSans-31"/>
      <use x="1708.105469" xlink:href="#DejaVuSans-5f"/>
      <use x="1758.105469" xlink:href="#DejaVuSans-30"/>
      <use x="1821.728516" xlink:href="#DejaVuSans-30"/>
      <use x="1885.351562" xlink:href="#DejaVuSans-31"/>
     </g>
    </g>
    <g id="line2d_28">
     <path d="M 235.235313 325.836834 
L 251.235313 325.836834 
" style="fill:none;stroke:#5cb85c;stroke-linecap:square;"/>
    </g>
    <g id="line2d_29"/>
    <g id="text_22">
     <!-- fastqc | SRR9264347_S0_L001_R1_001 -->
     <defs>
      <path d="M 8.203125 72.90625 
L 55.078125 72.90625 
L 55.078125 68.703125 
L 28.609375 0 
L 18.3125 0 
L 43.21875 64.59375 
L 8.203125 64.59375 
z
" id="DejaVuSans-37"/>
     </defs>
     <g transform="translate(257.635312 328.636834)scale(0.08 -0.08)">
      <use xlink:href="#DejaVuSans-66"/>
      <use x="35.205078" xlink:href="#DejaVuSans-61"/>
      <use x="96.484375" xlink:href="#DejaVuSans-73"/>
      <use x="148.583984" xlink:href="#DejaVuSans-74"/>
      <use x="187.792969" xlink:href="#DejaVuSans-71"/>
      <use x="251.269531" xlink:href="#DejaVuSans-63"/>
      <use x="306.25" xlink:href="#DejaVuSans-20"/>
      <use x="338.037109" xlink:href="#DejaVuSans-7c"/>
      <use x="371.728516" xlink:href="#DejaVuSans-20"/>
      <use x="403.515625" xlink:href="#DejaVuSans-53"/>
      <use x="466.992188" xlink:href="#DejaVuSans-52"/>
      <use x="536.474609" xlink:href="#DejaVuSans-52"/>
      <use x="605.957031" xlink:href="#DejaVuSans-39"/>
      <use x="669.580078" xlink:href="#DejaVuSans-32"/>
      <use x="733.203125" xlink:href="#DejaVuSans-36"/>
      <use x="796.826172" xlink:href="#DejaVuSans-34"/>
      <use x="860.449219" xlink:href="#DejaVuSans-33"/>
      <use x="924.072266" xlink:href="#DejaVuSans-34"/>
      <use x="987.695312" xlink:href="#DejaVuSans-37"/>
      <use x="1051.318359" xlink:href="#DejaVuSans-5f"/>
      <use x="1101.318359" xlink:href="#DejaVuSans-53"/>
      <use x="1164.794922" xlink:href="#DejaVuSans-30"/>
      <use x="1228.417969" xlink:href="#DejaVuSans-5f"/>
      <use x="1278.417969" xlink:href="#DejaVuSans-4c"/>
      <use x="1334.130859" xlink:href="#DejaVuSans-30"/>
      <use x="1397.753906" xlink:href="#DejaVuSans-30"/>
      <use x="1461.376953" xlink:href="#DejaVuSans-31"/>
      <use x="1525" xlink:href="#DejaVuSans-5f"/>
      <use x="1575" xlink:href="#DejaVuSans-52"/>
      <use x="1644.482422" xlink:href="#DejaVuSans-31"/>
      <use x="1708.105469" xlink:href="#DejaVuSans-5f"/>
      <use x="1758.105469" xlink:href="#DejaVuSans-30"/>
      <use x="1821.728516" xlink:href="#DejaVuSans-30"/>
      <use x="1885.351562" xlink:href="#DejaVuSans-31"/>
     </g>
    </g>
    <g id="line2d_30">
     <path d="M 235.235313 337.836834 
L 251.235313 337.836834 
" style="fill:none;stroke:#5cb85c;stroke-linecap:square;"/>
    </g>
    <g id="line2d_31"/>
    <g id="text_23">
     <!-- fastqc | SRR9264348_S0_L001_R1_001 -->
     <defs>
      <path d="M 31.78125 34.625 
Q 24.75 34.625 20.71875 30.859375 
Q 16.703125 27.09375 16.703125 20.515625 
Q 16.703125 13.921875 20.71875 10.15625 
Q 24.75 6.390625 31.78125 6.390625 
Q 38.8125 6.390625 42.859375 10.171875 
Q 46.921875 13.96875 46.921875 20.515625 
Q 46.921875 27.09375 42.890625 30.859375 
Q 38.875 34.625 31.78125 34.625 
z
M 21.921875 38.8125 
Q 15.578125 40.375 12.03125 44.71875 
Q 8.5 49.078125 8.5 55.328125 
Q 8.5 64.0625 14.71875 69.140625 
Q 20.953125 74.21875 31.78125 74.21875 
Q 42.671875 74.21875 48.875 69.140625 
Q 55.078125 64.0625 55.078125 55.328125 
Q 55.078125 49.078125 51.53125 44.71875 
Q 48 40.375 41.703125 38.8125 
Q 48.828125 37.15625 52.796875 32.3125 
Q 56.78125 27.484375 56.78125 20.515625 
Q 56.78125 9.90625 50.3125 4.234375 
Q 43.84375 -1.421875 31.78125 -1.421875 
Q 19.734375 -1.421875 13.25 4.234375 
Q 6.78125 9.90625 6.78125 20.515625 
Q 6.78125 27.484375 10.78125 32.3125 
Q 14.796875 37.15625 21.921875 38.8125 
z
M 18.3125 54.390625 
Q 18.3125 48.734375 21.84375 45.5625 
Q 25.390625 42.390625 31.78125 42.390625 
Q 38.140625 42.390625 41.71875 45.5625 
Q 45.3125 48.734375 45.3125 54.390625 
Q 45.3125 60.0625 41.71875 63.234375 
Q 38.140625 66.40625 31.78125 66.40625 
Q 25.390625 66.40625 21.84375 63.234375 
Q 18.3125 60.0625 18.3125 54.390625 
z
" id="DejaVuSans-38"/>
     </defs>
     <g transform="translate(257.635312 340.636834)scale(0.08 -0.08)">
      <use xlink:href="#DejaVuSans-66"/>
      <use x="35.205078" xlink:href="#DejaVuSans-61"/>
      <use x="96.484375" xlink:href="#DejaVuSans-73"/>
      <use x="148.583984" xlink:href="#DejaVuSans-74"/>
      <use x="187.792969" xlink:href="#DejaVuSans-71"/>
      <use x="251.269531" xlink:href="#DejaVuSans-63"/>
      <use x="306.25" xlink:href="#DejaVuSans-20"/>
      <use x="338.037109" xlink:href="#DejaVuSans-7c"/>
      <use x="371.728516" xlink:href="#DejaVuSans-20"/>
      <use x="403.515625" xlink:href="#DejaVuSans-53"/>
      <use x="466.992188" xlink:href="#DejaVuSans-52"/>
      <use x="536.474609" xlink:href="#DejaVuSans-52"/>
      <use x="605.957031" xlink:href="#DejaVuSans-39"/>
      <use x="669.580078" xlink:href="#DejaVuSans-32"/>
      <use x="733.203125" xlink:href="#DejaVuSans-36"/>
      <use x="796.826172" xlink:href="#DejaVuSans-34"/>
      <use x="860.449219" xlink:href="#DejaVuSans-33"/>
      <use x="924.072266" xlink:href="#DejaVuSans-34"/>
      <use x="987.695312" xlink:href="#DejaVuSans-38"/>
      <use x="1051.318359" xlink:href="#DejaVuSans-5f"/>
      <use x="1101.318359" xlink:href="#DejaVuSans-53"/>
      <use x="1164.794922" xlink:href="#DejaVuSans-30"/>
      <use x="1228.417969" xlink:href="#DejaVuSans-5f"/>
      <use x="1278.417969" xlink:href="#DejaVuSans-4c"/>
      <use x="1334.130859" xlink:href="#DejaVuSans-30"/>
      <use x="1397.753906" xlink:href="#DejaVuSans-30"/>
      <use x="1461.376953" xlink:href="#DejaVuSans-31"/>
      <use x="1525" xlink:href="#DejaVuSans-5f"/>
      <use x="1575" xlink:href="#DejaVuSans-52"/>
      <use x="1644.482422" xlink:href="#DejaVuSans-31"/>
      <use x="1708.105469" xlink:href="#DejaVuSans-5f"/>
      <use x="1758.105469" xlink:href="#DejaVuSans-30"/>
      <use x="1821.728516" xlink:href="#DejaVuSans-30"/>
      <use x="1885.351562" xlink:href="#DejaVuSans-31"/>
     </g>
    </g>
    <g id="line2d_32">
     <path d="M 425.2125 325.836834 
L 441.2125 325.836834 
" style="fill:none;stroke:#5cb85c;stroke-linecap:square;"/>
    </g>
    <g id="line2d_33"/>
    <g id="text_24">
     <!-- fastqc | SRR9264349_S0_L001_R1_001 -->
     <g transform="translate(447.6125 328.636834)scale(0.08 -0.08)">
      <use xlink:href="#DejaVuSans-66"/>
      <use x="35.205078" xlink:href="#DejaVuSans-61"/>
      <use x="96.484375" xlink:href="#DejaVuSans-73"/>
      <use x="148.583984" xlink:href="#DejaVuSans-74"/>
      <use x="187.792969" xlink:href="#DejaVuSans-71"/>
      <use x="251.269531" xlink:href="#DejaVuSans-63"/>
      <use x="306.25" xlink:href="#DejaVuSans-20"/>
      <use x="338.037109" xlink:href="#DejaVuSans-7c"/>
      <use x="371.728516" xlink:href="#DejaVuSans-20"/>
      <use x="403.515625" xlink:href="#DejaVuSans-53"/>
      <use x="466.992188" xlink:href="#DejaVuSans-52"/>
      <use x="536.474609" xlink:href="#DejaVuSans-52"/>
      <use x="605.957031" xlink:href="#DejaVuSans-39"/>
      <use x="669.580078" xlink:href="#DejaVuSans-32"/>
      <use x="733.203125" xlink:href="#DejaVuSans-36"/>
      <use x="796.826172" xlink:href="#DejaVuSans-34"/>
      <use x="860.449219" xlink:href="#DejaVuSans-33"/>
      <use x="924.072266" xlink:href="#DejaVuSans-34"/>
      <use x="987.695312" xlink:href="#DejaVuSans-39"/>
      <use x="1051.318359" xlink:href="#DejaVuSans-5f"/>
      <use x="1101.318359" xlink:href="#DejaVuSans-53"/>
      <use x="1164.794922" xlink:href="#DejaVuSans-30"/>
      <use x="1228.417969" xlink:href="#DejaVuSans-5f"/>
      <use x="1278.417969" xlink:href="#DejaVuSans-4c"/>
      <use x="1334.130859" xlink:href="#DejaVuSans-30"/>
      <use x="1397.753906" xlink:href="#DejaVuSans-30"/>
      <use x="1461.376953" xlink:href="#DejaVuSans-31"/>
      <use x="1525" xlink:href="#DejaVuSans-5f"/>
      <use x="1575" xlink:href="#DejaVuSans-52"/>
      <use x="1644.482422" xlink:href="#DejaVuSans-31"/>
      <use x="1708.105469" xlink:href="#DejaVuSans-5f"/>
      <use x="1758.105469" xlink:href="#DejaVuSans-30"/>
      <use x="1821.728516" xlink:href="#DejaVuSans-30"/>
      <use x="1885.351562" xlink:href="#DejaVuSans-31"/>
     </g>
    </g>
    <g id="line2d_34">
     <path d="M 425.2125 337.836834 
L 441.2125 337.836834 
" style="fill:none;stroke:#5cb85c;stroke-linecap:square;"/>
    </g>
    <g id="line2d_35"/>
    <g id="text_25">
     <!-- fastqc | SRR9264350_S0_L001_R1_001 -->
     <g transform="translate(447.6125 340.636834)scale(0.08 -0.08)">
      <use xlink:href="#DejaVuSans-66"/>
      <use x="35.205078" xlink:href="#DejaVuSans-61"/>
      <use x="96.484375" xlink:href="#DejaVuSans-73"/>
      <use x="148.583984" xlink:href="#DejaVuSans-74"/>
      <use x="187.792969" xlink:href="#DejaVuSans-71"/>
      <use x="251.269531" xlink:href="#DejaVuSans-63"/>
      <use x="306.25" xlink:href="#DejaVuSans-20"/>
      <use x="338.037109" xlink:href="#DejaVuSans-7c"/>
      <use x="371.728516" xlink:href="#DejaVuSans-20"/>
      <use x="403.515625" xlink:href="#DejaVuSans-53"/>
      <use x="466.992188" xlink:href="#DejaVuSans-52"/>
      <use x="536.474609" xlink:href="#DejaVuSans-52"/>
      <use x="605.957031" xlink:href="#DejaVuSans-39"/>
      <use x="669.580078" xlink:href="#DejaVuSans-32"/>
      <use x="733.203125" xlink:href="#DejaVuSans-36"/>
      <use x="796.826172" xlink:href="#DejaVuSans-34"/>
      <use x="860.449219" xlink:href="#DejaVuSans-33"/>
      <use x="924.072266" xlink:href="#DejaVuSans-35"/>
      <use x="987.695312" xlink:href="#DejaVuSans-30"/>
      <use x="1051.318359" xlink:href="#DejaVuSans-5f"/>
      <use x="1101.318359" xlink:href="#DejaVuSans-53"/>
      <use x="1164.794922" xlink:href="#DejaVuSans-30"/>
      <use x="1228.417969" xlink:href="#DejaVuSans-5f"/>
      <use x="1278.417969" xlink:href="#DejaVuSans-4c"/>
      <use x="1334.130859" xlink:href="#DejaVuSans-30"/>
      <use x="1397.753906" xlink:href="#DejaVuSans-30"/>
      <use x="1461.376953" xlink:href="#DejaVuSans-31"/>
      <use x="1525" xlink:href="#DejaVuSans-5f"/>
      <use x="1575" xlink:href="#DejaVuSans-52"/>
      <use x="1644.482422" xlink:href="#DejaVuSans-31"/>
      <use x="1708.105469" xlink:href="#DejaVuSans-5f"/>
      <use x="1758.105469" xlink:href="#DejaVuSans-30"/>
      <use x="1821.728516" xlink:href="#DejaVuSans-30"/>
      <use x="1885.351562" xlink:href="#DejaVuSans-31"/>
     </g>
    </g>
    <g id="line2d_36">
     <path d="M 615.189687 325.836834 
L 631.189687 325.836834 
" style="fill:none;stroke:#5cb85c;stroke-linecap:square;"/>
    </g>
    <g id="line2d_37"/>
    <g id="text_26">
     <!-- fastqc | SRR9264351_S0_L001_R1_001 -->
     <g transform="translate(637.589687 328.636834)scale(0.08 -0.08)">
      <use xlink:href="#DejaVuSans-66"/>
      <use x="35.205078" xlink:href="#DejaVuSans-61"/>
      <use x="96.484375" xlink:href="#DejaVuSans-73"/>
      <use x="148.583984" xlink:href="#DejaVuSans-74"/>
      <use x="187.792969" xlink:href="#DejaVuSans-71"/>
      <use x="251.269531" xlink:href="#DejaVuSans-63"/>
      <use x="306.25" xlink:href="#DejaVuSans-20"/>
      <use x="338.037109" xlink:href="#DejaVuSans-7c"/>
      <use x="371.728516" xlink:href="#DejaVuSans-20"/>
      <use x="403.515625" xlink:href="#DejaVuSans-53"/>
      <use x="466.992188" xlink:href="#DejaVuSans-52"/>
      <use x="536.474609" xlink:href="#DejaVuSans-52"/>
      <use x="605.957031" xlink:href="#DejaVuSans-39"/>
      <use x="669.580078" xlink:href="#DejaVuSans-32"/>
      <use x="733.203125" xlink:href="#DejaVuSans-36"/>
      <use x="796.826172" xlink:href="#DejaVuSans-34"/>
      <use x="860.449219" xlink:href="#DejaVuSans-33"/>
      <use x="924.072266" xlink:href="#DejaVuSans-35"/>
      <use x="987.695312" xlink:href="#DejaVuSans-31"/>
      <use x="1051.318359" xlink:href="#DejaVuSans-5f"/>
      <use x="1101.318359" xlink:href="#DejaVuSans-53"/>
      <use x="1164.794922" xlink:href="#DejaVuSans-30"/>
      <use x="1228.417969" xlink:href="#DejaVuSans-5f"/>
      <use x="1278.417969" xlink:href="#DejaVuSans-4c"/>
      <use x="1334.130859" xlink:href="#DejaVuSans-30"/>
      <use x="1397.753906" xlink:href="#DejaVuSans-30"/>
      <use x="1461.376953" xlink:href="#DejaVuSans-31"/>
      <use x="1525" xlink:href="#DejaVuSans-5f"/>
      <use x="1575" xlink:href="#DejaVuSans-52"/>
      <use x="1644.482422" xlink:href="#DejaVuSans-31"/>
      <use x="1708.105469" xlink:href="#DejaVuSans-5f"/>
      <use x="1758.105469" xlink:href="#DejaVuSans-30"/>
      <use x="1821.728516" xlink:href="#DejaVuSans-30"/>
      <use x="1885.351562" xlink:href="#DejaVuSans-31"/>
     </g>
    </g>
    <g id="line2d_38">
     <path d="M 615.189687 337.836834 
L 631.189687 337.836834 
" style="fill:none;stroke:#5cb85c;stroke-linecap:square;"/>
    </g>
    <g id="line2d_39"/>
    <g id="text_27">
     <!-- fastqc | SRR9264352_S0_L001_R1_001 -->
     <g transform="translate(637.589687 340.636834)scale(0.08 -0.08)">
      <use xlink:href="#DejaVuSans-66"/>
      <use x="35.205078" xlink:href="#DejaVuSans-61"/>
      <use x="96.484375" xlink:href="#DejaVuSans-73"/>
      <use x="148.583984" xlink:href="#DejaVuSans-74"/>
      <use x="187.792969" xlink:href="#DejaVuSans-71"/>
      <use x="251.269531" xlink:href="#DejaVuSans-63"/>
      <use x="306.25" xlink:href="#DejaVuSans-20"/>
      <use x="338.037109" xlink:href="#DejaVuSans-7c"/>
      <use x="371.728516" xlink:href="#DejaVuSans-20"/>
      <use x="403.515625" xlink:href="#DejaVuSans-53"/>
      <use x="466.992188" xlink:href="#DejaVuSans-52"/>
      <use x="536.474609" xlink:href="#DejaVuSans-52"/>
      <use x="605.957031" xlink:href="#DejaVuSans-39"/>
      <use x="669.580078" xlink:href="#DejaVuSans-32"/>
      <use x="733.203125" xlink:href="#DejaVuSans-36"/>
      <use x="796.826172" xlink:href="#DejaVuSans-34"/>
      <use x="860.449219" xlink:href="#DejaVuSans-33"/>
      <use x="924.072266" xlink:href="#DejaVuSans-35"/>
      <use x="987.695312" xlink:href="#DejaVuSans-32"/>
      <use x="1051.318359" xlink:href="#DejaVuSans-5f"/>
      <use x="1101.318359" xlink:href="#DejaVuSans-53"/>
      <use x="1164.794922" xlink:href="#DejaVuSans-30"/>
      <use x="1228.417969" xlink:href="#DejaVuSans-5f"/>
      <use x="1278.417969" xlink:href="#DejaVuSans-4c"/>
      <use x="1334.130859" xlink:href="#DejaVuSans-30"/>
      <use x="1397.753906" xlink:href="#DejaVuSans-30"/>
      <use x="1461.376953" xlink:href="#DejaVuSans-31"/>
      <use x="1525" xlink:href="#DejaVuSans-5f"/>
      <use x="1575" xlink:href="#DejaVuSans-52"/>
      <use x="1644.482422" xlink:href="#DejaVuSans-31"/>
      <use x="1708.105469" xlink:href="#DejaVuSans-5f"/>
      <use x="1758.105469" xlink:href="#DejaVuSans-30"/>
      <use x="1821.728516" xlink:href="#DejaVuSans-30"/>
      <use x="1885.351562" xlink:href="#DejaVuSans-31"/>
     </g>
    </g>
    <g id="line2d_40">
     <path d="M 805.166875 325.836834 
L 821.166875 325.836834 
" style="fill:none;stroke:#5cb85c;stroke-linecap:square;"/>
    </g>
    <g id="line2d_41"/>
    <g id="text_28">
     <!-- fastqc | SRR9264353_S0_L001_R1_001 -->
     <g transform="translate(827.566875 328.636834)scale(0.08 -0.08)">
      <use xlink:href="#DejaVuSans-66"/>
      <use x="35.205078" xlink:href="#DejaVuSans-61"/>
      <use x="96.484375" xlink:href="#DejaVuSans-73"/>
      <use x="148.583984" xlink:href="#DejaVuSans-74"/>
      <use x="187.792969" xlink:href="#DejaVuSans-71"/>
      <use x="251.269531" xlink:href="#DejaVuSans-63"/>
      <use x="306.25" xlink:href="#DejaVuSans-20"/>
      <use x="338.037109" xlink:href="#DejaVuSans-7c"/>
      <use x="371.728516" xlink:href="#DejaVuSans-20"/>
      <use x="403.515625" xlink:href="#DejaVuSans-53"/>
      <use x="466.992188" xlink:href="#DejaVuSans-52"/>
      <use x="536.474609" xlink:href="#DejaVuSans-52"/>
      <use x="605.957031" xlink:href="#DejaVuSans-39"/>
      <use x="669.580078" xlink:href="#DejaVuSans-32"/>
      <use x="733.203125" xlink:href="#DejaVuSans-36"/>
      <use x="796.826172" xlink:href="#DejaVuSans-34"/>
      <use x="860.449219" xlink:href="#DejaVuSans-33"/>
      <use x="924.072266" xlink:href="#DejaVuSans-35"/>
      <use x="987.695312" xlink:href="#DejaVuSans-33"/>
      <use x="1051.318359" xlink:href="#DejaVuSans-5f"/>
      <use x="1101.318359" xlink:href="#DejaVuSans-53"/>
      <use x="1164.794922" xlink:href="#DejaVuSans-30"/>
      <use x="1228.417969" xlink:href="#DejaVuSans-5f"/>
      <use x="1278.417969" xlink:href="#DejaVuSans-4c"/>
      <use x="1334.130859" xlink:href="#DejaVuSans-30"/>
      <use x="1397.753906" xlink:href="#DejaVuSans-30"/>
      <use x="1461.376953" xlink:href="#DejaVuSans-31"/>
      <use x="1525" xlink:href="#DejaVuSans-5f"/>
      <use x="1575" xlink:href="#DejaVuSans-52"/>
      <use x="1644.482422" xlink:href="#DejaVuSans-31"/>
      <use x="1708.105469" xlink:href="#DejaVuSans-5f"/>
      <use x="1758.105469" xlink:href="#DejaVuSans-30"/>
      <use x="1821.728516" xlink:href="#DejaVuSans-30"/>
      <use x="1885.351562" xlink:href="#DejaVuSans-31"/>
     </g>
    </g>
    <g id="line2d_42">
     <path d="M 805.166875 337.836834 
L 821.166875 337.836834 
" style="fill:none;stroke:#5cb85c;stroke-linecap:square;"/>
    </g>
    <g id="line2d_43"/>
    <g id="text_29">
     <!-- fastqc | SRR9264354_S0_L001_R1_001 -->
     <g transform="translate(827.566875 340.636834)scale(0.08 -0.08)">
      <use xlink:href="#DejaVuSans-66"/>
      <use x="35.205078" xlink:href="#DejaVuSans-61"/>
      <use x="96.484375" xlink:href="#DejaVuSans-73"/>
      <use x="148.583984" xlink:href="#DejaVuSans-74"/>
      <use x="187.792969" xlink:href="#DejaVuSans-71"/>
      <use x="251.269531" xlink:href="#DejaVuSans-63"/>
      <use x="306.25" xlink:href="#DejaVuSans-20"/>
      <use x="338.037109" xlink:href="#DejaVuSans-7c"/>
      <use x="371.728516" xlink:href="#DejaVuSans-20"/>
      <use x="403.515625" xlink:href="#DejaVuSans-53"/>
      <use x="466.992188" xlink:href="#DejaVuSans-52"/>
      <use x="536.474609" xlink:href="#DejaVuSans-52"/>
      <use x="605.957031" xlink:href="#DejaVuSans-39"/>
      <use x="669.580078" xlink:href="#DejaVuSans-32"/>
      <use x="733.203125" xlink:href="#DejaVuSans-36"/>
      <use x="796.826172" xlink:href="#DejaVuSans-34"/>
      <use x="860.449219" xlink:href="#DejaVuSans-33"/>
      <use x="924.072266" xlink:href="#DejaVuSans-35"/>
      <use x="987.695312" xlink:href="#DejaVuSans-34"/>
      <use x="1051.318359" xlink:href="#DejaVuSans-5f"/>
      <use x="1101.318359" xlink:href="#DejaVuSans-53"/>
      <use x="1164.794922" xlink:href="#DejaVuSans-30"/>
      <use x="1228.417969" xlink:href="#DejaVuSans-5f"/>
      <use x="1278.417969" xlink:href="#DejaVuSans-4c"/>
      <use x="1334.130859" xlink:href="#DejaVuSans-30"/>
      <use x="1397.753906" xlink:href="#DejaVuSans-30"/>
      <use x="1461.376953" xlink:href="#DejaVuSans-31"/>
      <use x="1525" xlink:href="#DejaVuSans-5f"/>
      <use x="1575" xlink:href="#DejaVuSans-52"/>
      <use x="1644.482422" xlink:href="#DejaVuSans-31"/>
      <use x="1708.105469" xlink:href="#DejaVuSans-5f"/>
      <use x="1758.105469" xlink:href="#DejaVuSans-30"/>
      <use x="1821.728516" xlink:href="#DejaVuSans-30"/>
      <use x="1885.351562" xlink:href="#DejaVuSans-31"/>
     </g>
    </g>
   </g>
  </g>
 </g>
 <defs>
  <clipPath id="p7e64b2a152">
   <rect height="269.5792" width="952.63" x="38.058125" y="32.83646"/>
  </clipPath>
 </defs>
</svg>
