<?xml version="1.0" encoding="utf-8" standalone="no"?>
<!DOCTYPE svg PUBLIC "-//W3C//DTD SVG 1.1//EN"
  "http://www.w3.org/Graphics/SVG/1.1/DTD/svg11.dtd">
<!-- Created with matplotlib (http://matplotlib.org/) -->
<svg height="354.255084pt" version="1.1" viewBox="0 0 1000.433125 354.255084" width="1000.433125pt" xmlns="http://www.w3.org/2000/svg" xmlns:xlink="http://www.w3.org/1999/xlink">
 <defs>
  <style type="text/css">
*{stroke-linecap:butt;stroke-linejoin:round;}
  </style>
 </defs>
 <g id="figure_1">
  <g id="patch_1">
   <path d="M 0 354.255084 
L 1000.433125 354.255084 
L 1000.433125 0 
L 0 0 
z
" style="fill:#ffffff;"/>
  </g>
  <g id="axes_1">
   <g id="patch_2">
    <path d="M 32.968125 293.59566 
L 985.598125 293.59566 
L 985.598125 32.41646 
L 32.968125 32.41646 
z
" style="fill:#ffffff;"/>
   </g>
   <g id="matplotlib.axis_1">
    <g id="xtick_1">
     <g id="text_1">
      <!-- 0 -->
      <defs>
       <path d="M 31.78125 66.40625 
Q 24.171875 66.40625 20.328125 58.90625 
Q 16.5 51.421875 16.5 36.375 
Q 16.5 21.390625 20.328125 13.890625 
Q 24.171875 6.390625 31.78125 6.390625 
Q 39.453125 6.390625 43.28125 13.890625 
Q 47.125 21.390625 47.125 36.375 
Q 47.125 51.421875 43.28125 58.90625 
Q 39.453125 66.40625 31.78125 66.40625 
z
M 31.78125 74.21875 
Q 44.046875 74.21875 50.515625 64.515625 
Q 56.984375 54.828125 56.984375 36.375 
Q 56.984375 17.96875 50.515625 8.265625 
Q 44.046875 -1.421875 31.78125 -1.421875 
Q 19.53125 -1.421875 13.0625 8.265625 
Q 6.59375 17.96875 6.59375 36.375 
Q 6.59375 54.828125 13.0625 64.515625 
Q 19.53125 74.21875 31.78125 74.21875 
z
" id="DejaVuSans-30"/>
      </defs>
      <g transform="translate(30.423125 306.67441)scale(0.08 -0.08)">
       <use xlink:href="#DejaVuSans-30"/>
      </g>
     </g>
    </g>
    <g id="xtick_2">
     <g id="text_2">
      <!-- 20 -->
      <defs>
       <path d="M 19.1875 8.296875 
L 53.609375 8.296875 
L 53.609375 0 
L 7.328125 0 
L 7.328125 8.296875 
Q 12.9375 14.109375 22.625 23.890625 
Q 32.328125 33.6875 34.8125 36.53125 
Q 39.546875 41.84375 41.421875 45.53125 
Q 43.3125 49.21875 43.3125 52.78125 
Q 43.3125 58.59375 39.234375 62.25 
Q 35.15625 65.921875 28.609375 65.921875 
Q 23.96875 65.921875 18.8125 64.3125 
Q 13.671875 62.703125 7.8125 59.421875 
L 7.8125 69.390625 
Q 13.765625 71.78125 18.9375 73 
Q 24.125 74.21875 28.421875 74.21875 
Q 39.75 74.21875 46.484375 68.546875 
Q 53.21875 62.890625 53.21875 53.421875 
Q 53.21875 48.921875 51.53125 44.890625 
Q 49.859375 40.875 45.40625 35.40625 
Q 44.1875 33.984375 37.640625 27.21875 
Q 31.109375 20.453125 19.1875 8.296875 
z
" id="DejaVuSans-32"/>
      </defs>
      <g transform="translate(218.404125 306.67441)scale(0.08 -0.08)">
       <use xlink:href="#DejaVuSans-32"/>
       <use x="63.623047" xlink:href="#DejaVuSans-30"/>
      </g>
     </g>
    </g>
    <g id="xtick_3">
     <g id="text_3">
      <!-- 40 -->
      <defs>
       <path d="M 37.796875 64.3125 
L 12.890625 25.390625 
L 37.796875 25.390625 
z
M 35.203125 72.90625 
L 47.609375 72.90625 
L 47.609375 25.390625 
L 58.015625 25.390625 
L 58.015625 17.1875 
L 47.609375 17.1875 
L 47.609375 0 
L 37.796875 0 
L 37.796875 17.1875 
L 4.890625 17.1875 
L 4.890625 26.703125 
z
" id="DejaVuSans-34"/>
      </defs>
      <g transform="translate(408.930125 306.67441)scale(0.08 -0.08)">
       <use xlink:href="#DejaVuSans-34"/>
       <use x="63.623047" xlink:href="#DejaVuSans-30"/>
      </g>
     </g>
    </g>
    <g id="xtick_4">
     <g id="text_4">
      <!-- 60 -->
      <defs>
       <path d="M 33.015625 40.375 
Q 26.375 40.375 22.484375 35.828125 
Q 18.609375 31.296875 18.609375 23.390625 
Q 18.609375 15.53125 22.484375 10.953125 
Q 26.375 6.390625 33.015625 6.390625 
Q 39.65625 6.390625 43.53125 10.953125 
Q 47.40625 15.53125 47.40625 23.390625 
Q 47.40625 31.296875 43.53125 35.828125 
Q 39.65625 40.375 33.015625 40.375 
z
M 52.59375 71.296875 
L 52.59375 62.3125 
Q 48.875 64.0625 45.09375 64.984375 
Q 41.3125 65.921875 37.59375 65.921875 
Q 27.828125 65.921875 22.671875 59.328125 
Q 17.53125 52.734375 16.796875 39.40625 
Q 19.671875 43.65625 24.015625 45.921875 
Q 28.375 48.1875 33.59375 48.1875 
Q 44.578125 48.1875 50.953125 41.515625 
Q 57.328125 34.859375 57.328125 23.390625 
Q 57.328125 12.15625 50.6875 5.359375 
Q 44.046875 -1.421875 33.015625 -1.421875 
Q 20.359375 -1.421875 13.671875 8.265625 
Q 6.984375 17.96875 6.984375 36.375 
Q 6.984375 53.65625 15.1875 63.9375 
Q 23.390625 74.21875 37.203125 74.21875 
Q 40.921875 74.21875 44.703125 73.484375 
Q 48.484375 72.75 52.59375 71.296875 
z
" id="DejaVuSans-36"/>
      </defs>
      <g transform="translate(599.456125 306.67441)scale(0.08 -0.08)">
       <use xlink:href="#DejaVuSans-36"/>
       <use x="63.623047" xlink:href="#DejaVuSans-30"/>
      </g>
     </g>
    </g>
    <g id="xtick_5">
     <g id="text_5">
      <!-- 80 -->
      <defs>
       <path d="M 31.78125 34.625 
Q 24.75 34.625 20.71875 30.859375 
Q 16.703125 27.09375 16.703125 20.515625 
Q 16.703125 13.921875 20.71875 10.15625 
Q 24.75 6.390625 31.78125 6.390625 
Q 38.8125 6.390625 42.859375 10.171875 
Q 46.921875 13.96875 46.921875 20.515625 
Q 46.921875 27.09375 42.890625 30.859375 
Q 38.875 34.625 31.78125 34.625 
z
M 21.921875 38.8125 
Q 15.578125 40.375 12.03125 44.71875 
Q 8.5 49.078125 8.5 55.328125 
Q 8.5 64.0625 14.71875 69.140625 
Q 20.953125 74.21875 31.78125 74.21875 
Q 42.671875 74.21875 48.875 69.140625 
Q 55.078125 64.0625 55.078125 55.328125 
Q 55.078125 49.078125 51.53125 44.71875 
Q 48 40.375 41.703125 38.8125 
Q 48.828125 37.15625 52.796875 32.3125 
Q 56.78125 27.484375 56.78125 20.515625 
Q 56.78125 9.90625 50.3125 4.234375 
Q 43.84375 -1.421875 31.78125 -1.421875 
Q 19.734375 -1.421875 13.25 4.234375 
Q 6.78125 9.90625 6.78125 20.515625 
Q 6.78125 27.484375 10.78125 32.3125 
Q 14.796875 37.15625 21.921875 38.8125 
z
M 18.3125 54.390625 
Q 18.3125 48.734375 21.84375 45.5625 
Q 25.390625 42.390625 31.78125 42.390625 
Q 38.140625 42.390625 41.71875 45.5625 
Q 45.3125 48.734375 45.3125 54.390625 
Q 45.3125 60.0625 41.71875 63.234375 
Q 38.140625 66.40625 31.78125 66.40625 
Q 25.390625 66.40625 21.84375 63.234375 
Q 18.3125 60.0625 18.3125 54.390625 
z
" id="DejaVuSans-38"/>
      </defs>
      <g transform="translate(789.982125 306.67441)scale(0.08 -0.08)">
       <use xlink:href="#DejaVuSans-38"/>
       <use x="63.623047" xlink:href="#DejaVuSans-30"/>
      </g>
     </g>
    </g>
    <g id="xtick_6">
     <g id="text_6">
      <!-- 100 -->
      <defs>
       <path d="M 12.40625 8.296875 
L 28.515625 8.296875 
L 28.515625 63.921875 
L 10.984375 60.40625 
L 10.984375 69.390625 
L 28.421875 72.90625 
L 38.28125 72.90625 
L 38.28125 8.296875 
L 54.390625 8.296875 
L 54.390625 0 
L 12.40625 0 
z
" id="DejaVuSans-31"/>
      </defs>
      <g transform="translate(977.963125 306.67441)scale(0.08 -0.08)">
       <use xlink:href="#DejaVuSans-31"/>
       <use x="63.623047" xlink:href="#DejaVuSans-30"/>
       <use x="127.246094" xlink:href="#DejaVuSans-30"/>
      </g>
     </g>
    </g>
    <g id="text_7">
     <!-- % GC -->
     <defs>
      <path d="M 72.703125 32.078125 
Q 68.453125 32.078125 66.03125 28.46875 
Q 63.625 24.859375 63.625 18.40625 
Q 63.625 12.0625 66.03125 8.421875 
Q 68.453125 4.78125 72.703125 4.78125 
Q 76.859375 4.78125 79.265625 8.421875 
Q 81.6875 12.0625 81.6875 18.40625 
Q 81.6875 24.8125 79.265625 28.4375 
Q 76.859375 32.078125 72.703125 32.078125 
z
M 72.703125 38.28125 
Q 80.421875 38.28125 84.953125 32.90625 
Q 89.5 27.546875 89.5 18.40625 
Q 89.5 9.28125 84.9375 3.921875 
Q 80.375 -1.421875 72.703125 -1.421875 
Q 64.890625 -1.421875 60.34375 3.921875 
Q 55.8125 9.28125 55.8125 18.40625 
Q 55.8125 27.59375 60.375 32.9375 
Q 64.9375 38.28125 72.703125 38.28125 
z
M 22.3125 68.015625 
Q 18.109375 68.015625 15.6875 64.375 
Q 13.28125 60.75 13.28125 54.390625 
Q 13.28125 47.953125 15.671875 44.328125 
Q 18.0625 40.71875 22.3125 40.71875 
Q 26.5625 40.71875 28.96875 44.328125 
Q 31.390625 47.953125 31.390625 54.390625 
Q 31.390625 60.6875 28.953125 64.34375 
Q 26.515625 68.015625 22.3125 68.015625 
z
M 66.40625 74.21875 
L 74.21875 74.21875 
L 28.609375 -1.421875 
L 20.796875 -1.421875 
z
M 22.3125 74.21875 
Q 30.03125 74.21875 34.609375 68.875 
Q 39.203125 63.53125 39.203125 54.390625 
Q 39.203125 45.171875 34.640625 39.84375 
Q 30.078125 34.515625 22.3125 34.515625 
Q 14.546875 34.515625 10.03125 39.859375 
Q 5.515625 45.21875 5.515625 54.390625 
Q 5.515625 63.484375 10.046875 68.84375 
Q 14.59375 74.21875 22.3125 74.21875 
z
" id="DejaVuSans-25"/>
      <path id="DejaVuSans-20"/>
      <path d="M 59.515625 10.40625 
L 59.515625 29.984375 
L 43.40625 29.984375 
L 43.40625 38.09375 
L 69.28125 38.09375 
L 69.28125 6.78125 
Q 63.578125 2.734375 56.6875 0.65625 
Q 49.8125 -1.421875 42 -1.421875 
Q 24.90625 -1.421875 15.25 8.5625 
Q 5.609375 18.5625 5.609375 36.375 
Q 5.609375 54.25 15.25 64.234375 
Q 24.90625 74.21875 42 74.21875 
Q 49.125 74.21875 55.546875 72.453125 
Q 61.96875 70.703125 67.390625 67.28125 
L 67.390625 56.78125 
Q 61.921875 61.421875 55.765625 63.765625 
Q 49.609375 66.109375 42.828125 66.109375 
Q 29.4375 66.109375 22.71875 58.640625 
Q 16.015625 51.171875 16.015625 36.375 
Q 16.015625 21.625 22.71875 14.15625 
Q 29.4375 6.6875 42.828125 6.6875 
Q 48.046875 6.6875 52.140625 7.59375 
Q 56.25 8.5 59.515625 10.40625 
z
" id="DejaVuSans-47"/>
      <path d="M 64.40625 67.28125 
L 64.40625 56.890625 
Q 59.421875 61.53125 53.78125 63.8125 
Q 48.140625 66.109375 41.796875 66.109375 
Q 29.296875 66.109375 22.65625 58.46875 
Q 16.015625 50.828125 16.015625 36.375 
Q 16.015625 21.96875 22.65625 14.328125 
Q 29.296875 6.6875 41.796875 6.6875 
Q 48.140625 6.6875 53.78125 8.984375 
Q 59.421875 11.28125 64.40625 15.921875 
L 64.40625 5.609375 
Q 59.234375 2.09375 53.4375 0.328125 
Q 47.65625 -1.421875 41.21875 -1.421875 
Q 24.65625 -1.421875 15.125 8.703125 
Q 5.609375 18.84375 5.609375 36.375 
Q 5.609375 53.953125 15.125 64.078125 
Q 24.65625 74.21875 41.21875 74.21875 
Q 47.75 74.21875 53.53125 72.484375 
Q 59.328125 70.75 64.40625 67.28125 
z
" id="DejaVuSans-43"/>
     </defs>
     <g transform="translate(495.577656 319.936598)scale(0.1 -0.1)">
      <use xlink:href="#DejaVuSans-25"/>
      <use x="95.019531" xlink:href="#DejaVuSans-20"/>
      <use x="126.806641" xlink:href="#DejaVuSans-47"/>
      <use x="204.296875" xlink:href="#DejaVuSans-43"/>
     </g>
    </g>
   </g>
   <g id="matplotlib.axis_2">
    <g id="ytick_1">
     <g id="line2d_1">
      <path clip-path="url(#pe48b7bed9a)" d="M 32.968125 293.59566 
L 985.598125 293.59566 
" style="fill:none;stroke:#dedede;stroke-linecap:square;"/>
     </g>
     <g id="text_8">
      <!-- 0 -->
      <g transform="translate(20.878125 296.635035)scale(0.08 -0.08)">
       <use xlink:href="#DejaVuSans-30"/>
      </g>
     </g>
    </g>
    <g id="ytick_2">
     <g id="line2d_2">
      <path clip-path="url(#pe48b7bed9a)" d="M 32.968125 252.614134 
L 985.598125 252.614134 
" style="fill:none;stroke:#dedede;stroke-linecap:square;"/>
     </g>
     <g id="text_9">
      <!-- 1 -->
      <g transform="translate(20.878125 255.653509)scale(0.08 -0.08)">
       <use xlink:href="#DejaVuSans-31"/>
      </g>
     </g>
    </g>
    <g id="ytick_3">
     <g id="line2d_3">
      <path clip-path="url(#pe48b7bed9a)" d="M 32.968125 211.632608 
L 985.598125 211.632608 
" style="fill:none;stroke:#dedede;stroke-linecap:square;"/>
     </g>
     <g id="text_10">
      <!-- 2 -->
      <g transform="translate(20.878125 214.671983)scale(0.08 -0.08)">
       <use xlink:href="#DejaVuSans-32"/>
      </g>
     </g>
    </g>
    <g id="ytick_4">
     <g id="line2d_4">
      <path clip-path="url(#pe48b7bed9a)" d="M 32.968125 170.651083 
L 985.598125 170.651083 
" style="fill:none;stroke:#dedede;stroke-linecap:square;"/>
     </g>
     <g id="text_11">
      <!-- 3 -->
      <defs>
       <path d="M 40.578125 39.3125 
Q 47.65625 37.796875 51.625 33 
Q 55.609375 28.21875 55.609375 21.1875 
Q 55.609375 10.40625 48.1875 4.484375 
Q 40.765625 -1.421875 27.09375 -1.421875 
Q 22.515625 -1.421875 17.65625 -0.515625 
Q 12.796875 0.390625 7.625 2.203125 
L 7.625 11.71875 
Q 11.71875 9.328125 16.59375 8.109375 
Q 21.484375 6.890625 26.8125 6.890625 
Q 36.078125 6.890625 40.9375 10.546875 
Q 45.796875 14.203125 45.796875 21.1875 
Q 45.796875 27.640625 41.28125 31.265625 
Q 36.765625 34.90625 28.71875 34.90625 
L 20.21875 34.90625 
L 20.21875 43.015625 
L 29.109375 43.015625 
Q 36.375 43.015625 40.234375 45.921875 
Q 44.09375 48.828125 44.09375 54.296875 
Q 44.09375 59.90625 40.109375 62.90625 
Q 36.140625 65.921875 28.71875 65.921875 
Q 24.65625 65.921875 20.015625 65.03125 
Q 15.375 64.15625 9.8125 62.3125 
L 9.8125 71.09375 
Q 15.4375 72.65625 20.34375 73.4375 
Q 25.25 74.21875 29.59375 74.21875 
Q 40.828125 74.21875 47.359375 69.109375 
Q 53.90625 64.015625 53.90625 55.328125 
Q 53.90625 49.265625 50.4375 45.09375 
Q 46.96875 40.921875 40.578125 39.3125 
z
" id="DejaVuSans-33"/>
      </defs>
      <g transform="translate(20.878125 173.690458)scale(0.08 -0.08)">
       <use xlink:href="#DejaVuSans-33"/>
      </g>
     </g>
    </g>
    <g id="ytick_5">
     <g id="line2d_5">
      <path clip-path="url(#pe48b7bed9a)" d="M 32.968125 129.669557 
L 985.598125 129.669557 
" style="fill:none;stroke:#dedede;stroke-linecap:square;"/>
     </g>
     <g id="text_12">
      <!-- 4 -->
      <g transform="translate(20.878125 132.708932)scale(0.08 -0.08)">
       <use xlink:href="#DejaVuSans-34"/>
      </g>
     </g>
    </g>
    <g id="ytick_6">
     <g id="line2d_6">
      <path clip-path="url(#pe48b7bed9a)" d="M 32.968125 88.688031 
L 985.598125 88.688031 
" style="fill:none;stroke:#dedede;stroke-linecap:square;"/>
     </g>
     <g id="text_13">
      <!-- 5 -->
      <defs>
       <path d="M 10.796875 72.90625 
L 49.515625 72.90625 
L 49.515625 64.59375 
L 19.828125 64.59375 
L 19.828125 46.734375 
Q 21.96875 47.46875 24.109375 47.828125 
Q 26.265625 48.1875 28.421875 48.1875 
Q 40.625 48.1875 47.75 41.5 
Q 54.890625 34.8125 54.890625 23.390625 
Q 54.890625 11.625 47.5625 5.09375 
Q 40.234375 -1.421875 26.90625 -1.421875 
Q 22.3125 -1.421875 17.546875 -0.640625 
Q 12.796875 0.140625 7.71875 1.703125 
L 7.71875 11.625 
Q 12.109375 9.234375 16.796875 8.0625 
Q 21.484375 6.890625 26.703125 6.890625 
Q 35.15625 6.890625 40.078125 11.328125 
Q 45.015625 15.765625 45.015625 23.390625 
Q 45.015625 31 40.078125 35.4375 
Q 35.15625 39.890625 26.703125 39.890625 
Q 22.75 39.890625 18.8125 39.015625 
Q 14.890625 38.140625 10.796875 36.28125 
z
" id="DejaVuSans-35"/>
      </defs>
      <g transform="translate(20.878125 91.727406)scale(0.08 -0.08)">
       <use xlink:href="#DejaVuSans-35"/>
      </g>
     </g>
    </g>
    <g id="ytick_7">
     <g id="line2d_7">
      <path clip-path="url(#pe48b7bed9a)" d="M 32.968125 47.706505 
L 985.598125 47.706505 
" style="fill:none;stroke:#dedede;stroke-linecap:square;"/>
     </g>
     <g id="text_14">
      <!-- 6 -->
      <g transform="translate(20.878125 50.74588)scale(0.08 -0.08)">
       <use xlink:href="#DejaVuSans-36"/>
      </g>
     </g>
    </g>
    <g id="text_15">
     <!-- Count -->
     <defs>
      <path d="M 30.609375 48.390625 
Q 23.390625 48.390625 19.1875 42.75 
Q 14.984375 37.109375 14.984375 27.296875 
Q 14.984375 17.484375 19.15625 11.84375 
Q 23.34375 6.203125 30.609375 6.203125 
Q 37.796875 6.203125 41.984375 11.859375 
Q 46.1875 17.53125 46.1875 27.296875 
Q 46.1875 37.015625 41.984375 42.703125 
Q 37.796875 48.390625 30.609375 48.390625 
z
M 30.609375 56 
Q 42.328125 56 49.015625 48.375 
Q 55.71875 40.765625 55.71875 27.296875 
Q 55.71875 13.875 49.015625 6.21875 
Q 42.328125 -1.421875 30.609375 -1.421875 
Q 18.84375 -1.421875 12.171875 6.21875 
Q 5.515625 13.875 5.515625 27.296875 
Q 5.515625 40.765625 12.171875 48.375 
Q 18.84375 56 30.609375 56 
z
" id="DejaVuSans-6f"/>
      <path d="M 8.5 21.578125 
L 8.5 54.6875 
L 17.484375 54.6875 
L 17.484375 21.921875 
Q 17.484375 14.15625 20.5 10.265625 
Q 23.53125 6.390625 29.59375 6.390625 
Q 36.859375 6.390625 41.078125 11.03125 
Q 45.3125 15.671875 45.3125 23.6875 
L 45.3125 54.6875 
L 54.296875 54.6875 
L 54.296875 0 
L 45.3125 0 
L 45.3125 8.40625 
Q 42.046875 3.421875 37.71875 1 
Q 33.40625 -1.421875 27.6875 -1.421875 
Q 18.265625 -1.421875 13.375 4.4375 
Q 8.5 10.296875 8.5 21.578125 
z
M 31.109375 56 
z
" id="DejaVuSans-75"/>
      <path d="M 54.890625 33.015625 
L 54.890625 0 
L 45.90625 0 
L 45.90625 32.71875 
Q 45.90625 40.484375 42.875 44.328125 
Q 39.84375 48.1875 33.796875 48.1875 
Q 26.515625 48.1875 22.3125 43.546875 
Q 18.109375 38.921875 18.109375 30.90625 
L 18.109375 0 
L 9.078125 0 
L 9.078125 54.6875 
L 18.109375 54.6875 
L 18.109375 46.1875 
Q 21.34375 51.125 25.703125 53.5625 
Q 30.078125 56 35.796875 56 
Q 45.21875 56 50.046875 50.171875 
Q 54.890625 44.34375 54.890625 33.015625 
z
" id="DejaVuSans-6e"/>
      <path d="M 18.3125 70.21875 
L 18.3125 54.6875 
L 36.8125 54.6875 
L 36.8125 47.703125 
L 18.3125 47.703125 
L 18.3125 18.015625 
Q 18.3125 11.328125 20.140625 9.421875 
Q 21.96875 7.515625 27.59375 7.515625 
L 36.8125 7.515625 
L 36.8125 0 
L 27.59375 0 
Q 17.1875 0 13.234375 3.875 
Q 9.28125 7.765625 9.28125 18.015625 
L 9.28125 47.703125 
L 2.6875 47.703125 
L 2.6875 54.6875 
L 9.28125 54.6875 
L 9.28125 70.21875 
z
" id="DejaVuSans-74"/>
     </defs>
     <g transform="translate(14.798437 177.854497)rotate(-90)scale(0.1 -0.1)">
      <use xlink:href="#DejaVuSans-43"/>
      <use x="69.824219" xlink:href="#DejaVuSans-6f"/>
      <use x="131.005859" xlink:href="#DejaVuSans-75"/>
      <use x="194.384766" xlink:href="#DejaVuSans-6e"/>
      <use x="257.763672" xlink:href="#DejaVuSans-74"/>
     </g>
    </g>
    <g id="text_16">
     <!-- 1e7 -->
     <defs>
      <path d="M 56.203125 29.59375 
L 56.203125 25.203125 
L 14.890625 25.203125 
Q 15.484375 15.921875 20.484375 11.0625 
Q 25.484375 6.203125 34.421875 6.203125 
Q 39.59375 6.203125 44.453125 7.46875 
Q 49.3125 8.734375 54.109375 11.28125 
L 54.109375 2.78125 
Q 49.265625 0.734375 44.1875 -0.34375 
Q 39.109375 -1.421875 33.890625 -1.421875 
Q 20.796875 -1.421875 13.15625 6.1875 
Q 5.515625 13.8125 5.515625 26.8125 
Q 5.515625 40.234375 12.765625 48.109375 
Q 20.015625 56 32.328125 56 
Q 43.359375 56 49.78125 48.890625 
Q 56.203125 41.796875 56.203125 29.59375 
z
M 47.21875 32.234375 
Q 47.125 39.59375 43.09375 43.984375 
Q 39.0625 48.390625 32.421875 48.390625 
Q 24.90625 48.390625 20.390625 44.140625 
Q 15.875 39.890625 15.1875 32.171875 
z
" id="DejaVuSans-65"/>
      <path d="M 8.203125 72.90625 
L 55.078125 72.90625 
L 55.078125 68.703125 
L 28.609375 0 
L 18.3125 0 
L 43.21875 64.59375 
L 8.203125 64.59375 
z
" id="DejaVuSans-37"/>
     </defs>
     <g transform="translate(32.968125 29.41646)scale(0.1 -0.1)">
      <use xlink:href="#DejaVuSans-31"/>
      <use x="63.623047" xlink:href="#DejaVuSans-65"/>
      <use x="125.146484" xlink:href="#DejaVuSans-37"/>
     </g>
    </g>
   </g>
   <g id="line2d_8">
    <path clip-path="url(#pe48b7bed9a)" d="M 32.968125 293.595078 
L 42.494425 293.595078 
L 52.020725 293.594855 
L 61.547025 293.594631 
L 71.073325 293.594631 
L 80.599625 293.594631 
L 90.125925 293.592441 
L 99.652225 293.59025 
L 109.178525 293.59025 
L 118.704825 293.59025 
L 128.231125 293.585158 
L 137.757425 293.580067 
L 147.283725 293.580067 
L 156.810025 293.568848 
L 166.336325 293.557629 
L 175.862625 293.557629 
L 185.388925 293.557629 
L 194.915225 293.534473 
L 204.441525 293.511316 
L 213.967825 293.511316 
L 223.494125 293.511316 
L 233.020425 293.377306 
L 242.546725 293.243297 
L 252.073025 293.243297 
L 261.599325 293.243297 
L 271.125625 292.437918 
L 280.651925 291.632538 
L 290.178225 291.632538 
L 299.704525 291.632538 
L 309.230825 288.496925 
L 318.757125 285.361312 
L 328.283425 285.361312 
L 337.809725 285.361312 
L 347.336025 277.017846 
L 356.862325 268.67438 
L 366.388625 268.67438 
L 375.914925 268.67438 
L 385.441225 252.79961 
L 394.967525 236.924841 
L 404.493825 236.924841 
L 414.020125 215.193663 
L 423.546425 193.462486 
L 433.072725 193.462486 
L 442.599025 193.462486 
L 452.125325 173.02052 
L 461.651625 152.578554 
L 471.177925 152.578554 
L 480.704225 152.578554 
L 490.230525 143.026493 
L 499.756825 133.474433 
L 509.283125 133.474433 
L 518.809425 133.474433 
L 528.335725 139.701058 
L 537.862025 145.927682 
L 547.388325 145.927682 
L 556.914625 145.927682 
L 566.440925 164.533213 
L 575.967225 183.138744 
L 585.493525 183.138744 
L 595.019825 183.138744 
L 604.546125 205.1441 
L 614.072425 227.149456 
L 623.598725 227.149456 
L 633.125025 244.639072 
L 642.651325 262.128688 
L 652.177625 262.128688 
L 661.703925 262.128688 
L 671.230225 272.148245 
L 680.756525 282.167802 
L 690.282825 282.167802 
L 699.809125 282.167802 
L 709.335425 286.36983 
L 718.861725 290.571859 
L 728.388025 290.571859 
L 737.914325 290.571859 
L 747.440625 291.817275 
L 756.966925 293.062691 
L 766.493225 293.062691 
L 776.019525 293.062691 
L 785.545825 293.299036 
L 795.072125 293.53538 
L 804.598425 293.53538 
L 814.124725 293.53538 
L 823.651025 293.5615 
L 833.177325 293.587619 
L 842.703625 293.587619 
L 852.229925 293.587619 
L 861.756225 293.590662 
L 871.282525 293.593705 
L 880.808825 293.593705 
L 890.335125 293.594088 
L 899.861425 293.594472 
L 909.387725 293.594472 
L 918.914025 293.594472 
L 928.440325 293.59457 
L 937.966625 293.594668 
L 947.492925 293.594668 
L 957.019225 293.594668 
L 966.545525 293.59342 
L 976.071825 293.592172 
L 985.598125 293.592172 
" style="fill:none;stroke:#5cb85c;stroke-linecap:square;"/>
   </g>
   <g id="line2d_9">
    <path clip-path="url(#pe48b7bed9a)" d="M 32.968125 293.593615 
L 42.494425 293.593615 
L 52.020725 293.593359 
L 61.547025 293.593103 
L 71.073325 293.593103 
L 80.599625 293.593103 
L 90.125925 293.590517 
L 99.652225 293.587931 
L 109.178525 293.587931 
L 118.704825 293.587931 
L 128.231125 293.584216 
L 137.757425 293.580501 
L 147.283725 293.580501 
L 156.810025 293.568979 
L 166.336325 293.557457 
L 175.862625 293.557457 
L 185.388925 293.557457 
L 194.915225 293.525114 
L 204.441525 293.492772 
L 213.967825 293.492772 
L 223.494125 293.492772 
L 233.020425 293.24629 
L 242.546725 292.999809 
L 252.073025 292.999809 
L 261.599325 292.999809 
L 271.125625 291.578633 
L 280.651925 290.157458 
L 290.178225 290.157458 
L 299.704525 290.157458 
L 309.230825 284.856065 
L 318.757125 279.554672 
L 328.283425 279.554672 
L 337.809725 279.554672 
L 347.336025 266.018597 
L 356.862325 252.482522 
L 366.388625 252.482522 
L 375.914925 252.482522 
L 385.441225 227.34869 
L 394.967525 202.214857 
L 404.493825 202.214857 
L 414.020125 168.766193 
L 423.546425 135.317528 
L 433.072725 135.317528 
L 442.599025 135.317528 
L 452.125325 104.718547 
L 461.651625 74.119566 
L 471.177925 74.119566 
L 480.704225 74.119566 
L 490.230525 60.226325 
L 499.756825 46.333083 
L 509.283125 46.333083 
L 518.809425 46.333083 
L 528.335725 56.079777 
L 537.862025 65.826471 
L 547.388325 65.826471 
L 556.914625 65.826471 
L 566.440925 94.00804 
L 575.967225 122.189609 
L 585.493525 122.189609 
L 595.019825 122.189609 
L 604.546125 155.802402 
L 614.072425 189.415196 
L 623.598725 189.415196 
L 633.125025 216.399866 
L 642.651325 243.384537 
L 652.177625 243.384537 
L 661.703925 243.384537 
L 671.230225 259.169562 
L 680.756525 274.954586 
L 690.282825 274.954586 
L 699.809125 274.954586 
L 709.335425 281.749204 
L 718.861725 288.543822 
L 728.388025 288.543822 
L 737.914325 288.543822 
L 747.440625 290.613979 
L 756.966925 292.684137 
L 766.493225 292.684137 
L 776.019525 292.684137 
L 785.545825 293.087034 
L 795.072125 293.489932 
L 804.598425 293.489932 
L 814.124725 293.489932 
L 823.651025 293.537063 
L 833.177325 293.584193 
L 842.703625 293.584193 
L 852.229925 293.584193 
L 861.756225 293.588183 
L 871.282525 293.592172 
L 880.808825 293.592172 
L 890.335125 293.593254 
L 899.861425 293.594336 
L 909.387725 293.594336 
L 918.914025 293.594336 
L 928.440325 293.594685 
L 937.966625 293.595033 
L 947.492925 293.595033 
L 957.019225 293.595033 
L 966.545525 293.595029 
L 976.071825 293.595025 
L 985.598125 293.595025 
" style="fill:none;stroke:#5cb85c;stroke-linecap:square;"/>
   </g>
   <g id="line2d_10">
    <path clip-path="url(#pe48b7bed9a)" d="M 32.968125 293.594013 
L 42.494425 293.594013 
L 52.020725 293.593597 
L 61.547025 293.593181 
L 71.073325 293.593181 
L 80.599625 293.593181 
L 90.125925 293.591498 
L 99.652225 293.589816 
L 109.178525 293.589816 
L 118.704825 293.589816 
L 128.231125 293.585822 
L 137.757425 293.581829 
L 147.283725 293.581829 
L 156.810025 293.572946 
L 166.336325 293.564063 
L 175.862625 293.564063 
L 185.388925 293.564063 
L 194.915225 293.532327 
L 204.441525 293.500591 
L 213.967825 293.500591 
L 223.494125 293.500591 
L 233.020425 293.262726 
L 242.546725 293.024861 
L 252.073025 293.024861 
L 261.599325 293.024861 
L 271.125625 291.619988 
L 280.651925 290.215114 
L 290.178225 290.215114 
L 299.704525 290.215114 
L 309.230825 284.920949 
L 318.757125 279.626783 
L 328.283425 279.626783 
L 337.809725 279.626783 
L 347.336025 266.143937 
L 356.862325 252.661091 
L 366.388625 252.661091 
L 375.914925 252.661091 
L 385.441225 227.75448 
L 394.967525 202.84787 
L 404.493825 202.84787 
L 414.020125 169.603671 
L 423.546425 136.359471 
L 433.072725 136.359471 
L 442.599025 136.359471 
L 452.125325 105.47773 
L 461.651625 74.595988 
L 471.177925 74.595988 
L 480.704225 74.595988 
L 490.230525 59.724774 
L 499.756825 44.85356 
L 509.283125 44.85356 
L 518.809425 44.85356 
L 528.335725 53.992049 
L 537.862025 63.130538 
L 547.388325 63.130538 
L 556.914625 63.130538 
L 566.440925 91.326756 
L 575.967225 119.522974 
L 585.493525 119.522974 
L 595.019825 119.522974 
L 604.546125 153.528241 
L 614.072425 187.533508 
L 623.598725 187.533508 
L 633.125025 215.070036 
L 642.651325 242.606564 
L 652.177625 242.606564 
L 661.703925 242.606564 
L 671.230225 258.72918 
L 680.756525 274.851796 
L 690.282825 274.851796 
L 699.809125 274.851796 
L 709.335425 281.718402 
L 718.861725 288.585009 
L 728.388025 288.585009 
L 737.914325 288.585009 
L 747.440625 290.659526 
L 756.966925 292.734044 
L 766.493225 292.734044 
L 776.019525 292.734044 
L 785.545825 293.120979 
L 795.072125 293.507914 
L 804.598425 293.507914 
L 814.124725 293.507914 
L 823.651025 293.547208 
L 833.177325 293.586501 
L 842.703625 293.586501 
L 852.229925 293.586501 
L 861.756225 293.589736 
L 871.282525 293.592972 
L 880.808825 293.592972 
L 890.335125 293.593707 
L 899.861425 293.594443 
L 909.387725 293.594443 
L 918.914025 293.594443 
L 928.440325 293.594855 
L 937.966625 293.595267 
L 947.492925 293.595267 
L 957.019225 293.595267 
L 966.545525 293.595322 
L 976.071825 293.595377 
L 985.598125 293.595377 
" style="fill:none;stroke:#5cb85c;stroke-linecap:square;"/>
   </g>
   <g id="line2d_11">
    <path clip-path="url(#pe48b7bed9a)" d="M 32.968125 293.593058 
L 42.494425 293.593058 
L 52.020725 293.592728 
L 61.547025 293.592398 
L 71.073325 293.592398 
L 80.599625 293.592398 
L 90.125925 293.590898 
L 99.652225 293.589398 
L 109.178525 293.589398 
L 118.704825 293.589398 
L 128.231125 293.586156 
L 137.757425 293.582915 
L 147.283725 293.582915 
L 156.810025 293.57368 
L 166.336325 293.564444 
L 175.862625 293.564444 
L 185.388925 293.564444 
L 194.915225 293.539208 
L 204.441525 293.513972 
L 213.967825 293.513972 
L 223.494125 293.513972 
L 233.020425 293.325272 
L 242.546725 293.136573 
L 252.073025 293.136573 
L 261.599325 293.136573 
L 271.125625 291.93708 
L 280.651925 290.737588 
L 290.178225 290.737588 
L 299.704525 290.737588 
L 309.230825 286.073501 
L 318.757125 281.409414 
L 328.283425 281.409414 
L 337.809725 281.409414 
L 347.336025 269.063373 
L 356.862325 256.717332 
L 366.388625 256.717332 
L 375.914925 256.717332 
L 385.441225 233.953422 
L 394.967525 211.189512 
L 404.493825 211.189512 
L 414.020125 180.417642 
L 423.546425 149.645772 
L 433.072725 149.645772 
L 442.599025 149.645772 
L 452.125325 121.308895 
L 461.651625 92.972019 
L 471.177925 92.972019 
L 480.704225 92.972019 
L 490.230525 79.979469 
L 499.756825 66.98692 
L 509.283125 66.98692 
L 518.809425 66.98692 
L 528.335725 75.864098 
L 537.862025 84.741277 
L 547.388325 84.741277 
L 556.914625 84.741277 
L 566.440925 110.890096 
L 575.967225 137.038916 
L 585.493525 137.038916 
L 595.019825 137.038916 
L 604.546125 167.850877 
L 614.072425 198.662837 
L 623.598725 198.662837 
L 633.125025 223.351515 
L 642.651325 248.040194 
L 652.177625 248.040194 
L 661.703925 248.040194 
L 671.230225 262.426259 
L 680.756525 276.812324 
L 690.282825 276.812324 
L 699.809125 276.812324 
L 709.335425 282.961649 
L 718.861725 289.110974 
L 728.388025 289.110974 
L 737.914325 289.110974 
L 747.440625 290.950579 
L 756.966925 292.790185 
L 766.493225 292.790185 
L 776.019525 292.790185 
L 785.545825 293.148951 
L 795.072125 293.507718 
L 804.598425 293.507718 
L 814.124725 293.507718 
L 823.651025 293.54747 
L 833.177325 293.587222 
L 842.703625 293.587222 
L 852.229925 293.587222 
L 861.756225 293.590218 
L 871.282525 293.593213 
L 880.808825 293.593213 
L 890.335125 293.593953 
L 899.861425 293.594693 
L 909.387725 293.594693 
L 918.914025 293.594693 
L 928.440325 293.595002 
L 937.966625 293.595312 
L 947.492925 293.595312 
L 957.019225 293.595312 
L 966.545525 293.595332 
L 976.071825 293.595353 
L 985.598125 293.595353 
" style="fill:none;stroke:#5cb85c;stroke-linecap:square;"/>
   </g>
   <g id="line2d_12">
    <path clip-path="url(#pe48b7bed9a)" d="M 32.968125 293.594566 
L 42.494425 293.594566 
L 52.020725 293.594353 
L 61.547025 293.59414 
L 71.073325 293.59414 
L 80.599625 293.59414 
L 90.125925 293.592025 
L 99.652225 293.58991 
L 109.178525 293.58991 
L 118.704825 293.58991 
L 128.231125 293.587087 
L 137.757425 293.584263 
L 147.283725 293.584263 
L 156.810025 293.574782 
L 166.336325 293.565301 
L 175.862625 293.565301 
L 185.388925 293.565301 
L 194.915225 293.54206 
L 204.441525 293.51882 
L 213.967825 293.51882 
L 223.494125 293.51882 
L 233.020425 293.349234 
L 242.546725 293.179648 
L 252.073025 293.179648 
L 261.599325 293.179648 
L 271.125625 292.153166 
L 280.651925 291.126683 
L 290.178225 291.126683 
L 299.704525 291.126683 
L 309.230825 286.973275 
L 318.757125 282.819867 
L 328.283425 282.819867 
L 337.809725 282.819867 
L 347.336025 271.355902 
L 356.862325 259.891937 
L 366.388625 259.891937 
L 375.914925 259.891937 
L 385.441225 237.430958 
L 394.967525 214.96998 
L 404.493825 214.96998 
L 414.020125 183.403945 
L 423.546425 151.837911 
L 433.072725 151.837911 
L 442.599025 151.837911 
L 452.125325 121.019158 
L 461.651625 90.200405 
L 471.177925 90.200405 
L 480.704225 90.200405 
L 490.230525 73.067185 
L 499.756825 55.933965 
L 509.283125 55.933965 
L 518.809425 55.933965 
L 528.335725 64.129878 
L 537.862025 72.325792 
L 547.388325 72.325792 
L 556.914625 72.325792 
L 566.440925 98.971077 
L 575.967225 125.616361 
L 585.493525 125.616361 
L 595.019825 125.616361 
L 604.546125 158.303474 
L 614.072425 190.990587 
L 623.598725 190.990587 
L 633.125025 217.596924 
L 642.651325 244.203262 
L 652.177625 244.203262 
L 661.703925 244.203262 
L 671.230225 259.85825 
L 680.756525 275.513238 
L 690.282825 275.513238 
L 699.809125 275.513238 
L 709.335425 282.153296 
L 718.861725 288.793355 
L 728.388025 288.793355 
L 737.914325 288.793355 
L 747.440625 290.775285 
L 756.966925 292.757215 
L 766.493225 292.757215 
L 776.019525 292.757215 
L 785.545825 293.13128 
L 795.072125 293.505345 
L 804.598425 293.505345 
L 814.124725 293.505345 
L 823.651025 293.547775 
L 833.177325 293.590205 
L 842.703625 293.590205 
L 852.229925 293.590205 
L 861.756225 293.592336 
L 871.282525 293.594467 
L 880.808825 293.594467 
L 890.335125 293.594892 
L 899.861425 293.595316 
L 909.387725 293.595316 
L 918.914025 293.595316 
L 928.440325 293.595367 
L 937.966625 293.595418 
L 947.492925 293.595418 
L 957.019225 293.595418 
L 966.545525 293.594879 
L 976.071825 293.59434 
L 985.598125 293.59434 
" style="fill:none;stroke:#5cb85c;stroke-linecap:square;"/>
   </g>
   <g id="line2d_13">
    <path clip-path="url(#pe48b7bed9a)" d="M 32.968125 293.590291 
L 42.494425 293.590291 
L 52.020725 293.589685 
L 61.547025 293.589078 
L 71.073325 293.589078 
L 80.599625 293.589078 
L 90.125925 293.586468 
L 99.652225 293.583857 
L 109.178525 293.583857 
L 118.704825 293.583857 
L 128.231125 293.57519 
L 137.757425 293.566522 
L 147.283725 293.566522 
L 156.810025 293.548716 
L 166.336325 293.530909 
L 175.862625 293.530909 
L 185.388925 293.530909 
L 194.915225 293.484543 
L 204.441525 293.438176 
L 213.967825 293.438176 
L 223.494125 293.438176 
L 233.020425 293.18397 
L 242.546725 292.929763 
L 252.073025 292.929763 
L 261.599325 292.929763 
L 271.125625 291.53851 
L 280.651925 290.147257 
L 290.178225 290.147257 
L 299.704525 290.147257 
L 309.230825 284.913521 
L 318.757125 279.679785 
L 328.283425 279.679785 
L 337.809725 279.679785 
L 347.336025 266.106812 
L 356.862325 252.533839 
L 366.388625 252.533839 
L 375.914925 252.533839 
L 385.441225 227.729654 
L 394.967525 202.925469 
L 404.493825 202.925469 
L 414.020125 169.959728 
L 423.546425 136.993988 
L 433.072725 136.993988 
L 442.599025 136.993988 
L 452.125325 106.928322 
L 461.651625 76.862656 
L 471.177925 76.862656 
L 480.704225 76.862656 
L 490.230525 63.592514 
L 499.756825 50.322373 
L 509.283125 50.322373 
L 518.809425 50.322373 
L 528.335725 60.778155 
L 537.862025 71.233938 
L 547.388325 71.233938 
L 556.914625 71.233938 
L 566.440925 99.20177 
L 575.967225 127.169602 
L 585.493525 127.169602 
L 595.019825 127.169602 
L 604.546125 159.830187 
L 614.072425 192.490773 
L 623.598725 192.490773 
L 633.125025 218.584714 
L 642.651325 244.678656 
L 652.177625 244.678656 
L 661.703925 244.678656 
L 671.230225 259.944129 
L 680.756525 275.209602 
L 690.282825 275.209602 
L 699.809125 275.209602 
L 709.335425 281.856619 
L 718.861725 288.503636 
L 728.388025 288.503636 
L 737.914325 288.503636 
L 747.440625 290.569652 
L 756.966925 292.635668 
L 766.493225 292.635668 
L 776.019525 292.635668 
L 785.545825 293.048884 
L 795.072125 293.462101 
L 804.598425 293.462101 
L 814.124725 293.462101 
L 823.651025 293.518148 
L 833.177325 293.574194 
L 842.703625 293.574194 
L 852.229925 293.574194 
L 861.756225 293.580978 
L 871.282525 293.587763 
L 880.808825 293.587763 
L 890.335125 293.59033 
L 899.861425 293.592898 
L 909.387725 293.592898 
L 918.914025 293.592898 
L 928.440325 293.593781 
L 937.966625 293.594664 
L 947.492925 293.594664 
L 957.019225 293.594664 
L 966.545525 293.594877 
L 976.071825 293.59509 
L 985.598125 293.59509 
" style="fill:none;stroke:#5cb85c;stroke-linecap:square;"/>
   </g>
   <g id="line2d_14">
    <path clip-path="url(#pe48b7bed9a)" d="M 32.968125 293.592902 
L 42.494425 293.592902 
L 52.020725 293.591968 
L 61.547025 293.591033 
L 71.073325 293.591033 
L 80.599625 293.591033 
L 90.125925 293.588677 
L 99.652225 293.58632 
L 109.178525 293.58632 
L 118.704825 293.58632 
L 128.231125 293.579106 
L 137.757425 293.571891 
L 147.283725 293.571891 
L 156.810025 293.555437 
L 166.336325 293.538983 
L 175.862625 293.538983 
L 185.388925 293.538983 
L 194.915225 293.496366 
L 204.441525 293.453749 
L 213.967825 293.453749 
L 223.494125 293.453749 
L 233.020425 293.192965 
L 242.546725 292.932181 
L 252.073025 292.932181 
L 261.599325 292.932181 
L 271.125625 291.480692 
L 280.651925 290.029202 
L 290.178225 290.029202 
L 299.704525 290.029202 
L 309.230825 284.656018 
L 318.757125 279.282833 
L 328.283425 279.282833 
L 337.809725 279.282833 
L 347.336025 265.595078 
L 356.862325 251.907322 
L 366.388625 251.907322 
L 375.914925 251.907322 
L 385.441225 227.056653 
L 394.967525 202.205985 
L 404.493825 202.205985 
L 414.020125 169.474991 
L 423.546425 136.743997 
L 433.072725 136.743997 
L 442.599025 136.743997 
L 452.125325 107.039929 
L 461.651625 77.335862 
L 471.177925 77.335862 
L 480.704225 77.335862 
L 490.230525 64.126561 
L 499.756825 50.91726 
L 509.283125 50.91726 
L 518.809425 50.91726 
L 528.335725 61.088832 
L 537.862025 71.260404 
L 547.388325 71.260404 
L 556.914625 71.260404 
L 566.440925 98.929661 
L 575.967225 126.598918 
L 585.493525 126.598918 
L 595.019825 126.598918 
L 604.546125 159.115773 
L 614.072425 191.632628 
L 623.598725 191.632628 
L 633.125025 217.79273 
L 642.651325 243.952832 
L 652.177625 243.952832 
L 661.703925 243.952832 
L 671.230225 259.418865 
L 680.756525 274.884897 
L 690.282825 274.884897 
L 699.809125 274.884897 
L 709.335425 281.646531 
L 718.861725 288.408165 
L 728.388025 288.408165 
L 737.914325 288.408165 
L 747.440625 290.525941 
L 756.966925 292.643717 
L 766.493225 292.643717 
L 776.019525 292.643717 
L 785.545825 293.062853 
L 795.072125 293.48199 
L 804.598425 293.48199 
L 814.124725 293.48199 
L 823.651025 293.53219 
L 833.177325 293.58239 
L 842.703625 293.58239 
L 852.229925 293.58239 
L 861.756225 293.586613 
L 871.282525 293.590836 
L 880.808825 293.590836 
L 890.335125 293.592451 
L 899.861425 293.594066 
L 909.387725 293.594066 
L 918.914025 293.594066 
L 928.440325 293.594654 
L 937.966625 293.595242 
L 947.492925 293.595242 
L 957.019225 293.595242 
L 966.545525 293.595267 
L 976.071825 293.595291 
L 985.598125 293.595291 
" style="fill:none;stroke:#5cb85c;stroke-linecap:square;"/>
   </g>
   <g id="line2d_15">
    <path clip-path="url(#pe48b7bed9a)" d="M 32.968125 293.593447 
L 42.494425 293.593447 
L 52.020725 293.592726 
L 61.547025 293.592004 
L 71.073325 293.592004 
L 80.599625 293.592004 
L 90.125925 293.589925 
L 99.652225 293.587845 
L 109.178525 293.587845 
L 118.704825 293.587845 
L 128.231125 293.583724 
L 137.757425 293.579603 
L 147.283725 293.579603 
L 156.810025 293.566557 
L 166.336325 293.553511 
L 175.862625 293.553511 
L 185.388925 293.553511 
L 194.915225 293.518922 
L 204.441525 293.484334 
L 213.967825 293.484334 
L 223.494125 293.484334 
L 233.020425 293.227754 
L 242.546725 292.971175 
L 252.073025 292.971175 
L 261.599325 292.971175 
L 271.125625 291.448726 
L 280.651925 289.926277 
L 290.178225 289.926277 
L 299.704525 289.926277 
L 309.230825 284.380997 
L 318.757125 278.835717 
L 328.283425 278.835717 
L 337.809725 278.835717 
L 347.336025 265.092603 
L 356.862325 251.349489 
L 366.388625 251.349489 
L 375.914925 251.349489 
L 385.441225 226.706009 
L 394.967525 202.062529 
L 404.493825 202.062529 
L 414.020125 169.796384 
L 423.546425 137.53024 
L 433.072725 137.53024 
L 442.599025 137.53024 
L 452.125325 108.236623 
L 461.651625 78.943005 
L 471.177925 78.943005 
L 480.704225 78.943005 
L 490.230525 65.638599 
L 499.756825 52.334193 
L 509.283125 52.334193 
L 518.809425 52.334193 
L 528.335725 61.915325 
L 537.862025 71.496457 
L 547.388325 71.496457 
L 556.914625 71.496457 
L 566.440925 99.033905 
L 575.967225 126.571354 
L 585.493525 126.571354 
L 595.019825 126.571354 
L 604.546125 159.239752 
L 614.072425 191.908151 
L 623.598725 191.908151 
L 633.125025 218.105921 
L 642.651325 244.303691 
L 652.177625 244.303691 
L 661.703925 244.303691 
L 671.230225 259.757597 
L 680.756525 275.211503 
L 690.282825 275.211503 
L 699.809125 275.211503 
L 709.335425 281.905262 
L 718.861725 288.59902 
L 728.388025 288.59902 
L 737.914325 288.59902 
L 747.440625 290.646015 
L 756.966925 292.693009 
L 766.493225 292.693009 
L 776.019525 292.693009 
L 785.545825 293.095653 
L 795.072125 293.498296 
L 804.598425 293.498296 
L 814.124725 293.498296 
L 823.651025 293.543384 
L 833.177325 293.588472 
L 842.703625 293.588472 
L 852.229925 293.588472 
L 861.756225 293.590787 
L 871.282525 293.593103 
L 880.808825 293.593103 
L 890.335125 293.593943 
L 899.861425 293.594783 
L 909.387725 293.594783 
L 918.914025 293.594783 
L 928.440325 293.59501 
L 937.966625 293.595238 
L 947.492925 293.595238 
L 957.019225 293.595238 
L 966.545525 293.595295 
L 976.071825 293.595353 
L 985.598125 293.595353 
" style="fill:none;stroke:#5cb85c;stroke-linecap:square;"/>
   </g>
   <g id="line2d_16">
    <path clip-path="url(#pe48b7bed9a)" d="M 32.968125 293.594996 
L 42.494425 293.594996 
L 52.020725 293.594896 
L 61.547025 293.594795 
L 71.073325 293.594795 
L 80.599625 293.594795 
L 90.125925 293.592539 
L 99.652225 293.590283 
L 109.178525 293.590283 
L 118.704825 293.590283 
L 128.231125 293.586388 
L 137.757425 293.582493 
L 147.283725 293.582493 
L 156.810025 293.574589 
L 166.336325 293.566686 
L 175.862625 293.566686 
L 185.388925 293.566686 
L 194.915225 293.540192 
L 204.441525 293.513697 
L 213.967825 293.513697 
L 223.494125 293.513697 
L 233.020425 293.36911 
L 242.546725 293.224523 
L 252.073025 293.224523 
L 261.599325 293.224523 
L 271.125625 292.226697 
L 280.651925 291.22887 
L 290.178225 291.22887 
L 299.704525 291.22887 
L 309.230825 287.229325 
L 318.757125 283.229781 
L 328.283425 283.229781 
L 337.809725 283.229781 
L 347.336025 273.000378 
L 356.862325 262.770975 
L 366.388625 262.770975 
L 375.914925 262.770975 
L 385.441225 245.157205 
L 394.967525 227.543436 
L 404.493825 227.543436 
L 414.020125 206.116581 
L 423.546425 184.689726 
L 433.072725 184.689726 
L 442.599025 184.689726 
L 452.125325 167.381054 
L 461.651625 150.072382 
L 471.177925 150.072382 
L 480.704225 150.072382 
L 490.230525 143.963161 
L 499.756825 137.853941 
L 509.283125 137.853941 
L 518.809425 137.853941 
L 528.335725 145.594959 
L 537.862025 153.335978 
L 547.388325 153.335978 
L 556.914625 153.335978 
L 566.440925 170.553145 
L 575.967225 187.770312 
L 585.493525 187.770312 
L 595.019825 187.770312 
L 604.546125 207.876783 
L 614.072425 227.983254 
L 623.598725 227.983254 
L 633.125025 244.526453 
L 642.651325 261.069652 
L 652.177625 261.069652 
L 661.703925 261.069652 
L 671.230225 271.040797 
L 680.756525 281.011942 
L 690.282825 281.011942 
L 699.809125 281.011942 
L 709.335425 285.540909 
L 718.861725 290.069876 
L 728.388025 290.069876 
L 737.914325 290.069876 
L 747.440625 291.515766 
L 756.966925 292.961655 
L 766.493225 292.961655 
L 776.019525 292.961655 
L 785.545825 293.247196 
L 795.072125 293.532737 
L 804.598425 293.532737 
L 814.124725 293.532737 
L 823.651025 293.561537 
L 833.177325 293.590336 
L 842.703625 293.590336 
L 852.229925 293.590336 
L 861.756225 293.592373 
L 871.282525 293.59441 
L 880.808825 293.59441 
L 890.335125 293.594738 
L 899.861425 293.595066 
L 909.387725 293.595066 
L 918.914025 293.595066 
L 928.440325 293.595148 
L 937.966625 293.59523 
L 947.492925 293.59523 
L 957.019225 293.59523 
L 966.545525 293.594678 
L 976.071825 293.594127 
L 985.598125 293.594127 
" style="fill:none;stroke:#5cb85c;stroke-linecap:square;"/>
   </g>
   <g id="line2d_17">
    <path clip-path="url(#pe48b7bed9a)" d="M 32.968125 293.594271 
L 42.494425 293.594271 
L 52.020725 293.592478 
L 61.547025 293.590685 
L 71.073325 293.590685 
L 80.599625 293.590685 
L 90.125925 293.588828 
L 99.652225 293.586972 
L 109.178525 293.586972 
L 118.704825 293.586972 
L 128.231125 293.582614 
L 137.757425 293.578255 
L 147.283725 293.578255 
L 156.810025 293.569317 
L 166.336325 293.560379 
L 175.862625 293.560379 
L 185.388925 293.560379 
L 194.915225 293.524989 
L 204.441525 293.4896 
L 213.967825 293.4896 
L 223.494125 293.4896 
L 233.020425 293.238666 
L 242.546725 292.987732 
L 252.073025 292.987732 
L 261.599325 292.987732 
L 271.125625 291.610193 
L 280.651925 290.232655 
L 290.178225 290.232655 
L 299.704525 290.232655 
L 309.230825 285.262423 
L 318.757125 280.292192 
L 328.283425 280.292192 
L 337.809725 280.292192 
L 347.336025 268.339043 
L 356.862325 256.385894 
L 366.388625 256.385894 
L 375.914925 256.385894 
L 385.441225 235.433398 
L 394.967525 214.480902 
L 404.493825 214.480902 
L 414.020125 187.045513 
L 423.546425 159.610123 
L 433.072725 159.610123 
L 442.599025 159.610123 
L 452.125325 134.911088 
L 461.651625 110.212053 
L 471.177925 110.212053 
L 480.704225 110.212053 
L 490.230525 97.389132 
L 499.756825 84.566212 
L 509.283125 84.566212 
L 518.809425 84.566212 
L 528.335725 96.347093 
L 537.862025 108.127974 
L 547.388325 108.127974 
L 556.914625 108.127974 
L 566.440925 132.043891 
L 575.967225 155.959808 
L 585.493525 155.959808 
L 595.019825 155.959808 
L 604.546125 183.62793 
L 614.072425 211.296052 
L 623.598725 211.296052 
L 633.125025 232.694834 
L 642.651325 254.093616 
L 652.177625 254.093616 
L 661.703925 254.093616 
L 671.230225 266.737614 
L 680.756525 279.381611 
L 690.282825 279.381611 
L 699.809125 279.381611 
L 709.335425 284.574317 
L 718.861725 289.767022 
L 728.388025 289.767022 
L 737.914325 289.767022 
L 747.440625 291.34276 
L 756.966925 292.918498 
L 766.493225 292.918498 
L 776.019525 292.918498 
L 785.545825 293.22229 
L 795.072125 293.526082 
L 804.598425 293.526082 
L 814.124725 293.526082 
L 823.651025 293.559213 
L 833.177325 293.592345 
L 842.703625 293.592345 
L 852.229925 293.592345 
L 861.756225 293.593592 
L 871.282525 293.59484 
L 880.808825 293.59484 
L 890.335125 293.595035 
L 899.861425 293.59523 
L 909.387725 293.59523 
L 918.914025 293.59523 
L 928.440325 293.595232 
L 937.966625 293.595234 
L 947.492925 293.595234 
L 957.019225 293.595234 
L 966.545525 293.595293 
L 976.071825 293.595353 
L 985.598125 293.595353 
" style="fill:none;stroke:#5cb85c;stroke-linecap:square;"/>
   </g>
   <g id="line2d_18">
    <path clip-path="url(#pe48b7bed9a)" d="M 32.968125 293.59239 
L 42.494425 293.59239 
L 52.020725 293.591629 
L 61.547025 293.590869 
L 71.073325 293.590869 
L 80.599625 293.590869 
L 90.125925 293.589525 
L 99.652225 293.588181 
L 109.178525 293.588181 
L 118.704825 293.588181 
L 128.231125 293.583363 
L 137.757425 293.578546 
L 147.283725 293.578546 
L 156.810025 293.566702 
L 166.336325 293.554859 
L 175.862625 293.554859 
L 185.388925 293.554859 
L 194.915225 293.521885 
L 204.441525 293.488911 
L 213.967825 293.488911 
L 223.494125 293.488911 
L 233.020425 293.27526 
L 242.546725 293.061609 
L 252.073025 293.061609 
L 261.599325 293.061609 
L 271.125625 291.782838 
L 280.651925 290.504067 
L 290.178225 290.504067 
L 299.704525 290.504067 
L 309.230825 285.549819 
L 318.757125 280.59557 
L 328.283425 280.59557 
L 337.809725 280.59557 
L 347.336025 267.639236 
L 356.862325 254.682902 
L 366.388625 254.682902 
L 375.914925 254.682902 
L 385.441225 230.541945 
L 394.967525 206.400989 
L 404.493825 206.400989 
L 414.020125 174.39552 
L 423.546425 142.39005 
L 433.072725 142.39005 
L 442.599025 142.39005 
L 452.125325 113.351877 
L 461.651625 84.313704 
L 471.177925 84.313704 
L 480.704225 84.313704 
L 490.230525 71.39653 
L 499.756825 58.479356 
L 509.283125 58.479356 
L 518.809425 58.479356 
L 528.335725 68.463533 
L 537.862025 78.447711 
L 547.388325 78.447711 
L 556.914625 78.447711 
L 566.440925 105.153714 
L 575.967225 131.859716 
L 585.493525 131.859716 
L 595.019825 131.859716 
L 604.546125 163.316826 
L 614.072425 194.773936 
L 623.598725 194.773936 
L 633.125025 220.04856 
L 642.651325 245.323185 
L 652.177625 245.323185 
L 661.703925 245.323185 
L 671.230225 260.372753 
L 680.756525 275.42232 
L 690.282825 275.42232 
L 699.809125 275.42232 
L 709.335425 281.982344 
L 718.861725 288.542367 
L 728.388025 288.542367 
L 737.914325 288.542367 
L 747.440625 290.596323 
L 756.966925 292.650278 
L 766.493225 292.650278 
L 776.019525 292.650278 
L 785.545825 293.071924 
L 795.072125 293.493571 
L 804.598425 293.493571 
L 814.124725 293.493571 
L 823.651025 293.540413 
L 833.177325 293.587255 
L 842.703625 293.587255 
L 852.229925 293.587255 
L 861.756225 293.590281 
L 871.282525 293.593308 
L 880.808825 293.593308 
L 890.335125 293.594066 
L 899.861425 293.594824 
L 909.387725 293.594824 
L 918.914025 293.594824 
L 928.440325 293.595097 
L 937.966625 293.595369 
L 947.492925 293.595369 
L 957.019225 293.595369 
L 966.545525 293.595465 
L 976.071825 293.595562 
L 985.598125 293.595562 
" style="fill:none;stroke:#5cb85c;stroke-linecap:square;"/>
   </g>
   <g id="line2d_19">
    <path clip-path="url(#pe48b7bed9a)" d="M 32.968125 293.594664 
L 42.494425 293.594664 
L 52.020725 293.594117 
L 61.547025 293.59357 
L 71.073325 293.59357 
L 80.599625 293.59357 
L 90.125925 293.59166 
L 99.652225 293.58975 
L 109.178525 293.58975 
L 118.704825 293.58975 
L 128.231125 293.586421 
L 137.757425 293.583091 
L 147.283725 293.583091 
L 156.810025 293.573182 
L 166.336325 293.563272 
L 175.862625 293.563272 
L 185.388925 293.563272 
L 194.915225 293.533932 
L 204.441525 293.504591 
L 213.967825 293.504591 
L 223.494125 293.504591 
L 233.020425 293.277363 
L 242.546725 293.050134 
L 252.073025 293.050134 
L 261.599325 293.050134 
L 271.125625 291.654779 
L 280.651925 290.259424 
L 290.178225 290.259424 
L 299.704525 290.259424 
L 309.230825 285.085951 
L 318.757125 279.912478 
L 328.283425 279.912478 
L 337.809725 279.912478 
L 347.336025 266.493593 
L 356.862325 253.074709 
L 366.388625 253.074709 
L 375.914925 253.074709 
L 385.441225 228.530232 
L 394.967525 203.985755 
L 404.493825 203.985755 
L 414.020125 171.250837 
L 423.546425 138.515919 
L 433.072725 138.515919 
L 442.599025 138.515919 
L 452.125325 108.194582 
L 461.651625 77.873244 
L 471.177925 77.873244 
L 480.704225 77.873244 
L 490.230525 64.069441 
L 499.756825 50.265638 
L 509.283125 50.265638 
L 518.809425 50.265638 
L 528.335725 59.842115 
L 537.862025 69.418592 
L 547.388325 69.418592 
L 556.914625 69.418592 
L 566.440925 97.39052 
L 575.967225 125.362448 
L 585.493525 125.362448 
L 595.019825 125.362448 
L 604.546125 158.541075 
L 614.072425 191.719701 
L 623.598725 191.719701 
L 633.125025 218.23939 
L 642.651325 244.759078 
L 652.177625 244.759078 
L 661.703925 244.759078 
L 671.230225 260.198104 
L 680.756525 275.637129 
L 690.282825 275.637129 
L 699.809125 275.637129 
L 709.335425 282.193475 
L 718.861725 288.74982 
L 728.388025 288.74982 
L 737.914325 288.74982 
L 747.440625 290.741989 
L 756.966925 292.734159 
L 766.493225 292.734159 
L 776.019525 292.734159 
L 785.545825 293.119031 
L 795.072125 293.503902 
L 804.598425 293.503902 
L 814.124725 293.503902 
L 823.651025 293.547363 
L 833.177325 293.590824 
L 842.703625 293.590824 
L 852.229925 293.590824 
L 861.756225 293.592504 
L 871.282525 293.594185 
L 880.808825 293.594185 
L 890.335125 293.594662 
L 899.861425 293.59514 
L 909.387725 293.59514 
L 918.914025 293.59514 
L 928.440325 293.59526 
L 937.966625 293.595381 
L 947.492925 293.595381 
L 957.019225 293.595381 
L 966.545525 293.595287 
L 976.071825 293.595193 
L 985.598125 293.595193 
" style="fill:none;stroke:#5cb85c;stroke-linecap:square;"/>
   </g>
   <g id="line2d_20">
    <path clip-path="url(#pe48b7bed9a)" d="M 32.968125 293.59566 
L 985.598125 293.59566 
" style="fill:none;stroke:#dedede;stroke-linecap:square;stroke-width:2;"/>
   </g>
   <g id="text_17">
    <!-- FastQC: Per Sequence GC Content -->
    <defs>
     <path d="M 9.8125 72.90625 
L 51.703125 72.90625 
L 51.703125 64.59375 
L 19.671875 64.59375 
L 19.671875 43.109375 
L 48.578125 43.109375 
L 48.578125 34.8125 
L 19.671875 34.8125 
L 19.671875 0 
L 9.8125 0 
z
" id="DejaVuSans-46"/>
     <path d="M 34.28125 27.484375 
Q 23.390625 27.484375 19.1875 25 
Q 14.984375 22.515625 14.984375 16.5 
Q 14.984375 11.71875 18.140625 8.90625 
Q 21.296875 6.109375 26.703125 6.109375 
Q 34.1875 6.109375 38.703125 11.40625 
Q 43.21875 16.703125 43.21875 25.484375 
L 43.21875 27.484375 
z
M 52.203125 31.203125 
L 52.203125 0 
L 43.21875 0 
L 43.21875 8.296875 
Q 40.140625 3.328125 35.546875 0.953125 
Q 30.953125 -1.421875 24.3125 -1.421875 
Q 15.921875 -1.421875 10.953125 3.296875 
Q 6 8.015625 6 15.921875 
Q 6 25.140625 12.171875 29.828125 
Q 18.359375 34.515625 30.609375 34.515625 
L 43.21875 34.515625 
L 43.21875 35.40625 
Q 43.21875 41.609375 39.140625 45 
Q 35.0625 48.390625 27.6875 48.390625 
Q 23 48.390625 18.546875 47.265625 
Q 14.109375 46.140625 10.015625 43.890625 
L 10.015625 52.203125 
Q 14.9375 54.109375 19.578125 55.046875 
Q 24.21875 56 28.609375 56 
Q 40.484375 56 46.34375 49.84375 
Q 52.203125 43.703125 52.203125 31.203125 
z
" id="DejaVuSans-61"/>
     <path d="M 44.28125 53.078125 
L 44.28125 44.578125 
Q 40.484375 46.53125 36.375 47.5 
Q 32.28125 48.484375 27.875 48.484375 
Q 21.1875 48.484375 17.84375 46.4375 
Q 14.5 44.390625 14.5 40.28125 
Q 14.5 37.15625 16.890625 35.375 
Q 19.28125 33.59375 26.515625 31.984375 
L 29.59375 31.296875 
Q 39.15625 29.25 43.1875 25.515625 
Q 47.21875 21.78125 47.21875 15.09375 
Q 47.21875 7.46875 41.1875 3.015625 
Q 35.15625 -1.421875 24.609375 -1.421875 
Q 20.21875 -1.421875 15.453125 -0.5625 
Q 10.6875 0.296875 5.421875 2 
L 5.421875 11.28125 
Q 10.40625 8.6875 15.234375 7.390625 
Q 20.0625 6.109375 24.8125 6.109375 
Q 31.15625 6.109375 34.5625 8.28125 
Q 37.984375 10.453125 37.984375 14.40625 
Q 37.984375 18.0625 35.515625 20.015625 
Q 33.0625 21.96875 24.703125 23.78125 
L 21.578125 24.515625 
Q 13.234375 26.265625 9.515625 29.90625 
Q 5.8125 33.546875 5.8125 39.890625 
Q 5.8125 47.609375 11.28125 51.796875 
Q 16.75 56 26.8125 56 
Q 31.78125 56 36.171875 55.265625 
Q 40.578125 54.546875 44.28125 53.078125 
z
" id="DejaVuSans-73"/>
     <path d="M 39.40625 66.21875 
Q 28.65625 66.21875 22.328125 58.203125 
Q 16.015625 50.203125 16.015625 36.375 
Q 16.015625 22.609375 22.328125 14.59375 
Q 28.65625 6.59375 39.40625 6.59375 
Q 50.140625 6.59375 56.421875 14.59375 
Q 62.703125 22.609375 62.703125 36.375 
Q 62.703125 50.203125 56.421875 58.203125 
Q 50.140625 66.21875 39.40625 66.21875 
z
M 53.21875 1.3125 
L 66.21875 -12.890625 
L 54.296875 -12.890625 
L 43.5 -1.21875 
Q 41.890625 -1.3125 41.03125 -1.359375 
Q 40.1875 -1.421875 39.40625 -1.421875 
Q 24.03125 -1.421875 14.8125 8.859375 
Q 5.609375 19.140625 5.609375 36.375 
Q 5.609375 53.65625 14.8125 63.9375 
Q 24.03125 74.21875 39.40625 74.21875 
Q 54.734375 74.21875 63.90625 63.9375 
Q 73.09375 53.65625 73.09375 36.375 
Q 73.09375 23.6875 67.984375 14.640625 
Q 62.890625 5.609375 53.21875 1.3125 
z
" id="DejaVuSans-51"/>
     <path d="M 11.71875 12.40625 
L 22.015625 12.40625 
L 22.015625 0 
L 11.71875 0 
z
M 11.71875 51.703125 
L 22.015625 51.703125 
L 22.015625 39.3125 
L 11.71875 39.3125 
z
" id="DejaVuSans-3a"/>
     <path d="M 19.671875 64.796875 
L 19.671875 37.40625 
L 32.078125 37.40625 
Q 38.96875 37.40625 42.71875 40.96875 
Q 46.484375 44.53125 46.484375 51.125 
Q 46.484375 57.671875 42.71875 61.234375 
Q 38.96875 64.796875 32.078125 64.796875 
z
M 9.8125 72.90625 
L 32.078125 72.90625 
Q 44.34375 72.90625 50.609375 67.359375 
Q 56.890625 61.8125 56.890625 51.125 
Q 56.890625 40.328125 50.609375 34.8125 
Q 44.34375 29.296875 32.078125 29.296875 
L 19.671875 29.296875 
L 19.671875 0 
L 9.8125 0 
z
" id="DejaVuSans-50"/>
     <path d="M 41.109375 46.296875 
Q 39.59375 47.171875 37.8125 47.578125 
Q 36.03125 48 33.890625 48 
Q 26.265625 48 22.1875 43.046875 
Q 18.109375 38.09375 18.109375 28.8125 
L 18.109375 0 
L 9.078125 0 
L 9.078125 54.6875 
L 18.109375 54.6875 
L 18.109375 46.1875 
Q 20.953125 51.171875 25.484375 53.578125 
Q 30.03125 56 36.53125 56 
Q 37.453125 56 38.578125 55.875 
Q 39.703125 55.765625 41.0625 55.515625 
z
" id="DejaVuSans-72"/>
     <path d="M 53.515625 70.515625 
L 53.515625 60.890625 
Q 47.90625 63.578125 42.921875 64.890625 
Q 37.9375 66.21875 33.296875 66.21875 
Q 25.25 66.21875 20.875 63.09375 
Q 16.5 59.96875 16.5 54.203125 
Q 16.5 49.359375 19.40625 46.890625 
Q 22.3125 44.4375 30.421875 42.921875 
L 36.375 41.703125 
Q 47.40625 39.59375 52.65625 34.296875 
Q 57.90625 29 57.90625 20.125 
Q 57.90625 9.515625 50.796875 4.046875 
Q 43.703125 -1.421875 29.984375 -1.421875 
Q 24.8125 -1.421875 18.96875 -0.25 
Q 13.140625 0.921875 6.890625 3.21875 
L 6.890625 13.375 
Q 12.890625 10.015625 18.65625 8.296875 
Q 24.421875 6.59375 29.984375 6.59375 
Q 38.421875 6.59375 43.015625 9.90625 
Q 47.609375 13.234375 47.609375 19.390625 
Q 47.609375 24.75 44.3125 27.78125 
Q 41.015625 30.8125 33.5 32.328125 
L 27.484375 33.5 
Q 16.453125 35.6875 11.515625 40.375 
Q 6.59375 45.0625 6.59375 53.421875 
Q 6.59375 63.09375 13.40625 68.65625 
Q 20.21875 74.21875 32.171875 74.21875 
Q 37.3125 74.21875 42.625 73.28125 
Q 47.953125 72.359375 53.515625 70.515625 
z
" id="DejaVuSans-53"/>
     <path d="M 14.796875 27.296875 
Q 14.796875 17.390625 18.875 11.75 
Q 22.953125 6.109375 30.078125 6.109375 
Q 37.203125 6.109375 41.296875 11.75 
Q 45.40625 17.390625 45.40625 27.296875 
Q 45.40625 37.203125 41.296875 42.84375 
Q 37.203125 48.484375 30.078125 48.484375 
Q 22.953125 48.484375 18.875 42.84375 
Q 14.796875 37.203125 14.796875 27.296875 
z
M 45.40625 8.203125 
Q 42.578125 3.328125 38.25 0.953125 
Q 33.9375 -1.421875 27.875 -1.421875 
Q 17.96875 -1.421875 11.734375 6.484375 
Q 5.515625 14.40625 5.515625 27.296875 
Q 5.515625 40.1875 11.734375 48.09375 
Q 17.96875 56 27.875 56 
Q 33.9375 56 38.25 53.625 
Q 42.578125 51.265625 45.40625 46.390625 
L 45.40625 54.6875 
L 54.390625 54.6875 
L 54.390625 -20.796875 
L 45.40625 -20.796875 
z
" id="DejaVuSans-71"/>
     <path d="M 48.78125 52.59375 
L 48.78125 44.1875 
Q 44.96875 46.296875 41.140625 47.34375 
Q 37.3125 48.390625 33.40625 48.390625 
Q 24.65625 48.390625 19.8125 42.84375 
Q 14.984375 37.3125 14.984375 27.296875 
Q 14.984375 17.28125 19.8125 11.734375 
Q 24.65625 6.203125 33.40625 6.203125 
Q 37.3125 6.203125 41.140625 7.25 
Q 44.96875 8.296875 48.78125 10.40625 
L 48.78125 2.09375 
Q 45.015625 0.34375 40.984375 -0.53125 
Q 36.96875 -1.421875 32.421875 -1.421875 
Q 20.0625 -1.421875 12.78125 6.34375 
Q 5.515625 14.109375 5.515625 27.296875 
Q 5.515625 40.671875 12.859375 48.328125 
Q 20.21875 56 33.015625 56 
Q 37.15625 56 41.109375 55.140625 
Q 45.0625 54.296875 48.78125 52.59375 
z
" id="DejaVuSans-63"/>
    </defs>
    <g transform="translate(371.641875 19.3575)scale(0.16 -0.16)">
     <use xlink:href="#DejaVuSans-46"/>
     <use x="57.378906" xlink:href="#DejaVuSans-61"/>
     <use x="118.658203" xlink:href="#DejaVuSans-73"/>
     <use x="170.757812" xlink:href="#DejaVuSans-74"/>
     <use x="209.966797" xlink:href="#DejaVuSans-51"/>
     <use x="288.677734" xlink:href="#DejaVuSans-43"/>
     <use x="358.501953" xlink:href="#DejaVuSans-3a"/>
     <use x="392.193359" xlink:href="#DejaVuSans-20"/>
     <use x="423.980469" xlink:href="#DejaVuSans-50"/>
     <use x="484.236328" xlink:href="#DejaVuSans-65"/>
     <use x="545.759766" xlink:href="#DejaVuSans-72"/>
     <use x="586.873047" xlink:href="#DejaVuSans-20"/>
     <use x="618.660156" xlink:href="#DejaVuSans-53"/>
     <use x="682.136719" xlink:href="#DejaVuSans-65"/>
     <use x="743.660156" xlink:href="#DejaVuSans-71"/>
     <use x="807.136719" xlink:href="#DejaVuSans-75"/>
     <use x="870.515625" xlink:href="#DejaVuSans-65"/>
     <use x="932.039062" xlink:href="#DejaVuSans-6e"/>
     <use x="995.417969" xlink:href="#DejaVuSans-63"/>
     <use x="1050.398438" xlink:href="#DejaVuSans-65"/>
     <use x="1111.921875" xlink:href="#DejaVuSans-20"/>
     <use x="1143.708984" xlink:href="#DejaVuSans-47"/>
     <use x="1221.199219" xlink:href="#DejaVuSans-43"/>
     <use x="1291.023438" xlink:href="#DejaVuSans-20"/>
     <use x="1322.810547" xlink:href="#DejaVuSans-43"/>
     <use x="1392.634766" xlink:href="#DejaVuSans-6f"/>
     <use x="1453.816406" xlink:href="#DejaVuSans-6e"/>
     <use x="1517.195312" xlink:href="#DejaVuSans-74"/>
     <use x="1556.404297" xlink:href="#DejaVuSans-65"/>
     <use x="1617.927734" xlink:href="#DejaVuSans-6e"/>
     <use x="1681.306641" xlink:href="#DejaVuSans-74"/>
    </g>
   </g>
   <g id="legend_1">
    <g id="line2d_21">
     <path d="M 40.168125 315.168834 
L 56.168125 315.168834 
" style="fill:none;stroke:#5cb85c;stroke-linecap:square;"/>
    </g>
    <g id="line2d_22"/>
    <g id="text_18">
     <!-- fastqc | SRR9264343_S0_L001_R1_001 -->
     <defs>
      <path d="M 37.109375 75.984375 
L 37.109375 68.5 
L 28.515625 68.5 
Q 23.6875 68.5 21.796875 66.546875 
Q 19.921875 64.59375 19.921875 59.515625 
L 19.921875 54.6875 
L 34.71875 54.6875 
L 34.71875 47.703125 
L 19.921875 47.703125 
L 19.921875 0 
L 10.890625 0 
L 10.890625 47.703125 
L 2.296875 47.703125 
L 2.296875 54.6875 
L 10.890625 54.6875 
L 10.890625 58.5 
Q 10.890625 67.625 15.140625 71.796875 
Q 19.390625 75.984375 28.609375 75.984375 
z
" id="DejaVuSans-66"/>
      <path d="M 21 76.421875 
L 21 -23.578125 
L 12.703125 -23.578125 
L 12.703125 76.421875 
z
" id="DejaVuSans-7c"/>
      <path d="M 44.390625 34.1875 
Q 47.5625 33.109375 50.5625 29.59375 
Q 53.5625 26.078125 56.59375 19.921875 
L 66.609375 0 
L 56 0 
L 46.6875 18.703125 
Q 43.0625 26.03125 39.671875 28.421875 
Q 36.28125 30.8125 30.421875 30.8125 
L 19.671875 30.8125 
L 19.671875 0 
L 9.8125 0 
L 9.8125 72.90625 
L 32.078125 72.90625 
Q 44.578125 72.90625 50.734375 67.671875 
Q 56.890625 62.453125 56.890625 51.90625 
Q 56.890625 45.015625 53.6875 40.46875 
Q 50.484375 35.9375 44.390625 34.1875 
z
M 19.671875 64.796875 
L 19.671875 38.921875 
L 32.078125 38.921875 
Q 39.203125 38.921875 42.84375 42.21875 
Q 46.484375 45.515625 46.484375 51.90625 
Q 46.484375 58.296875 42.84375 61.546875 
Q 39.203125 64.796875 32.078125 64.796875 
z
" id="DejaVuSans-52"/>
      <path d="M 10.984375 1.515625 
L 10.984375 10.5 
Q 14.703125 8.734375 18.5 7.8125 
Q 22.3125 6.890625 25.984375 6.890625 
Q 35.75 6.890625 40.890625 13.453125 
Q 46.046875 20.015625 46.78125 33.40625 
Q 43.953125 29.203125 39.59375 26.953125 
Q 35.25 24.703125 29.984375 24.703125 
Q 19.046875 24.703125 12.671875 31.3125 
Q 6.296875 37.9375 6.296875 49.421875 
Q 6.296875 60.640625 12.9375 67.421875 
Q 19.578125 74.21875 30.609375 74.21875 
Q 43.265625 74.21875 49.921875 64.515625 
Q 56.59375 54.828125 56.59375 36.375 
Q 56.59375 19.140625 48.40625 8.859375 
Q 40.234375 -1.421875 26.421875 -1.421875 
Q 22.703125 -1.421875 18.890625 -0.6875 
Q 15.09375 0.046875 10.984375 1.515625 
z
M 30.609375 32.421875 
Q 37.25 32.421875 41.125 36.953125 
Q 45.015625 41.5 45.015625 49.421875 
Q 45.015625 57.28125 41.125 61.84375 
Q 37.25 66.40625 30.609375 66.40625 
Q 23.96875 66.40625 20.09375 61.84375 
Q 16.21875 57.28125 16.21875 49.421875 
Q 16.21875 41.5 20.09375 36.953125 
Q 23.96875 32.421875 30.609375 32.421875 
z
" id="DejaVuSans-39"/>
      <path d="M 50.984375 -16.609375 
L 50.984375 -23.578125 
L -0.984375 -23.578125 
L -0.984375 -16.609375 
z
" id="DejaVuSans-5f"/>
      <path d="M 9.8125 72.90625 
L 19.671875 72.90625 
L 19.671875 8.296875 
L 55.171875 8.296875 
L 55.171875 0 
L 9.8125 0 
z
" id="DejaVuSans-4c"/>
     </defs>
     <g transform="translate(62.568125 317.968834)scale(0.08 -0.08)">
      <use xlink:href="#DejaVuSans-66"/>
      <use x="35.205078" xlink:href="#DejaVuSans-61"/>
      <use x="96.484375" xlink:href="#DejaVuSans-73"/>
      <use x="148.583984" xlink:href="#DejaVuSans-74"/>
      <use x="187.792969" xlink:href="#DejaVuSans-71"/>
      <use x="251.269531" xlink:href="#DejaVuSans-63"/>
      <use x="306.25" xlink:href="#DejaVuSans-20"/>
      <use x="338.037109" xlink:href="#DejaVuSans-7c"/>
      <use x="371.728516" xlink:href="#DejaVuSans-20"/>
      <use x="403.515625" xlink:href="#DejaVuSans-53"/>
      <use x="466.992188" xlink:href="#DejaVuSans-52"/>
      <use x="536.474609" xlink:href="#DejaVuSans-52"/>
      <use x="605.957031" xlink:href="#DejaVuSans-39"/>
      <use x="669.580078" xlink:href="#DejaVuSans-32"/>
      <use x="733.203125" xlink:href="#DejaVuSans-36"/>
      <use x="796.826172" xlink:href="#DejaVuSans-34"/>
      <use x="860.449219" xlink:href="#DejaVuSans-33"/>
      <use x="924.072266" xlink:href="#DejaVuSans-34"/>
      <use x="987.695312" xlink:href="#DejaVuSans-33"/>
      <use x="1051.318359" xlink:href="#DejaVuSans-5f"/>
      <use x="1101.318359" xlink:href="#DejaVuSans-53"/>
      <use x="1164.794922" xlink:href="#DejaVuSans-30"/>
      <use x="1228.417969" xlink:href="#DejaVuSans-5f"/>
      <use x="1278.417969" xlink:href="#DejaVuSans-4c"/>
      <use x="1334.130859" xlink:href="#DejaVuSans-30"/>
      <use x="1397.753906" xlink:href="#DejaVuSans-30"/>
      <use x="1461.376953" xlink:href="#DejaVuSans-31"/>
      <use x="1525" xlink:href="#DejaVuSans-5f"/>
      <use x="1575" xlink:href="#DejaVuSans-52"/>
      <use x="1644.482422" xlink:href="#DejaVuSans-31"/>
      <use x="1708.105469" xlink:href="#DejaVuSans-5f"/>
      <use x="1758.105469" xlink:href="#DejaVuSans-30"/>
      <use x="1821.728516" xlink:href="#DejaVuSans-30"/>
      <use x="1885.351562" xlink:href="#DejaVuSans-31"/>
     </g>
    </g>
    <g id="line2d_23">
     <path d="M 40.168125 327.168834 
L 56.168125 327.168834 
" style="fill:none;stroke:#5cb85c;stroke-linecap:square;"/>
    </g>
    <g id="line2d_24"/>
    <g id="text_19">
     <!-- fastqc | SRR9264344_S0_L001_R1_001 -->
     <g transform="translate(62.568125 329.968834)scale(0.08 -0.08)">
      <use xlink:href="#DejaVuSans-66"/>
      <use x="35.205078" xlink:href="#DejaVuSans-61"/>
      <use x="96.484375" xlink:href="#DejaVuSans-73"/>
      <use x="148.583984" xlink:href="#DejaVuSans-74"/>
      <use x="187.792969" xlink:href="#DejaVuSans-71"/>
      <use x="251.269531" xlink:href="#DejaVuSans-63"/>
      <use x="306.25" xlink:href="#DejaVuSans-20"/>
      <use x="338.037109" xlink:href="#DejaVuSans-7c"/>
      <use x="371.728516" xlink:href="#DejaVuSans-20"/>
      <use x="403.515625" xlink:href="#DejaVuSans-53"/>
      <use x="466.992188" xlink:href="#DejaVuSans-52"/>
      <use x="536.474609" xlink:href="#DejaVuSans-52"/>
      <use x="605.957031" xlink:href="#DejaVuSans-39"/>
      <use x="669.580078" xlink:href="#DejaVuSans-32"/>
      <use x="733.203125" xlink:href="#DejaVuSans-36"/>
      <use x="796.826172" xlink:href="#DejaVuSans-34"/>
      <use x="860.449219" xlink:href="#DejaVuSans-33"/>
      <use x="924.072266" xlink:href="#DejaVuSans-34"/>
      <use x="987.695312" xlink:href="#DejaVuSans-34"/>
      <use x="1051.318359" xlink:href="#DejaVuSans-5f"/>
      <use x="1101.318359" xlink:href="#DejaVuSans-53"/>
      <use x="1164.794922" xlink:href="#DejaVuSans-30"/>
      <use x="1228.417969" xlink:href="#DejaVuSans-5f"/>
      <use x="1278.417969" xlink:href="#DejaVuSans-4c"/>
      <use x="1334.130859" xlink:href="#DejaVuSans-30"/>
      <use x="1397.753906" xlink:href="#DejaVuSans-30"/>
      <use x="1461.376953" xlink:href="#DejaVuSans-31"/>
      <use x="1525" xlink:href="#DejaVuSans-5f"/>
      <use x="1575" xlink:href="#DejaVuSans-52"/>
      <use x="1644.482422" xlink:href="#DejaVuSans-31"/>
      <use x="1708.105469" xlink:href="#DejaVuSans-5f"/>
      <use x="1758.105469" xlink:href="#DejaVuSans-30"/>
      <use x="1821.728516" xlink:href="#DejaVuSans-30"/>
      <use x="1885.351562" xlink:href="#DejaVuSans-31"/>
     </g>
    </g>
    <g id="line2d_25">
     <path d="M 40.168125 339.168834 
L 56.168125 339.168834 
" style="fill:none;stroke:#5cb85c;stroke-linecap:square;"/>
    </g>
    <g id="line2d_26"/>
    <g id="text_20">
     <!-- fastqc | SRR9264345_S0_L001_R1_001 -->
     <g transform="translate(62.568125 341.968834)scale(0.08 -0.08)">
      <use xlink:href="#DejaVuSans-66"/>
      <use x="35.205078" xlink:href="#DejaVuSans-61"/>
      <use x="96.484375" xlink:href="#DejaVuSans-73"/>
      <use x="148.583984" xlink:href="#DejaVuSans-74"/>
      <use x="187.792969" xlink:href="#DejaVuSans-71"/>
      <use x="251.269531" xlink:href="#DejaVuSans-63"/>
      <use x="306.25" xlink:href="#DejaVuSans-20"/>
      <use x="338.037109" xlink:href="#DejaVuSans-7c"/>
      <use x="371.728516" xlink:href="#DejaVuSans-20"/>
      <use x="403.515625" xlink:href="#DejaVuSans-53"/>
      <use x="466.992188" xlink:href="#DejaVuSans-52"/>
      <use x="536.474609" xlink:href="#DejaVuSans-52"/>
      <use x="605.957031" xlink:href="#DejaVuSans-39"/>
      <use x="669.580078" xlink:href="#DejaVuSans-32"/>
      <use x="733.203125" xlink:href="#DejaVuSans-36"/>
      <use x="796.826172" xlink:href="#DejaVuSans-34"/>
      <use x="860.449219" xlink:href="#DejaVuSans-33"/>
      <use x="924.072266" xlink:href="#DejaVuSans-34"/>
      <use x="987.695312" xlink:href="#DejaVuSans-35"/>
      <use x="1051.318359" xlink:href="#DejaVuSans-5f"/>
      <use x="1101.318359" xlink:href="#DejaVuSans-53"/>
      <use x="1164.794922" xlink:href="#DejaVuSans-30"/>
      <use x="1228.417969" xlink:href="#DejaVuSans-5f"/>
      <use x="1278.417969" xlink:href="#DejaVuSans-4c"/>
      <use x="1334.130859" xlink:href="#DejaVuSans-30"/>
      <use x="1397.753906" xlink:href="#DejaVuSans-30"/>
      <use x="1461.376953" xlink:href="#DejaVuSans-31"/>
      <use x="1525" xlink:href="#DejaVuSans-5f"/>
      <use x="1575" xlink:href="#DejaVuSans-52"/>
      <use x="1644.482422" xlink:href="#DejaVuSans-31"/>
      <use x="1708.105469" xlink:href="#DejaVuSans-5f"/>
      <use x="1758.105469" xlink:href="#DejaVuSans-30"/>
      <use x="1821.728516" xlink:href="#DejaVuSans-30"/>
      <use x="1885.351562" xlink:href="#DejaVuSans-31"/>
     </g>
    </g>
    <g id="line2d_27">
     <path d="M 230.145313 315.168834 
L 246.145313 315.168834 
" style="fill:none;stroke:#5cb85c;stroke-linecap:square;"/>
    </g>
    <g id="line2d_28"/>
    <g id="text_21">
     <!-- fastqc | SRR9264346_S0_L001_R1_001 -->
     <g transform="translate(252.545313 317.968834)scale(0.08 -0.08)">
      <use xlink:href="#DejaVuSans-66"/>
      <use x="35.205078" xlink:href="#DejaVuSans-61"/>
      <use x="96.484375" xlink:href="#DejaVuSans-73"/>
      <use x="148.583984" xlink:href="#DejaVuSans-74"/>
      <use x="187.792969" xlink:href="#DejaVuSans-71"/>
      <use x="251.269531" xlink:href="#DejaVuSans-63"/>
      <use x="306.25" xlink:href="#DejaVuSans-20"/>
      <use x="338.037109" xlink:href="#DejaVuSans-7c"/>
      <use x="371.728516" xlink:href="#DejaVuSans-20"/>
      <use x="403.515625" xlink:href="#DejaVuSans-53"/>
      <use x="466.992188" xlink:href="#DejaVuSans-52"/>
      <use x="536.474609" xlink:href="#DejaVuSans-52"/>
      <use x="605.957031" xlink:href="#DejaVuSans-39"/>
      <use x="669.580078" xlink:href="#DejaVuSans-32"/>
      <use x="733.203125" xlink:href="#DejaVuSans-36"/>
      <use x="796.826172" xlink:href="#DejaVuSans-34"/>
      <use x="860.449219" xlink:href="#DejaVuSans-33"/>
      <use x="924.072266" xlink:href="#DejaVuSans-34"/>
      <use x="987.695312" xlink:href="#DejaVuSans-36"/>
      <use x="1051.318359" xlink:href="#DejaVuSans-5f"/>
      <use x="1101.318359" xlink:href="#DejaVuSans-53"/>
      <use x="1164.794922" xlink:href="#DejaVuSans-30"/>
      <use x="1228.417969" xlink:href="#DejaVuSans-5f"/>
      <use x="1278.417969" xlink:href="#DejaVuSans-4c"/>
      <use x="1334.130859" xlink:href="#DejaVuSans-30"/>
      <use x="1397.753906" xlink:href="#DejaVuSans-30"/>
      <use x="1461.376953" xlink:href="#DejaVuSans-31"/>
      <use x="1525" xlink:href="#DejaVuSans-5f"/>
      <use x="1575" xlink:href="#DejaVuSans-52"/>
      <use x="1644.482422" xlink:href="#DejaVuSans-31"/>
      <use x="1708.105469" xlink:href="#DejaVuSans-5f"/>
      <use x="1758.105469" xlink:href="#DejaVuSans-30"/>
      <use x="1821.728516" xlink:href="#DejaVuSans-30"/>
      <use x="1885.351562" xlink:href="#DejaVuSans-31"/>
     </g>
    </g>
    <g id="line2d_29">
     <path d="M 230.145313 327.168834 
L 246.145313 327.168834 
" style="fill:none;stroke:#5cb85c;stroke-linecap:square;"/>
    </g>
    <g id="line2d_30"/>
    <g id="text_22">
     <!-- fastqc | SRR9264347_S0_L001_R1_001 -->
     <g transform="translate(252.545313 329.968834)scale(0.08 -0.08)">
      <use xlink:href="#DejaVuSans-66"/>
      <use x="35.205078" xlink:href="#DejaVuSans-61"/>
      <use x="96.484375" xlink:href="#DejaVuSans-73"/>
      <use x="148.583984" xlink:href="#DejaVuSans-74"/>
      <use x="187.792969" xlink:href="#DejaVuSans-71"/>
      <use x="251.269531" xlink:href="#DejaVuSans-63"/>
      <use x="306.25" xlink:href="#DejaVuSans-20"/>
      <use x="338.037109" xlink:href="#DejaVuSans-7c"/>
      <use x="371.728516" xlink:href="#DejaVuSans-20"/>
      <use x="403.515625" xlink:href="#DejaVuSans-53"/>
      <use x="466.992188" xlink:href="#DejaVuSans-52"/>
      <use x="536.474609" xlink:href="#DejaVuSans-52"/>
      <use x="605.957031" xlink:href="#DejaVuSans-39"/>
      <use x="669.580078" xlink:href="#DejaVuSans-32"/>
      <use x="733.203125" xlink:href="#DejaVuSans-36"/>
      <use x="796.826172" xlink:href="#DejaVuSans-34"/>
      <use x="860.449219" xlink:href="#DejaVuSans-33"/>
      <use x="924.072266" xlink:href="#DejaVuSans-34"/>
      <use x="987.695312" xlink:href="#DejaVuSans-37"/>
      <use x="1051.318359" xlink:href="#DejaVuSans-5f"/>
      <use x="1101.318359" xlink:href="#DejaVuSans-53"/>
      <use x="1164.794922" xlink:href="#DejaVuSans-30"/>
      <use x="1228.417969" xlink:href="#DejaVuSans-5f"/>
      <use x="1278.417969" xlink:href="#DejaVuSans-4c"/>
      <use x="1334.130859" xlink:href="#DejaVuSans-30"/>
      <use x="1397.753906" xlink:href="#DejaVuSans-30"/>
      <use x="1461.376953" xlink:href="#DejaVuSans-31"/>
      <use x="1525" xlink:href="#DejaVuSans-5f"/>
      <use x="1575" xlink:href="#DejaVuSans-52"/>
      <use x="1644.482422" xlink:href="#DejaVuSans-31"/>
      <use x="1708.105469" xlink:href="#DejaVuSans-5f"/>
      <use x="1758.105469" xlink:href="#DejaVuSans-30"/>
      <use x="1821.728516" xlink:href="#DejaVuSans-30"/>
      <use x="1885.351562" xlink:href="#DejaVuSans-31"/>
     </g>
    </g>
    <g id="line2d_31">
     <path d="M 230.145313 339.168834 
L 246.145313 339.168834 
" style="fill:none;stroke:#5cb85c;stroke-linecap:square;"/>
    </g>
    <g id="line2d_32"/>
    <g id="text_23">
     <!-- fastqc | SRR9264348_S0_L001_R1_001 -->
     <g transform="translate(252.545313 341.968834)scale(0.08 -0.08)">
      <use xlink:href="#DejaVuSans-66"/>
      <use x="35.205078" xlink:href="#DejaVuSans-61"/>
      <use x="96.484375" xlink:href="#DejaVuSans-73"/>
      <use x="148.583984" xlink:href="#DejaVuSans-74"/>
      <use x="187.792969" xlink:href="#DejaVuSans-71"/>
      <use x="251.269531" xlink:href="#DejaVuSans-63"/>
      <use x="306.25" xlink:href="#DejaVuSans-20"/>
      <use x="338.037109" xlink:href="#DejaVuSans-7c"/>
      <use x="371.728516" xlink:href="#DejaVuSans-20"/>
      <use x="403.515625" xlink:href="#DejaVuSans-53"/>
      <use x="466.992188" xlink:href="#DejaVuSans-52"/>
      <use x="536.474609" xlink:href="#DejaVuSans-52"/>
      <use x="605.957031" xlink:href="#DejaVuSans-39"/>
      <use x="669.580078" xlink:href="#DejaVuSans-32"/>
      <use x="733.203125" xlink:href="#DejaVuSans-36"/>
      <use x="796.826172" xlink:href="#DejaVuSans-34"/>
      <use x="860.449219" xlink:href="#DejaVuSans-33"/>
      <use x="924.072266" xlink:href="#DejaVuSans-34"/>
      <use x="987.695312" xlink:href="#DejaVuSans-38"/>
      <use x="1051.318359" xlink:href="#DejaVuSans-5f"/>
      <use x="1101.318359" xlink:href="#DejaVuSans-53"/>
      <use x="1164.794922" xlink:href="#DejaVuSans-30"/>
      <use x="1228.417969" xlink:href="#DejaVuSans-5f"/>
      <use x="1278.417969" xlink:href="#DejaVuSans-4c"/>
      <use x="1334.130859" xlink:href="#DejaVuSans-30"/>
      <use x="1397.753906" xlink:href="#DejaVuSans-30"/>
      <use x="1461.376953" xlink:href="#DejaVuSans-31"/>
      <use x="1525" xlink:href="#DejaVuSans-5f"/>
      <use x="1575" xlink:href="#DejaVuSans-52"/>
      <use x="1644.482422" xlink:href="#DejaVuSans-31"/>
      <use x="1708.105469" xlink:href="#DejaVuSans-5f"/>
      <use x="1758.105469" xlink:href="#DejaVuSans-30"/>
      <use x="1821.728516" xlink:href="#DejaVuSans-30"/>
      <use x="1885.351562" xlink:href="#DejaVuSans-31"/>
     </g>
    </g>
    <g id="line2d_33">
     <path d="M 420.1225 315.168834 
L 436.1225 315.168834 
" style="fill:none;stroke:#5cb85c;stroke-linecap:square;"/>
    </g>
    <g id="line2d_34"/>
    <g id="text_24">
     <!-- fastqc | SRR9264349_S0_L001_R1_001 -->
     <g transform="translate(442.5225 317.968834)scale(0.08 -0.08)">
      <use xlink:href="#DejaVuSans-66"/>
      <use x="35.205078" xlink:href="#DejaVuSans-61"/>
      <use x="96.484375" xlink:href="#DejaVuSans-73"/>
      <use x="148.583984" xlink:href="#DejaVuSans-74"/>
      <use x="187.792969" xlink:href="#DejaVuSans-71"/>
      <use x="251.269531" xlink:href="#DejaVuSans-63"/>
      <use x="306.25" xlink:href="#DejaVuSans-20"/>
      <use x="338.037109" xlink:href="#DejaVuSans-7c"/>
      <use x="371.728516" xlink:href="#DejaVuSans-20"/>
      <use x="403.515625" xlink:href="#DejaVuSans-53"/>
      <use x="466.992188" xlink:href="#DejaVuSans-52"/>
      <use x="536.474609" xlink:href="#DejaVuSans-52"/>
      <use x="605.957031" xlink:href="#DejaVuSans-39"/>
      <use x="669.580078" xlink:href="#DejaVuSans-32"/>
      <use x="733.203125" xlink:href="#DejaVuSans-36"/>
      <use x="796.826172" xlink:href="#DejaVuSans-34"/>
      <use x="860.449219" xlink:href="#DejaVuSans-33"/>
      <use x="924.072266" xlink:href="#DejaVuSans-34"/>
      <use x="987.695312" xlink:href="#DejaVuSans-39"/>
      <use x="1051.318359" xlink:href="#DejaVuSans-5f"/>
      <use x="1101.318359" xlink:href="#DejaVuSans-53"/>
      <use x="1164.794922" xlink:href="#DejaVuSans-30"/>
      <use x="1228.417969" xlink:href="#DejaVuSans-5f"/>
      <use x="1278.417969" xlink:href="#DejaVuSans-4c"/>
      <use x="1334.130859" xlink:href="#DejaVuSans-30"/>
      <use x="1397.753906" xlink:href="#DejaVuSans-30"/>
      <use x="1461.376953" xlink:href="#DejaVuSans-31"/>
      <use x="1525" xlink:href="#DejaVuSans-5f"/>
      <use x="1575" xlink:href="#DejaVuSans-52"/>
      <use x="1644.482422" xlink:href="#DejaVuSans-31"/>
      <use x="1708.105469" xlink:href="#DejaVuSans-5f"/>
      <use x="1758.105469" xlink:href="#DejaVuSans-30"/>
      <use x="1821.728516" xlink:href="#DejaVuSans-30"/>
      <use x="1885.351562" xlink:href="#DejaVuSans-31"/>
     </g>
    </g>
    <g id="line2d_35">
     <path d="M 420.1225 327.168834 
L 436.1225 327.168834 
" style="fill:none;stroke:#5cb85c;stroke-linecap:square;"/>
    </g>
    <g id="line2d_36"/>
    <g id="text_25">
     <!-- fastqc | SRR9264350_S0_L001_R1_001 -->
     <g transform="translate(442.5225 329.968834)scale(0.08 -0.08)">
      <use xlink:href="#DejaVuSans-66"/>
      <use x="35.205078" xlink:href="#DejaVuSans-61"/>
      <use x="96.484375" xlink:href="#DejaVuSans-73"/>
      <use x="148.583984" xlink:href="#DejaVuSans-74"/>
      <use x="187.792969" xlink:href="#DejaVuSans-71"/>
      <use x="251.269531" xlink:href="#DejaVuSans-63"/>
      <use x="306.25" xlink:href="#DejaVuSans-20"/>
      <use x="338.037109" xlink:href="#DejaVuSans-7c"/>
      <use x="371.728516" xlink:href="#DejaVuSans-20"/>
      <use x="403.515625" xlink:href="#DejaVuSans-53"/>
      <use x="466.992188" xlink:href="#DejaVuSans-52"/>
      <use x="536.474609" xlink:href="#DejaVuSans-52"/>
      <use x="605.957031" xlink:href="#DejaVuSans-39"/>
      <use x="669.580078" xlink:href="#DejaVuSans-32"/>
      <use x="733.203125" xlink:href="#DejaVuSans-36"/>
      <use x="796.826172" xlink:href="#DejaVuSans-34"/>
      <use x="860.449219" xlink:href="#DejaVuSans-33"/>
      <use x="924.072266" xlink:href="#DejaVuSans-35"/>
      <use x="987.695312" xlink:href="#DejaVuSans-30"/>
      <use x="1051.318359" xlink:href="#DejaVuSans-5f"/>
      <use x="1101.318359" xlink:href="#DejaVuSans-53"/>
      <use x="1164.794922" xlink:href="#DejaVuSans-30"/>
      <use x="1228.417969" xlink:href="#DejaVuSans-5f"/>
      <use x="1278.417969" xlink:href="#DejaVuSans-4c"/>
      <use x="1334.130859" xlink:href="#DejaVuSans-30"/>
      <use x="1397.753906" xlink:href="#DejaVuSans-30"/>
      <use x="1461.376953" xlink:href="#DejaVuSans-31"/>
      <use x="1525" xlink:href="#DejaVuSans-5f"/>
      <use x="1575" xlink:href="#DejaVuSans-52"/>
      <use x="1644.482422" xlink:href="#DejaVuSans-31"/>
      <use x="1708.105469" xlink:href="#DejaVuSans-5f"/>
      <use x="1758.105469" xlink:href="#DejaVuSans-30"/>
      <use x="1821.728516" xlink:href="#DejaVuSans-30"/>
      <use x="1885.351562" xlink:href="#DejaVuSans-31"/>
     </g>
    </g>
    <g id="line2d_37">
     <path d="M 610.099688 315.168834 
L 626.099688 315.168834 
" style="fill:none;stroke:#5cb85c;stroke-linecap:square;"/>
    </g>
    <g id="line2d_38"/>
    <g id="text_26">
     <!-- fastqc | SRR9264351_S0_L001_R1_001 -->
     <g transform="translate(632.499688 317.968834)scale(0.08 -0.08)">
      <use xlink:href="#DejaVuSans-66"/>
      <use x="35.205078" xlink:href="#DejaVuSans-61"/>
      <use x="96.484375" xlink:href="#DejaVuSans-73"/>
      <use x="148.583984" xlink:href="#DejaVuSans-74"/>
      <use x="187.792969" xlink:href="#DejaVuSans-71"/>
      <use x="251.269531" xlink:href="#DejaVuSans-63"/>
      <use x="306.25" xlink:href="#DejaVuSans-20"/>
      <use x="338.037109" xlink:href="#DejaVuSans-7c"/>
      <use x="371.728516" xlink:href="#DejaVuSans-20"/>
      <use x="403.515625" xlink:href="#DejaVuSans-53"/>
      <use x="466.992188" xlink:href="#DejaVuSans-52"/>
      <use x="536.474609" xlink:href="#DejaVuSans-52"/>
      <use x="605.957031" xlink:href="#DejaVuSans-39"/>
      <use x="669.580078" xlink:href="#DejaVuSans-32"/>
      <use x="733.203125" xlink:href="#DejaVuSans-36"/>
      <use x="796.826172" xlink:href="#DejaVuSans-34"/>
      <use x="860.449219" xlink:href="#DejaVuSans-33"/>
      <use x="924.072266" xlink:href="#DejaVuSans-35"/>
      <use x="987.695312" xlink:href="#DejaVuSans-31"/>
      <use x="1051.318359" xlink:href="#DejaVuSans-5f"/>
      <use x="1101.318359" xlink:href="#DejaVuSans-53"/>
      <use x="1164.794922" xlink:href="#DejaVuSans-30"/>
      <use x="1228.417969" xlink:href="#DejaVuSans-5f"/>
      <use x="1278.417969" xlink:href="#DejaVuSans-4c"/>
      <use x="1334.130859" xlink:href="#DejaVuSans-30"/>
      <use x="1397.753906" xlink:href="#DejaVuSans-30"/>
      <use x="1461.376953" xlink:href="#DejaVuSans-31"/>
      <use x="1525" xlink:href="#DejaVuSans-5f"/>
      <use x="1575" xlink:href="#DejaVuSans-52"/>
      <use x="1644.482422" xlink:href="#DejaVuSans-31"/>
      <use x="1708.105469" xlink:href="#DejaVuSans-5f"/>
      <use x="1758.105469" xlink:href="#DejaVuSans-30"/>
      <use x="1821.728516" xlink:href="#DejaVuSans-30"/>
      <use x="1885.351562" xlink:href="#DejaVuSans-31"/>
     </g>
    </g>
    <g id="line2d_39">
     <path d="M 610.099688 327.168834 
L 626.099688 327.168834 
" style="fill:none;stroke:#5cb85c;stroke-linecap:square;"/>
    </g>
    <g id="line2d_40"/>
    <g id="text_27">
     <!-- fastqc | SRR9264352_S0_L001_R1_001 -->
     <g transform="translate(632.499688 329.968834)scale(0.08 -0.08)">
      <use xlink:href="#DejaVuSans-66"/>
      <use x="35.205078" xlink:href="#DejaVuSans-61"/>
      <use x="96.484375" xlink:href="#DejaVuSans-73"/>
      <use x="148.583984" xlink:href="#DejaVuSans-74"/>
      <use x="187.792969" xlink:href="#DejaVuSans-71"/>
      <use x="251.269531" xlink:href="#DejaVuSans-63"/>
      <use x="306.25" xlink:href="#DejaVuSans-20"/>
      <use x="338.037109" xlink:href="#DejaVuSans-7c"/>
      <use x="371.728516" xlink:href="#DejaVuSans-20"/>
      <use x="403.515625" xlink:href="#DejaVuSans-53"/>
      <use x="466.992188" xlink:href="#DejaVuSans-52"/>
      <use x="536.474609" xlink:href="#DejaVuSans-52"/>
      <use x="605.957031" xlink:href="#DejaVuSans-39"/>
      <use x="669.580078" xlink:href="#DejaVuSans-32"/>
      <use x="733.203125" xlink:href="#DejaVuSans-36"/>
      <use x="796.826172" xlink:href="#DejaVuSans-34"/>
      <use x="860.449219" xlink:href="#DejaVuSans-33"/>
      <use x="924.072266" xlink:href="#DejaVuSans-35"/>
      <use x="987.695312" xlink:href="#DejaVuSans-32"/>
      <use x="1051.318359" xlink:href="#DejaVuSans-5f"/>
      <use x="1101.318359" xlink:href="#DejaVuSans-53"/>
      <use x="1164.794922" xlink:href="#DejaVuSans-30"/>
      <use x="1228.417969" xlink:href="#DejaVuSans-5f"/>
      <use x="1278.417969" xlink:href="#DejaVuSans-4c"/>
      <use x="1334.130859" xlink:href="#DejaVuSans-30"/>
      <use x="1397.753906" xlink:href="#DejaVuSans-30"/>
      <use x="1461.376953" xlink:href="#DejaVuSans-31"/>
      <use x="1525" xlink:href="#DejaVuSans-5f"/>
      <use x="1575" xlink:href="#DejaVuSans-52"/>
      <use x="1644.482422" xlink:href="#DejaVuSans-31"/>
      <use x="1708.105469" xlink:href="#DejaVuSans-5f"/>
      <use x="1758.105469" xlink:href="#DejaVuSans-30"/>
      <use x="1821.728516" xlink:href="#DejaVuSans-30"/>
      <use x="1885.351562" xlink:href="#DejaVuSans-31"/>
     </g>
    </g>
    <g id="line2d_41">
     <path d="M 800.076875 315.168834 
L 816.076875 315.168834 
" style="fill:none;stroke:#5cb85c;stroke-linecap:square;"/>
    </g>
    <g id="line2d_42"/>
    <g id="text_28">
     <!-- fastqc | SRR9264353_S0_L001_R1_001 -->
     <g transform="translate(822.476875 317.968834)scale(0.08 -0.08)">
      <use xlink:href="#DejaVuSans-66"/>
      <use x="35.205078" xlink:href="#DejaVuSans-61"/>
      <use x="96.484375" xlink:href="#DejaVuSans-73"/>
      <use x="148.583984" xlink:href="#DejaVuSans-74"/>
      <use x="187.792969" xlink:href="#DejaVuSans-71"/>
      <use x="251.269531" xlink:href="#DejaVuSans-63"/>
      <use x="306.25" xlink:href="#DejaVuSans-20"/>
      <use x="338.037109" xlink:href="#DejaVuSans-7c"/>
      <use x="371.728516" xlink:href="#DejaVuSans-20"/>
      <use x="403.515625" xlink:href="#DejaVuSans-53"/>
      <use x="466.992188" xlink:href="#DejaVuSans-52"/>
      <use x="536.474609" xlink:href="#DejaVuSans-52"/>
      <use x="605.957031" xlink:href="#DejaVuSans-39"/>
      <use x="669.580078" xlink:href="#DejaVuSans-32"/>
      <use x="733.203125" xlink:href="#DejaVuSans-36"/>
      <use x="796.826172" xlink:href="#DejaVuSans-34"/>
      <use x="860.449219" xlink:href="#DejaVuSans-33"/>
      <use x="924.072266" xlink:href="#DejaVuSans-35"/>
      <use x="987.695312" xlink:href="#DejaVuSans-33"/>
      <use x="1051.318359" xlink:href="#DejaVuSans-5f"/>
      <use x="1101.318359" xlink:href="#DejaVuSans-53"/>
      <use x="1164.794922" xlink:href="#DejaVuSans-30"/>
      <use x="1228.417969" xlink:href="#DejaVuSans-5f"/>
      <use x="1278.417969" xlink:href="#DejaVuSans-4c"/>
      <use x="1334.130859" xlink:href="#DejaVuSans-30"/>
      <use x="1397.753906" xlink:href="#DejaVuSans-30"/>
      <use x="1461.376953" xlink:href="#DejaVuSans-31"/>
      <use x="1525" xlink:href="#DejaVuSans-5f"/>
      <use x="1575" xlink:href="#DejaVuSans-52"/>
      <use x="1644.482422" xlink:href="#DejaVuSans-31"/>
      <use x="1708.105469" xlink:href="#DejaVuSans-5f"/>
      <use x="1758.105469" xlink:href="#DejaVuSans-30"/>
      <use x="1821.728516" xlink:href="#DejaVuSans-30"/>
      <use x="1885.351562" xlink:href="#DejaVuSans-31"/>
     </g>
    </g>
    <g id="line2d_43">
     <path d="M 800.076875 327.168834 
L 816.076875 327.168834 
" style="fill:none;stroke:#5cb85c;stroke-linecap:square;"/>
    </g>
    <g id="line2d_44"/>
    <g id="text_29">
     <!-- fastqc | SRR9264354_S0_L001_R1_001 -->
     <g transform="translate(822.476875 329.968834)scale(0.08 -0.08)">
      <use xlink:href="#DejaVuSans-66"/>
      <use x="35.205078" xlink:href="#DejaVuSans-61"/>
      <use x="96.484375" xlink:href="#DejaVuSans-73"/>
      <use x="148.583984" xlink:href="#DejaVuSans-74"/>
      <use x="187.792969" xlink:href="#DejaVuSans-71"/>
      <use x="251.269531" xlink:href="#DejaVuSans-63"/>
      <use x="306.25" xlink:href="#DejaVuSans-20"/>
      <use x="338.037109" xlink:href="#DejaVuSans-7c"/>
      <use x="371.728516" xlink:href="#DejaVuSans-20"/>
      <use x="403.515625" xlink:href="#DejaVuSans-53"/>
      <use x="466.992188" xlink:href="#DejaVuSans-52"/>
      <use x="536.474609" xlink:href="#DejaVuSans-52"/>
      <use x="605.957031" xlink:href="#DejaVuSans-39"/>
      <use x="669.580078" xlink:href="#DejaVuSans-32"/>
      <use x="733.203125" xlink:href="#DejaVuSans-36"/>
      <use x="796.826172" xlink:href="#DejaVuSans-34"/>
      <use x="860.449219" xlink:href="#DejaVuSans-33"/>
      <use x="924.072266" xlink:href="#DejaVuSans-35"/>
      <use x="987.695312" xlink:href="#DejaVuSans-34"/>
      <use x="1051.318359" xlink:href="#DejaVuSans-5f"/>
      <use x="1101.318359" xlink:href="#DejaVuSans-53"/>
      <use x="1164.794922" xlink:href="#DejaVuSans-30"/>
      <use x="1228.417969" xlink:href="#DejaVuSans-5f"/>
      <use x="1278.417969" xlink:href="#DejaVuSans-4c"/>
      <use x="1334.130859" xlink:href="#DejaVuSans-30"/>
      <use x="1397.753906" xlink:href="#DejaVuSans-30"/>
      <use x="1461.376953" xlink:href="#DejaVuSans-31"/>
      <use x="1525" xlink:href="#DejaVuSans-5f"/>
      <use x="1575" xlink:href="#DejaVuSans-52"/>
      <use x="1644.482422" xlink:href="#DejaVuSans-31"/>
      <use x="1708.105469" xlink:href="#DejaVuSans-5f"/>
      <use x="1758.105469" xlink:href="#DejaVuSans-30"/>
      <use x="1821.728516" xlink:href="#DejaVuSans-30"/>
      <use x="1885.351562" xlink:href="#DejaVuSans-31"/>
     </g>
    </g>
   </g>
  </g>
 </g>
 <defs>
  <clipPath id="pe48b7bed9a">
   <rect height="261.1792" width="952.63" x="32.968125" y="32.41646"/>
  </clipPath>
 </defs>
</svg>
