<?xml version="1.0" encoding="utf-8" standalone="no"?>
<!DOCTYPE svg PUBLIC "-//W3C//DTD SVG 1.1//EN"
  "http://www.w3.org/Graphics/SVG/1.1/DTD/svg11.dtd">
<!-- Created with matplotlib (http://matplotlib.org/) -->
<svg height="354.255084pt" version="1.1" viewBox="0 0 1000.465625 354.255084" width="1000.465625pt" xmlns="http://www.w3.org/2000/svg" xmlns:xlink="http://www.w3.org/1999/xlink">
 <defs>
  <style type="text/css">
*{stroke-linecap:butt;stroke-linejoin:round;}
  </style>
 </defs>
 <g id="figure_1">
  <g id="patch_1">
   <path d="M 0 354.255084 
L 1000.465625 354.255084 
L 1000.465625 0 
L 0 0 
z
" style="fill:#ffffff;"/>
  </g>
  <g id="axes_1">
   <g id="patch_2">
    <path d="M 45.690625 293.59566 
L 985.630625 293.59566 
L 985.630625 32.41646 
L 45.690625 32.41646 
z
" style="fill:#ffffff;"/>
   </g>
   <g id="matplotlib.axis_1">
    <g id="xtick_1">
     <g id="text_1">
      <!-- 0 -->
      <defs>
       <path d="M 31.78125 66.40625 
Q 24.171875 66.40625 20.328125 58.90625 
Q 16.5 51.421875 16.5 36.375 
Q 16.5 21.390625 20.328125 13.890625 
Q 24.171875 6.390625 31.78125 6.390625 
Q 39.453125 6.390625 43.28125 13.890625 
Q 47.125 21.390625 47.125 36.375 
Q 47.125 51.421875 43.28125 58.90625 
Q 39.453125 66.40625 31.78125 66.40625 
z
M 31.78125 74.21875 
Q 44.046875 74.21875 50.515625 64.515625 
Q 56.984375 54.828125 56.984375 36.375 
Q 56.984375 17.96875 50.515625 8.265625 
Q 44.046875 -1.421875 31.78125 -1.421875 
Q 19.53125 -1.421875 13.0625 8.265625 
Q 6.59375 17.96875 6.59375 36.375 
Q 6.59375 54.828125 13.0625 64.515625 
Q 19.53125 74.21875 31.78125 74.21875 
z
" id="DejaVuSans-30"/>
      </defs>
      <g transform="translate(43.145625 306.67441)scale(0.08 -0.08)">
       <use xlink:href="#DejaVuSans-30"/>
      </g>
     </g>
    </g>
    <g id="xtick_2">
     <g id="text_2">
      <!-- 20 -->
      <defs>
       <path d="M 19.1875 8.296875 
L 53.609375 8.296875 
L 53.609375 0 
L 7.328125 0 
L 7.328125 8.296875 
Q 12.9375 14.109375 22.625 23.890625 
Q 32.328125 33.6875 34.8125 36.53125 
Q 39.546875 41.84375 41.421875 45.53125 
Q 43.3125 49.21875 43.3125 52.78125 
Q 43.3125 58.59375 39.234375 62.25 
Q 35.15625 65.921875 28.609375 65.921875 
Q 23.96875 65.921875 18.8125 64.3125 
Q 13.671875 62.703125 7.8125 59.421875 
L 7.8125 69.390625 
Q 13.765625 71.78125 18.9375 73 
Q 24.125 74.21875 28.421875 74.21875 
Q 39.75 74.21875 46.484375 68.546875 
Q 53.21875 62.890625 53.21875 53.421875 
Q 53.21875 48.921875 51.53125 44.890625 
Q 49.859375 40.875 45.40625 35.40625 
Q 44.1875 33.984375 37.640625 27.21875 
Q 31.109375 20.453125 19.1875 8.296875 
z
" id="DejaVuSans-32"/>
      </defs>
      <g transform="translate(228.588625 306.67441)scale(0.08 -0.08)">
       <use xlink:href="#DejaVuSans-32"/>
       <use x="63.623047" xlink:href="#DejaVuSans-30"/>
      </g>
     </g>
    </g>
    <g id="xtick_3">
     <g id="text_3">
      <!-- 40 -->
      <defs>
       <path d="M 37.796875 64.3125 
L 12.890625 25.390625 
L 37.796875 25.390625 
z
M 35.203125 72.90625 
L 47.609375 72.90625 
L 47.609375 25.390625 
L 58.015625 25.390625 
L 58.015625 17.1875 
L 47.609375 17.1875 
L 47.609375 0 
L 37.796875 0 
L 37.796875 17.1875 
L 4.890625 17.1875 
L 4.890625 26.703125 
z
" id="DejaVuSans-34"/>
      </defs>
      <g transform="translate(416.576625 306.67441)scale(0.08 -0.08)">
       <use xlink:href="#DejaVuSans-34"/>
       <use x="63.623047" xlink:href="#DejaVuSans-30"/>
      </g>
     </g>
    </g>
    <g id="xtick_4">
     <g id="text_4">
      <!-- 60 -->
      <defs>
       <path d="M 33.015625 40.375 
Q 26.375 40.375 22.484375 35.828125 
Q 18.609375 31.296875 18.609375 23.390625 
Q 18.609375 15.53125 22.484375 10.953125 
Q 26.375 6.390625 33.015625 6.390625 
Q 39.65625 6.390625 43.53125 10.953125 
Q 47.40625 15.53125 47.40625 23.390625 
Q 47.40625 31.296875 43.53125 35.828125 
Q 39.65625 40.375 33.015625 40.375 
z
M 52.59375 71.296875 
L 52.59375 62.3125 
Q 48.875 64.0625 45.09375 64.984375 
Q 41.3125 65.921875 37.59375 65.921875 
Q 27.828125 65.921875 22.671875 59.328125 
Q 17.53125 52.734375 16.796875 39.40625 
Q 19.671875 43.65625 24.015625 45.921875 
Q 28.375 48.1875 33.59375 48.1875 
Q 44.578125 48.1875 50.953125 41.515625 
Q 57.328125 34.859375 57.328125 23.390625 
Q 57.328125 12.15625 50.6875 5.359375 
Q 44.046875 -1.421875 33.015625 -1.421875 
Q 20.359375 -1.421875 13.671875 8.265625 
Q 6.984375 17.96875 6.984375 36.375 
Q 6.984375 53.65625 15.1875 63.9375 
Q 23.390625 74.21875 37.203125 74.21875 
Q 40.921875 74.21875 44.703125 73.484375 
Q 48.484375 72.75 52.59375 71.296875 
z
" id="DejaVuSans-36"/>
      </defs>
      <g transform="translate(604.564625 306.67441)scale(0.08 -0.08)">
       <use xlink:href="#DejaVuSans-36"/>
       <use x="63.623047" xlink:href="#DejaVuSans-30"/>
      </g>
     </g>
    </g>
    <g id="xtick_5">
     <g id="text_5">
      <!-- 80 -->
      <defs>
       <path d="M 31.78125 34.625 
Q 24.75 34.625 20.71875 30.859375 
Q 16.703125 27.09375 16.703125 20.515625 
Q 16.703125 13.921875 20.71875 10.15625 
Q 24.75 6.390625 31.78125 6.390625 
Q 38.8125 6.390625 42.859375 10.171875 
Q 46.921875 13.96875 46.921875 20.515625 
Q 46.921875 27.09375 42.890625 30.859375 
Q 38.875 34.625 31.78125 34.625 
z
M 21.921875 38.8125 
Q 15.578125 40.375 12.03125 44.71875 
Q 8.5 49.078125 8.5 55.328125 
Q 8.5 64.0625 14.71875 69.140625 
Q 20.953125 74.21875 31.78125 74.21875 
Q 42.671875 74.21875 48.875 69.140625 
Q 55.078125 64.0625 55.078125 55.328125 
Q 55.078125 49.078125 51.53125 44.71875 
Q 48 40.375 41.703125 38.8125 
Q 48.828125 37.15625 52.796875 32.3125 
Q 56.78125 27.484375 56.78125 20.515625 
Q 56.78125 9.90625 50.3125 4.234375 
Q 43.84375 -1.421875 31.78125 -1.421875 
Q 19.734375 -1.421875 13.25 4.234375 
Q 6.78125 9.90625 6.78125 20.515625 
Q 6.78125 27.484375 10.78125 32.3125 
Q 14.796875 37.15625 21.921875 38.8125 
z
M 18.3125 54.390625 
Q 18.3125 48.734375 21.84375 45.5625 
Q 25.390625 42.390625 31.78125 42.390625 
Q 38.140625 42.390625 41.71875 45.5625 
Q 45.3125 48.734375 45.3125 54.390625 
Q 45.3125 60.0625 41.71875 63.234375 
Q 38.140625 66.40625 31.78125 66.40625 
Q 25.390625 66.40625 21.84375 63.234375 
Q 18.3125 60.0625 18.3125 54.390625 
z
" id="DejaVuSans-38"/>
      </defs>
      <g transform="translate(792.552625 306.67441)scale(0.08 -0.08)">
       <use xlink:href="#DejaVuSans-38"/>
       <use x="63.623047" xlink:href="#DejaVuSans-30"/>
      </g>
     </g>
    </g>
    <g id="xtick_6">
     <g id="text_6">
      <!-- 100 -->
      <defs>
       <path d="M 12.40625 8.296875 
L 28.515625 8.296875 
L 28.515625 63.921875 
L 10.984375 60.40625 
L 10.984375 69.390625 
L 28.421875 72.90625 
L 38.28125 72.90625 
L 38.28125 8.296875 
L 54.390625 8.296875 
L 54.390625 0 
L 12.40625 0 
z
" id="DejaVuSans-31"/>
      </defs>
      <g transform="translate(977.995625 306.67441)scale(0.08 -0.08)">
       <use xlink:href="#DejaVuSans-31"/>
       <use x="63.623047" xlink:href="#DejaVuSans-30"/>
       <use x="127.246094" xlink:href="#DejaVuSans-30"/>
      </g>
     </g>
    </g>
    <g id="text_7">
     <!-- % GC -->
     <defs>
      <path d="M 72.703125 32.078125 
Q 68.453125 32.078125 66.03125 28.46875 
Q 63.625 24.859375 63.625 18.40625 
Q 63.625 12.0625 66.03125 8.421875 
Q 68.453125 4.78125 72.703125 4.78125 
Q 76.859375 4.78125 79.265625 8.421875 
Q 81.6875 12.0625 81.6875 18.40625 
Q 81.6875 24.8125 79.265625 28.4375 
Q 76.859375 32.078125 72.703125 32.078125 
z
M 72.703125 38.28125 
Q 80.421875 38.28125 84.953125 32.90625 
Q 89.5 27.546875 89.5 18.40625 
Q 89.5 9.28125 84.9375 3.921875 
Q 80.375 -1.421875 72.703125 -1.421875 
Q 64.890625 -1.421875 60.34375 3.921875 
Q 55.8125 9.28125 55.8125 18.40625 
Q 55.8125 27.59375 60.375 32.9375 
Q 64.9375 38.28125 72.703125 38.28125 
z
M 22.3125 68.015625 
Q 18.109375 68.015625 15.6875 64.375 
Q 13.28125 60.75 13.28125 54.390625 
Q 13.28125 47.953125 15.671875 44.328125 
Q 18.0625 40.71875 22.3125 40.71875 
Q 26.5625 40.71875 28.96875 44.328125 
Q 31.390625 47.953125 31.390625 54.390625 
Q 31.390625 60.6875 28.953125 64.34375 
Q 26.515625 68.015625 22.3125 68.015625 
z
M 66.40625 74.21875 
L 74.21875 74.21875 
L 28.609375 -1.421875 
L 20.796875 -1.421875 
z
M 22.3125 74.21875 
Q 30.03125 74.21875 34.609375 68.875 
Q 39.203125 63.53125 39.203125 54.390625 
Q 39.203125 45.171875 34.640625 39.84375 
Q 30.078125 34.515625 22.3125 34.515625 
Q 14.546875 34.515625 10.03125 39.859375 
Q 5.515625 45.21875 5.515625 54.390625 
Q 5.515625 63.484375 10.046875 68.84375 
Q 14.59375 74.21875 22.3125 74.21875 
z
" id="DejaVuSans-25"/>
      <path id="DejaVuSans-20"/>
      <path d="M 59.515625 10.40625 
L 59.515625 29.984375 
L 43.40625 29.984375 
L 43.40625 38.09375 
L 69.28125 38.09375 
L 69.28125 6.78125 
Q 63.578125 2.734375 56.6875 0.65625 
Q 49.8125 -1.421875 42 -1.421875 
Q 24.90625 -1.421875 15.25 8.5625 
Q 5.609375 18.5625 5.609375 36.375 
Q 5.609375 54.25 15.25 64.234375 
Q 24.90625 74.21875 42 74.21875 
Q 49.125 74.21875 55.546875 72.453125 
Q 61.96875 70.703125 67.390625 67.28125 
L 67.390625 56.78125 
Q 61.921875 61.421875 55.765625 63.765625 
Q 49.609375 66.109375 42.828125 66.109375 
Q 29.4375 66.109375 22.71875 58.640625 
Q 16.015625 51.171875 16.015625 36.375 
Q 16.015625 21.625 22.71875 14.15625 
Q 29.4375 6.6875 42.828125 6.6875 
Q 48.046875 6.6875 52.140625 7.59375 
Q 56.25 8.5 59.515625 10.40625 
z
" id="DejaVuSans-47"/>
      <path d="M 64.40625 67.28125 
L 64.40625 56.890625 
Q 59.421875 61.53125 53.78125 63.8125 
Q 48.140625 66.109375 41.796875 66.109375 
Q 29.296875 66.109375 22.65625 58.46875 
Q 16.015625 50.828125 16.015625 36.375 
Q 16.015625 21.96875 22.65625 14.328125 
Q 29.296875 6.6875 41.796875 6.6875 
Q 48.140625 6.6875 53.78125 8.984375 
Q 59.421875 11.28125 64.40625 15.921875 
L 64.40625 5.609375 
Q 59.234375 2.09375 53.4375 0.328125 
Q 47.65625 -1.421875 41.21875 -1.421875 
Q 24.65625 -1.421875 15.125 8.703125 
Q 5.609375 18.84375 5.609375 36.375 
Q 5.609375 53.953125 15.125 64.078125 
Q 24.65625 74.21875 41.21875 74.21875 
Q 47.75 74.21875 53.53125 72.484375 
Q 59.328125 70.75 64.40625 67.28125 
z
" id="DejaVuSans-43"/>
     </defs>
     <g transform="translate(501.955156 319.936598)scale(0.1 -0.1)">
      <use xlink:href="#DejaVuSans-25"/>
      <use x="95.019531" xlink:href="#DejaVuSans-20"/>
      <use x="126.806641" xlink:href="#DejaVuSans-47"/>
      <use x="204.296875" xlink:href="#DejaVuSans-43"/>
     </g>
    </g>
   </g>
   <g id="matplotlib.axis_2">
    <g id="ytick_1">
     <g id="line2d_1">
      <path clip-path="url(#pf5b5559491)" d="M 45.690625 293.59566 
L 985.630625 293.59566 
" style="fill:none;stroke:#dedede;stroke-linecap:square;"/>
     </g>
     <g id="text_8">
      <!-- 0.00 -->
      <defs>
       <path d="M 10.6875 12.40625 
L 21 12.40625 
L 21 0 
L 10.6875 0 
z
" id="DejaVuSans-2e"/>
      </defs>
      <g transform="translate(20.878125 296.635035)scale(0.08 -0.08)">
       <use xlink:href="#DejaVuSans-30"/>
       <use x="63.623047" xlink:href="#DejaVuSans-2e"/>
       <use x="95.410156" xlink:href="#DejaVuSans-30"/>
       <use x="159.033203" xlink:href="#DejaVuSans-30"/>
      </g>
     </g>
    </g>
    <g id="ytick_2">
     <g id="line2d_2">
      <path clip-path="url(#pf5b5559491)" d="M 45.690625 260.101621 
L 985.630625 260.101621 
" style="fill:none;stroke:#dedede;stroke-linecap:square;"/>
     </g>
     <g id="text_9">
      <!-- 0.25 -->
      <defs>
       <path d="M 10.796875 72.90625 
L 49.515625 72.90625 
L 49.515625 64.59375 
L 19.828125 64.59375 
L 19.828125 46.734375 
Q 21.96875 47.46875 24.109375 47.828125 
Q 26.265625 48.1875 28.421875 48.1875 
Q 40.625 48.1875 47.75 41.5 
Q 54.890625 34.8125 54.890625 23.390625 
Q 54.890625 11.625 47.5625 5.09375 
Q 40.234375 -1.421875 26.90625 -1.421875 
Q 22.3125 -1.421875 17.546875 -0.640625 
Q 12.796875 0.140625 7.71875 1.703125 
L 7.71875 11.625 
Q 12.109375 9.234375 16.796875 8.0625 
Q 21.484375 6.890625 26.703125 6.890625 
Q 35.15625 6.890625 40.078125 11.328125 
Q 45.015625 15.765625 45.015625 23.390625 
Q 45.015625 31 40.078125 35.4375 
Q 35.15625 39.890625 26.703125 39.890625 
Q 22.75 39.890625 18.8125 39.015625 
Q 14.890625 38.140625 10.796875 36.28125 
z
" id="DejaVuSans-35"/>
      </defs>
      <g transform="translate(20.878125 263.140996)scale(0.08 -0.08)">
       <use xlink:href="#DejaVuSans-30"/>
       <use x="63.623047" xlink:href="#DejaVuSans-2e"/>
       <use x="95.410156" xlink:href="#DejaVuSans-32"/>
       <use x="159.033203" xlink:href="#DejaVuSans-35"/>
      </g>
     </g>
    </g>
    <g id="ytick_3">
     <g id="line2d_3">
      <path clip-path="url(#pf5b5559491)" d="M 45.690625 226.607582 
L 985.630625 226.607582 
" style="fill:none;stroke:#dedede;stroke-linecap:square;"/>
     </g>
     <g id="text_10">
      <!-- 0.50 -->
      <g transform="translate(20.878125 229.646957)scale(0.08 -0.08)">
       <use xlink:href="#DejaVuSans-30"/>
       <use x="63.623047" xlink:href="#DejaVuSans-2e"/>
       <use x="95.410156" xlink:href="#DejaVuSans-35"/>
       <use x="159.033203" xlink:href="#DejaVuSans-30"/>
      </g>
     </g>
    </g>
    <g id="ytick_4">
     <g id="line2d_4">
      <path clip-path="url(#pf5b5559491)" d="M 45.690625 193.113542 
L 985.630625 193.113542 
" style="fill:none;stroke:#dedede;stroke-linecap:square;"/>
     </g>
     <g id="text_11">
      <!-- 0.75 -->
      <defs>
       <path d="M 8.203125 72.90625 
L 55.078125 72.90625 
L 55.078125 68.703125 
L 28.609375 0 
L 18.3125 0 
L 43.21875 64.59375 
L 8.203125 64.59375 
z
" id="DejaVuSans-37"/>
      </defs>
      <g transform="translate(20.878125 196.152917)scale(0.08 -0.08)">
       <use xlink:href="#DejaVuSans-30"/>
       <use x="63.623047" xlink:href="#DejaVuSans-2e"/>
       <use x="95.410156" xlink:href="#DejaVuSans-37"/>
       <use x="159.033203" xlink:href="#DejaVuSans-35"/>
      </g>
     </g>
    </g>
    <g id="ytick_5">
     <g id="line2d_5">
      <path clip-path="url(#pf5b5559491)" d="M 45.690625 159.619503 
L 985.630625 159.619503 
" style="fill:none;stroke:#dedede;stroke-linecap:square;"/>
     </g>
     <g id="text_12">
      <!-- 1.00 -->
      <g transform="translate(20.878125 162.658878)scale(0.08 -0.08)">
       <use xlink:href="#DejaVuSans-31"/>
       <use x="63.623047" xlink:href="#DejaVuSans-2e"/>
       <use x="95.410156" xlink:href="#DejaVuSans-30"/>
       <use x="159.033203" xlink:href="#DejaVuSans-30"/>
      </g>
     </g>
    </g>
    <g id="ytick_6">
     <g id="line2d_6">
      <path clip-path="url(#pf5b5559491)" d="M 45.690625 126.125464 
L 985.630625 126.125464 
" style="fill:none;stroke:#dedede;stroke-linecap:square;"/>
     </g>
     <g id="text_13">
      <!-- 1.25 -->
      <g transform="translate(20.878125 129.164839)scale(0.08 -0.08)">
       <use xlink:href="#DejaVuSans-31"/>
       <use x="63.623047" xlink:href="#DejaVuSans-2e"/>
       <use x="95.410156" xlink:href="#DejaVuSans-32"/>
       <use x="159.033203" xlink:href="#DejaVuSans-35"/>
      </g>
     </g>
    </g>
    <g id="ytick_7">
     <g id="line2d_7">
      <path clip-path="url(#pf5b5559491)" d="M 45.690625 92.631425 
L 985.630625 92.631425 
" style="fill:none;stroke:#dedede;stroke-linecap:square;"/>
     </g>
     <g id="text_14">
      <!-- 1.50 -->
      <g transform="translate(20.878125 95.6708)scale(0.08 -0.08)">
       <use xlink:href="#DejaVuSans-31"/>
       <use x="63.623047" xlink:href="#DejaVuSans-2e"/>
       <use x="95.410156" xlink:href="#DejaVuSans-35"/>
       <use x="159.033203" xlink:href="#DejaVuSans-30"/>
      </g>
     </g>
    </g>
    <g id="ytick_8">
     <g id="line2d_8">
      <path clip-path="url(#pf5b5559491)" d="M 45.690625 59.137386 
L 985.630625 59.137386 
" style="fill:none;stroke:#dedede;stroke-linecap:square;"/>
     </g>
     <g id="text_15">
      <!-- 1.75 -->
      <g transform="translate(20.878125 62.176761)scale(0.08 -0.08)">
       <use xlink:href="#DejaVuSans-31"/>
       <use x="63.623047" xlink:href="#DejaVuSans-2e"/>
       <use x="95.410156" xlink:href="#DejaVuSans-37"/>
       <use x="159.033203" xlink:href="#DejaVuSans-35"/>
      </g>
     </g>
    </g>
    <g id="text_16">
     <!-- Count -->
     <defs>
      <path d="M 30.609375 48.390625 
Q 23.390625 48.390625 19.1875 42.75 
Q 14.984375 37.109375 14.984375 27.296875 
Q 14.984375 17.484375 19.15625 11.84375 
Q 23.34375 6.203125 30.609375 6.203125 
Q 37.796875 6.203125 41.984375 11.859375 
Q 46.1875 17.53125 46.1875 27.296875 
Q 46.1875 37.015625 41.984375 42.703125 
Q 37.796875 48.390625 30.609375 48.390625 
z
M 30.609375 56 
Q 42.328125 56 49.015625 48.375 
Q 55.71875 40.765625 55.71875 27.296875 
Q 55.71875 13.875 49.015625 6.21875 
Q 42.328125 -1.421875 30.609375 -1.421875 
Q 18.84375 -1.421875 12.171875 6.21875 
Q 5.515625 13.875 5.515625 27.296875 
Q 5.515625 40.765625 12.171875 48.375 
Q 18.84375 56 30.609375 56 
z
" id="DejaVuSans-6f"/>
      <path d="M 8.5 21.578125 
L 8.5 54.6875 
L 17.484375 54.6875 
L 17.484375 21.921875 
Q 17.484375 14.15625 20.5 10.265625 
Q 23.53125 6.390625 29.59375 6.390625 
Q 36.859375 6.390625 41.078125 11.03125 
Q 45.3125 15.671875 45.3125 23.6875 
L 45.3125 54.6875 
L 54.296875 54.6875 
L 54.296875 0 
L 45.3125 0 
L 45.3125 8.40625 
Q 42.046875 3.421875 37.71875 1 
Q 33.40625 -1.421875 27.6875 -1.421875 
Q 18.265625 -1.421875 13.375 4.4375 
Q 8.5 10.296875 8.5 21.578125 
z
M 31.109375 56 
z
" id="DejaVuSans-75"/>
      <path d="M 54.890625 33.015625 
L 54.890625 0 
L 45.90625 0 
L 45.90625 32.71875 
Q 45.90625 40.484375 42.875 44.328125 
Q 39.84375 48.1875 33.796875 48.1875 
Q 26.515625 48.1875 22.3125 43.546875 
Q 18.109375 38.921875 18.109375 30.90625 
L 18.109375 0 
L 9.078125 0 
L 9.078125 54.6875 
L 18.109375 54.6875 
L 18.109375 46.1875 
Q 21.34375 51.125 25.703125 53.5625 
Q 30.078125 56 35.796875 56 
Q 45.21875 56 50.046875 50.171875 
Q 54.890625 44.34375 54.890625 33.015625 
z
" id="DejaVuSans-6e"/>
      <path d="M 18.3125 70.21875 
L 18.3125 54.6875 
L 36.8125 54.6875 
L 36.8125 47.703125 
L 18.3125 47.703125 
L 18.3125 18.015625 
Q 18.3125 11.328125 20.140625 9.421875 
Q 21.96875 7.515625 27.59375 7.515625 
L 36.8125 7.515625 
L 36.8125 0 
L 27.59375 0 
Q 17.1875 0 13.234375 3.875 
Q 9.28125 7.765625 9.28125 18.015625 
L 9.28125 47.703125 
L 2.6875 47.703125 
L 2.6875 54.6875 
L 9.28125 54.6875 
L 9.28125 70.21875 
z
" id="DejaVuSans-74"/>
     </defs>
     <g transform="translate(14.798438 177.854497)rotate(-90)scale(0.1 -0.1)">
      <use xlink:href="#DejaVuSans-43"/>
      <use x="69.824219" xlink:href="#DejaVuSans-6f"/>
      <use x="131.005859" xlink:href="#DejaVuSans-75"/>
      <use x="194.384766" xlink:href="#DejaVuSans-6e"/>
      <use x="257.763672" xlink:href="#DejaVuSans-74"/>
     </g>
    </g>
    <g id="text_17">
     <!-- 1e8 -->
     <defs>
      <path d="M 56.203125 29.59375 
L 56.203125 25.203125 
L 14.890625 25.203125 
Q 15.484375 15.921875 20.484375 11.0625 
Q 25.484375 6.203125 34.421875 6.203125 
Q 39.59375 6.203125 44.453125 7.46875 
Q 49.3125 8.734375 54.109375 11.28125 
L 54.109375 2.78125 
Q 49.265625 0.734375 44.1875 -0.34375 
Q 39.109375 -1.421875 33.890625 -1.421875 
Q 20.796875 -1.421875 13.15625 6.1875 
Q 5.515625 13.8125 5.515625 26.8125 
Q 5.515625 40.234375 12.765625 48.109375 
Q 20.015625 56 32.328125 56 
Q 43.359375 56 49.78125 48.890625 
Q 56.203125 41.796875 56.203125 29.59375 
z
M 47.21875 32.234375 
Q 47.125 39.59375 43.09375 43.984375 
Q 39.0625 48.390625 32.421875 48.390625 
Q 24.90625 48.390625 20.390625 44.140625 
Q 15.875 39.890625 15.1875 32.171875 
z
" id="DejaVuSans-65"/>
     </defs>
     <g transform="translate(45.690625 29.41646)scale(0.1 -0.1)">
      <use xlink:href="#DejaVuSans-31"/>
      <use x="63.623047" xlink:href="#DejaVuSans-65"/>
      <use x="125.146484" xlink:href="#DejaVuSans-38"/>
     </g>
    </g>
   </g>
   <g id="line2d_9">
    <path clip-path="url(#pf5b5559491)" d="M 45.690625 293.59566 
L 55.090025 293.59566 
L 64.489425 293.59566 
L 73.888825 293.59566 
L 83.288225 293.59566 
L 92.687625 293.59566 
L 102.087025 293.59566 
L 111.486425 293.59566 
L 120.885825 293.59566 
L 130.285225 293.59566 
L 139.684625 293.59566 
L 149.084025 293.59566 
L 158.483425 293.59566 
L 167.882825 293.59566 
L 177.282225 293.59566 
L 186.681625 293.59566 
L 196.081025 293.59566 
L 205.480425 293.59566 
L 214.879825 293.59566 
L 224.279225 292.716696 
L 233.678625 291.837732 
L 243.078025 291.837732 
L 252.477425 291.837732 
L 261.876825 291.837732 
L 271.276225 291.837732 
L 280.675625 291.837732 
L 290.075025 291.837732 
L 299.474425 291.837732 
L 308.873825 291.837732 
L 318.273225 291.837732 
L 327.672625 291.837732 
L 337.072025 229.985703 
L 346.471425 168.133675 
L 355.870825 168.133675 
L 365.270225 168.133675 
L 374.669625 168.133675 
L 384.069025 168.133675 
L 393.468425 168.133675 
L 402.867825 168.133675 
L 412.267225 168.133675 
L 421.666625 168.133675 
L 431.066025 168.133675 
L 440.465425 168.133675 
L 449.864825 168.133675 
L 459.264225 228.488141 
L 468.663625 288.842607 
L 478.063025 288.842607 
L 487.462425 288.842607 
L 496.861825 288.842607 
L 506.261225 288.842607 
L 515.660625 288.842607 
L 525.060025 288.842607 
L 534.459425 288.842607 
L 543.858825 288.842607 
L 553.258225 288.842607 
L 562.657625 288.842607 
L 572.057025 216.087632 
L 581.456425 143.332658 
L 590.855825 143.332658 
L 600.255225 143.332658 
L 609.654625 143.332658 
L 619.054025 143.332658 
L 628.453425 143.332658 
L 637.852825 143.332658 
L 647.252225 143.332658 
L 656.651625 143.332658 
L 666.051025 143.332658 
L 675.450425 143.332658 
L 684.849825 143.332658 
L 694.249225 218.245982 
L 703.648625 293.159305 
L 713.048025 293.159305 
L 722.447425 293.159305 
L 731.846825 293.159305 
L 741.246225 293.159305 
L 750.645625 293.159305 
L 760.045025 293.159305 
L 769.444425 293.159305 
L 778.843825 293.159305 
L 788.243225 293.159305 
L 797.642625 293.159305 
L 807.042025 293.377483 
L 816.441425 293.59566 
L 825.840825 293.59566 
L 835.240225 293.59566 
L 844.639625 293.59566 
L 854.039025 293.59566 
L 863.438425 293.59566 
L 872.837825 293.59566 
L 882.237225 293.59566 
L 891.636625 293.59566 
L 901.036025 293.59566 
L 910.435425 293.59566 
L 919.834825 293.59566 
L 929.234225 293.59566 
L 938.633625 293.59566 
L 948.033025 293.59566 
L 957.432425 293.59566 
L 966.831825 293.59566 
L 976.231225 293.59566 
L 985.630625 293.59566 
" style="fill:none;stroke:#d9534f;stroke-linecap:square;"/>
   </g>
   <g id="line2d_10">
    <path clip-path="url(#pf5b5559491)" d="M 45.690625 293.59566 
L 55.090025 293.59566 
L 64.489425 293.59566 
L 73.888825 293.59566 
L 83.288225 293.59566 
L 92.687625 293.59566 
L 102.087025 293.59566 
L 111.486425 293.59566 
L 120.885825 293.59566 
L 130.285225 293.59566 
L 139.684625 293.59566 
L 149.084025 293.59566 
L 158.483425 293.59566 
L 167.882825 293.59566 
L 177.282225 293.59566 
L 186.681625 293.59566 
L 196.081025 293.59566 
L 205.480425 293.59566 
L 214.879825 293.59566 
L 224.279225 292.650545 
L 233.678625 291.705429 
L 243.078025 291.705429 
L 252.477425 291.705429 
L 261.876825 291.705429 
L 271.276225 291.705429 
L 280.675625 291.705429 
L 290.075025 291.705429 
L 299.474425 291.705429 
L 308.873825 291.705429 
L 318.273225 291.705429 
L 327.672625 291.705429 
L 337.072025 240.864538 
L 346.471425 190.023648 
L 355.870825 190.023648 
L 365.270225 190.023648 
L 374.669625 190.023648 
L 384.069025 190.023648 
L 393.468425 190.023648 
L 402.867825 190.023648 
L 412.267225 190.023648 
L 421.666625 190.023648 
L 431.066025 190.023648 
L 440.465425 190.023648 
L 449.864825 190.023648 
L 459.264225 132.814892 
L 468.663625 75.606137 
L 478.063025 75.606137 
L 487.462425 75.606137 
L 496.861825 75.606137 
L 506.261225 75.606137 
L 515.660625 75.606137 
L 525.060025 75.606137 
L 534.459425 75.606137 
L 543.858825 75.606137 
L 553.258225 75.606137 
L 562.657625 75.606137 
L 572.057025 125.069117 
L 581.456425 174.532097 
L 590.855825 174.532097 
L 600.255225 174.532097 
L 609.654625 174.532097 
L 619.054025 174.532097 
L 628.453425 174.532097 
L 637.852825 174.532097 
L 647.252225 174.532097 
L 656.651625 174.532097 
L 666.051025 174.532097 
L 675.450425 174.532097 
L 684.849825 174.532097 
L 694.249225 233.98978 
L 703.648625 293.447462 
L 713.048025 293.447462 
L 722.447425 293.447462 
L 731.846825 293.447462 
L 741.246225 293.447462 
L 750.645625 293.447462 
L 760.045025 293.447462 
L 769.444425 293.447462 
L 778.843825 293.447462 
L 788.243225 293.447462 
L 797.642625 293.447462 
L 807.042025 293.521561 
L 816.441425 293.59566 
L 825.840825 293.59566 
L 835.240225 293.59566 
L 844.639625 293.59566 
L 854.039025 293.59566 
L 863.438425 293.59566 
L 872.837825 293.59566 
L 882.237225 293.59566 
L 891.636625 293.59566 
L 901.036025 293.59566 
L 910.435425 293.59566 
L 919.834825 293.59566 
L 929.234225 293.59566 
L 938.633625 293.59566 
L 948.033025 293.59566 
L 957.432425 293.59566 
L 966.831825 293.59566 
L 976.231225 293.59566 
L 985.630625 293.59566 
" style="fill:none;stroke:#f0ad4e;stroke-linecap:square;"/>
   </g>
   <g id="line2d_11">
    <path clip-path="url(#pf5b5559491)" d="M 45.690625 293.59566 
L 55.090025 293.59566 
L 64.489425 293.59566 
L 73.888825 293.59566 
L 83.288225 293.59566 
L 92.687625 293.59566 
L 102.087025 293.59566 
L 111.486425 293.59566 
L 120.885825 293.59566 
L 130.285225 293.59566 
L 139.684625 293.59566 
L 149.084025 293.59566 
L 158.483425 293.59566 
L 167.882825 293.59566 
L 177.282225 293.59566 
L 186.681625 293.59566 
L 196.081025 293.59566 
L 205.480425 293.59566 
L 214.879825 293.59566 
L 224.279225 291.801281 
L 233.678625 290.006902 
L 243.078025 290.006902 
L 252.477425 290.006902 
L 261.876825 290.006902 
L 271.276225 290.006902 
L 280.675625 290.006902 
L 290.075025 290.006902 
L 299.474425 290.006902 
L 308.873825 290.006902 
L 318.273225 290.006902 
L 327.672625 290.006902 
L 337.072025 181.214538 
L 346.471425 72.422173 
L 355.870825 72.422173 
L 365.270225 72.422173 
L 374.669625 72.422173 
L 384.069025 72.422173 
L 393.468425 72.422173 
L 402.867825 72.422173 
L 412.267225 72.422173 
L 421.666625 72.422173 
L 431.066025 72.422173 
L 440.465425 72.422173 
L 449.864825 72.422173 
L 459.264225 180.913617 
L 468.663625 289.40506 
L 478.063025 289.40506 
L 487.462425 289.40506 
L 496.861825 289.40506 
L 506.261225 289.40506 
L 515.660625 289.40506 
L 525.060025 289.40506 
L 534.459425 289.40506 
L 543.858825 289.40506 
L 553.258225 289.40506 
L 562.657625 289.40506 
L 572.057025 183.765102 
L 581.456425 78.125145 
L 590.855825 78.125145 
L 600.255225 78.125145 
L 609.654625 78.125145 
L 619.054025 78.125145 
L 628.453425 78.125145 
L 637.852825 78.125145 
L 647.252225 78.125145 
L 656.651625 78.125145 
L 666.051025 78.125145 
L 675.450425 78.125145 
L 684.849825 78.125145 
L 694.249225 185.597938 
L 703.648625 293.070731 
L 713.048025 293.070731 
L 722.447425 293.070731 
L 731.846825 293.070731 
L 741.246225 293.070731 
L 750.645625 293.070731 
L 760.045025 293.070731 
L 769.444425 293.070731 
L 778.843825 293.070731 
L 788.243225 293.070731 
L 797.642625 293.070731 
L 807.042025 293.333195 
L 816.441425 293.59566 
L 825.840825 293.59566 
L 835.240225 293.59566 
L 844.639625 293.59566 
L 854.039025 293.59566 
L 863.438425 293.59566 
L 872.837825 293.59566 
L 882.237225 293.59566 
L 891.636625 293.59566 
L 901.036025 293.59566 
L 910.435425 293.59566 
L 919.834825 293.59566 
L 929.234225 293.59566 
L 938.633625 293.59566 
L 948.033025 293.59566 
L 957.432425 293.59566 
L 966.831825 293.59566 
L 976.231225 293.59566 
L 985.630625 293.59566 
" style="fill:none;stroke:#d9534f;stroke-linecap:square;"/>
   </g>
   <g id="line2d_12">
    <path clip-path="url(#pf5b5559491)" d="M 45.690625 293.59566 
L 55.090025 293.59566 
L 64.489425 293.59566 
L 73.888825 293.59566 
L 83.288225 293.59566 
L 92.687625 293.59566 
L 102.087025 293.204641 
L 111.486425 292.813621 
L 120.885825 292.813621 
L 130.285225 292.813621 
L 139.684625 292.813621 
L 149.084025 292.813621 
L 158.483425 292.813621 
L 167.882825 292.813621 
L 177.282225 292.813621 
L 186.681625 292.813621 
L 196.081025 292.813621 
L 205.480425 292.813621 
L 214.879825 292.813621 
L 224.279225 237.161687 
L 233.678625 181.509754 
L 243.078025 181.509754 
L 252.477425 181.509754 
L 261.876825 181.509754 
L 271.276225 181.509754 
L 280.675625 181.509754 
L 290.075025 181.509754 
L 299.474425 181.509754 
L 308.873825 181.509754 
L 318.273225 181.509754 
L 327.672625 181.509754 
L 337.072025 236.880225 
L 346.471425 292.250696 
L 355.870825 292.250696 
L 365.270225 292.250696 
L 374.669625 292.250696 
L 384.069025 292.250696 
L 393.468425 292.250696 
L 402.867825 292.250696 
L 412.267225 292.250696 
L 421.666625 292.250696 
L 431.066025 292.250696 
L 440.465425 292.250696 
L 449.864825 292.250696 
L 459.264225 243.75459 
L 468.663625 195.258483 
L 478.063025 195.258483 
L 487.462425 195.258483 
L 496.861825 195.258483 
L 506.261225 195.258483 
L 515.660625 195.258483 
L 525.060025 195.258483 
L 534.459425 195.258483 
L 543.858825 195.258483 
L 553.258225 195.258483 
L 562.657625 195.258483 
L 572.057025 149.078994 
L 581.456425 102.899505 
L 590.855825 102.899505 
L 600.255225 102.899505 
L 609.654625 102.899505 
L 619.054025 102.899505 
L 628.453425 102.899505 
L 637.852825 102.899505 
L 647.252225 102.899505 
L 656.651625 102.899505 
L 666.051025 102.899505 
L 675.450425 102.899505 
L 684.849825 102.899505 
L 694.249225 198.132404 
L 703.648625 293.365303 
L 713.048025 293.365303 
L 722.447425 293.365303 
L 731.846825 293.365303 
L 741.246225 293.365303 
L 750.645625 293.365303 
L 760.045025 293.365303 
L 769.444425 293.365303 
L 778.843825 293.365303 
L 788.243225 293.365303 
L 797.642625 293.365303 
L 807.042025 293.480481 
L 816.441425 293.59566 
L 825.840825 293.59566 
L 835.240225 293.59566 
L 844.639625 293.59566 
L 854.039025 293.59566 
L 863.438425 293.59566 
L 872.837825 293.59566 
L 882.237225 293.59566 
L 891.636625 293.59566 
L 901.036025 293.59566 
L 910.435425 293.59566 
L 919.834825 293.59566 
L 929.234225 293.59566 
L 938.633625 293.59566 
L 948.033025 293.59566 
L 957.432425 293.59566 
L 966.831825 293.59566 
L 976.231225 293.59566 
L 985.630625 293.59566 
" style="fill:none;stroke:#d9534f;stroke-linecap:square;"/>
   </g>
   <g id="line2d_13">
    <path clip-path="url(#pf5b5559491)" d="M 45.690625 293.59566 
L 55.090025 293.59566 
L 64.489425 293.59566 
L 73.888825 293.59566 
L 83.288225 293.59566 
L 92.687625 293.59566 
L 102.087025 293.59566 
L 111.486425 293.59566 
L 120.885825 293.59566 
L 130.285225 293.59566 
L 139.684625 293.59566 
L 149.084025 293.59566 
L 158.483425 293.59566 
L 167.882825 293.59566 
L 177.282225 293.59566 
L 186.681625 293.59566 
L 196.081025 293.59566 
L 205.480425 293.59566 
L 214.879825 293.59566 
L 224.279225 292.070131 
L 233.678625 290.544602 
L 243.078025 290.544602 
L 252.477425 290.544602 
L 261.876825 290.544602 
L 271.276225 290.544602 
L 280.675625 290.544602 
L 290.075025 290.544602 
L 299.474425 290.544602 
L 308.873825 290.544602 
L 318.273225 290.544602 
L 327.672625 290.544602 
L 337.072025 192.537493 
L 346.471425 94.530383 
L 355.870825 94.530383 
L 365.270225 94.530383 
L 374.669625 94.530383 
L 384.069025 94.530383 
L 393.468425 94.530383 
L 402.867825 94.530383 
L 412.267225 94.530383 
L 421.666625 94.530383 
L 431.066025 94.530383 
L 440.465425 94.530383 
L 449.864825 94.530383 
L 459.264225 191.238014 
L 468.663625 287.945646 
L 478.063025 287.945646 
L 487.462425 287.945646 
L 496.861825 287.945646 
L 506.261225 287.945646 
L 515.660625 287.945646 
L 525.060025 287.945646 
L 534.459425 287.945646 
L 543.858825 287.945646 
L 553.258225 287.945646 
L 562.657625 287.945646 
L 572.057025 186.575538 
L 581.456425 85.205431 
L 590.855825 85.205431 
L 600.255225 85.205431 
L 609.654625 85.205431 
L 619.054025 85.205431 
L 628.453425 85.205431 
L 637.852825 85.205431 
L 647.252225 85.205431 
L 656.651625 85.205431 
L 666.051025 85.205431 
L 675.450425 85.205431 
L 684.849825 85.205431 
L 694.249225 189.231715 
L 703.648625 293.258 
L 713.048025 293.258 
L 722.447425 293.258 
L 731.846825 293.258 
L 741.246225 293.258 
L 750.645625 293.258 
L 760.045025 293.258 
L 769.444425 293.258 
L 778.843825 293.258 
L 788.243225 293.258 
L 797.642625 293.258 
L 807.042025 293.42683 
L 816.441425 293.59566 
L 825.840825 293.59566 
L 835.240225 293.59566 
L 844.639625 293.59566 
L 854.039025 293.59566 
L 863.438425 293.59566 
L 872.837825 293.59566 
L 882.237225 293.59566 
L 891.636625 293.59566 
L 901.036025 293.59566 
L 910.435425 293.59566 
L 919.834825 293.59566 
L 929.234225 293.59566 
L 938.633625 293.59566 
L 948.033025 293.59566 
L 957.432425 293.59566 
L 966.831825 293.59566 
L 976.231225 293.59566 
L 985.630625 293.59566 
" style="fill:none;stroke:#d9534f;stroke-linecap:square;"/>
   </g>
   <g id="line2d_14">
    <path clip-path="url(#pf5b5559491)" d="M 45.690625 293.59566 
L 55.090025 293.59566 
L 64.489425 293.59566 
L 73.888825 293.59566 
L 83.288225 293.59566 
L 92.687625 293.59566 
L 102.087025 292.99716 
L 111.486425 292.398659 
L 120.885825 292.398659 
L 130.285225 292.398659 
L 139.684625 292.398659 
L 149.084025 292.398659 
L 158.483425 292.398659 
L 167.882825 292.398659 
L 177.282225 292.398659 
L 186.681625 292.398659 
L 196.081025 292.398659 
L 205.480425 292.398659 
L 214.879825 292.398659 
L 224.279225 237.669609 
L 233.678625 182.940559 
L 243.078025 182.940559 
L 252.477425 182.940559 
L 261.876825 182.940559 
L 271.276225 182.940559 
L 280.675625 182.940559 
L 290.075025 182.940559 
L 299.474425 182.940559 
L 308.873825 182.940559 
L 318.273225 182.940559 
L 327.672625 182.940559 
L 337.072025 186.923585 
L 346.471425 190.906611 
L 355.870825 190.906611 
L 365.270225 190.906611 
L 374.669625 190.906611 
L 384.069025 190.906611 
L 393.468425 190.906611 
L 402.867825 190.906611 
L 412.267225 190.906611 
L 421.666625 190.906611 
L 431.066025 190.906611 
L 440.465425 190.906611 
L 449.864825 190.906611 
L 459.264225 241.005249 
L 468.663625 291.103887 
L 478.063025 291.103887 
L 487.462425 291.103887 
L 496.861825 291.103887 
L 506.261225 291.103887 
L 515.660625 291.103887 
L 525.060025 291.103887 
L 534.459425 291.103887 
L 543.858825 291.103887 
L 553.258225 291.103887 
L 562.657625 291.103887 
L 572.057025 240.242801 
L 581.456425 189.381716 
L 590.855825 189.381716 
L 600.255225 189.381716 
L 609.654625 189.381716 
L 619.054025 189.381716 
L 628.453425 189.381716 
L 637.852825 189.381716 
L 647.252225 189.381716 
L 656.651625 189.381716 
L 666.051025 189.381716 
L 675.450425 189.381716 
L 684.849825 189.381716 
L 694.249225 184.758053 
L 703.648625 180.134391 
L 713.048025 180.134391 
L 722.447425 180.134391 
L 731.846825 180.134391 
L 741.246225 180.134391 
L 750.645625 180.134391 
L 760.045025 180.134391 
L 769.444425 180.134391 
L 778.843825 180.134391 
L 788.243225 180.134391 
L 797.642625 180.134391 
L 807.042025 236.808493 
L 816.441425 293.482595 
L 825.840825 293.482595 
L 835.240225 293.482595 
L 844.639625 293.482595 
L 854.039025 293.482595 
L 863.438425 293.482595 
L 872.837825 293.482595 
L 882.237225 293.482595 
L 891.636625 293.482595 
L 901.036025 293.482595 
L 910.435425 293.482595 
L 919.834825 293.482595 
L 929.234225 293.539127 
L 938.633625 293.59566 
L 948.033025 293.59566 
L 957.432425 293.59566 
L 966.831825 293.59566 
L 976.231225 293.59566 
L 985.630625 293.59566 
" style="fill:none;stroke:#d9534f;stroke-linecap:square;"/>
   </g>
   <g id="line2d_15">
    <path clip-path="url(#pf5b5559491)" d="M 45.690625 293.59566 
L 55.090025 293.59566 
L 64.489425 293.59566 
L 73.888825 293.59566 
L 83.288225 293.59566 
L 92.687625 293.59566 
L 102.087025 292.820042 
L 111.486425 292.044424 
L 120.885825 292.044424 
L 130.285225 292.044424 
L 139.684625 292.044424 
L 149.084025 292.044424 
L 158.483425 292.044424 
L 167.882825 292.044424 
L 177.282225 292.044424 
L 186.681625 292.044424 
L 196.081025 292.044424 
L 205.480425 292.044424 
L 214.879825 292.044424 
L 224.279225 247.13938 
L 233.678625 202.234336 
L 243.078025 202.234336 
L 252.477425 202.234336 
L 261.876825 202.234336 
L 271.276225 202.234336 
L 280.675625 202.234336 
L 290.075025 202.234336 
L 299.474425 202.234336 
L 308.873825 202.234336 
L 318.273225 202.234336 
L 327.672625 202.234336 
L 337.072025 246.993679 
L 346.471425 291.753022 
L 355.870825 291.753022 
L 365.270225 291.753022 
L 374.669625 291.753022 
L 384.069025 291.753022 
L 393.468425 291.753022 
L 402.867825 291.753022 
L 412.267225 291.753022 
L 421.666625 291.753022 
L 431.066025 291.753022 
L 440.465425 291.753022 
L 449.864825 291.753022 
L 459.264225 246.682353 
L 468.663625 201.611685 
L 478.063025 201.611685 
L 487.462425 201.611685 
L 496.861825 201.611685 
L 506.261225 201.611685 
L 515.660625 201.611685 
L 525.060025 201.611685 
L 534.459425 201.611685 
L 543.858825 201.611685 
L 553.258225 201.611685 
L 562.657625 201.611685 
L 572.057025 123.232625 
L 581.456425 44.853565 
L 590.855825 44.853565 
L 600.255225 44.853565 
L 609.654625 44.853565 
L 619.054025 44.853565 
L 628.453425 44.853565 
L 637.852825 44.853565 
L 647.252225 44.853565 
L 656.651625 44.853565 
L 666.051025 44.853565 
L 675.450425 44.853565 
L 684.849825 44.853565 
L 694.249225 168.980633 
L 703.648625 293.107701 
L 713.048025 293.107701 
L 722.447425 293.107701 
L 731.846825 293.107701 
L 741.246225 293.107701 
L 750.645625 293.107701 
L 760.045025 293.107701 
L 769.444425 293.107701 
L 778.843825 293.107701 
L 788.243225 293.107701 
L 797.642625 293.107701 
L 807.042025 293.351681 
L 816.441425 293.59566 
L 825.840825 293.59566 
L 835.240225 293.59566 
L 844.639625 293.59566 
L 854.039025 293.59566 
L 863.438425 293.59566 
L 872.837825 293.59566 
L 882.237225 293.59566 
L 891.636625 293.59566 
L 901.036025 293.59566 
L 910.435425 293.59566 
L 919.834825 293.59566 
L 929.234225 293.59566 
L 938.633625 293.59566 
L 948.033025 293.59566 
L 957.432425 293.59566 
L 966.831825 293.59566 
L 976.231225 293.59566 
L 985.630625 293.59566 
" style="fill:none;stroke:#d9534f;stroke-linecap:square;"/>
   </g>
   <g id="line2d_16">
    <path clip-path="url(#pf5b5559491)" d="M 45.690625 293.59566 
L 55.090025 293.59566 
L 64.489425 293.59566 
L 73.888825 293.59566 
L 83.288225 293.59566 
L 92.687625 293.59566 
L 102.087025 293.59566 
L 111.486425 293.59566 
L 120.885825 293.59566 
L 130.285225 293.59566 
L 139.684625 293.59566 
L 149.084025 293.59566 
L 158.483425 293.59566 
L 167.882825 293.59566 
L 177.282225 293.59566 
L 186.681625 293.59566 
L 196.081025 293.59566 
L 205.480425 293.59566 
L 214.879825 293.59566 
L 224.279225 292.469531 
L 233.678625 291.343402 
L 243.078025 291.343402 
L 252.477425 291.343402 
L 261.876825 291.343402 
L 271.276225 291.343402 
L 280.675625 291.343402 
L 290.075025 291.343402 
L 299.474425 291.343402 
L 308.873825 291.343402 
L 318.273225 291.343402 
L 327.672625 291.343402 
L 337.072025 204.198669 
L 346.471425 117.053937 
L 355.870825 117.053937 
L 365.270225 117.053937 
L 374.669625 117.053937 
L 384.069025 117.053937 
L 393.468425 117.053937 
L 402.867825 117.053937 
L 412.267225 117.053937 
L 421.666625 117.053937 
L 431.066025 117.053937 
L 440.465425 117.053937 
L 449.864825 117.053937 
L 459.264225 152.457454 
L 468.663625 187.86097 
L 478.063025 187.86097 
L 487.462425 187.86097 
L 496.861825 187.86097 
L 506.261225 187.86097 
L 515.660625 187.86097 
L 525.060025 187.86097 
L 534.459425 187.86097 
L 543.858825 187.86097 
L 553.258225 187.86097 
L 562.657625 187.86097 
L 572.057025 239.300004 
L 581.456425 290.739039 
L 590.855825 290.739039 
L 600.255225 290.739039 
L 609.654625 290.739039 
L 619.054025 290.739039 
L 628.453425 290.739039 
L 637.852825 290.739039 
L 647.252225 290.739039 
L 656.651625 290.739039 
L 666.051025 290.739039 
L 675.450425 290.739039 
L 684.849825 290.739039 
L 694.249225 218.624367 
L 703.648625 146.509694 
L 713.048025 146.509694 
L 722.447425 146.509694 
L 731.846825 146.509694 
L 741.246225 146.509694 
L 750.645625 146.509694 
L 760.045025 146.509694 
L 769.444425 146.509694 
L 778.843825 146.509694 
L 788.243225 146.509694 
L 797.642625 146.509694 
L 807.042025 219.970754 
L 816.441425 293.431814 
L 825.840825 293.431814 
L 835.240225 293.431814 
L 844.639625 293.431814 
L 854.039025 293.431814 
L 863.438425 293.431814 
L 872.837825 293.431814 
L 882.237225 293.431814 
L 891.636625 293.431814 
L 901.036025 293.431814 
L 910.435425 293.431814 
L 919.834825 293.431814 
L 929.234225 293.513737 
L 938.633625 293.59566 
L 948.033025 293.59566 
L 957.432425 293.59566 
L 966.831825 293.59566 
L 976.231225 293.59566 
L 985.630625 293.59566 
" style="fill:none;stroke:#d9534f;stroke-linecap:square;"/>
   </g>
   <g id="line2d_17">
    <path clip-path="url(#pf5b5559491)" d="M 45.690625 293.59566 
L 55.090025 293.59566 
L 64.489425 293.59566 
L 73.888825 293.59566 
L 83.288225 293.59566 
L 92.687625 293.59566 
L 102.087025 293.312288 
L 111.486425 293.028917 
L 120.885825 293.028917 
L 130.285225 293.028917 
L 139.684625 293.028917 
L 149.084025 293.028917 
L 158.483425 293.028917 
L 167.882825 293.028917 
L 177.282225 293.028917 
L 186.681625 293.028917 
L 196.081025 293.028917 
L 205.480425 293.028917 
L 214.879825 293.028917 
L 224.279225 269.679673 
L 233.678625 246.33043 
L 243.078025 246.33043 
L 252.477425 246.33043 
L 261.876825 246.33043 
L 271.276225 246.33043 
L 280.675625 246.33043 
L 290.075025 246.33043 
L 299.474425 246.33043 
L 308.873825 246.33043 
L 318.273225 246.33043 
L 327.672625 246.33043 
L 337.072025 236.503918 
L 346.471425 226.677406 
L 355.870825 226.677406 
L 365.270225 226.677406 
L 374.669625 226.677406 
L 384.069025 226.677406 
L 393.468425 226.677406 
L 402.867825 226.677406 
L 412.267225 226.677406 
L 421.666625 226.677406 
L 431.066025 226.677406 
L 440.465425 226.677406 
L 449.864825 226.677406 
L 459.264225 259.318817 
L 468.663625 291.960228 
L 478.063025 291.960228 
L 487.462425 291.960228 
L 496.861825 291.960228 
L 506.261225 291.960228 
L 515.660625 291.960228 
L 525.060025 291.960228 
L 534.459425 291.960228 
L 543.858825 291.960228 
L 553.258225 291.960228 
L 562.657625 291.960228 
L 572.057025 256.583446 
L 581.456425 221.206664 
L 590.855825 221.206664 
L 600.255225 221.206664 
L 609.654625 221.206664 
L 619.054025 221.206664 
L 628.453425 221.206664 
L 637.852825 221.206664 
L 647.252225 221.206664 
L 656.651625 221.206664 
L 666.051025 221.206664 
L 675.450425 221.206664 
L 684.849825 221.206664 
L 694.249225 208.067064 
L 703.648625 194.927464 
L 713.048025 194.927464 
L 722.447425 194.927464 
L 731.846825 194.927464 
L 741.246225 194.927464 
L 750.645625 194.927464 
L 760.045025 194.927464 
L 769.444425 194.927464 
L 778.843825 194.927464 
L 788.243225 194.927464 
L 797.642625 194.927464 
L 807.042025 244.249764 
L 816.441425 293.572063 
L 825.840825 293.572063 
L 835.240225 293.572063 
L 844.639625 293.572063 
L 854.039025 293.572063 
L 863.438425 293.572063 
L 872.837825 293.572063 
L 882.237225 293.572063 
L 891.636625 293.572063 
L 901.036025 293.572063 
L 910.435425 293.572063 
L 919.834825 293.572063 
L 929.234225 293.583861 
L 938.633625 293.59566 
L 948.033025 293.59566 
L 957.432425 293.59566 
L 966.831825 293.59566 
L 976.231225 293.59566 
L 985.630625 293.59566 
" style="fill:none;stroke:#d9534f;stroke-linecap:square;"/>
   </g>
   <g id="line2d_18">
    <path clip-path="url(#pf5b5559491)" d="M 45.690625 293.59566 
L 55.090025 293.59566 
L 64.489425 293.59566 
L 73.888825 293.59566 
L 83.288225 293.59566 
L 92.687625 293.59566 
L 102.087025 292.519719 
L 111.486425 291.443778 
L 120.885825 291.443778 
L 130.285225 291.443778 
L 139.684625 291.443778 
L 149.084025 291.443778 
L 158.483425 291.443778 
L 167.882825 291.443778 
L 177.282225 291.443778 
L 186.681625 291.443778 
L 196.081025 291.443778 
L 205.480425 291.443778 
L 214.879825 291.443778 
L 224.279225 255.881905 
L 233.678625 220.320032 
L 243.078025 220.320032 
L 252.477425 220.320032 
L 261.876825 220.320032 
L 271.276225 220.320032 
L 280.675625 220.320032 
L 290.075025 220.320032 
L 299.474425 220.320032 
L 308.873825 220.320032 
L 318.273225 220.320032 
L 327.672625 220.320032 
L 337.072025 219.960116 
L 346.471425 219.6002 
L 355.870825 219.6002 
L 365.270225 219.6002 
L 374.669625 219.6002 
L 384.069025 219.6002 
L 393.468425 219.6002 
L 402.867825 219.6002 
L 412.267225 219.6002 
L 421.666625 219.6002 
L 431.066025 219.6002 
L 440.465425 219.6002 
L 449.864825 219.6002 
L 459.264225 253.093676 
L 468.663625 286.587153 
L 478.063025 286.587153 
L 487.462425 286.587153 
L 496.861825 286.587153 
L 506.261225 286.587153 
L 515.660625 286.587153 
L 525.060025 286.587153 
L 534.459425 286.587153 
L 543.858825 286.587153 
L 553.258225 286.587153 
L 562.657625 286.587153 
L 572.057025 227.310354 
L 581.456425 168.033556 
L 590.855825 168.033556 
L 600.255225 168.033556 
L 609.654625 168.033556 
L 619.054025 168.033556 
L 628.453425 168.033556 
L 637.852825 168.033556 
L 647.252225 168.033556 
L 656.651625 168.033556 
L 666.051025 168.033556 
L 675.450425 168.033556 
L 684.849825 168.033556 
L 694.249225 188.514025 
L 703.648625 208.994495 
L 713.048025 208.994495 
L 722.447425 208.994495 
L 731.846825 208.994495 
L 741.246225 208.994495 
L 750.645625 208.994495 
L 760.045025 208.994495 
L 769.444425 208.994495 
L 778.843825 208.994495 
L 788.243225 208.994495 
L 797.642625 208.994495 
L 807.042025 250.885347 
L 816.441425 292.776199 
L 825.840825 292.776199 
L 835.240225 292.776199 
L 844.639625 292.776199 
L 854.039025 292.776199 
L 863.438425 292.776199 
L 872.837825 292.776199 
L 882.237225 292.776199 
L 891.636625 292.776199 
L 901.036025 292.776199 
L 910.435425 292.776199 
L 919.834825 292.776199 
L 929.234225 293.185929 
L 938.633625 293.59566 
L 948.033025 293.59566 
L 957.432425 293.59566 
L 966.831825 293.59566 
L 976.231225 293.59566 
L 985.630625 293.59566 
" style="fill:none;stroke:#d9534f;stroke-linecap:square;"/>
   </g>
   <g id="line2d_19">
    <path clip-path="url(#pf5b5559491)" d="M 45.690625 293.59566 
L 55.090025 293.59566 
L 64.489425 293.59566 
L 73.888825 293.59566 
L 83.288225 293.59566 
L 92.687625 293.59566 
L 102.087025 293.59566 
L 111.486425 293.59566 
L 120.885825 293.59566 
L 130.285225 293.59566 
L 139.684625 293.59566 
L 149.084025 293.59566 
L 158.483425 293.59566 
L 167.882825 293.59566 
L 177.282225 293.59566 
L 186.681625 293.59566 
L 196.081025 293.59566 
L 205.480425 293.59566 
L 214.879825 293.59566 
L 224.279225 292.744076 
L 233.678625 291.892492 
L 243.078025 291.892492 
L 252.477425 291.892492 
L 261.876825 291.892492 
L 271.276225 291.892492 
L 280.675625 291.892492 
L 290.075025 291.892492 
L 299.474425 291.892492 
L 308.873825 291.892492 
L 318.273225 291.892492 
L 327.672625 291.892492 
L 337.072025 240.784252 
L 346.471425 189.676012 
L 355.870825 189.676012 
L 365.270225 189.676012 
L 374.669625 189.676012 
L 384.069025 189.676012 
L 393.468425 189.676012 
L 402.867825 189.676012 
L 412.267225 189.676012 
L 421.666625 189.676012 
L 431.066025 189.676012 
L 440.465425 189.676012 
L 449.864825 189.676012 
L 459.264225 141.94683 
L 468.663625 94.217649 
L 478.063025 94.217649 
L 487.462425 94.217649 
L 496.861825 94.217649 
L 506.261225 94.217649 
L 515.660625 94.217649 
L 525.060025 94.217649 
L 534.459425 94.217649 
L 543.858825 94.217649 
L 553.258225 94.217649 
L 562.657625 94.217649 
L 572.057025 136.284956 
L 581.456425 178.352264 
L 590.855825 178.352264 
L 600.255225 178.352264 
L 609.654625 178.352264 
L 619.054025 178.352264 
L 628.453425 178.352264 
L 637.852825 178.352264 
L 647.252225 178.352264 
L 656.651625 178.352264 
L 666.051025 178.352264 
L 675.450425 178.352264 
L 684.849825 178.352264 
L 694.249225 235.7598 
L 703.648625 293.167336 
L 713.048025 293.167336 
L 722.447425 293.167336 
L 731.846825 293.167336 
L 741.246225 293.167336 
L 750.645625 293.167336 
L 760.045025 293.167336 
L 769.444425 293.167336 
L 778.843825 293.167336 
L 788.243225 293.167336 
L 797.642625 293.167336 
L 807.042025 293.381498 
L 816.441425 293.59566 
L 825.840825 293.59566 
L 835.240225 293.59566 
L 844.639625 293.59566 
L 854.039025 293.59566 
L 863.438425 293.59566 
L 872.837825 293.59566 
L 882.237225 293.59566 
L 891.636625 293.59566 
L 901.036025 293.59566 
L 910.435425 293.59566 
L 919.834825 293.59566 
L 929.234225 293.59566 
L 938.633625 293.59566 
L 948.033025 293.59566 
L 957.432425 293.59566 
L 966.831825 293.59566 
L 976.231225 293.59566 
L 985.630625 293.59566 
" style="fill:none;stroke:#f0ad4e;stroke-linecap:square;"/>
   </g>
   <g id="line2d_20">
    <path clip-path="url(#pf5b5559491)" d="M 45.690625 293.59566 
L 55.090025 293.59566 
L 64.489425 293.59566 
L 73.888825 293.59566 
L 83.288225 293.59566 
L 92.687625 293.59566 
L 102.087025 292.774915 
L 111.486425 291.954169 
L 120.885825 291.954169 
L 130.285225 291.954169 
L 139.684625 291.954169 
L 149.084025 291.954169 
L 158.483425 291.954169 
L 167.882825 291.954169 
L 177.282225 291.954169 
L 186.681625 291.954169 
L 196.081025 291.954169 
L 205.480425 291.954169 
L 214.879825 291.954169 
L 224.279225 239.308123 
L 233.678625 186.662076 
L 243.078025 186.662076 
L 252.477425 186.662076 
L 261.876825 186.662076 
L 271.276225 186.662076 
L 280.675625 186.662076 
L 290.075025 186.662076 
L 299.474425 186.662076 
L 308.873825 186.662076 
L 318.273225 186.662076 
L 327.672625 186.662076 
L 337.072025 204.541846 
L 346.471425 222.421616 
L 355.870825 222.421616 
L 365.270225 222.421616 
L 374.669625 222.421616 
L 384.069025 222.421616 
L 393.468425 222.421616 
L 402.867825 222.421616 
L 412.267225 222.421616 
L 421.666625 222.421616 
L 431.066025 222.421616 
L 440.465425 222.421616 
L 449.864825 222.421616 
L 459.264225 256.924114 
L 468.663625 291.426613 
L 478.063025 291.426613 
L 487.462425 291.426613 
L 496.861825 291.426613 
L 506.261225 291.426613 
L 515.660625 291.426613 
L 525.060025 291.426613 
L 534.459425 291.426613 
L 543.858825 291.426613 
L 553.258225 291.426613 
L 562.657625 291.426613 
L 572.057025 243.018299 
L 581.456425 194.609985 
L 590.855825 194.609985 
L 600.255225 194.609985 
L 609.654625 194.609985 
L 619.054025 194.609985 
L 628.453425 194.609985 
L 637.852825 194.609985 
L 647.252225 194.609985 
L 656.651625 194.609985 
L 666.051025 194.609985 
L 675.450425 194.609985 
L 684.849825 194.609985 
L 694.249225 167.401652 
L 703.648625 140.19332 
L 713.048025 140.19332 
L 722.447425 140.19332 
L 731.846825 140.19332 
L 741.246225 140.19332 
L 750.645625 140.19332 
L 760.045025 140.19332 
L 769.444425 140.19332 
L 778.843825 140.19332 
L 788.243225 140.19332 
L 797.642625 140.19332 
L 807.042025 216.833006 
L 816.441425 293.472693 
L 825.840825 293.472693 
L 835.240225 293.472693 
L 844.639625 293.472693 
L 854.039025 293.472693 
L 863.438425 293.472693 
L 872.837825 293.472693 
L 882.237225 293.472693 
L 891.636625 293.472693 
L 901.036025 293.472693 
L 910.435425 293.472693 
L 919.834825 293.472693 
L 929.234225 293.534176 
L 938.633625 293.59566 
L 948.033025 293.59566 
L 957.432425 293.59566 
L 966.831825 293.59566 
L 976.231225 293.59566 
L 985.630625 293.59566 
" style="fill:none;stroke:#d9534f;stroke-linecap:square;"/>
   </g>
   <g id="line2d_21">
    <path clip-path="url(#pf5b5559491)" d="M 45.690625 293.59566 
L 985.630625 293.59566 
" style="fill:none;stroke:#dedede;stroke-linecap:square;stroke-width:2;"/>
   </g>
   <g id="text_18">
    <!-- FastQC: Per Sequence GC Content -->
    <defs>
     <path d="M 9.8125 72.90625 
L 51.703125 72.90625 
L 51.703125 64.59375 
L 19.671875 64.59375 
L 19.671875 43.109375 
L 48.578125 43.109375 
L 48.578125 34.8125 
L 19.671875 34.8125 
L 19.671875 0 
L 9.8125 0 
z
" id="DejaVuSans-46"/>
     <path d="M 34.28125 27.484375 
Q 23.390625 27.484375 19.1875 25 
Q 14.984375 22.515625 14.984375 16.5 
Q 14.984375 11.71875 18.140625 8.90625 
Q 21.296875 6.109375 26.703125 6.109375 
Q 34.1875 6.109375 38.703125 11.40625 
Q 43.21875 16.703125 43.21875 25.484375 
L 43.21875 27.484375 
z
M 52.203125 31.203125 
L 52.203125 0 
L 43.21875 0 
L 43.21875 8.296875 
Q 40.140625 3.328125 35.546875 0.953125 
Q 30.953125 -1.421875 24.3125 -1.421875 
Q 15.921875 -1.421875 10.953125 3.296875 
Q 6 8.015625 6 15.921875 
Q 6 25.140625 12.171875 29.828125 
Q 18.359375 34.515625 30.609375 34.515625 
L 43.21875 34.515625 
L 43.21875 35.40625 
Q 43.21875 41.609375 39.140625 45 
Q 35.0625 48.390625 27.6875 48.390625 
Q 23 48.390625 18.546875 47.265625 
Q 14.109375 46.140625 10.015625 43.890625 
L 10.015625 52.203125 
Q 14.9375 54.109375 19.578125 55.046875 
Q 24.21875 56 28.609375 56 
Q 40.484375 56 46.34375 49.84375 
Q 52.203125 43.703125 52.203125 31.203125 
z
" id="DejaVuSans-61"/>
     <path d="M 44.28125 53.078125 
L 44.28125 44.578125 
Q 40.484375 46.53125 36.375 47.5 
Q 32.28125 48.484375 27.875 48.484375 
Q 21.1875 48.484375 17.84375 46.4375 
Q 14.5 44.390625 14.5 40.28125 
Q 14.5 37.15625 16.890625 35.375 
Q 19.28125 33.59375 26.515625 31.984375 
L 29.59375 31.296875 
Q 39.15625 29.25 43.1875 25.515625 
Q 47.21875 21.78125 47.21875 15.09375 
Q 47.21875 7.46875 41.1875 3.015625 
Q 35.15625 -1.421875 24.609375 -1.421875 
Q 20.21875 -1.421875 15.453125 -0.5625 
Q 10.6875 0.296875 5.421875 2 
L 5.421875 11.28125 
Q 10.40625 8.6875 15.234375 7.390625 
Q 20.0625 6.109375 24.8125 6.109375 
Q 31.15625 6.109375 34.5625 8.28125 
Q 37.984375 10.453125 37.984375 14.40625 
Q 37.984375 18.0625 35.515625 20.015625 
Q 33.0625 21.96875 24.703125 23.78125 
L 21.578125 24.515625 
Q 13.234375 26.265625 9.515625 29.90625 
Q 5.8125 33.546875 5.8125 39.890625 
Q 5.8125 47.609375 11.28125 51.796875 
Q 16.75 56 26.8125 56 
Q 31.78125 56 36.171875 55.265625 
Q 40.578125 54.546875 44.28125 53.078125 
z
" id="DejaVuSans-73"/>
     <path d="M 39.40625 66.21875 
Q 28.65625 66.21875 22.328125 58.203125 
Q 16.015625 50.203125 16.015625 36.375 
Q 16.015625 22.609375 22.328125 14.59375 
Q 28.65625 6.59375 39.40625 6.59375 
Q 50.140625 6.59375 56.421875 14.59375 
Q 62.703125 22.609375 62.703125 36.375 
Q 62.703125 50.203125 56.421875 58.203125 
Q 50.140625 66.21875 39.40625 66.21875 
z
M 53.21875 1.3125 
L 66.21875 -12.890625 
L 54.296875 -12.890625 
L 43.5 -1.21875 
Q 41.890625 -1.3125 41.03125 -1.359375 
Q 40.1875 -1.421875 39.40625 -1.421875 
Q 24.03125 -1.421875 14.8125 8.859375 
Q 5.609375 19.140625 5.609375 36.375 
Q 5.609375 53.65625 14.8125 63.9375 
Q 24.03125 74.21875 39.40625 74.21875 
Q 54.734375 74.21875 63.90625 63.9375 
Q 73.09375 53.65625 73.09375 36.375 
Q 73.09375 23.6875 67.984375 14.640625 
Q 62.890625 5.609375 53.21875 1.3125 
z
" id="DejaVuSans-51"/>
     <path d="M 11.71875 12.40625 
L 22.015625 12.40625 
L 22.015625 0 
L 11.71875 0 
z
M 11.71875 51.703125 
L 22.015625 51.703125 
L 22.015625 39.3125 
L 11.71875 39.3125 
z
" id="DejaVuSans-3a"/>
     <path d="M 19.671875 64.796875 
L 19.671875 37.40625 
L 32.078125 37.40625 
Q 38.96875 37.40625 42.71875 40.96875 
Q 46.484375 44.53125 46.484375 51.125 
Q 46.484375 57.671875 42.71875 61.234375 
Q 38.96875 64.796875 32.078125 64.796875 
z
M 9.8125 72.90625 
L 32.078125 72.90625 
Q 44.34375 72.90625 50.609375 67.359375 
Q 56.890625 61.8125 56.890625 51.125 
Q 56.890625 40.328125 50.609375 34.8125 
Q 44.34375 29.296875 32.078125 29.296875 
L 19.671875 29.296875 
L 19.671875 0 
L 9.8125 0 
z
" id="DejaVuSans-50"/>
     <path d="M 41.109375 46.296875 
Q 39.59375 47.171875 37.8125 47.578125 
Q 36.03125 48 33.890625 48 
Q 26.265625 48 22.1875 43.046875 
Q 18.109375 38.09375 18.109375 28.8125 
L 18.109375 0 
L 9.078125 0 
L 9.078125 54.6875 
L 18.109375 54.6875 
L 18.109375 46.1875 
Q 20.953125 51.171875 25.484375 53.578125 
Q 30.03125 56 36.53125 56 
Q 37.453125 56 38.578125 55.875 
Q 39.703125 55.765625 41.0625 55.515625 
z
" id="DejaVuSans-72"/>
     <path d="M 53.515625 70.515625 
L 53.515625 60.890625 
Q 47.90625 63.578125 42.921875 64.890625 
Q 37.9375 66.21875 33.296875 66.21875 
Q 25.25 66.21875 20.875 63.09375 
Q 16.5 59.96875 16.5 54.203125 
Q 16.5 49.359375 19.40625 46.890625 
Q 22.3125 44.4375 30.421875 42.921875 
L 36.375 41.703125 
Q 47.40625 39.59375 52.65625 34.296875 
Q 57.90625 29 57.90625 20.125 
Q 57.90625 9.515625 50.796875 4.046875 
Q 43.703125 -1.421875 29.984375 -1.421875 
Q 24.8125 -1.421875 18.96875 -0.25 
Q 13.140625 0.921875 6.890625 3.21875 
L 6.890625 13.375 
Q 12.890625 10.015625 18.65625 8.296875 
Q 24.421875 6.59375 29.984375 6.59375 
Q 38.421875 6.59375 43.015625 9.90625 
Q 47.609375 13.234375 47.609375 19.390625 
Q 47.609375 24.75 44.3125 27.78125 
Q 41.015625 30.8125 33.5 32.328125 
L 27.484375 33.5 
Q 16.453125 35.6875 11.515625 40.375 
Q 6.59375 45.0625 6.59375 53.421875 
Q 6.59375 63.09375 13.40625 68.65625 
Q 20.21875 74.21875 32.171875 74.21875 
Q 37.3125 74.21875 42.625 73.28125 
Q 47.953125 72.359375 53.515625 70.515625 
z
" id="DejaVuSans-53"/>
     <path d="M 14.796875 27.296875 
Q 14.796875 17.390625 18.875 11.75 
Q 22.953125 6.109375 30.078125 6.109375 
Q 37.203125 6.109375 41.296875 11.75 
Q 45.40625 17.390625 45.40625 27.296875 
Q 45.40625 37.203125 41.296875 42.84375 
Q 37.203125 48.484375 30.078125 48.484375 
Q 22.953125 48.484375 18.875 42.84375 
Q 14.796875 37.203125 14.796875 27.296875 
z
M 45.40625 8.203125 
Q 42.578125 3.328125 38.25 0.953125 
Q 33.9375 -1.421875 27.875 -1.421875 
Q 17.96875 -1.421875 11.734375 6.484375 
Q 5.515625 14.40625 5.515625 27.296875 
Q 5.515625 40.1875 11.734375 48.09375 
Q 17.96875 56 27.875 56 
Q 33.9375 56 38.25 53.625 
Q 42.578125 51.265625 45.40625 46.390625 
L 45.40625 54.6875 
L 54.390625 54.6875 
L 54.390625 -20.796875 
L 45.40625 -20.796875 
z
" id="DejaVuSans-71"/>
     <path d="M 48.78125 52.59375 
L 48.78125 44.1875 
Q 44.96875 46.296875 41.140625 47.34375 
Q 37.3125 48.390625 33.40625 48.390625 
Q 24.65625 48.390625 19.8125 42.84375 
Q 14.984375 37.3125 14.984375 27.296875 
Q 14.984375 17.28125 19.8125 11.734375 
Q 24.65625 6.203125 33.40625 6.203125 
Q 37.3125 6.203125 41.140625 7.25 
Q 44.96875 8.296875 48.78125 10.40625 
L 48.78125 2.09375 
Q 45.015625 0.34375 40.984375 -0.53125 
Q 36.96875 -1.421875 32.421875 -1.421875 
Q 20.0625 -1.421875 12.78125 6.34375 
Q 5.515625 14.109375 5.515625 27.296875 
Q 5.515625 40.671875 12.859375 48.328125 
Q 20.21875 56 33.015625 56 
Q 37.15625 56 41.109375 55.140625 
Q 45.0625 54.296875 48.78125 52.59375 
z
" id="DejaVuSans-63"/>
    </defs>
    <g transform="translate(378.019375 19.3575)scale(0.16 -0.16)">
     <use xlink:href="#DejaVuSans-46"/>
     <use x="57.378906" xlink:href="#DejaVuSans-61"/>
     <use x="118.658203" xlink:href="#DejaVuSans-73"/>
     <use x="170.757812" xlink:href="#DejaVuSans-74"/>
     <use x="209.966797" xlink:href="#DejaVuSans-51"/>
     <use x="288.677734" xlink:href="#DejaVuSans-43"/>
     <use x="358.501953" xlink:href="#DejaVuSans-3a"/>
     <use x="392.193359" xlink:href="#DejaVuSans-20"/>
     <use x="423.980469" xlink:href="#DejaVuSans-50"/>
     <use x="484.236328" xlink:href="#DejaVuSans-65"/>
     <use x="545.759766" xlink:href="#DejaVuSans-72"/>
     <use x="586.873047" xlink:href="#DejaVuSans-20"/>
     <use x="618.660156" xlink:href="#DejaVuSans-53"/>
     <use x="682.136719" xlink:href="#DejaVuSans-65"/>
     <use x="743.660156" xlink:href="#DejaVuSans-71"/>
     <use x="807.136719" xlink:href="#DejaVuSans-75"/>
     <use x="870.515625" xlink:href="#DejaVuSans-65"/>
     <use x="932.039062" xlink:href="#DejaVuSans-6e"/>
     <use x="995.417969" xlink:href="#DejaVuSans-63"/>
     <use x="1050.398438" xlink:href="#DejaVuSans-65"/>
     <use x="1111.921875" xlink:href="#DejaVuSans-20"/>
     <use x="1143.708984" xlink:href="#DejaVuSans-47"/>
     <use x="1221.199219" xlink:href="#DejaVuSans-43"/>
     <use x="1291.023438" xlink:href="#DejaVuSans-20"/>
     <use x="1322.810547" xlink:href="#DejaVuSans-43"/>
     <use x="1392.634766" xlink:href="#DejaVuSans-6f"/>
     <use x="1453.816406" xlink:href="#DejaVuSans-6e"/>
     <use x="1517.195312" xlink:href="#DejaVuSans-74"/>
     <use x="1556.404297" xlink:href="#DejaVuSans-65"/>
     <use x="1617.927734" xlink:href="#DejaVuSans-6e"/>
     <use x="1681.306641" xlink:href="#DejaVuSans-74"/>
    </g>
   </g>
   <g id="legend_1">
    <g id="line2d_22">
     <path d="M 52.890625 315.168834 
L 68.890625 315.168834 
" style="fill:none;stroke:#d9534f;stroke-linecap:square;"/>
    </g>
    <g id="line2d_23"/>
    <g id="text_19">
     <!-- fastqc | SRR9264343_S0_L001_I1_001 -->
     <defs>
      <path d="M 37.109375 75.984375 
L 37.109375 68.5 
L 28.515625 68.5 
Q 23.6875 68.5 21.796875 66.546875 
Q 19.921875 64.59375 19.921875 59.515625 
L 19.921875 54.6875 
L 34.71875 54.6875 
L 34.71875 47.703125 
L 19.921875 47.703125 
L 19.921875 0 
L 10.890625 0 
L 10.890625 47.703125 
L 2.296875 47.703125 
L 2.296875 54.6875 
L 10.890625 54.6875 
L 10.890625 58.5 
Q 10.890625 67.625 15.140625 71.796875 
Q 19.390625 75.984375 28.609375 75.984375 
z
" id="DejaVuSans-66"/>
      <path d="M 21 76.421875 
L 21 -23.578125 
L 12.703125 -23.578125 
L 12.703125 76.421875 
z
" id="DejaVuSans-7c"/>
      <path d="M 44.390625 34.1875 
Q 47.5625 33.109375 50.5625 29.59375 
Q 53.5625 26.078125 56.59375 19.921875 
L 66.609375 0 
L 56 0 
L 46.6875 18.703125 
Q 43.0625 26.03125 39.671875 28.421875 
Q 36.28125 30.8125 30.421875 30.8125 
L 19.671875 30.8125 
L 19.671875 0 
L 9.8125 0 
L 9.8125 72.90625 
L 32.078125 72.90625 
Q 44.578125 72.90625 50.734375 67.671875 
Q 56.890625 62.453125 56.890625 51.90625 
Q 56.890625 45.015625 53.6875 40.46875 
Q 50.484375 35.9375 44.390625 34.1875 
z
M 19.671875 64.796875 
L 19.671875 38.921875 
L 32.078125 38.921875 
Q 39.203125 38.921875 42.84375 42.21875 
Q 46.484375 45.515625 46.484375 51.90625 
Q 46.484375 58.296875 42.84375 61.546875 
Q 39.203125 64.796875 32.078125 64.796875 
z
" id="DejaVuSans-52"/>
      <path d="M 10.984375 1.515625 
L 10.984375 10.5 
Q 14.703125 8.734375 18.5 7.8125 
Q 22.3125 6.890625 25.984375 6.890625 
Q 35.75 6.890625 40.890625 13.453125 
Q 46.046875 20.015625 46.78125 33.40625 
Q 43.953125 29.203125 39.59375 26.953125 
Q 35.25 24.703125 29.984375 24.703125 
Q 19.046875 24.703125 12.671875 31.3125 
Q 6.296875 37.9375 6.296875 49.421875 
Q 6.296875 60.640625 12.9375 67.421875 
Q 19.578125 74.21875 30.609375 74.21875 
Q 43.265625 74.21875 49.921875 64.515625 
Q 56.59375 54.828125 56.59375 36.375 
Q 56.59375 19.140625 48.40625 8.859375 
Q 40.234375 -1.421875 26.421875 -1.421875 
Q 22.703125 -1.421875 18.890625 -0.6875 
Q 15.09375 0.046875 10.984375 1.515625 
z
M 30.609375 32.421875 
Q 37.25 32.421875 41.125 36.953125 
Q 45.015625 41.5 45.015625 49.421875 
Q 45.015625 57.28125 41.125 61.84375 
Q 37.25 66.40625 30.609375 66.40625 
Q 23.96875 66.40625 20.09375 61.84375 
Q 16.21875 57.28125 16.21875 49.421875 
Q 16.21875 41.5 20.09375 36.953125 
Q 23.96875 32.421875 30.609375 32.421875 
z
" id="DejaVuSans-39"/>
      <path d="M 40.578125 39.3125 
Q 47.65625 37.796875 51.625 33 
Q 55.609375 28.21875 55.609375 21.1875 
Q 55.609375 10.40625 48.1875 4.484375 
Q 40.765625 -1.421875 27.09375 -1.421875 
Q 22.515625 -1.421875 17.65625 -0.515625 
Q 12.796875 0.390625 7.625 2.203125 
L 7.625 11.71875 
Q 11.71875 9.328125 16.59375 8.109375 
Q 21.484375 6.890625 26.8125 6.890625 
Q 36.078125 6.890625 40.9375 10.546875 
Q 45.796875 14.203125 45.796875 21.1875 
Q 45.796875 27.640625 41.28125 31.265625 
Q 36.765625 34.90625 28.71875 34.90625 
L 20.21875 34.90625 
L 20.21875 43.015625 
L 29.109375 43.015625 
Q 36.375 43.015625 40.234375 45.921875 
Q 44.09375 48.828125 44.09375 54.296875 
Q 44.09375 59.90625 40.109375 62.90625 
Q 36.140625 65.921875 28.71875 65.921875 
Q 24.65625 65.921875 20.015625 65.03125 
Q 15.375 64.15625 9.8125 62.3125 
L 9.8125 71.09375 
Q 15.4375 72.65625 20.34375 73.4375 
Q 25.25 74.21875 29.59375 74.21875 
Q 40.828125 74.21875 47.359375 69.109375 
Q 53.90625 64.015625 53.90625 55.328125 
Q 53.90625 49.265625 50.4375 45.09375 
Q 46.96875 40.921875 40.578125 39.3125 
z
" id="DejaVuSans-33"/>
      <path d="M 50.984375 -16.609375 
L 50.984375 -23.578125 
L -0.984375 -23.578125 
L -0.984375 -16.609375 
z
" id="DejaVuSans-5f"/>
      <path d="M 9.8125 72.90625 
L 19.671875 72.90625 
L 19.671875 8.296875 
L 55.171875 8.296875 
L 55.171875 0 
L 9.8125 0 
z
" id="DejaVuSans-4c"/>
      <path d="M 9.8125 72.90625 
L 19.671875 72.90625 
L 19.671875 0 
L 9.8125 0 
z
" id="DejaVuSans-49"/>
     </defs>
     <g transform="translate(75.290625 317.968834)scale(0.08 -0.08)">
      <use xlink:href="#DejaVuSans-66"/>
      <use x="35.205078" xlink:href="#DejaVuSans-61"/>
      <use x="96.484375" xlink:href="#DejaVuSans-73"/>
      <use x="148.583984" xlink:href="#DejaVuSans-74"/>
      <use x="187.792969" xlink:href="#DejaVuSans-71"/>
      <use x="251.269531" xlink:href="#DejaVuSans-63"/>
      <use x="306.25" xlink:href="#DejaVuSans-20"/>
      <use x="338.037109" xlink:href="#DejaVuSans-7c"/>
      <use x="371.728516" xlink:href="#DejaVuSans-20"/>
      <use x="403.515625" xlink:href="#DejaVuSans-53"/>
      <use x="466.992188" xlink:href="#DejaVuSans-52"/>
      <use x="536.474609" xlink:href="#DejaVuSans-52"/>
      <use x="605.957031" xlink:href="#DejaVuSans-39"/>
      <use x="669.580078" xlink:href="#DejaVuSans-32"/>
      <use x="733.203125" xlink:href="#DejaVuSans-36"/>
      <use x="796.826172" xlink:href="#DejaVuSans-34"/>
      <use x="860.449219" xlink:href="#DejaVuSans-33"/>
      <use x="924.072266" xlink:href="#DejaVuSans-34"/>
      <use x="987.695312" xlink:href="#DejaVuSans-33"/>
      <use x="1051.318359" xlink:href="#DejaVuSans-5f"/>
      <use x="1101.318359" xlink:href="#DejaVuSans-53"/>
      <use x="1164.794922" xlink:href="#DejaVuSans-30"/>
      <use x="1228.417969" xlink:href="#DejaVuSans-5f"/>
      <use x="1278.417969" xlink:href="#DejaVuSans-4c"/>
      <use x="1334.130859" xlink:href="#DejaVuSans-30"/>
      <use x="1397.753906" xlink:href="#DejaVuSans-30"/>
      <use x="1461.376953" xlink:href="#DejaVuSans-31"/>
      <use x="1525" xlink:href="#DejaVuSans-5f"/>
      <use x="1575" xlink:href="#DejaVuSans-49"/>
      <use x="1604.492188" xlink:href="#DejaVuSans-31"/>
      <use x="1668.115234" xlink:href="#DejaVuSans-5f"/>
      <use x="1718.115234" xlink:href="#DejaVuSans-30"/>
      <use x="1781.738281" xlink:href="#DejaVuSans-30"/>
      <use x="1845.361328" xlink:href="#DejaVuSans-31"/>
     </g>
    </g>
    <g id="line2d_24">
     <path d="M 52.890625 327.168834 
L 68.890625 327.168834 
" style="fill:none;stroke:#f0ad4e;stroke-linecap:square;"/>
    </g>
    <g id="line2d_25"/>
    <g id="text_20">
     <!-- fastqc | SRR9264344_S0_L001_I1_001 -->
     <g transform="translate(75.290625 329.968834)scale(0.08 -0.08)">
      <use xlink:href="#DejaVuSans-66"/>
      <use x="35.205078" xlink:href="#DejaVuSans-61"/>
      <use x="96.484375" xlink:href="#DejaVuSans-73"/>
      <use x="148.583984" xlink:href="#DejaVuSans-74"/>
      <use x="187.792969" xlink:href="#DejaVuSans-71"/>
      <use x="251.269531" xlink:href="#DejaVuSans-63"/>
      <use x="306.25" xlink:href="#DejaVuSans-20"/>
      <use x="338.037109" xlink:href="#DejaVuSans-7c"/>
      <use x="371.728516" xlink:href="#DejaVuSans-20"/>
      <use x="403.515625" xlink:href="#DejaVuSans-53"/>
      <use x="466.992188" xlink:href="#DejaVuSans-52"/>
      <use x="536.474609" xlink:href="#DejaVuSans-52"/>
      <use x="605.957031" xlink:href="#DejaVuSans-39"/>
      <use x="669.580078" xlink:href="#DejaVuSans-32"/>
      <use x="733.203125" xlink:href="#DejaVuSans-36"/>
      <use x="796.826172" xlink:href="#DejaVuSans-34"/>
      <use x="860.449219" xlink:href="#DejaVuSans-33"/>
      <use x="924.072266" xlink:href="#DejaVuSans-34"/>
      <use x="987.695312" xlink:href="#DejaVuSans-34"/>
      <use x="1051.318359" xlink:href="#DejaVuSans-5f"/>
      <use x="1101.318359" xlink:href="#DejaVuSans-53"/>
      <use x="1164.794922" xlink:href="#DejaVuSans-30"/>
      <use x="1228.417969" xlink:href="#DejaVuSans-5f"/>
      <use x="1278.417969" xlink:href="#DejaVuSans-4c"/>
      <use x="1334.130859" xlink:href="#DejaVuSans-30"/>
      <use x="1397.753906" xlink:href="#DejaVuSans-30"/>
      <use x="1461.376953" xlink:href="#DejaVuSans-31"/>
      <use x="1525" xlink:href="#DejaVuSans-5f"/>
      <use x="1575" xlink:href="#DejaVuSans-49"/>
      <use x="1604.492188" xlink:href="#DejaVuSans-31"/>
      <use x="1668.115234" xlink:href="#DejaVuSans-5f"/>
      <use x="1718.115234" xlink:href="#DejaVuSans-30"/>
      <use x="1781.738281" xlink:href="#DejaVuSans-30"/>
      <use x="1845.361328" xlink:href="#DejaVuSans-31"/>
     </g>
    </g>
    <g id="line2d_26">
     <path d="M 52.890625 339.168834 
L 68.890625 339.168834 
" style="fill:none;stroke:#d9534f;stroke-linecap:square;"/>
    </g>
    <g id="line2d_27"/>
    <g id="text_21">
     <!-- fastqc | SRR9264345_S0_L001_I1_001 -->
     <g transform="translate(75.290625 341.968834)scale(0.08 -0.08)">
      <use xlink:href="#DejaVuSans-66"/>
      <use x="35.205078" xlink:href="#DejaVuSans-61"/>
      <use x="96.484375" xlink:href="#DejaVuSans-73"/>
      <use x="148.583984" xlink:href="#DejaVuSans-74"/>
      <use x="187.792969" xlink:href="#DejaVuSans-71"/>
      <use x="251.269531" xlink:href="#DejaVuSans-63"/>
      <use x="306.25" xlink:href="#DejaVuSans-20"/>
      <use x="338.037109" xlink:href="#DejaVuSans-7c"/>
      <use x="371.728516" xlink:href="#DejaVuSans-20"/>
      <use x="403.515625" xlink:href="#DejaVuSans-53"/>
      <use x="466.992188" xlink:href="#DejaVuSans-52"/>
      <use x="536.474609" xlink:href="#DejaVuSans-52"/>
      <use x="605.957031" xlink:href="#DejaVuSans-39"/>
      <use x="669.580078" xlink:href="#DejaVuSans-32"/>
      <use x="733.203125" xlink:href="#DejaVuSans-36"/>
      <use x="796.826172" xlink:href="#DejaVuSans-34"/>
      <use x="860.449219" xlink:href="#DejaVuSans-33"/>
      <use x="924.072266" xlink:href="#DejaVuSans-34"/>
      <use x="987.695312" xlink:href="#DejaVuSans-35"/>
      <use x="1051.318359" xlink:href="#DejaVuSans-5f"/>
      <use x="1101.318359" xlink:href="#DejaVuSans-53"/>
      <use x="1164.794922" xlink:href="#DejaVuSans-30"/>
      <use x="1228.417969" xlink:href="#DejaVuSans-5f"/>
      <use x="1278.417969" xlink:href="#DejaVuSans-4c"/>
      <use x="1334.130859" xlink:href="#DejaVuSans-30"/>
      <use x="1397.753906" xlink:href="#DejaVuSans-30"/>
      <use x="1461.376953" xlink:href="#DejaVuSans-31"/>
      <use x="1525" xlink:href="#DejaVuSans-5f"/>
      <use x="1575" xlink:href="#DejaVuSans-49"/>
      <use x="1604.492188" xlink:href="#DejaVuSans-31"/>
      <use x="1668.115234" xlink:href="#DejaVuSans-5f"/>
      <use x="1718.115234" xlink:href="#DejaVuSans-30"/>
      <use x="1781.738281" xlink:href="#DejaVuSans-30"/>
      <use x="1845.361328" xlink:href="#DejaVuSans-31"/>
     </g>
    </g>
    <g id="line2d_28">
     <path d="M 240.495 315.168834 
L 256.495 315.168834 
" style="fill:none;stroke:#d9534f;stroke-linecap:square;"/>
    </g>
    <g id="line2d_29"/>
    <g id="text_22">
     <!-- fastqc | SRR9264346_S0_L001_I1_001 -->
     <g transform="translate(262.895 317.968834)scale(0.08 -0.08)">
      <use xlink:href="#DejaVuSans-66"/>
      <use x="35.205078" xlink:href="#DejaVuSans-61"/>
      <use x="96.484375" xlink:href="#DejaVuSans-73"/>
      <use x="148.583984" xlink:href="#DejaVuSans-74"/>
      <use x="187.792969" xlink:href="#DejaVuSans-71"/>
      <use x="251.269531" xlink:href="#DejaVuSans-63"/>
      <use x="306.25" xlink:href="#DejaVuSans-20"/>
      <use x="338.037109" xlink:href="#DejaVuSans-7c"/>
      <use x="371.728516" xlink:href="#DejaVuSans-20"/>
      <use x="403.515625" xlink:href="#DejaVuSans-53"/>
      <use x="466.992188" xlink:href="#DejaVuSans-52"/>
      <use x="536.474609" xlink:href="#DejaVuSans-52"/>
      <use x="605.957031" xlink:href="#DejaVuSans-39"/>
      <use x="669.580078" xlink:href="#DejaVuSans-32"/>
      <use x="733.203125" xlink:href="#DejaVuSans-36"/>
      <use x="796.826172" xlink:href="#DejaVuSans-34"/>
      <use x="860.449219" xlink:href="#DejaVuSans-33"/>
      <use x="924.072266" xlink:href="#DejaVuSans-34"/>
      <use x="987.695312" xlink:href="#DejaVuSans-36"/>
      <use x="1051.318359" xlink:href="#DejaVuSans-5f"/>
      <use x="1101.318359" xlink:href="#DejaVuSans-53"/>
      <use x="1164.794922" xlink:href="#DejaVuSans-30"/>
      <use x="1228.417969" xlink:href="#DejaVuSans-5f"/>
      <use x="1278.417969" xlink:href="#DejaVuSans-4c"/>
      <use x="1334.130859" xlink:href="#DejaVuSans-30"/>
      <use x="1397.753906" xlink:href="#DejaVuSans-30"/>
      <use x="1461.376953" xlink:href="#DejaVuSans-31"/>
      <use x="1525" xlink:href="#DejaVuSans-5f"/>
      <use x="1575" xlink:href="#DejaVuSans-49"/>
      <use x="1604.492188" xlink:href="#DejaVuSans-31"/>
      <use x="1668.115234" xlink:href="#DejaVuSans-5f"/>
      <use x="1718.115234" xlink:href="#DejaVuSans-30"/>
      <use x="1781.738281" xlink:href="#DejaVuSans-30"/>
      <use x="1845.361328" xlink:href="#DejaVuSans-31"/>
     </g>
    </g>
    <g id="line2d_30">
     <path d="M 240.495 327.168834 
L 256.495 327.168834 
" style="fill:none;stroke:#d9534f;stroke-linecap:square;"/>
    </g>
    <g id="line2d_31"/>
    <g id="text_23">
     <!-- fastqc | SRR9264347_S0_L001_I1_001 -->
     <g transform="translate(262.895 329.968834)scale(0.08 -0.08)">
      <use xlink:href="#DejaVuSans-66"/>
      <use x="35.205078" xlink:href="#DejaVuSans-61"/>
      <use x="96.484375" xlink:href="#DejaVuSans-73"/>
      <use x="148.583984" xlink:href="#DejaVuSans-74"/>
      <use x="187.792969" xlink:href="#DejaVuSans-71"/>
      <use x="251.269531" xlink:href="#DejaVuSans-63"/>
      <use x="306.25" xlink:href="#DejaVuSans-20"/>
      <use x="338.037109" xlink:href="#DejaVuSans-7c"/>
      <use x="371.728516" xlink:href="#DejaVuSans-20"/>
      <use x="403.515625" xlink:href="#DejaVuSans-53"/>
      <use x="466.992188" xlink:href="#DejaVuSans-52"/>
      <use x="536.474609" xlink:href="#DejaVuSans-52"/>
      <use x="605.957031" xlink:href="#DejaVuSans-39"/>
      <use x="669.580078" xlink:href="#DejaVuSans-32"/>
      <use x="733.203125" xlink:href="#DejaVuSans-36"/>
      <use x="796.826172" xlink:href="#DejaVuSans-34"/>
      <use x="860.449219" xlink:href="#DejaVuSans-33"/>
      <use x="924.072266" xlink:href="#DejaVuSans-34"/>
      <use x="987.695312" xlink:href="#DejaVuSans-37"/>
      <use x="1051.318359" xlink:href="#DejaVuSans-5f"/>
      <use x="1101.318359" xlink:href="#DejaVuSans-53"/>
      <use x="1164.794922" xlink:href="#DejaVuSans-30"/>
      <use x="1228.417969" xlink:href="#DejaVuSans-5f"/>
      <use x="1278.417969" xlink:href="#DejaVuSans-4c"/>
      <use x="1334.130859" xlink:href="#DejaVuSans-30"/>
      <use x="1397.753906" xlink:href="#DejaVuSans-30"/>
      <use x="1461.376953" xlink:href="#DejaVuSans-31"/>
      <use x="1525" xlink:href="#DejaVuSans-5f"/>
      <use x="1575" xlink:href="#DejaVuSans-49"/>
      <use x="1604.492188" xlink:href="#DejaVuSans-31"/>
      <use x="1668.115234" xlink:href="#DejaVuSans-5f"/>
      <use x="1718.115234" xlink:href="#DejaVuSans-30"/>
      <use x="1781.738281" xlink:href="#DejaVuSans-30"/>
      <use x="1845.361328" xlink:href="#DejaVuSans-31"/>
     </g>
    </g>
    <g id="line2d_32">
     <path d="M 240.495 339.168834 
L 256.495 339.168834 
" style="fill:none;stroke:#d9534f;stroke-linecap:square;"/>
    </g>
    <g id="line2d_33"/>
    <g id="text_24">
     <!-- fastqc | SRR9264348_S0_L001_I1_001 -->
     <g transform="translate(262.895 341.968834)scale(0.08 -0.08)">
      <use xlink:href="#DejaVuSans-66"/>
      <use x="35.205078" xlink:href="#DejaVuSans-61"/>
      <use x="96.484375" xlink:href="#DejaVuSans-73"/>
      <use x="148.583984" xlink:href="#DejaVuSans-74"/>
      <use x="187.792969" xlink:href="#DejaVuSans-71"/>
      <use x="251.269531" xlink:href="#DejaVuSans-63"/>
      <use x="306.25" xlink:href="#DejaVuSans-20"/>
      <use x="338.037109" xlink:href="#DejaVuSans-7c"/>
      <use x="371.728516" xlink:href="#DejaVuSans-20"/>
      <use x="403.515625" xlink:href="#DejaVuSans-53"/>
      <use x="466.992188" xlink:href="#DejaVuSans-52"/>
      <use x="536.474609" xlink:href="#DejaVuSans-52"/>
      <use x="605.957031" xlink:href="#DejaVuSans-39"/>
      <use x="669.580078" xlink:href="#DejaVuSans-32"/>
      <use x="733.203125" xlink:href="#DejaVuSans-36"/>
      <use x="796.826172" xlink:href="#DejaVuSans-34"/>
      <use x="860.449219" xlink:href="#DejaVuSans-33"/>
      <use x="924.072266" xlink:href="#DejaVuSans-34"/>
      <use x="987.695312" xlink:href="#DejaVuSans-38"/>
      <use x="1051.318359" xlink:href="#DejaVuSans-5f"/>
      <use x="1101.318359" xlink:href="#DejaVuSans-53"/>
      <use x="1164.794922" xlink:href="#DejaVuSans-30"/>
      <use x="1228.417969" xlink:href="#DejaVuSans-5f"/>
      <use x="1278.417969" xlink:href="#DejaVuSans-4c"/>
      <use x="1334.130859" xlink:href="#DejaVuSans-30"/>
      <use x="1397.753906" xlink:href="#DejaVuSans-30"/>
      <use x="1461.376953" xlink:href="#DejaVuSans-31"/>
      <use x="1525" xlink:href="#DejaVuSans-5f"/>
      <use x="1575" xlink:href="#DejaVuSans-49"/>
      <use x="1604.492188" xlink:href="#DejaVuSans-31"/>
      <use x="1668.115234" xlink:href="#DejaVuSans-5f"/>
      <use x="1718.115234" xlink:href="#DejaVuSans-30"/>
      <use x="1781.738281" xlink:href="#DejaVuSans-30"/>
      <use x="1845.361328" xlink:href="#DejaVuSans-31"/>
     </g>
    </g>
    <g id="line2d_34">
     <path d="M 428.099375 315.168834 
L 444.099375 315.168834 
" style="fill:none;stroke:#d9534f;stroke-linecap:square;"/>
    </g>
    <g id="line2d_35"/>
    <g id="text_25">
     <!-- fastqc | SRR9264349_S0_L001_I1_001 -->
     <g transform="translate(450.499375 317.968834)scale(0.08 -0.08)">
      <use xlink:href="#DejaVuSans-66"/>
      <use x="35.205078" xlink:href="#DejaVuSans-61"/>
      <use x="96.484375" xlink:href="#DejaVuSans-73"/>
      <use x="148.583984" xlink:href="#DejaVuSans-74"/>
      <use x="187.792969" xlink:href="#DejaVuSans-71"/>
      <use x="251.269531" xlink:href="#DejaVuSans-63"/>
      <use x="306.25" xlink:href="#DejaVuSans-20"/>
      <use x="338.037109" xlink:href="#DejaVuSans-7c"/>
      <use x="371.728516" xlink:href="#DejaVuSans-20"/>
      <use x="403.515625" xlink:href="#DejaVuSans-53"/>
      <use x="466.992188" xlink:href="#DejaVuSans-52"/>
      <use x="536.474609" xlink:href="#DejaVuSans-52"/>
      <use x="605.957031" xlink:href="#DejaVuSans-39"/>
      <use x="669.580078" xlink:href="#DejaVuSans-32"/>
      <use x="733.203125" xlink:href="#DejaVuSans-36"/>
      <use x="796.826172" xlink:href="#DejaVuSans-34"/>
      <use x="860.449219" xlink:href="#DejaVuSans-33"/>
      <use x="924.072266" xlink:href="#DejaVuSans-34"/>
      <use x="987.695312" xlink:href="#DejaVuSans-39"/>
      <use x="1051.318359" xlink:href="#DejaVuSans-5f"/>
      <use x="1101.318359" xlink:href="#DejaVuSans-53"/>
      <use x="1164.794922" xlink:href="#DejaVuSans-30"/>
      <use x="1228.417969" xlink:href="#DejaVuSans-5f"/>
      <use x="1278.417969" xlink:href="#DejaVuSans-4c"/>
      <use x="1334.130859" xlink:href="#DejaVuSans-30"/>
      <use x="1397.753906" xlink:href="#DejaVuSans-30"/>
      <use x="1461.376953" xlink:href="#DejaVuSans-31"/>
      <use x="1525" xlink:href="#DejaVuSans-5f"/>
      <use x="1575" xlink:href="#DejaVuSans-49"/>
      <use x="1604.492188" xlink:href="#DejaVuSans-31"/>
      <use x="1668.115234" xlink:href="#DejaVuSans-5f"/>
      <use x="1718.115234" xlink:href="#DejaVuSans-30"/>
      <use x="1781.738281" xlink:href="#DejaVuSans-30"/>
      <use x="1845.361328" xlink:href="#DejaVuSans-31"/>
     </g>
    </g>
    <g id="line2d_36">
     <path d="M 428.099375 327.168834 
L 444.099375 327.168834 
" style="fill:none;stroke:#d9534f;stroke-linecap:square;"/>
    </g>
    <g id="line2d_37"/>
    <g id="text_26">
     <!-- fastqc | SRR9264350_S0_L001_I1_001 -->
     <g transform="translate(450.499375 329.968834)scale(0.08 -0.08)">
      <use xlink:href="#DejaVuSans-66"/>
      <use x="35.205078" xlink:href="#DejaVuSans-61"/>
      <use x="96.484375" xlink:href="#DejaVuSans-73"/>
      <use x="148.583984" xlink:href="#DejaVuSans-74"/>
      <use x="187.792969" xlink:href="#DejaVuSans-71"/>
      <use x="251.269531" xlink:href="#DejaVuSans-63"/>
      <use x="306.25" xlink:href="#DejaVuSans-20"/>
      <use x="338.037109" xlink:href="#DejaVuSans-7c"/>
      <use x="371.728516" xlink:href="#DejaVuSans-20"/>
      <use x="403.515625" xlink:href="#DejaVuSans-53"/>
      <use x="466.992188" xlink:href="#DejaVuSans-52"/>
      <use x="536.474609" xlink:href="#DejaVuSans-52"/>
      <use x="605.957031" xlink:href="#DejaVuSans-39"/>
      <use x="669.580078" xlink:href="#DejaVuSans-32"/>
      <use x="733.203125" xlink:href="#DejaVuSans-36"/>
      <use x="796.826172" xlink:href="#DejaVuSans-34"/>
      <use x="860.449219" xlink:href="#DejaVuSans-33"/>
      <use x="924.072266" xlink:href="#DejaVuSans-35"/>
      <use x="987.695312" xlink:href="#DejaVuSans-30"/>
      <use x="1051.318359" xlink:href="#DejaVuSans-5f"/>
      <use x="1101.318359" xlink:href="#DejaVuSans-53"/>
      <use x="1164.794922" xlink:href="#DejaVuSans-30"/>
      <use x="1228.417969" xlink:href="#DejaVuSans-5f"/>
      <use x="1278.417969" xlink:href="#DejaVuSans-4c"/>
      <use x="1334.130859" xlink:href="#DejaVuSans-30"/>
      <use x="1397.753906" xlink:href="#DejaVuSans-30"/>
      <use x="1461.376953" xlink:href="#DejaVuSans-31"/>
      <use x="1525" xlink:href="#DejaVuSans-5f"/>
      <use x="1575" xlink:href="#DejaVuSans-49"/>
      <use x="1604.492188" xlink:href="#DejaVuSans-31"/>
      <use x="1668.115234" xlink:href="#DejaVuSans-5f"/>
      <use x="1718.115234" xlink:href="#DejaVuSans-30"/>
      <use x="1781.738281" xlink:href="#DejaVuSans-30"/>
      <use x="1845.361328" xlink:href="#DejaVuSans-31"/>
     </g>
    </g>
    <g id="line2d_38">
     <path d="M 615.70375 315.168834 
L 631.70375 315.168834 
" style="fill:none;stroke:#d9534f;stroke-linecap:square;"/>
    </g>
    <g id="line2d_39"/>
    <g id="text_27">
     <!-- fastqc | SRR9264351_S0_L001_I1_001 -->
     <g transform="translate(638.10375 317.968834)scale(0.08 -0.08)">
      <use xlink:href="#DejaVuSans-66"/>
      <use x="35.205078" xlink:href="#DejaVuSans-61"/>
      <use x="96.484375" xlink:href="#DejaVuSans-73"/>
      <use x="148.583984" xlink:href="#DejaVuSans-74"/>
      <use x="187.792969" xlink:href="#DejaVuSans-71"/>
      <use x="251.269531" xlink:href="#DejaVuSans-63"/>
      <use x="306.25" xlink:href="#DejaVuSans-20"/>
      <use x="338.037109" xlink:href="#DejaVuSans-7c"/>
      <use x="371.728516" xlink:href="#DejaVuSans-20"/>
      <use x="403.515625" xlink:href="#DejaVuSans-53"/>
      <use x="466.992188" xlink:href="#DejaVuSans-52"/>
      <use x="536.474609" xlink:href="#DejaVuSans-52"/>
      <use x="605.957031" xlink:href="#DejaVuSans-39"/>
      <use x="669.580078" xlink:href="#DejaVuSans-32"/>
      <use x="733.203125" xlink:href="#DejaVuSans-36"/>
      <use x="796.826172" xlink:href="#DejaVuSans-34"/>
      <use x="860.449219" xlink:href="#DejaVuSans-33"/>
      <use x="924.072266" xlink:href="#DejaVuSans-35"/>
      <use x="987.695312" xlink:href="#DejaVuSans-31"/>
      <use x="1051.318359" xlink:href="#DejaVuSans-5f"/>
      <use x="1101.318359" xlink:href="#DejaVuSans-53"/>
      <use x="1164.794922" xlink:href="#DejaVuSans-30"/>
      <use x="1228.417969" xlink:href="#DejaVuSans-5f"/>
      <use x="1278.417969" xlink:href="#DejaVuSans-4c"/>
      <use x="1334.130859" xlink:href="#DejaVuSans-30"/>
      <use x="1397.753906" xlink:href="#DejaVuSans-30"/>
      <use x="1461.376953" xlink:href="#DejaVuSans-31"/>
      <use x="1525" xlink:href="#DejaVuSans-5f"/>
      <use x="1575" xlink:href="#DejaVuSans-49"/>
      <use x="1604.492188" xlink:href="#DejaVuSans-31"/>
      <use x="1668.115234" xlink:href="#DejaVuSans-5f"/>
      <use x="1718.115234" xlink:href="#DejaVuSans-30"/>
      <use x="1781.738281" xlink:href="#DejaVuSans-30"/>
      <use x="1845.361328" xlink:href="#DejaVuSans-31"/>
     </g>
    </g>
    <g id="line2d_40">
     <path d="M 615.70375 327.168834 
L 631.70375 327.168834 
" style="fill:none;stroke:#d9534f;stroke-linecap:square;"/>
    </g>
    <g id="line2d_41"/>
    <g id="text_28">
     <!-- fastqc | SRR9264352_S0_L001_I1_001 -->
     <g transform="translate(638.10375 329.968834)scale(0.08 -0.08)">
      <use xlink:href="#DejaVuSans-66"/>
      <use x="35.205078" xlink:href="#DejaVuSans-61"/>
      <use x="96.484375" xlink:href="#DejaVuSans-73"/>
      <use x="148.583984" xlink:href="#DejaVuSans-74"/>
      <use x="187.792969" xlink:href="#DejaVuSans-71"/>
      <use x="251.269531" xlink:href="#DejaVuSans-63"/>
      <use x="306.25" xlink:href="#DejaVuSans-20"/>
      <use x="338.037109" xlink:href="#DejaVuSans-7c"/>
      <use x="371.728516" xlink:href="#DejaVuSans-20"/>
      <use x="403.515625" xlink:href="#DejaVuSans-53"/>
      <use x="466.992188" xlink:href="#DejaVuSans-52"/>
      <use x="536.474609" xlink:href="#DejaVuSans-52"/>
      <use x="605.957031" xlink:href="#DejaVuSans-39"/>
      <use x="669.580078" xlink:href="#DejaVuSans-32"/>
      <use x="733.203125" xlink:href="#DejaVuSans-36"/>
      <use x="796.826172" xlink:href="#DejaVuSans-34"/>
      <use x="860.449219" xlink:href="#DejaVuSans-33"/>
      <use x="924.072266" xlink:href="#DejaVuSans-35"/>
      <use x="987.695312" xlink:href="#DejaVuSans-32"/>
      <use x="1051.318359" xlink:href="#DejaVuSans-5f"/>
      <use x="1101.318359" xlink:href="#DejaVuSans-53"/>
      <use x="1164.794922" xlink:href="#DejaVuSans-30"/>
      <use x="1228.417969" xlink:href="#DejaVuSans-5f"/>
      <use x="1278.417969" xlink:href="#DejaVuSans-4c"/>
      <use x="1334.130859" xlink:href="#DejaVuSans-30"/>
      <use x="1397.753906" xlink:href="#DejaVuSans-30"/>
      <use x="1461.376953" xlink:href="#DejaVuSans-31"/>
      <use x="1525" xlink:href="#DejaVuSans-5f"/>
      <use x="1575" xlink:href="#DejaVuSans-49"/>
      <use x="1604.492188" xlink:href="#DejaVuSans-31"/>
      <use x="1668.115234" xlink:href="#DejaVuSans-5f"/>
      <use x="1718.115234" xlink:href="#DejaVuSans-30"/>
      <use x="1781.738281" xlink:href="#DejaVuSans-30"/>
      <use x="1845.361328" xlink:href="#DejaVuSans-31"/>
     </g>
    </g>
    <g id="line2d_42">
     <path d="M 803.308125 315.168834 
L 819.308125 315.168834 
" style="fill:none;stroke:#f0ad4e;stroke-linecap:square;"/>
    </g>
    <g id="line2d_43"/>
    <g id="text_29">
     <!-- fastqc | SRR9264353_S0_L001_I1_001 -->
     <g transform="translate(825.708125 317.968834)scale(0.08 -0.08)">
      <use xlink:href="#DejaVuSans-66"/>
      <use x="35.205078" xlink:href="#DejaVuSans-61"/>
      <use x="96.484375" xlink:href="#DejaVuSans-73"/>
      <use x="148.583984" xlink:href="#DejaVuSans-74"/>
      <use x="187.792969" xlink:href="#DejaVuSans-71"/>
      <use x="251.269531" xlink:href="#DejaVuSans-63"/>
      <use x="306.25" xlink:href="#DejaVuSans-20"/>
      <use x="338.037109" xlink:href="#DejaVuSans-7c"/>
      <use x="371.728516" xlink:href="#DejaVuSans-20"/>
      <use x="403.515625" xlink:href="#DejaVuSans-53"/>
      <use x="466.992188" xlink:href="#DejaVuSans-52"/>
      <use x="536.474609" xlink:href="#DejaVuSans-52"/>
      <use x="605.957031" xlink:href="#DejaVuSans-39"/>
      <use x="669.580078" xlink:href="#DejaVuSans-32"/>
      <use x="733.203125" xlink:href="#DejaVuSans-36"/>
      <use x="796.826172" xlink:href="#DejaVuSans-34"/>
      <use x="860.449219" xlink:href="#DejaVuSans-33"/>
      <use x="924.072266" xlink:href="#DejaVuSans-35"/>
      <use x="987.695312" xlink:href="#DejaVuSans-33"/>
      <use x="1051.318359" xlink:href="#DejaVuSans-5f"/>
      <use x="1101.318359" xlink:href="#DejaVuSans-53"/>
      <use x="1164.794922" xlink:href="#DejaVuSans-30"/>
      <use x="1228.417969" xlink:href="#DejaVuSans-5f"/>
      <use x="1278.417969" xlink:href="#DejaVuSans-4c"/>
      <use x="1334.130859" xlink:href="#DejaVuSans-30"/>
      <use x="1397.753906" xlink:href="#DejaVuSans-30"/>
      <use x="1461.376953" xlink:href="#DejaVuSans-31"/>
      <use x="1525" xlink:href="#DejaVuSans-5f"/>
      <use x="1575" xlink:href="#DejaVuSans-49"/>
      <use x="1604.492188" xlink:href="#DejaVuSans-31"/>
      <use x="1668.115234" xlink:href="#DejaVuSans-5f"/>
      <use x="1718.115234" xlink:href="#DejaVuSans-30"/>
      <use x="1781.738281" xlink:href="#DejaVuSans-30"/>
      <use x="1845.361328" xlink:href="#DejaVuSans-31"/>
     </g>
    </g>
    <g id="line2d_44">
     <path d="M 803.308125 327.168834 
L 819.308125 327.168834 
" style="fill:none;stroke:#d9534f;stroke-linecap:square;"/>
    </g>
    <g id="line2d_45"/>
    <g id="text_30">
     <!-- fastqc | SRR9264354_S0_L001_I1_001 -->
     <g transform="translate(825.708125 329.968834)scale(0.08 -0.08)">
      <use xlink:href="#DejaVuSans-66"/>
      <use x="35.205078" xlink:href="#DejaVuSans-61"/>
      <use x="96.484375" xlink:href="#DejaVuSans-73"/>
      <use x="148.583984" xlink:href="#DejaVuSans-74"/>
      <use x="187.792969" xlink:href="#DejaVuSans-71"/>
      <use x="251.269531" xlink:href="#DejaVuSans-63"/>
      <use x="306.25" xlink:href="#DejaVuSans-20"/>
      <use x="338.037109" xlink:href="#DejaVuSans-7c"/>
      <use x="371.728516" xlink:href="#DejaVuSans-20"/>
      <use x="403.515625" xlink:href="#DejaVuSans-53"/>
      <use x="466.992188" xlink:href="#DejaVuSans-52"/>
      <use x="536.474609" xlink:href="#DejaVuSans-52"/>
      <use x="605.957031" xlink:href="#DejaVuSans-39"/>
      <use x="669.580078" xlink:href="#DejaVuSans-32"/>
      <use x="733.203125" xlink:href="#DejaVuSans-36"/>
      <use x="796.826172" xlink:href="#DejaVuSans-34"/>
      <use x="860.449219" xlink:href="#DejaVuSans-33"/>
      <use x="924.072266" xlink:href="#DejaVuSans-35"/>
      <use x="987.695312" xlink:href="#DejaVuSans-34"/>
      <use x="1051.318359" xlink:href="#DejaVuSans-5f"/>
      <use x="1101.318359" xlink:href="#DejaVuSans-53"/>
      <use x="1164.794922" xlink:href="#DejaVuSans-30"/>
      <use x="1228.417969" xlink:href="#DejaVuSans-5f"/>
      <use x="1278.417969" xlink:href="#DejaVuSans-4c"/>
      <use x="1334.130859" xlink:href="#DejaVuSans-30"/>
      <use x="1397.753906" xlink:href="#DejaVuSans-30"/>
      <use x="1461.376953" xlink:href="#DejaVuSans-31"/>
      <use x="1525" xlink:href="#DejaVuSans-5f"/>
      <use x="1575" xlink:href="#DejaVuSans-49"/>
      <use x="1604.492188" xlink:href="#DejaVuSans-31"/>
      <use x="1668.115234" xlink:href="#DejaVuSans-5f"/>
      <use x="1718.115234" xlink:href="#DejaVuSans-30"/>
      <use x="1781.738281" xlink:href="#DejaVuSans-30"/>
      <use x="1845.361328" xlink:href="#DejaVuSans-31"/>
     </g>
    </g>
   </g>
  </g>
 </g>
 <defs>
  <clipPath id="pf5b5559491">
   <rect height="261.1792" width="939.94" x="45.690625" y="32.41646"/>
  </clipPath>
 </defs>
</svg>
