<?xml version="1.0" encoding="utf-8" standalone="no"?>
<!DOCTYPE svg PUBLIC "-//W3C//DTD SVG 1.1//EN"
  "http://www.w3.org/Graphics/SVG/1.1/DTD/svg11.dtd">
<!-- Created with matplotlib (http://matplotlib.org/) -->
<svg height="364.465884pt" version="1.1" viewBox="0 0 1001.338125 364.465884" width="1001.338125pt" xmlns="http://www.w3.org/2000/svg" xmlns:xlink="http://www.w3.org/1999/xlink">
 <defs>
  <style type="text/css">
*{stroke-linecap:butt;stroke-linejoin:round;}
  </style>
 </defs>
 <g id="figure_1">
  <g id="patch_1">
   <path d="M 0 364.465884 
L 1001.338125 364.465884 
L 1001.338125 -0 
L 0 -0 
z
" style="fill:#ffffff;"/>
  </g>
  <g id="axes_1">
   <g id="patch_2">
    <path d="M 32.968125 302.03766 
L 990.638125 302.03766 
L 990.638125 32.81846 
L 32.968125 32.81846 
z
" style="fill:#ffffff;"/>
   </g>
   <g id="patch_3">
    <path clip-path="url(#p5b5bbc4da1)" d="M 32.968125 1378.91446 
L 990.638125 1378.91446 
L 990.638125 -2928.59274 
L 32.968125 -2928.59274 
z
" style="fill:#e6c3c3;"/>
   </g>
   <g id="patch_4">
    <path clip-path="url(#p5b5bbc4da1)" d="M 32.968125 436.64726 
L 990.638125 436.64726 
L 990.638125 -371.01034 
L 32.968125 -371.01034 
z
" style="fill:#e6dcc3;"/>
   </g>
   <g id="patch_5">
    <path clip-path="url(#p5b5bbc4da1)" d="M 32.968125 436.64726 
L 990.638125 436.64726 
L 990.638125 167.42806 
L 32.968125 167.42806 
z
" style="fill:#c3e6c3;"/>
   </g>
   <g id="matplotlib.axis_1">
    <g id="xtick_1">
     <g id="text_1">
      <!-- 0 -->
      <defs>
       <path d="M 31.78125 66.40625 
Q 24.171875 66.40625 20.328125 58.90625 
Q 16.5 51.421875 16.5 36.375 
Q 16.5 21.390625 20.328125 13.890625 
Q 24.171875 6.390625 31.78125 6.390625 
Q 39.453125 6.390625 43.28125 13.890625 
Q 47.125 21.390625 47.125 36.375 
Q 47.125 51.421875 43.28125 58.90625 
Q 39.453125 66.40625 31.78125 66.40625 
z
M 31.78125 74.21875 
Q 44.046875 74.21875 50.515625 64.515625 
Q 56.984375 54.828125 56.984375 36.375 
Q 56.984375 17.96875 50.515625 8.265625 
Q 44.046875 -1.421875 31.78125 -1.421875 
Q 19.53125 -1.421875 13.0625 8.265625 
Q 6.59375 17.96875 6.59375 36.375 
Q 6.59375 54.828125 13.0625 64.515625 
Q 19.53125 74.21875 31.78125 74.21875 
z
" id="DejaVuSans-30"/>
      </defs>
      <g transform="translate(30.423125 315.11641)scale(0.08 -0.08)">
       <use xlink:href="#DejaVuSans-30"/>
      </g>
     </g>
    </g>
    <g id="xtick_2">
     <g id="text_2">
      <!-- 20 -->
      <defs>
       <path d="M 19.1875 8.296875 
L 53.609375 8.296875 
L 53.609375 0 
L 7.328125 0 
L 7.328125 8.296875 
Q 12.9375 14.109375 22.625 23.890625 
Q 32.328125 33.6875 34.8125 36.53125 
Q 39.546875 41.84375 41.421875 45.53125 
Q 43.3125 49.21875 43.3125 52.78125 
Q 43.3125 58.59375 39.234375 62.25 
Q 35.15625 65.921875 28.609375 65.921875 
Q 23.96875 65.921875 18.8125 64.3125 
Q 13.671875 62.703125 7.8125 59.421875 
L 7.8125 69.390625 
Q 13.765625 71.78125 18.9375 73 
Q 24.125 74.21875 28.421875 74.21875 
Q 39.75 74.21875 46.484375 68.546875 
Q 53.21875 62.890625 53.21875 53.421875 
Q 53.21875 48.921875 51.53125 44.890625 
Q 49.859375 40.875 45.40625 35.40625 
Q 44.1875 33.984375 37.640625 27.21875 
Q 31.109375 20.453125 19.1875 8.296875 
z
" id="DejaVuSans-32"/>
      </defs>
      <g transform="translate(214.104669 315.11641)scale(0.08 -0.08)">
       <use xlink:href="#DejaVuSans-32"/>
       <use x="63.623047" xlink:href="#DejaVuSans-30"/>
      </g>
     </g>
    </g>
    <g id="xtick_3">
     <g id="text_3">
      <!-- 40 -->
      <defs>
       <path d="M 37.796875 64.3125 
L 12.890625 25.390625 
L 37.796875 25.390625 
z
M 35.203125 72.90625 
L 47.609375 72.90625 
L 47.609375 25.390625 
L 58.015625 25.390625 
L 58.015625 17.1875 
L 47.609375 17.1875 
L 47.609375 0 
L 37.796875 0 
L 37.796875 17.1875 
L 4.890625 17.1875 
L 4.890625 26.703125 
z
" id="DejaVuSans-34"/>
      </defs>
      <g transform="translate(400.331212 315.11641)scale(0.08 -0.08)">
       <use xlink:href="#DejaVuSans-34"/>
       <use x="63.623047" xlink:href="#DejaVuSans-30"/>
      </g>
     </g>
    </g>
    <g id="xtick_4">
     <g id="text_4">
      <!-- 60 -->
      <defs>
       <path d="M 33.015625 40.375 
Q 26.375 40.375 22.484375 35.828125 
Q 18.609375 31.296875 18.609375 23.390625 
Q 18.609375 15.53125 22.484375 10.953125 
Q 26.375 6.390625 33.015625 6.390625 
Q 39.65625 6.390625 43.53125 10.953125 
Q 47.40625 15.53125 47.40625 23.390625 
Q 47.40625 31.296875 43.53125 35.828125 
Q 39.65625 40.375 33.015625 40.375 
z
M 52.59375 71.296875 
L 52.59375 62.3125 
Q 48.875 64.0625 45.09375 64.984375 
Q 41.3125 65.921875 37.59375 65.921875 
Q 27.828125 65.921875 22.671875 59.328125 
Q 17.53125 52.734375 16.796875 39.40625 
Q 19.671875 43.65625 24.015625 45.921875 
Q 28.375 48.1875 33.59375 48.1875 
Q 44.578125 48.1875 50.953125 41.515625 
Q 57.328125 34.859375 57.328125 23.390625 
Q 57.328125 12.15625 50.6875 5.359375 
Q 44.046875 -1.421875 33.015625 -1.421875 
Q 20.359375 -1.421875 13.671875 8.265625 
Q 6.984375 17.96875 6.984375 36.375 
Q 6.984375 53.65625 15.1875 63.9375 
Q 23.390625 74.21875 37.203125 74.21875 
Q 40.921875 74.21875 44.703125 73.484375 
Q 48.484375 72.75 52.59375 71.296875 
z
" id="DejaVuSans-36"/>
      </defs>
      <g transform="translate(586.557756 315.11641)scale(0.08 -0.08)">
       <use xlink:href="#DejaVuSans-36"/>
       <use x="63.623047" xlink:href="#DejaVuSans-30"/>
      </g>
     </g>
    </g>
    <g id="xtick_5">
     <g id="text_5">
      <!-- 80 -->
      <defs>
       <path d="M 31.78125 34.625 
Q 24.75 34.625 20.71875 30.859375 
Q 16.703125 27.09375 16.703125 20.515625 
Q 16.703125 13.921875 20.71875 10.15625 
Q 24.75 6.390625 31.78125 6.390625 
Q 38.8125 6.390625 42.859375 10.171875 
Q 46.921875 13.96875 46.921875 20.515625 
Q 46.921875 27.09375 42.890625 30.859375 
Q 38.875 34.625 31.78125 34.625 
z
M 21.921875 38.8125 
Q 15.578125 40.375 12.03125 44.71875 
Q 8.5 49.078125 8.5 55.328125 
Q 8.5 64.0625 14.71875 69.140625 
Q 20.953125 74.21875 31.78125 74.21875 
Q 42.671875 74.21875 48.875 69.140625 
Q 55.078125 64.0625 55.078125 55.328125 
Q 55.078125 49.078125 51.53125 44.71875 
Q 48 40.375 41.703125 38.8125 
Q 48.828125 37.15625 52.796875 32.3125 
Q 56.78125 27.484375 56.78125 20.515625 
Q 56.78125 9.90625 50.3125 4.234375 
Q 43.84375 -1.421875 31.78125 -1.421875 
Q 19.734375 -1.421875 13.25 4.234375 
Q 6.78125 9.90625 6.78125 20.515625 
Q 6.78125 27.484375 10.78125 32.3125 
Q 14.796875 37.15625 21.921875 38.8125 
z
M 18.3125 54.390625 
Q 18.3125 48.734375 21.84375 45.5625 
Q 25.390625 42.390625 31.78125 42.390625 
Q 38.140625 42.390625 41.71875 45.5625 
Q 45.3125 48.734375 45.3125 54.390625 
Q 45.3125 60.0625 41.71875 63.234375 
Q 38.140625 66.40625 31.78125 66.40625 
Q 25.390625 66.40625 21.84375 63.234375 
Q 18.3125 60.0625 18.3125 54.390625 
z
" id="DejaVuSans-38"/>
      </defs>
      <g transform="translate(772.784299 315.11641)scale(0.08 -0.08)">
       <use xlink:href="#DejaVuSans-38"/>
       <use x="63.623047" xlink:href="#DejaVuSans-30"/>
      </g>
     </g>
    </g>
    <g id="xtick_6">
     <g id="text_6">
      <!-- 100 -->
      <defs>
       <path d="M 12.40625 8.296875 
L 28.515625 8.296875 
L 28.515625 63.921875 
L 10.984375 60.40625 
L 10.984375 69.390625 
L 28.421875 72.90625 
L 38.28125 72.90625 
L 38.28125 8.296875 
L 54.390625 8.296875 
L 54.390625 0 
L 12.40625 0 
z
" id="DejaVuSans-31"/>
      </defs>
      <g transform="translate(956.465843 315.11641)scale(0.08 -0.08)">
       <use xlink:href="#DejaVuSans-31"/>
       <use x="63.623047" xlink:href="#DejaVuSans-30"/>
       <use x="127.246094" xlink:href="#DejaVuSans-30"/>
      </g>
     </g>
    </g>
    <g id="text_7">
     <!-- Position in Read (bp) -->
     <defs>
      <path d="M 19.671875 64.796875 
L 19.671875 37.40625 
L 32.078125 37.40625 
Q 38.96875 37.40625 42.71875 40.96875 
Q 46.484375 44.53125 46.484375 51.125 
Q 46.484375 57.671875 42.71875 61.234375 
Q 38.96875 64.796875 32.078125 64.796875 
z
M 9.8125 72.90625 
L 32.078125 72.90625 
Q 44.34375 72.90625 50.609375 67.359375 
Q 56.890625 61.8125 56.890625 51.125 
Q 56.890625 40.328125 50.609375 34.8125 
Q 44.34375 29.296875 32.078125 29.296875 
L 19.671875 29.296875 
L 19.671875 0 
L 9.8125 0 
z
" id="DejaVuSans-50"/>
      <path d="M 30.609375 48.390625 
Q 23.390625 48.390625 19.1875 42.75 
Q 14.984375 37.109375 14.984375 27.296875 
Q 14.984375 17.484375 19.15625 11.84375 
Q 23.34375 6.203125 30.609375 6.203125 
Q 37.796875 6.203125 41.984375 11.859375 
Q 46.1875 17.53125 46.1875 27.296875 
Q 46.1875 37.015625 41.984375 42.703125 
Q 37.796875 48.390625 30.609375 48.390625 
z
M 30.609375 56 
Q 42.328125 56 49.015625 48.375 
Q 55.71875 40.765625 55.71875 27.296875 
Q 55.71875 13.875 49.015625 6.21875 
Q 42.328125 -1.421875 30.609375 -1.421875 
Q 18.84375 -1.421875 12.171875 6.21875 
Q 5.515625 13.875 5.515625 27.296875 
Q 5.515625 40.765625 12.171875 48.375 
Q 18.84375 56 30.609375 56 
z
" id="DejaVuSans-6f"/>
      <path d="M 44.28125 53.078125 
L 44.28125 44.578125 
Q 40.484375 46.53125 36.375 47.5 
Q 32.28125 48.484375 27.875 48.484375 
Q 21.1875 48.484375 17.84375 46.4375 
Q 14.5 44.390625 14.5 40.28125 
Q 14.5 37.15625 16.890625 35.375 
Q 19.28125 33.59375 26.515625 31.984375 
L 29.59375 31.296875 
Q 39.15625 29.25 43.1875 25.515625 
Q 47.21875 21.78125 47.21875 15.09375 
Q 47.21875 7.46875 41.1875 3.015625 
Q 35.15625 -1.421875 24.609375 -1.421875 
Q 20.21875 -1.421875 15.453125 -0.5625 
Q 10.6875 0.296875 5.421875 2 
L 5.421875 11.28125 
Q 10.40625 8.6875 15.234375 7.390625 
Q 20.0625 6.109375 24.8125 6.109375 
Q 31.15625 6.109375 34.5625 8.28125 
Q 37.984375 10.453125 37.984375 14.40625 
Q 37.984375 18.0625 35.515625 20.015625 
Q 33.0625 21.96875 24.703125 23.78125 
L 21.578125 24.515625 
Q 13.234375 26.265625 9.515625 29.90625 
Q 5.8125 33.546875 5.8125 39.890625 
Q 5.8125 47.609375 11.28125 51.796875 
Q 16.75 56 26.8125 56 
Q 31.78125 56 36.171875 55.265625 
Q 40.578125 54.546875 44.28125 53.078125 
z
" id="DejaVuSans-73"/>
      <path d="M 9.421875 54.6875 
L 18.40625 54.6875 
L 18.40625 0 
L 9.421875 0 
z
M 9.421875 75.984375 
L 18.40625 75.984375 
L 18.40625 64.59375 
L 9.421875 64.59375 
z
" id="DejaVuSans-69"/>
      <path d="M 18.3125 70.21875 
L 18.3125 54.6875 
L 36.8125 54.6875 
L 36.8125 47.703125 
L 18.3125 47.703125 
L 18.3125 18.015625 
Q 18.3125 11.328125 20.140625 9.421875 
Q 21.96875 7.515625 27.59375 7.515625 
L 36.8125 7.515625 
L 36.8125 0 
L 27.59375 0 
Q 17.1875 0 13.234375 3.875 
Q 9.28125 7.765625 9.28125 18.015625 
L 9.28125 47.703125 
L 2.6875 47.703125 
L 2.6875 54.6875 
L 9.28125 54.6875 
L 9.28125 70.21875 
z
" id="DejaVuSans-74"/>
      <path d="M 54.890625 33.015625 
L 54.890625 0 
L 45.90625 0 
L 45.90625 32.71875 
Q 45.90625 40.484375 42.875 44.328125 
Q 39.84375 48.1875 33.796875 48.1875 
Q 26.515625 48.1875 22.3125 43.546875 
Q 18.109375 38.921875 18.109375 30.90625 
L 18.109375 0 
L 9.078125 0 
L 9.078125 54.6875 
L 18.109375 54.6875 
L 18.109375 46.1875 
Q 21.34375 51.125 25.703125 53.5625 
Q 30.078125 56 35.796875 56 
Q 45.21875 56 50.046875 50.171875 
Q 54.890625 44.34375 54.890625 33.015625 
z
" id="DejaVuSans-6e"/>
      <path id="DejaVuSans-20"/>
      <path d="M 44.390625 34.1875 
Q 47.5625 33.109375 50.5625 29.59375 
Q 53.5625 26.078125 56.59375 19.921875 
L 66.609375 0 
L 56 0 
L 46.6875 18.703125 
Q 43.0625 26.03125 39.671875 28.421875 
Q 36.28125 30.8125 30.421875 30.8125 
L 19.671875 30.8125 
L 19.671875 0 
L 9.8125 0 
L 9.8125 72.90625 
L 32.078125 72.90625 
Q 44.578125 72.90625 50.734375 67.671875 
Q 56.890625 62.453125 56.890625 51.90625 
Q 56.890625 45.015625 53.6875 40.46875 
Q 50.484375 35.9375 44.390625 34.1875 
z
M 19.671875 64.796875 
L 19.671875 38.921875 
L 32.078125 38.921875 
Q 39.203125 38.921875 42.84375 42.21875 
Q 46.484375 45.515625 46.484375 51.90625 
Q 46.484375 58.296875 42.84375 61.546875 
Q 39.203125 64.796875 32.078125 64.796875 
z
" id="DejaVuSans-52"/>
      <path d="M 56.203125 29.59375 
L 56.203125 25.203125 
L 14.890625 25.203125 
Q 15.484375 15.921875 20.484375 11.0625 
Q 25.484375 6.203125 34.421875 6.203125 
Q 39.59375 6.203125 44.453125 7.46875 
Q 49.3125 8.734375 54.109375 11.28125 
L 54.109375 2.78125 
Q 49.265625 0.734375 44.1875 -0.34375 
Q 39.109375 -1.421875 33.890625 -1.421875 
Q 20.796875 -1.421875 13.15625 6.1875 
Q 5.515625 13.8125 5.515625 26.8125 
Q 5.515625 40.234375 12.765625 48.109375 
Q 20.015625 56 32.328125 56 
Q 43.359375 56 49.78125 48.890625 
Q 56.203125 41.796875 56.203125 29.59375 
z
M 47.21875 32.234375 
Q 47.125 39.59375 43.09375 43.984375 
Q 39.0625 48.390625 32.421875 48.390625 
Q 24.90625 48.390625 20.390625 44.140625 
Q 15.875 39.890625 15.1875 32.171875 
z
" id="DejaVuSans-65"/>
      <path d="M 34.28125 27.484375 
Q 23.390625 27.484375 19.1875 25 
Q 14.984375 22.515625 14.984375 16.5 
Q 14.984375 11.71875 18.140625 8.90625 
Q 21.296875 6.109375 26.703125 6.109375 
Q 34.1875 6.109375 38.703125 11.40625 
Q 43.21875 16.703125 43.21875 25.484375 
L 43.21875 27.484375 
z
M 52.203125 31.203125 
L 52.203125 0 
L 43.21875 0 
L 43.21875 8.296875 
Q 40.140625 3.328125 35.546875 0.953125 
Q 30.953125 -1.421875 24.3125 -1.421875 
Q 15.921875 -1.421875 10.953125 3.296875 
Q 6 8.015625 6 15.921875 
Q 6 25.140625 12.171875 29.828125 
Q 18.359375 34.515625 30.609375 34.515625 
L 43.21875 34.515625 
L 43.21875 35.40625 
Q 43.21875 41.609375 39.140625 45 
Q 35.0625 48.390625 27.6875 48.390625 
Q 23 48.390625 18.546875 47.265625 
Q 14.109375 46.140625 10.015625 43.890625 
L 10.015625 52.203125 
Q 14.9375 54.109375 19.578125 55.046875 
Q 24.21875 56 28.609375 56 
Q 40.484375 56 46.34375 49.84375 
Q 52.203125 43.703125 52.203125 31.203125 
z
" id="DejaVuSans-61"/>
      <path d="M 45.40625 46.390625 
L 45.40625 75.984375 
L 54.390625 75.984375 
L 54.390625 0 
L 45.40625 0 
L 45.40625 8.203125 
Q 42.578125 3.328125 38.25 0.953125 
Q 33.9375 -1.421875 27.875 -1.421875 
Q 17.96875 -1.421875 11.734375 6.484375 
Q 5.515625 14.40625 5.515625 27.296875 
Q 5.515625 40.1875 11.734375 48.09375 
Q 17.96875 56 27.875 56 
Q 33.9375 56 38.25 53.625 
Q 42.578125 51.265625 45.40625 46.390625 
z
M 14.796875 27.296875 
Q 14.796875 17.390625 18.875 11.75 
Q 22.953125 6.109375 30.078125 6.109375 
Q 37.203125 6.109375 41.296875 11.75 
Q 45.40625 17.390625 45.40625 27.296875 
Q 45.40625 37.203125 41.296875 42.84375 
Q 37.203125 48.484375 30.078125 48.484375 
Q 22.953125 48.484375 18.875 42.84375 
Q 14.796875 37.203125 14.796875 27.296875 
z
" id="DejaVuSans-64"/>
      <path d="M 31 75.875 
Q 24.46875 64.65625 21.28125 53.65625 
Q 18.109375 42.671875 18.109375 31.390625 
Q 18.109375 20.125 21.3125 9.0625 
Q 24.515625 -2 31 -13.1875 
L 23.1875 -13.1875 
Q 15.875 -1.703125 12.234375 9.375 
Q 8.59375 20.453125 8.59375 31.390625 
Q 8.59375 42.28125 12.203125 53.3125 
Q 15.828125 64.359375 23.1875 75.875 
z
" id="DejaVuSans-28"/>
      <path d="M 48.6875 27.296875 
Q 48.6875 37.203125 44.609375 42.84375 
Q 40.53125 48.484375 33.40625 48.484375 
Q 26.265625 48.484375 22.1875 42.84375 
Q 18.109375 37.203125 18.109375 27.296875 
Q 18.109375 17.390625 22.1875 11.75 
Q 26.265625 6.109375 33.40625 6.109375 
Q 40.53125 6.109375 44.609375 11.75 
Q 48.6875 17.390625 48.6875 27.296875 
z
M 18.109375 46.390625 
Q 20.953125 51.265625 25.265625 53.625 
Q 29.59375 56 35.59375 56 
Q 45.5625 56 51.78125 48.09375 
Q 58.015625 40.1875 58.015625 27.296875 
Q 58.015625 14.40625 51.78125 6.484375 
Q 45.5625 -1.421875 35.59375 -1.421875 
Q 29.59375 -1.421875 25.265625 0.953125 
Q 20.953125 3.328125 18.109375 8.203125 
L 18.109375 0 
L 9.078125 0 
L 9.078125 75.984375 
L 18.109375 75.984375 
z
" id="DejaVuSans-62"/>
      <path d="M 18.109375 8.203125 
L 18.109375 -20.796875 
L 9.078125 -20.796875 
L 9.078125 54.6875 
L 18.109375 54.6875 
L 18.109375 46.390625 
Q 20.953125 51.265625 25.265625 53.625 
Q 29.59375 56 35.59375 56 
Q 45.5625 56 51.78125 48.09375 
Q 58.015625 40.1875 58.015625 27.296875 
Q 58.015625 14.40625 51.78125 6.484375 
Q 45.5625 -1.421875 35.59375 -1.421875 
Q 29.59375 -1.421875 25.265625 0.953125 
Q 20.953125 3.328125 18.109375 8.203125 
z
M 48.6875 27.296875 
Q 48.6875 37.203125 44.609375 42.84375 
Q 40.53125 48.484375 33.40625 48.484375 
Q 26.265625 48.484375 22.1875 42.84375 
Q 18.109375 37.203125 18.109375 27.296875 
Q 18.109375 17.390625 22.1875 11.75 
Q 26.265625 6.109375 33.40625 6.109375 
Q 40.53125 6.109375 44.609375 11.75 
Q 48.6875 17.390625 48.6875 27.296875 
z
" id="DejaVuSans-70"/>
      <path d="M 8.015625 75.875 
L 15.828125 75.875 
Q 23.140625 64.359375 26.78125 53.3125 
Q 30.421875 42.28125 30.421875 31.390625 
Q 30.421875 20.453125 26.78125 9.375 
Q 23.140625 -1.703125 15.828125 -13.1875 
L 8.015625 -13.1875 
Q 14.5 -2 17.703125 9.0625 
Q 20.90625 20.125 20.90625 31.390625 
Q 20.90625 42.671875 17.703125 53.65625 
Q 14.5 64.65625 8.015625 75.875 
z
" id="DejaVuSans-29"/>
     </defs>
     <g transform="translate(459.799219 328.378598)scale(0.1 -0.1)">
      <use xlink:href="#DejaVuSans-50"/>
      <use x="60.255859" xlink:href="#DejaVuSans-6f"/>
      <use x="121.4375" xlink:href="#DejaVuSans-73"/>
      <use x="173.537109" xlink:href="#DejaVuSans-69"/>
      <use x="201.320312" xlink:href="#DejaVuSans-74"/>
      <use x="240.529297" xlink:href="#DejaVuSans-69"/>
      <use x="268.3125" xlink:href="#DejaVuSans-6f"/>
      <use x="329.494141" xlink:href="#DejaVuSans-6e"/>
      <use x="392.873047" xlink:href="#DejaVuSans-20"/>
      <use x="424.660156" xlink:href="#DejaVuSans-69"/>
      <use x="452.443359" xlink:href="#DejaVuSans-6e"/>
      <use x="515.822266" xlink:href="#DejaVuSans-20"/>
      <use x="547.609375" xlink:href="#DejaVuSans-52"/>
      <use x="617.029297" xlink:href="#DejaVuSans-65"/>
      <use x="678.552734" xlink:href="#DejaVuSans-61"/>
      <use x="739.832031" xlink:href="#DejaVuSans-64"/>
      <use x="803.308594" xlink:href="#DejaVuSans-20"/>
      <use x="835.095703" xlink:href="#DejaVuSans-28"/>
      <use x="874.109375" xlink:href="#DejaVuSans-62"/>
      <use x="937.585938" xlink:href="#DejaVuSans-70"/>
      <use x="1001.0625" xlink:href="#DejaVuSans-29"/>
     </g>
    </g>
   </g>
   <g id="matplotlib.axis_2">
    <g id="ytick_1">
     <g id="line2d_1">
      <path clip-path="url(#p5b5bbc4da1)" d="M 32.968125 302.03766 
L 990.638125 302.03766 
" style="fill:none;stroke:#dedede;stroke-linecap:square;"/>
     </g>
     <g id="text_8">
      <!-- 0 -->
      <g transform="translate(20.878125 305.077035)scale(0.08 -0.08)">
       <use xlink:href="#DejaVuSans-30"/>
      </g>
     </g>
    </g>
    <g id="ytick_2">
     <g id="line2d_2">
      <path clip-path="url(#p5b5bbc4da1)" d="M 32.968125 248.19382 
L 990.638125 248.19382 
" style="fill:none;stroke:#dedede;stroke-linecap:square;"/>
     </g>
     <g id="text_9">
      <!-- 1 -->
      <g transform="translate(20.878125 251.233195)scale(0.08 -0.08)">
       <use xlink:href="#DejaVuSans-31"/>
      </g>
     </g>
    </g>
    <g id="ytick_3">
     <g id="line2d_3">
      <path clip-path="url(#p5b5bbc4da1)" d="M 32.968125 194.34998 
L 990.638125 194.34998 
" style="fill:none;stroke:#dedede;stroke-linecap:square;"/>
     </g>
     <g id="text_10">
      <!-- 2 -->
      <g transform="translate(20.878125 197.389355)scale(0.08 -0.08)">
       <use xlink:href="#DejaVuSans-32"/>
      </g>
     </g>
    </g>
    <g id="ytick_4">
     <g id="line2d_4">
      <path clip-path="url(#p5b5bbc4da1)" d="M 32.968125 140.50614 
L 990.638125 140.50614 
" style="fill:none;stroke:#dedede;stroke-linecap:square;"/>
     </g>
     <g id="text_11">
      <!-- 3 -->
      <defs>
       <path d="M 40.578125 39.3125 
Q 47.65625 37.796875 51.625 33 
Q 55.609375 28.21875 55.609375 21.1875 
Q 55.609375 10.40625 48.1875 4.484375 
Q 40.765625 -1.421875 27.09375 -1.421875 
Q 22.515625 -1.421875 17.65625 -0.515625 
Q 12.796875 0.390625 7.625 2.203125 
L 7.625 11.71875 
Q 11.71875 9.328125 16.59375 8.109375 
Q 21.484375 6.890625 26.8125 6.890625 
Q 36.078125 6.890625 40.9375 10.546875 
Q 45.796875 14.203125 45.796875 21.1875 
Q 45.796875 27.640625 41.28125 31.265625 
Q 36.765625 34.90625 28.71875 34.90625 
L 20.21875 34.90625 
L 20.21875 43.015625 
L 29.109375 43.015625 
Q 36.375 43.015625 40.234375 45.921875 
Q 44.09375 48.828125 44.09375 54.296875 
Q 44.09375 59.90625 40.109375 62.90625 
Q 36.140625 65.921875 28.71875 65.921875 
Q 24.65625 65.921875 20.015625 65.03125 
Q 15.375 64.15625 9.8125 62.3125 
L 9.8125 71.09375 
Q 15.4375 72.65625 20.34375 73.4375 
Q 25.25 74.21875 29.59375 74.21875 
Q 40.828125 74.21875 47.359375 69.109375 
Q 53.90625 64.015625 53.90625 55.328125 
Q 53.90625 49.265625 50.4375 45.09375 
Q 46.96875 40.921875 40.578125 39.3125 
z
" id="DejaVuSans-33"/>
      </defs>
      <g transform="translate(20.878125 143.545515)scale(0.08 -0.08)">
       <use xlink:href="#DejaVuSans-33"/>
      </g>
     </g>
    </g>
    <g id="ytick_5">
     <g id="line2d_5">
      <path clip-path="url(#p5b5bbc4da1)" d="M 32.968125 86.6623 
L 990.638125 86.6623 
" style="fill:none;stroke:#dedede;stroke-linecap:square;"/>
     </g>
     <g id="text_12">
      <!-- 4 -->
      <g transform="translate(20.878125 89.701675)scale(0.08 -0.08)">
       <use xlink:href="#DejaVuSans-34"/>
      </g>
     </g>
    </g>
    <g id="ytick_6">
     <g id="line2d_6">
      <path clip-path="url(#p5b5bbc4da1)" d="M 32.968125 32.81846 
L 990.638125 32.81846 
" style="fill:none;stroke:#dedede;stroke-linecap:square;"/>
     </g>
     <g id="text_13">
      <!-- 5 -->
      <defs>
       <path d="M 10.796875 72.90625 
L 49.515625 72.90625 
L 49.515625 64.59375 
L 19.828125 64.59375 
L 19.828125 46.734375 
Q 21.96875 47.46875 24.109375 47.828125 
Q 26.265625 48.1875 28.421875 48.1875 
Q 40.625 48.1875 47.75 41.5 
Q 54.890625 34.8125 54.890625 23.390625 
Q 54.890625 11.625 47.5625 5.09375 
Q 40.234375 -1.421875 26.90625 -1.421875 
Q 22.3125 -1.421875 17.546875 -0.640625 
Q 12.796875 0.140625 7.71875 1.703125 
L 7.71875 11.625 
Q 12.109375 9.234375 16.796875 8.0625 
Q 21.484375 6.890625 26.703125 6.890625 
Q 35.15625 6.890625 40.078125 11.328125 
Q 45.015625 15.765625 45.015625 23.390625 
Q 45.015625 31 40.078125 35.4375 
Q 35.15625 39.890625 26.703125 39.890625 
Q 22.75 39.890625 18.8125 39.015625 
Q 14.890625 38.140625 10.796875 36.28125 
z
" id="DejaVuSans-35"/>
      </defs>
      <g transform="translate(20.878125 35.857835)scale(0.08 -0.08)">
       <use xlink:href="#DejaVuSans-35"/>
      </g>
     </g>
    </g>
    <g id="text_14">
     <!-- Percentage N-Count -->
     <defs>
      <path d="M 41.109375 46.296875 
Q 39.59375 47.171875 37.8125 47.578125 
Q 36.03125 48 33.890625 48 
Q 26.265625 48 22.1875 43.046875 
Q 18.109375 38.09375 18.109375 28.8125 
L 18.109375 0 
L 9.078125 0 
L 9.078125 54.6875 
L 18.109375 54.6875 
L 18.109375 46.1875 
Q 20.953125 51.171875 25.484375 53.578125 
Q 30.03125 56 36.53125 56 
Q 37.453125 56 38.578125 55.875 
Q 39.703125 55.765625 41.0625 55.515625 
z
" id="DejaVuSans-72"/>
      <path d="M 48.78125 52.59375 
L 48.78125 44.1875 
Q 44.96875 46.296875 41.140625 47.34375 
Q 37.3125 48.390625 33.40625 48.390625 
Q 24.65625 48.390625 19.8125 42.84375 
Q 14.984375 37.3125 14.984375 27.296875 
Q 14.984375 17.28125 19.8125 11.734375 
Q 24.65625 6.203125 33.40625 6.203125 
Q 37.3125 6.203125 41.140625 7.25 
Q 44.96875 8.296875 48.78125 10.40625 
L 48.78125 2.09375 
Q 45.015625 0.34375 40.984375 -0.53125 
Q 36.96875 -1.421875 32.421875 -1.421875 
Q 20.0625 -1.421875 12.78125 6.34375 
Q 5.515625 14.109375 5.515625 27.296875 
Q 5.515625 40.671875 12.859375 48.328125 
Q 20.21875 56 33.015625 56 
Q 37.15625 56 41.109375 55.140625 
Q 45.0625 54.296875 48.78125 52.59375 
z
" id="DejaVuSans-63"/>
      <path d="M 45.40625 27.984375 
Q 45.40625 37.75 41.375 43.109375 
Q 37.359375 48.484375 30.078125 48.484375 
Q 22.859375 48.484375 18.828125 43.109375 
Q 14.796875 37.75 14.796875 27.984375 
Q 14.796875 18.265625 18.828125 12.890625 
Q 22.859375 7.515625 30.078125 7.515625 
Q 37.359375 7.515625 41.375 12.890625 
Q 45.40625 18.265625 45.40625 27.984375 
z
M 54.390625 6.78125 
Q 54.390625 -7.171875 48.1875 -13.984375 
Q 42 -20.796875 29.203125 -20.796875 
Q 24.46875 -20.796875 20.265625 -20.09375 
Q 16.0625 -19.390625 12.109375 -17.921875 
L 12.109375 -9.1875 
Q 16.0625 -11.328125 19.921875 -12.34375 
Q 23.78125 -13.375 27.78125 -13.375 
Q 36.625 -13.375 41.015625 -8.765625 
Q 45.40625 -4.15625 45.40625 5.171875 
L 45.40625 9.625 
Q 42.625 4.78125 38.28125 2.390625 
Q 33.9375 0 27.875 0 
Q 17.828125 0 11.671875 7.65625 
Q 5.515625 15.328125 5.515625 27.984375 
Q 5.515625 40.671875 11.671875 48.328125 
Q 17.828125 56 27.875 56 
Q 33.9375 56 38.28125 53.609375 
Q 42.625 51.21875 45.40625 46.390625 
L 45.40625 54.6875 
L 54.390625 54.6875 
z
" id="DejaVuSans-67"/>
      <path d="M 9.8125 72.90625 
L 23.09375 72.90625 
L 55.421875 11.921875 
L 55.421875 72.90625 
L 64.984375 72.90625 
L 64.984375 0 
L 51.703125 0 
L 19.390625 60.984375 
L 19.390625 0 
L 9.8125 0 
z
" id="DejaVuSans-4e"/>
      <path d="M 4.890625 31.390625 
L 31.203125 31.390625 
L 31.203125 23.390625 
L 4.890625 23.390625 
z
" id="DejaVuSans-2d"/>
      <path d="M 64.40625 67.28125 
L 64.40625 56.890625 
Q 59.421875 61.53125 53.78125 63.8125 
Q 48.140625 66.109375 41.796875 66.109375 
Q 29.296875 66.109375 22.65625 58.46875 
Q 16.015625 50.828125 16.015625 36.375 
Q 16.015625 21.96875 22.65625 14.328125 
Q 29.296875 6.6875 41.796875 6.6875 
Q 48.140625 6.6875 53.78125 8.984375 
Q 59.421875 11.28125 64.40625 15.921875 
L 64.40625 5.609375 
Q 59.234375 2.09375 53.4375 0.328125 
Q 47.65625 -1.421875 41.21875 -1.421875 
Q 24.65625 -1.421875 15.125 8.703125 
Q 5.609375 18.84375 5.609375 36.375 
Q 5.609375 53.953125 15.125 64.078125 
Q 24.65625 74.21875 41.21875 74.21875 
Q 47.75 74.21875 53.53125 72.484375 
Q 59.328125 70.75 64.40625 67.28125 
z
" id="DejaVuSans-43"/>
      <path d="M 8.5 21.578125 
L 8.5 54.6875 
L 17.484375 54.6875 
L 17.484375 21.921875 
Q 17.484375 14.15625 20.5 10.265625 
Q 23.53125 6.390625 29.59375 6.390625 
Q 36.859375 6.390625 41.078125 11.03125 
Q 45.3125 15.671875 45.3125 23.6875 
L 45.3125 54.6875 
L 54.296875 54.6875 
L 54.296875 0 
L 45.3125 0 
L 45.3125 8.40625 
Q 42.046875 3.421875 37.71875 1 
Q 33.40625 -1.421875 27.6875 -1.421875 
Q 18.265625 -1.421875 13.375 4.4375 
Q 8.5 10.296875 8.5 21.578125 
z
M 31.109375 56 
z
" id="DejaVuSans-75"/>
     </defs>
     <g transform="translate(14.798438 217.822591)rotate(-90)scale(0.1 -0.1)">
      <use xlink:href="#DejaVuSans-50"/>
      <use x="60.255859" xlink:href="#DejaVuSans-65"/>
      <use x="121.779297" xlink:href="#DejaVuSans-72"/>
      <use x="162.861328" xlink:href="#DejaVuSans-63"/>
      <use x="217.841797" xlink:href="#DejaVuSans-65"/>
      <use x="279.365234" xlink:href="#DejaVuSans-6e"/>
      <use x="342.744141" xlink:href="#DejaVuSans-74"/>
      <use x="381.953125" xlink:href="#DejaVuSans-61"/>
      <use x="443.232422" xlink:href="#DejaVuSans-67"/>
      <use x="506.708984" xlink:href="#DejaVuSans-65"/>
      <use x="568.232422" xlink:href="#DejaVuSans-20"/>
      <use x="600.019531" xlink:href="#DejaVuSans-4e"/>
      <use x="674.824219" xlink:href="#DejaVuSans-2d"/>
      <use x="710.908203" xlink:href="#DejaVuSans-43"/>
      <use x="780.732422" xlink:href="#DejaVuSans-6f"/>
      <use x="841.914062" xlink:href="#DejaVuSans-75"/>
      <use x="905.292969" xlink:href="#DejaVuSans-6e"/>
      <use x="968.671875" xlink:href="#DejaVuSans-74"/>
     </g>
    </g>
   </g>
   <g id="line2d_7">
    <path clip-path="url(#p5b5bbc4da1)" d="M 42.279452 276.767066 
L 51.590779 301.755486 
L 60.902107 301.947728 
L 70.213434 301.329455 
L 79.524761 301.990678 
L 88.836088 301.98588 
L 98.147415 302.03766 
L 107.458742 301.781337 
L 116.77007 301.963524 
L 126.081397 301.68292 
L 144.704051 301.67081 
L 163.326705 301.814169 
L 181.94936 301.853163 
L 200.572014 301.852347 
L 219.194669 301.630616 
L 237.817323 301.612076 
L 256.439977 301.996241 
L 275.062632 301.946885 
L 293.685286 301.661342 
L 312.30794 301.828537 
L 330.930595 301.772584 
L 349.553249 301.801256 
L 368.175903 301.991112 
L 386.798558 301.364928 
L 405.421212 301.68907 
L 424.043866 301.890742 
L 442.666521 301.9936 
L 461.289175 301.164532 
L 479.911829 301.829353 
L 498.534484 301.943211 
L 517.157138 297.518123 
L 535.779792 299.25338 
L 554.402447 302.000273 
L 573.025101 301.976922 
L 591.647756 301.778186 
L 610.27041 299.244397 
L 628.893064 300.017958 
L 647.515719 298.942674 
L 666.138373 301.87839 
L 684.761027 298.165055 
L 703.383682 299.906857 
L 722.006336 296.807201 
L 740.62899 298.164723 
L 759.251645 298.390907 
L 777.874299 298.594237 
L 796.496953 297.534762 
L 815.119608 296.231113 
L 833.742262 298.658624 
L 852.364916 299.368653 
L 870.987571 298.867262 
L 889.610225 301.570325 
L 908.232879 301.96355 
L 926.855534 301.673783 
L 945.478188 302.034649 
" style="fill:none;stroke:#5cb85c;stroke-linecap:square;"/>
   </g>
   <g id="line2d_8">
    <path clip-path="url(#p5b5bbc4da1)" d="M 42.279452 290.060852 
L 51.590779 301.029911 
L 60.902107 301.963935 
L 70.213434 301.121448 
L 79.524761 301.392619 
L 88.836088 301.578185 
L 98.147415 301.48202 
L 107.458742 301.768037 
L 116.77007 300.739641 
L 126.081397 301.914158 
L 144.704051 301.343705 
L 163.326705 301.406609 
L 181.94936 301.1144 
L 200.572014 301.14194 
L 219.194669 301.265238 
L 237.817323 300.865106 
L 256.439977 301.512543 
L 275.062632 300.876563 
L 293.685286 301.771134 
L 312.30794 301.160355 
L 330.930595 301.541494 
L 349.553249 300.968303 
L 368.175903 301.283629 
L 386.798558 301.236728 
L 405.421212 300.909286 
L 424.043866 300.744603 
L 442.666521 300.610053 
L 461.289175 300.828448 
L 479.911829 301.314217 
L 498.534484 300.888231 
L 517.157138 300.960261 
L 535.779792 300.437703 
L 554.402447 301.079672 
L 573.025101 301.042875 
L 591.647756 301.382743 
L 610.27041 300.402698 
L 628.893064 301.635255 
L 647.515719 301.118783 
L 666.138373 300.370097 
L 684.761027 300.802903 
L 703.383682 301.330367 
L 722.006336 300.826712 
L 740.62899 301.208649 
L 759.251645 300.655699 
L 777.874299 300.605253 
L 796.496953 300.847384 
L 815.119608 300.93571 
L 833.742262 300.765634 
L 852.364916 301.509757 
L 870.987571 300.800687 
L 889.610225 300.426385 
L 908.232879 300.432504 
L 926.855534 301.125057 
L 945.478188 300.527316 
" style="fill:none;stroke:#5cb85c;stroke-linecap:square;"/>
   </g>
   <g id="line2d_9">
    <path clip-path="url(#p5b5bbc4da1)" d="M 42.279452 283.373625 
L 51.590779 301.640612 
L 60.902107 301.897891 
L 70.213434 300.173059 
L 79.524761 301.862207 
L 88.836088 301.070689 
L 98.147415 300.691167 
L 107.458742 301.934499 
L 116.77007 301.471693 
L 126.081397 301.593636 
L 144.704051 300.553051 
L 163.326705 300.998599 
L 181.94936 301.396798 
L 200.572014 301.279516 
L 219.194669 300.515673 
L 237.817323 301.523127 
L 256.439977 301.540491 
L 275.062632 301.042033 
L 293.685286 301.40792 
L 312.30794 300.926088 
L 330.930595 301.64443 
L 349.553249 301.109518 
L 368.175903 301.014504 
L 386.798558 301.160248 
L 405.421212 300.428084 
L 424.043866 300.140521 
L 442.666521 300.742148 
L 461.289175 300.881998 
L 479.911829 300.810735 
L 498.534484 301.054703 
L 517.157138 301.13648 
L 535.779792 300.038057 
L 554.402447 301.275511 
L 573.025101 300.890104 
L 591.647756 300.521696 
L 610.27041 300.780231 
L 628.893064 300.811854 
L 647.515719 300.675335 
L 666.138373 300.455127 
L 684.761027 300.836457 
L 703.383682 300.428271 
L 722.006336 299.784215 
L 740.62899 300.585493 
L 759.251645 301.333139 
L 777.874299 300.358062 
L 796.496953 301.234526 
L 815.119608 300.63281 
L 833.742262 300.580078 
L 852.364916 301.227481 
L 870.987571 301.079136 
L 889.610225 300.34189 
L 908.232879 300.472215 
L 926.855534 300.720358 
L 945.478188 300.8709 
" style="fill:none;stroke:#5cb85c;stroke-linecap:square;"/>
   </g>
   <g id="line2d_10">
    <path clip-path="url(#p5b5bbc4da1)" d="M 42.279452 284.618894 
L 51.590779 301.370878 
L 60.902107 301.96702 
L 70.213434 301.028511 
L 79.524761 301.206658 
L 88.836088 301.679739 
L 98.147415 301.678416 
L 107.458742 302.024733 
L 116.77007 301.363315 
L 126.081397 301.431371 
L 144.704051 301.642228 
L 163.326705 300.975079 
L 181.94936 300.653462 
L 200.572014 301.602036 
L 219.194669 301.53305 
L 237.817323 300.904064 
L 256.439977 301.862159 
L 275.062632 301.362519 
L 293.685286 300.678483 
L 312.30794 301.592632 
L 330.930595 301.353106 
L 349.553249 301.469847 
L 368.175903 301.409318 
L 386.798558 301.041473 
L 405.421212 301.28808 
L 424.043866 300.668712 
L 442.666521 300.844428 
L 461.289175 301.391939 
L 479.911829 301.177944 
L 498.534484 301.720288 
L 517.157138 301.61187 
L 535.779792 300.863675 
L 554.402447 301.458333 
L 573.025101 301.370976 
L 591.647756 300.753325 
L 610.27041 300.859893 
L 628.893064 301.190013 
L 647.515719 301.016139 
L 666.138373 300.535022 
L 684.761027 301.389561 
L 703.383682 300.956655 
L 722.006336 301.388086 
L 740.62899 300.410842 
L 759.251645 301.136688 
L 777.874299 301.447123 
L 796.496953 301.314451 
L 815.119608 301.04108 
L 833.742262 300.508543 
L 852.364916 301.359542 
L 870.987571 301.355546 
L 889.610225 300.310344 
L 908.232879 301.240083 
L 926.855534 301.153039 
L 945.478188 301.011597 
" style="fill:none;stroke:#5cb85c;stroke-linecap:square;"/>
   </g>
   <g id="line2d_11">
    <path clip-path="url(#p5b5bbc4da1)" d="M 42.279452 262.461287 
L 51.590779 297.075889 
L 60.902107 301.97529 
L 70.213434 301.891321 
L 79.524761 302.03766 
L 88.836088 302.03766 
L 98.147415 302.035287 
L 107.458742 302.03766 
L 116.77007 301.969678 
L 126.081397 302.037366 
L 144.704051 302.03766 
L 163.326705 302.013966 
L 181.94936 302.026662 
L 200.572014 301.841066 
L 219.194669 301.958619 
L 237.817323 301.998854 
L 256.439977 301.861314 
L 275.062632 301.92513 
L 293.685286 302.037495 
L 312.30794 302.032022 
L 330.930595 302.032481 
L 349.553249 302.03766 
L 368.175903 302.029147 
L 386.798558 302.012866 
L 405.421212 302.03766 
L 424.043866 302.027779 
L 442.666521 302.03766 
L 461.289175 302.03307 
L 479.911829 302.03766 
L 498.534484 302.036959 
L 517.157138 302.002015 
L 535.779792 300.307192 
L 554.402447 302.03766 
L 573.025101 302.008536 
L 591.647756 302.036785 
L 610.27041 301.254386 
L 628.893064 302.037469 
L 647.515719 302.003357 
L 666.138373 301.916765 
L 684.761027 300.919697 
L 703.383682 301.305428 
L 722.006336 297.387429 
L 740.62899 296.445509 
L 759.251645 298.063941 
L 777.874299 296.912368 
L 796.496953 296.816535 
L 815.119608 296.225412 
L 833.742262 298.359208 
L 852.364916 299.287288 
L 870.987571 300.028206 
L 889.610225 300.318702 
L 908.232879 301.877396 
L 926.855534 302.036924 
L 945.478188 302.037521 
" style="fill:none;stroke:#5cb85c;stroke-linecap:square;"/>
   </g>
   <g id="line2d_12">
    <path clip-path="url(#p5b5bbc4da1)" d="M 42.279452 282.242212 
L 51.590779 301.199936 
L 60.902107 297.390118 
L 70.213434 300.349934 
L 79.524761 301.858668 
L 88.836088 301.736232 
L 98.147415 301.509659 
L 107.458742 301.975961 
L 116.77007 301.528671 
L 126.081397 301.715245 
L 144.704051 301.545087 
L 163.326705 301.617189 
L 181.94936 301.361226 
L 200.572014 301.562217 
L 219.194669 301.290502 
L 237.817323 301.554345 
L 256.439977 301.334408 
L 275.062632 301.432887 
L 293.685286 301.402154 
L 312.30794 301.415551 
L 330.930595 301.730666 
L 349.553249 301.150969 
L 368.175903 300.950178 
L 386.798558 301.471028 
L 405.421212 301.326602 
L 424.043866 300.923061 
L 442.666521 301.357128 
L 461.289175 300.751335 
L 479.911829 300.799596 
L 498.534484 301.545004 
L 517.157138 301.017858 
L 535.779792 300.653917 
L 554.402447 301.194618 
L 573.025101 301.20522 
L 591.647756 300.841943 
L 610.27041 301.6436 
L 628.893064 301.189185 
L 647.515719 300.309404 
L 666.138373 301.353628 
L 684.761027 300.05564 
L 703.383682 301.265475 
L 722.006336 301.25913 
L 740.62899 300.719324 
L 759.251645 301.13827 
L 777.874299 300.625714 
L 796.496953 301.394033 
L 815.119608 300.746093 
L 833.742262 301.02305 
L 852.364916 301.483961 
L 870.987571 300.535081 
L 889.610225 300.848114 
L 908.232879 301.250461 
L 926.855534 301.074049 
L 945.478188 300.730315 
" style="fill:none;stroke:#5cb85c;stroke-linecap:square;"/>
   </g>
   <g id="line2d_13">
    <path clip-path="url(#p5b5bbc4da1)" d="M 42.279452 296.24878 
L 51.590779 301.886127 
L 60.902107 302.005493 
L 70.213434 300.459979 
L 79.524761 301.982146 
L 88.836088 301.916324 
L 98.147415 301.771575 
L 107.458742 301.737406 
L 116.77007 301.667282 
L 126.081397 301.260592 
L 144.704051 301.319382 
L 163.326705 300.424677 
L 181.94936 301.234837 
L 200.572014 301.147554 
L 219.194669 300.898264 
L 237.817323 301.259856 
L 256.439977 301.183518 
L 275.062632 301.029677 
L 293.685286 300.986631 
L 312.30794 300.619413 
L 330.930595 301.522739 
L 349.553249 300.679742 
L 368.175903 301.382168 
L 386.798558 300.584227 
L 405.421212 301.070687 
L 424.043866 300.492443 
L 442.666521 300.984372 
L 461.289175 300.776531 
L 479.911829 300.766338 
L 498.534484 301.216065 
L 517.157138 299.488944 
L 535.779792 301.430128 
L 554.402447 301.13301 
L 573.025101 301.072036 
L 591.647756 300.879566 
L 610.27041 300.867181 
L 628.893064 300.799092 
L 647.515719 300.613795 
L 666.138373 300.526777 
L 684.761027 300.91371 
L 703.383682 301.078166 
L 722.006336 300.914041 
L 740.62899 278.172814 
L 759.251645 300.222271 
L 777.874299 300.905958 
L 796.496953 300.787228 
L 815.119608 301.196392 
L 833.742262 300.255207 
L 852.364916 300.865957 
L 870.987571 300.835586 
L 889.610225 301.07029 
L 908.232879 300.285826 
L 926.855534 301.060098 
L 945.478188 301.220409 
" style="fill:none;stroke:#5cb85c;stroke-linecap:square;"/>
   </g>
   <g id="line2d_14">
    <path clip-path="url(#p5b5bbc4da1)" d="M 42.279452 294.741615 
L 51.590779 301.650842 
L 60.902107 301.788003 
L 70.213434 300.987761 
L 79.524761 300.925621 
L 88.836088 301.787555 
L 98.147415 301.640718 
L 107.458742 301.744252 
L 116.77007 301.929761 
L 126.081397 301.439865 
L 144.704051 301.588586 
L 163.326705 301.432413 
L 181.94936 301.392255 
L 200.572014 301.185411 
L 219.194669 301.197668 
L 237.817323 301.425807 
L 256.439977 301.293543 
L 275.062632 301.14776 
L 293.685286 300.904194 
L 312.30794 301.077586 
L 330.930595 300.874684 
L 349.553249 300.83339 
L 368.175903 301.409766 
L 386.798558 301.074375 
L 405.421212 301.566104 
L 424.043866 301.288829 
L 442.666521 301.101022 
L 461.289175 301.180083 
L 479.911829 301.03074 
L 498.534484 301.540984 
L 517.157138 300.500463 
L 535.779792 300.789987 
L 554.402447 301.205079 
L 573.025101 301.085985 
L 591.647756 301.075603 
L 610.27041 300.806311 
L 628.893064 301.007039 
L 647.515719 301.159901 
L 666.138373 300.654985 
L 684.761027 300.902966 
L 703.383682 300.912708 
L 722.006336 300.603259 
L 740.62899 301.217369 
L 759.251645 300.502729 
L 777.874299 300.896584 
L 796.496953 301.196199 
L 815.119608 300.779041 
L 833.742262 301.052574 
L 852.364916 300.872551 
L 870.987571 301.105229 
L 889.610225 301.005521 
L 908.232879 300.151803 
L 926.855534 300.791058 
L 945.478188 300.811199 
" style="fill:none;stroke:#5cb85c;stroke-linecap:square;"/>
   </g>
   <g id="line2d_15">
    <path clip-path="url(#p5b5bbc4da1)" d="M 42.279452 282.219077 
L 51.590779 301.473614 
L 60.902107 301.976254 
L 70.213434 300.369988 
L 79.524761 301.649902 
L 88.836088 302.03766 
L 98.147415 302.03766 
L 107.458742 301.751935 
L 116.77007 301.764232 
L 126.081397 301.79762 
L 144.704051 302.03766 
L 163.326705 301.743479 
L 181.94936 301.890883 
L 200.572014 301.564794 
L 219.194669 301.594142 
L 237.817323 301.604042 
L 256.439977 301.886466 
L 275.062632 301.785675 
L 293.685286 301.695624 
L 312.30794 301.77171 
L 330.930595 301.760756 
L 349.553249 301.520678 
L 368.175903 302.03766 
L 386.798558 301.832388 
L 405.421212 301.87742 
L 424.043866 301.943544 
L 442.666521 301.766164 
L 461.289175 301.994573 
L 479.911829 301.791309 
L 498.534484 301.969767 
L 517.157138 300.303789 
L 535.779792 300.462198 
L 554.402447 301.866228 
L 573.025101 301.85939 
L 591.647756 302.036292 
L 610.27041 300.860508 
L 628.893064 301.693102 
L 647.515719 300.658523 
L 666.138373 301.684319 
L 684.761027 298.556706 
L 703.383682 301.212256 
L 722.006336 296.490737 
L 740.62899 297.440546 
L 759.251645 298.12694 
L 777.874299 297.830224 
L 796.496953 298.434974 
L 815.119608 298.774388 
L 833.742262 298.314445 
L 852.364916 297.771039 
L 870.987571 299.813709 
L 889.610225 301.452773 
L 908.232879 301.745361 
L 926.855534 301.868436 
L 945.478188 301.7758 
" style="fill:none;stroke:#5cb85c;stroke-linecap:square;"/>
   </g>
   <g id="line2d_16">
    <path clip-path="url(#p5b5bbc4da1)" d="M 42.279452 268.861749 
L 51.590779 298.423443 
L 60.902107 302.020912 
L 70.213434 298.058193 
L 79.524761 301.225423 
L 88.836088 301.714387 
L 98.147415 301.866354 
L 107.458742 301.729643 
L 116.77007 301.778904 
L 126.081397 301.785806 
L 144.704051 302.037287 
L 163.326705 302.037395 
L 181.94936 302.019685 
L 200.572014 302.037287 
L 219.194669 302.000915 
L 237.817323 302.037346 
L 256.439977 302.035903 
L 275.062632 302.03766 
L 293.685286 302.03657 
L 312.30794 302.034538 
L 330.930595 302.035265 
L 349.553249 302.037365 
L 368.175903 301.547499 
L 386.798558 301.772042 
L 405.421212 301.966673 
L 424.043866 301.962658 
L 442.666521 301.981291 
L 461.289175 300.978379 
L 479.911829 301.852109 
L 498.534484 301.988261 
L 517.157138 300.726387 
L 535.779792 299.003312 
L 554.402447 301.931578 
L 573.025101 301.931401 
L 591.647756 301.745242 
L 610.27041 301.269708 
L 628.893064 302.03766 
L 647.515719 300.955241 
L 666.138373 302.034204 
L 684.761027 299.959485 
L 703.383682 300.524943 
L 722.006336 295.96976 
L 740.62899 298.107081 
L 759.251645 294.64542 
L 777.874299 294.956481 
L 796.496953 297.400475 
L 815.119608 295.846841 
L 833.742262 293.702019 
L 852.364916 295.095077 
L 870.987571 298.070984 
L 889.610225 301.738998 
L 908.232879 301.948296 
L 926.855534 302.03766 
L 945.478188 301.943024 
" style="fill:none;stroke:#5cb85c;stroke-linecap:square;"/>
   </g>
   <g id="line2d_17">
    <path clip-path="url(#p5b5bbc4da1)" d="M 42.279452 292.306827 
L 51.590779 301.803072 
L 60.902107 302.019963 
L 70.213434 301.424919 
L 79.524761 301.590794 
L 88.836088 301.939726 
L 98.147415 301.762705 
L 107.458742 301.711912 
L 116.77007 301.727911 
L 126.081397 301.661239 
L 144.704051 301.597508 
L 163.326705 301.397842 
L 181.94936 301.316328 
L 200.572014 301.270525 
L 219.194669 301.407385 
L 237.817323 301.265312 
L 256.439977 301.129472 
L 275.062632 301.526771 
L 293.685286 300.89497 
L 312.30794 301.706193 
L 330.930595 301.252151 
L 349.553249 301.513344 
L 368.175903 300.953566 
L 386.798558 301.306159 
L 405.421212 301.144074 
L 424.043866 300.959619 
L 442.666521 301.132293 
L 461.289175 300.569608 
L 479.911829 301.658941 
L 498.534484 301.359293 
L 517.157138 301.10874 
L 535.779792 301.130347 
L 554.402447 301.016174 
L 573.025101 300.352409 
L 591.647756 300.675876 
L 610.27041 300.911235 
L 628.893064 301.629292 
L 647.515719 300.837189 
L 666.138373 301.276124 
L 684.761027 301.147212 
L 703.383682 300.814631 
L 722.006336 300.861428 
L 740.62899 301.0705 
L 759.251645 301.3815 
L 777.874299 300.637884 
L 796.496953 301.253094 
L 815.119608 301.119621 
L 833.742262 301.083927 
L 852.364916 301.565878 
L 870.987571 300.82492 
L 889.610225 300.76918 
L 908.232879 301.561762 
L 926.855534 301.236134 
L 945.478188 299.061121 
" style="fill:none;stroke:#5cb85c;stroke-linecap:square;"/>
   </g>
   <g id="line2d_18">
    <path clip-path="url(#p5b5bbc4da1)" d="M 42.279452 277.936033 
L 51.590779 300.226761 
L 60.902107 301.881123 
L 70.213434 298.026985 
L 79.524761 301.318056 
L 88.836088 301.784248 
L 98.147415 301.342018 
L 107.458742 301.839892 
L 116.77007 301.131397 
L 126.081397 301.503952 
L 144.704051 301.473489 
L 163.326705 301.885639 
L 181.94936 300.948391 
L 200.572014 301.660124 
L 219.194669 301.581457 
L 237.817323 301.07376 
L 256.439977 300.778686 
L 275.062632 301.18289 
L 293.685286 301.127022 
L 312.30794 301.367814 
L 330.930595 301.147305 
L 349.553249 301.051335 
L 368.175903 301.052805 
L 386.798558 301.620197 
L 405.421212 301.30718 
L 424.043866 301.358498 
L 442.666521 300.897346 
L 461.289175 301.551227 
L 479.911829 301.294286 
L 498.534484 301.129006 
L 517.157138 301.534622 
L 535.779792 301.127802 
L 554.402447 301.109868 
L 573.025101 301.057064 
L 591.647756 301.442795 
L 610.27041 301.313739 
L 628.893064 301.195842 
L 647.515719 300.619691 
L 666.138373 301.377677 
L 684.761027 301.3647 
L 703.383682 301.04045 
L 722.006336 301.259091 
L 740.62899 300.787694 
L 759.251645 301.405823 
L 777.874299 301.330078 
L 796.496953 300.915471 
L 815.119608 301.124074 
L 833.742262 301.193683 
L 852.364916 300.754384 
L 870.987571 301.324026 
L 889.610225 301.051991 
L 908.232879 301.456237 
L 926.855534 300.831839 
L 945.478188 301.033177 
" style="fill:none;stroke:#5cb85c;stroke-linecap:square;"/>
   </g>
   <g id="line2d_19">
    <path clip-path="url(#p5b5bbc4da1)" d="M 32.968125 302.03766 
L 990.638125 302.03766 
" style="fill:none;stroke:#dedede;stroke-linecap:square;stroke-width:2;"/>
   </g>
   <g id="text_15">
    <!-- FastQC: Per Base N Content -->
    <defs>
     <path d="M 9.8125 72.90625 
L 51.703125 72.90625 
L 51.703125 64.59375 
L 19.671875 64.59375 
L 19.671875 43.109375 
L 48.578125 43.109375 
L 48.578125 34.8125 
L 19.671875 34.8125 
L 19.671875 0 
L 9.8125 0 
z
" id="DejaVuSans-46"/>
     <path d="M 39.40625 66.21875 
Q 28.65625 66.21875 22.328125 58.203125 
Q 16.015625 50.203125 16.015625 36.375 
Q 16.015625 22.609375 22.328125 14.59375 
Q 28.65625 6.59375 39.40625 6.59375 
Q 50.140625 6.59375 56.421875 14.59375 
Q 62.703125 22.609375 62.703125 36.375 
Q 62.703125 50.203125 56.421875 58.203125 
Q 50.140625 66.21875 39.40625 66.21875 
z
M 53.21875 1.3125 
L 66.21875 -12.890625 
L 54.296875 -12.890625 
L 43.5 -1.21875 
Q 41.890625 -1.3125 41.03125 -1.359375 
Q 40.1875 -1.421875 39.40625 -1.421875 
Q 24.03125 -1.421875 14.8125 8.859375 
Q 5.609375 19.140625 5.609375 36.375 
Q 5.609375 53.65625 14.8125 63.9375 
Q 24.03125 74.21875 39.40625 74.21875 
Q 54.734375 74.21875 63.90625 63.9375 
Q 73.09375 53.65625 73.09375 36.375 
Q 73.09375 23.6875 67.984375 14.640625 
Q 62.890625 5.609375 53.21875 1.3125 
z
" id="DejaVuSans-51"/>
     <path d="M 11.71875 12.40625 
L 22.015625 12.40625 
L 22.015625 0 
L 11.71875 0 
z
M 11.71875 51.703125 
L 22.015625 51.703125 
L 22.015625 39.3125 
L 11.71875 39.3125 
z
" id="DejaVuSans-3a"/>
     <path d="M 19.671875 34.8125 
L 19.671875 8.109375 
L 35.5 8.109375 
Q 43.453125 8.109375 47.28125 11.40625 
Q 51.125 14.703125 51.125 21.484375 
Q 51.125 28.328125 47.28125 31.5625 
Q 43.453125 34.8125 35.5 34.8125 
z
M 19.671875 64.796875 
L 19.671875 42.828125 
L 34.28125 42.828125 
Q 41.5 42.828125 45.03125 45.53125 
Q 48.578125 48.25 48.578125 53.8125 
Q 48.578125 59.328125 45.03125 62.0625 
Q 41.5 64.796875 34.28125 64.796875 
z
M 9.8125 72.90625 
L 35.015625 72.90625 
Q 46.296875 72.90625 52.390625 68.21875 
Q 58.5 63.53125 58.5 54.890625 
Q 58.5 48.1875 55.375 44.234375 
Q 52.25 40.28125 46.1875 39.3125 
Q 53.46875 37.75 57.5 32.78125 
Q 61.53125 27.828125 61.53125 20.40625 
Q 61.53125 10.640625 54.890625 5.3125 
Q 48.25 0 35.984375 0 
L 9.8125 0 
z
" id="DejaVuSans-42"/>
    </defs>
    <g transform="translate(399.944375 19.3575)scale(0.16 -0.16)">
     <use xlink:href="#DejaVuSans-46"/>
     <use x="57.378906" xlink:href="#DejaVuSans-61"/>
     <use x="118.658203" xlink:href="#DejaVuSans-73"/>
     <use x="170.757812" xlink:href="#DejaVuSans-74"/>
     <use x="209.966797" xlink:href="#DejaVuSans-51"/>
     <use x="288.677734" xlink:href="#DejaVuSans-43"/>
     <use x="358.501953" xlink:href="#DejaVuSans-3a"/>
     <use x="392.193359" xlink:href="#DejaVuSans-20"/>
     <use x="423.980469" xlink:href="#DejaVuSans-50"/>
     <use x="484.236328" xlink:href="#DejaVuSans-65"/>
     <use x="545.759766" xlink:href="#DejaVuSans-72"/>
     <use x="586.873047" xlink:href="#DejaVuSans-20"/>
     <use x="618.660156" xlink:href="#DejaVuSans-42"/>
     <use x="687.263672" xlink:href="#DejaVuSans-61"/>
     <use x="748.542969" xlink:href="#DejaVuSans-73"/>
     <use x="800.642578" xlink:href="#DejaVuSans-65"/>
     <use x="862.166016" xlink:href="#DejaVuSans-20"/>
     <use x="893.953125" xlink:href="#DejaVuSans-4e"/>
     <use x="968.757812" xlink:href="#DejaVuSans-20"/>
     <use x="1000.544922" xlink:href="#DejaVuSans-43"/>
     <use x="1070.369141" xlink:href="#DejaVuSans-6f"/>
     <use x="1131.550781" xlink:href="#DejaVuSans-6e"/>
     <use x="1194.929688" xlink:href="#DejaVuSans-74"/>
     <use x="1234.138672" xlink:href="#DejaVuSans-65"/>
     <use x="1295.662109" xlink:href="#DejaVuSans-6e"/>
     <use x="1359.041016" xlink:href="#DejaVuSans-74"/>
    </g>
   </g>
   <g id="legend_1">
    <g id="line2d_20">
     <path d="M 40.168125 325.379634 
L 56.168125 325.379634 
" style="fill:none;stroke:#5cb85c;stroke-linecap:square;"/>
    </g>
    <g id="line2d_21"/>
    <g id="text_16">
     <!-- fastqc | SRR9264343_S0_L001_R2_001 -->
     <defs>
      <path d="M 37.109375 75.984375 
L 37.109375 68.5 
L 28.515625 68.5 
Q 23.6875 68.5 21.796875 66.546875 
Q 19.921875 64.59375 19.921875 59.515625 
L 19.921875 54.6875 
L 34.71875 54.6875 
L 34.71875 47.703125 
L 19.921875 47.703125 
L 19.921875 0 
L 10.890625 0 
L 10.890625 47.703125 
L 2.296875 47.703125 
L 2.296875 54.6875 
L 10.890625 54.6875 
L 10.890625 58.5 
Q 10.890625 67.625 15.140625 71.796875 
Q 19.390625 75.984375 28.609375 75.984375 
z
" id="DejaVuSans-66"/>
      <path d="M 14.796875 27.296875 
Q 14.796875 17.390625 18.875 11.75 
Q 22.953125 6.109375 30.078125 6.109375 
Q 37.203125 6.109375 41.296875 11.75 
Q 45.40625 17.390625 45.40625 27.296875 
Q 45.40625 37.203125 41.296875 42.84375 
Q 37.203125 48.484375 30.078125 48.484375 
Q 22.953125 48.484375 18.875 42.84375 
Q 14.796875 37.203125 14.796875 27.296875 
z
M 45.40625 8.203125 
Q 42.578125 3.328125 38.25 0.953125 
Q 33.9375 -1.421875 27.875 -1.421875 
Q 17.96875 -1.421875 11.734375 6.484375 
Q 5.515625 14.40625 5.515625 27.296875 
Q 5.515625 40.1875 11.734375 48.09375 
Q 17.96875 56 27.875 56 
Q 33.9375 56 38.25 53.625 
Q 42.578125 51.265625 45.40625 46.390625 
L 45.40625 54.6875 
L 54.390625 54.6875 
L 54.390625 -20.796875 
L 45.40625 -20.796875 
z
" id="DejaVuSans-71"/>
      <path d="M 21 76.421875 
L 21 -23.578125 
L 12.703125 -23.578125 
L 12.703125 76.421875 
z
" id="DejaVuSans-7c"/>
      <path d="M 53.515625 70.515625 
L 53.515625 60.890625 
Q 47.90625 63.578125 42.921875 64.890625 
Q 37.9375 66.21875 33.296875 66.21875 
Q 25.25 66.21875 20.875 63.09375 
Q 16.5 59.96875 16.5 54.203125 
Q 16.5 49.359375 19.40625 46.890625 
Q 22.3125 44.4375 30.421875 42.921875 
L 36.375 41.703125 
Q 47.40625 39.59375 52.65625 34.296875 
Q 57.90625 29 57.90625 20.125 
Q 57.90625 9.515625 50.796875 4.046875 
Q 43.703125 -1.421875 29.984375 -1.421875 
Q 24.8125 -1.421875 18.96875 -0.25 
Q 13.140625 0.921875 6.890625 3.21875 
L 6.890625 13.375 
Q 12.890625 10.015625 18.65625 8.296875 
Q 24.421875 6.59375 29.984375 6.59375 
Q 38.421875 6.59375 43.015625 9.90625 
Q 47.609375 13.234375 47.609375 19.390625 
Q 47.609375 24.75 44.3125 27.78125 
Q 41.015625 30.8125 33.5 32.328125 
L 27.484375 33.5 
Q 16.453125 35.6875 11.515625 40.375 
Q 6.59375 45.0625 6.59375 53.421875 
Q 6.59375 63.09375 13.40625 68.65625 
Q 20.21875 74.21875 32.171875 74.21875 
Q 37.3125 74.21875 42.625 73.28125 
Q 47.953125 72.359375 53.515625 70.515625 
z
" id="DejaVuSans-53"/>
      <path d="M 10.984375 1.515625 
L 10.984375 10.5 
Q 14.703125 8.734375 18.5 7.8125 
Q 22.3125 6.890625 25.984375 6.890625 
Q 35.75 6.890625 40.890625 13.453125 
Q 46.046875 20.015625 46.78125 33.40625 
Q 43.953125 29.203125 39.59375 26.953125 
Q 35.25 24.703125 29.984375 24.703125 
Q 19.046875 24.703125 12.671875 31.3125 
Q 6.296875 37.9375 6.296875 49.421875 
Q 6.296875 60.640625 12.9375 67.421875 
Q 19.578125 74.21875 30.609375 74.21875 
Q 43.265625 74.21875 49.921875 64.515625 
Q 56.59375 54.828125 56.59375 36.375 
Q 56.59375 19.140625 48.40625 8.859375 
Q 40.234375 -1.421875 26.421875 -1.421875 
Q 22.703125 -1.421875 18.890625 -0.6875 
Q 15.09375 0.046875 10.984375 1.515625 
z
M 30.609375 32.421875 
Q 37.25 32.421875 41.125 36.953125 
Q 45.015625 41.5 45.015625 49.421875 
Q 45.015625 57.28125 41.125 61.84375 
Q 37.25 66.40625 30.609375 66.40625 
Q 23.96875 66.40625 20.09375 61.84375 
Q 16.21875 57.28125 16.21875 49.421875 
Q 16.21875 41.5 20.09375 36.953125 
Q 23.96875 32.421875 30.609375 32.421875 
z
" id="DejaVuSans-39"/>
      <path d="M 50.984375 -16.609375 
L 50.984375 -23.578125 
L -0.984375 -23.578125 
L -0.984375 -16.609375 
z
" id="DejaVuSans-5f"/>
      <path d="M 9.8125 72.90625 
L 19.671875 72.90625 
L 19.671875 8.296875 
L 55.171875 8.296875 
L 55.171875 0 
L 9.8125 0 
z
" id="DejaVuSans-4c"/>
     </defs>
     <g transform="translate(62.568125 328.179634)scale(0.08 -0.08)">
      <use xlink:href="#DejaVuSans-66"/>
      <use x="35.205078" xlink:href="#DejaVuSans-61"/>
      <use x="96.484375" xlink:href="#DejaVuSans-73"/>
      <use x="148.583984" xlink:href="#DejaVuSans-74"/>
      <use x="187.792969" xlink:href="#DejaVuSans-71"/>
      <use x="251.269531" xlink:href="#DejaVuSans-63"/>
      <use x="306.25" xlink:href="#DejaVuSans-20"/>
      <use x="338.037109" xlink:href="#DejaVuSans-7c"/>
      <use x="371.728516" xlink:href="#DejaVuSans-20"/>
      <use x="403.515625" xlink:href="#DejaVuSans-53"/>
      <use x="466.992188" xlink:href="#DejaVuSans-52"/>
      <use x="536.474609" xlink:href="#DejaVuSans-52"/>
      <use x="605.957031" xlink:href="#DejaVuSans-39"/>
      <use x="669.580078" xlink:href="#DejaVuSans-32"/>
      <use x="733.203125" xlink:href="#DejaVuSans-36"/>
      <use x="796.826172" xlink:href="#DejaVuSans-34"/>
      <use x="860.449219" xlink:href="#DejaVuSans-33"/>
      <use x="924.072266" xlink:href="#DejaVuSans-34"/>
      <use x="987.695312" xlink:href="#DejaVuSans-33"/>
      <use x="1051.318359" xlink:href="#DejaVuSans-5f"/>
      <use x="1101.318359" xlink:href="#DejaVuSans-53"/>
      <use x="1164.794922" xlink:href="#DejaVuSans-30"/>
      <use x="1228.417969" xlink:href="#DejaVuSans-5f"/>
      <use x="1278.417969" xlink:href="#DejaVuSans-4c"/>
      <use x="1334.130859" xlink:href="#DejaVuSans-30"/>
      <use x="1397.753906" xlink:href="#DejaVuSans-30"/>
      <use x="1461.376953" xlink:href="#DejaVuSans-31"/>
      <use x="1525" xlink:href="#DejaVuSans-5f"/>
      <use x="1575" xlink:href="#DejaVuSans-52"/>
      <use x="1644.482422" xlink:href="#DejaVuSans-32"/>
      <use x="1708.105469" xlink:href="#DejaVuSans-5f"/>
      <use x="1758.105469" xlink:href="#DejaVuSans-30"/>
      <use x="1821.728516" xlink:href="#DejaVuSans-30"/>
      <use x="1885.351562" xlink:href="#DejaVuSans-31"/>
     </g>
    </g>
    <g id="line2d_22">
     <path d="M 40.168125 337.379634 
L 56.168125 337.379634 
" style="fill:none;stroke:#5cb85c;stroke-linecap:square;"/>
    </g>
    <g id="line2d_23"/>
    <g id="text_17">
     <!-- fastqc | SRR9264344_S0_L001_R2_001 -->
     <g transform="translate(62.568125 340.179634)scale(0.08 -0.08)">
      <use xlink:href="#DejaVuSans-66"/>
      <use x="35.205078" xlink:href="#DejaVuSans-61"/>
      <use x="96.484375" xlink:href="#DejaVuSans-73"/>
      <use x="148.583984" xlink:href="#DejaVuSans-74"/>
      <use x="187.792969" xlink:href="#DejaVuSans-71"/>
      <use x="251.269531" xlink:href="#DejaVuSans-63"/>
      <use x="306.25" xlink:href="#DejaVuSans-20"/>
      <use x="338.037109" xlink:href="#DejaVuSans-7c"/>
      <use x="371.728516" xlink:href="#DejaVuSans-20"/>
      <use x="403.515625" xlink:href="#DejaVuSans-53"/>
      <use x="466.992188" xlink:href="#DejaVuSans-52"/>
      <use x="536.474609" xlink:href="#DejaVuSans-52"/>
      <use x="605.957031" xlink:href="#DejaVuSans-39"/>
      <use x="669.580078" xlink:href="#DejaVuSans-32"/>
      <use x="733.203125" xlink:href="#DejaVuSans-36"/>
      <use x="796.826172" xlink:href="#DejaVuSans-34"/>
      <use x="860.449219" xlink:href="#DejaVuSans-33"/>
      <use x="924.072266" xlink:href="#DejaVuSans-34"/>
      <use x="987.695312" xlink:href="#DejaVuSans-34"/>
      <use x="1051.318359" xlink:href="#DejaVuSans-5f"/>
      <use x="1101.318359" xlink:href="#DejaVuSans-53"/>
      <use x="1164.794922" xlink:href="#DejaVuSans-30"/>
      <use x="1228.417969" xlink:href="#DejaVuSans-5f"/>
      <use x="1278.417969" xlink:href="#DejaVuSans-4c"/>
      <use x="1334.130859" xlink:href="#DejaVuSans-30"/>
      <use x="1397.753906" xlink:href="#DejaVuSans-30"/>
      <use x="1461.376953" xlink:href="#DejaVuSans-31"/>
      <use x="1525" xlink:href="#DejaVuSans-5f"/>
      <use x="1575" xlink:href="#DejaVuSans-52"/>
      <use x="1644.482422" xlink:href="#DejaVuSans-32"/>
      <use x="1708.105469" xlink:href="#DejaVuSans-5f"/>
      <use x="1758.105469" xlink:href="#DejaVuSans-30"/>
      <use x="1821.728516" xlink:href="#DejaVuSans-30"/>
      <use x="1885.351562" xlink:href="#DejaVuSans-31"/>
     </g>
    </g>
    <g id="line2d_24">
     <path d="M 40.168125 349.379634 
L 56.168125 349.379634 
" style="fill:none;stroke:#5cb85c;stroke-linecap:square;"/>
    </g>
    <g id="line2d_25"/>
    <g id="text_18">
     <!-- fastqc | SRR9264345_S0_L001_R2_001 -->
     <g transform="translate(62.568125 352.179634)scale(0.08 -0.08)">
      <use xlink:href="#DejaVuSans-66"/>
      <use x="35.205078" xlink:href="#DejaVuSans-61"/>
      <use x="96.484375" xlink:href="#DejaVuSans-73"/>
      <use x="148.583984" xlink:href="#DejaVuSans-74"/>
      <use x="187.792969" xlink:href="#DejaVuSans-71"/>
      <use x="251.269531" xlink:href="#DejaVuSans-63"/>
      <use x="306.25" xlink:href="#DejaVuSans-20"/>
      <use x="338.037109" xlink:href="#DejaVuSans-7c"/>
      <use x="371.728516" xlink:href="#DejaVuSans-20"/>
      <use x="403.515625" xlink:href="#DejaVuSans-53"/>
      <use x="466.992188" xlink:href="#DejaVuSans-52"/>
      <use x="536.474609" xlink:href="#DejaVuSans-52"/>
      <use x="605.957031" xlink:href="#DejaVuSans-39"/>
      <use x="669.580078" xlink:href="#DejaVuSans-32"/>
      <use x="733.203125" xlink:href="#DejaVuSans-36"/>
      <use x="796.826172" xlink:href="#DejaVuSans-34"/>
      <use x="860.449219" xlink:href="#DejaVuSans-33"/>
      <use x="924.072266" xlink:href="#DejaVuSans-34"/>
      <use x="987.695312" xlink:href="#DejaVuSans-35"/>
      <use x="1051.318359" xlink:href="#DejaVuSans-5f"/>
      <use x="1101.318359" xlink:href="#DejaVuSans-53"/>
      <use x="1164.794922" xlink:href="#DejaVuSans-30"/>
      <use x="1228.417969" xlink:href="#DejaVuSans-5f"/>
      <use x="1278.417969" xlink:href="#DejaVuSans-4c"/>
      <use x="1334.130859" xlink:href="#DejaVuSans-30"/>
      <use x="1397.753906" xlink:href="#DejaVuSans-30"/>
      <use x="1461.376953" xlink:href="#DejaVuSans-31"/>
      <use x="1525" xlink:href="#DejaVuSans-5f"/>
      <use x="1575" xlink:href="#DejaVuSans-52"/>
      <use x="1644.482422" xlink:href="#DejaVuSans-32"/>
      <use x="1708.105469" xlink:href="#DejaVuSans-5f"/>
      <use x="1758.105469" xlink:href="#DejaVuSans-30"/>
      <use x="1821.728516" xlink:href="#DejaVuSans-30"/>
      <use x="1885.351562" xlink:href="#DejaVuSans-31"/>
     </g>
    </g>
    <g id="line2d_26">
     <path d="M 231.405313 325.379634 
L 247.405313 325.379634 
" style="fill:none;stroke:#5cb85c;stroke-linecap:square;"/>
    </g>
    <g id="line2d_27"/>
    <g id="text_19">
     <!-- fastqc | SRR9264346_S0_L001_R2_001 -->
     <g transform="translate(253.805313 328.179634)scale(0.08 -0.08)">
      <use xlink:href="#DejaVuSans-66"/>
      <use x="35.205078" xlink:href="#DejaVuSans-61"/>
      <use x="96.484375" xlink:href="#DejaVuSans-73"/>
      <use x="148.583984" xlink:href="#DejaVuSans-74"/>
      <use x="187.792969" xlink:href="#DejaVuSans-71"/>
      <use x="251.269531" xlink:href="#DejaVuSans-63"/>
      <use x="306.25" xlink:href="#DejaVuSans-20"/>
      <use x="338.037109" xlink:href="#DejaVuSans-7c"/>
      <use x="371.728516" xlink:href="#DejaVuSans-20"/>
      <use x="403.515625" xlink:href="#DejaVuSans-53"/>
      <use x="466.992188" xlink:href="#DejaVuSans-52"/>
      <use x="536.474609" xlink:href="#DejaVuSans-52"/>
      <use x="605.957031" xlink:href="#DejaVuSans-39"/>
      <use x="669.580078" xlink:href="#DejaVuSans-32"/>
      <use x="733.203125" xlink:href="#DejaVuSans-36"/>
      <use x="796.826172" xlink:href="#DejaVuSans-34"/>
      <use x="860.449219" xlink:href="#DejaVuSans-33"/>
      <use x="924.072266" xlink:href="#DejaVuSans-34"/>
      <use x="987.695312" xlink:href="#DejaVuSans-36"/>
      <use x="1051.318359" xlink:href="#DejaVuSans-5f"/>
      <use x="1101.318359" xlink:href="#DejaVuSans-53"/>
      <use x="1164.794922" xlink:href="#DejaVuSans-30"/>
      <use x="1228.417969" xlink:href="#DejaVuSans-5f"/>
      <use x="1278.417969" xlink:href="#DejaVuSans-4c"/>
      <use x="1334.130859" xlink:href="#DejaVuSans-30"/>
      <use x="1397.753906" xlink:href="#DejaVuSans-30"/>
      <use x="1461.376953" xlink:href="#DejaVuSans-31"/>
      <use x="1525" xlink:href="#DejaVuSans-5f"/>
      <use x="1575" xlink:href="#DejaVuSans-52"/>
      <use x="1644.482422" xlink:href="#DejaVuSans-32"/>
      <use x="1708.105469" xlink:href="#DejaVuSans-5f"/>
      <use x="1758.105469" xlink:href="#DejaVuSans-30"/>
      <use x="1821.728516" xlink:href="#DejaVuSans-30"/>
      <use x="1885.351562" xlink:href="#DejaVuSans-31"/>
     </g>
    </g>
    <g id="line2d_28">
     <path d="M 231.405313 337.379634 
L 247.405313 337.379634 
" style="fill:none;stroke:#5cb85c;stroke-linecap:square;"/>
    </g>
    <g id="line2d_29"/>
    <g id="text_20">
     <!-- fastqc | SRR9264347_S0_L001_R2_001 -->
     <defs>
      <path d="M 8.203125 72.90625 
L 55.078125 72.90625 
L 55.078125 68.703125 
L 28.609375 0 
L 18.3125 0 
L 43.21875 64.59375 
L 8.203125 64.59375 
z
" id="DejaVuSans-37"/>
     </defs>
     <g transform="translate(253.805313 340.179634)scale(0.08 -0.08)">
      <use xlink:href="#DejaVuSans-66"/>
      <use x="35.205078" xlink:href="#DejaVuSans-61"/>
      <use x="96.484375" xlink:href="#DejaVuSans-73"/>
      <use x="148.583984" xlink:href="#DejaVuSans-74"/>
      <use x="187.792969" xlink:href="#DejaVuSans-71"/>
      <use x="251.269531" xlink:href="#DejaVuSans-63"/>
      <use x="306.25" xlink:href="#DejaVuSans-20"/>
      <use x="338.037109" xlink:href="#DejaVuSans-7c"/>
      <use x="371.728516" xlink:href="#DejaVuSans-20"/>
      <use x="403.515625" xlink:href="#DejaVuSans-53"/>
      <use x="466.992188" xlink:href="#DejaVuSans-52"/>
      <use x="536.474609" xlink:href="#DejaVuSans-52"/>
      <use x="605.957031" xlink:href="#DejaVuSans-39"/>
      <use x="669.580078" xlink:href="#DejaVuSans-32"/>
      <use x="733.203125" xlink:href="#DejaVuSans-36"/>
      <use x="796.826172" xlink:href="#DejaVuSans-34"/>
      <use x="860.449219" xlink:href="#DejaVuSans-33"/>
      <use x="924.072266" xlink:href="#DejaVuSans-34"/>
      <use x="987.695312" xlink:href="#DejaVuSans-37"/>
      <use x="1051.318359" xlink:href="#DejaVuSans-5f"/>
      <use x="1101.318359" xlink:href="#DejaVuSans-53"/>
      <use x="1164.794922" xlink:href="#DejaVuSans-30"/>
      <use x="1228.417969" xlink:href="#DejaVuSans-5f"/>
      <use x="1278.417969" xlink:href="#DejaVuSans-4c"/>
      <use x="1334.130859" xlink:href="#DejaVuSans-30"/>
      <use x="1397.753906" xlink:href="#DejaVuSans-30"/>
      <use x="1461.376953" xlink:href="#DejaVuSans-31"/>
      <use x="1525" xlink:href="#DejaVuSans-5f"/>
      <use x="1575" xlink:href="#DejaVuSans-52"/>
      <use x="1644.482422" xlink:href="#DejaVuSans-32"/>
      <use x="1708.105469" xlink:href="#DejaVuSans-5f"/>
      <use x="1758.105469" xlink:href="#DejaVuSans-30"/>
      <use x="1821.728516" xlink:href="#DejaVuSans-30"/>
      <use x="1885.351562" xlink:href="#DejaVuSans-31"/>
     </g>
    </g>
    <g id="line2d_30">
     <path d="M 231.405313 349.379634 
L 247.405313 349.379634 
" style="fill:none;stroke:#5cb85c;stroke-linecap:square;"/>
    </g>
    <g id="line2d_31"/>
    <g id="text_21">
     <!-- fastqc | SRR9264348_S0_L001_R2_001 -->
     <g transform="translate(253.805313 352.179634)scale(0.08 -0.08)">
      <use xlink:href="#DejaVuSans-66"/>
      <use x="35.205078" xlink:href="#DejaVuSans-61"/>
      <use x="96.484375" xlink:href="#DejaVuSans-73"/>
      <use x="148.583984" xlink:href="#DejaVuSans-74"/>
      <use x="187.792969" xlink:href="#DejaVuSans-71"/>
      <use x="251.269531" xlink:href="#DejaVuSans-63"/>
      <use x="306.25" xlink:href="#DejaVuSans-20"/>
      <use x="338.037109" xlink:href="#DejaVuSans-7c"/>
      <use x="371.728516" xlink:href="#DejaVuSans-20"/>
      <use x="403.515625" xlink:href="#DejaVuSans-53"/>
      <use x="466.992188" xlink:href="#DejaVuSans-52"/>
      <use x="536.474609" xlink:href="#DejaVuSans-52"/>
      <use x="605.957031" xlink:href="#DejaVuSans-39"/>
      <use x="669.580078" xlink:href="#DejaVuSans-32"/>
      <use x="733.203125" xlink:href="#DejaVuSans-36"/>
      <use x="796.826172" xlink:href="#DejaVuSans-34"/>
      <use x="860.449219" xlink:href="#DejaVuSans-33"/>
      <use x="924.072266" xlink:href="#DejaVuSans-34"/>
      <use x="987.695312" xlink:href="#DejaVuSans-38"/>
      <use x="1051.318359" xlink:href="#DejaVuSans-5f"/>
      <use x="1101.318359" xlink:href="#DejaVuSans-53"/>
      <use x="1164.794922" xlink:href="#DejaVuSans-30"/>
      <use x="1228.417969" xlink:href="#DejaVuSans-5f"/>
      <use x="1278.417969" xlink:href="#DejaVuSans-4c"/>
      <use x="1334.130859" xlink:href="#DejaVuSans-30"/>
      <use x="1397.753906" xlink:href="#DejaVuSans-30"/>
      <use x="1461.376953" xlink:href="#DejaVuSans-31"/>
      <use x="1525" xlink:href="#DejaVuSans-5f"/>
      <use x="1575" xlink:href="#DejaVuSans-52"/>
      <use x="1644.482422" xlink:href="#DejaVuSans-32"/>
      <use x="1708.105469" xlink:href="#DejaVuSans-5f"/>
      <use x="1758.105469" xlink:href="#DejaVuSans-30"/>
      <use x="1821.728516" xlink:href="#DejaVuSans-30"/>
      <use x="1885.351562" xlink:href="#DejaVuSans-31"/>
     </g>
    </g>
    <g id="line2d_32">
     <path d="M 422.6425 325.379634 
L 438.6425 325.379634 
" style="fill:none;stroke:#5cb85c;stroke-linecap:square;"/>
    </g>
    <g id="line2d_33"/>
    <g id="text_22">
     <!-- fastqc | SRR9264349_S0_L001_R2_001 -->
     <g transform="translate(445.0425 328.179634)scale(0.08 -0.08)">
      <use xlink:href="#DejaVuSans-66"/>
      <use x="35.205078" xlink:href="#DejaVuSans-61"/>
      <use x="96.484375" xlink:href="#DejaVuSans-73"/>
      <use x="148.583984" xlink:href="#DejaVuSans-74"/>
      <use x="187.792969" xlink:href="#DejaVuSans-71"/>
      <use x="251.269531" xlink:href="#DejaVuSans-63"/>
      <use x="306.25" xlink:href="#DejaVuSans-20"/>
      <use x="338.037109" xlink:href="#DejaVuSans-7c"/>
      <use x="371.728516" xlink:href="#DejaVuSans-20"/>
      <use x="403.515625" xlink:href="#DejaVuSans-53"/>
      <use x="466.992188" xlink:href="#DejaVuSans-52"/>
      <use x="536.474609" xlink:href="#DejaVuSans-52"/>
      <use x="605.957031" xlink:href="#DejaVuSans-39"/>
      <use x="669.580078" xlink:href="#DejaVuSans-32"/>
      <use x="733.203125" xlink:href="#DejaVuSans-36"/>
      <use x="796.826172" xlink:href="#DejaVuSans-34"/>
      <use x="860.449219" xlink:href="#DejaVuSans-33"/>
      <use x="924.072266" xlink:href="#DejaVuSans-34"/>
      <use x="987.695312" xlink:href="#DejaVuSans-39"/>
      <use x="1051.318359" xlink:href="#DejaVuSans-5f"/>
      <use x="1101.318359" xlink:href="#DejaVuSans-53"/>
      <use x="1164.794922" xlink:href="#DejaVuSans-30"/>
      <use x="1228.417969" xlink:href="#DejaVuSans-5f"/>
      <use x="1278.417969" xlink:href="#DejaVuSans-4c"/>
      <use x="1334.130859" xlink:href="#DejaVuSans-30"/>
      <use x="1397.753906" xlink:href="#DejaVuSans-30"/>
      <use x="1461.376953" xlink:href="#DejaVuSans-31"/>
      <use x="1525" xlink:href="#DejaVuSans-5f"/>
      <use x="1575" xlink:href="#DejaVuSans-52"/>
      <use x="1644.482422" xlink:href="#DejaVuSans-32"/>
      <use x="1708.105469" xlink:href="#DejaVuSans-5f"/>
      <use x="1758.105469" xlink:href="#DejaVuSans-30"/>
      <use x="1821.728516" xlink:href="#DejaVuSans-30"/>
      <use x="1885.351562" xlink:href="#DejaVuSans-31"/>
     </g>
    </g>
    <g id="line2d_34">
     <path d="M 422.6425 337.379634 
L 438.6425 337.379634 
" style="fill:none;stroke:#5cb85c;stroke-linecap:square;"/>
    </g>
    <g id="line2d_35"/>
    <g id="text_23">
     <!-- fastqc | SRR9264350_S0_L001_R2_001 -->
     <g transform="translate(445.0425 340.179634)scale(0.08 -0.08)">
      <use xlink:href="#DejaVuSans-66"/>
      <use x="35.205078" xlink:href="#DejaVuSans-61"/>
      <use x="96.484375" xlink:href="#DejaVuSans-73"/>
      <use x="148.583984" xlink:href="#DejaVuSans-74"/>
      <use x="187.792969" xlink:href="#DejaVuSans-71"/>
      <use x="251.269531" xlink:href="#DejaVuSans-63"/>
      <use x="306.25" xlink:href="#DejaVuSans-20"/>
      <use x="338.037109" xlink:href="#DejaVuSans-7c"/>
      <use x="371.728516" xlink:href="#DejaVuSans-20"/>
      <use x="403.515625" xlink:href="#DejaVuSans-53"/>
      <use x="466.992188" xlink:href="#DejaVuSans-52"/>
      <use x="536.474609" xlink:href="#DejaVuSans-52"/>
      <use x="605.957031" xlink:href="#DejaVuSans-39"/>
      <use x="669.580078" xlink:href="#DejaVuSans-32"/>
      <use x="733.203125" xlink:href="#DejaVuSans-36"/>
      <use x="796.826172" xlink:href="#DejaVuSans-34"/>
      <use x="860.449219" xlink:href="#DejaVuSans-33"/>
      <use x="924.072266" xlink:href="#DejaVuSans-35"/>
      <use x="987.695312" xlink:href="#DejaVuSans-30"/>
      <use x="1051.318359" xlink:href="#DejaVuSans-5f"/>
      <use x="1101.318359" xlink:href="#DejaVuSans-53"/>
      <use x="1164.794922" xlink:href="#DejaVuSans-30"/>
      <use x="1228.417969" xlink:href="#DejaVuSans-5f"/>
      <use x="1278.417969" xlink:href="#DejaVuSans-4c"/>
      <use x="1334.130859" xlink:href="#DejaVuSans-30"/>
      <use x="1397.753906" xlink:href="#DejaVuSans-30"/>
      <use x="1461.376953" xlink:href="#DejaVuSans-31"/>
      <use x="1525" xlink:href="#DejaVuSans-5f"/>
      <use x="1575" xlink:href="#DejaVuSans-52"/>
      <use x="1644.482422" xlink:href="#DejaVuSans-32"/>
      <use x="1708.105469" xlink:href="#DejaVuSans-5f"/>
      <use x="1758.105469" xlink:href="#DejaVuSans-30"/>
      <use x="1821.728516" xlink:href="#DejaVuSans-30"/>
      <use x="1885.351562" xlink:href="#DejaVuSans-31"/>
     </g>
    </g>
    <g id="line2d_36">
     <path d="M 613.879688 325.379634 
L 629.879688 325.379634 
" style="fill:none;stroke:#5cb85c;stroke-linecap:square;"/>
    </g>
    <g id="line2d_37"/>
    <g id="text_24">
     <!-- fastqc | SRR9264351_S0_L001_R2_001 -->
     <g transform="translate(636.279688 328.179634)scale(0.08 -0.08)">
      <use xlink:href="#DejaVuSans-66"/>
      <use x="35.205078" xlink:href="#DejaVuSans-61"/>
      <use x="96.484375" xlink:href="#DejaVuSans-73"/>
      <use x="148.583984" xlink:href="#DejaVuSans-74"/>
      <use x="187.792969" xlink:href="#DejaVuSans-71"/>
      <use x="251.269531" xlink:href="#DejaVuSans-63"/>
      <use x="306.25" xlink:href="#DejaVuSans-20"/>
      <use x="338.037109" xlink:href="#DejaVuSans-7c"/>
      <use x="371.728516" xlink:href="#DejaVuSans-20"/>
      <use x="403.515625" xlink:href="#DejaVuSans-53"/>
      <use x="466.992188" xlink:href="#DejaVuSans-52"/>
      <use x="536.474609" xlink:href="#DejaVuSans-52"/>
      <use x="605.957031" xlink:href="#DejaVuSans-39"/>
      <use x="669.580078" xlink:href="#DejaVuSans-32"/>
      <use x="733.203125" xlink:href="#DejaVuSans-36"/>
      <use x="796.826172" xlink:href="#DejaVuSans-34"/>
      <use x="860.449219" xlink:href="#DejaVuSans-33"/>
      <use x="924.072266" xlink:href="#DejaVuSans-35"/>
      <use x="987.695312" xlink:href="#DejaVuSans-31"/>
      <use x="1051.318359" xlink:href="#DejaVuSans-5f"/>
      <use x="1101.318359" xlink:href="#DejaVuSans-53"/>
      <use x="1164.794922" xlink:href="#DejaVuSans-30"/>
      <use x="1228.417969" xlink:href="#DejaVuSans-5f"/>
      <use x="1278.417969" xlink:href="#DejaVuSans-4c"/>
      <use x="1334.130859" xlink:href="#DejaVuSans-30"/>
      <use x="1397.753906" xlink:href="#DejaVuSans-30"/>
      <use x="1461.376953" xlink:href="#DejaVuSans-31"/>
      <use x="1525" xlink:href="#DejaVuSans-5f"/>
      <use x="1575" xlink:href="#DejaVuSans-52"/>
      <use x="1644.482422" xlink:href="#DejaVuSans-32"/>
      <use x="1708.105469" xlink:href="#DejaVuSans-5f"/>
      <use x="1758.105469" xlink:href="#DejaVuSans-30"/>
      <use x="1821.728516" xlink:href="#DejaVuSans-30"/>
      <use x="1885.351562" xlink:href="#DejaVuSans-31"/>
     </g>
    </g>
    <g id="line2d_38">
     <path d="M 613.879688 337.379634 
L 629.879688 337.379634 
" style="fill:none;stroke:#5cb85c;stroke-linecap:square;"/>
    </g>
    <g id="line2d_39"/>
    <g id="text_25">
     <!-- fastqc | SRR9264352_S0_L001_R2_001 -->
     <g transform="translate(636.279688 340.179634)scale(0.08 -0.08)">
      <use xlink:href="#DejaVuSans-66"/>
      <use x="35.205078" xlink:href="#DejaVuSans-61"/>
      <use x="96.484375" xlink:href="#DejaVuSans-73"/>
      <use x="148.583984" xlink:href="#DejaVuSans-74"/>
      <use x="187.792969" xlink:href="#DejaVuSans-71"/>
      <use x="251.269531" xlink:href="#DejaVuSans-63"/>
      <use x="306.25" xlink:href="#DejaVuSans-20"/>
      <use x="338.037109" xlink:href="#DejaVuSans-7c"/>
      <use x="371.728516" xlink:href="#DejaVuSans-20"/>
      <use x="403.515625" xlink:href="#DejaVuSans-53"/>
      <use x="466.992188" xlink:href="#DejaVuSans-52"/>
      <use x="536.474609" xlink:href="#DejaVuSans-52"/>
      <use x="605.957031" xlink:href="#DejaVuSans-39"/>
      <use x="669.580078" xlink:href="#DejaVuSans-32"/>
      <use x="733.203125" xlink:href="#DejaVuSans-36"/>
      <use x="796.826172" xlink:href="#DejaVuSans-34"/>
      <use x="860.449219" xlink:href="#DejaVuSans-33"/>
      <use x="924.072266" xlink:href="#DejaVuSans-35"/>
      <use x="987.695312" xlink:href="#DejaVuSans-32"/>
      <use x="1051.318359" xlink:href="#DejaVuSans-5f"/>
      <use x="1101.318359" xlink:href="#DejaVuSans-53"/>
      <use x="1164.794922" xlink:href="#DejaVuSans-30"/>
      <use x="1228.417969" xlink:href="#DejaVuSans-5f"/>
      <use x="1278.417969" xlink:href="#DejaVuSans-4c"/>
      <use x="1334.130859" xlink:href="#DejaVuSans-30"/>
      <use x="1397.753906" xlink:href="#DejaVuSans-30"/>
      <use x="1461.376953" xlink:href="#DejaVuSans-31"/>
      <use x="1525" xlink:href="#DejaVuSans-5f"/>
      <use x="1575" xlink:href="#DejaVuSans-52"/>
      <use x="1644.482422" xlink:href="#DejaVuSans-32"/>
      <use x="1708.105469" xlink:href="#DejaVuSans-5f"/>
      <use x="1758.105469" xlink:href="#DejaVuSans-30"/>
      <use x="1821.728516" xlink:href="#DejaVuSans-30"/>
      <use x="1885.351562" xlink:href="#DejaVuSans-31"/>
     </g>
    </g>
    <g id="line2d_40">
     <path d="M 805.116875 325.379634 
L 821.116875 325.379634 
" style="fill:none;stroke:#5cb85c;stroke-linecap:square;"/>
    </g>
    <g id="line2d_41"/>
    <g id="text_26">
     <!-- fastqc | SRR9264353_S0_L001_R2_001 -->
     <g transform="translate(827.516875 328.179634)scale(0.08 -0.08)">
      <use xlink:href="#DejaVuSans-66"/>
      <use x="35.205078" xlink:href="#DejaVuSans-61"/>
      <use x="96.484375" xlink:href="#DejaVuSans-73"/>
      <use x="148.583984" xlink:href="#DejaVuSans-74"/>
      <use x="187.792969" xlink:href="#DejaVuSans-71"/>
      <use x="251.269531" xlink:href="#DejaVuSans-63"/>
      <use x="306.25" xlink:href="#DejaVuSans-20"/>
      <use x="338.037109" xlink:href="#DejaVuSans-7c"/>
      <use x="371.728516" xlink:href="#DejaVuSans-20"/>
      <use x="403.515625" xlink:href="#DejaVuSans-53"/>
      <use x="466.992188" xlink:href="#DejaVuSans-52"/>
      <use x="536.474609" xlink:href="#DejaVuSans-52"/>
      <use x="605.957031" xlink:href="#DejaVuSans-39"/>
      <use x="669.580078" xlink:href="#DejaVuSans-32"/>
      <use x="733.203125" xlink:href="#DejaVuSans-36"/>
      <use x="796.826172" xlink:href="#DejaVuSans-34"/>
      <use x="860.449219" xlink:href="#DejaVuSans-33"/>
      <use x="924.072266" xlink:href="#DejaVuSans-35"/>
      <use x="987.695312" xlink:href="#DejaVuSans-33"/>
      <use x="1051.318359" xlink:href="#DejaVuSans-5f"/>
      <use x="1101.318359" xlink:href="#DejaVuSans-53"/>
      <use x="1164.794922" xlink:href="#DejaVuSans-30"/>
      <use x="1228.417969" xlink:href="#DejaVuSans-5f"/>
      <use x="1278.417969" xlink:href="#DejaVuSans-4c"/>
      <use x="1334.130859" xlink:href="#DejaVuSans-30"/>
      <use x="1397.753906" xlink:href="#DejaVuSans-30"/>
      <use x="1461.376953" xlink:href="#DejaVuSans-31"/>
      <use x="1525" xlink:href="#DejaVuSans-5f"/>
      <use x="1575" xlink:href="#DejaVuSans-52"/>
      <use x="1644.482422" xlink:href="#DejaVuSans-32"/>
      <use x="1708.105469" xlink:href="#DejaVuSans-5f"/>
      <use x="1758.105469" xlink:href="#DejaVuSans-30"/>
      <use x="1821.728516" xlink:href="#DejaVuSans-30"/>
      <use x="1885.351562" xlink:href="#DejaVuSans-31"/>
     </g>
    </g>
    <g id="line2d_42">
     <path d="M 805.116875 337.379634 
L 821.116875 337.379634 
" style="fill:none;stroke:#5cb85c;stroke-linecap:square;"/>
    </g>
    <g id="line2d_43"/>
    <g id="text_27">
     <!-- fastqc | SRR9264354_S0_L001_R2_001 -->
     <g transform="translate(827.516875 340.179634)scale(0.08 -0.08)">
      <use xlink:href="#DejaVuSans-66"/>
      <use x="35.205078" xlink:href="#DejaVuSans-61"/>
      <use x="96.484375" xlink:href="#DejaVuSans-73"/>
      <use x="148.583984" xlink:href="#DejaVuSans-74"/>
      <use x="187.792969" xlink:href="#DejaVuSans-71"/>
      <use x="251.269531" xlink:href="#DejaVuSans-63"/>
      <use x="306.25" xlink:href="#DejaVuSans-20"/>
      <use x="338.037109" xlink:href="#DejaVuSans-7c"/>
      <use x="371.728516" xlink:href="#DejaVuSans-20"/>
      <use x="403.515625" xlink:href="#DejaVuSans-53"/>
      <use x="466.992188" xlink:href="#DejaVuSans-52"/>
      <use x="536.474609" xlink:href="#DejaVuSans-52"/>
      <use x="605.957031" xlink:href="#DejaVuSans-39"/>
      <use x="669.580078" xlink:href="#DejaVuSans-32"/>
      <use x="733.203125" xlink:href="#DejaVuSans-36"/>
      <use x="796.826172" xlink:href="#DejaVuSans-34"/>
      <use x="860.449219" xlink:href="#DejaVuSans-33"/>
      <use x="924.072266" xlink:href="#DejaVuSans-35"/>
      <use x="987.695312" xlink:href="#DejaVuSans-34"/>
      <use x="1051.318359" xlink:href="#DejaVuSans-5f"/>
      <use x="1101.318359" xlink:href="#DejaVuSans-53"/>
      <use x="1164.794922" xlink:href="#DejaVuSans-30"/>
      <use x="1228.417969" xlink:href="#DejaVuSans-5f"/>
      <use x="1278.417969" xlink:href="#DejaVuSans-4c"/>
      <use x="1334.130859" xlink:href="#DejaVuSans-30"/>
      <use x="1397.753906" xlink:href="#DejaVuSans-30"/>
      <use x="1461.376953" xlink:href="#DejaVuSans-31"/>
      <use x="1525" xlink:href="#DejaVuSans-5f"/>
      <use x="1575" xlink:href="#DejaVuSans-52"/>
      <use x="1644.482422" xlink:href="#DejaVuSans-32"/>
      <use x="1708.105469" xlink:href="#DejaVuSans-5f"/>
      <use x="1758.105469" xlink:href="#DejaVuSans-30"/>
      <use x="1821.728516" xlink:href="#DejaVuSans-30"/>
      <use x="1885.351562" xlink:href="#DejaVuSans-31"/>
     </g>
    </g>
   </g>
  </g>
 </g>
 <defs>
  <clipPath id="p5b5bbc4da1">
   <rect height="269.2192" width="957.67" x="32.968125" y="32.81846"/>
  </clipPath>
 </defs>
</svg>
