<?xml version="1.0" encoding="UTF-8" standalone="no"?>
<svg
   xmlns:dc="http://purl.org/dc/elements/1.1/"
   xmlns:cc="http://creativecommons.org/ns#"
   xmlns:rdf="http://www.w3.org/1999/02/22-rdf-syntax-ns#"
   xmlns:svg="http://www.w3.org/2000/svg"
   xmlns="http://www.w3.org/2000/svg"
   xmlns:sodipodi="http://sodipodi.sourceforge.net/DTD/sodipodi-0.dtd"
   xmlns:inkscape="http://www.inkscape.org/namespaces/inkscape"
   viewBox="0 0 579.22077 315.26712"
   id="svg2"
   version="1.1"
   inkscape:version="0.48.4 r9939"
   width="100%"
   height="100%"
   sodipodi:docname="BatchEffectb.svg">
  <metadata
     id="metadata690">
    <rdf:RDF>
      <cc:Work
         rdf:about="">
        <dc:format>image/svg+xml</dc:format>
        <dc:type
           rdf:resource="http://purl.org/dc/dcmitype/StillImage" />
        <dc:title></dc:title>
      </cc:Work>
    </rdf:RDF>
  </metadata>
  <sodipodi:namedview
     pagecolor="#ffffff"
     bordercolor="#666666"
     borderopacity="1"
     objecttolerance="10"
     gridtolerance="10"
     guidetolerance="10"
     inkscape:pageopacity="0"
     inkscape:pageshadow="2"
     inkscape:window-width="1920"
     inkscape:window-height="1056"
     id="namedview688"
     showgrid="false"
     fit-margin-top="0"
     fit-margin-left="0"
     fit-margin-right="0"
     fit-margin-bottom="0"
     inkscape:zoom="1.7950481"
     inkscape:cx="163.15967"
     inkscape:cy="101.38047"
     inkscape:window-x="0"
     inkscape:window-y="24"
     inkscape:window-maximized="1"
     inkscape:current-layer="svg2" />
  <defs
     id="defs4">
    <style
       type="text/css"
       id="style6">
    line, polyline, path, rect, circle {
      fill: none;
      stroke: #000000;
      stroke-linecap: round;
      stroke-linejoin: round;
      stroke-miterlimit: 10.00;
    }
  </style>
  </defs>
  <defs
     id="defs12">
    <clipPath
       id="cpOC4yMTkxOHw3MTQuNTIxfDMyOC4xMzF8NS40Nzk0NQ==">
      <rect
         x="8.2200003"
         y="5.48"
         width="706.29999"
         height="322.64999"
         id="rect15"
         style="fill:none;stroke:#000000;stroke-linecap:round;stroke-linejoin:round;stroke-miterlimit:10" />
    </clipPath>
  </defs>
  <line
     x1="109.12"
     y1="187.75999"
     x2="109.12"
     y2="250.61"
     style="fill:none;stroke:#000000;stroke-width:1.07000005;stroke-linecap:butt;stroke-linejoin:round;stroke-miterlimit:10"
     clip-path="url(#cpOC4yMTkxOHw3MTQuNTIxfDMyOC4xMzF8NS40Nzk0NQ==)"
     id="line59"
     transform="translate(-108.585,-36.880314)" />
  <line
     x1="109.12"
     y1="250.61"
     x2="392.97"
     y2="250.61"
     style="fill:none;stroke:#000000;stroke-width:1.07000005;stroke-linecap:butt;stroke-linejoin:round;stroke-miterlimit:10"
     clip-path="url(#cpOC4yMTkxOHw3MTQuNTIxfDMyOC4xMzF8NS40Nzk0NQ==)"
     id="line61"
     transform="translate(-108.585,-36.880314)" />
  <line
     x1="392.97"
     y1="250.61"
     x2="392.97"
     y2="282.04001"
     style="fill:none;stroke:#000000;stroke-width:1.07000005;stroke-linecap:butt;stroke-linejoin:round;stroke-miterlimit:10"
     clip-path="url(#cpOC4yMTkxOHw3MTQuNTIxfDMyOC4xMzF8NS40Nzk0NQ==)"
     id="line63"
     transform="translate(-108.585,-36.880314)" />
  <line
     x1="392.97"
     y1="282.04001"
     x2="496"
     y2="282.04001"
     style="fill:none;stroke:#000000;stroke-width:1.07000005;stroke-linecap:butt;stroke-linejoin:round;stroke-miterlimit:10"
     clip-path="url(#cpOC4yMTkxOHw3MTQuNTIxfDMyOC4xMzF8NS40Nzk0NQ==)"
     id="line65"
     transform="translate(-108.585,-36.880314)" />
  <line
     x1="496"
     y1="282.04001"
     x2="496"
     y2="292.51001"
     style="fill:none;stroke:#000000;stroke-width:1.07000005;stroke-linecap:butt;stroke-linejoin:round;stroke-miterlimit:10"
     clip-path="url(#cpOC4yMTkxOHw3MTQuNTIxfDMyOC4xMzF8NS40Nzk0NQ==)"
     id="line67"
     transform="translate(-108.585,-36.880314)" />
  <line
     x1="496"
     y1="292.51001"
     x2="530.95001"
     y2="292.51001"
     style="fill:none;stroke:#000000;stroke-width:1.07000005;stroke-linecap:butt;stroke-linejoin:round;stroke-miterlimit:10"
     clip-path="url(#cpOC4yMTkxOHw3MTQuNTIxfDMyOC4xMzF8NS40Nzk0NQ==)"
     id="line69"
     transform="translate(-108.585,-36.880314)" />
  <line
     x1="496"
     y1="282.04001"
     x2="496"
     y2="271.56"
     style="fill:none;stroke:#000000;stroke-width:1.07000005;stroke-linecap:butt;stroke-linejoin:round;stroke-miterlimit:10"
     clip-path="url(#cpOC4yMTkxOHw3MTQuNTIxfDMyOC4xMzF8NS40Nzk0NQ==)"
     id="line71"
     transform="translate(-108.585,-36.880314)" />
  <line
     x1="496"
     y1="271.56"
     x2="530.95001"
     y2="271.56"
     style="fill:none;stroke:#000000;stroke-width:1.07000005;stroke-linecap:butt;stroke-linejoin:round;stroke-miterlimit:10"
     clip-path="url(#cpOC4yMTkxOHw3MTQuNTIxfDMyOC4xMzF8NS40Nzk0NQ==)"
     id="line73"
     transform="translate(-108.585,-36.880314)" />
  <line
     x1="392.97"
     y1="250.61"
     x2="392.97"
     y2="219.17999"
     style="fill:none;stroke:#000000;stroke-width:1.07000005;stroke-linecap:butt;stroke-linejoin:round;stroke-miterlimit:10"
     clip-path="url(#cpOC4yMTkxOHw3MTQuNTIxfDMyOC4xMzF8NS40Nzk0NQ==)"
     id="line75"
     transform="translate(-108.585,-36.880314)" />
  <line
     x1="392.97"
     y1="219.17999"
     x2="425.64001"
     y2="219.17999"
     style="fill:none;stroke:#000000;stroke-width:1.07000005;stroke-linecap:butt;stroke-linejoin:round;stroke-miterlimit:10"
     clip-path="url(#cpOC4yMTkxOHw3MTQuNTIxfDMyOC4xMzF8NS40Nzk0NQ==)"
     id="line77"
     transform="translate(-108.585,-36.880314)" />
  <line
     x1="425.64001"
     y1="219.17999"
     x2="425.64001"
     y2="240.13"
     style="fill:none;stroke:#000000;stroke-width:1.07000005;stroke-linecap:butt;stroke-linejoin:round;stroke-miterlimit:10"
     clip-path="url(#cpOC4yMTkxOHw3MTQuNTIxfDMyOC4xMzF8NS40Nzk0NQ==)"
     id="line79"
     transform="translate(-108.585,-36.880314)" />
  <line
     x1="425.64001"
     y1="240.13"
     x2="505.13"
     y2="240.13"
     style="fill:none;stroke:#000000;stroke-width:1.07000005;stroke-linecap:butt;stroke-linejoin:round;stroke-miterlimit:10"
     clip-path="url(#cpOC4yMTkxOHw3MTQuNTIxfDMyOC4xMzF8NS40Nzk0NQ==)"
     id="line81"
     transform="translate(-108.585,-36.880314)" />
  <line
     x1="505.13"
     y1="240.13"
     x2="505.13"
     y2="250.61"
     style="fill:none;stroke:#000000;stroke-width:1.07000005;stroke-linecap:butt;stroke-linejoin:round;stroke-miterlimit:10"
     clip-path="url(#cpOC4yMTkxOHw3MTQuNTIxfDMyOC4xMzF8NS40Nzk0NQ==)"
     id="line83"
     transform="translate(-108.585,-36.880314)" />
  <line
     x1="505.13"
     y1="250.61"
     x2="530.95001"
     y2="250.61"
     style="fill:none;stroke:#000000;stroke-width:1.07000005;stroke-linecap:butt;stroke-linejoin:round;stroke-miterlimit:10"
     clip-path="url(#cpOC4yMTkxOHw3MTQuNTIxfDMyOC4xMzF8NS40Nzk0NQ==)"
     id="line85"
     transform="translate(-108.585,-36.880314)" />
  <line
     x1="505.13"
     y1="240.13"
     x2="505.13"
     y2="229.66"
     style="fill:none;stroke:#000000;stroke-width:1.07000005;stroke-linecap:butt;stroke-linejoin:round;stroke-miterlimit:10"
     clip-path="url(#cpOC4yMTkxOHw3MTQuNTIxfDMyOC4xMzF8NS40Nzk0NQ==)"
     id="line87"
     transform="translate(-108.585,-36.880314)" />
  <line
     x1="505.13"
     y1="229.66"
     x2="530.95001"
     y2="229.66"
     style="fill:none;stroke:#000000;stroke-width:1.07000005;stroke-linecap:butt;stroke-linejoin:round;stroke-miterlimit:10"
     clip-path="url(#cpOC4yMTkxOHw3MTQuNTIxfDMyOC4xMzF8NS40Nzk0NQ==)"
     id="line89"
     transform="translate(-108.585,-36.880314)" />
  <line
     x1="425.64001"
     y1="219.17999"
     x2="425.64001"
     y2="198.23"
     style="fill:none;stroke:#000000;stroke-width:1.07000005;stroke-linecap:butt;stroke-linejoin:round;stroke-miterlimit:10"
     clip-path="url(#cpOC4yMTkxOHw3MTQuNTIxfDMyOC4xMzF8NS40Nzk0NQ==)"
     id="line91"
     transform="translate(-108.585,-36.880314)" />
  <line
     x1="425.64001"
     y1="198.23"
     x2="499.70999"
     y2="198.23"
     style="fill:none;stroke:#000000;stroke-width:1.07000005;stroke-linecap:butt;stroke-linejoin:round;stroke-miterlimit:10"
     clip-path="url(#cpOC4yMTkxOHw3MTQuNTIxfDMyOC4xMzF8NS40Nzk0NQ==)"
     id="line93"
     transform="translate(-108.585,-36.880314)" />
  <line
     x1="499.70999"
     y1="198.23"
     x2="499.70999"
     y2="208.71001"
     style="fill:none;stroke:#000000;stroke-width:1.07000005;stroke-linecap:butt;stroke-linejoin:round;stroke-miterlimit:10"
     clip-path="url(#cpOC4yMTkxOHw3MTQuNTIxfDMyOC4xMzF8NS40Nzk0NQ==)"
     id="line95"
     transform="translate(-108.585,-36.880314)" />
  <line
     x1="499.70999"
     y1="208.71001"
     x2="530.95001"
     y2="208.71001"
     style="fill:none;stroke:#000000;stroke-width:1.07000005;stroke-linecap:butt;stroke-linejoin:round;stroke-miterlimit:10"
     clip-path="url(#cpOC4yMTkxOHw3MTQuNTIxfDMyOC4xMzF8NS40Nzk0NQ==)"
     id="line97"
     transform="translate(-108.585,-36.880314)" />
  <line
     x1="499.70999"
     y1="198.23"
     x2="499.70999"
     y2="187.75999"
     style="fill:none;stroke:#000000;stroke-width:1.07000005;stroke-linecap:butt;stroke-linejoin:round;stroke-miterlimit:10"
     clip-path="url(#cpOC4yMTkxOHw3MTQuNTIxfDMyOC4xMzF8NS40Nzk0NQ==)"
     id="line99"
     transform="translate(-108.585,-36.880314)" />
  <line
     x1="499.70999"
     y1="187.75999"
     x2="530.95001"
     y2="187.75999"
     style="fill:none;stroke:#000000;stroke-width:1.07000005;stroke-linecap:butt;stroke-linejoin:round;stroke-miterlimit:10"
     clip-path="url(#cpOC4yMTkxOHw3MTQuNTIxfDMyOC4xMzF8NS40Nzk0NQ==)"
     id="line101"
     transform="translate(-108.585,-36.880314)" />
  <line
     x1="109.12"
     y1="187.75999"
     x2="109.12"
     y2="124.9"
     style="fill:none;stroke:#000000;stroke-width:1.07000005;stroke-linecap:butt;stroke-linejoin:round;stroke-miterlimit:10"
     clip-path="url(#cpOC4yMTkxOHw3MTQuNTIxfDMyOC4xMzF8NS40Nzk0NQ==)"
     id="line103"
     transform="translate(-108.585,-36.880314)" />
  <line
     x1="109.12"
     y1="124.9"
     x2="262.98001"
     y2="124.9"
     style="fill:none;stroke:#000000;stroke-width:1.07000005;stroke-linecap:butt;stroke-linejoin:round;stroke-miterlimit:10"
     clip-path="url(#cpOC4yMTkxOHw3MTQuNTIxfDMyOC4xMzF8NS40Nzk0NQ==)"
     id="line105"
     transform="translate(-108.585,-36.880314)" />
  <line
     x1="262.98001"
     y1="124.9"
     x2="262.98001"
     y2="156.33"
     style="fill:none;stroke:#000000;stroke-width:1.07000005;stroke-linecap:butt;stroke-linejoin:round;stroke-miterlimit:10"
     clip-path="url(#cpOC4yMTkxOHw3MTQuNTIxfDMyOC4xMzF8NS40Nzk0NQ==)"
     id="line107"
     transform="translate(-108.585,-36.880314)" />
  <line
     x1="262.98001"
     y1="156.33"
     x2="503.20001"
     y2="156.33"
     style="fill:none;stroke:#000000;stroke-width:1.07000005;stroke-linecap:butt;stroke-linejoin:round;stroke-miterlimit:10"
     clip-path="url(#cpOC4yMTkxOHw3MTQuNTIxfDMyOC4xMzF8NS40Nzk0NQ==)"
     id="line109"
     transform="translate(-108.585,-36.880314)" />
  <line
     x1="503.20001"
     y1="156.33"
     x2="503.20001"
     y2="166.81"
     style="fill:none;stroke:#000000;stroke-width:1.07000005;stroke-linecap:butt;stroke-linejoin:round;stroke-miterlimit:10"
     clip-path="url(#cpOC4yMTkxOHw3MTQuNTIxfDMyOC4xMzF8NS40Nzk0NQ==)"
     id="line111"
     transform="translate(-108.585,-36.880314)" />
  <line
     x1="503.20001"
     y1="166.81"
     x2="530.95001"
     y2="166.81"
     style="fill:none;stroke:#000000;stroke-width:1.07000005;stroke-linecap:butt;stroke-linejoin:round;stroke-miterlimit:10"
     clip-path="url(#cpOC4yMTkxOHw3MTQuNTIxfDMyOC4xMzF8NS40Nzk0NQ==)"
     id="line113"
     transform="translate(-108.585,-36.880314)" />
  <line
     x1="503.20001"
     y1="156.33"
     x2="503.20001"
     y2="145.85001"
     style="fill:none;stroke:#000000;stroke-width:1.07000005;stroke-linecap:butt;stroke-linejoin:round;stroke-miterlimit:10"
     clip-path="url(#cpOC4yMTkxOHw3MTQuNTIxfDMyOC4xMzF8NS40Nzk0NQ==)"
     id="line115"
     transform="translate(-108.585,-36.880314)" />
  <line
     x1="503.20001"
     y1="145.85001"
     x2="530.95001"
     y2="145.85001"
     style="fill:none;stroke:#000000;stroke-width:1.07000005;stroke-linecap:butt;stroke-linejoin:round;stroke-miterlimit:10"
     clip-path="url(#cpOC4yMTkxOHw3MTQuNTIxfDMyOC4xMzF8NS40Nzk0NQ==)"
     id="line117"
     transform="translate(-108.585,-36.880314)" />
  <line
     x1="262.98001"
     y1="124.9"
     x2="262.98001"
     y2="93.480003"
     style="fill:none;stroke:#000000;stroke-width:1.07000005;stroke-linecap:butt;stroke-linejoin:round;stroke-miterlimit:10"
     clip-path="url(#cpOC4yMTkxOHw3MTQuNTIxfDMyOC4xMzF8NS40Nzk0NQ==)"
     id="line119"
     transform="translate(-108.585,-36.880314)" />
  <line
     x1="262.98001"
     y1="93.480003"
     x2="365.72"
     y2="93.480003"
     style="fill:none;stroke:#000000;stroke-width:1.07000005;stroke-linecap:butt;stroke-linejoin:round;stroke-miterlimit:10"
     clip-path="url(#cpOC4yMTkxOHw3MTQuNTIxfDMyOC4xMzF8NS40Nzk0NQ==)"
     id="line121"
     transform="translate(-108.585,-36.880314)" />
  <line
     x1="365.72"
     y1="93.480003"
     x2="365.72"
     y2="114.43"
     style="fill:none;stroke:#000000;stroke-width:1.07000005;stroke-linecap:butt;stroke-linejoin:round;stroke-miterlimit:10"
     clip-path="url(#cpOC4yMTkxOHw3MTQuNTIxfDMyOC4xMzF8NS40Nzk0NQ==)"
     id="line123"
     transform="translate(-108.585,-36.880314)" />
  <line
     x1="365.72"
     y1="114.43"
     x2="497.23999"
     y2="114.43"
     style="fill:none;stroke:#000000;stroke-width:1.07000005;stroke-linecap:butt;stroke-linejoin:round;stroke-miterlimit:10"
     clip-path="url(#cpOC4yMTkxOHw3MTQuNTIxfDMyOC4xMzF8NS40Nzk0NQ==)"
     id="line125"
     transform="translate(-108.585,-36.880314)" />
  <line
     x1="497.23999"
     y1="114.43"
     x2="497.23999"
     y2="124.9"
     style="fill:none;stroke:#000000;stroke-width:1.07000005;stroke-linecap:butt;stroke-linejoin:round;stroke-miterlimit:10"
     clip-path="url(#cpOC4yMTkxOHw3MTQuNTIxfDMyOC4xMzF8NS40Nzk0NQ==)"
     id="line127"
     transform="translate(-108.585,-36.880314)" />
  <line
     x1="497.23999"
     y1="124.9"
     x2="530.95001"
     y2="124.9"
     style="fill:none;stroke:#000000;stroke-width:1.07000005;stroke-linecap:butt;stroke-linejoin:round;stroke-miterlimit:10"
     clip-path="url(#cpOC4yMTkxOHw3MTQuNTIxfDMyOC4xMzF8NS40Nzk0NQ==)"
     id="line129"
     transform="translate(-108.585,-36.880314)" />
  <line
     x1="497.23999"
     y1="114.43"
     x2="497.23999"
     y2="103.95"
     style="fill:none;stroke:#000000;stroke-width:1.07000005;stroke-linecap:butt;stroke-linejoin:round;stroke-miterlimit:10"
     clip-path="url(#cpOC4yMTkxOHw3MTQuNTIxfDMyOC4xMzF8NS40Nzk0NQ==)"
     id="line131"
     transform="translate(-108.585,-36.880314)" />
  <line
     x1="497.23999"
     y1="103.95"
     x2="530.95001"
     y2="103.95"
     style="fill:none;stroke:#000000;stroke-width:1.07000005;stroke-linecap:butt;stroke-linejoin:round;stroke-miterlimit:10"
     clip-path="url(#cpOC4yMTkxOHw3MTQuNTIxfDMyOC4xMzF8NS40Nzk0NQ==)"
     id="line133"
     transform="translate(-108.585,-36.880314)" />
  <line
     x1="365.72"
     y1="93.480003"
     x2="365.72"
     y2="72.519997"
     style="fill:none;stroke:#000000;stroke-width:1.07000005;stroke-linecap:butt;stroke-linejoin:round;stroke-miterlimit:10"
     clip-path="url(#cpOC4yMTkxOHw3MTQuNTIxfDMyOC4xMzF8NS40Nzk0NQ==)"
     id="line135"
     transform="translate(-108.585,-36.880314)" />
  <line
     x1="365.72"
     y1="72.519997"
     x2="494.32999"
     y2="72.519997"
     style="fill:none;stroke:#000000;stroke-width:1.07000005;stroke-linecap:butt;stroke-linejoin:round;stroke-miterlimit:10"
     clip-path="url(#cpOC4yMTkxOHw3MTQuNTIxfDMyOC4xMzF8NS40Nzk0NQ==)"
     id="line137"
     transform="translate(-108.585,-36.880314)" />
  <line
     x1="494.32999"
     y1="72.519997"
     x2="494.32999"
     y2="83"
     style="fill:none;stroke:#000000;stroke-width:1.07000005;stroke-linecap:butt;stroke-linejoin:round;stroke-miterlimit:10"
     clip-path="url(#cpOC4yMTkxOHw3MTQuNTIxfDMyOC4xMzF8NS40Nzk0NQ==)"
     id="line139"
     transform="translate(-108.585,-36.880314)" />
  <line
     x1="494.32999"
     y1="83"
     x2="530.95001"
     y2="83"
     style="fill:none;stroke:#000000;stroke-width:1.07000005;stroke-linecap:butt;stroke-linejoin:round;stroke-miterlimit:10"
     clip-path="url(#cpOC4yMTkxOHw3MTQuNTIxfDMyOC4xMzF8NS40Nzk0NQ==)"
     id="line141"
     transform="translate(-108.585,-36.880314)" />
  <line
     x1="494.32999"
     y1="72.519997"
     x2="494.32999"
     y2="62.049999"
     style="fill:none;stroke:#000000;stroke-width:1.07000005;stroke-linecap:butt;stroke-linejoin:round;stroke-miterlimit:10"
     clip-path="url(#cpOC4yMTkxOHw3MTQuNTIxfDMyOC4xMzF8NS40Nzk0NQ==)"
     id="line143"
     transform="translate(-108.585,-36.880314)" />
  <line
     x1="494.32999"
     y1="62.049999"
     x2="530.95001"
     y2="62.049999"
     style="fill:none;stroke:#000000;stroke-width:1.07000005;stroke-linecap:butt;stroke-linejoin:round;stroke-miterlimit:10"
     clip-path="url(#cpOC4yMTkxOHw3MTQuNTIxfDMyOC4xMzF8NS40Nzk0NQ==)"
     id="line145"
     transform="translate(-108.585,-36.880314)" />
  <polyline
     points="536.29,299.89 597.50,299.89 597.41,299.89 597.76,299.88 598.10,299.81 598.42,299.69 598.73,299.51 599.00,299.29 599.23,299.03 599.41,298.74 599.55,298.42 599.63,298.08 599.66,297.73 599.66,297.73 599.66,287.29 599.66,287.29 599.63,286.95 599.55,286.61 599.41,286.29 599.23,285.99 599.00,285.73 598.73,285.51 598.42,285.34 598.10,285.22 597.76,285.15 597.50,285.13 536.29,285.13 536.55,285.15 536.20,285.13 535.86,285.18 535.52,285.27 535.21,285.42 534.92,285.62 534.67,285.86 534.46,286.14 534.30,286.45 534.19,286.78 534.14,287.12 534.13,287.29 534.13,297.73 534.14,297.56 534.14,297.91 534.19,298.25 534.30,298.58 534.46,298.89 534.67,299.17 534.92,299.41 535.21,299.61 535.52,299.75 535.86,299.85 536.20,299.89 "
     style="fill:#fdc086;stroke:#000000;stroke-width:0.52999997;stroke-linecap:round;stroke-linejoin:round;stroke-miterlimit:10"
     clip-path="url(#cpOC4yMTkxOHw3MTQuNTIxfDMyOC4xMzF8NS40Nzk0NQ==)"
     id="polyline147"
     transform="translate(-108.585,-36.880314)" />
  <g
     clip-path="url(#cpOC4yMTkxOHw3MTQuNTIxfDMyOC4xMzF8NS40Nzk0NQ==)"
     id="g149"
     transform="translate(-108.585,-36.880314)">
    <text
       x="537.44"
       y="296.29001"
       style="font-size:11.03999996px;font-family:Liberation Sans"
       textLength="58.33px"
       lengthAdjust="spacingAndGlyphs"
       id="text151">GrpA Rep 1</text>
  </g>
  <polyline
     points="536.29,278.94 597.50,278.94 597.41,278.94 597.76,278.93 598.10,278.86 598.42,278.73 598.73,278.56 599.00,278.34 599.23,278.08 599.41,277.79 599.55,277.47 599.63,277.13 599.66,276.78 599.66,276.78 599.66,266.34 599.66,266.34 599.63,265.99 599.55,265.66 599.41,265.34 599.23,265.04 599.00,264.78 598.73,264.56 598.42,264.39 598.10,264.27 597.76,264.20 597.50,264.18 536.29,264.18 536.55,264.20 536.20,264.18 535.86,264.22 535.52,264.32 535.21,264.47 534.92,264.67 534.67,264.91 534.46,265.19 534.30,265.49 534.19,265.82 534.14,266.17 534.13,266.34 534.13,276.78 534.14,276.61 534.14,276.96 534.19,277.30 534.30,277.63 534.46,277.94 534.67,278.22 534.92,278.46 535.21,278.65 535.52,278.80 535.86,278.90 536.20,278.94 "
     style="fill:#fdc086;stroke:#000000;stroke-width:0.52999997;stroke-linecap:round;stroke-linejoin:round;stroke-miterlimit:10"
     clip-path="url(#cpOC4yMTkxOHw3MTQuNTIxfDMyOC4xMzF8NS40Nzk0NQ==)"
     id="polyline153"
     transform="translate(-108.585,-36.880314)" />
  <g
     clip-path="url(#cpOC4yMTkxOHw3MTQuNTIxfDMyOC4xMzF8NS40Nzk0NQ==)"
     id="g155"
     transform="translate(-108.585,-36.880314)">
    <text
       x="537.44"
       y="275.34"
       style="font-size:11.03999996px;font-family:Liberation Sans"
       textLength="58.33px"
       lengthAdjust="spacingAndGlyphs"
       id="text157">GrpA Rep 2</text>
  </g>
  <polyline
     points="536.29,257.99 597.50,257.99 597.41,257.99 597.76,257.98 598.10,257.91 598.42,257.78 598.73,257.61 599.00,257.39 599.23,257.13 599.41,256.84 599.55,256.52 599.63,256.18 599.66,255.83 599.66,255.83 599.66,245.39 599.66,245.39 599.63,245.04 599.55,244.71 599.41,244.39 599.23,244.09 599.00,243.83 598.73,243.61 598.42,243.44 598.10,243.31 597.76,243.24 597.50,243.23 536.29,243.23 536.55,243.24 536.20,243.23 535.86,243.27 535.52,243.37 535.21,243.52 534.92,243.72 534.67,243.96 534.46,244.23 534.30,244.54 534.19,244.87 534.14,245.22 534.13,245.39 534.13,255.83 534.14,255.66 534.14,256.01 534.19,256.35 534.30,256.68 534.46,256.99 534.67,257.26 534.92,257.50 535.21,257.70 535.52,257.85 535.86,257.95 536.20,257.99 "
     style="fill:#fdc086;stroke:#000000;stroke-width:0.52999997;stroke-linecap:round;stroke-linejoin:round;stroke-miterlimit:10"
     clip-path="url(#cpOC4yMTkxOHw3MTQuNTIxfDMyOC4xMzF8NS40Nzk0NQ==)"
     id="polyline159"
     transform="translate(-108.585,-36.880314)" />
  <g
     clip-path="url(#cpOC4yMTkxOHw3MTQuNTIxfDMyOC4xMzF8NS40Nzk0NQ==)"
     id="g161"
     transform="translate(-108.585,-36.880314)">
    <text
       x="537.44"
       y="254.39"
       style="font-size:11.03999996px;font-family:Liberation Sans"
       textLength="58.33px"
       lengthAdjust="spacingAndGlyphs"
       id="text163">GrpA Rep 5</text>
  </g>
  <polyline
     points="536.29,237.04 597.50,237.04 597.41,237.04 597.76,237.02 598.10,236.96 598.42,236.83 598.73,236.66 599.00,236.44 599.23,236.18 599.41,235.88 599.55,235.56 599.63,235.23 599.66,234.88 599.66,234.88 599.66,224.44 599.66,224.44 599.63,224.09 599.55,223.75 599.41,223.43 599.23,223.14 599.00,222.88 598.73,222.66 598.42,222.49 598.10,222.36 597.76,222.29 597.50,222.28 536.29,222.28 536.55,222.29 536.20,222.28 535.86,222.32 535.52,222.42 535.21,222.57 534.92,222.76 534.67,223.01 534.46,223.28 534.30,223.59 534.19,223.92 534.14,224.26 534.13,224.44 534.13,234.88 534.14,234.71 534.14,235.05 534.19,235.40 534.30,235.73 534.46,236.03 534.67,236.31 534.92,236.55 535.21,236.75 535.52,236.90 535.86,237.00 536.20,237.04 "
     style="fill:#fdc086;stroke:#000000;stroke-width:0.52999997;stroke-linecap:round;stroke-linejoin:round;stroke-miterlimit:10"
     clip-path="url(#cpOC4yMTkxOHw3MTQuNTIxfDMyOC4xMzF8NS40Nzk0NQ==)"
     id="polyline165"
     transform="translate(-108.585,-36.880314)" />
  <g
     clip-path="url(#cpOC4yMTkxOHw3MTQuNTIxfDMyOC4xMzF8NS40Nzk0NQ==)"
     id="g167"
     transform="translate(-108.585,-36.880314)">
    <text
       x="537.44"
       y="233.44"
       style="font-size:11.03999996px;font-family:Liberation Sans"
       textLength="58.33px"
       lengthAdjust="spacingAndGlyphs"
       id="text169">GrpA Rep 6</text>
  </g>
  <polyline
     points="536.29,216.09 597.50,216.09 597.41,216.09 597.76,216.07 598.10,216.00 598.42,215.88 598.73,215.71 599.00,215.49 599.23,215.23 599.41,214.93 599.55,214.61 599.63,214.28 599.66,213.93 599.66,213.93 599.66,203.49 599.66,203.49 599.63,203.14 599.55,202.80 599.41,202.48 599.23,202.19 599.00,201.93 598.73,201.71 598.42,201.54 598.10,201.41 597.76,201.34 597.50,201.33 536.29,201.33 536.55,201.34 536.20,201.33 535.86,201.37 535.52,201.47 535.21,201.62 534.92,201.81 534.67,202.05 534.46,202.33 534.30,202.64 534.19,202.97 534.14,203.31 534.13,203.49 534.13,213.93 534.14,213.76 534.14,214.10 534.19,214.45 534.30,214.78 534.46,215.08 534.67,215.36 534.92,215.60 535.21,215.80 535.52,215.95 535.86,216.05 536.20,216.09 "
     style="fill:#fdc086;stroke:#000000;stroke-width:0.52999997;stroke-linecap:round;stroke-linejoin:round;stroke-miterlimit:10"
     clip-path="url(#cpOC4yMTkxOHw3MTQuNTIxfDMyOC4xMzF8NS40Nzk0NQ==)"
     id="polyline171"
     transform="translate(-108.585,-36.880314)" />
  <g
     clip-path="url(#cpOC4yMTkxOHw3MTQuNTIxfDMyOC4xMzF8NS40Nzk0NQ==)"
     id="g173"
     transform="translate(-108.585,-36.880314)">
    <text
       x="537.44"
       y="212.49001"
       style="font-size:11.03999996px;font-family:Liberation Sans"
       textLength="58.33px"
       lengthAdjust="spacingAndGlyphs"
       id="text175">GrpA Rep 3</text>
  </g>
  <polyline
     points="536.29,195.14 597.50,195.14 597.41,195.14 597.76,195.12 598.10,195.05 598.42,194.93 598.73,194.76 599.00,194.54 599.23,194.28 599.41,193.98 599.55,193.66 599.63,193.32 599.66,192.98 599.66,192.98 599.66,182.54 599.66,182.54 599.63,182.19 599.55,181.85 599.41,181.53 599.23,181.24 599.00,180.98 598.73,180.76 598.42,180.58 598.10,180.46 597.76,180.39 597.50,180.38 536.29,180.38 536.55,180.39 536.20,180.38 535.86,180.42 535.52,180.52 535.21,180.66 534.92,180.86 534.67,181.10 534.46,181.38 534.30,181.69 534.19,182.02 534.14,182.36 534.13,182.54 534.13,192.98 534.14,192.80 534.14,193.15 534.19,193.49 534.30,193.82 534.46,194.13 534.67,194.41 534.92,194.65 535.21,194.85 535.52,195.00 535.86,195.09 536.20,195.14 "
     style="fill:#fdc086;stroke:#000000;stroke-width:0.52999997;stroke-linecap:round;stroke-linejoin:round;stroke-miterlimit:10"
     clip-path="url(#cpOC4yMTkxOHw3MTQuNTIxfDMyOC4xMzF8NS40Nzk0NQ==)"
     id="polyline177"
     transform="translate(-108.585,-36.880314)" />
  <g
     clip-path="url(#cpOC4yMTkxOHw3MTQuNTIxfDMyOC4xMzF8NS40Nzk0NQ==)"
     id="g179"
     transform="translate(-108.585,-36.880314)">
    <text
       x="537.44"
       y="191.53999"
       style="font-size:11.03999996px;font-family:Liberation Sans"
       textLength="58.33px"
       lengthAdjust="spacingAndGlyphs"
       id="text181">GrpA Rep 4</text>
  </g>
  <polyline
     points="536.29,174.19 597.50,174.19 597.41,174.18 597.76,174.17 598.10,174.10 598.42,173.98 598.73,173.80 599.00,173.58 599.23,173.32 599.41,173.03 599.55,172.71 599.63,172.37 599.66,172.03 599.66,172.03 599.66,161.58 599.66,161.58 599.63,161.24 599.55,160.90 599.41,160.58 599.23,160.29 599.00,160.03 598.73,159.81 598.42,159.63 598.10,159.51 597.76,159.44 597.50,159.42 536.29,159.42 536.55,159.44 536.20,159.43 535.86,159.47 535.52,159.56 535.21,159.71 534.92,159.91 534.67,160.15 534.46,160.43 534.30,160.74 534.19,161.07 534.14,161.41 534.13,161.58 534.13,172.03 534.14,171.85 534.14,172.20 534.19,172.54 534.30,172.87 534.46,173.18 534.67,173.46 534.92,173.70 535.21,173.90 535.52,174.05 535.86,174.14 536.20,174.18 "
     style="fill:#ffff99;stroke:#000000;stroke-width:0.52999997;stroke-linecap:round;stroke-linejoin:round;stroke-miterlimit:10"
     clip-path="url(#cpOC4yMTkxOHw3MTQuNTIxfDMyOC4xMzF8NS40Nzk0NQ==)"
     id="polyline183"
     transform="translate(-108.585,-36.880314)" />
  <g
     clip-path="url(#cpOC4yMTkxOHw3MTQuNTIxfDMyOC4xMzF8NS40Nzk0NQ==)"
     id="g185"
     transform="translate(-108.585,-36.880314)">
    <text
       x="537.44"
       y="170.59"
       style="font-size:11.03999996px;font-family:Liberation Sans"
       textLength="58.33px"
       lengthAdjust="spacingAndGlyphs"
       id="text187">GrpB Rep 5</text>
  </g>
  <polyline
     points="536.29,153.23 597.50,153.23 597.41,153.23 597.76,153.22 598.10,153.15 598.42,153.03 598.73,152.85 599.00,152.63 599.23,152.37 599.41,152.08 599.55,151.76 599.63,151.42 599.66,151.07 599.66,151.07 599.66,140.63 599.66,140.63 599.63,140.29 599.55,139.95 599.41,139.63 599.23,139.33 599.00,139.07 598.73,138.85 598.42,138.68 598.10,138.56 597.76,138.49 597.50,138.47 536.29,138.47 536.55,138.49 536.20,138.47 535.86,138.52 535.52,138.61 535.21,138.76 534.92,138.96 534.67,139.20 534.46,139.48 534.30,139.79 534.19,140.12 534.14,140.46 534.13,140.63 534.13,151.07 534.14,150.90 534.14,151.25 534.19,151.59 534.30,151.92 534.46,152.23 534.67,152.51 534.92,152.75 535.21,152.95 535.52,153.09 535.86,153.19 536.20,153.23 "
     style="fill:#ffff99;stroke:#000000;stroke-width:0.52999997;stroke-linecap:round;stroke-linejoin:round;stroke-miterlimit:10"
     clip-path="url(#cpOC4yMTkxOHw3MTQuNTIxfDMyOC4xMzF8NS40Nzk0NQ==)"
     id="polyline189"
     transform="translate(-108.585,-36.880314)" />
  <g
     clip-path="url(#cpOC4yMTkxOHw3MTQuNTIxfDMyOC4xMzF8NS40Nzk0NQ==)"
     id="g191"
     transform="translate(-108.585,-36.880314)">
    <text
       x="537.44"
       y="149.63"
       style="font-size:11.03999996px;font-family:Liberation Sans"
       textLength="58.33px"
       lengthAdjust="spacingAndGlyphs"
       id="text193">GrpB Rep 6</text>
  </g>
  <polyline
     points="536.29,132.28 597.50,132.28 597.41,132.28 597.76,132.27 598.10,132.20 598.42,132.07 598.73,131.90 599.00,131.68 599.23,131.42 599.41,131.13 599.55,130.81 599.63,130.47 599.66,130.12 599.66,130.12 599.66,119.68 599.66,119.68 599.63,119.33 599.55,119.00 599.41,118.68 599.23,118.38 599.00,118.12 598.73,117.90 598.42,117.73 598.10,117.61 597.76,117.54 597.50,117.52 536.29,117.52 536.55,117.54 536.20,117.52 535.86,117.56 535.52,117.66 535.21,117.81 534.92,118.01 534.67,118.25 534.46,118.53 534.30,118.83 534.19,119.16 534.14,119.51 534.13,119.68 534.13,130.12 534.14,129.95 534.14,130.30 534.19,130.64 534.30,130.97 534.46,131.28 534.67,131.56 534.92,131.80 535.21,131.99 535.52,132.14 535.86,132.24 536.20,132.28 "
     style="fill:#ffff99;stroke:#000000;stroke-width:0.52999997;stroke-linecap:round;stroke-linejoin:round;stroke-miterlimit:10"
     clip-path="url(#cpOC4yMTkxOHw3MTQuNTIxfDMyOC4xMzF8NS40Nzk0NQ==)"
     id="polyline195"
     transform="translate(-108.585,-36.880314)" />
  <g
     clip-path="url(#cpOC4yMTkxOHw3MTQuNTIxfDMyOC4xMzF8NS40Nzk0NQ==)"
     id="g197"
     transform="translate(-108.585,-36.880314)">
    <text
       x="537.44"
       y="128.67999"
       style="font-size:11.03999996px;font-family:Liberation Sans"
       textLength="58.33px"
       lengthAdjust="spacingAndGlyphs"
       id="text199">GrpB Rep 3</text>
  </g>
  <polyline
     points="536.29,111.33 597.50,111.33 597.41,111.33 597.76,111.32 598.10,111.25 598.42,111.12 598.73,110.95 599.00,110.73 599.23,110.47 599.41,110.18 599.55,109.86 599.63,109.52 599.66,109.17 599.66,109.17 599.66,98.73 599.66,98.73 599.63,98.38 599.55,98.05 599.41,97.73 599.23,97.43 599.00,97.17 598.73,96.95 598.42,96.78 598.10,96.65 597.76,96.59 597.50,96.57 536.29,96.57 536.55,96.59 536.20,96.57 535.86,96.61 535.52,96.71 535.21,96.86 534.92,97.06 534.67,97.30 534.46,97.58 534.30,97.88 534.19,98.21 534.14,98.56 534.13,98.73 534.13,109.17 534.14,109.00 534.14,109.35 534.19,109.69 534.30,110.02 534.46,110.33 534.67,110.60 534.92,110.85 535.21,111.04 535.52,111.19 535.86,111.29 536.20,111.33 "
     style="fill:#ffff99;stroke:#000000;stroke-width:0.52999997;stroke-linecap:round;stroke-linejoin:round;stroke-miterlimit:10"
     clip-path="url(#cpOC4yMTkxOHw3MTQuNTIxfDMyOC4xMzF8NS40Nzk0NQ==)"
     id="polyline201"
     transform="translate(-108.585,-36.880314)" />
  <g
     clip-path="url(#cpOC4yMTkxOHw3MTQuNTIxfDMyOC4xMzF8NS40Nzk0NQ==)"
     id="g203"
     transform="translate(-108.585,-36.880314)">
    <text
       x="537.44"
       y="107.73"
       style="font-size:11.03999996px;font-family:Liberation Sans"
       textLength="58.33px"
       lengthAdjust="spacingAndGlyphs"
       id="text205">GrpB Rep 4</text>
  </g>
  <polyline
     points="536.29,90.38 597.50,90.38 597.41,90.38 597.76,90.37 598.10,90.30 598.42,90.17 598.73,90.00 599.00,89.78 599.23,89.52 599.41,89.22 599.55,88.90 599.63,88.57 599.66,88.22 599.66,88.22 599.66,77.78 599.66,77.78 599.63,77.43 599.55,77.09 599.41,76.77 599.23,76.48 599.00,76.22 598.73,76.00 598.42,75.83 598.10,75.70 597.76,75.63 597.50,75.62 536.29,75.62 536.55,75.63 536.20,75.62 535.86,75.66 535.52,75.76 535.21,75.91 534.92,76.11 534.67,76.35 534.46,76.62 534.30,76.93 534.19,77.26 534.14,77.60 534.13,77.78 534.13,88.22 534.14,88.05 534.14,88.39 534.19,88.74 534.30,89.07 534.46,89.38 534.67,89.65 534.92,89.89 535.21,90.09 535.52,90.24 535.86,90.34 536.20,90.38 "
     style="fill:#ffff99;stroke:#000000;stroke-width:0.52999997;stroke-linecap:round;stroke-linejoin:round;stroke-miterlimit:10"
     clip-path="url(#cpOC4yMTkxOHw3MTQuNTIxfDMyOC4xMzF8NS40Nzk0NQ==)"
     id="polyline207"
     transform="translate(-108.585,-36.880314)" />
  <g
     clip-path="url(#cpOC4yMTkxOHw3MTQuNTIxfDMyOC4xMzF8NS40Nzk0NQ==)"
     id="g209"
     transform="translate(-108.585,-36.880314)">
    <text
       x="537.44"
       y="86.779999"
       style="font-size:11.03999996px;font-family:Liberation Sans"
       textLength="58.33px"
       lengthAdjust="spacingAndGlyphs"
       id="text211">GrpB Rep 1</text>
  </g>
  <polyline
     points="536.29,69.43 597.50,69.43 597.41,69.43 597.76,69.41 598.10,69.34 598.42,69.22 598.73,69.05 599.00,68.83 599.23,68.57 599.41,68.27 599.55,67.95 599.63,67.62 599.66,67.27 599.66,67.27 599.66,56.83 599.66,56.83 599.63,56.48 599.55,56.14 599.41,55.82 599.23,55.53 599.00,55.27 598.73,55.05 598.42,54.88 598.10,54.75 597.76,54.68 597.50,54.67 536.29,54.67 536.55,54.68 536.20,54.67 535.86,54.71 535.52,54.81 535.21,54.96 534.92,55.15 534.67,55.39 534.46,55.67 534.30,55.98 534.19,56.31 534.14,56.65 534.13,56.83 534.13,67.27 534.14,67.10 534.14,67.44 534.19,67.79 534.30,68.12 534.46,68.42 534.67,68.70 534.92,68.94 535.21,69.14 535.52,69.29 535.86,69.39 536.20,69.43 "
     style="fill:#ffff99;stroke:#000000;stroke-width:0.52999997;stroke-linecap:round;stroke-linejoin:round;stroke-miterlimit:10"
     clip-path="url(#cpOC4yMTkxOHw3MTQuNTIxfDMyOC4xMzF8NS40Nzk0NQ==)"
     id="polyline213"
     transform="translate(-108.585,-36.880314)" />
  <g
     clip-path="url(#cpOC4yMTkxOHw3MTQuNTIxfDMyOC4xMzF8NS40Nzk0NQ==)"
     id="g215"
     transform="translate(-108.585,-36.880314)">
    <text
       x="537.44"
       y="65.830002"
       style="font-size:11.03999996px;font-family:Liberation Sans"
       textLength="58.33px"
       lengthAdjust="spacingAndGlyphs"
       id="text217">GrpB Rep 2</text>
  </g>
  <g
     clip-path="url(#cpOC4yMTkxOHw3MTQuNTIxfDMyOC4xMzF8NS40Nzk0NQ==)"
     id="g463"
     transform="translate(-110.75495,-35.668156)">
    <text
       x="550.03003"
       y="44.880001"
       style="font-size:11.03999996px;font-family:Liberation Sans"
       textLength="37.46px"
       lengthAdjust="spacingAndGlyphs"
       id="text465">Sample</text>
  </g>
  <defs
     id="defs643">
    <clipPath
       id="cpMHw3MjB8MzYwfDA=">
      <rect
         x="0"
         y="0"
         width="720"
         height="360"
         id="rect646"
         style="fill:none;stroke:#000000;stroke-linecap:round;stroke-linejoin:round;stroke-miterlimit:10" />
    </clipPath>
  </defs>
  <polyline
     points="467.36,330.87 467.36,328.13 "
     style="fill:none;stroke:#333333;stroke-width:1.07000005;stroke-linecap:butt;stroke-linejoin:round;stroke-miterlimit:10"
     clip-path="url(#cpMHw3MjB8MzYwfDA=)"
     id="polyline648"
     transform="translate(-108.585,-36.880314)" />
  <polyline
     points="403.76,330.87 403.76,328.13 "
     style="fill:none;stroke:#333333;stroke-width:1.07000005;stroke-linecap:butt;stroke-linejoin:round;stroke-miterlimit:10"
     clip-path="url(#cpMHw3MjB8MzYwfDA=)"
     id="polyline650"
     transform="translate(-108.585,-36.880314)" />
  <polyline
     points="340.17,330.87 340.17,328.13 "
     style="fill:none;stroke:#333333;stroke-width:1.07000005;stroke-linecap:butt;stroke-linejoin:round;stroke-miterlimit:10"
     clip-path="url(#cpMHw3MjB8MzYwfDA=)"
     id="polyline652"
     transform="translate(-108.585,-36.880314)" />
  <polyline
     points="276.57,330.87 276.57,328.13 "
     style="fill:none;stroke:#333333;stroke-width:1.07000005;stroke-linecap:butt;stroke-linejoin:round;stroke-miterlimit:10"
     clip-path="url(#cpMHw3MjB8MzYwfDA=)"
     id="polyline654"
     transform="translate(-108.585,-36.880314)" />
  <polyline
     points="212.98,330.87 212.98,328.13 "
     style="fill:none;stroke:#333333;stroke-width:1.07000005;stroke-linecap:butt;stroke-linejoin:round;stroke-miterlimit:10"
     clip-path="url(#cpMHw3MjB8MzYwfDA=)"
     id="polyline656"
     transform="translate(-108.585,-36.880314)" />
  <polyline
     points="149.39,330.87 149.39,328.13 "
     style="fill:none;stroke:#333333;stroke-width:1.07000005;stroke-linecap:butt;stroke-linejoin:round;stroke-miterlimit:10"
     clip-path="url(#cpMHw3MjB8MzYwfDA=)"
     id="polyline658"
     transform="translate(-108.585,-36.880314)" />
  <g
     clip-path="url(#cpMHw3MjB8MzYwfDA=)"
     id="g660"
     transform="translate(-108.585,-36.880314)">
    <text
       x="462.45999"
       y="339.25"
       style="font-size:8.80000019px;fill:#4d4d4d;font-family:Liberation Sans"
       textLength="9.78px"
       lengthAdjust="spacingAndGlyphs"
       id="text662">20</text>
  </g>
  <g
     clip-path="url(#cpMHw3MjB8MzYwfDA=)"
     id="g664"
     transform="translate(-108.585,-36.880314)">
    <text
       x="398.87"
       y="339.25"
       style="font-size:8.80000019px;fill:#4d4d4d;font-family:Liberation Sans"
       textLength="9.78px"
       lengthAdjust="spacingAndGlyphs"
       id="text666">40</text>
  </g>
  <g
     clip-path="url(#cpMHw3MjB8MzYwfDA=)"
     id="g668"
     transform="translate(-108.585,-36.880314)">
    <text
       x="335.28"
       y="339.25"
       style="font-size:8.80000019px;fill:#4d4d4d;font-family:Liberation Sans"
       textLength="9.78px"
       lengthAdjust="spacingAndGlyphs"
       id="text670">60</text>
  </g>
  <g
     clip-path="url(#cpMHw3MjB8MzYwfDA=)"
     id="g672"
     transform="translate(-108.585,-36.880314)">
    <text
       x="271.67999"
       y="339.25"
       style="font-size:8.80000019px;fill:#4d4d4d;font-family:Liberation Sans"
       textLength="9.78px"
       lengthAdjust="spacingAndGlyphs"
       id="text674">80</text>
  </g>
  <g
     clip-path="url(#cpMHw3MjB8MzYwfDA=)"
     id="g676"
     transform="translate(-108.585,-36.880314)">
    <text
       x="205.64"
       y="339.25"
       style="font-size:8.80000019px;fill:#4d4d4d;font-family:Liberation Sans"
       textLength="14.68px"
       lengthAdjust="spacingAndGlyphs"
       id="text678">100</text>
  </g>
  <g
     clip-path="url(#cpMHw3MjB8MzYwfDA=)"
     id="g680"
     transform="translate(-108.585,-36.880314)">
    <text
       x="142.05"
       y="339.25"
       style="font-size:8.80000019px;fill:#4d4d4d;font-family:Liberation Sans"
       textLength="14.68px"
       lengthAdjust="spacingAndGlyphs"
       id="text682">120</text>
  </g>
  <g
     clip-path="url(#cpMHw3MjB8MzYwfDA=)"
     id="g684"
     transform="translate(-108.585,-36.880314)">
    <text
       x="339.97"
       y="352.04001"
       style="font-size:11px;font-family:Liberation Sans"
       textLength="42.80px"
       lengthAdjust="spacingAndGlyphs"
       id="text686">Distance</text>
  </g>
</svg>
