<?xml version="1.0" encoding="UTF-8" standalone="no"?>
<!-- Created with Inkscape (http://www.inkscape.org/) -->

<svg
   xmlns:dc="http://purl.org/dc/elements/1.1/"
   xmlns:cc="http://creativecommons.org/ns#"
   xmlns:rdf="http://www.w3.org/1999/02/22-rdf-syntax-ns#"
   xmlns:svg="http://www.w3.org/2000/svg"
   xmlns="http://www.w3.org/2000/svg"
   version="1.1"
   width="62.737514"
   height="63.938755"
   id="svg2">
  <defs
     id="defs4">
    <marker
       refX="0"
       refY="0"
       orient="auto"
       id="Arrow1Mend"
       style="overflow:visible">
      <path
         d="M 0,0 5,-5 -12.5,0 5,5 0,0 z"
         transform="matrix(-0.4,0,0,-0.4,-4,0)"
         id="path4416"
         style="fill-rule:evenodd;stroke:#000000;stroke-width:1pt" />
    </marker>
    <marker
       refX="0"
       refY="0"
       orient="auto"
       id="Arrow1Send"
       style="overflow:visible">
      <path
         d="M 0,0 5,-5 -12.5,0 5,5 0,0 z"
         transform="matrix(-0.2,0,0,-0.2,-1.2,0)"
         id="path4422"
         style="fill-rule:evenodd;stroke:#000000;stroke-width:1pt" />
    </marker>
    <marker
       refX="0"
       refY="0"
       orient="auto"
       id="Arrow1Lend"
       style="overflow:visible">
      <path
         d="M 0,0 5,-5 -12.5,0 5,5 0,0 z"
         transform="matrix(-0.8,0,0,-0.8,-10,0)"
         id="path4410"
         style="fill-rule:evenodd;stroke:#000000;stroke-width:1pt" />
    </marker>
    <marker
       refX="0"
       refY="0"
       orient="auto"
       id="Arrow1Sstart"
       style="overflow:visible">
      <path
         d="M 0,0 5,-5 -12.5,0 5,5 0,0 z"
         transform="matrix(0.2,0,0,0.2,1.2,0)"
         id="path4419"
         style="fill-rule:evenodd;stroke:#000000;stroke-width:1pt" />
    </marker>
  </defs>
  <metadata
     id="metadata7">
    <rdf:RDF>
      <cc:Work
         rdf:about="">
        <dc:format>image/svg+xml</dc:format>
        <dc:type
           rdf:resource="http://purl.org/dc/dcmitype/StillImage" />
        <dc:title></dc:title>
      </cc:Work>
    </rdf:RDF>
  </metadata>
  <g
     transform="translate(-613.59045,-399.64832)"
     id="layer1">
    <path
       d="m 165.71428,154.50504 a 23.571428,23.571428 0 1 1 -47.14286,0 23.571428,23.571428 0 1 1 47.14286,0 z"
       id="path2987"
       style="fill:#a7a6e5;fill-opacity:1;stroke:#000000;stroke-width:4.0999999;stroke-miterlimit:4;stroke-opacity:1;stroke-dasharray:none" />
    <path
       d="m 165.71428,154.50504 a 23.571428,23.571428 0 1 1 -47.14286,0 23.571428,23.571428 0 1 1 47.14286,0 z"
       transform="translate(35.714286,10)"
       id="path3757"
       style="fill:#a7a6e5;fill-opacity:1;stroke:#000000;stroke-width:4.0999999;stroke-miterlimit:4;stroke-opacity:1;stroke-dasharray:none" />
    <path
       d="m 165.71428,154.50504 a 23.571428,23.571428 0 1 1 -47.14286,0 23.571428,23.571428 0 1 1 47.14286,0 z"
       transform="translate(-24.285714,22.857143)"
       id="path3759"
       style="fill:#a7a6e5;fill-opacity:1;stroke:#000000;stroke-width:4.0999999;stroke-miterlimit:4;stroke-opacity:1;stroke-dasharray:none" />
    <path
       d="m 165.71428,154.50504 a 23.571428,23.571428 0 1 1 -47.14286,0 23.571428,23.571428 0 1 1 47.14286,0 z"
       transform="translate(11.428572,35.714286)"
       id="path3761"
       style="fill:#a7a6e5;fill-opacity:1;stroke:#000000;stroke-width:4.0999999;stroke-miterlimit:4;stroke-opacity:1;stroke-dasharray:none" />
    <path
       d="m 165.71428,154.50504 a 23.571428,23.571428 0 1 1 -47.14286,0 23.571428,23.571428 0 1 1 47.14286,0 z"
       transform="translate(-50,45.714285)"
       id="path3763"
       style="fill:#a7a6e5;fill-opacity:1;stroke:#000000;stroke-width:4.0999999;stroke-miterlimit:4;stroke-opacity:1;stroke-dasharray:none" />
    <path
       d="m 165.71428,154.50504 a 23.571428,23.571428 0 1 1 -47.14286,0 23.571428,23.571428 0 1 1 47.14286,0 z"
       transform="translate(-14.285714,55.714285)"
       id="path3765"
       style="fill:#a7a6e5;fill-opacity:1;stroke:#000000;stroke-width:4.0999999;stroke-miterlimit:4;stroke-opacity:1;stroke-dasharray:none" />
    <path
       d="m 165.71428,154.50504 a 23.571428,23.571428 0 1 1 -47.14286,0 23.571428,23.571428 0 1 1 47.14286,0 z"
       transform="translate(-74.285714,68.571428)"
       id="path3767"
       style="fill:#a7a6e5;fill-opacity:1;stroke:#000000;stroke-width:4.0999999;stroke-miterlimit:4;stroke-opacity:1;stroke-dasharray:none" />
    <path
       d="m 165.71428,154.50504 a 23.571428,23.571428 0 1 1 -47.14286,0 23.571428,23.571428 0 1 1 47.14286,0 z"
       transform="translate(-38.571428,81.428571)"
       id="path3769"
       style="fill:#a7a6e5;fill-opacity:1;stroke:#000000;stroke-width:4.0999999;stroke-miterlimit:4;stroke-opacity:1;stroke-dasharray:none" />
    <path
       d="m 165.71428,154.50504 a 23.571428,23.571428 0 1 1 -47.14286,0 23.571428,23.571428 0 1 1 47.14286,0 z"
       transform="translate(45.714286,31.428571)"
       id="path3771"
       style="fill:#a7a6e5;fill-opacity:1;stroke:#000000;stroke-width:4.0999999;stroke-miterlimit:4;stroke-opacity:1;stroke-dasharray:none" />
    <path
       d="m 165.71428,154.50504 a 23.571428,23.571428 0 1 1 -47.14286,0 23.571428,23.571428 0 1 1 47.14286,0 z"
       transform="translate(81.428572,41.428571)"
       id="path3773"
       style="fill:#a7a6e5;fill-opacity:1;stroke:#000000;stroke-width:4.0999999;stroke-miterlimit:4;stroke-opacity:1;stroke-dasharray:none" />
    <path
       d="m 165.71428,154.50504 a 23.571428,23.571428 0 1 1 -47.14286,0 23.571428,23.571428 0 1 1 47.14286,0 z"
       transform="translate(21.428572,54.285714)"
       id="path3775"
       style="fill:#a7a6e5;fill-opacity:1;stroke:#000000;stroke-width:4.0999999;stroke-miterlimit:4;stroke-opacity:1;stroke-dasharray:none" />
    <path
       d="m 165.71428,154.50504 a 23.571428,23.571428 0 1 1 -47.14286,0 23.571428,23.571428 0 1 1 47.14286,0 z"
       transform="translate(57.142858,67.142857)"
       id="path3777"
       style="fill:#a7a6e5;fill-opacity:1;stroke:#000000;stroke-width:4.0999999;stroke-miterlimit:4;stroke-opacity:1;stroke-dasharray:none" />
    <path
       d="m 165.71428,154.50504 a 23.571428,23.571428 0 1 1 -47.14286,0 23.571428,23.571428 0 1 1 47.14286,0 z"
       id="path3779"
       style="fill:#a7a6e5;fill-opacity:1;stroke:#000000;stroke-width:4.0999999;stroke-miterlimit:4;stroke-opacity:1;stroke-dasharray:none" />
    <path
       d="m 165.71428,154.50504 a 23.571428,23.571428 0 1 1 -47.14286,0 23.571428,23.571428 0 1 1 47.14286,0 z"
       transform="translate(35.714286,10)"
       id="path3781"
       style="fill:#a7a6e5;fill-opacity:1;stroke:#000000;stroke-width:4.0999999;stroke-miterlimit:4;stroke-opacity:1;stroke-dasharray:none" />
    <path
       d="m 165.71428,154.50504 a 23.571428,23.571428 0 1 1 -47.14286,0 23.571428,23.571428 0 1 1 47.14286,0 z"
       transform="translate(-24.285714,22.857143)"
       id="path3783"
       style="fill:#a7a6e5;fill-opacity:1;stroke:#000000;stroke-width:4.0999999;stroke-miterlimit:4;stroke-opacity:1;stroke-dasharray:none" />
    <path
       d="m 165.71428,154.50504 a 23.571428,23.571428 0 1 1 -47.14286,0 23.571428,23.571428 0 1 1 47.14286,0 z"
       transform="translate(11.428572,35.714286)"
       id="path3785"
       style="fill:#a7a6e5;fill-opacity:1;stroke:#000000;stroke-width:4.0999999;stroke-miterlimit:4;stroke-opacity:1;stroke-dasharray:none" />
    <path
       d="m 165.71428,154.50504 a 23.571428,23.571428 0 1 1 -47.14286,0 23.571428,23.571428 0 1 1 47.14286,0 z"
       transform="translate(-50,45.714285)"
       id="path3787"
       style="fill:#a7a6e5;fill-opacity:1;stroke:#000000;stroke-width:4.0999999;stroke-miterlimit:4;stroke-opacity:1;stroke-dasharray:none" />
    <path
       d="m 165.71428,154.50504 a 23.571428,23.571428 0 1 1 -47.14286,0 23.571428,23.571428 0 1 1 47.14286,0 z"
       transform="translate(-14.285714,55.714285)"
       id="path3789"
       style="fill:#a7a6e5;fill-opacity:1;stroke:#000000;stroke-width:4.0999999;stroke-miterlimit:4;stroke-opacity:1;stroke-dasharray:none" />
    <path
       d="m 165.71428,154.50504 a 23.571428,23.571428 0 1 1 -47.14286,0 23.571428,23.571428 0 1 1 47.14286,0 z"
       transform="translate(-74.285714,68.571428)"
       id="path3791"
       style="fill:#a7a6e5;fill-opacity:1;stroke:#000000;stroke-width:4.0999999;stroke-miterlimit:4;stroke-opacity:1;stroke-dasharray:none" />
    <path
       d="m 165.71428,154.50504 a 23.571428,23.571428 0 1 1 -47.14286,0 23.571428,23.571428 0 1 1 47.14286,0 z"
       transform="translate(-38.571428,81.428571)"
       id="path3793"
       style="fill:#a7a6e5;fill-opacity:1;stroke:#000000;stroke-width:4.0999999;stroke-miterlimit:4;stroke-opacity:1;stroke-dasharray:none" />
    <path
       d="m 165.71428,154.50504 a 23.571428,23.571428 0 1 1 -47.14286,0 23.571428,23.571428 0 1 1 47.14286,0 z"
       transform="translate(45.714286,31.428571)"
       id="path3795"
       style="fill:#a7a6e5;fill-opacity:1;stroke:#000000;stroke-width:4.0999999;stroke-miterlimit:4;stroke-opacity:1;stroke-dasharray:none" />
    <path
       d="m 165.71428,154.50504 a 23.571428,23.571428 0 1 1 -47.14286,0 23.571428,23.571428 0 1 1 47.14286,0 z"
       transform="translate(81.428572,41.428571)"
       id="path3797"
       style="fill:#a7a6e5;fill-opacity:1;stroke:#000000;stroke-width:4.0999999;stroke-miterlimit:4;stroke-opacity:1;stroke-dasharray:none" />
    <path
       d="m 165.71428,154.50504 a 23.571428,23.571428 0 1 1 -47.14286,0 23.571428,23.571428 0 1 1 47.14286,0 z"
       transform="translate(21.428572,54.285714)"
       id="path3799"
       style="fill:#a7a6e5;fill-opacity:1;stroke:#000000;stroke-width:4.0999999;stroke-miterlimit:4;stroke-opacity:1;stroke-dasharray:none" />
    <path
       d="m 165.71428,154.50504 a 23.571428,23.571428 0 1 1 -47.14286,0 23.571428,23.571428 0 1 1 47.14286,0 z"
       transform="translate(57.142858,67.142857)"
       id="path3801"
       style="fill:#a7a6e5;fill-opacity:1;stroke:#000000;stroke-width:4.0999999;stroke-miterlimit:4;stroke-opacity:1;stroke-dasharray:none" />
    <path
       d="m 165.71428,154.50504 a 23.571428,23.571428 0 1 1 -47.14286,0 23.571428,23.571428 0 1 1 47.14286,0 z"
       transform="translate(-24.285714,22.857143)"
       id="path3825"
       style="fill:#a7a6e5;fill-opacity:1;stroke:#000000;stroke-width:4.0999999;stroke-miterlimit:4;stroke-opacity:1;stroke-dasharray:none" />
    <path
       d="m 165.71428,154.50504 a 23.571428,23.571428 0 1 1 -47.14286,0 23.571428,23.571428 0 1 1 47.14286,0 z"
       transform="translate(-50,45.714285)"
       id="path3827"
       style="fill:#a7a6e5;fill-opacity:1;stroke:#000000;stroke-width:4.0999999;stroke-miterlimit:4;stroke-opacity:1;stroke-dasharray:none" />
    <path
       d="m 165.71428,154.50504 a 23.571428,23.571428 0 1 1 -47.14286,0 23.571428,23.571428 0 1 1 47.14286,0 z"
       transform="translate(-14.285714,55.714285)"
       id="path3829"
       style="fill:#a7a6e5;fill-opacity:1;stroke:#000000;stroke-width:4.0999999;stroke-miterlimit:4;stroke-opacity:1;stroke-dasharray:none" />
    <path
       d="m 165.71428,154.50504 a 23.571428,23.571428 0 1 1 -47.14286,0 23.571428,23.571428 0 1 1 47.14286,0 z"
       transform="translate(-74.285714,68.571428)"
       id="path3831"
       style="fill:#a7a6e5;fill-opacity:1;stroke:#000000;stroke-width:4.0999999;stroke-miterlimit:4;stroke-opacity:1;stroke-dasharray:none" />
    <path
       d="m 165.71428,154.50504 a 23.571428,23.571428 0 1 1 -47.14286,0 23.571428,23.571428 0 1 1 47.14286,0 z"
       transform="translate(-38.571428,81.428571)"
       id="path3833"
       style="fill:#a7a6e5;fill-opacity:1;stroke:#000000;stroke-width:4.0999999;stroke-miterlimit:4;stroke-opacity:1;stroke-dasharray:none" />
    <path
       d="m 165.71428,154.50504 a 23.571428,23.571428 0 1 1 -47.14286,0 23.571428,23.571428 0 1 1 47.14286,0 z"
       transform="translate(-24.285714,22.857143)"
       id="path3835"
       style="fill:#a7a6e5;fill-opacity:1;stroke:#000000;stroke-width:4.0999999;stroke-miterlimit:4;stroke-opacity:1;stroke-dasharray:none" />
    <path
       d="m 165.71428,154.50504 a 23.571428,23.571428 0 1 1 -47.14286,0 23.571428,23.571428 0 1 1 47.14286,0 z"
       transform="translate(-50,45.714285)"
       id="path3837"
       style="fill:#a7a6e5;fill-opacity:1;stroke:#000000;stroke-width:4.0999999;stroke-miterlimit:4;stroke-opacity:1;stroke-dasharray:none" />
    <path
       d="m 165.71428,154.50504 a 23.571428,23.571428 0 1 1 -47.14286,0 23.571428,23.571428 0 1 1 47.14286,0 z"
       transform="translate(-14.285714,55.714285)"
       id="path3839"
       style="fill:#a7a6e5;fill-opacity:1;stroke:#000000;stroke-width:4.0999999;stroke-miterlimit:4;stroke-opacity:1;stroke-dasharray:none" />
    <path
       d="m 165.71428,154.50504 a 23.571428,23.571428 0 1 1 -47.14286,0 23.571428,23.571428 0 1 1 47.14286,0 z"
       transform="translate(-74.285714,68.571428)"
       id="path3841"
       style="fill:#a7a6e5;fill-opacity:1;stroke:#000000;stroke-width:4.0999999;stroke-miterlimit:4;stroke-opacity:1;stroke-dasharray:none" />
    <path
       d="m 165.71428,154.50504 a 23.571428,23.571428 0 1 1 -47.14286,0 23.571428,23.571428 0 1 1 47.14286,0 z"
       transform="translate(-38.571428,81.428571)"
       id="path3843"
       style="fill:#a7a6e5;fill-opacity:1;stroke:#000000;stroke-width:4.0999999;stroke-miterlimit:4;stroke-opacity:1;stroke-dasharray:none" />
    <path
       d="m 165.71428,154.50504 a 23.571428,23.571428 0 1 1 -47.14286,0 23.571428,23.571428 0 1 1 47.14286,0 z"
       transform="translate(-50,45.714285)"
       id="path3845"
       style="fill:#a7a6e5;fill-opacity:1;stroke:#000000;stroke-width:4.0999999;stroke-miterlimit:4;stroke-opacity:1;stroke-dasharray:none" />
    <path
       d="m 165.71428,154.50504 a 23.571428,23.571428 0 1 1 -47.14286,0 23.571428,23.571428 0 1 1 47.14286,0 z"
       transform="translate(-14.285714,55.714285)"
       id="path3847"
       style="fill:#a7a6e5;fill-opacity:1;stroke:#000000;stroke-width:4.0999999;stroke-miterlimit:4;stroke-opacity:1;stroke-dasharray:none" />
    <path
       d="m 165.71428,154.50504 a 23.571428,23.571428 0 1 1 -47.14286,0 23.571428,23.571428 0 1 1 47.14286,0 z"
       transform="translate(-74.285714,68.571428)"
       id="path3849"
       style="fill:#a7a6e5;fill-opacity:1;stroke:#000000;stroke-width:4.0999999;stroke-miterlimit:4;stroke-opacity:1;stroke-dasharray:none" />
    <path
       d="m 165.71428,154.50504 a 23.571428,23.571428 0 1 1 -47.14286,0 23.571428,23.571428 0 1 1 47.14286,0 z"
       transform="translate(-38.571428,81.428571)"
       id="path3851"
       style="fill:#a7a6e5;fill-opacity:1;stroke:#000000;stroke-width:4.0999999;stroke-miterlimit:4;stroke-opacity:1;stroke-dasharray:none" />
    <path
       d="m 165.71428,154.50504 a 23.571428,23.571428 0 1 1 -47.14286,0 23.571428,23.571428 0 1 1 47.14286,0 z"
       transform="translate(-50,45.714285)"
       id="path3853"
       style="fill:#a7a6e5;fill-opacity:1;stroke:#000000;stroke-width:4.0999999;stroke-miterlimit:4;stroke-opacity:1;stroke-dasharray:none" />
    <path
       d="m 165.71428,154.50504 a 23.571428,23.571428 0 1 1 -47.14286,0 23.571428,23.571428 0 1 1 47.14286,0 z"
       transform="translate(-14.285714,55.714285)"
       id="path3855"
       style="fill:#a7a6e5;fill-opacity:1;stroke:#000000;stroke-width:4.0999999;stroke-miterlimit:4;stroke-opacity:1;stroke-dasharray:none" />
    <path
       d="m 165.71428,154.50504 a 23.571428,23.571428 0 1 1 -47.14286,0 23.571428,23.571428 0 1 1 47.14286,0 z"
       transform="translate(-74.285714,68.571428)"
       id="path3857"
       style="fill:#a7a6e5;fill-opacity:1;stroke:#000000;stroke-width:4.0999999;stroke-miterlimit:4;stroke-opacity:1;stroke-dasharray:none" />
    <path
       d="m 165.71428,154.50504 a 23.571428,23.571428 0 1 1 -47.14286,0 23.571428,23.571428 0 1 1 47.14286,0 z"
       transform="translate(-38.571428,81.428571)"
       id="path3859"
       style="fill:#a7a6e5;fill-opacity:1;stroke:#000000;stroke-width:4.0999999;stroke-miterlimit:4;stroke-opacity:1;stroke-dasharray:none" />
    <path
       d="m 165.71428,154.50504 a 23.571428,23.571428 0 1 1 -47.14286,0 23.571428,23.571428 0 1 1 47.14286,0 z"
       transform="translate(-50,45.714285)"
       id="path3861"
       style="fill:#a7a6e5;fill-opacity:1;stroke:#000000;stroke-width:4.0999999;stroke-miterlimit:4;stroke-opacity:1;stroke-dasharray:none" />
    <path
       d="m 165.71428,154.50504 a 23.571428,23.571428 0 1 1 -47.14286,0 23.571428,23.571428 0 1 1 47.14286,0 z"
       transform="translate(-14.285714,55.714285)"
       id="path3863"
       style="fill:#a7a6e5;fill-opacity:1;stroke:#000000;stroke-width:4.0999999;stroke-miterlimit:4;stroke-opacity:1;stroke-dasharray:none" />
    <path
       d="m 165.71428,154.50504 a 23.571428,23.571428 0 1 1 -47.14286,0 23.571428,23.571428 0 1 1 47.14286,0 z"
       transform="translate(-74.285714,68.571428)"
       id="path3865"
       style="fill:#a7a6e5;fill-opacity:1;stroke:#000000;stroke-width:4.0999999;stroke-miterlimit:4;stroke-opacity:1;stroke-dasharray:none" />
    <path
       d="m 165.71428,154.50504 a 23.571428,23.571428 0 1 1 -47.14286,0 23.571428,23.571428 0 1 1 47.14286,0 z"
       transform="translate(-38.571428,81.428571)"
       id="path3867"
       style="fill:#a7a6e5;fill-opacity:1;stroke:#000000;stroke-width:4.0999999;stroke-miterlimit:4;stroke-opacity:1;stroke-dasharray:none" />
    <path
       d="m 165.71428,154.50504 a 23.571428,23.571428 0 1 1 -47.14286,0 23.571428,23.571428 0 1 1 47.14286,0 z"
       transform="translate(-50,45.714285)"
       id="path3869"
       style="fill:#a7a6e5;fill-opacity:1;stroke:#000000;stroke-width:4.0999999;stroke-miterlimit:4;stroke-opacity:1;stroke-dasharray:none" />
    <path
       d="m 165.71428,154.50504 a 23.571428,23.571428 0 1 1 -47.14286,0 23.571428,23.571428 0 1 1 47.14286,0 z"
       transform="translate(-14.285714,55.714285)"
       id="path3871"
       style="fill:#a7a6e5;fill-opacity:1;stroke:#000000;stroke-width:4.0999999;stroke-miterlimit:4;stroke-opacity:1;stroke-dasharray:none" />
    <path
       d="m 165.71428,154.50504 a 23.571428,23.571428 0 1 1 -47.14286,0 23.571428,23.571428 0 1 1 47.14286,0 z"
       transform="translate(-74.285714,68.571428)"
       id="path3873"
       style="fill:#a7a6e5;fill-opacity:1;stroke:#000000;stroke-width:4.0999999;stroke-miterlimit:4;stroke-opacity:1;stroke-dasharray:none" />
    <path
       d="m 165.71428,154.50504 a 23.571428,23.571428 0 1 1 -47.14286,0 23.571428,23.571428 0 1 1 47.14286,0 z"
       transform="translate(-38.571428,81.428571)"
       id="path3875"
       style="fill:#a7a6e5;fill-opacity:1;stroke:#000000;stroke-width:4.0999999;stroke-miterlimit:4;stroke-opacity:1;stroke-dasharray:none" />
    <path
       d="m 165.71428,154.50504 a 23.571428,23.571428 0 1 1 -47.14286,0 23.571428,23.571428 0 1 1 47.14286,0 z"
       transform="translate(-90,92.857142)"
       id="path3909"
       style="fill:#a7a6e5;fill-opacity:1;stroke:#000000;stroke-width:4.0999999;stroke-miterlimit:4;stroke-opacity:1;stroke-dasharray:none" />
    <path
       d="m 165.71428,154.50504 a 23.571428,23.571428 0 1 1 -47.14286,0 23.571428,23.571428 0 1 1 47.14286,0 z"
       transform="translate(-114.28571,115.71429)"
       id="path3911"
       style="fill:#a7a6e5;fill-opacity:1;stroke:#000000;stroke-width:4.0999999;stroke-miterlimit:4;stroke-opacity:1;stroke-dasharray:none" />
    <path
       d="m 165.71428,154.50504 a 23.571428,23.571428 0 1 1 -47.14286,0 23.571428,23.571428 0 1 1 47.14286,0 z"
       transform="translate(-78.571428,128.57143)"
       id="path3913"
       style="fill:#a7a6e5;fill-opacity:1;stroke:#000000;stroke-width:4.0999999;stroke-miterlimit:4;stroke-opacity:1;stroke-dasharray:none" />
    <path
       d="m 165.71428,154.50504 a 23.571428,23.571428 0 1 1 -47.14286,0 23.571428,23.571428 0 1 1 47.14286,0 z"
       transform="translate(-90,92.857142)"
       id="path3915"
       style="fill:#a7a6e5;fill-opacity:1;stroke:#000000;stroke-width:4.0999999;stroke-miterlimit:4;stroke-opacity:1;stroke-dasharray:none" />
    <path
       d="m 165.71428,154.50504 a 23.571428,23.571428 0 1 1 -47.14286,0 23.571428,23.571428 0 1 1 47.14286,0 z"
       transform="translate(-114.28571,115.71429)"
       id="path3917"
       style="fill:#a7a6e5;fill-opacity:1;stroke:#000000;stroke-width:4.0999999;stroke-miterlimit:4;stroke-opacity:1;stroke-dasharray:none" />
    <path
       d="m 165.71428,154.50504 a 23.571428,23.571428 0 1 1 -47.14286,0 23.571428,23.571428 0 1 1 47.14286,0 z"
       transform="translate(-78.571428,128.57143)"
       id="path3919"
       style="fill:#a7a6e5;fill-opacity:1;stroke:#000000;stroke-width:4.0999999;stroke-miterlimit:4;stroke-opacity:1;stroke-dasharray:none" />
    <path
       d="m 165.71428,154.50504 a 23.571428,23.571428 0 1 1 -47.14286,0 23.571428,23.571428 0 1 1 47.14286,0 z"
       transform="translate(-90,92.857142)"
       id="path3921"
       style="fill:#a7a6e5;fill-opacity:1;stroke:#000000;stroke-width:4.0999999;stroke-miterlimit:4;stroke-opacity:1;stroke-dasharray:none" />
    <path
       d="m 165.71428,154.50504 a 23.571428,23.571428 0 1 1 -47.14286,0 23.571428,23.571428 0 1 1 47.14286,0 z"
       transform="translate(-114.28571,115.71429)"
       id="path3923"
       style="fill:#a7a6e5;fill-opacity:1;stroke:#000000;stroke-width:4.0999999;stroke-miterlimit:4;stroke-opacity:1;stroke-dasharray:none" />
    <path
       d="m 165.71428,154.50504 a 23.571428,23.571428 0 1 1 -47.14286,0 23.571428,23.571428 0 1 1 47.14286,0 z"
       transform="translate(-78.571428,128.57143)"
       id="path3925"
       style="fill:#a7a6e5;fill-opacity:1;stroke:#000000;stroke-width:4.0999999;stroke-miterlimit:4;stroke-opacity:1;stroke-dasharray:none" />
    <path
       d="m 165.71428,154.50504 a 23.571428,23.571428 0 1 1 -47.14286,0 23.571428,23.571428 0 1 1 47.14286,0 z"
       transform="translate(-90,92.857142)"
       id="path3927"
       style="fill:#a7a6e5;fill-opacity:1;stroke:#000000;stroke-width:4.0999999;stroke-miterlimit:4;stroke-opacity:1;stroke-dasharray:none" />
    <path
       d="m 165.71428,154.50504 a 23.571428,23.571428 0 1 1 -47.14286,0 23.571428,23.571428 0 1 1 47.14286,0 z"
       transform="translate(-114.28571,115.71429)"
       id="path3929"
       style="fill:#a7a6e5;fill-opacity:1;stroke:#000000;stroke-width:4.0999999;stroke-miterlimit:4;stroke-opacity:1;stroke-dasharray:none" />
    <path
       d="m 165.71428,154.50504 a 23.571428,23.571428 0 1 1 -47.14286,0 23.571428,23.571428 0 1 1 47.14286,0 z"
       transform="translate(-78.571428,128.57143)"
       id="path3931"
       style="fill:#a7a6e5;fill-opacity:1;stroke:#000000;stroke-width:4.0999999;stroke-miterlimit:4;stroke-opacity:1;stroke-dasharray:none" />
    <path
       d="m 165.71428,154.50504 a 23.571428,23.571428 0 1 1 -47.14286,0 23.571428,23.571428 0 1 1 47.14286,0 z"
       transform="translate(-90,92.857142)"
       id="path3933"
       style="fill:#a7a6e5;fill-opacity:1;stroke:#000000;stroke-width:4.0999999;stroke-miterlimit:4;stroke-opacity:1;stroke-dasharray:none" />
    <path
       d="m 165.71428,154.50504 a 23.571428,23.571428 0 1 1 -47.14286,0 23.571428,23.571428 0 1 1 47.14286,0 z"
       transform="translate(-114.28571,115.71429)"
       id="path3935"
       style="fill:#a7a6e5;fill-opacity:1;stroke:#000000;stroke-width:4.0999999;stroke-miterlimit:4;stroke-opacity:1;stroke-dasharray:none" />
    <path
       d="m 165.71428,154.50504 a 23.571428,23.571428 0 1 1 -47.14286,0 23.571428,23.571428 0 1 1 47.14286,0 z"
       transform="translate(-78.571428,128.57143)"
       id="path3937"
       style="fill:#a7a6e5;fill-opacity:1;stroke:#000000;stroke-width:4.0999999;stroke-miterlimit:4;stroke-opacity:1;stroke-dasharray:none" />
    <path
       d="m 165.71428,154.50504 a 23.571428,23.571428 0 1 1 -47.14286,0 23.571428,23.571428 0 1 1 47.14286,0 z"
       transform="translate(-90,92.857142)"
       id="path3939"
       style="fill:#a7a6e5;fill-opacity:1;stroke:#000000;stroke-width:4.0999999;stroke-miterlimit:4;stroke-opacity:1;stroke-dasharray:none" />
    <path
       d="m 165.71428,154.50504 a 23.571428,23.571428 0 1 1 -47.14286,0 23.571428,23.571428 0 1 1 47.14286,0 z"
       transform="translate(-114.28571,115.71429)"
       id="path3941"
       style="fill:#a7a6e5;fill-opacity:1;stroke:#000000;stroke-width:4.0999999;stroke-miterlimit:4;stroke-opacity:1;stroke-dasharray:none" />
    <path
       d="m 165.71428,154.50504 a 23.571428,23.571428 0 1 1 -47.14286,0 23.571428,23.571428 0 1 1 47.14286,0 z"
       transform="translate(-78.571428,128.57143)"
       id="path3943"
       style="fill:#a7a6e5;fill-opacity:1;stroke:#000000;stroke-width:4.0999999;stroke-miterlimit:4;stroke-opacity:1;stroke-dasharray:none" />
    <path
       d="m 165.71428,154.50504 a 23.571428,23.571428 0 1 1 -47.14286,0 23.571428,23.571428 0 1 1 47.14286,0 z"
       transform="translate(-90,92.857142)"
       id="path3945"
       style="fill:#a7a6e5;fill-opacity:1;stroke:#000000;stroke-width:4.0999999;stroke-miterlimit:4;stroke-opacity:1;stroke-dasharray:none" />
    <path
       d="m 165.71428,154.50504 a 23.571428,23.571428 0 1 1 -47.14286,0 23.571428,23.571428 0 1 1 47.14286,0 z"
       transform="translate(-114.28571,115.71429)"
       id="path3947"
       style="fill:#a7a6e5;fill-opacity:1;stroke:#000000;stroke-width:4.0999999;stroke-miterlimit:4;stroke-opacity:1;stroke-dasharray:none" />
    <path
       d="m 165.71428,154.50504 a 23.571428,23.571428 0 1 1 -47.14286,0 23.571428,23.571428 0 1 1 47.14286,0 z"
       transform="translate(-78.571428,128.57143)"
       id="path3949"
       style="fill:#a7a6e5;fill-opacity:1;stroke:#000000;stroke-width:4.0999999;stroke-miterlimit:4;stroke-opacity:1;stroke-dasharray:none" />
    <path
       d="m 165.71428,154.50504 a 23.571428,23.571428 0 1 1 -47.14286,0 23.571428,23.571428 0 1 1 47.14286,0 z"
       transform="translate(-90,92.857142)"
       id="path3951"
       style="fill:#a7a6e5;fill-opacity:1;stroke:#000000;stroke-width:4.0999999;stroke-miterlimit:4;stroke-opacity:1;stroke-dasharray:none" />
    <path
       d="m 165.71428,154.50504 a 23.571428,23.571428 0 1 1 -47.14286,0 23.571428,23.571428 0 1 1 47.14286,0 z"
       transform="translate(-54.285714,102.85714)"
       id="path3953"
       style="fill:#a7a6e5;fill-opacity:1;stroke:#000000;stroke-width:4.0999999;stroke-miterlimit:4;stroke-opacity:1;stroke-dasharray:none" />
    <path
       d="m 165.71428,154.50504 a 23.571428,23.571428 0 1 1 -47.14286,0 23.571428,23.571428 0 1 1 47.14286,0 z"
       transform="translate(-114.28571,115.71429)"
       id="path3955"
       style="fill:#a7a6e5;fill-opacity:1;stroke:#000000;stroke-width:4.0999999;stroke-miterlimit:4;stroke-opacity:1;stroke-dasharray:none" />
    <path
       d="m 165.71428,154.50504 a 23.571428,23.571428 0 1 1 -47.14286,0 23.571428,23.571428 0 1 1 47.14286,0 z"
       transform="translate(-78.571428,128.57143)"
       id="path3957"
       style="fill:#a7a6e5;fill-opacity:1;stroke:#000000;stroke-width:4.0999999;stroke-miterlimit:4;stroke-opacity:1;stroke-dasharray:none" />
    <path
       d="m 165.71428,154.50504 a 23.571428,23.571428 0 1 1 -47.14286,0 23.571428,23.571428 0 1 1 47.14286,0 z"
       transform="translate(5.7142858,84.285713)"
       id="path3959"
       style="fill:#a7a6e5;fill-opacity:1;stroke:#000000;stroke-width:4.0999999;stroke-miterlimit:4;stroke-opacity:1;stroke-dasharray:none" />
    <path
       d="m 165.71428,154.50504 a 23.571428,23.571428 0 1 1 -47.14286,0 23.571428,23.571428 0 1 1 47.14286,0 z"
       transform="translate(-18.571424,107.14286)"
       id="path3961"
       style="fill:#a7a6e5;fill-opacity:1;stroke:#000000;stroke-width:4.0999999;stroke-miterlimit:4;stroke-opacity:1;stroke-dasharray:none" />
    <path
       d="m 165.71428,154.50504 a 23.571428,23.571428 0 1 1 -47.14286,0 23.571428,23.571428 0 1 1 47.14286,0 z"
       transform="translate(17.142858,120)"
       id="path3963"
       style="fill:#a7a6e5;fill-opacity:1;stroke:#000000;stroke-width:4.0999999;stroke-miterlimit:4;stroke-opacity:1;stroke-dasharray:none" />
    <path
       d="m 165.71428,154.50504 a 23.571428,23.571428 0 1 1 -47.14286,0 23.571428,23.571428 0 1 1 47.14286,0 z"
       transform="translate(5.7142858,84.285713)"
       id="path3965"
       style="fill:#a7a6e5;fill-opacity:1;stroke:#000000;stroke-width:4.0999999;stroke-miterlimit:4;stroke-opacity:1;stroke-dasharray:none" />
    <path
       d="m 165.71428,154.50504 a 23.571428,23.571428 0 1 1 -47.14286,0 23.571428,23.571428 0 1 1 47.14286,0 z"
       transform="translate(-18.571424,107.14286)"
       id="path3967"
       style="fill:#a7a6e5;fill-opacity:1;stroke:#000000;stroke-width:4.0999999;stroke-miterlimit:4;stroke-opacity:1;stroke-dasharray:none" />
    <path
       d="m 165.71428,154.50504 a 23.571428,23.571428 0 1 1 -47.14286,0 23.571428,23.571428 0 1 1 47.14286,0 z"
       transform="translate(17.142858,120)"
       id="path3969"
       style="fill:#a7a6e5;fill-opacity:1;stroke:#000000;stroke-width:4.0999999;stroke-miterlimit:4;stroke-opacity:1;stroke-dasharray:none" />
    <path
       d="m 165.71428,154.50504 a 23.571428,23.571428 0 1 1 -47.14286,0 23.571428,23.571428 0 1 1 47.14286,0 z"
       transform="translate(5.7142858,84.285713)"
       id="path3971"
       style="fill:#a7a6e5;fill-opacity:1;stroke:#000000;stroke-width:4.0999999;stroke-miterlimit:4;stroke-opacity:1;stroke-dasharray:none" />
    <path
       d="m 165.71428,154.50504 a 23.571428,23.571428 0 1 1 -47.14286,0 23.571428,23.571428 0 1 1 47.14286,0 z"
       transform="translate(-18.571424,107.14286)"
       id="path3973"
       style="fill:#a7a6e5;fill-opacity:1;stroke:#000000;stroke-width:4.0999999;stroke-miterlimit:4;stroke-opacity:1;stroke-dasharray:none" />
    <path
       d="m 165.71428,154.50504 a 23.571428,23.571428 0 1 1 -47.14286,0 23.571428,23.571428 0 1 1 47.14286,0 z"
       transform="translate(17.142858,120)"
       id="path3975"
       style="fill:#a7a6e5;fill-opacity:1;stroke:#000000;stroke-width:4.0999999;stroke-miterlimit:4;stroke-opacity:1;stroke-dasharray:none" />
    <path
       d="m 165.71428,154.50504 a 23.571428,23.571428 0 1 1 -47.14286,0 23.571428,23.571428 0 1 1 47.14286,0 z"
       transform="translate(5.7142858,84.285713)"
       id="path3977"
       style="fill:#a7a6e5;fill-opacity:1;stroke:#000000;stroke-width:4.0999999;stroke-miterlimit:4;stroke-opacity:1;stroke-dasharray:none" />
    <path
       d="m 165.71428,154.50504 a 23.571428,23.571428 0 1 1 -47.14286,0 23.571428,23.571428 0 1 1 47.14286,0 z"
       transform="translate(-18.571424,107.14286)"
       id="path3979"
       style="fill:#a7a6e5;fill-opacity:1;stroke:#000000;stroke-width:4.0999999;stroke-miterlimit:4;stroke-opacity:1;stroke-dasharray:none" />
    <path
       d="m 165.71428,154.50504 a 23.571428,23.571428 0 1 1 -47.14286,0 23.571428,23.571428 0 1 1 47.14286,0 z"
       transform="translate(17.142858,120)"
       id="path3981"
       style="fill:#a7a6e5;fill-opacity:1;stroke:#000000;stroke-width:4.0999999;stroke-miterlimit:4;stroke-opacity:1;stroke-dasharray:none" />
    <path
       d="m 165.71428,154.50504 a 23.571428,23.571428 0 1 1 -47.14286,0 23.571428,23.571428 0 1 1 47.14286,0 z"
       transform="translate(5.7142858,84.285713)"
       id="path3983"
       style="fill:#a7a6e5;fill-opacity:1;stroke:#000000;stroke-width:4.0999999;stroke-miterlimit:4;stroke-opacity:1;stroke-dasharray:none" />
    <path
       d="m 165.71428,154.50504 a 23.571428,23.571428 0 1 1 -47.14286,0 23.571428,23.571428 0 1 1 47.14286,0 z"
       transform="translate(-18.571424,107.14286)"
       id="path3985"
       style="fill:#a7a6e5;fill-opacity:1;stroke:#000000;stroke-width:4.0999999;stroke-miterlimit:4;stroke-opacity:1;stroke-dasharray:none" />
    <path
       d="m 165.71428,154.50504 a 23.571428,23.571428 0 1 1 -47.14286,0 23.571428,23.571428 0 1 1 47.14286,0 z"
       transform="translate(17.142858,120)"
       id="path3987"
       style="fill:#a7a6e5;fill-opacity:1;stroke:#000000;stroke-width:4.0999999;stroke-miterlimit:4;stroke-opacity:1;stroke-dasharray:none" />
    <path
       d="m 165.71428,154.50504 a 23.571428,23.571428 0 1 1 -47.14286,0 23.571428,23.571428 0 1 1 47.14286,0 z"
       transform="translate(5.7142858,84.285713)"
       id="path3989"
       style="fill:#a7a6e5;fill-opacity:1;stroke:#000000;stroke-width:4.0999999;stroke-miterlimit:4;stroke-opacity:1;stroke-dasharray:none" />
    <path
       d="m 165.71428,154.50504 a 23.571428,23.571428 0 1 1 -47.14286,0 23.571428,23.571428 0 1 1 47.14286,0 z"
       transform="translate(-18.571424,107.14286)"
       id="path3991"
       style="fill:#a7a6e5;fill-opacity:1;stroke:#000000;stroke-width:4.0999999;stroke-miterlimit:4;stroke-opacity:1;stroke-dasharray:none" />
    <path
       d="m 165.71428,154.50504 a 23.571428,23.571428 0 1 1 -47.14286,0 23.571428,23.571428 0 1 1 47.14286,0 z"
       transform="translate(17.142858,120)"
       id="path3993"
       style="fill:#a7a6e5;fill-opacity:1;stroke:#000000;stroke-width:4.0999999;stroke-miterlimit:4;stroke-opacity:1;stroke-dasharray:none" />
    <path
       d="m 165.71428,154.50504 a 23.571428,23.571428 0 1 1 -47.14286,0 23.571428,23.571428 0 1 1 47.14286,0 z"
       transform="translate(5.7142858,84.285713)"
       id="path3995"
       style="fill:#a7a6e5;fill-opacity:1;stroke:#000000;stroke-width:4.0999999;stroke-miterlimit:4;stroke-opacity:1;stroke-dasharray:none" />
    <path
       d="m 165.71428,154.50504 a 23.571428,23.571428 0 1 1 -47.14286,0 23.571428,23.571428 0 1 1 47.14286,0 z"
       transform="translate(-18.571424,107.14286)"
       id="path3997"
       style="fill:#a7a6e5;fill-opacity:1;stroke:#000000;stroke-width:4.0999999;stroke-miterlimit:4;stroke-opacity:1;stroke-dasharray:none" />
    <path
       d="m 165.71428,154.50504 a 23.571428,23.571428 0 1 1 -47.14286,0 23.571428,23.571428 0 1 1 47.14286,0 z"
       transform="translate(17.142858,120)"
       id="path3999"
       style="fill:#a7a6e5;fill-opacity:1;stroke:#000000;stroke-width:4.0999999;stroke-miterlimit:4;stroke-opacity:1;stroke-dasharray:none" />
    <path
       d="m 165.71428,154.50504 a 23.571428,23.571428 0 1 1 -47.14286,0 23.571428,23.571428 0 1 1 47.14286,0 z"
       transform="translate(5.7142858,84.285713)"
       id="path4001"
       style="fill:#a7a6e5;fill-opacity:1;stroke:#000000;stroke-width:4.0999999;stroke-miterlimit:4;stroke-opacity:1;stroke-dasharray:none" />
    <path
       d="m 165.71428,154.50504 a 23.571428,23.571428 0 1 1 -47.14286,0 23.571428,23.571428 0 1 1 47.14286,0 z"
       transform="translate(41.428572,94.285711)"
       id="path4003"
       style="fill:#a7a6e5;fill-opacity:1;stroke:#000000;stroke-width:4.0999999;stroke-miterlimit:4;stroke-opacity:1;stroke-dasharray:none" />
    <path
       d="m 165.71428,154.50504 a 23.571428,23.571428 0 1 1 -47.14286,0 23.571428,23.571428 0 1 1 47.14286,0 z"
       transform="translate(-18.571424,107.14286)"
       id="path4005"
       style="fill:#a7a6e5;fill-opacity:1;stroke:#000000;stroke-width:4.0999999;stroke-miterlimit:4;stroke-opacity:1;stroke-dasharray:none" />
    <path
       d="m 165.71428,154.50504 a 23.571428,23.571428 0 1 1 -47.14286,0 23.571428,23.571428 0 1 1 47.14286,0 z"
       transform="translate(17.142858,120)"
       id="path4007"
       style="fill:#a7a6e5;fill-opacity:1;stroke:#000000;stroke-width:4.0999999;stroke-miterlimit:4;stroke-opacity:1;stroke-dasharray:none" />
    <path
       d="m 165.71428,154.50504 a 23.571428,23.571428 0 1 1 -47.14286,0 23.571428,23.571428 0 1 1 47.14286,0 z"
       transform="translate(108.57143,59.999999)"
       id="path4009"
       style="fill:#a7a6e5;fill-opacity:1;stroke:#000000;stroke-width:4.0999999;stroke-miterlimit:4;stroke-opacity:1;stroke-dasharray:none" />
    <path
       d="m 165.71428,154.50504 a 23.571428,23.571428 0 1 1 -47.14286,0 23.571428,23.571428 0 1 1 47.14286,0 z"
       transform="translate(84.285719,82.857146)"
       id="path4011"
       style="fill:#a7a6e5;fill-opacity:1;stroke:#000000;stroke-width:4.0999999;stroke-miterlimit:4;stroke-opacity:1;stroke-dasharray:none" />
    <path
       d="m 165.71428,154.50504 a 23.571428,23.571428 0 1 1 -47.14286,0 23.571428,23.571428 0 1 1 47.14286,0 z"
       transform="translate(120,95.714286)"
       id="path4013"
       style="fill:#a7a6e5;fill-opacity:1;stroke:#000000;stroke-width:4.0999999;stroke-miterlimit:4;stroke-opacity:1;stroke-dasharray:none" />
    <path
       d="m 165.71428,154.50504 a 23.571428,23.571428 0 1 1 -47.14286,0 23.571428,23.571428 0 1 1 47.14286,0 z"
       transform="translate(108.57143,59.999999)"
       id="path4015"
       style="fill:#a7a6e5;fill-opacity:1;stroke:#000000;stroke-width:4.0999999;stroke-miterlimit:4;stroke-opacity:1;stroke-dasharray:none" />
    <path
       d="m 165.71428,154.50504 a 23.571428,23.571428 0 1 1 -47.14286,0 23.571428,23.571428 0 1 1 47.14286,0 z"
       transform="translate(84.285719,82.857146)"
       id="path4017"
       style="fill:#a7a6e5;fill-opacity:1;stroke:#000000;stroke-width:4.0999999;stroke-miterlimit:4;stroke-opacity:1;stroke-dasharray:none" />
    <path
       d="m 165.71428,154.50504 a 23.571428,23.571428 0 1 1 -47.14286,0 23.571428,23.571428 0 1 1 47.14286,0 z"
       transform="translate(120,95.714286)"
       id="path4019"
       style="fill:#a7a6e5;fill-opacity:1;stroke:#000000;stroke-width:4.0999999;stroke-miterlimit:4;stroke-opacity:1;stroke-dasharray:none" />
    <path
       d="m 165.71428,154.50504 a 23.571428,23.571428 0 1 1 -47.14286,0 23.571428,23.571428 0 1 1 47.14286,0 z"
       transform="translate(108.57143,59.999999)"
       id="path4021"
       style="fill:#a7a6e5;fill-opacity:1;stroke:#000000;stroke-width:4.0999999;stroke-miterlimit:4;stroke-opacity:1;stroke-dasharray:none" />
    <path
       d="m 165.71428,154.50504 a 23.571428,23.571428 0 1 1 -47.14286,0 23.571428,23.571428 0 1 1 47.14286,0 z"
       transform="translate(84.285719,82.857146)"
       id="path4023"
       style="fill:#a7a6e5;fill-opacity:1;stroke:#000000;stroke-width:4.0999999;stroke-miterlimit:4;stroke-opacity:1;stroke-dasharray:none" />
    <path
       d="m 165.71428,154.50504 a 23.571428,23.571428 0 1 1 -47.14286,0 23.571428,23.571428 0 1 1 47.14286,0 z"
       transform="translate(120,95.714286)"
       id="path4025"
       style="fill:#a7a6e5;fill-opacity:1;stroke:#000000;stroke-width:4.0999999;stroke-miterlimit:4;stroke-opacity:1;stroke-dasharray:none" />
    <path
       d="m 165.71428,154.50504 a 23.571428,23.571428 0 1 1 -47.14286,0 23.571428,23.571428 0 1 1 47.14286,0 z"
       transform="translate(108.57143,59.999999)"
       id="path4027"
       style="fill:#a7a6e5;fill-opacity:1;stroke:#000000;stroke-width:4.0999999;stroke-miterlimit:4;stroke-opacity:1;stroke-dasharray:none" />
    <path
       d="m 165.71428,154.50504 a 23.571428,23.571428 0 1 1 -47.14286,0 23.571428,23.571428 0 1 1 47.14286,0 z"
       transform="translate(84.285719,82.857146)"
       id="path4029"
       style="fill:#a7a6e5;fill-opacity:1;stroke:#000000;stroke-width:4.0999999;stroke-miterlimit:4;stroke-opacity:1;stroke-dasharray:none" />
    <path
       d="m 165.71428,154.50504 a 23.571428,23.571428 0 1 1 -47.14286,0 23.571428,23.571428 0 1 1 47.14286,0 z"
       transform="translate(120,95.714286)"
       id="path4031"
       style="fill:#a7a6e5;fill-opacity:1;stroke:#000000;stroke-width:4.0999999;stroke-miterlimit:4;stroke-opacity:1;stroke-dasharray:none" />
    <path
       d="m 165.71428,154.50504 a 23.571428,23.571428 0 1 1 -47.14286,0 23.571428,23.571428 0 1 1 47.14286,0 z"
       transform="translate(108.57143,59.999999)"
       id="path4033"
       style="fill:#a7a6e5;fill-opacity:1;stroke:#000000;stroke-width:4.0999999;stroke-miterlimit:4;stroke-opacity:1;stroke-dasharray:none" />
    <path
       d="m 165.71428,154.50504 a 23.571428,23.571428 0 1 1 -47.14286,0 23.571428,23.571428 0 1 1 47.14286,0 z"
       transform="translate(84.285719,82.857146)"
       id="path4035"
       style="fill:#a7a6e5;fill-opacity:1;stroke:#000000;stroke-width:4.0999999;stroke-miterlimit:4;stroke-opacity:1;stroke-dasharray:none" />
    <path
       d="m 165.71428,154.50504 a 23.571428,23.571428 0 1 1 -47.14286,0 23.571428,23.571428 0 1 1 47.14286,0 z"
       transform="translate(120,95.714286)"
       id="path4037"
       style="fill:#a7a6e5;fill-opacity:1;stroke:#000000;stroke-width:4.0999999;stroke-miterlimit:4;stroke-opacity:1;stroke-dasharray:none" />
    <path
       d="m 165.71428,154.50504 a 23.571428,23.571428 0 1 1 -47.14286,0 23.571428,23.571428 0 1 1 47.14286,0 z"
       transform="translate(108.57143,59.999999)"
       id="path4039"
       style="fill:#a7a6e5;fill-opacity:1;stroke:#000000;stroke-width:4.0999999;stroke-miterlimit:4;stroke-opacity:1;stroke-dasharray:none" />
    <path
       d="m 165.71428,154.50504 a 23.571428,23.571428 0 1 1 -47.14286,0 23.571428,23.571428 0 1 1 47.14286,0 z"
       transform="translate(84.285719,82.857146)"
       id="path4041"
       style="fill:#a7a6e5;fill-opacity:1;stroke:#000000;stroke-width:4.0999999;stroke-miterlimit:4;stroke-opacity:1;stroke-dasharray:none" />
    <path
       d="m 165.71428,154.50504 a 23.571428,23.571428 0 1 1 -47.14286,0 23.571428,23.571428 0 1 1 47.14286,0 z"
       transform="translate(120,95.714286)"
       id="path4043"
       style="fill:#a7a6e5;fill-opacity:1;stroke:#000000;stroke-width:4.0999999;stroke-miterlimit:4;stroke-opacity:1;stroke-dasharray:none" />
    <path
       d="m 165.71428,154.50504 a 23.571428,23.571428 0 1 1 -47.14286,0 23.571428,23.571428 0 1 1 47.14286,0 z"
       transform="translate(108.57143,59.999999)"
       id="path4045"
       style="fill:#a7a6e5;fill-opacity:1;stroke:#000000;stroke-width:4.0999999;stroke-miterlimit:4;stroke-opacity:1;stroke-dasharray:none" />
    <path
       d="m 165.71428,154.50504 a 23.571428,23.571428 0 1 1 -47.14286,0 23.571428,23.571428 0 1 1 47.14286,0 z"
       transform="translate(84.285719,82.857146)"
       id="path4047"
       style="fill:#a7a6e5;fill-opacity:1;stroke:#000000;stroke-width:4.0999999;stroke-miterlimit:4;stroke-opacity:1;stroke-dasharray:none" />
    <path
       d="m 165.71428,154.50504 a 23.571428,23.571428 0 1 1 -47.14286,0 23.571428,23.571428 0 1 1 47.14286,0 z"
       transform="translate(120,95.714286)"
       id="path4049"
       style="fill:#a7a6e5;fill-opacity:1;stroke:#000000;stroke-width:4.0999999;stroke-miterlimit:4;stroke-opacity:1;stroke-dasharray:none" />
    <path
       d="m 165.71428,154.50504 a 23.571428,23.571428 0 1 1 -47.14286,0 23.571428,23.571428 0 1 1 47.14286,0 z"
       transform="translate(108.57143,59.999999)"
       id="path4051"
       style="fill:#a7a6e5;fill-opacity:1;stroke:#000000;stroke-width:4.0999999;stroke-miterlimit:4;stroke-opacity:1;stroke-dasharray:none" />
    <path
       d="m 165.71428,154.50504 a 23.571428,23.571428 0 1 1 -47.14286,0 23.571428,23.571428 0 1 1 47.14286,0 z"
       transform="translate(144.28571,69.999997)"
       id="path4053"
       style="fill:#a7a6e5;fill-opacity:1;stroke:#000000;stroke-width:4.0999999;stroke-miterlimit:4;stroke-opacity:1;stroke-dasharray:none" />
    <path
       d="m 165.71428,154.50504 a 23.571428,23.571428 0 1 1 -47.14286,0 23.571428,23.571428 0 1 1 47.14286,0 z"
       transform="translate(84.285719,82.857146)"
       id="path4055"
       style="fill:#a7a6e5;fill-opacity:1;stroke:#000000;stroke-width:4.0999999;stroke-miterlimit:4;stroke-opacity:1;stroke-dasharray:none" />
    <path
       d="m 165.71428,154.50504 a 23.571428,23.571428 0 1 1 -47.14286,0 23.571428,23.571428 0 1 1 47.14286,0 z"
       transform="translate(120,95.714286)"
       id="path4057"
       style="fill:#a7a6e5;fill-opacity:1;stroke:#000000;stroke-width:4.0999999;stroke-miterlimit:4;stroke-opacity:1;stroke-dasharray:none" />
    <path
       d="m 165.71428,154.50504 a 23.571428,23.571428 0 1 1 -47.14286,0 23.571428,23.571428 0 1 1 47.14286,0 z"
       transform="translate(-35.714284,127.14286)"
       id="path4059"
       style="fill:#a7a6e5;fill-opacity:1;stroke:#000000;stroke-width:4.0999999;stroke-miterlimit:4;stroke-opacity:1;stroke-dasharray:none" />
    <path
       d="m 165.71428,154.50504 a 23.571428,23.571428 0 1 1 -47.14286,0 23.571428,23.571428 0 1 1 47.14286,0 z"
       transform="translate(-59.999995,150)"
       id="path4061"
       style="fill:#a7a6e5;fill-opacity:1;stroke:#000000;stroke-width:4.0999999;stroke-miterlimit:4;stroke-opacity:1;stroke-dasharray:none" />
    <path
       d="m 165.71428,154.50504 a 23.571428,23.571428 0 1 1 -47.14286,0 23.571428,23.571428 0 1 1 47.14286,0 z"
       transform="translate(-24.285714,162.85714)"
       id="path4063"
       style="fill:#a7a6e5;fill-opacity:1;stroke:#000000;stroke-width:4.0999999;stroke-miterlimit:4;stroke-opacity:1;stroke-dasharray:none" />
    <path
       d="m 165.71428,154.50504 a 23.571428,23.571428 0 1 1 -47.14286,0 23.571428,23.571428 0 1 1 47.14286,0 z"
       transform="translate(-35.714284,127.14286)"
       id="path4065"
       style="fill:#a7a6e5;fill-opacity:1;stroke:#000000;stroke-width:4.0999999;stroke-miterlimit:4;stroke-opacity:1;stroke-dasharray:none" />
    <path
       d="m 165.71428,154.50504 a 23.571428,23.571428 0 1 1 -47.14286,0 23.571428,23.571428 0 1 1 47.14286,0 z"
       transform="translate(-59.999995,150)"
       id="path4067"
       style="fill:#a7a6e5;fill-opacity:1;stroke:#000000;stroke-width:4.0999999;stroke-miterlimit:4;stroke-opacity:1;stroke-dasharray:none" />
    <path
       d="m 165.71428,154.50504 a 23.571428,23.571428 0 1 1 -47.14286,0 23.571428,23.571428 0 1 1 47.14286,0 z"
       transform="translate(-24.285714,162.85714)"
       id="path4069"
       style="fill:#a7a6e5;fill-opacity:1;stroke:#000000;stroke-width:4.0999999;stroke-miterlimit:4;stroke-opacity:1;stroke-dasharray:none" />
    <path
       d="m 165.71428,154.50504 a 23.571428,23.571428 0 1 1 -47.14286,0 23.571428,23.571428 0 1 1 47.14286,0 z"
       transform="translate(-35.714284,127.14286)"
       id="path4071"
       style="fill:#a7a6e5;fill-opacity:1;stroke:#000000;stroke-width:4.0999999;stroke-miterlimit:4;stroke-opacity:1;stroke-dasharray:none" />
    <path
       d="m 165.71428,154.50504 a 23.571428,23.571428 0 1 1 -47.14286,0 23.571428,23.571428 0 1 1 47.14286,0 z"
       transform="translate(-59.999995,150)"
       id="path4073"
       style="fill:#a7a6e5;fill-opacity:1;stroke:#000000;stroke-width:4.0999999;stroke-miterlimit:4;stroke-opacity:1;stroke-dasharray:none" />
    <path
       d="m 165.71428,154.50504 a 23.571428,23.571428 0 1 1 -47.14286,0 23.571428,23.571428 0 1 1 47.14286,0 z"
       transform="translate(-24.285714,162.85714)"
       id="path4075"
       style="fill:#a7a6e5;fill-opacity:1;stroke:#000000;stroke-width:4.0999999;stroke-miterlimit:4;stroke-opacity:1;stroke-dasharray:none" />
    <path
       d="m 165.71428,154.50504 a 23.571428,23.571428 0 1 1 -47.14286,0 23.571428,23.571428 0 1 1 47.14286,0 z"
       transform="translate(-35.714284,127.14286)"
       id="path4077"
       style="fill:#a7a6e5;fill-opacity:1;stroke:#000000;stroke-width:4.0999999;stroke-miterlimit:4;stroke-opacity:1;stroke-dasharray:none" />
    <path
       d="m 165.71428,154.50504 a 23.571428,23.571428 0 1 1 -47.14286,0 23.571428,23.571428 0 1 1 47.14286,0 z"
       transform="translate(-59.999995,150)"
       id="path4079"
       style="fill:#a7a6e5;fill-opacity:1;stroke:#000000;stroke-width:4.0999999;stroke-miterlimit:4;stroke-opacity:1;stroke-dasharray:none" />
    <path
       d="m 165.71428,154.50504 a 23.571428,23.571428 0 1 1 -47.14286,0 23.571428,23.571428 0 1 1 47.14286,0 z"
       transform="translate(-24.285714,162.85714)"
       id="path4081"
       style="fill:#a7a6e5;fill-opacity:1;stroke:#000000;stroke-width:4.0999999;stroke-miterlimit:4;stroke-opacity:1;stroke-dasharray:none" />
    <path
       d="m 165.71428,154.50504 a 23.571428,23.571428 0 1 1 -47.14286,0 23.571428,23.571428 0 1 1 47.14286,0 z"
       transform="translate(-35.714284,127.14286)"
       id="path4083"
       style="fill:#a7a6e5;fill-opacity:1;stroke:#000000;stroke-width:4.0999999;stroke-miterlimit:4;stroke-opacity:1;stroke-dasharray:none" />
    <path
       d="m 165.71428,154.50504 a 23.571428,23.571428 0 1 1 -47.14286,0 23.571428,23.571428 0 1 1 47.14286,0 z"
       transform="translate(-59.999995,150)"
       id="path4085"
       style="fill:#a7a6e5;fill-opacity:1;stroke:#000000;stroke-width:4.0999999;stroke-miterlimit:4;stroke-opacity:1;stroke-dasharray:none" />
    <path
       d="m 165.71428,154.50504 a 23.571428,23.571428 0 1 1 -47.14286,0 23.571428,23.571428 0 1 1 47.14286,0 z"
       transform="translate(-24.285714,162.85714)"
       id="path4087"
       style="fill:#a7a6e5;fill-opacity:1;stroke:#000000;stroke-width:4.0999999;stroke-miterlimit:4;stroke-opacity:1;stroke-dasharray:none" />
    <path
       d="m 165.71428,154.50504 a 23.571428,23.571428 0 1 1 -47.14286,0 23.571428,23.571428 0 1 1 47.14286,0 z"
       transform="translate(-35.714284,127.14286)"
       id="path4089"
       style="fill:#a7a6e5;fill-opacity:1;stroke:#000000;stroke-width:4.0999999;stroke-miterlimit:4;stroke-opacity:1;stroke-dasharray:none" />
    <path
       d="m 165.71428,154.50504 a 23.571428,23.571428 0 1 1 -47.14286,0 23.571428,23.571428 0 1 1 47.14286,0 z"
       transform="translate(-59.999995,150)"
       id="path4091"
       style="fill:#a7a6e5;fill-opacity:1;stroke:#000000;stroke-width:4.0999999;stroke-miterlimit:4;stroke-opacity:1;stroke-dasharray:none" />
    <path
       d="m 165.71428,154.50504 a 23.571428,23.571428 0 1 1 -47.14286,0 23.571428,23.571428 0 1 1 47.14286,0 z"
       transform="translate(-24.285714,162.85714)"
       id="path4093"
       style="fill:#a7a6e5;fill-opacity:1;stroke:#000000;stroke-width:4.0999999;stroke-miterlimit:4;stroke-opacity:1;stroke-dasharray:none" />
    <path
       d="m 165.71428,154.50504 a 23.571428,23.571428 0 1 1 -47.14286,0 23.571428,23.571428 0 1 1 47.14286,0 z"
       transform="translate(-35.714284,127.14286)"
       id="path4095"
       style="fill:#a7a6e5;fill-opacity:1;stroke:#000000;stroke-width:4.0999999;stroke-miterlimit:4;stroke-opacity:1;stroke-dasharray:none" />
    <path
       d="m 165.71428,154.50504 a 23.571428,23.571428 0 1 1 -47.14286,0 23.571428,23.571428 0 1 1 47.14286,0 z"
       transform="translate(-59.999995,150)"
       id="path4097"
       style="fill:#a7a6e5;fill-opacity:1;stroke:#000000;stroke-width:4.0999999;stroke-miterlimit:4;stroke-opacity:1;stroke-dasharray:none" />
    <path
       d="m 165.71428,154.50504 a 23.571428,23.571428 0 1 1 -47.14286,0 23.571428,23.571428 0 1 1 47.14286,0 z"
       transform="translate(-24.285714,162.85714)"
       id="path4099"
       style="fill:#a7a6e5;fill-opacity:1;stroke:#000000;stroke-width:4.0999999;stroke-miterlimit:4;stroke-opacity:1;stroke-dasharray:none" />
    <path
       d="m 165.71428,154.50504 a 23.571428,23.571428 0 1 1 -47.14286,0 23.571428,23.571428 0 1 1 47.14286,0 z"
       transform="translate(-35.714284,127.14286)"
       id="path4101"
       style="fill:#a7a6e5;fill-opacity:1;stroke:#000000;stroke-width:4.0999999;stroke-miterlimit:4;stroke-opacity:1;stroke-dasharray:none" />
    <path
       d="m 165.71428,154.50504 a 23.571428,23.571428 0 1 1 -47.14286,0 23.571428,23.571428 0 1 1 47.14286,0 z"
       transform="translate(-4.3618448e-6,137.14285)"
       id="path4103"
       style="fill:#a7a6e5;fill-opacity:1;stroke:#000000;stroke-width:4.0999999;stroke-miterlimit:4;stroke-opacity:1;stroke-dasharray:none" />
    <path
       d="m 165.71428,154.50504 a 23.571428,23.571428 0 1 1 -47.14286,0 23.571428,23.571428 0 1 1 47.14286,0 z"
       transform="translate(-59.999995,150)"
       id="path4105"
       style="fill:#a7a6e5;fill-opacity:1;stroke:#000000;stroke-width:4.0999999;stroke-miterlimit:4;stroke-opacity:1;stroke-dasharray:none" />
    <path
       d="m 165.71428,154.50504 a 23.571428,23.571428 0 1 1 -47.14286,0 23.571428,23.571428 0 1 1 47.14286,0 z"
       transform="translate(-24.285714,162.85714)"
       id="path4107"
       style="fill:#a7a6e5;fill-opacity:1;stroke:#000000;stroke-width:4.0999999;stroke-miterlimit:4;stroke-opacity:1;stroke-dasharray:none" />
    <path
       d="m 165.71428,154.50504 a 23.571428,23.571428 0 1 1 -47.14286,0 23.571428,23.571428 0 1 1 47.14286,0 z"
       transform="translate(65.714287,104.28572)"
       id="path4109"
       style="fill:#a7a6e5;fill-opacity:1;stroke:#000000;stroke-width:4.0999999;stroke-miterlimit:4;stroke-opacity:1;stroke-dasharray:none" />
    <path
       d="m 165.71428,154.50504 a 23.571428,23.571428 0 1 1 -47.14286,0 23.571428,23.571428 0 1 1 47.14286,0 z"
       transform="translate(41.428576,127.14286)"
       id="path4111"
       style="fill:#a7a6e5;fill-opacity:1;stroke:#000000;stroke-width:4.0999999;stroke-miterlimit:4;stroke-opacity:1;stroke-dasharray:none" />
    <path
       d="m 165.71428,154.50504 a 23.571428,23.571428 0 1 1 -47.14286,0 23.571428,23.571428 0 1 1 47.14286,0 z"
       transform="translate(77.142857,140)"
       id="path4113"
       style="fill:#a7a6e5;fill-opacity:1;stroke:#000000;stroke-width:4.0999999;stroke-miterlimit:4;stroke-opacity:1;stroke-dasharray:none" />
    <path
       d="m 165.71428,154.50504 a 23.571428,23.571428 0 1 1 -47.14286,0 23.571428,23.571428 0 1 1 47.14286,0 z"
       transform="translate(65.714287,104.28572)"
       id="path4115"
       style="fill:#a7a6e5;fill-opacity:1;stroke:#000000;stroke-width:4.0999999;stroke-miterlimit:4;stroke-opacity:1;stroke-dasharray:none" />
    <path
       d="m 165.71428,154.50504 a 23.571428,23.571428 0 1 1 -47.14286,0 23.571428,23.571428 0 1 1 47.14286,0 z"
       transform="translate(41.428576,127.14286)"
       id="path4117"
       style="fill:#a7a6e5;fill-opacity:1;stroke:#000000;stroke-width:4.0999999;stroke-miterlimit:4;stroke-opacity:1;stroke-dasharray:none" />
    <path
       d="m 165.71428,154.50504 a 23.571428,23.571428 0 1 1 -47.14286,0 23.571428,23.571428 0 1 1 47.14286,0 z"
       transform="translate(77.142857,140)"
       id="path4119"
       style="fill:#a7a6e5;fill-opacity:1;stroke:#000000;stroke-width:4.0999999;stroke-miterlimit:4;stroke-opacity:1;stroke-dasharray:none" />
    <path
       d="m 165.71428,154.50504 a 23.571428,23.571428 0 1 1 -47.14286,0 23.571428,23.571428 0 1 1 47.14286,0 z"
       transform="translate(65.714287,104.28572)"
       id="path4121"
       style="fill:#a7a6e5;fill-opacity:1;stroke:#000000;stroke-width:4.0999999;stroke-miterlimit:4;stroke-opacity:1;stroke-dasharray:none" />
    <path
       d="m 165.71428,154.50504 a 23.571428,23.571428 0 1 1 -47.14286,0 23.571428,23.571428 0 1 1 47.14286,0 z"
       transform="translate(41.428576,127.14286)"
       id="path4123"
       style="fill:#a7a6e5;fill-opacity:1;stroke:#000000;stroke-width:4.0999999;stroke-miterlimit:4;stroke-opacity:1;stroke-dasharray:none" />
    <path
       d="m 165.71428,154.50504 a 23.571428,23.571428 0 1 1 -47.14286,0 23.571428,23.571428 0 1 1 47.14286,0 z"
       transform="translate(77.142857,140)"
       id="path4125"
       style="fill:#a7a6e5;fill-opacity:1;stroke:#000000;stroke-width:4.0999999;stroke-miterlimit:4;stroke-opacity:1;stroke-dasharray:none" />
    <path
       d="m 165.71428,154.50504 a 23.571428,23.571428 0 1 1 -47.14286,0 23.571428,23.571428 0 1 1 47.14286,0 z"
       transform="translate(65.714287,104.28572)"
       id="path4127"
       style="fill:#a7a6e5;fill-opacity:1;stroke:#000000;stroke-width:4.0999999;stroke-miterlimit:4;stroke-opacity:1;stroke-dasharray:none" />
    <path
       d="m 165.71428,154.50504 a 23.571428,23.571428 0 1 1 -47.14286,0 23.571428,23.571428 0 1 1 47.14286,0 z"
       transform="translate(41.428576,127.14286)"
       id="path4129"
       style="fill:#a7a6e5;fill-opacity:1;stroke:#000000;stroke-width:4.0999999;stroke-miterlimit:4;stroke-opacity:1;stroke-dasharray:none" />
    <path
       d="m 165.71428,154.50504 a 23.571428,23.571428 0 1 1 -47.14286,0 23.571428,23.571428 0 1 1 47.14286,0 z"
       transform="translate(77.142857,140)"
       id="path4131"
       style="fill:#a7a6e5;fill-opacity:1;stroke:#000000;stroke-width:4.0999999;stroke-miterlimit:4;stroke-opacity:1;stroke-dasharray:none" />
    <path
       d="m 165.71428,154.50504 a 23.571428,23.571428 0 1 1 -47.14286,0 23.571428,23.571428 0 1 1 47.14286,0 z"
       transform="translate(65.714287,104.28572)"
       id="path4133"
       style="fill:#a7a6e5;fill-opacity:1;stroke:#000000;stroke-width:4.0999999;stroke-miterlimit:4;stroke-opacity:1;stroke-dasharray:none" />
    <path
       d="m 165.71428,154.50504 a 23.571428,23.571428 0 1 1 -47.14286,0 23.571428,23.571428 0 1 1 47.14286,0 z"
       transform="translate(41.428576,127.14286)"
       id="path4135"
       style="fill:#a7a6e5;fill-opacity:1;stroke:#000000;stroke-width:4.0999999;stroke-miterlimit:4;stroke-opacity:1;stroke-dasharray:none" />
    <path
       d="m 165.71428,154.50504 a 23.571428,23.571428 0 1 1 -47.14286,0 23.571428,23.571428 0 1 1 47.14286,0 z"
       transform="translate(77.142857,140)"
       id="path4137"
       style="fill:#a7a6e5;fill-opacity:1;stroke:#000000;stroke-width:4.0999999;stroke-miterlimit:4;stroke-opacity:1;stroke-dasharray:none" />
    <path
       d="m 165.71428,154.50504 a 23.571428,23.571428 0 1 1 -47.14286,0 23.571428,23.571428 0 1 1 47.14286,0 z"
       transform="translate(65.714287,104.28572)"
       id="path4139"
       style="fill:#a7a6e5;fill-opacity:1;stroke:#000000;stroke-width:4.0999999;stroke-miterlimit:4;stroke-opacity:1;stroke-dasharray:none" />
    <path
       d="m 165.71428,154.50504 a 23.571428,23.571428 0 1 1 -47.14286,0 23.571428,23.571428 0 1 1 47.14286,0 z"
       transform="translate(41.428576,127.14286)"
       id="path4141"
       style="fill:#a7a6e5;fill-opacity:1;stroke:#000000;stroke-width:4.0999999;stroke-miterlimit:4;stroke-opacity:1;stroke-dasharray:none" />
    <path
       d="m 165.71428,154.50504 a 23.571428,23.571428 0 1 1 -47.14286,0 23.571428,23.571428 0 1 1 47.14286,0 z"
       transform="translate(77.142857,140)"
       id="path4143"
       style="fill:#a7a6e5;fill-opacity:1;stroke:#000000;stroke-width:4.0999999;stroke-miterlimit:4;stroke-opacity:1;stroke-dasharray:none" />
    <path
       d="m 165.71428,154.50504 a 23.571428,23.571428 0 1 1 -47.14286,0 23.571428,23.571428 0 1 1 47.14286,0 z"
       transform="translate(65.714287,104.28572)"
       id="path4145"
       style="fill:#a7a6e5;fill-opacity:1;stroke:#000000;stroke-width:4.0999999;stroke-miterlimit:4;stroke-opacity:1;stroke-dasharray:none" />
    <path
       d="m 165.71428,154.50504 a 23.571428,23.571428 0 1 1 -47.14286,0 23.571428,23.571428 0 1 1 47.14286,0 z"
       transform="translate(41.428576,127.14286)"
       id="path4147"
       style="fill:#a7a6e5;fill-opacity:1;stroke:#000000;stroke-width:4.0999999;stroke-miterlimit:4;stroke-opacity:1;stroke-dasharray:none" />
    <path
       d="m 165.71428,154.50504 a 23.571428,23.571428 0 1 1 -47.14286,0 23.571428,23.571428 0 1 1 47.14286,0 z"
       transform="translate(77.142857,140)"
       id="path4149"
       style="fill:#a7a6e5;fill-opacity:1;stroke:#000000;stroke-width:4.0999999;stroke-miterlimit:4;stroke-opacity:1;stroke-dasharray:none" />
    <path
       d="m 165.71428,154.50504 a 23.571428,23.571428 0 1 1 -47.14286,0 23.571428,23.571428 0 1 1 47.14286,0 z"
       transform="translate(65.714287,104.28572)"
       id="path4151"
       style="fill:#a7a6e5;fill-opacity:1;stroke:#000000;stroke-width:4.0999999;stroke-miterlimit:4;stroke-opacity:1;stroke-dasharray:none" />
    <path
       d="m 165.71428,154.50504 a 23.571428,23.571428 0 1 1 -47.14286,0 23.571428,23.571428 0 1 1 47.14286,0 z"
       transform="translate(101.42857,114.28571)"
       id="path4153"
       style="fill:#a7a6e5;fill-opacity:1;stroke:#000000;stroke-width:4.0999999;stroke-miterlimit:4;stroke-opacity:1;stroke-dasharray:none" />
    <path
       d="m 165.71428,154.50504 a 23.571428,23.571428 0 1 1 -47.14286,0 23.571428,23.571428 0 1 1 47.14286,0 z"
       transform="translate(41.428576,127.14286)"
       id="path4155"
       style="fill:#a7a6e5;fill-opacity:1;stroke:#000000;stroke-width:4.0999999;stroke-miterlimit:4;stroke-opacity:1;stroke-dasharray:none" />
    <path
       d="m 165.71428,154.50504 a 23.571428,23.571428 0 1 1 -47.14286,0 23.571428,23.571428 0 1 1 47.14286,0 z"
       transform="translate(77.142857,140)"
       id="path4157"
       style="fill:#a7a6e5;fill-opacity:1;stroke:#000000;stroke-width:4.0999999;stroke-miterlimit:4;stroke-opacity:1;stroke-dasharray:none" />
    <path
       d="m 165.71428,154.50504 a 23.571428,23.571428 0 1 1 -47.14286,0 23.571428,23.571428 0 1 1 47.14286,0 z"
       transform="translate(32.857144,147.14286)"
       id="path4159"
       style="fill:#a7a6e5;fill-opacity:1;stroke:#000000;stroke-width:4.0999999;stroke-miterlimit:4;stroke-opacity:1;stroke-dasharray:none" />
    <path
       d="m 165.71428,154.50504 a 23.571428,23.571428 0 1 1 -47.14286,0 23.571428,23.571428 0 1 1 47.14286,0 z"
       transform="translate(8.5714331,170)"
       id="path4161"
       style="fill:#a7a6e5;fill-opacity:1;stroke:#000000;stroke-width:4.0999999;stroke-miterlimit:4;stroke-opacity:1;stroke-dasharray:none" />
    <path
       d="m 165.71428,154.50504 a 23.571428,23.571428 0 1 1 -47.14286,0 23.571428,23.571428 0 1 1 47.14286,0 z"
       transform="translate(44.285714,182.85714)"
       id="path4163"
       style="fill:#a7a6e5;fill-opacity:1;stroke:#000000;stroke-width:4.0999999;stroke-miterlimit:4;stroke-opacity:1;stroke-dasharray:none" />
    <path
       d="m 165.71428,154.50504 a 23.571428,23.571428 0 1 1 -47.14286,0 23.571428,23.571428 0 1 1 47.14286,0 z"
       transform="translate(32.857144,147.14286)"
       id="path4165"
       style="fill:#a7a6e5;fill-opacity:1;stroke:#000000;stroke-width:4.0999999;stroke-miterlimit:4;stroke-opacity:1;stroke-dasharray:none" />
    <path
       d="m 165.71428,154.50504 a 23.571428,23.571428 0 1 1 -47.14286,0 23.571428,23.571428 0 1 1 47.14286,0 z"
       transform="translate(8.5714331,170)"
       id="path4167"
       style="fill:#a7a6e5;fill-opacity:1;stroke:#000000;stroke-width:4.0999999;stroke-miterlimit:4;stroke-opacity:1;stroke-dasharray:none" />
    <path
       d="m 165.71428,154.50504 a 23.571428,23.571428 0 1 1 -47.14286,0 23.571428,23.571428 0 1 1 47.14286,0 z"
       transform="translate(44.285714,182.85714)"
       id="path4169"
       style="fill:#a7a6e5;fill-opacity:1;stroke:#000000;stroke-width:4.0999999;stroke-miterlimit:4;stroke-opacity:1;stroke-dasharray:none" />
    <path
       d="m 165.71428,154.50504 a 23.571428,23.571428 0 1 1 -47.14286,0 23.571428,23.571428 0 1 1 47.14286,0 z"
       transform="translate(32.857144,147.14286)"
       id="path4171"
       style="fill:#a7a6e5;fill-opacity:1;stroke:#000000;stroke-width:4.0999999;stroke-miterlimit:4;stroke-opacity:1;stroke-dasharray:none" />
    <path
       d="m 165.71428,154.50504 a 23.571428,23.571428 0 1 1 -47.14286,0 23.571428,23.571428 0 1 1 47.14286,0 z"
       transform="translate(8.5714331,170)"
       id="path4173"
       style="fill:#a7a6e5;fill-opacity:1;stroke:#000000;stroke-width:4.0999999;stroke-miterlimit:4;stroke-opacity:1;stroke-dasharray:none" />
    <path
       d="m 165.71428,154.50504 a 23.571428,23.571428 0 1 1 -47.14286,0 23.571428,23.571428 0 1 1 47.14286,0 z"
       transform="translate(44.285714,182.85714)"
       id="path4175"
       style="fill:#a7a6e5;fill-opacity:1;stroke:#000000;stroke-width:4.0999999;stroke-miterlimit:4;stroke-opacity:1;stroke-dasharray:none" />
    <path
       d="m 165.71428,154.50504 a 23.571428,23.571428 0 1 1 -47.14286,0 23.571428,23.571428 0 1 1 47.14286,0 z"
       transform="translate(32.857144,147.14286)"
       id="path4177"
       style="fill:#a7a6e5;fill-opacity:1;stroke:#000000;stroke-width:4.0999999;stroke-miterlimit:4;stroke-opacity:1;stroke-dasharray:none" />
    <path
       d="m 165.71428,154.50504 a 23.571428,23.571428 0 1 1 -47.14286,0 23.571428,23.571428 0 1 1 47.14286,0 z"
       transform="translate(8.5714331,170)"
       id="path4179"
       style="fill:#a7a6e5;fill-opacity:1;stroke:#000000;stroke-width:4.0999999;stroke-miterlimit:4;stroke-opacity:1;stroke-dasharray:none" />
    <path
       d="m 165.71428,154.50504 a 23.571428,23.571428 0 1 1 -47.14286,0 23.571428,23.571428 0 1 1 47.14286,0 z"
       transform="translate(44.285714,182.85714)"
       id="path4181"
       style="fill:#a7a6e5;fill-opacity:1;stroke:#000000;stroke-width:4.0999999;stroke-miterlimit:4;stroke-opacity:1;stroke-dasharray:none" />
    <path
       d="m 165.71428,154.50504 a 23.571428,23.571428 0 1 1 -47.14286,0 23.571428,23.571428 0 1 1 47.14286,0 z"
       transform="translate(32.857144,147.14286)"
       id="path4183"
       style="fill:#a7a6e5;fill-opacity:1;stroke:#000000;stroke-width:4.0999999;stroke-miterlimit:4;stroke-opacity:1;stroke-dasharray:none" />
    <path
       d="m 165.71428,154.50504 a 23.571428,23.571428 0 1 1 -47.14286,0 23.571428,23.571428 0 1 1 47.14286,0 z"
       transform="translate(8.5714331,170)"
       id="path4185"
       style="fill:#a7a6e5;fill-opacity:1;stroke:#000000;stroke-width:4.0999999;stroke-miterlimit:4;stroke-opacity:1;stroke-dasharray:none" />
    <path
       d="m 165.71428,154.50504 a 23.571428,23.571428 0 1 1 -47.14286,0 23.571428,23.571428 0 1 1 47.14286,0 z"
       transform="translate(44.285714,182.85714)"
       id="path4187"
       style="fill:#a7a6e5;fill-opacity:1;stroke:#000000;stroke-width:4.0999999;stroke-miterlimit:4;stroke-opacity:1;stroke-dasharray:none" />
    <path
       d="m 165.71428,154.50504 a 23.571428,23.571428 0 1 1 -47.14286,0 23.571428,23.571428 0 1 1 47.14286,0 z"
       transform="translate(32.857144,147.14286)"
       id="path4189"
       style="fill:#a7a6e5;fill-opacity:1;stroke:#000000;stroke-width:4.0999999;stroke-miterlimit:4;stroke-opacity:1;stroke-dasharray:none" />
    <path
       d="m 165.71428,154.50504 a 23.571428,23.571428 0 1 1 -47.14286,0 23.571428,23.571428 0 1 1 47.14286,0 z"
       transform="translate(8.5714331,170)"
       id="path4191"
       style="fill:#a7a6e5;fill-opacity:1;stroke:#000000;stroke-width:4.0999999;stroke-miterlimit:4;stroke-opacity:1;stroke-dasharray:none" />
    <path
       d="m 165.71428,154.50504 a 23.571428,23.571428 0 1 1 -47.14286,0 23.571428,23.571428 0 1 1 47.14286,0 z"
       transform="translate(44.285714,182.85714)"
       id="path4193"
       style="fill:#a7a6e5;fill-opacity:1;stroke:#000000;stroke-width:4.0999999;stroke-miterlimit:4;stroke-opacity:1;stroke-dasharray:none" />
    <path
       d="m 165.71428,154.50504 a 23.571428,23.571428 0 1 1 -47.14286,0 23.571428,23.571428 0 1 1 47.14286,0 z"
       transform="translate(32.857144,147.14286)"
       id="path4195"
       style="fill:#a7a6e5;fill-opacity:1;stroke:#000000;stroke-width:4.0999999;stroke-miterlimit:4;stroke-opacity:1;stroke-dasharray:none" />
    <path
       d="m 165.71428,154.50504 a 23.571428,23.571428 0 1 1 -47.14286,0 23.571428,23.571428 0 1 1 47.14286,0 z"
       transform="translate(8.5714331,170)"
       id="path4197"
       style="fill:#a7a6e5;fill-opacity:1;stroke:#000000;stroke-width:4.0999999;stroke-miterlimit:4;stroke-opacity:1;stroke-dasharray:none" />
    <path
       d="m 165.71428,154.50504 a 23.571428,23.571428 0 1 1 -47.14286,0 23.571428,23.571428 0 1 1 47.14286,0 z"
       transform="translate(44.285714,182.85714)"
       id="path4199"
       style="fill:#a7a6e5;fill-opacity:1;stroke:#000000;stroke-width:4.0999999;stroke-miterlimit:4;stroke-opacity:1;stroke-dasharray:none" />
    <path
       d="m 165.71428,154.50504 a 23.571428,23.571428 0 1 1 -47.14286,0 23.571428,23.571428 0 1 1 47.14286,0 z"
       transform="translate(32.857144,147.14286)"
       id="path4201"
       style="fill:#a7a6e5;fill-opacity:1;stroke:#000000;stroke-width:4.0999999;stroke-miterlimit:4;stroke-opacity:1;stroke-dasharray:none" />
    <path
       d="m 165.71428,154.50504 a 23.571428,23.571428 0 1 1 -47.14286,0 23.571428,23.571428 0 1 1 47.14286,0 z"
       transform="translate(68.571427,157.14285)"
       id="path4203"
       style="fill:#a7a6e5;fill-opacity:1;stroke:#000000;stroke-width:4.0999999;stroke-miterlimit:4;stroke-opacity:1;stroke-dasharray:none" />
    <path
       d="m 165.71428,154.50504 a 23.571428,23.571428 0 1 1 -47.14286,0 23.571428,23.571428 0 1 1 47.14286,0 z"
       transform="translate(8.5714331,170)"
       id="path4205"
       style="fill:#a7a6e5;fill-opacity:1;stroke:#000000;stroke-width:4.0999999;stroke-miterlimit:4;stroke-opacity:1;stroke-dasharray:none" />
    <path
       d="m 165.71428,154.50504 a 23.571428,23.571428 0 1 1 -47.14286,0 23.571428,23.571428 0 1 1 47.14286,0 z"
       transform="translate(44.285714,182.85714)"
       id="path4207"
       style="fill:#a7a6e5;fill-opacity:1;stroke:#000000;stroke-width:4.0999999;stroke-miterlimit:4;stroke-opacity:1;stroke-dasharray:none" />
    <path
       d="m 722.28396,242.05843 -53.44307,14.32002 14.32003,-53.44306 z"
       transform="translate(62.85714,48.857143)"
       id="path4211"
       style="fill:#b2e5a6;fill-opacity:1;stroke:#000000;stroke-width:4.0999999;stroke-linecap:square;stroke-miterlimit:4;stroke-opacity:1;stroke-dasharray:none;stroke-dashoffset:0" />
    <g
       transform="translate(-7,-56)"
       id="g4219">
      <path
         d="m 665.11417,272.36219 c 0,11.10875 -13.61049,20.11416 -30.39988,20.11416 -16.78938,0 -30.39987,-9.00541 -30.39987,-20.11416 0,-11.10874 13.61049,-20.11416 30.39987,-20.11416 16.78939,0 30.39988,9.00542 30.39988,20.11416 z"
         id="path4213"
         style="fill:#e5dca6;fill-opacity:1;stroke:#000000;stroke-width:3.87167716;stroke-linecap:square;stroke-miterlimit:4;stroke-opacity:1;stroke-dashoffset:0" />
      <path
         d="m 670.00001,272.36218 c 0,11.0457 -15.35024,20 -34.28572,20 -18.93547,0 -34.28571,-8.9543 -34.28571,-20 0,-11.04569 15.35024,-20 34.28571,-20 18.93548,0 34.28572,8.95431 34.28572,20 z"
         transform="matrix(0.7523098,0,0,0.7523098,156.4602,49.999874)"
         id="path4215"
         style="fill:#e5dca6;fill-opacity:1;stroke:#000000;stroke-width:4.0999999;stroke-linecap:square;stroke-miterlimit:4;stroke-opacity:1;stroke-dashoffset:0" />
    </g>
    <g
       transform="translate(77,-111)"
       id="g4223">
      <path
         d="m 665.11417,272.36219 c 0,11.10875 -13.61049,20.11416 -30.39988,20.11416 -16.78938,0 -30.39987,-9.00541 -30.39987,-20.11416 0,-11.10874 13.61049,-20.11416 30.39987,-20.11416 16.78939,0 30.39988,9.00542 30.39988,20.11416 z"
         id="path4225"
         style="fill:#e5dca6;fill-opacity:1;stroke:#000000;stroke-width:3.87167716;stroke-linecap:square;stroke-miterlimit:4;stroke-opacity:1;stroke-dashoffset:0" />
      <path
         d="m 670.00001,272.36218 c 0,11.0457 -15.35024,20 -34.28572,20 -18.93547,0 -34.28571,-8.9543 -34.28571,-20 0,-11.04569 15.35024,-20 34.28571,-20 18.93548,0 34.28572,8.95431 34.28572,20 z"
         transform="matrix(0.7523098,0,0,0.7523098,156.4602,49.999874)"
         id="path4227"
         style="fill:#e5dca6;fill-opacity:1;stroke:#000000;stroke-width:4.0999999;stroke-linecap:square;stroke-miterlimit:4;stroke-opacity:1;stroke-dashoffset:0" />
    </g>
    <g
       transform="translate(343,26)"
       id="g4229">
      <path
         d="m 665.11417,272.36219 c 0,11.10875 -13.61049,20.11416 -30.39988,20.11416 -16.78938,0 -30.39987,-9.00541 -30.39987,-20.11416 0,-11.10874 13.61049,-20.11416 30.39987,-20.11416 16.78939,0 30.39988,9.00542 30.39988,20.11416 z"
         id="path4231"
         style="fill:#e5dca6;fill-opacity:1;stroke:#000000;stroke-width:3.87167716;stroke-linecap:square;stroke-miterlimit:4;stroke-opacity:1;stroke-dashoffset:0" />
      <path
         d="m 670.00001,272.36218 c 0,11.0457 -15.35024,20 -34.28572,20 -18.93547,0 -34.28571,-8.9543 -34.28571,-20 0,-11.04569 15.35024,-20 34.28571,-20 18.93548,0 34.28572,8.95431 34.28572,20 z"
         transform="matrix(0.7523098,0,0,0.7523098,156.4602,49.999874)"
         id="path4233"
         style="fill:#e5dca6;fill-opacity:1;stroke:#000000;stroke-width:4.0999999;stroke-linecap:square;stroke-miterlimit:4;stroke-opacity:1;stroke-dashoffset:0" />
    </g>
    <g
       transform="translate(26,31)"
       id="g4235">
      <path
         d="m 665.11417,272.36219 c 0,11.10875 -13.61049,20.11416 -30.39988,20.11416 -16.78938,0 -30.39987,-9.00541 -30.39987,-20.11416 0,-11.10874 13.61049,-20.11416 30.39987,-20.11416 16.78939,0 30.39988,9.00542 30.39988,20.11416 z"
         id="path4237"
         style="fill:#e5dca6;fill-opacity:1;stroke:#000000;stroke-width:3.87167716;stroke-linecap:square;stroke-miterlimit:4;stroke-opacity:1;stroke-dashoffset:0" />
      <path
         d="m 670.00001,272.36218 c 0,11.0457 -15.35024,20 -34.28572,20 -18.93547,0 -34.28571,-8.9543 -34.28571,-20 0,-11.04569 15.35024,-20 34.28571,-20 18.93548,0 34.28572,8.95431 34.28572,20 z"
         transform="matrix(0.7523098,0,0,0.7523098,156.4602,49.999874)"
         id="path4239"
         style="fill:#e5dca6;fill-opacity:1;stroke:#000000;stroke-width:4.0999999;stroke-linecap:square;stroke-miterlimit:4;stroke-opacity:1;stroke-dashoffset:0" />
    </g>
    <g
       transform="translate(247,-25)"
       id="g4241">
      <path
         d="m 665.11417,272.36219 c 0,11.10875 -13.61049,20.11416 -30.39988,20.11416 -16.78938,0 -30.39987,-9.00541 -30.39987,-20.11416 0,-11.10874 13.61049,-20.11416 30.39987,-20.11416 16.78939,0 30.39988,9.00542 30.39988,20.11416 z"
         id="path4243"
         style="fill:#e5dca6;fill-opacity:1;stroke:#000000;stroke-width:3.87167716;stroke-linecap:square;stroke-miterlimit:4;stroke-opacity:1;stroke-dashoffset:0" />
      <path
         d="m 670.00001,272.36218 c 0,11.0457 -15.35024,20 -34.28572,20 -18.93547,0 -34.28571,-8.9543 -34.28571,-20 0,-11.04569 15.35024,-20 34.28571,-20 18.93548,0 34.28572,8.95431 34.28572,20 z"
         transform="matrix(0.7523098,0,0,0.7523098,156.4602,49.999874)"
         id="path4245"
         style="fill:#e5dca6;fill-opacity:1;stroke:#000000;stroke-width:4.0999999;stroke-linecap:square;stroke-miterlimit:4;stroke-opacity:1;stroke-dashoffset:0" />
    </g>
    <g
       transform="translate(373,92)"
       id="g4247">
      <path
         d="m 665.11417,272.36219 c 0,11.10875 -13.61049,20.11416 -30.39988,20.11416 -16.78938,0 -30.39987,-9.00541 -30.39987,-20.11416 0,-11.10874 13.61049,-20.11416 30.39987,-20.11416 16.78939,0 30.39988,9.00542 30.39988,20.11416 z"
         id="path4249"
         style="fill:#e5dca6;fill-opacity:1;stroke:#000000;stroke-width:3.87167716;stroke-linecap:square;stroke-miterlimit:4;stroke-opacity:1;stroke-dashoffset:0" />
      <path
         d="m 670.00001,272.36218 c 0,11.0457 -15.35024,20 -34.28572,20 -18.93547,0 -34.28571,-8.9543 -34.28571,-20 0,-11.04569 15.35024,-20 34.28571,-20 18.93548,0 34.28572,8.95431 34.28572,20 z"
         transform="matrix(0.7523098,0,0,0.7523098,156.4602,49.999874)"
         id="path4251"
         style="fill:#e5dca6;fill-opacity:1;stroke:#000000;stroke-width:4.0999999;stroke-linecap:square;stroke-miterlimit:4;stroke-opacity:1;stroke-dashoffset:0" />
    </g>
    <path
       d="m 722.28396,242.05843 -53.44307,14.32002 14.32003,-53.44306 z"
       transform="translate(24.85714,141.85714)"
       id="path4253"
       style="fill:#b2e5a6;fill-opacity:1;stroke:#000000;stroke-width:4.0999999;stroke-linecap:square;stroke-miterlimit:4;stroke-opacity:1;stroke-dasharray:none;stroke-dashoffset:0" />
    <g
       transform="translate(-38,0)"
       id="g4255">
      <path
         d="m 665.11417,272.36219 c 0,11.10875 -13.61049,20.11416 -30.39988,20.11416 -16.78938,0 -30.39987,-9.00541 -30.39987,-20.11416 0,-11.10874 13.61049,-20.11416 30.39987,-20.11416 16.78939,0 30.39988,9.00542 30.39988,20.11416 z"
         id="path4257"
         style="fill:#e5dca6;fill-opacity:1;stroke:#000000;stroke-width:3.87167716;stroke-linecap:square;stroke-miterlimit:4;stroke-opacity:1;stroke-dashoffset:0" />
      <path
         d="m 670.00001,272.36218 c 0,11.0457 -15.35024,20 -34.28572,20 -18.93547,0 -34.28571,-8.9543 -34.28571,-20 0,-11.04569 15.35024,-20 34.28571,-20 18.93548,0 34.28572,8.95431 34.28572,20 z"
         transform="matrix(0.7523098,0,0,0.7523098,156.4602,49.999874)"
         id="path4259"
         style="fill:#e5dca6;fill-opacity:1;stroke:#000000;stroke-width:4.0999999;stroke-linecap:square;stroke-miterlimit:4;stroke-opacity:1;stroke-dashoffset:0" />
    </g>
    <g
       transform="translate(72,-34)"
       id="g4261">
      <path
         d="m 665.11417,272.36219 c 0,11.10875 -13.61049,20.11416 -30.39988,20.11416 -16.78938,0 -30.39987,-9.00541 -30.39987,-20.11416 0,-11.10874 13.61049,-20.11416 30.39987,-20.11416 16.78939,0 30.39988,9.00542 30.39988,20.11416 z"
         id="path4263"
         style="fill:#e5dca6;fill-opacity:1;stroke:#000000;stroke-width:3.87167716;stroke-linecap:square;stroke-miterlimit:4;stroke-opacity:1;stroke-dashoffset:0" />
      <path
         d="m 670.00001,272.36218 c 0,11.0457 -15.35024,20 -34.28572,20 -18.93547,0 -34.28571,-8.9543 -34.28571,-20 0,-11.04569 15.35024,-20 34.28571,-20 18.93548,0 34.28572,8.95431 34.28572,20 z"
         transform="matrix(0.7523098,0,0,0.7523098,156.4602,49.999874)"
         id="path4265"
         style="fill:#e5dca6;fill-opacity:1;stroke:#000000;stroke-width:4.0999999;stroke-linecap:square;stroke-miterlimit:4;stroke-opacity:1;stroke-dashoffset:0" />
    </g>
    <g
       transform="translate(157,-34)"
       id="g4267">
      <path
         d="m 665.11417,272.36219 c 0,11.10875 -13.61049,20.11416 -30.39988,20.11416 -16.78938,0 -30.39987,-9.00541 -30.39987,-20.11416 0,-11.10874 13.61049,-20.11416 30.39987,-20.11416 16.78939,0 30.39988,9.00542 30.39988,20.11416 z"
         id="path4269"
         style="fill:#e5dca6;fill-opacity:1;stroke:#000000;stroke-width:3.87167716;stroke-linecap:square;stroke-miterlimit:4;stroke-opacity:1;stroke-dashoffset:0" />
      <path
         d="m 670.00001,272.36218 c 0,11.0457 -15.35024,20 -34.28572,20 -18.93547,0 -34.28571,-8.9543 -34.28571,-20 0,-11.04569 15.35024,-20 34.28571,-20 18.93548,0 34.28572,8.95431 34.28572,20 z"
         transform="matrix(0.7523098,0,0,0.7523098,156.4602,49.999874)"
         id="path4271"
         style="fill:#e5dca6;fill-opacity:1;stroke:#000000;stroke-width:4.0999999;stroke-linecap:square;stroke-miterlimit:4;stroke-opacity:1;stroke-dashoffset:0" />
    </g>
    <g
       transform="translate(-51,63)"
       id="g4273">
      <path
         d="m 665.11417,272.36219 c 0,11.10875 -13.61049,20.11416 -30.39988,20.11416 -16.78938,0 -30.39987,-9.00541 -30.39987,-20.11416 0,-11.10874 13.61049,-20.11416 30.39987,-20.11416 16.78939,0 30.39988,9.00542 30.39988,20.11416 z"
         id="path4275"
         style="fill:#e5dca6;fill-opacity:1;stroke:#000000;stroke-width:3.87167716;stroke-linecap:square;stroke-miterlimit:4;stroke-opacity:1;stroke-dashoffset:0" />
      <path
         d="m 670.00001,272.36218 c 0,11.0457 -15.35024,20 -34.28572,20 -18.93547,0 -34.28571,-8.9543 -34.28571,-20 0,-11.04569 15.35024,-20 34.28571,-20 18.93548,0 34.28572,8.95431 34.28572,20 z"
         transform="matrix(0.7523098,0,0,0.7523098,156.4602,49.999874)"
         id="path4277"
         style="fill:#e5dca6;fill-opacity:1;stroke:#000000;stroke-width:4.0999999;stroke-linecap:square;stroke-miterlimit:4;stroke-opacity:1;stroke-dashoffset:0" />
    </g>
    <g
       transform="translate(238,-94)"
       id="g4279">
      <path
         d="m 665.11417,272.36219 c 0,11.10875 -13.61049,20.11416 -30.39988,20.11416 -16.78938,0 -30.39987,-9.00541 -30.39987,-20.11416 0,-11.10874 13.61049,-20.11416 30.39987,-20.11416 16.78939,0 30.39988,9.00542 30.39988,20.11416 z"
         id="path4281"
         style="fill:#e5dca6;fill-opacity:1;stroke:#000000;stroke-width:3.87167716;stroke-linecap:square;stroke-miterlimit:4;stroke-opacity:1;stroke-dashoffset:0" />
      <path
         d="m 670.00001,272.36218 c 0,11.0457 -15.35024,20 -34.28572,20 -18.93547,0 -34.28571,-8.9543 -34.28571,-20 0,-11.04569 15.35024,-20 34.28571,-20 18.93548,0 34.28572,8.95431 34.28572,20 z"
         transform="matrix(0.7523098,0,0,0.7523098,156.4602,49.999874)"
         id="path4283"
         style="fill:#e5dca6;fill-opacity:1;stroke:#000000;stroke-width:4.0999999;stroke-linecap:square;stroke-miterlimit:4;stroke-opacity:1;stroke-dashoffset:0" />
    </g>
    <g
       transform="translate(351,163)"
       id="g4285">
      <path
         d="m 665.11417,272.36219 c 0,11.10875 -13.61049,20.11416 -30.39988,20.11416 -16.78938,0 -30.39987,-9.00541 -30.39987,-20.11416 0,-11.10874 13.61049,-20.11416 30.39987,-20.11416 16.78939,0 30.39988,9.00542 30.39988,20.11416 z"
         id="path4287"
         style="fill:#e5dca6;fill-opacity:1;stroke:#000000;stroke-width:3.87167716;stroke-linecap:square;stroke-miterlimit:4;stroke-opacity:1;stroke-dashoffset:0" />
      <path
         d="m 670.00001,272.36218 c 0,11.0457 -15.35024,20 -34.28572,20 -18.93547,0 -34.28571,-8.9543 -34.28571,-20 0,-11.04569 15.35024,-20 34.28571,-20 18.93548,0 34.28572,8.95431 34.28572,20 z"
         transform="matrix(0.7523098,0,0,0.7523098,156.4602,49.999874)"
         id="path4289"
         style="fill:#e5dca6;fill-opacity:1;stroke:#000000;stroke-width:4.0999999;stroke-linecap:square;stroke-miterlimit:4;stroke-opacity:1;stroke-dashoffset:0" />
    </g>
    <path
       d="m 722.28396,242.05843 -53.44307,14.32002 14.32003,-53.44306 z"
       transform="translate(244.85714,117.85714)"
       id="path4291"
       style="fill:#b2e5a6;fill-opacity:1;stroke:#000000;stroke-width:4.0999999;stroke-linecap:square;stroke-miterlimit:4;stroke-opacity:1;stroke-dasharray:none;stroke-dashoffset:0" />
    <path
       d="m 722.28396,242.05843 -53.44307,14.32002 14.32003,-53.44306 z"
       transform="translate(60.85714,277.85714)"
       id="path4293"
       style="fill:#b2e5a6;fill-opacity:1;stroke:#000000;stroke-width:4.0999999;stroke-linecap:square;stroke-miterlimit:4;stroke-opacity:1;stroke-dasharray:none;stroke-dashoffset:0" />
    <path
       d="m 660,478.36218 -41.4819,9.09494 -21.4684,-36.64114 28.21369,-31.74041 38.90542,17.0245 z"
       transform="matrix(0.87362944,0,0,0.87362944,94.190446,35.699756)"
       id="path4295"
       style="fill:#a6c3e5;fill-opacity:1;stroke:#000000;stroke-width:4.0999999;stroke-linecap:square;stroke-miterlimit:4;stroke-opacity:1;stroke-dasharray:none;stroke-dashoffset:0" />
    <path
       d="m 660,478.36218 -41.4819,9.09494 -21.4684,-36.64114 28.21369,-31.74041 38.90542,17.0245 z"
       transform="matrix(0.87362944,0,0,0.87362944,296.19045,112.69976)"
       id="path4297"
       style="fill:#a6c3e5;fill-opacity:1;stroke:#000000;stroke-width:4.0999999;stroke-linecap:square;stroke-miterlimit:4;stroke-opacity:1;stroke-dasharray:none;stroke-dashoffset:0" />
    <path
       d="m 660,478.36218 -41.4819,9.09494 -21.4684,-36.64114 28.21369,-31.74041 38.90542,17.0245 z"
       transform="matrix(0.87362944,0,0,0.87362944,394.19045,-171.30024)"
       id="path4299"
       style="fill:#a6c3e5;fill-opacity:1;stroke:#000000;stroke-width:4.0999999;stroke-linecap:square;stroke-miterlimit:4;stroke-opacity:1;stroke-dasharray:none;stroke-dashoffset:0" />
    <path
       d="m 660,478.36218 -41.4819,9.09494 -21.4684,-36.64114 28.21369,-31.74041 38.90542,17.0245 z"
       transform="matrix(0.87362944,0,0,0.87362944,262.19045,-28.30024)"
       id="path4301"
       style="fill:#a6c3e5;fill-opacity:1;stroke:#000000;stroke-width:4.0999999;stroke-linecap:square;stroke-miterlimit:4;stroke-opacity:1;stroke-dasharray:none;stroke-dashoffset:0" />
    <path
       d="m 722.28396,242.05843 -53.44307,14.32002 14.32003,-53.44306 z"
       transform="translate(148.85714,52.857143)"
       id="path4303"
       style="fill:#b2e5a6;fill-opacity:1;stroke:#000000;stroke-width:4.0999999;stroke-linecap:square;stroke-miterlimit:4;stroke-opacity:1;stroke-dasharray:none;stroke-dashoffset:0" />
    <path
       d="m 722.28396,242.05843 -53.44307,14.32002 14.32003,-53.44306 z"
       transform="translate(97.85714,-96.142857)"
       id="path4305"
       style="fill:#b2e5a6;fill-opacity:1;stroke:#000000;stroke-width:4.0999999;stroke-linecap:square;stroke-miterlimit:4;stroke-opacity:1;stroke-dasharray:none;stroke-dashoffset:0" />
    <g
       transform="translate(81,180)"
       id="g4307">
      <path
         d="m 665.11417,272.36219 c 0,11.10875 -13.61049,20.11416 -30.39988,20.11416 -16.78938,0 -30.39987,-9.00541 -30.39987,-20.11416 0,-11.10874 13.61049,-20.11416 30.39987,-20.11416 16.78939,0 30.39988,9.00542 30.39988,20.11416 z"
         id="path4309"
         style="fill:#e5dca6;fill-opacity:1;stroke:#000000;stroke-width:3.87167716;stroke-linecap:square;stroke-miterlimit:4;stroke-opacity:1;stroke-dashoffset:0" />
      <path
         d="m 670.00001,272.36218 c 0,11.0457 -15.35024,20 -34.28572,20 -18.93547,0 -34.28571,-8.9543 -34.28571,-20 0,-11.04569 15.35024,-20 34.28571,-20 18.93548,0 34.28572,8.95431 34.28572,20 z"
         transform="matrix(0.7523098,0,0,0.7523098,156.4602,49.999874)"
         id="path4311"
         style="fill:#e5dca6;fill-opacity:1;stroke:#000000;stroke-width:4.0999999;stroke-linecap:square;stroke-miterlimit:4;stroke-opacity:1;stroke-dashoffset:0" />
    </g>
    <g
       transform="translate(27,93)"
       id="g4313">
      <path
         d="m 665.11417,272.36219 c 0,11.10875 -13.61049,20.11416 -30.39988,20.11416 -16.78938,0 -30.39987,-9.00541 -30.39987,-20.11416 0,-11.10874 13.61049,-20.11416 30.39987,-20.11416 16.78939,0 30.39988,9.00542 30.39988,20.11416 z"
         id="path4315"
         style="fill:#e5dca6;fill-opacity:1;stroke:#000000;stroke-width:3.87167716;stroke-linecap:square;stroke-miterlimit:4;stroke-opacity:1;stroke-dashoffset:0" />
      <path
         d="m 670.00001,272.36218 c 0,11.0457 -15.35024,20 -34.28572,20 -18.93547,0 -34.28571,-8.9543 -34.28571,-20 0,-11.04569 15.35024,-20 34.28571,-20 18.93548,0 34.28572,8.95431 34.28572,20 z"
         transform="matrix(0.7523098,0,0,0.7523098,156.4602,49.999874)"
         id="path4317"
         style="fill:#e5dca6;fill-opacity:1;stroke:#000000;stroke-width:4.0999999;stroke-linecap:square;stroke-miterlimit:4;stroke-opacity:1;stroke-dashoffset:0" />
    </g>
    <g
       transform="translate(120,75)"
       id="g4319">
      <path
         d="m 665.11417,272.36219 c 0,11.10875 -13.61049,20.11416 -30.39988,20.11416 -16.78938,0 -30.39987,-9.00541 -30.39987,-20.11416 0,-11.10874 13.61049,-20.11416 30.39987,-20.11416 16.78939,0 30.39988,9.00542 30.39988,20.11416 z"
         id="path4321"
         style="fill:#e5dca6;fill-opacity:1;stroke:#000000;stroke-width:3.87167716;stroke-linecap:square;stroke-miterlimit:4;stroke-opacity:1;stroke-dashoffset:0" />
      <path
         d="m 670.00001,272.36218 c 0,11.0457 -15.35024,20 -34.28572,20 -18.93547,0 -34.28571,-8.9543 -34.28571,-20 0,-11.04569 15.35024,-20 34.28571,-20 18.93548,0 34.28572,8.95431 34.28572,20 z"
         transform="matrix(0.7523098,0,0,0.7523098,156.4602,49.999874)"
         id="path4323"
         style="fill:#e5dca6;fill-opacity:1;stroke:#000000;stroke-width:4.0999999;stroke-linecap:square;stroke-miterlimit:4;stroke-opacity:1;stroke-dashoffset:0" />
    </g>
    <g
       transform="translate(145,160)"
       id="g4325">
      <path
         d="m 665.11417,272.36219 c 0,11.10875 -13.61049,20.11416 -30.39988,20.11416 -16.78938,0 -30.39987,-9.00541 -30.39987,-20.11416 0,-11.10874 13.61049,-20.11416 30.39987,-20.11416 16.78939,0 30.39988,9.00542 30.39988,20.11416 z"
         id="path4327"
         style="fill:#e5dca6;fill-opacity:1;stroke:#000000;stroke-width:3.87167716;stroke-linecap:square;stroke-miterlimit:4;stroke-opacity:1;stroke-dashoffset:0" />
      <path
         d="m 670.00001,272.36218 c 0,11.0457 -15.35024,20 -34.28572,20 -18.93547,0 -34.28571,-8.9543 -34.28571,-20 0,-11.04569 15.35024,-20 34.28571,-20 18.93548,0 34.28572,8.95431 34.28572,20 z"
         transform="matrix(0.7523098,0,0,0.7523098,156.4602,49.999874)"
         id="path4329"
         style="fill:#e5dca6;fill-opacity:1;stroke:#000000;stroke-width:4.0999999;stroke-linecap:square;stroke-miterlimit:4;stroke-opacity:1;stroke-dashoffset:0" />
    </g>
    <g
       transform="translate(246,66)"
       id="g4331">
      <path
         d="m 665.11417,272.36219 c 0,11.10875 -13.61049,20.11416 -30.39988,20.11416 -16.78938,0 -30.39987,-9.00541 -30.39987,-20.11416 0,-11.10874 13.61049,-20.11416 30.39987,-20.11416 16.78939,0 30.39988,9.00542 30.39988,20.11416 z"
         id="path4333"
         style="fill:#e5dca6;fill-opacity:1;stroke:#000000;stroke-width:3.87167716;stroke-linecap:square;stroke-miterlimit:4;stroke-opacity:1;stroke-dashoffset:0" />
      <path
         d="m 670.00001,272.36218 c 0,11.0457 -15.35024,20 -34.28572,20 -18.93547,0 -34.28571,-8.9543 -34.28571,-20 0,-11.04569 15.35024,-20 34.28571,-20 18.93548,0 34.28572,8.95431 34.28572,20 z"
         transform="matrix(0.7523098,0,0,0.7523098,156.4602,49.999874)"
         id="path4335"
         style="fill:#e5dca6;fill-opacity:1;stroke:#000000;stroke-width:4.0999999;stroke-linecap:square;stroke-miterlimit:4;stroke-opacity:1;stroke-dashoffset:0" />
    </g>
    <g
       transform="translate(280,158)"
       id="g4337">
      <path
         d="m 665.11417,272.36219 c 0,11.10875 -13.61049,20.11416 -30.39988,20.11416 -16.78938,0 -30.39987,-9.00541 -30.39987,-20.11416 0,-11.10874 13.61049,-20.11416 30.39987,-20.11416 16.78939,0 30.39988,9.00542 30.39988,20.11416 z"
         id="path4339"
         style="fill:#e5dca6;fill-opacity:1;stroke:#000000;stroke-width:3.87167716;stroke-linecap:square;stroke-miterlimit:4;stroke-opacity:1;stroke-dashoffset:0" />
      <path
         d="m 670.00001,272.36218 c 0,11.0457 -15.35024,20 -34.28572,20 -18.93547,0 -34.28571,-8.9543 -34.28571,-20 0,-11.04569 15.35024,-20 34.28571,-20 18.93548,0 34.28572,8.95431 34.28572,20 z"
         transform="matrix(0.7523098,0,0,0.7523098,156.4602,49.999874)"
         id="path4341"
         style="fill:#e5dca6;fill-opacity:1;stroke:#000000;stroke-width:4.0999999;stroke-linecap:square;stroke-miterlimit:4;stroke-opacity:1;stroke-dashoffset:0" />
    </g>
    <g
       transform="translate(283,233)"
       id="g4343">
      <path
         d="m 665.11417,272.36219 c 0,11.10875 -13.61049,20.11416 -30.39988,20.11416 -16.78938,0 -30.39987,-9.00541 -30.39987,-20.11416 0,-11.10874 13.61049,-20.11416 30.39987,-20.11416 16.78939,0 30.39988,9.00542 30.39988,20.11416 z"
         id="path4345"
         style="fill:#e5dca6;fill-opacity:1;stroke:#000000;stroke-width:3.87167716;stroke-linecap:square;stroke-miterlimit:4;stroke-opacity:1;stroke-dashoffset:0" />
      <path
         d="m 670.00001,272.36218 c 0,11.0457 -15.35024,20 -34.28572,20 -18.93547,0 -34.28571,-8.9543 -34.28571,-20 0,-11.04569 15.35024,-20 34.28571,-20 18.93548,0 34.28572,8.95431 34.28572,20 z"
         transform="matrix(0.7523098,0,0,0.7523098,156.4602,49.999874)"
         id="path4347"
         style="fill:#e5dca6;fill-opacity:1;stroke:#000000;stroke-width:4.0999999;stroke-linecap:square;stroke-miterlimit:4;stroke-opacity:1;stroke-dashoffset:0" />
    </g>
    <g
       transform="translate(42,234)"
       id="g4349">
      <path
         d="m 665.11417,272.36219 c 0,11.10875 -13.61049,20.11416 -30.39988,20.11416 -16.78938,0 -30.39987,-9.00541 -30.39987,-20.11416 0,-11.10874 13.61049,-20.11416 30.39987,-20.11416 16.78939,0 30.39988,9.00542 30.39988,20.11416 z"
         id="path4351"
         style="fill:#e5dca6;fill-opacity:1;stroke:#000000;stroke-width:3.87167716;stroke-linecap:square;stroke-miterlimit:4;stroke-opacity:1;stroke-dashoffset:0" />
      <path
         d="m 670.00001,272.36218 c 0,11.0457 -15.35024,20 -34.28572,20 -18.93547,0 -34.28571,-8.9543 -34.28571,-20 0,-11.04569 15.35024,-20 34.28571,-20 18.93548,0 34.28572,8.95431 34.28572,20 z"
         transform="matrix(0.7523098,0,0,0.7523098,156.4602,49.999874)"
         id="path4353"
         style="fill:#e5dca6;fill-opacity:1;stroke:#000000;stroke-width:4.0999999;stroke-linecap:square;stroke-miterlimit:4;stroke-opacity:1;stroke-dashoffset:0" />
    </g>
    <g
       transform="translate(211,172)"
       id="g4355">
      <path
         d="m 665.11417,272.36219 c 0,11.10875 -13.61049,20.11416 -30.39988,20.11416 -16.78938,0 -30.39987,-9.00541 -30.39987,-20.11416 0,-11.10874 13.61049,-20.11416 30.39987,-20.11416 16.78939,0 30.39988,9.00542 30.39988,20.11416 z"
         id="path4357"
         style="fill:#e5dca6;fill-opacity:1;stroke:#000000;stroke-width:3.87167716;stroke-linecap:square;stroke-miterlimit:4;stroke-opacity:1;stroke-dashoffset:0" />
      <path
         d="m 670.00001,272.36218 c 0,11.0457 -15.35024,20 -34.28572,20 -18.93547,0 -34.28571,-8.9543 -34.28571,-20 0,-11.04569 15.35024,-20 34.28571,-20 18.93548,0 34.28572,8.95431 34.28572,20 z"
         transform="matrix(0.7523098,0,0,0.7523098,156.4602,49.999874)"
         id="path4359"
         style="fill:#e5dca6;fill-opacity:1;stroke:#000000;stroke-width:4.0999999;stroke-linecap:square;stroke-miterlimit:4;stroke-opacity:1;stroke-dashoffset:0" />
    </g>
    <g
       transform="translate(-57,123)"
       id="g4361">
      <path
         d="m 665.11417,272.36219 c 0,11.10875 -13.61049,20.11416 -30.39988,20.11416 -16.78938,0 -30.39987,-9.00541 -30.39987,-20.11416 0,-11.10874 13.61049,-20.11416 30.39987,-20.11416 16.78939,0 30.39988,9.00542 30.39988,20.11416 z"
         id="path4363"
         style="fill:#e5dca6;fill-opacity:1;stroke:#000000;stroke-width:3.87167716;stroke-linecap:square;stroke-miterlimit:4;stroke-opacity:1;stroke-dashoffset:0" />
      <path
         d="m 670.00001,272.36218 c 0,11.0457 -15.35024,20 -34.28572,20 -18.93547,0 -34.28571,-8.9543 -34.28571,-20 0,-11.04569 15.35024,-20 34.28571,-20 18.93548,0 34.28572,8.95431 34.28572,20 z"
         transform="matrix(0.7523098,0,0,0.7523098,156.4602,49.999874)"
         id="path4365"
         style="fill:#e5dca6;fill-opacity:1;stroke:#000000;stroke-width:4.0999999;stroke-linecap:square;stroke-miterlimit:4;stroke-opacity:1;stroke-dashoffset:0" />
    </g>
    <g
       transform="translate(-30,229)"
       id="g4367">
      <path
         d="m 665.11417,272.36219 c 0,11.10875 -13.61049,20.11416 -30.39988,20.11416 -16.78938,0 -30.39987,-9.00541 -30.39987,-20.11416 0,-11.10874 13.61049,-20.11416 30.39987,-20.11416 16.78939,0 30.39988,9.00542 30.39988,20.11416 z"
         id="path4369"
         style="fill:#e5dca6;fill-opacity:1;stroke:#000000;stroke-width:3.87167716;stroke-linecap:square;stroke-miterlimit:4;stroke-opacity:1;stroke-dashoffset:0" />
      <path
         d="m 670.00001,272.36218 c 0,11.0457 -15.35024,20 -34.28572,20 -18.93547,0 -34.28571,-8.9543 -34.28571,-20 0,-11.04569 15.35024,-20 34.28571,-20 18.93548,0 34.28572,8.95431 34.28572,20 z"
         transform="matrix(0.7523098,0,0,0.7523098,156.4602,49.999874)"
         id="path4371"
         style="fill:#e5dca6;fill-opacity:1;stroke:#000000;stroke-width:4.0999999;stroke-linecap:square;stroke-miterlimit:4;stroke-opacity:1;stroke-dashoffset:0" />
    </g>
    <g
       transform="translate(70,303)"
       id="g4373">
      <path
         d="m 665.11417,272.36219 c 0,11.10875 -13.61049,20.11416 -30.39988,20.11416 -16.78938,0 -30.39987,-9.00541 -30.39987,-20.11416 0,-11.10874 13.61049,-20.11416 30.39987,-20.11416 16.78939,0 30.39988,9.00542 30.39988,20.11416 z"
         id="path4375"
         style="fill:#e5dca6;fill-opacity:1;stroke:#000000;stroke-width:3.87167716;stroke-linecap:square;stroke-miterlimit:4;stroke-opacity:1;stroke-dashoffset:0" />
      <path
         d="m 670.00001,272.36218 c 0,11.0457 -15.35024,20 -34.28572,20 -18.93547,0 -34.28571,-8.9543 -34.28571,-20 0,-11.04569 15.35024,-20 34.28571,-20 18.93548,0 34.28572,8.95431 34.28572,20 z"
         transform="matrix(0.7523098,0,0,0.7523098,156.4602,49.999874)"
         id="path4377"
         style="fill:#e5dca6;fill-opacity:1;stroke:#000000;stroke-width:4.0999999;stroke-linecap:square;stroke-miterlimit:4;stroke-opacity:1;stroke-dashoffset:0" />
    </g>
    <g
       transform="translate(160,295)"
       id="g4379">
      <path
         d="m 665.11417,272.36219 c 0,11.10875 -13.61049,20.11416 -30.39988,20.11416 -16.78938,0 -30.39987,-9.00541 -30.39987,-20.11416 0,-11.10874 13.61049,-20.11416 30.39987,-20.11416 16.78939,0 30.39988,9.00542 30.39988,20.11416 z"
         id="path4381"
         style="fill:#e5dca6;fill-opacity:1;stroke:#000000;stroke-width:3.87167716;stroke-linecap:square;stroke-miterlimit:4;stroke-opacity:1;stroke-dashoffset:0" />
      <path
         d="m 670.00001,272.36218 c 0,11.0457 -15.35024,20 -34.28572,20 -18.93547,0 -34.28571,-8.9543 -34.28571,-20 0,-11.04569 15.35024,-20 34.28571,-20 18.93548,0 34.28572,8.95431 34.28572,20 z"
         transform="matrix(0.7523098,0,0,0.7523098,156.4602,49.999874)"
         id="path4383"
         style="fill:#e5dca6;fill-opacity:1;stroke:#000000;stroke-width:4.0999999;stroke-linecap:square;stroke-miterlimit:4;stroke-opacity:1;stroke-dashoffset:0" />
    </g>
    <g
       transform="translate(226,307)"
       id="g4385">
      <path
         d="m 665.11417,272.36219 c 0,11.10875 -13.61049,20.11416 -30.39988,20.11416 -16.78938,0 -30.39987,-9.00541 -30.39987,-20.11416 0,-11.10874 13.61049,-20.11416 30.39987,-20.11416 16.78939,0 30.39988,9.00542 30.39988,20.11416 z"
         id="path4387"
         style="fill:#e5dca6;fill-opacity:1;stroke:#000000;stroke-width:3.87167716;stroke-linecap:square;stroke-miterlimit:4;stroke-opacity:1;stroke-dashoffset:0" />
      <path
         d="m 670.00001,272.36218 c 0,11.0457 -15.35024,20 -34.28572,20 -18.93547,0 -34.28571,-8.9543 -34.28571,-20 0,-11.04569 15.35024,-20 34.28571,-20 18.93548,0 34.28572,8.95431 34.28572,20 z"
         transform="matrix(0.7523098,0,0,0.7523098,156.4602,49.999874)"
         id="path4389"
         style="fill:#e5dca6;fill-opacity:1;stroke:#000000;stroke-width:4.0999999;stroke-linecap:square;stroke-miterlimit:4;stroke-opacity:1;stroke-dashoffset:0" />
    </g>
    <g
       id="g5411"
       style="fill:#4d5662;fill-opacity:1;stroke:none">
      <path
         d="m 189.9375,376.3125 -7.875,4.125 c 32.5472,62.24177 67.30302,101.14164 102.78125,123.53125 35.47823,22.38961 71.6264,28.05683 105.96875,24.1875 68.68471,-7.73865 130.62805,-52.87045 172.40625,-76.9375 L 558.78125,443.5 c -42.61183,24.54727 -103.54788,68.44158 -168.96875,75.8125 -32.71043,3.68546 -66.45908,-1.56994 -100.21875,-22.875 -33.75967,-21.30506 -67.60961,-58.84047 -99.65625,-120.125 z"
         id="path4401"
         style="font-size:medium;font-style:normal;font-variant:normal;font-weight:normal;font-stretch:normal;text-indent:0;text-align:start;text-decoration:none;line-height:normal;letter-spacing:normal;word-spacing:normal;text-transform:none;direction:ltr;block-progression:tb;writing-mode:lr-tb;text-anchor:start;baseline-shift:baseline;color:#000000;fill:#4d5662;fill-opacity:1;stroke:none;stroke-width:8.89999962;marker:none;visibility:visible;display:inline;overflow:visible;enable-background:accumulate;font-family:Sans;-inkscape-font-specification:Sans" />
      <path
         d="m 530.15237,465.13248 -6.53866,24.30897 45.0982,-46.52185 -62.8685,15.67422 24.30896,6.53866 z"
         id="path5417"
         style="fill:#4d5662;fill-opacity:1;fill-rule:evenodd;stroke:#4d5662;stroke-width:3.55999985pt;stroke-opacity:1" />
    </g>
  </g>
</svg>
