<?xml version="1.0" encoding="utf-8" standalone="no"?>
<!DOCTYPE svg PUBLIC "-//W3C//DTD SVG 1.1//EN"
  "http://www.w3.org/Graphics/SVG/1.1/DTD/svg11.dtd">
<!-- Created with matplotlib (http://matplotlib.org/) -->
<svg height="364.923084pt" version="1.1" viewBox="0 0 1000.433125 364.923084" width="1000.433125pt" xmlns="http://www.w3.org/2000/svg" xmlns:xlink="http://www.w3.org/1999/xlink">
 <defs>
  <style type="text/css">
*{stroke-linecap:butt;stroke-linejoin:round;}
  </style>
 </defs>
 <g id="figure_1">
  <g id="patch_1">
   <path d="M 0 364.923084 
L 1000.433125 364.923084 
L 1000.433125 0 
L 0 0 
z
" style="fill:#ffffff;"/>
  </g>
  <g id="axes_1">
   <g id="patch_2">
    <path d="M 32.968125 302.41566 
L 985.598125 302.41566 
L 985.598125 32.83646 
L 32.968125 32.83646 
z
" style="fill:#ffffff;"/>
   </g>
   <g id="matplotlib.axis_1">
    <g id="xtick_1">
     <g id="text_1">
      <!-- 0 -->
      <defs>
       <path d="M 31.78125 66.40625 
Q 24.171875 66.40625 20.328125 58.90625 
Q 16.5 51.421875 16.5 36.375 
Q 16.5 21.390625 20.328125 13.890625 
Q 24.171875 6.390625 31.78125 6.390625 
Q 39.453125 6.390625 43.28125 13.890625 
Q 47.125 21.390625 47.125 36.375 
Q 47.125 51.421875 43.28125 58.90625 
Q 39.453125 66.40625 31.78125 66.40625 
z
M 31.78125 74.21875 
Q 44.046875 74.21875 50.515625 64.515625 
Q 56.984375 54.828125 56.984375 36.375 
Q 56.984375 17.96875 50.515625 8.265625 
Q 44.046875 -1.421875 31.78125 -1.421875 
Q 19.53125 -1.421875 13.0625 8.265625 
Q 6.59375 17.96875 6.59375 36.375 
Q 6.59375 54.828125 13.0625 64.515625 
Q 19.53125 74.21875 31.78125 74.21875 
z
" id="DejaVuSans-30"/>
      </defs>
      <g transform="translate(30.423125 315.49441)scale(0.08 -0.08)">
       <use xlink:href="#DejaVuSans-30"/>
      </g>
     </g>
    </g>
    <g id="xtick_2">
     <g id="text_2">
      <!-- 20 -->
      <defs>
       <path d="M 19.1875 8.296875 
L 53.609375 8.296875 
L 53.609375 0 
L 7.328125 0 
L 7.328125 8.296875 
Q 12.9375 14.109375 22.625 23.890625 
Q 32.328125 33.6875 34.8125 36.53125 
Q 39.546875 41.84375 41.421875 45.53125 
Q 43.3125 49.21875 43.3125 52.78125 
Q 43.3125 58.59375 39.234375 62.25 
Q 35.15625 65.921875 28.609375 65.921875 
Q 23.96875 65.921875 18.8125 64.3125 
Q 13.671875 62.703125 7.8125 59.421875 
L 7.8125 69.390625 
Q 13.765625 71.78125 18.9375 73 
Q 24.125 74.21875 28.421875 74.21875 
Q 39.75 74.21875 46.484375 68.546875 
Q 53.21875 62.890625 53.21875 53.421875 
Q 53.21875 48.921875 51.53125 44.890625 
Q 49.859375 40.875 45.40625 35.40625 
Q 44.1875 33.984375 37.640625 27.21875 
Q 31.109375 20.453125 19.1875 8.296875 
z
" id="DejaVuSans-32"/>
      </defs>
      <g transform="translate(218.404125 315.49441)scale(0.08 -0.08)">
       <use xlink:href="#DejaVuSans-32"/>
       <use x="63.623047" xlink:href="#DejaVuSans-30"/>
      </g>
     </g>
    </g>
    <g id="xtick_3">
     <g id="text_3">
      <!-- 40 -->
      <defs>
       <path d="M 37.796875 64.3125 
L 12.890625 25.390625 
L 37.796875 25.390625 
z
M 35.203125 72.90625 
L 47.609375 72.90625 
L 47.609375 25.390625 
L 58.015625 25.390625 
L 58.015625 17.1875 
L 47.609375 17.1875 
L 47.609375 0 
L 37.796875 0 
L 37.796875 17.1875 
L 4.890625 17.1875 
L 4.890625 26.703125 
z
" id="DejaVuSans-34"/>
      </defs>
      <g transform="translate(408.930125 315.49441)scale(0.08 -0.08)">
       <use xlink:href="#DejaVuSans-34"/>
       <use x="63.623047" xlink:href="#DejaVuSans-30"/>
      </g>
     </g>
    </g>
    <g id="xtick_4">
     <g id="text_4">
      <!-- 60 -->
      <defs>
       <path d="M 33.015625 40.375 
Q 26.375 40.375 22.484375 35.828125 
Q 18.609375 31.296875 18.609375 23.390625 
Q 18.609375 15.53125 22.484375 10.953125 
Q 26.375 6.390625 33.015625 6.390625 
Q 39.65625 6.390625 43.53125 10.953125 
Q 47.40625 15.53125 47.40625 23.390625 
Q 47.40625 31.296875 43.53125 35.828125 
Q 39.65625 40.375 33.015625 40.375 
z
M 52.59375 71.296875 
L 52.59375 62.3125 
Q 48.875 64.0625 45.09375 64.984375 
Q 41.3125 65.921875 37.59375 65.921875 
Q 27.828125 65.921875 22.671875 59.328125 
Q 17.53125 52.734375 16.796875 39.40625 
Q 19.671875 43.65625 24.015625 45.921875 
Q 28.375 48.1875 33.59375 48.1875 
Q 44.578125 48.1875 50.953125 41.515625 
Q 57.328125 34.859375 57.328125 23.390625 
Q 57.328125 12.15625 50.6875 5.359375 
Q 44.046875 -1.421875 33.015625 -1.421875 
Q 20.359375 -1.421875 13.671875 8.265625 
Q 6.984375 17.96875 6.984375 36.375 
Q 6.984375 53.65625 15.1875 63.9375 
Q 23.390625 74.21875 37.203125 74.21875 
Q 40.921875 74.21875 44.703125 73.484375 
Q 48.484375 72.75 52.59375 71.296875 
z
" id="DejaVuSans-36"/>
      </defs>
      <g transform="translate(599.456125 315.49441)scale(0.08 -0.08)">
       <use xlink:href="#DejaVuSans-36"/>
       <use x="63.623047" xlink:href="#DejaVuSans-30"/>
      </g>
     </g>
    </g>
    <g id="xtick_5">
     <g id="text_5">
      <!-- 80 -->
      <defs>
       <path d="M 31.78125 34.625 
Q 24.75 34.625 20.71875 30.859375 
Q 16.703125 27.09375 16.703125 20.515625 
Q 16.703125 13.921875 20.71875 10.15625 
Q 24.75 6.390625 31.78125 6.390625 
Q 38.8125 6.390625 42.859375 10.171875 
Q 46.921875 13.96875 46.921875 20.515625 
Q 46.921875 27.09375 42.890625 30.859375 
Q 38.875 34.625 31.78125 34.625 
z
M 21.921875 38.8125 
Q 15.578125 40.375 12.03125 44.71875 
Q 8.5 49.078125 8.5 55.328125 
Q 8.5 64.0625 14.71875 69.140625 
Q 20.953125 74.21875 31.78125 74.21875 
Q 42.671875 74.21875 48.875 69.140625 
Q 55.078125 64.0625 55.078125 55.328125 
Q 55.078125 49.078125 51.53125 44.71875 
Q 48 40.375 41.703125 38.8125 
Q 48.828125 37.15625 52.796875 32.3125 
Q 56.78125 27.484375 56.78125 20.515625 
Q 56.78125 9.90625 50.3125 4.234375 
Q 43.84375 -1.421875 31.78125 -1.421875 
Q 19.734375 -1.421875 13.25 4.234375 
Q 6.78125 9.90625 6.78125 20.515625 
Q 6.78125 27.484375 10.78125 32.3125 
Q 14.796875 37.15625 21.921875 38.8125 
z
M 18.3125 54.390625 
Q 18.3125 48.734375 21.84375 45.5625 
Q 25.390625 42.390625 31.78125 42.390625 
Q 38.140625 42.390625 41.71875 45.5625 
Q 45.3125 48.734375 45.3125 54.390625 
Q 45.3125 60.0625 41.71875 63.234375 
Q 38.140625 66.40625 31.78125 66.40625 
Q 25.390625 66.40625 21.84375 63.234375 
Q 18.3125 60.0625 18.3125 54.390625 
z
" id="DejaVuSans-38"/>
      </defs>
      <g transform="translate(789.982125 315.49441)scale(0.08 -0.08)">
       <use xlink:href="#DejaVuSans-38"/>
       <use x="63.623047" xlink:href="#DejaVuSans-30"/>
      </g>
     </g>
    </g>
    <g id="xtick_6">
     <g id="text_6">
      <!-- 100 -->
      <defs>
       <path d="M 12.40625 8.296875 
L 28.515625 8.296875 
L 28.515625 63.921875 
L 10.984375 60.40625 
L 10.984375 69.390625 
L 28.421875 72.90625 
L 38.28125 72.90625 
L 38.28125 8.296875 
L 54.390625 8.296875 
L 54.390625 0 
L 12.40625 0 
z
" id="DejaVuSans-31"/>
      </defs>
      <g transform="translate(977.963125 315.49441)scale(0.08 -0.08)">
       <use xlink:href="#DejaVuSans-31"/>
       <use x="63.623047" xlink:href="#DejaVuSans-30"/>
       <use x="127.246094" xlink:href="#DejaVuSans-30"/>
      </g>
     </g>
    </g>
    <g id="text_7">
     <!-- % GC -->
     <defs>
      <path d="M 72.703125 32.078125 
Q 68.453125 32.078125 66.03125 28.46875 
Q 63.625 24.859375 63.625 18.40625 
Q 63.625 12.0625 66.03125 8.421875 
Q 68.453125 4.78125 72.703125 4.78125 
Q 76.859375 4.78125 79.265625 8.421875 
Q 81.6875 12.0625 81.6875 18.40625 
Q 81.6875 24.8125 79.265625 28.4375 
Q 76.859375 32.078125 72.703125 32.078125 
z
M 72.703125 38.28125 
Q 80.421875 38.28125 84.953125 32.90625 
Q 89.5 27.546875 89.5 18.40625 
Q 89.5 9.28125 84.9375 3.921875 
Q 80.375 -1.421875 72.703125 -1.421875 
Q 64.890625 -1.421875 60.34375 3.921875 
Q 55.8125 9.28125 55.8125 18.40625 
Q 55.8125 27.59375 60.375 32.9375 
Q 64.9375 38.28125 72.703125 38.28125 
z
M 22.3125 68.015625 
Q 18.109375 68.015625 15.6875 64.375 
Q 13.28125 60.75 13.28125 54.390625 
Q 13.28125 47.953125 15.671875 44.328125 
Q 18.0625 40.71875 22.3125 40.71875 
Q 26.5625 40.71875 28.96875 44.328125 
Q 31.390625 47.953125 31.390625 54.390625 
Q 31.390625 60.6875 28.953125 64.34375 
Q 26.515625 68.015625 22.3125 68.015625 
z
M 66.40625 74.21875 
L 74.21875 74.21875 
L 28.609375 -1.421875 
L 20.796875 -1.421875 
z
M 22.3125 74.21875 
Q 30.03125 74.21875 34.609375 68.875 
Q 39.203125 63.53125 39.203125 54.390625 
Q 39.203125 45.171875 34.640625 39.84375 
Q 30.078125 34.515625 22.3125 34.515625 
Q 14.546875 34.515625 10.03125 39.859375 
Q 5.515625 45.21875 5.515625 54.390625 
Q 5.515625 63.484375 10.046875 68.84375 
Q 14.59375 74.21875 22.3125 74.21875 
z
" id="DejaVuSans-25"/>
      <path id="DejaVuSans-20"/>
      <path d="M 59.515625 10.40625 
L 59.515625 29.984375 
L 43.40625 29.984375 
L 43.40625 38.09375 
L 69.28125 38.09375 
L 69.28125 6.78125 
Q 63.578125 2.734375 56.6875 0.65625 
Q 49.8125 -1.421875 42 -1.421875 
Q 24.90625 -1.421875 15.25 8.5625 
Q 5.609375 18.5625 5.609375 36.375 
Q 5.609375 54.25 15.25 64.234375 
Q 24.90625 74.21875 42 74.21875 
Q 49.125 74.21875 55.546875 72.453125 
Q 61.96875 70.703125 67.390625 67.28125 
L 67.390625 56.78125 
Q 61.921875 61.421875 55.765625 63.765625 
Q 49.609375 66.109375 42.828125 66.109375 
Q 29.4375 66.109375 22.71875 58.640625 
Q 16.015625 51.171875 16.015625 36.375 
Q 16.015625 21.625 22.71875 14.15625 
Q 29.4375 6.6875 42.828125 6.6875 
Q 48.046875 6.6875 52.140625 7.59375 
Q 56.25 8.5 59.515625 10.40625 
z
" id="DejaVuSans-47"/>
      <path d="M 64.40625 67.28125 
L 64.40625 56.890625 
Q 59.421875 61.53125 53.78125 63.8125 
Q 48.140625 66.109375 41.796875 66.109375 
Q 29.296875 66.109375 22.65625 58.46875 
Q 16.015625 50.828125 16.015625 36.375 
Q 16.015625 21.96875 22.65625 14.328125 
Q 29.296875 6.6875 41.796875 6.6875 
Q 48.140625 6.6875 53.78125 8.984375 
Q 59.421875 11.28125 64.40625 15.921875 
L 64.40625 5.609375 
Q 59.234375 2.09375 53.4375 0.328125 
Q 47.65625 -1.421875 41.21875 -1.421875 
Q 24.65625 -1.421875 15.125 8.703125 
Q 5.609375 18.84375 5.609375 36.375 
Q 5.609375 53.953125 15.125 64.078125 
Q 24.65625 74.21875 41.21875 74.21875 
Q 47.75 74.21875 53.53125 72.484375 
Q 59.328125 70.75 64.40625 67.28125 
z
" id="DejaVuSans-43"/>
     </defs>
     <g transform="translate(495.577656 328.756597)scale(0.1 -0.1)">
      <use xlink:href="#DejaVuSans-25"/>
      <use x="95.019531" xlink:href="#DejaVuSans-20"/>
      <use x="126.806641" xlink:href="#DejaVuSans-47"/>
      <use x="204.296875" xlink:href="#DejaVuSans-43"/>
     </g>
    </g>
   </g>
   <g id="matplotlib.axis_2">
    <g id="ytick_1">
     <g id="line2d_1">
      <path clip-path="url(#pe82bc1382e)" d="M 32.968125 302.41566 
L 985.598125 302.41566 
" style="fill:none;stroke:#dedede;stroke-linecap:square;"/>
     </g>
     <g id="text_8">
      <!-- 0 -->
      <g transform="translate(20.878125 305.455035)scale(0.08 -0.08)">
       <use xlink:href="#DejaVuSans-30"/>
      </g>
     </g>
    </g>
    <g id="ytick_2">
     <g id="line2d_2">
      <path clip-path="url(#pe82bc1382e)" d="M 32.968125 245.814314 
L 985.598125 245.814314 
" style="fill:none;stroke:#dedede;stroke-linecap:square;"/>
     </g>
     <g id="text_9">
      <!-- 1 -->
      <g transform="translate(20.878125 248.853689)scale(0.08 -0.08)">
       <use xlink:href="#DejaVuSans-31"/>
      </g>
     </g>
    </g>
    <g id="ytick_3">
     <g id="line2d_3">
      <path clip-path="url(#pe82bc1382e)" d="M 32.968125 189.212967 
L 985.598125 189.212967 
" style="fill:none;stroke:#dedede;stroke-linecap:square;"/>
     </g>
     <g id="text_10">
      <!-- 2 -->
      <g transform="translate(20.878125 192.252342)scale(0.08 -0.08)">
       <use xlink:href="#DejaVuSans-32"/>
      </g>
     </g>
    </g>
    <g id="ytick_4">
     <g id="line2d_4">
      <path clip-path="url(#pe82bc1382e)" d="M 32.968125 132.611621 
L 985.598125 132.611621 
" style="fill:none;stroke:#dedede;stroke-linecap:square;"/>
     </g>
     <g id="text_11">
      <!-- 3 -->
      <defs>
       <path d="M 40.578125 39.3125 
Q 47.65625 37.796875 51.625 33 
Q 55.609375 28.21875 55.609375 21.1875 
Q 55.609375 10.40625 48.1875 4.484375 
Q 40.765625 -1.421875 27.09375 -1.421875 
Q 22.515625 -1.421875 17.65625 -0.515625 
Q 12.796875 0.390625 7.625 2.203125 
L 7.625 11.71875 
Q 11.71875 9.328125 16.59375 8.109375 
Q 21.484375 6.890625 26.8125 6.890625 
Q 36.078125 6.890625 40.9375 10.546875 
Q 45.796875 14.203125 45.796875 21.1875 
Q 45.796875 27.640625 41.28125 31.265625 
Q 36.765625 34.90625 28.71875 34.90625 
L 20.21875 34.90625 
L 20.21875 43.015625 
L 29.109375 43.015625 
Q 36.375 43.015625 40.234375 45.921875 
Q 44.09375 48.828125 44.09375 54.296875 
Q 44.09375 59.90625 40.109375 62.90625 
Q 36.140625 65.921875 28.71875 65.921875 
Q 24.65625 65.921875 20.015625 65.03125 
Q 15.375 64.15625 9.8125 62.3125 
L 9.8125 71.09375 
Q 15.4375 72.65625 20.34375 73.4375 
Q 25.25 74.21875 29.59375 74.21875 
Q 40.828125 74.21875 47.359375 69.109375 
Q 53.90625 64.015625 53.90625 55.328125 
Q 53.90625 49.265625 50.4375 45.09375 
Q 46.96875 40.921875 40.578125 39.3125 
z
" id="DejaVuSans-33"/>
      </defs>
      <g transform="translate(20.878125 135.650996)scale(0.08 -0.08)">
       <use xlink:href="#DejaVuSans-33"/>
      </g>
     </g>
    </g>
    <g id="ytick_5">
     <g id="line2d_5">
      <path clip-path="url(#pe82bc1382e)" d="M 32.968125 76.010274 
L 985.598125 76.010274 
" style="fill:none;stroke:#dedede;stroke-linecap:square;"/>
     </g>
     <g id="text_12">
      <!-- 4 -->
      <g transform="translate(20.878125 79.049649)scale(0.08 -0.08)">
       <use xlink:href="#DejaVuSans-34"/>
      </g>
     </g>
    </g>
    <g id="text_13">
     <!-- Percentage -->
     <defs>
      <path d="M 19.671875 64.796875 
L 19.671875 37.40625 
L 32.078125 37.40625 
Q 38.96875 37.40625 42.71875 40.96875 
Q 46.484375 44.53125 46.484375 51.125 
Q 46.484375 57.671875 42.71875 61.234375 
Q 38.96875 64.796875 32.078125 64.796875 
z
M 9.8125 72.90625 
L 32.078125 72.90625 
Q 44.34375 72.90625 50.609375 67.359375 
Q 56.890625 61.8125 56.890625 51.125 
Q 56.890625 40.328125 50.609375 34.8125 
Q 44.34375 29.296875 32.078125 29.296875 
L 19.671875 29.296875 
L 19.671875 0 
L 9.8125 0 
z
" id="DejaVuSans-50"/>
      <path d="M 56.203125 29.59375 
L 56.203125 25.203125 
L 14.890625 25.203125 
Q 15.484375 15.921875 20.484375 11.0625 
Q 25.484375 6.203125 34.421875 6.203125 
Q 39.59375 6.203125 44.453125 7.46875 
Q 49.3125 8.734375 54.109375 11.28125 
L 54.109375 2.78125 
Q 49.265625 0.734375 44.1875 -0.34375 
Q 39.109375 -1.421875 33.890625 -1.421875 
Q 20.796875 -1.421875 13.15625 6.1875 
Q 5.515625 13.8125 5.515625 26.8125 
Q 5.515625 40.234375 12.765625 48.109375 
Q 20.015625 56 32.328125 56 
Q 43.359375 56 49.78125 48.890625 
Q 56.203125 41.796875 56.203125 29.59375 
z
M 47.21875 32.234375 
Q 47.125 39.59375 43.09375 43.984375 
Q 39.0625 48.390625 32.421875 48.390625 
Q 24.90625 48.390625 20.390625 44.140625 
Q 15.875 39.890625 15.1875 32.171875 
z
" id="DejaVuSans-65"/>
      <path d="M 41.109375 46.296875 
Q 39.59375 47.171875 37.8125 47.578125 
Q 36.03125 48 33.890625 48 
Q 26.265625 48 22.1875 43.046875 
Q 18.109375 38.09375 18.109375 28.8125 
L 18.109375 0 
L 9.078125 0 
L 9.078125 54.6875 
L 18.109375 54.6875 
L 18.109375 46.1875 
Q 20.953125 51.171875 25.484375 53.578125 
Q 30.03125 56 36.53125 56 
Q 37.453125 56 38.578125 55.875 
Q 39.703125 55.765625 41.0625 55.515625 
z
" id="DejaVuSans-72"/>
      <path d="M 48.78125 52.59375 
L 48.78125 44.1875 
Q 44.96875 46.296875 41.140625 47.34375 
Q 37.3125 48.390625 33.40625 48.390625 
Q 24.65625 48.390625 19.8125 42.84375 
Q 14.984375 37.3125 14.984375 27.296875 
Q 14.984375 17.28125 19.8125 11.734375 
Q 24.65625 6.203125 33.40625 6.203125 
Q 37.3125 6.203125 41.140625 7.25 
Q 44.96875 8.296875 48.78125 10.40625 
L 48.78125 2.09375 
Q 45.015625 0.34375 40.984375 -0.53125 
Q 36.96875 -1.421875 32.421875 -1.421875 
Q 20.0625 -1.421875 12.78125 6.34375 
Q 5.515625 14.109375 5.515625 27.296875 
Q 5.515625 40.671875 12.859375 48.328125 
Q 20.21875 56 33.015625 56 
Q 37.15625 56 41.109375 55.140625 
Q 45.0625 54.296875 48.78125 52.59375 
z
" id="DejaVuSans-63"/>
      <path d="M 54.890625 33.015625 
L 54.890625 0 
L 45.90625 0 
L 45.90625 32.71875 
Q 45.90625 40.484375 42.875 44.328125 
Q 39.84375 48.1875 33.796875 48.1875 
Q 26.515625 48.1875 22.3125 43.546875 
Q 18.109375 38.921875 18.109375 30.90625 
L 18.109375 0 
L 9.078125 0 
L 9.078125 54.6875 
L 18.109375 54.6875 
L 18.109375 46.1875 
Q 21.34375 51.125 25.703125 53.5625 
Q 30.078125 56 35.796875 56 
Q 45.21875 56 50.046875 50.171875 
Q 54.890625 44.34375 54.890625 33.015625 
z
" id="DejaVuSans-6e"/>
      <path d="M 18.3125 70.21875 
L 18.3125 54.6875 
L 36.8125 54.6875 
L 36.8125 47.703125 
L 18.3125 47.703125 
L 18.3125 18.015625 
Q 18.3125 11.328125 20.140625 9.421875 
Q 21.96875 7.515625 27.59375 7.515625 
L 36.8125 7.515625 
L 36.8125 0 
L 27.59375 0 
Q 17.1875 0 13.234375 3.875 
Q 9.28125 7.765625 9.28125 18.015625 
L 9.28125 47.703125 
L 2.6875 47.703125 
L 2.6875 54.6875 
L 9.28125 54.6875 
L 9.28125 70.21875 
z
" id="DejaVuSans-74"/>
      <path d="M 34.28125 27.484375 
Q 23.390625 27.484375 19.1875 25 
Q 14.984375 22.515625 14.984375 16.5 
Q 14.984375 11.71875 18.140625 8.90625 
Q 21.296875 6.109375 26.703125 6.109375 
Q 34.1875 6.109375 38.703125 11.40625 
Q 43.21875 16.703125 43.21875 25.484375 
L 43.21875 27.484375 
z
M 52.203125 31.203125 
L 52.203125 0 
L 43.21875 0 
L 43.21875 8.296875 
Q 40.140625 3.328125 35.546875 0.953125 
Q 30.953125 -1.421875 24.3125 -1.421875 
Q 15.921875 -1.421875 10.953125 3.296875 
Q 6 8.015625 6 15.921875 
Q 6 25.140625 12.171875 29.828125 
Q 18.359375 34.515625 30.609375 34.515625 
L 43.21875 34.515625 
L 43.21875 35.40625 
Q 43.21875 41.609375 39.140625 45 
Q 35.0625 48.390625 27.6875 48.390625 
Q 23 48.390625 18.546875 47.265625 
Q 14.109375 46.140625 10.015625 43.890625 
L 10.015625 52.203125 
Q 14.9375 54.109375 19.578125 55.046875 
Q 24.21875 56 28.609375 56 
Q 40.484375 56 46.34375 49.84375 
Q 52.203125 43.703125 52.203125 31.203125 
z
" id="DejaVuSans-61"/>
      <path d="M 45.40625 27.984375 
Q 45.40625 37.75 41.375 43.109375 
Q 37.359375 48.484375 30.078125 48.484375 
Q 22.859375 48.484375 18.828125 43.109375 
Q 14.796875 37.75 14.796875 27.984375 
Q 14.796875 18.265625 18.828125 12.890625 
Q 22.859375 7.515625 30.078125 7.515625 
Q 37.359375 7.515625 41.375 12.890625 
Q 45.40625 18.265625 45.40625 27.984375 
z
M 54.390625 6.78125 
Q 54.390625 -7.171875 48.1875 -13.984375 
Q 42 -20.796875 29.203125 -20.796875 
Q 24.46875 -20.796875 20.265625 -20.09375 
Q 16.0625 -19.390625 12.109375 -17.921875 
L 12.109375 -9.1875 
Q 16.0625 -11.328125 19.921875 -12.34375 
Q 23.78125 -13.375 27.78125 -13.375 
Q 36.625 -13.375 41.015625 -8.765625 
Q 45.40625 -4.15625 45.40625 5.171875 
L 45.40625 9.625 
Q 42.625 4.78125 38.28125 2.390625 
Q 33.9375 0 27.875 0 
Q 17.828125 0 11.671875 7.65625 
Q 5.515625 15.328125 5.515625 27.984375 
Q 5.515625 40.671875 11.671875 48.328125 
Q 17.828125 56 27.875 56 
Q 33.9375 56 38.28125 53.609375 
Q 42.625 51.21875 45.40625 46.390625 
L 45.40625 54.6875 
L 54.390625 54.6875 
z
" id="DejaVuSans-67"/>
     </defs>
     <g transform="translate(14.798437 196.03856)rotate(-90)scale(0.1 -0.1)">
      <use xlink:href="#DejaVuSans-50"/>
      <use x="60.255859" xlink:href="#DejaVuSans-65"/>
      <use x="121.779297" xlink:href="#DejaVuSans-72"/>
      <use x="162.861328" xlink:href="#DejaVuSans-63"/>
      <use x="217.841797" xlink:href="#DejaVuSans-65"/>
      <use x="279.365234" xlink:href="#DejaVuSans-6e"/>
      <use x="342.744141" xlink:href="#DejaVuSans-74"/>
      <use x="381.953125" xlink:href="#DejaVuSans-61"/>
      <use x="443.232422" xlink:href="#DejaVuSans-67"/>
      <use x="506.708984" xlink:href="#DejaVuSans-65"/>
     </g>
    </g>
   </g>
   <g id="line2d_6">
    <path clip-path="url(#pe82bc1382e)" d="M 32.968125 302.41566 
L 42.494425 302.41566 
L 52.020725 302.41566 
L 61.547025 302.41566 
L 71.073325 302.41566 
L 80.599625 302.41566 
L 90.125925 302.41566 
L 99.652225 302.41566 
L 109.178525 302.41566 
L 118.704825 302.41566 
L 128.231125 302.41566 
L 137.757425 302.41566 
L 147.283725 302.41566 
L 156.810025 302.41566 
L 166.336325 302.41566 
L 175.862625 302.41566 
L 185.388925 302.41566 
L 194.915225 302.41566 
L 204.441525 302.41566 
L 213.967825 301.449107 
L 223.494125 300.482555 
L 233.020425 300.482555 
L 242.546725 300.482555 
L 252.073025 300.482555 
L 261.599325 300.482555 
L 271.125625 300.482555 
L 280.651925 300.482555 
L 290.178225 300.482555 
L 299.704525 300.482555 
L 309.230825 300.482555 
L 318.757125 300.482555 
L 328.283425 248.488482 
L 337.809725 196.494409 
L 347.336025 196.494409 
L 356.862325 196.494409 
L 366.388625 196.494409 
L 375.914925 196.494409 
L 385.441225 196.494409 
L 394.967525 196.494409 
L 404.493825 196.494409 
L 414.020125 196.494409 
L 423.546425 196.494409 
L 433.072725 196.494409 
L 442.599025 196.494409 
L 452.125325 137.988034 
L 461.651625 79.481659 
L 471.177925 79.481659 
L 480.704225 79.481659 
L 490.230525 79.481659 
L 499.756825 79.481659 
L 509.283125 79.481659 
L 518.809425 79.481659 
L 528.335725 79.481659 
L 537.862025 79.481659 
L 547.388325 79.481659 
L 556.914625 79.481659 
L 566.440925 130.066568 
L 575.967225 180.651476 
L 585.493525 180.651476 
L 595.019825 180.651476 
L 604.546125 180.651476 
L 614.072425 180.651476 
L 623.598725 180.651476 
L 633.125025 180.651476 
L 642.651325 180.651476 
L 652.177625 180.651476 
L 661.703925 180.651476 
L 671.230225 180.651476 
L 680.756525 180.651476 
L 690.282825 241.457788 
L 699.809125 302.264101 
L 709.335425 302.264101 
L 718.861725 302.264101 
L 728.388025 302.264101 
L 737.914325 302.264101 
L 747.440625 302.264101 
L 756.966925 302.264101 
L 766.493225 302.264101 
L 776.019525 302.264101 
L 785.545825 302.264101 
L 795.072125 302.264101 
L 804.598425 302.33988 
L 814.124725 302.41566 
L 823.651025 302.41566 
L 833.177325 302.41566 
L 842.703625 302.41566 
L 852.229925 302.41566 
L 861.756225 302.41566 
L 871.282525 302.41566 
L 880.808825 302.41566 
L 890.335125 302.41566 
L 899.861425 302.41566 
L 909.387725 302.41566 
L 918.914025 302.41566 
L 928.440325 302.41566 
L 937.966625 302.41566 
L 947.492925 302.41566 
L 957.019225 302.41566 
L 966.545525 302.41566 
L 976.071825 302.41566 
L 985.598125 302.41566 
" style="fill:none;stroke:#f0ad4e;stroke-linecap:square;"/>
   </g>
   <g id="line2d_7">
    <path clip-path="url(#pe82bc1382e)" d="M 32.968125 302.41566 
L 42.494425 302.41566 
L 52.020725 302.41566 
L 61.547025 302.41566 
L 71.073325 302.41566 
L 80.599625 302.41566 
L 90.125925 302.41566 
L 99.652225 302.41566 
L 109.178525 302.41566 
L 118.704825 302.41566 
L 128.231125 302.41566 
L 137.757425 302.41566 
L 147.283725 302.41566 
L 156.810025 302.41566 
L 166.336325 302.41566 
L 175.862625 302.41566 
L 185.388925 302.41566 
L 194.915225 302.41566 
L 204.441525 302.41566 
L 213.967825 300.657283 
L 223.494125 298.898906 
L 233.020425 298.898906 
L 242.546725 298.898906 
L 252.073025 298.898906 
L 261.599325 298.898906 
L 271.125625 298.898906 
L 280.651925 298.898906 
L 290.178225 298.898906 
L 299.704525 298.898906 
L 309.230825 298.898906 
L 318.757125 298.898906 
L 328.283425 192.289327 
L 337.809725 85.679748 
L 347.336025 85.679748 
L 356.862325 85.679748 
L 366.388625 85.679748 
L 375.914925 85.679748 
L 385.441225 85.679748 
L 394.967525 85.679748 
L 404.493825 85.679748 
L 414.020125 85.679748 
L 423.546425 85.679748 
L 433.072725 85.679748 
L 442.599025 85.679748 
L 452.125325 191.994444 
L 461.651625 298.309139 
L 471.177925 298.309139 
L 480.704225 298.309139 
L 490.230525 298.309139 
L 499.756825 298.309139 
L 509.283125 298.309139 
L 518.809425 298.309139 
L 528.335725 298.309139 
L 537.862025 298.309139 
L 547.388325 298.309139 
L 556.914625 298.309139 
L 566.440925 194.788718 
L 575.967225 91.268296 
L 585.493525 91.268296 
L 595.019825 91.268296 
L 604.546125 91.268296 
L 614.072425 91.268296 
L 623.598725 91.268296 
L 633.125025 91.268296 
L 642.651325 91.268296 
L 652.177625 91.268296 
L 661.703925 91.268296 
L 671.230225 91.268296 
L 680.756525 91.268296 
L 690.282825 196.584779 
L 699.809125 301.901263 
L 709.335425 301.901263 
L 718.861725 301.901263 
L 728.388025 301.901263 
L 737.914325 301.901263 
L 747.440625 301.901263 
L 756.966925 301.901263 
L 766.493225 301.901263 
L 776.019525 301.901263 
L 785.545825 301.901263 
L 795.072125 301.901263 
L 804.598425 302.158461 
L 814.124725 302.41566 
L 823.651025 302.41566 
L 833.177325 302.41566 
L 842.703625 302.41566 
L 852.229925 302.41566 
L 861.756225 302.41566 
L 871.282525 302.41566 
L 880.808825 302.41566 
L 890.335125 302.41566 
L 899.861425 302.41566 
L 909.387725 302.41566 
L 918.914025 302.41566 
L 928.440325 302.41566 
L 937.966625 302.41566 
L 947.492925 302.41566 
L 957.019225 302.41566 
L 966.545525 302.41566 
L 976.071825 302.41566 
L 985.598125 302.41566 
" style="fill:none;stroke:#d9534f;stroke-linecap:square;"/>
   </g>
   <g id="line2d_8">
    <path clip-path="url(#pe82bc1382e)" d="M 32.968125 302.41566 
L 42.494425 302.41566 
L 52.020725 302.41566 
L 61.547025 302.41566 
L 71.073325 302.41566 
L 80.599625 302.41566 
L 90.125925 301.976052 
L 99.652225 301.536445 
L 109.178525 301.536445 
L 118.704825 301.536445 
L 128.231125 301.536445 
L 137.757425 301.536445 
L 147.283725 301.536445 
L 156.810025 301.536445 
L 166.336325 301.536445 
L 175.862625 301.536445 
L 185.388925 301.536445 
L 194.915225 301.536445 
L 204.441525 301.536445 
L 213.967825 238.969201 
L 223.494125 176.401957 
L 233.020425 176.401957 
L 242.546725 176.401957 
L 252.073025 176.401957 
L 261.599325 176.401957 
L 271.125625 176.401957 
L 280.651925 176.401957 
L 290.178225 176.401957 
L 299.704525 176.401957 
L 309.230825 176.401957 
L 318.757125 176.401957 
L 328.283425 238.652764 
L 337.809725 300.903571 
L 347.336025 300.903571 
L 356.862325 300.903571 
L 366.388625 300.903571 
L 375.914925 300.903571 
L 385.441225 300.903571 
L 394.967525 300.903571 
L 404.493825 300.903571 
L 414.020125 300.903571 
L 423.546425 300.903571 
L 433.072725 300.903571 
L 442.599025 300.903571 
L 452.125325 246.381338 
L 461.651625 191.859104 
L 471.177925 191.859104 
L 480.704225 191.859104 
L 490.230525 191.859104 
L 499.756825 191.859104 
L 509.283125 191.859104 
L 518.809425 191.859104 
L 528.335725 191.859104 
L 537.862025 191.859104 
L 547.388325 191.859104 
L 556.914625 191.859104 
L 566.440925 139.941351 
L 575.967225 88.023598 
L 585.493525 88.023598 
L 595.019825 88.023598 
L 604.546125 88.023598 
L 614.072425 88.023598 
L 623.598725 88.023598 
L 633.125025 88.023598 
L 642.651325 88.023598 
L 652.177625 88.023598 
L 661.703925 88.023598 
L 671.230225 88.023598 
L 680.756525 88.023598 
L 690.282825 195.090138 
L 699.809125 302.156679 
L 709.335425 302.156679 
L 718.861725 302.156679 
L 728.388025 302.156679 
L 737.914325 302.156679 
L 747.440625 302.156679 
L 756.966925 302.156679 
L 766.493225 302.156679 
L 776.019525 302.156679 
L 785.545825 302.156679 
L 795.072125 302.156679 
L 804.598425 302.286169 
L 814.124725 302.41566 
L 823.651025 302.41566 
L 833.177325 302.41566 
L 842.703625 302.41566 
L 852.229925 302.41566 
L 861.756225 302.41566 
L 871.282525 302.41566 
L 880.808825 302.41566 
L 890.335125 302.41566 
L 899.861425 302.41566 
L 909.387725 302.41566 
L 918.914025 302.41566 
L 928.440325 302.41566 
L 937.966625 302.41566 
L 947.492925 302.41566 
L 957.019225 302.41566 
L 966.545525 302.41566 
L 976.071825 302.41566 
L 985.598125 302.41566 
" style="fill:none;stroke:#d9534f;stroke-linecap:square;"/>
   </g>
   <g id="line2d_9">
    <path clip-path="url(#pe82bc1382e)" d="M 32.968125 302.41566 
L 42.494425 302.41566 
L 52.020725 302.41566 
L 61.547025 302.41566 
L 71.073325 302.41566 
L 80.599625 302.41566 
L 90.125925 302.41566 
L 99.652225 302.41566 
L 109.178525 302.41566 
L 118.704825 302.41566 
L 128.231125 302.41566 
L 137.757425 302.41566 
L 147.283725 302.41566 
L 156.810025 302.41566 
L 166.336325 302.41566 
L 175.862625 302.41566 
L 185.388925 302.41566 
L 194.915225 302.41566 
L 204.441525 302.41566 
L 213.967825 300.818235 
L 223.494125 299.22081 
L 233.020425 299.22081 
L 242.546725 299.22081 
L 252.073025 299.22081 
L 261.599325 299.22081 
L 271.125625 299.22081 
L 280.651925 299.22081 
L 290.178225 299.22081 
L 299.704525 299.22081 
L 309.230825 299.22081 
L 318.757125 299.22081 
L 328.283425 196.594763 
L 337.809725 93.968716 
L 347.336025 93.968716 
L 356.862325 93.968716 
L 366.388625 93.968716 
L 375.914925 93.968716 
L 385.441225 93.968716 
L 394.967525 93.968716 
L 404.493825 93.968716 
L 414.020125 93.968716 
L 423.546425 93.968716 
L 433.072725 93.968716 
L 442.599025 93.968716 
L 452.125325 195.234042 
L 461.651625 296.499368 
L 471.177925 296.499368 
L 480.704225 296.499368 
L 490.230525 296.499368 
L 499.756825 296.499368 
L 509.283125 296.499368 
L 518.809425 296.499368 
L 528.335725 296.499368 
L 537.862025 296.499368 
L 547.388325 296.499368 
L 556.914625 296.499368 
L 566.440925 190.35183 
L 575.967225 84.204292 
L 585.493525 84.204292 
L 595.019825 84.204292 
L 604.546125 84.204292 
L 614.072425 84.204292 
L 623.598725 84.204292 
L 633.125025 84.204292 
L 642.651325 84.204292 
L 652.177625 84.204292 
L 661.703925 84.204292 
L 671.230225 84.204292 
L 680.756525 84.204292 
L 690.282825 193.133189 
L 699.809125 302.062086 
L 709.335425 302.062086 
L 718.861725 302.062086 
L 728.388025 302.062086 
L 737.914325 302.062086 
L 747.440625 302.062086 
L 756.966925 302.062086 
L 766.493225 302.062086 
L 776.019525 302.062086 
L 785.545825 302.062086 
L 795.072125 302.062086 
L 804.598425 302.238873 
L 814.124725 302.41566 
L 823.651025 302.41566 
L 833.177325 302.41566 
L 842.703625 302.41566 
L 852.229925 302.41566 
L 861.756225 302.41566 
L 871.282525 302.41566 
L 880.808825 302.41566 
L 890.335125 302.41566 
L 899.861425 302.41566 
L 909.387725 302.41566 
L 918.914025 302.41566 
L 928.440325 302.41566 
L 937.966625 302.41566 
L 947.492925 302.41566 
L 957.019225 302.41566 
L 966.545525 302.41566 
L 976.071825 302.41566 
L 985.598125 302.41566 
" style="fill:none;stroke:#d9534f;stroke-linecap:square;"/>
   </g>
   <g id="line2d_10">
    <path clip-path="url(#pe82bc1382e)" d="M 32.968125 302.41566 
L 42.494425 302.41566 
L 52.020725 302.41566 
L 61.547025 302.41566 
L 71.073325 302.41566 
L 80.599625 302.41566 
L 90.125925 301.791342 
L 99.652225 301.167024 
L 109.178525 301.167024 
L 118.704825 301.167024 
L 128.231125 301.167024 
L 137.757425 301.167024 
L 147.283725 301.167024 
L 156.810025 301.167024 
L 166.336325 301.167024 
L 175.862625 301.167024 
L 185.388925 301.167024 
L 194.915225 301.167024 
L 204.441525 301.167024 
L 213.967825 244.077097 
L 223.494125 186.987171 
L 233.020425 186.987171 
L 242.546725 186.987171 
L 252.073025 186.987171 
L 261.599325 186.987171 
L 271.125625 186.987171 
L 280.651925 186.987171 
L 290.178225 186.987171 
L 299.704525 186.987171 
L 309.230825 186.987171 
L 318.757125 186.987171 
L 328.283425 191.142015 
L 337.809725 195.296859 
L 347.336025 195.296859 
L 356.862325 195.296859 
L 366.388625 195.296859 
L 375.914925 195.296859 
L 385.441225 195.296859 
L 394.967525 195.296859 
L 404.493825 195.296859 
L 414.020125 195.296859 
L 423.546425 195.296859 
L 433.072725 195.296859 
L 442.599025 195.296859 
L 452.125325 247.556628 
L 461.651625 299.816398 
L 471.177925 299.816398 
L 480.704225 299.816398 
L 490.230525 299.816398 
L 499.756825 299.816398 
L 509.283125 299.816398 
L 518.809425 299.816398 
L 528.335725 299.816398 
L 537.862025 299.816398 
L 547.388325 299.816398 
L 556.914625 299.816398 
L 566.440925 246.761291 
L 575.967225 193.706183 
L 585.493525 193.706183 
L 595.019825 193.706183 
L 604.546125 193.706183 
L 614.072425 193.706183 
L 623.598725 193.706183 
L 633.125025 193.706183 
L 642.651325 193.706183 
L 652.177625 193.706183 
L 661.703925 193.706183 
L 671.230225 193.706183 
L 680.756525 193.706183 
L 690.282825 188.883068 
L 699.809125 184.059952 
L 709.335425 184.059952 
L 718.861725 184.059952 
L 728.388025 184.059952 
L 737.914325 184.059952 
L 747.440625 184.059952 
L 756.966925 184.059952 
L 766.493225 184.059952 
L 776.019525 184.059952 
L 785.545825 184.059952 
L 795.072125 184.059952 
L 804.598425 243.178835 
L 814.124725 302.297717 
L 823.651025 302.297717 
L 833.177325 302.297717 
L 842.703625 302.297717 
L 852.229925 302.297717 
L 861.756225 302.297717 
L 871.282525 302.297717 
L 880.808825 302.297717 
L 890.335125 302.297717 
L 899.861425 302.297717 
L 909.387725 302.297717 
L 918.914025 302.297717 
L 928.440325 302.356689 
L 937.966625 302.41566 
L 947.492925 302.41566 
L 957.019225 302.41566 
L 966.545525 302.41566 
L 976.071825 302.41566 
L 985.598125 302.41566 
" style="fill:none;stroke:#d9534f;stroke-linecap:square;"/>
   </g>
   <g id="line2d_11">
    <path clip-path="url(#pe82bc1382e)" d="M 32.968125 302.41566 
L 42.494425 302.41566 
L 52.020725 302.41566 
L 61.547025 302.41566 
L 71.073325 302.41566 
L 80.599625 302.41566 
L 90.125925 301.615097 
L 99.652225 300.814533 
L 109.178525 300.814533 
L 118.704825 300.814533 
L 128.231125 300.814533 
L 137.757425 300.814533 
L 147.283725 300.814533 
L 156.810025 300.814533 
L 166.336325 300.814533 
L 175.862625 300.814533 
L 185.388925 300.814533 
L 194.915225 300.814533 
L 204.441525 300.814533 
L 213.967825 254.465261 
L 223.494125 208.115989 
L 233.020425 208.115989 
L 242.546725 208.115989 
L 252.073025 208.115989 
L 261.599325 208.115989 
L 271.125625 208.115989 
L 280.651925 208.115989 
L 290.178225 208.115989 
L 299.704525 208.115989 
L 309.230825 208.115989 
L 318.757125 208.115989 
L 328.283425 254.314874 
L 337.809725 300.513759 
L 347.336025 300.513759 
L 356.862325 300.513759 
L 366.388625 300.513759 
L 375.914925 300.513759 
L 385.441225 300.513759 
L 394.967525 300.513759 
L 404.493825 300.513759 
L 414.020125 300.513759 
L 423.546425 300.513759 
L 433.072725 300.513759 
L 442.599025 300.513759 
L 452.125325 253.993536 
L 461.651625 207.473312 
L 471.177925 207.473312 
L 480.704225 207.473312 
L 490.230525 207.473312 
L 499.756825 207.473312 
L 509.283125 207.473312 
L 518.809425 207.473312 
L 528.335725 207.473312 
L 537.862025 207.473312 
L 547.388325 207.473312 
L 556.914625 207.473312 
L 566.440925 126.573439 
L 575.967225 45.673565 
L 585.493525 45.673565 
L 595.019825 45.673565 
L 604.546125 45.673565 
L 614.072425 45.673565 
L 623.598725 45.673565 
L 633.125025 45.673565 
L 642.651325 45.673565 
L 652.177625 45.673565 
L 661.703925 45.673565 
L 671.230225 45.673565 
L 680.756525 45.673565 
L 690.282825 173.792786 
L 699.809125 301.912008 
L 709.335425 301.912008 
L 718.861725 301.912008 
L 728.388025 301.912008 
L 737.914325 301.912008 
L 747.440625 301.912008 
L 756.966925 301.912008 
L 766.493225 301.912008 
L 776.019525 301.912008 
L 785.545825 301.912008 
L 795.072125 301.912008 
L 804.598425 302.163834 
L 814.124725 302.41566 
L 823.651025 302.41566 
L 833.177325 302.41566 
L 842.703625 302.41566 
L 852.229925 302.41566 
L 861.756225 302.41566 
L 871.282525 302.41566 
L 880.808825 302.41566 
L 890.335125 302.41566 
L 899.861425 302.41566 
L 909.387725 302.41566 
L 918.914025 302.41566 
L 928.440325 302.41566 
L 937.966625 302.41566 
L 947.492925 302.41566 
L 957.019225 302.41566 
L 966.545525 302.41566 
L 976.071825 302.41566 
L 985.598125 302.41566 
" style="fill:none;stroke:#d9534f;stroke-linecap:square;"/>
   </g>
   <g id="line2d_12">
    <path clip-path="url(#pe82bc1382e)" d="M 32.968125 302.41566 
L 42.494425 302.41566 
L 52.020725 302.41566 
L 61.547025 302.41566 
L 71.073325 302.41566 
L 80.599625 302.41566 
L 90.125925 302.41566 
L 99.652225 302.41566 
L 109.178525 302.41566 
L 118.704825 302.41566 
L 128.231125 302.41566 
L 137.757425 302.41566 
L 147.283725 302.41566 
L 156.810025 302.41566 
L 166.336325 302.41566 
L 175.862625 302.41566 
L 185.388925 302.41566 
L 194.915225 302.41566 
L 204.441525 302.41566 
L 213.967825 301.234228 
L 223.494125 300.052796 
L 233.020425 300.052796 
L 242.546725 300.052796 
L 252.073025 300.052796 
L 261.599325 300.052796 
L 271.125625 300.052796 
L 280.651925 300.052796 
L 290.178225 300.052796 
L 299.704525 300.052796 
L 309.230825 300.052796 
L 318.757125 300.052796 
L 328.283425 208.628487 
L 337.809725 117.204178 
L 347.336025 117.204178 
L 356.862325 117.204178 
L 366.388625 117.204178 
L 375.914925 117.204178 
L 385.441225 117.204178 
L 394.967525 117.204178 
L 404.493825 117.204178 
L 414.020125 117.204178 
L 423.546425 117.204178 
L 433.072725 117.204178 
L 442.599025 117.204178 
L 452.125325 154.34632 
L 461.651625 191.488462 
L 471.177925 191.488462 
L 480.704225 191.488462 
L 490.230525 191.488462 
L 499.756825 191.488462 
L 509.283125 191.488462 
L 518.809425 191.488462 
L 528.335725 191.488462 
L 537.862025 191.488462 
L 547.388325 191.488462 
L 556.914625 191.488462 
L 566.440925 245.453608 
L 575.967225 299.418754 
L 585.493525 299.418754 
L 595.019825 299.418754 
L 604.546125 299.418754 
L 614.072425 299.418754 
L 623.598725 299.418754 
L 633.125025 299.418754 
L 642.651325 299.418754 
L 652.177625 299.418754 
L 661.703925 299.418754 
L 671.230225 299.418754 
L 680.756525 299.418754 
L 690.282825 223.762613 
L 699.809125 148.106473 
L 709.335425 148.106473 
L 718.861725 148.106473 
L 728.388025 148.106473 
L 737.914325 148.106473 
L 747.440625 148.106473 
L 756.966925 148.106473 
L 766.493225 148.106473 
L 776.019525 148.106473 
L 785.545825 148.106473 
L 795.072125 148.106473 
L 804.598425 225.17512 
L 814.124725 302.243768 
L 823.651025 302.243768 
L 833.177325 302.243768 
L 842.703625 302.243768 
L 852.229925 302.243768 
L 861.756225 302.243768 
L 871.282525 302.243768 
L 880.808825 302.243768 
L 890.335125 302.243768 
L 899.861425 302.243768 
L 909.387725 302.243768 
L 918.914025 302.243768 
L 928.440325 302.329714 
L 937.966625 302.41566 
L 947.492925 302.41566 
L 957.019225 302.41566 
L 966.545525 302.41566 
L 976.071825 302.41566 
L 985.598125 302.41566 
" style="fill:none;stroke:#d9534f;stroke-linecap:square;"/>
   </g>
   <g id="line2d_13">
    <path clip-path="url(#pe82bc1382e)" d="M 32.968125 302.41566 
L 42.494425 302.41566 
L 52.020725 302.41566 
L 61.547025 302.41566 
L 71.073325 302.41566 
L 80.599625 302.41566 
L 90.125925 301.968822 
L 99.652225 301.521985 
L 109.178525 301.521985 
L 118.704825 301.521985 
L 128.231125 301.521985 
L 137.757425 301.521985 
L 147.283725 301.521985 
L 156.810025 301.521985 
L 166.336325 301.521985 
L 175.862625 301.521985 
L 185.388925 301.521985 
L 194.915225 301.521985 
L 204.441525 301.521985 
L 213.967825 264.703473 
L 223.494125 227.884962 
L 233.020425 227.884962 
L 242.546725 227.884962 
L 252.073025 227.884962 
L 261.599325 227.884962 
L 271.125625 227.884962 
L 280.651925 227.884962 
L 290.178225 227.884962 
L 299.704525 227.884962 
L 309.230825 227.884962 
L 318.757125 227.884962 
L 328.283425 212.389918 
L 337.809725 196.894875 
L 347.336025 196.894875 
L 356.862325 196.894875 
L 366.388625 196.894875 
L 375.914925 196.894875 
L 385.441225 196.894875 
L 394.967525 196.894875 
L 404.493825 196.894875 
L 414.020125 196.894875 
L 423.546425 196.894875 
L 433.072725 196.894875 
L 442.599025 196.894875 
L 452.125325 248.365843 
L 461.651625 299.836811 
L 471.177925 299.836811 
L 480.704225 299.836811 
L 490.230525 299.836811 
L 499.756825 299.836811 
L 509.283125 299.836811 
L 518.809425 299.836811 
L 528.335725 299.836811 
L 537.862025 299.836811 
L 547.388325 299.836811 
L 556.914625 299.836811 
L 566.440925 244.052543 
L 575.967225 188.268275 
L 585.493525 188.268275 
L 595.019825 188.268275 
L 604.546125 188.268275 
L 614.072425 188.268275 
L 623.598725 188.268275 
L 633.125025 188.268275 
L 642.651325 188.268275 
L 652.177625 188.268275 
L 661.703925 188.268275 
L 671.230225 188.268275 
L 680.756525 188.268275 
L 690.282825 167.548952 
L 699.809125 146.82963 
L 709.335425 146.82963 
L 718.861725 146.82963 
L 728.388025 146.82963 
L 737.914325 146.82963 
L 747.440625 146.82963 
L 756.966925 146.82963 
L 766.493225 146.82963 
L 776.019525 146.82963 
L 785.545825 146.82963 
L 795.072125 146.82963 
L 804.598425 224.60404 
L 814.124725 302.37845 
L 823.651025 302.37845 
L 833.177325 302.37845 
L 842.703625 302.37845 
L 852.229925 302.37845 
L 861.756225 302.37845 
L 871.282525 302.37845 
L 880.808825 302.37845 
L 890.335125 302.37845 
L 899.861425 302.37845 
L 909.387725 302.37845 
L 918.914025 302.37845 
L 928.440325 302.397055 
L 937.966625 302.41566 
L 947.492925 302.41566 
L 957.019225 302.41566 
L 966.545525 302.41566 
L 976.071825 302.41566 
L 985.598125 302.41566 
" style="fill:none;stroke:#d9534f;stroke-linecap:square;"/>
   </g>
   <g id="line2d_14">
    <path clip-path="url(#pe82bc1382e)" d="M 32.968125 302.41566 
L 42.494425 302.41566 
L 52.020725 302.41566 
L 61.547025 302.41566 
L 71.073325 302.41566 
L 80.599625 302.41566 
L 90.125925 301.095055 
L 99.652225 299.774449 
L 109.178525 299.774449 
L 118.704825 299.774449 
L 128.231125 299.774449 
L 137.757425 299.774449 
L 147.283725 299.774449 
L 156.810025 299.774449 
L 166.336325 299.774449 
L 175.862625 299.774449 
L 185.388925 299.774449 
L 194.915225 299.774449 
L 204.441525 299.774449 
L 213.967825 256.125959 
L 223.494125 212.477468 
L 233.020425 212.477468 
L 242.546725 212.477468 
L 252.073025 212.477468 
L 261.599325 212.477468 
L 271.125625 212.477468 
L 280.651925 212.477468 
L 290.178225 212.477468 
L 299.704525 212.477468 
L 309.230825 212.477468 
L 318.757125 212.477468 
L 328.283425 212.035708 
L 337.809725 211.593949 
L 347.336025 211.593949 
L 356.862325 211.593949 
L 366.388625 211.593949 
L 375.914925 211.593949 
L 385.441225 211.593949 
L 394.967525 211.593949 
L 404.493825 211.593949 
L 414.020125 211.593949 
L 423.546425 211.593949 
L 433.072725 211.593949 
L 442.599025 211.593949 
L 452.125325 252.703699 
L 461.651625 293.813448 
L 471.177925 293.813448 
L 480.704225 293.813448 
L 490.230525 293.813448 
L 499.756825 293.813448 
L 509.283125 293.813448 
L 518.809425 293.813448 
L 528.335725 293.813448 
L 537.862025 293.813448 
L 547.388325 293.813448 
L 556.914625 293.813448 
L 566.440925 221.057359 
L 575.967225 148.30127 
L 585.493525 148.30127 
L 595.019825 148.30127 
L 604.546125 148.30127 
L 614.072425 148.30127 
L 623.598725 148.30127 
L 633.125025 148.30127 
L 642.651325 148.30127 
L 652.177625 148.30127 
L 661.703925 148.30127 
L 671.230225 148.30127 
L 680.756525 148.30127 
L 690.282825 173.438911 
L 699.809125 198.576551 
L 709.335425 198.576551 
L 718.861725 198.576551 
L 728.388025 198.576551 
L 737.914325 198.576551 
L 747.440625 198.576551 
L 756.966925 198.576551 
L 766.493225 198.576551 
L 776.019525 198.576551 
L 785.545825 198.576551 
L 795.072125 198.576551 
L 804.598425 249.993204 
L 814.124725 301.409857 
L 823.651025 301.409857 
L 833.177325 301.409857 
L 842.703625 301.409857 
L 852.229925 301.409857 
L 861.756225 301.409857 
L 871.282525 301.409857 
L 880.808825 301.409857 
L 890.335125 301.409857 
L 899.861425 301.409857 
L 909.387725 301.409857 
L 918.914025 301.409857 
L 928.440325 301.912758 
L 937.966625 302.41566 
L 947.492925 302.41566 
L 957.019225 302.41566 
L 966.545525 302.41566 
L 976.071825 302.41566 
L 985.598125 302.41566 
" style="fill:none;stroke:#d9534f;stroke-linecap:square;"/>
   </g>
   <g id="line2d_15">
    <path clip-path="url(#pe82bc1382e)" d="M 32.968125 302.41566 
L 42.494425 302.41566 
L 52.020725 302.41566 
L 61.547025 302.41566 
L 71.073325 302.41566 
L 80.599625 302.41566 
L 90.125925 302.41566 
L 99.652225 302.41566 
L 109.178525 302.41566 
L 118.704825 302.41566 
L 128.231125 302.41566 
L 137.757425 302.41566 
L 147.283725 302.41566 
L 156.810025 302.41566 
L 166.336325 302.41566 
L 175.862625 302.41566 
L 185.388925 302.41566 
L 194.915225 302.41566 
L 204.441525 302.41566 
L 213.967825 301.500553 
L 223.494125 300.585447 
L 233.020425 300.585447 
L 242.546725 300.585447 
L 252.073025 300.585447 
L 261.599325 300.585447 
L 271.125625 300.585447 
L 280.651925 300.585447 
L 290.178225 300.585447 
L 299.704525 300.585447 
L 309.230825 300.585447 
L 318.757125 300.585447 
L 328.283425 245.664868 
L 337.809725 190.744289 
L 347.336025 190.744289 
L 356.862325 190.744289 
L 366.388625 190.744289 
L 375.914925 190.744289 
L 385.441225 190.744289 
L 394.967525 190.744289 
L 404.493825 190.744289 
L 414.020125 190.744289 
L 423.546425 190.744289 
L 433.072725 190.744289 
L 442.599025 190.744289 
L 452.125325 139.454824 
L 461.651625 88.165359 
L 471.177925 88.165359 
L 480.704225 88.165359 
L 490.230525 88.165359 
L 499.756825 88.165359 
L 509.283125 88.165359 
L 518.809425 88.165359 
L 528.335725 88.165359 
L 537.862025 88.165359 
L 547.388325 88.165359 
L 556.914625 88.165359 
L 566.440925 133.370611 
L 575.967225 178.575864 
L 585.493525 178.575864 
L 595.019825 178.575864 
L 604.546125 178.575864 
L 614.072425 178.575864 
L 623.598725 178.575864 
L 633.125025 178.575864 
L 642.651325 178.575864 
L 652.177625 178.575864 
L 661.703925 178.575864 
L 671.230225 178.575864 
L 680.756525 178.575864 
L 690.282825 240.265624 
L 699.809125 301.955385 
L 709.335425 301.955385 
L 718.861725 301.955385 
L 728.388025 301.955385 
L 737.914325 301.955385 
L 747.440625 301.955385 
L 756.966925 301.955385 
L 766.493225 301.955385 
L 776.019525 301.955385 
L 785.545825 301.955385 
L 795.072125 301.955385 
L 804.598425 302.185523 
L 814.124725 302.41566 
L 823.651025 302.41566 
L 833.177325 302.41566 
L 842.703625 302.41566 
L 852.229925 302.41566 
L 861.756225 302.41566 
L 871.282525 302.41566 
L 880.808825 302.41566 
L 890.335125 302.41566 
L 899.861425 302.41566 
L 909.387725 302.41566 
L 918.914025 302.41566 
L 928.440325 302.41566 
L 937.966625 302.41566 
L 947.492925 302.41566 
L 957.019225 302.41566 
L 966.545525 302.41566 
L 976.071825 302.41566 
L 985.598125 302.41566 
" style="fill:none;stroke:#f0ad4e;stroke-linecap:square;"/>
   </g>
   <g id="line2d_16">
    <path clip-path="url(#pe82bc1382e)" d="M 32.968125 302.41566 
L 42.494425 302.41566 
L 52.020725 302.41566 
L 61.547025 302.41566 
L 71.073325 302.41566 
L 80.599625 302.41566 
L 90.125925 301.552992 
L 99.652225 300.690325 
L 109.178525 300.690325 
L 118.704825 300.690325 
L 128.231125 300.690325 
L 137.757425 300.690325 
L 147.283725 300.690325 
L 156.810025 300.690325 
L 166.336325 300.690325 
L 175.862625 300.690325 
L 185.388925 300.690325 
L 194.915225 300.690325 
L 204.441525 300.690325 
L 213.967825 245.355205 
L 223.494125 190.020085 
L 233.020425 190.020085 
L 242.546725 190.020085 
L 252.073025 190.020085 
L 261.599325 190.020085 
L 271.125625 190.020085 
L 280.651925 190.020085 
L 290.178225 190.020085 
L 299.704525 190.020085 
L 309.230825 190.020085 
L 318.757125 190.020085 
L 328.283425 208.813124 
L 337.809725 227.606163 
L 347.336025 227.606163 
L 356.862325 227.606163 
L 366.388625 227.606163 
L 375.914925 227.606163 
L 385.441225 227.606163 
L 394.967525 227.606163 
L 404.493825 227.606163 
L 414.020125 227.606163 
L 423.546425 227.606163 
L 433.072725 227.606163 
L 442.599025 227.606163 
L 452.125325 263.870992 
L 461.651625 300.135821 
L 471.177925 300.135821 
L 480.704225 300.135821 
L 490.230525 300.135821 
L 499.756825 300.135821 
L 509.283125 300.135821 
L 518.809425 300.135821 
L 528.335725 300.135821 
L 537.862025 300.135821 
L 547.388325 300.135821 
L 556.914625 300.135821 
L 566.440925 249.254891 
L 575.967225 198.37396 
L 585.493525 198.37396 
L 595.019825 198.37396 
L 604.546125 198.37396 
L 614.072425 198.37396 
L 623.598725 198.37396 
L 633.125025 198.37396 
L 642.651325 198.37396 
L 652.177625 198.37396 
L 661.703925 198.37396 
L 671.230225 198.37396 
L 680.756525 198.37396 
L 690.282825 169.775871 
L 699.809125 141.177781 
L 709.335425 141.177781 
L 718.861725 141.177781 
L 728.388025 141.177781 
L 737.914325 141.177781 
L 747.440625 141.177781 
L 756.966925 141.177781 
L 766.493225 141.177781 
L 776.019525 141.177781 
L 785.545825 141.177781 
L 795.072125 141.177781 
L 804.598425 221.732097 
L 814.124725 302.286412 
L 823.651025 302.286412 
L 833.177325 302.286412 
L 842.703625 302.286412 
L 852.229925 302.286412 
L 861.756225 302.286412 
L 871.282525 302.286412 
L 880.808825 302.286412 
L 890.335125 302.286412 
L 899.861425 302.286412 
L 909.387725 302.286412 
L 918.914025 302.286412 
L 928.440325 302.351036 
L 937.966625 302.41566 
L 947.492925 302.41566 
L 957.019225 302.41566 
L 966.545525 302.41566 
L 976.071825 302.41566 
L 985.598125 302.41566 
" style="fill:none;stroke:#d9534f;stroke-linecap:square;"/>
   </g>
   <g id="line2d_17">
    <path clip-path="url(#pe82bc1382e)" d="M 32.968125 302.41566 
L 985.598125 302.41566 
" style="fill:none;stroke:#dedede;stroke-linecap:square;stroke-width:2;"/>
   </g>
   <g id="text_14">
    <!-- FastQC: Per Sequence GC Content -->
    <defs>
     <path d="M 9.8125 72.90625 
L 51.703125 72.90625 
L 51.703125 64.59375 
L 19.671875 64.59375 
L 19.671875 43.109375 
L 48.578125 43.109375 
L 48.578125 34.8125 
L 19.671875 34.8125 
L 19.671875 0 
L 9.8125 0 
z
" id="DejaVuSans-46"/>
     <path d="M 44.28125 53.078125 
L 44.28125 44.578125 
Q 40.484375 46.53125 36.375 47.5 
Q 32.28125 48.484375 27.875 48.484375 
Q 21.1875 48.484375 17.84375 46.4375 
Q 14.5 44.390625 14.5 40.28125 
Q 14.5 37.15625 16.890625 35.375 
Q 19.28125 33.59375 26.515625 31.984375 
L 29.59375 31.296875 
Q 39.15625 29.25 43.1875 25.515625 
Q 47.21875 21.78125 47.21875 15.09375 
Q 47.21875 7.46875 41.1875 3.015625 
Q 35.15625 -1.421875 24.609375 -1.421875 
Q 20.21875 -1.421875 15.453125 -0.5625 
Q 10.6875 0.296875 5.421875 2 
L 5.421875 11.28125 
Q 10.40625 8.6875 15.234375 7.390625 
Q 20.0625 6.109375 24.8125 6.109375 
Q 31.15625 6.109375 34.5625 8.28125 
Q 37.984375 10.453125 37.984375 14.40625 
Q 37.984375 18.0625 35.515625 20.015625 
Q 33.0625 21.96875 24.703125 23.78125 
L 21.578125 24.515625 
Q 13.234375 26.265625 9.515625 29.90625 
Q 5.8125 33.546875 5.8125 39.890625 
Q 5.8125 47.609375 11.28125 51.796875 
Q 16.75 56 26.8125 56 
Q 31.78125 56 36.171875 55.265625 
Q 40.578125 54.546875 44.28125 53.078125 
z
" id="DejaVuSans-73"/>
     <path d="M 39.40625 66.21875 
Q 28.65625 66.21875 22.328125 58.203125 
Q 16.015625 50.203125 16.015625 36.375 
Q 16.015625 22.609375 22.328125 14.59375 
Q 28.65625 6.59375 39.40625 6.59375 
Q 50.140625 6.59375 56.421875 14.59375 
Q 62.703125 22.609375 62.703125 36.375 
Q 62.703125 50.203125 56.421875 58.203125 
Q 50.140625 66.21875 39.40625 66.21875 
z
M 53.21875 1.3125 
L 66.21875 -12.890625 
L 54.296875 -12.890625 
L 43.5 -1.21875 
Q 41.890625 -1.3125 41.03125 -1.359375 
Q 40.1875 -1.421875 39.40625 -1.421875 
Q 24.03125 -1.421875 14.8125 8.859375 
Q 5.609375 19.140625 5.609375 36.375 
Q 5.609375 53.65625 14.8125 63.9375 
Q 24.03125 74.21875 39.40625 74.21875 
Q 54.734375 74.21875 63.90625 63.9375 
Q 73.09375 53.65625 73.09375 36.375 
Q 73.09375 23.6875 67.984375 14.640625 
Q 62.890625 5.609375 53.21875 1.3125 
z
" id="DejaVuSans-51"/>
     <path d="M 11.71875 12.40625 
L 22.015625 12.40625 
L 22.015625 0 
L 11.71875 0 
z
M 11.71875 51.703125 
L 22.015625 51.703125 
L 22.015625 39.3125 
L 11.71875 39.3125 
z
" id="DejaVuSans-3a"/>
     <path d="M 53.515625 70.515625 
L 53.515625 60.890625 
Q 47.90625 63.578125 42.921875 64.890625 
Q 37.9375 66.21875 33.296875 66.21875 
Q 25.25 66.21875 20.875 63.09375 
Q 16.5 59.96875 16.5 54.203125 
Q 16.5 49.359375 19.40625 46.890625 
Q 22.3125 44.4375 30.421875 42.921875 
L 36.375 41.703125 
Q 47.40625 39.59375 52.65625 34.296875 
Q 57.90625 29 57.90625 20.125 
Q 57.90625 9.515625 50.796875 4.046875 
Q 43.703125 -1.421875 29.984375 -1.421875 
Q 24.8125 -1.421875 18.96875 -0.25 
Q 13.140625 0.921875 6.890625 3.21875 
L 6.890625 13.375 
Q 12.890625 10.015625 18.65625 8.296875 
Q 24.421875 6.59375 29.984375 6.59375 
Q 38.421875 6.59375 43.015625 9.90625 
Q 47.609375 13.234375 47.609375 19.390625 
Q 47.609375 24.75 44.3125 27.78125 
Q 41.015625 30.8125 33.5 32.328125 
L 27.484375 33.5 
Q 16.453125 35.6875 11.515625 40.375 
Q 6.59375 45.0625 6.59375 53.421875 
Q 6.59375 63.09375 13.40625 68.65625 
Q 20.21875 74.21875 32.171875 74.21875 
Q 37.3125 74.21875 42.625 73.28125 
Q 47.953125 72.359375 53.515625 70.515625 
z
" id="DejaVuSans-53"/>
     <path d="M 14.796875 27.296875 
Q 14.796875 17.390625 18.875 11.75 
Q 22.953125 6.109375 30.078125 6.109375 
Q 37.203125 6.109375 41.296875 11.75 
Q 45.40625 17.390625 45.40625 27.296875 
Q 45.40625 37.203125 41.296875 42.84375 
Q 37.203125 48.484375 30.078125 48.484375 
Q 22.953125 48.484375 18.875 42.84375 
Q 14.796875 37.203125 14.796875 27.296875 
z
M 45.40625 8.203125 
Q 42.578125 3.328125 38.25 0.953125 
Q 33.9375 -1.421875 27.875 -1.421875 
Q 17.96875 -1.421875 11.734375 6.484375 
Q 5.515625 14.40625 5.515625 27.296875 
Q 5.515625 40.1875 11.734375 48.09375 
Q 17.96875 56 27.875 56 
Q 33.9375 56 38.25 53.625 
Q 42.578125 51.265625 45.40625 46.390625 
L 45.40625 54.6875 
L 54.390625 54.6875 
L 54.390625 -20.796875 
L 45.40625 -20.796875 
z
" id="DejaVuSans-71"/>
     <path d="M 8.5 21.578125 
L 8.5 54.6875 
L 17.484375 54.6875 
L 17.484375 21.921875 
Q 17.484375 14.15625 20.5 10.265625 
Q 23.53125 6.390625 29.59375 6.390625 
Q 36.859375 6.390625 41.078125 11.03125 
Q 45.3125 15.671875 45.3125 23.6875 
L 45.3125 54.6875 
L 54.296875 54.6875 
L 54.296875 0 
L 45.3125 0 
L 45.3125 8.40625 
Q 42.046875 3.421875 37.71875 1 
Q 33.40625 -1.421875 27.6875 -1.421875 
Q 18.265625 -1.421875 13.375 4.4375 
Q 8.5 10.296875 8.5 21.578125 
z
M 31.109375 56 
z
" id="DejaVuSans-75"/>
     <path d="M 30.609375 48.390625 
Q 23.390625 48.390625 19.1875 42.75 
Q 14.984375 37.109375 14.984375 27.296875 
Q 14.984375 17.484375 19.15625 11.84375 
Q 23.34375 6.203125 30.609375 6.203125 
Q 37.796875 6.203125 41.984375 11.859375 
Q 46.1875 17.53125 46.1875 27.296875 
Q 46.1875 37.015625 41.984375 42.703125 
Q 37.796875 48.390625 30.609375 48.390625 
z
M 30.609375 56 
Q 42.328125 56 49.015625 48.375 
Q 55.71875 40.765625 55.71875 27.296875 
Q 55.71875 13.875 49.015625 6.21875 
Q 42.328125 -1.421875 30.609375 -1.421875 
Q 18.84375 -1.421875 12.171875 6.21875 
Q 5.515625 13.875 5.515625 27.296875 
Q 5.515625 40.765625 12.171875 48.375 
Q 18.84375 56 30.609375 56 
z
" id="DejaVuSans-6f"/>
    </defs>
    <g transform="translate(371.641875 19.3575)scale(0.16 -0.16)">
     <use xlink:href="#DejaVuSans-46"/>
     <use x="57.378906" xlink:href="#DejaVuSans-61"/>
     <use x="118.658203" xlink:href="#DejaVuSans-73"/>
     <use x="170.757812" xlink:href="#DejaVuSans-74"/>
     <use x="209.966797" xlink:href="#DejaVuSans-51"/>
     <use x="288.677734" xlink:href="#DejaVuSans-43"/>
     <use x="358.501953" xlink:href="#DejaVuSans-3a"/>
     <use x="392.193359" xlink:href="#DejaVuSans-20"/>
     <use x="423.980469" xlink:href="#DejaVuSans-50"/>
     <use x="484.236328" xlink:href="#DejaVuSans-65"/>
     <use x="545.759766" xlink:href="#DejaVuSans-72"/>
     <use x="586.873047" xlink:href="#DejaVuSans-20"/>
     <use x="618.660156" xlink:href="#DejaVuSans-53"/>
     <use x="682.136719" xlink:href="#DejaVuSans-65"/>
     <use x="743.660156" xlink:href="#DejaVuSans-71"/>
     <use x="807.136719" xlink:href="#DejaVuSans-75"/>
     <use x="870.515625" xlink:href="#DejaVuSans-65"/>
     <use x="932.039062" xlink:href="#DejaVuSans-6e"/>
     <use x="995.417969" xlink:href="#DejaVuSans-63"/>
     <use x="1050.398438" xlink:href="#DejaVuSans-65"/>
     <use x="1111.921875" xlink:href="#DejaVuSans-20"/>
     <use x="1143.708984" xlink:href="#DejaVuSans-47"/>
     <use x="1221.199219" xlink:href="#DejaVuSans-43"/>
     <use x="1291.023438" xlink:href="#DejaVuSans-20"/>
     <use x="1322.810547" xlink:href="#DejaVuSans-43"/>
     <use x="1392.634766" xlink:href="#DejaVuSans-6f"/>
     <use x="1453.816406" xlink:href="#DejaVuSans-6e"/>
     <use x="1517.195312" xlink:href="#DejaVuSans-74"/>
     <use x="1556.404297" xlink:href="#DejaVuSans-65"/>
     <use x="1617.927734" xlink:href="#DejaVuSans-6e"/>
     <use x="1681.306641" xlink:href="#DejaVuSans-74"/>
    </g>
   </g>
   <g id="legend_1">
    <g id="line2d_18">
     <path d="M 40.168125 325.836834 
L 56.168125 325.836834 
" style="fill:none;stroke:#f0ad4e;stroke-linecap:square;"/>
    </g>
    <g id="line2d_19"/>
    <g id="text_15">
     <!-- fastqc | SRR9264344_S0_L001_I1_001 -->
     <defs>
      <path d="M 37.109375 75.984375 
L 37.109375 68.5 
L 28.515625 68.5 
Q 23.6875 68.5 21.796875 66.546875 
Q 19.921875 64.59375 19.921875 59.515625 
L 19.921875 54.6875 
L 34.71875 54.6875 
L 34.71875 47.703125 
L 19.921875 47.703125 
L 19.921875 0 
L 10.890625 0 
L 10.890625 47.703125 
L 2.296875 47.703125 
L 2.296875 54.6875 
L 10.890625 54.6875 
L 10.890625 58.5 
Q 10.890625 67.625 15.140625 71.796875 
Q 19.390625 75.984375 28.609375 75.984375 
z
" id="DejaVuSans-66"/>
      <path d="M 21 76.421875 
L 21 -23.578125 
L 12.703125 -23.578125 
L 12.703125 76.421875 
z
" id="DejaVuSans-7c"/>
      <path d="M 44.390625 34.1875 
Q 47.5625 33.109375 50.5625 29.59375 
Q 53.5625 26.078125 56.59375 19.921875 
L 66.609375 0 
L 56 0 
L 46.6875 18.703125 
Q 43.0625 26.03125 39.671875 28.421875 
Q 36.28125 30.8125 30.421875 30.8125 
L 19.671875 30.8125 
L 19.671875 0 
L 9.8125 0 
L 9.8125 72.90625 
L 32.078125 72.90625 
Q 44.578125 72.90625 50.734375 67.671875 
Q 56.890625 62.453125 56.890625 51.90625 
Q 56.890625 45.015625 53.6875 40.46875 
Q 50.484375 35.9375 44.390625 34.1875 
z
M 19.671875 64.796875 
L 19.671875 38.921875 
L 32.078125 38.921875 
Q 39.203125 38.921875 42.84375 42.21875 
Q 46.484375 45.515625 46.484375 51.90625 
Q 46.484375 58.296875 42.84375 61.546875 
Q 39.203125 64.796875 32.078125 64.796875 
z
" id="DejaVuSans-52"/>
      <path d="M 10.984375 1.515625 
L 10.984375 10.5 
Q 14.703125 8.734375 18.5 7.8125 
Q 22.3125 6.890625 25.984375 6.890625 
Q 35.75 6.890625 40.890625 13.453125 
Q 46.046875 20.015625 46.78125 33.40625 
Q 43.953125 29.203125 39.59375 26.953125 
Q 35.25 24.703125 29.984375 24.703125 
Q 19.046875 24.703125 12.671875 31.3125 
Q 6.296875 37.9375 6.296875 49.421875 
Q 6.296875 60.640625 12.9375 67.421875 
Q 19.578125 74.21875 30.609375 74.21875 
Q 43.265625 74.21875 49.921875 64.515625 
Q 56.59375 54.828125 56.59375 36.375 
Q 56.59375 19.140625 48.40625 8.859375 
Q 40.234375 -1.421875 26.421875 -1.421875 
Q 22.703125 -1.421875 18.890625 -0.6875 
Q 15.09375 0.046875 10.984375 1.515625 
z
M 30.609375 32.421875 
Q 37.25 32.421875 41.125 36.953125 
Q 45.015625 41.5 45.015625 49.421875 
Q 45.015625 57.28125 41.125 61.84375 
Q 37.25 66.40625 30.609375 66.40625 
Q 23.96875 66.40625 20.09375 61.84375 
Q 16.21875 57.28125 16.21875 49.421875 
Q 16.21875 41.5 20.09375 36.953125 
Q 23.96875 32.421875 30.609375 32.421875 
z
" id="DejaVuSans-39"/>
      <path d="M 50.984375 -16.609375 
L 50.984375 -23.578125 
L -0.984375 -23.578125 
L -0.984375 -16.609375 
z
" id="DejaVuSans-5f"/>
      <path d="M 9.8125 72.90625 
L 19.671875 72.90625 
L 19.671875 8.296875 
L 55.171875 8.296875 
L 55.171875 0 
L 9.8125 0 
z
" id="DejaVuSans-4c"/>
      <path d="M 9.8125 72.90625 
L 19.671875 72.90625 
L 19.671875 0 
L 9.8125 0 
z
" id="DejaVuSans-49"/>
     </defs>
     <g transform="translate(62.568125 328.636834)scale(0.08 -0.08)">
      <use xlink:href="#DejaVuSans-66"/>
      <use x="35.205078" xlink:href="#DejaVuSans-61"/>
      <use x="96.484375" xlink:href="#DejaVuSans-73"/>
      <use x="148.583984" xlink:href="#DejaVuSans-74"/>
      <use x="187.792969" xlink:href="#DejaVuSans-71"/>
      <use x="251.269531" xlink:href="#DejaVuSans-63"/>
      <use x="306.25" xlink:href="#DejaVuSans-20"/>
      <use x="338.037109" xlink:href="#DejaVuSans-7c"/>
      <use x="371.728516" xlink:href="#DejaVuSans-20"/>
      <use x="403.515625" xlink:href="#DejaVuSans-53"/>
      <use x="466.992188" xlink:href="#DejaVuSans-52"/>
      <use x="536.474609" xlink:href="#DejaVuSans-52"/>
      <use x="605.957031" xlink:href="#DejaVuSans-39"/>
      <use x="669.580078" xlink:href="#DejaVuSans-32"/>
      <use x="733.203125" xlink:href="#DejaVuSans-36"/>
      <use x="796.826172" xlink:href="#DejaVuSans-34"/>
      <use x="860.449219" xlink:href="#DejaVuSans-33"/>
      <use x="924.072266" xlink:href="#DejaVuSans-34"/>
      <use x="987.695312" xlink:href="#DejaVuSans-34"/>
      <use x="1051.318359" xlink:href="#DejaVuSans-5f"/>
      <use x="1101.318359" xlink:href="#DejaVuSans-53"/>
      <use x="1164.794922" xlink:href="#DejaVuSans-30"/>
      <use x="1228.417969" xlink:href="#DejaVuSans-5f"/>
      <use x="1278.417969" xlink:href="#DejaVuSans-4c"/>
      <use x="1334.130859" xlink:href="#DejaVuSans-30"/>
      <use x="1397.753906" xlink:href="#DejaVuSans-30"/>
      <use x="1461.376953" xlink:href="#DejaVuSans-31"/>
      <use x="1525" xlink:href="#DejaVuSans-5f"/>
      <use x="1575" xlink:href="#DejaVuSans-49"/>
      <use x="1604.492188" xlink:href="#DejaVuSans-31"/>
      <use x="1668.115234" xlink:href="#DejaVuSans-5f"/>
      <use x="1718.115234" xlink:href="#DejaVuSans-30"/>
      <use x="1781.738281" xlink:href="#DejaVuSans-30"/>
      <use x="1845.361328" xlink:href="#DejaVuSans-31"/>
     </g>
    </g>
    <g id="line2d_20">
     <path d="M 40.168125 337.836834 
L 56.168125 337.836834 
" style="fill:none;stroke:#d9534f;stroke-linecap:square;"/>
    </g>
    <g id="line2d_21"/>
    <g id="text_16">
     <!-- fastqc | SRR9264345_S0_L001_I1_001 -->
     <defs>
      <path d="M 10.796875 72.90625 
L 49.515625 72.90625 
L 49.515625 64.59375 
L 19.828125 64.59375 
L 19.828125 46.734375 
Q 21.96875 47.46875 24.109375 47.828125 
Q 26.265625 48.1875 28.421875 48.1875 
Q 40.625 48.1875 47.75 41.5 
Q 54.890625 34.8125 54.890625 23.390625 
Q 54.890625 11.625 47.5625 5.09375 
Q 40.234375 -1.421875 26.90625 -1.421875 
Q 22.3125 -1.421875 17.546875 -0.640625 
Q 12.796875 0.140625 7.71875 1.703125 
L 7.71875 11.625 
Q 12.109375 9.234375 16.796875 8.0625 
Q 21.484375 6.890625 26.703125 6.890625 
Q 35.15625 6.890625 40.078125 11.328125 
Q 45.015625 15.765625 45.015625 23.390625 
Q 45.015625 31 40.078125 35.4375 
Q 35.15625 39.890625 26.703125 39.890625 
Q 22.75 39.890625 18.8125 39.015625 
Q 14.890625 38.140625 10.796875 36.28125 
z
" id="DejaVuSans-35"/>
     </defs>
     <g transform="translate(62.568125 340.636834)scale(0.08 -0.08)">
      <use xlink:href="#DejaVuSans-66"/>
      <use x="35.205078" xlink:href="#DejaVuSans-61"/>
      <use x="96.484375" xlink:href="#DejaVuSans-73"/>
      <use x="148.583984" xlink:href="#DejaVuSans-74"/>
      <use x="187.792969" xlink:href="#DejaVuSans-71"/>
      <use x="251.269531" xlink:href="#DejaVuSans-63"/>
      <use x="306.25" xlink:href="#DejaVuSans-20"/>
      <use x="338.037109" xlink:href="#DejaVuSans-7c"/>
      <use x="371.728516" xlink:href="#DejaVuSans-20"/>
      <use x="403.515625" xlink:href="#DejaVuSans-53"/>
      <use x="466.992188" xlink:href="#DejaVuSans-52"/>
      <use x="536.474609" xlink:href="#DejaVuSans-52"/>
      <use x="605.957031" xlink:href="#DejaVuSans-39"/>
      <use x="669.580078" xlink:href="#DejaVuSans-32"/>
      <use x="733.203125" xlink:href="#DejaVuSans-36"/>
      <use x="796.826172" xlink:href="#DejaVuSans-34"/>
      <use x="860.449219" xlink:href="#DejaVuSans-33"/>
      <use x="924.072266" xlink:href="#DejaVuSans-34"/>
      <use x="987.695312" xlink:href="#DejaVuSans-35"/>
      <use x="1051.318359" xlink:href="#DejaVuSans-5f"/>
      <use x="1101.318359" xlink:href="#DejaVuSans-53"/>
      <use x="1164.794922" xlink:href="#DejaVuSans-30"/>
      <use x="1228.417969" xlink:href="#DejaVuSans-5f"/>
      <use x="1278.417969" xlink:href="#DejaVuSans-4c"/>
      <use x="1334.130859" xlink:href="#DejaVuSans-30"/>
      <use x="1397.753906" xlink:href="#DejaVuSans-30"/>
      <use x="1461.376953" xlink:href="#DejaVuSans-31"/>
      <use x="1525" xlink:href="#DejaVuSans-5f"/>
      <use x="1575" xlink:href="#DejaVuSans-49"/>
      <use x="1604.492188" xlink:href="#DejaVuSans-31"/>
      <use x="1668.115234" xlink:href="#DejaVuSans-5f"/>
      <use x="1718.115234" xlink:href="#DejaVuSans-30"/>
      <use x="1781.738281" xlink:href="#DejaVuSans-30"/>
      <use x="1845.361328" xlink:href="#DejaVuSans-31"/>
     </g>
    </g>
    <g id="line2d_22">
     <path d="M 40.168125 349.836834 
L 56.168125 349.836834 
" style="fill:none;stroke:#d9534f;stroke-linecap:square;"/>
    </g>
    <g id="line2d_23"/>
    <g id="text_17">
     <!-- fastqc | SRR9264346_S0_L001_I1_001 -->
     <g transform="translate(62.568125 352.636834)scale(0.08 -0.08)">
      <use xlink:href="#DejaVuSans-66"/>
      <use x="35.205078" xlink:href="#DejaVuSans-61"/>
      <use x="96.484375" xlink:href="#DejaVuSans-73"/>
      <use x="148.583984" xlink:href="#DejaVuSans-74"/>
      <use x="187.792969" xlink:href="#DejaVuSans-71"/>
      <use x="251.269531" xlink:href="#DejaVuSans-63"/>
      <use x="306.25" xlink:href="#DejaVuSans-20"/>
      <use x="338.037109" xlink:href="#DejaVuSans-7c"/>
      <use x="371.728516" xlink:href="#DejaVuSans-20"/>
      <use x="403.515625" xlink:href="#DejaVuSans-53"/>
      <use x="466.992188" xlink:href="#DejaVuSans-52"/>
      <use x="536.474609" xlink:href="#DejaVuSans-52"/>
      <use x="605.957031" xlink:href="#DejaVuSans-39"/>
      <use x="669.580078" xlink:href="#DejaVuSans-32"/>
      <use x="733.203125" xlink:href="#DejaVuSans-36"/>
      <use x="796.826172" xlink:href="#DejaVuSans-34"/>
      <use x="860.449219" xlink:href="#DejaVuSans-33"/>
      <use x="924.072266" xlink:href="#DejaVuSans-34"/>
      <use x="987.695312" xlink:href="#DejaVuSans-36"/>
      <use x="1051.318359" xlink:href="#DejaVuSans-5f"/>
      <use x="1101.318359" xlink:href="#DejaVuSans-53"/>
      <use x="1164.794922" xlink:href="#DejaVuSans-30"/>
      <use x="1228.417969" xlink:href="#DejaVuSans-5f"/>
      <use x="1278.417969" xlink:href="#DejaVuSans-4c"/>
      <use x="1334.130859" xlink:href="#DejaVuSans-30"/>
      <use x="1397.753906" xlink:href="#DejaVuSans-30"/>
      <use x="1461.376953" xlink:href="#DejaVuSans-31"/>
      <use x="1525" xlink:href="#DejaVuSans-5f"/>
      <use x="1575" xlink:href="#DejaVuSans-49"/>
      <use x="1604.492188" xlink:href="#DejaVuSans-31"/>
      <use x="1668.115234" xlink:href="#DejaVuSans-5f"/>
      <use x="1718.115234" xlink:href="#DejaVuSans-30"/>
      <use x="1781.738281" xlink:href="#DejaVuSans-30"/>
      <use x="1845.361328" xlink:href="#DejaVuSans-31"/>
     </g>
    </g>
    <g id="line2d_24">
     <path d="M 230.945 325.836834 
L 246.945 325.836834 
" style="fill:none;stroke:#d9534f;stroke-linecap:square;"/>
    </g>
    <g id="line2d_25"/>
    <g id="text_18">
     <!-- fastqc | SRR9264347_S0_L001_I1_001 -->
     <defs>
      <path d="M 8.203125 72.90625 
L 55.078125 72.90625 
L 55.078125 68.703125 
L 28.609375 0 
L 18.3125 0 
L 43.21875 64.59375 
L 8.203125 64.59375 
z
" id="DejaVuSans-37"/>
     </defs>
     <g transform="translate(253.345 328.636834)scale(0.08 -0.08)">
      <use xlink:href="#DejaVuSans-66"/>
      <use x="35.205078" xlink:href="#DejaVuSans-61"/>
      <use x="96.484375" xlink:href="#DejaVuSans-73"/>
      <use x="148.583984" xlink:href="#DejaVuSans-74"/>
      <use x="187.792969" xlink:href="#DejaVuSans-71"/>
      <use x="251.269531" xlink:href="#DejaVuSans-63"/>
      <use x="306.25" xlink:href="#DejaVuSans-20"/>
      <use x="338.037109" xlink:href="#DejaVuSans-7c"/>
      <use x="371.728516" xlink:href="#DejaVuSans-20"/>
      <use x="403.515625" xlink:href="#DejaVuSans-53"/>
      <use x="466.992188" xlink:href="#DejaVuSans-52"/>
      <use x="536.474609" xlink:href="#DejaVuSans-52"/>
      <use x="605.957031" xlink:href="#DejaVuSans-39"/>
      <use x="669.580078" xlink:href="#DejaVuSans-32"/>
      <use x="733.203125" xlink:href="#DejaVuSans-36"/>
      <use x="796.826172" xlink:href="#DejaVuSans-34"/>
      <use x="860.449219" xlink:href="#DejaVuSans-33"/>
      <use x="924.072266" xlink:href="#DejaVuSans-34"/>
      <use x="987.695312" xlink:href="#DejaVuSans-37"/>
      <use x="1051.318359" xlink:href="#DejaVuSans-5f"/>
      <use x="1101.318359" xlink:href="#DejaVuSans-53"/>
      <use x="1164.794922" xlink:href="#DejaVuSans-30"/>
      <use x="1228.417969" xlink:href="#DejaVuSans-5f"/>
      <use x="1278.417969" xlink:href="#DejaVuSans-4c"/>
      <use x="1334.130859" xlink:href="#DejaVuSans-30"/>
      <use x="1397.753906" xlink:href="#DejaVuSans-30"/>
      <use x="1461.376953" xlink:href="#DejaVuSans-31"/>
      <use x="1525" xlink:href="#DejaVuSans-5f"/>
      <use x="1575" xlink:href="#DejaVuSans-49"/>
      <use x="1604.492188" xlink:href="#DejaVuSans-31"/>
      <use x="1668.115234" xlink:href="#DejaVuSans-5f"/>
      <use x="1718.115234" xlink:href="#DejaVuSans-30"/>
      <use x="1781.738281" xlink:href="#DejaVuSans-30"/>
      <use x="1845.361328" xlink:href="#DejaVuSans-31"/>
     </g>
    </g>
    <g id="line2d_26">
     <path d="M 230.945 337.836834 
L 246.945 337.836834 
" style="fill:none;stroke:#d9534f;stroke-linecap:square;"/>
    </g>
    <g id="line2d_27"/>
    <g id="text_19">
     <!-- fastqc | SRR9264348_S0_L001_I1_001 -->
     <g transform="translate(253.345 340.636834)scale(0.08 -0.08)">
      <use xlink:href="#DejaVuSans-66"/>
      <use x="35.205078" xlink:href="#DejaVuSans-61"/>
      <use x="96.484375" xlink:href="#DejaVuSans-73"/>
      <use x="148.583984" xlink:href="#DejaVuSans-74"/>
      <use x="187.792969" xlink:href="#DejaVuSans-71"/>
      <use x="251.269531" xlink:href="#DejaVuSans-63"/>
      <use x="306.25" xlink:href="#DejaVuSans-20"/>
      <use x="338.037109" xlink:href="#DejaVuSans-7c"/>
      <use x="371.728516" xlink:href="#DejaVuSans-20"/>
      <use x="403.515625" xlink:href="#DejaVuSans-53"/>
      <use x="466.992188" xlink:href="#DejaVuSans-52"/>
      <use x="536.474609" xlink:href="#DejaVuSans-52"/>
      <use x="605.957031" xlink:href="#DejaVuSans-39"/>
      <use x="669.580078" xlink:href="#DejaVuSans-32"/>
      <use x="733.203125" xlink:href="#DejaVuSans-36"/>
      <use x="796.826172" xlink:href="#DejaVuSans-34"/>
      <use x="860.449219" xlink:href="#DejaVuSans-33"/>
      <use x="924.072266" xlink:href="#DejaVuSans-34"/>
      <use x="987.695312" xlink:href="#DejaVuSans-38"/>
      <use x="1051.318359" xlink:href="#DejaVuSans-5f"/>
      <use x="1101.318359" xlink:href="#DejaVuSans-53"/>
      <use x="1164.794922" xlink:href="#DejaVuSans-30"/>
      <use x="1228.417969" xlink:href="#DejaVuSans-5f"/>
      <use x="1278.417969" xlink:href="#DejaVuSans-4c"/>
      <use x="1334.130859" xlink:href="#DejaVuSans-30"/>
      <use x="1397.753906" xlink:href="#DejaVuSans-30"/>
      <use x="1461.376953" xlink:href="#DejaVuSans-31"/>
      <use x="1525" xlink:href="#DejaVuSans-5f"/>
      <use x="1575" xlink:href="#DejaVuSans-49"/>
      <use x="1604.492188" xlink:href="#DejaVuSans-31"/>
      <use x="1668.115234" xlink:href="#DejaVuSans-5f"/>
      <use x="1718.115234" xlink:href="#DejaVuSans-30"/>
      <use x="1781.738281" xlink:href="#DejaVuSans-30"/>
      <use x="1845.361328" xlink:href="#DejaVuSans-31"/>
     </g>
    </g>
    <g id="line2d_28">
     <path d="M 421.721875 325.836834 
L 437.721875 325.836834 
" style="fill:none;stroke:#d9534f;stroke-linecap:square;"/>
    </g>
    <g id="line2d_29"/>
    <g id="text_20">
     <!-- fastqc | SRR9264349_S0_L001_I1_001 -->
     <g transform="translate(444.121875 328.636834)scale(0.08 -0.08)">
      <use xlink:href="#DejaVuSans-66"/>
      <use x="35.205078" xlink:href="#DejaVuSans-61"/>
      <use x="96.484375" xlink:href="#DejaVuSans-73"/>
      <use x="148.583984" xlink:href="#DejaVuSans-74"/>
      <use x="187.792969" xlink:href="#DejaVuSans-71"/>
      <use x="251.269531" xlink:href="#DejaVuSans-63"/>
      <use x="306.25" xlink:href="#DejaVuSans-20"/>
      <use x="338.037109" xlink:href="#DejaVuSans-7c"/>
      <use x="371.728516" xlink:href="#DejaVuSans-20"/>
      <use x="403.515625" xlink:href="#DejaVuSans-53"/>
      <use x="466.992188" xlink:href="#DejaVuSans-52"/>
      <use x="536.474609" xlink:href="#DejaVuSans-52"/>
      <use x="605.957031" xlink:href="#DejaVuSans-39"/>
      <use x="669.580078" xlink:href="#DejaVuSans-32"/>
      <use x="733.203125" xlink:href="#DejaVuSans-36"/>
      <use x="796.826172" xlink:href="#DejaVuSans-34"/>
      <use x="860.449219" xlink:href="#DejaVuSans-33"/>
      <use x="924.072266" xlink:href="#DejaVuSans-34"/>
      <use x="987.695312" xlink:href="#DejaVuSans-39"/>
      <use x="1051.318359" xlink:href="#DejaVuSans-5f"/>
      <use x="1101.318359" xlink:href="#DejaVuSans-53"/>
      <use x="1164.794922" xlink:href="#DejaVuSans-30"/>
      <use x="1228.417969" xlink:href="#DejaVuSans-5f"/>
      <use x="1278.417969" xlink:href="#DejaVuSans-4c"/>
      <use x="1334.130859" xlink:href="#DejaVuSans-30"/>
      <use x="1397.753906" xlink:href="#DejaVuSans-30"/>
      <use x="1461.376953" xlink:href="#DejaVuSans-31"/>
      <use x="1525" xlink:href="#DejaVuSans-5f"/>
      <use x="1575" xlink:href="#DejaVuSans-49"/>
      <use x="1604.492188" xlink:href="#DejaVuSans-31"/>
      <use x="1668.115234" xlink:href="#DejaVuSans-5f"/>
      <use x="1718.115234" xlink:href="#DejaVuSans-30"/>
      <use x="1781.738281" xlink:href="#DejaVuSans-30"/>
      <use x="1845.361328" xlink:href="#DejaVuSans-31"/>
     </g>
    </g>
    <g id="line2d_30">
     <path d="M 421.721875 337.836834 
L 437.721875 337.836834 
" style="fill:none;stroke:#d9534f;stroke-linecap:square;"/>
    </g>
    <g id="line2d_31"/>
    <g id="text_21">
     <!-- fastqc | SRR9264350_S0_L001_I1_001 -->
     <g transform="translate(444.121875 340.636834)scale(0.08 -0.08)">
      <use xlink:href="#DejaVuSans-66"/>
      <use x="35.205078" xlink:href="#DejaVuSans-61"/>
      <use x="96.484375" xlink:href="#DejaVuSans-73"/>
      <use x="148.583984" xlink:href="#DejaVuSans-74"/>
      <use x="187.792969" xlink:href="#DejaVuSans-71"/>
      <use x="251.269531" xlink:href="#DejaVuSans-63"/>
      <use x="306.25" xlink:href="#DejaVuSans-20"/>
      <use x="338.037109" xlink:href="#DejaVuSans-7c"/>
      <use x="371.728516" xlink:href="#DejaVuSans-20"/>
      <use x="403.515625" xlink:href="#DejaVuSans-53"/>
      <use x="466.992188" xlink:href="#DejaVuSans-52"/>
      <use x="536.474609" xlink:href="#DejaVuSans-52"/>
      <use x="605.957031" xlink:href="#DejaVuSans-39"/>
      <use x="669.580078" xlink:href="#DejaVuSans-32"/>
      <use x="733.203125" xlink:href="#DejaVuSans-36"/>
      <use x="796.826172" xlink:href="#DejaVuSans-34"/>
      <use x="860.449219" xlink:href="#DejaVuSans-33"/>
      <use x="924.072266" xlink:href="#DejaVuSans-35"/>
      <use x="987.695312" xlink:href="#DejaVuSans-30"/>
      <use x="1051.318359" xlink:href="#DejaVuSans-5f"/>
      <use x="1101.318359" xlink:href="#DejaVuSans-53"/>
      <use x="1164.794922" xlink:href="#DejaVuSans-30"/>
      <use x="1228.417969" xlink:href="#DejaVuSans-5f"/>
      <use x="1278.417969" xlink:href="#DejaVuSans-4c"/>
      <use x="1334.130859" xlink:href="#DejaVuSans-30"/>
      <use x="1397.753906" xlink:href="#DejaVuSans-30"/>
      <use x="1461.376953" xlink:href="#DejaVuSans-31"/>
      <use x="1525" xlink:href="#DejaVuSans-5f"/>
      <use x="1575" xlink:href="#DejaVuSans-49"/>
      <use x="1604.492188" xlink:href="#DejaVuSans-31"/>
      <use x="1668.115234" xlink:href="#DejaVuSans-5f"/>
      <use x="1718.115234" xlink:href="#DejaVuSans-30"/>
      <use x="1781.738281" xlink:href="#DejaVuSans-30"/>
      <use x="1845.361328" xlink:href="#DejaVuSans-31"/>
     </g>
    </g>
    <g id="line2d_32">
     <path d="M 612.49875 325.836834 
L 628.49875 325.836834 
" style="fill:none;stroke:#d9534f;stroke-linecap:square;"/>
    </g>
    <g id="line2d_33"/>
    <g id="text_22">
     <!-- fastqc | SRR9264351_S0_L001_I1_001 -->
     <g transform="translate(634.89875 328.636834)scale(0.08 -0.08)">
      <use xlink:href="#DejaVuSans-66"/>
      <use x="35.205078" xlink:href="#DejaVuSans-61"/>
      <use x="96.484375" xlink:href="#DejaVuSans-73"/>
      <use x="148.583984" xlink:href="#DejaVuSans-74"/>
      <use x="187.792969" xlink:href="#DejaVuSans-71"/>
      <use x="251.269531" xlink:href="#DejaVuSans-63"/>
      <use x="306.25" xlink:href="#DejaVuSans-20"/>
      <use x="338.037109" xlink:href="#DejaVuSans-7c"/>
      <use x="371.728516" xlink:href="#DejaVuSans-20"/>
      <use x="403.515625" xlink:href="#DejaVuSans-53"/>
      <use x="466.992188" xlink:href="#DejaVuSans-52"/>
      <use x="536.474609" xlink:href="#DejaVuSans-52"/>
      <use x="605.957031" xlink:href="#DejaVuSans-39"/>
      <use x="669.580078" xlink:href="#DejaVuSans-32"/>
      <use x="733.203125" xlink:href="#DejaVuSans-36"/>
      <use x="796.826172" xlink:href="#DejaVuSans-34"/>
      <use x="860.449219" xlink:href="#DejaVuSans-33"/>
      <use x="924.072266" xlink:href="#DejaVuSans-35"/>
      <use x="987.695312" xlink:href="#DejaVuSans-31"/>
      <use x="1051.318359" xlink:href="#DejaVuSans-5f"/>
      <use x="1101.318359" xlink:href="#DejaVuSans-53"/>
      <use x="1164.794922" xlink:href="#DejaVuSans-30"/>
      <use x="1228.417969" xlink:href="#DejaVuSans-5f"/>
      <use x="1278.417969" xlink:href="#DejaVuSans-4c"/>
      <use x="1334.130859" xlink:href="#DejaVuSans-30"/>
      <use x="1397.753906" xlink:href="#DejaVuSans-30"/>
      <use x="1461.376953" xlink:href="#DejaVuSans-31"/>
      <use x="1525" xlink:href="#DejaVuSans-5f"/>
      <use x="1575" xlink:href="#DejaVuSans-49"/>
      <use x="1604.492188" xlink:href="#DejaVuSans-31"/>
      <use x="1668.115234" xlink:href="#DejaVuSans-5f"/>
      <use x="1718.115234" xlink:href="#DejaVuSans-30"/>
      <use x="1781.738281" xlink:href="#DejaVuSans-30"/>
      <use x="1845.361328" xlink:href="#DejaVuSans-31"/>
     </g>
    </g>
    <g id="line2d_34">
     <path d="M 612.49875 337.836834 
L 628.49875 337.836834 
" style="fill:none;stroke:#d9534f;stroke-linecap:square;"/>
    </g>
    <g id="line2d_35"/>
    <g id="text_23">
     <!-- fastqc | SRR9264352_S0_L001_I1_001 -->
     <g transform="translate(634.89875 340.636834)scale(0.08 -0.08)">
      <use xlink:href="#DejaVuSans-66"/>
      <use x="35.205078" xlink:href="#DejaVuSans-61"/>
      <use x="96.484375" xlink:href="#DejaVuSans-73"/>
      <use x="148.583984" xlink:href="#DejaVuSans-74"/>
      <use x="187.792969" xlink:href="#DejaVuSans-71"/>
      <use x="251.269531" xlink:href="#DejaVuSans-63"/>
      <use x="306.25" xlink:href="#DejaVuSans-20"/>
      <use x="338.037109" xlink:href="#DejaVuSans-7c"/>
      <use x="371.728516" xlink:href="#DejaVuSans-20"/>
      <use x="403.515625" xlink:href="#DejaVuSans-53"/>
      <use x="466.992188" xlink:href="#DejaVuSans-52"/>
      <use x="536.474609" xlink:href="#DejaVuSans-52"/>
      <use x="605.957031" xlink:href="#DejaVuSans-39"/>
      <use x="669.580078" xlink:href="#DejaVuSans-32"/>
      <use x="733.203125" xlink:href="#DejaVuSans-36"/>
      <use x="796.826172" xlink:href="#DejaVuSans-34"/>
      <use x="860.449219" xlink:href="#DejaVuSans-33"/>
      <use x="924.072266" xlink:href="#DejaVuSans-35"/>
      <use x="987.695312" xlink:href="#DejaVuSans-32"/>
      <use x="1051.318359" xlink:href="#DejaVuSans-5f"/>
      <use x="1101.318359" xlink:href="#DejaVuSans-53"/>
      <use x="1164.794922" xlink:href="#DejaVuSans-30"/>
      <use x="1228.417969" xlink:href="#DejaVuSans-5f"/>
      <use x="1278.417969" xlink:href="#DejaVuSans-4c"/>
      <use x="1334.130859" xlink:href="#DejaVuSans-30"/>
      <use x="1397.753906" xlink:href="#DejaVuSans-30"/>
      <use x="1461.376953" xlink:href="#DejaVuSans-31"/>
      <use x="1525" xlink:href="#DejaVuSans-5f"/>
      <use x="1575" xlink:href="#DejaVuSans-49"/>
      <use x="1604.492188" xlink:href="#DejaVuSans-31"/>
      <use x="1668.115234" xlink:href="#DejaVuSans-5f"/>
      <use x="1718.115234" xlink:href="#DejaVuSans-30"/>
      <use x="1781.738281" xlink:href="#DejaVuSans-30"/>
      <use x="1845.361328" xlink:href="#DejaVuSans-31"/>
     </g>
    </g>
    <g id="line2d_36">
     <path d="M 803.275625 325.836834 
L 819.275625 325.836834 
" style="fill:none;stroke:#f0ad4e;stroke-linecap:square;"/>
    </g>
    <g id="line2d_37"/>
    <g id="text_24">
     <!-- fastqc | SRR9264353_S0_L001_I1_001 -->
     <g transform="translate(825.675625 328.636834)scale(0.08 -0.08)">
      <use xlink:href="#DejaVuSans-66"/>
      <use x="35.205078" xlink:href="#DejaVuSans-61"/>
      <use x="96.484375" xlink:href="#DejaVuSans-73"/>
      <use x="148.583984" xlink:href="#DejaVuSans-74"/>
      <use x="187.792969" xlink:href="#DejaVuSans-71"/>
      <use x="251.269531" xlink:href="#DejaVuSans-63"/>
      <use x="306.25" xlink:href="#DejaVuSans-20"/>
      <use x="338.037109" xlink:href="#DejaVuSans-7c"/>
      <use x="371.728516" xlink:href="#DejaVuSans-20"/>
      <use x="403.515625" xlink:href="#DejaVuSans-53"/>
      <use x="466.992188" xlink:href="#DejaVuSans-52"/>
      <use x="536.474609" xlink:href="#DejaVuSans-52"/>
      <use x="605.957031" xlink:href="#DejaVuSans-39"/>
      <use x="669.580078" xlink:href="#DejaVuSans-32"/>
      <use x="733.203125" xlink:href="#DejaVuSans-36"/>
      <use x="796.826172" xlink:href="#DejaVuSans-34"/>
      <use x="860.449219" xlink:href="#DejaVuSans-33"/>
      <use x="924.072266" xlink:href="#DejaVuSans-35"/>
      <use x="987.695312" xlink:href="#DejaVuSans-33"/>
      <use x="1051.318359" xlink:href="#DejaVuSans-5f"/>
      <use x="1101.318359" xlink:href="#DejaVuSans-53"/>
      <use x="1164.794922" xlink:href="#DejaVuSans-30"/>
      <use x="1228.417969" xlink:href="#DejaVuSans-5f"/>
      <use x="1278.417969" xlink:href="#DejaVuSans-4c"/>
      <use x="1334.130859" xlink:href="#DejaVuSans-30"/>
      <use x="1397.753906" xlink:href="#DejaVuSans-30"/>
      <use x="1461.376953" xlink:href="#DejaVuSans-31"/>
      <use x="1525" xlink:href="#DejaVuSans-5f"/>
      <use x="1575" xlink:href="#DejaVuSans-49"/>
      <use x="1604.492188" xlink:href="#DejaVuSans-31"/>
      <use x="1668.115234" xlink:href="#DejaVuSans-5f"/>
      <use x="1718.115234" xlink:href="#DejaVuSans-30"/>
      <use x="1781.738281" xlink:href="#DejaVuSans-30"/>
      <use x="1845.361328" xlink:href="#DejaVuSans-31"/>
     </g>
    </g>
    <g id="line2d_38">
     <path d="M 803.275625 337.836834 
L 819.275625 337.836834 
" style="fill:none;stroke:#d9534f;stroke-linecap:square;"/>
    </g>
    <g id="line2d_39"/>
    <g id="text_25">
     <!-- fastqc | SRR9264354_S0_L001_I1_001 -->
     <g transform="translate(825.675625 340.636834)scale(0.08 -0.08)">
      <use xlink:href="#DejaVuSans-66"/>
      <use x="35.205078" xlink:href="#DejaVuSans-61"/>
      <use x="96.484375" xlink:href="#DejaVuSans-73"/>
      <use x="148.583984" xlink:href="#DejaVuSans-74"/>
      <use x="187.792969" xlink:href="#DejaVuSans-71"/>
      <use x="251.269531" xlink:href="#DejaVuSans-63"/>
      <use x="306.25" xlink:href="#DejaVuSans-20"/>
      <use x="338.037109" xlink:href="#DejaVuSans-7c"/>
      <use x="371.728516" xlink:href="#DejaVuSans-20"/>
      <use x="403.515625" xlink:href="#DejaVuSans-53"/>
      <use x="466.992188" xlink:href="#DejaVuSans-52"/>
      <use x="536.474609" xlink:href="#DejaVuSans-52"/>
      <use x="605.957031" xlink:href="#DejaVuSans-39"/>
      <use x="669.580078" xlink:href="#DejaVuSans-32"/>
      <use x="733.203125" xlink:href="#DejaVuSans-36"/>
      <use x="796.826172" xlink:href="#DejaVuSans-34"/>
      <use x="860.449219" xlink:href="#DejaVuSans-33"/>
      <use x="924.072266" xlink:href="#DejaVuSans-35"/>
      <use x="987.695312" xlink:href="#DejaVuSans-34"/>
      <use x="1051.318359" xlink:href="#DejaVuSans-5f"/>
      <use x="1101.318359" xlink:href="#DejaVuSans-53"/>
      <use x="1164.794922" xlink:href="#DejaVuSans-30"/>
      <use x="1228.417969" xlink:href="#DejaVuSans-5f"/>
      <use x="1278.417969" xlink:href="#DejaVuSans-4c"/>
      <use x="1334.130859" xlink:href="#DejaVuSans-30"/>
      <use x="1397.753906" xlink:href="#DejaVuSans-30"/>
      <use x="1461.376953" xlink:href="#DejaVuSans-31"/>
      <use x="1525" xlink:href="#DejaVuSans-5f"/>
      <use x="1575" xlink:href="#DejaVuSans-49"/>
      <use x="1604.492188" xlink:href="#DejaVuSans-31"/>
      <use x="1668.115234" xlink:href="#DejaVuSans-5f"/>
      <use x="1718.115234" xlink:href="#DejaVuSans-30"/>
      <use x="1781.738281" xlink:href="#DejaVuSans-30"/>
      <use x="1845.361328" xlink:href="#DejaVuSans-31"/>
     </g>
    </g>
   </g>
  </g>
 </g>
 <defs>
  <clipPath id="pe82bc1382e">
   <rect height="269.5792" width="952.63" x="32.968125" y="32.83646"/>
  </clipPath>
 </defs>
</svg>
